<svg width="434" height="293" viewBox="0 0 434 293" fill="none" xmlns="http://www.w3.org/2000/svg">
<rect width="434" height="293" fill="white"/>
<path d="M30.5 131.5H163.5V264.5H30.5V131.5Z" fill="white" stroke="black" stroke-width="3"/>
<path d="M65.8807 290V278.364H70.733C72.0398 278.364 73.0265 278.634 73.6932 279.176C74.3636 279.718 74.6989 280.428 74.6989 281.307C74.6989 281.97 74.4962 282.523 74.0909 282.966C73.6856 283.409 73.1629 283.697 72.5227 283.83V283.943C72.9924 283.962 73.4261 284.089 73.8239 284.324C74.2254 284.555 74.5473 284.877 74.7898 285.29C75.0322 285.699 75.1534 286.184 75.1534 286.744C75.1534 287.369 74.9943 287.928 74.6761 288.42C74.358 288.909 73.8977 289.295 73.2955 289.58C72.6932 289.86 71.9621 290 71.1023 290H65.8807ZM68.6932 287.733H70.4318C71.0417 287.733 71.4905 287.617 71.7784 287.386C72.0701 287.155 72.2159 286.833 72.2159 286.42C72.2159 285.973 72.0606 285.619 71.75 285.358C71.4432 285.093 71.0208 284.96 70.483 284.96H68.6932V287.733ZM68.6932 283.148H70.25C70.7121 283.148 71.0909 283.034 71.3864 282.807C71.6818 282.58 71.8295 282.261 71.8295 281.852C71.8295 281.466 71.6913 281.161 71.4148 280.938C71.1383 280.71 70.7652 280.597 70.2955 280.597H68.6932V283.148ZM76.5057 290V281.273H79.2045V282.864H79.2955C79.4545 282.288 79.714 281.86 80.0739 281.58C80.4337 281.295 80.8523 281.153 81.3295 281.153C81.5606 281.153 81.7803 281.182 81.9886 281.239C82.197 281.295 82.3845 281.373 82.5511 281.472L81.733 283.756C81.6117 283.699 81.4811 283.65 81.3409 283.608C81.2045 283.562 81.053 283.54 80.8864 283.54C80.4508 283.54 80.0758 283.697 79.7614 284.011C79.447 284.326 79.2879 284.742 79.2841 285.261V290H76.5057ZM87.2415 290.165C85.8703 290.165 84.7907 289.765 84.0028 288.966C83.2188 288.167 82.8267 287.068 82.8267 285.67C82.8267 284.769 83.0047 283.981 83.3608 283.307C83.7169 282.629 84.2188 282.102 84.8665 281.727C85.5142 281.348 86.2775 281.159 87.1562 281.159C87.982 281.159 88.7131 281.331 89.3494 281.676C89.9858 282.017 90.4839 282.519 90.8438 283.182C91.2036 283.845 91.3835 284.655 91.3835 285.614V286.307H85.5653V286.381C85.5653 286.915 85.7188 287.345 86.0256 287.67C86.3362 287.996 86.7585 288.159 87.2926 288.159C87.6563 288.159 87.9725 288.083 88.2415 287.932C88.5104 287.777 88.6979 287.555 88.804 287.267L91.3551 287.341C91.196 288.197 90.7566 288.883 90.0369 289.398C89.3172 289.909 88.3854 290.165 87.2415 290.165ZM85.5653 284.693H88.7983C88.7945 284.246 88.643 283.881 88.3438 283.597C88.0483 283.309 87.6714 283.165 87.2131 283.165C86.7509 283.165 86.3646 283.311 86.054 283.602C85.7472 283.894 85.5843 284.258 85.5653 284.693ZM95.2628 290.148C94.4295 290.148 93.742 289.936 93.2003 289.511C92.6624 289.087 92.3935 288.443 92.3935 287.58C92.3935 286.936 92.5412 286.424 92.8366 286.045C93.1321 285.663 93.526 285.381 94.0185 285.199C94.5109 285.013 95.0507 284.896 95.6378 284.847C96.384 284.782 96.9143 284.703 97.2287 284.608C97.5469 284.513 97.706 284.333 97.706 284.068V284.04C97.706 283.748 97.6056 283.523 97.4048 283.364C97.2041 283.205 96.9332 283.125 96.5923 283.125C96.2249 283.125 95.9295 283.205 95.706 283.364C95.4825 283.523 95.3404 283.742 95.2798 284.023L92.7173 283.932C92.8272 283.136 93.2098 282.475 93.8651 281.949C94.5241 281.422 95.4408 281.159 96.6151 281.159C97.3575 281.159 98.0185 281.275 98.598 281.506C99.1813 281.733 99.6397 282.062 99.973 282.494C100.31 282.926 100.479 283.451 100.479 284.068V290H97.8651V288.784H97.7969C97.312 289.693 96.4673 290.148 95.2628 290.148ZM96.1207 288.33C96.5639 288.33 96.9408 288.197 97.2514 287.932C97.5658 287.667 97.723 287.322 97.723 286.898V286.068C97.5677 286.152 97.348 286.222 97.0639 286.278C96.7836 286.335 96.5147 286.383 96.2571 286.42C95.4351 286.545 95.0241 286.886 95.0241 287.443C95.0241 287.731 95.1264 287.951 95.331 288.102C95.5355 288.254 95.7988 288.33 96.1207 288.33ZM105.365 290.125C104.725 290.125 104.14 289.958 103.609 289.625C103.083 289.288 102.662 288.788 102.348 288.125C102.034 287.462 101.876 286.634 101.876 285.642C101.876 284.616 102.039 283.773 102.365 283.114C102.691 282.451 103.119 281.96 103.649 281.642C104.179 281.32 104.748 281.159 105.354 281.159C106.043 281.159 106.585 281.328 106.979 281.665C107.376 281.998 107.657 282.366 107.82 282.767H107.876V278.364H110.655V290H107.905V288.585H107.82C107.645 288.987 107.357 289.345 106.956 289.659C106.554 289.97 106.024 290.125 105.365 290.125ZM106.331 287.96C106.839 287.96 107.232 287.75 107.513 287.33C107.797 286.909 107.939 286.345 107.939 285.636C107.939 284.924 107.797 284.362 107.513 283.949C107.232 283.536 106.839 283.33 106.331 283.33C105.816 283.33 105.42 283.54 105.143 283.96C104.867 284.377 104.729 284.936 104.729 285.636C104.729 286.341 104.867 286.905 105.143 287.33C105.42 287.75 105.816 287.96 106.331 287.96ZM117.338 281.273V283.318H115.764V287.256C115.764 287.513 115.825 287.695 115.946 287.801C116.071 287.903 116.245 287.955 116.469 287.955C116.575 287.955 116.687 287.945 116.804 287.926C116.925 287.903 117.016 287.884 117.077 287.869L117.497 289.875C117.365 289.913 117.179 289.958 116.94 290.011C116.702 290.068 116.414 290.106 116.077 290.125C115.096 290.17 114.332 289.975 113.787 289.54C113.245 289.104 112.978 288.445 112.986 287.562V283.318H111.832V281.273H112.986V279.182H115.764V281.273H117.338ZM121.722 285.023V290H118.943V278.364H121.631V282.875H121.727C121.924 282.337 122.246 281.917 122.693 281.614C123.144 281.311 123.695 281.159 124.347 281.159C125.263 281.159 125.998 281.458 126.551 282.057C127.108 282.655 127.384 283.449 127.381 284.438V290H124.602V284.983C124.606 284.498 124.485 284.119 124.239 283.847C123.992 283.574 123.646 283.438 123.199 283.438C122.759 283.438 122.403 283.578 122.131 283.858C121.862 284.138 121.725 284.527 121.722 285.023Z" fill="#FF0000"/>
<path d="M15 239.119L3.36364 239.119L3.36364 234.313C3.36364 233.441 3.52083 232.689 3.83523 232.057C4.14962 231.42 4.59659 230.93 5.17614 230.585C5.75189 230.241 6.43939 230.068 7.23864 230.068C8.04167 230.068 8.72538 230.244 9.28977 230.597C9.85417 230.949 10.2803 231.445 10.5682 232.085L15 229.67L15 232.739L11.017 234.864L11.017 236.307L15 236.307L15 239.119ZM8.80114 236.307L8.80114 234.92C8.80114 234.288 8.67614 233.807 8.42614 233.477C8.17235 233.148 7.77652 232.983 7.23864 232.983C6.16667 232.983 5.63068 233.629 5.63068 234.92L5.63068 236.307L8.80114 236.307ZM15.1648 224.618C15.1648 225.989 14.7652 227.069 13.9659 227.857C13.1667 228.641 12.0682 229.033 10.6705 229.033C9.76894 229.033 8.98106 228.855 8.30682 228.499C7.62879 228.143 7.10227 227.641 6.72727 226.993C6.34848 226.345 6.15909 225.582 6.15909 224.703C6.15909 223.877 6.33144 223.146 6.67614 222.51C7.01705 221.874 7.51894 221.375 8.18182 221.016C8.8447 220.656 9.6553 220.476 10.6136 220.476L11.3068 220.476L11.3068 226.294L11.3807 226.294C11.9148 226.294 12.3447 226.141 12.6705 225.834C12.9962 225.523 13.1591 225.101 13.1591 224.567C13.1591 224.203 13.0833 223.887 12.9318 223.618C12.7765 223.349 12.5549 223.161 12.267 223.055L12.3409 220.504C13.197 220.663 13.8826 221.103 14.3977 221.822C14.9091 222.542 15.1648 223.474 15.1648 224.618ZM9.69318 226.294L9.69318 223.061C9.24621 223.065 8.88068 223.216 8.59659 223.516C8.30871 223.811 8.16477 224.188 8.16477 224.646C8.16477 225.108 8.31061 225.495 8.60227 225.805C8.89394 226.112 9.25758 226.275 9.69318 226.294ZM8.9375 211.438L9.00568 213.989C8.72917 214.027 8.50379 214.165 8.32955 214.403C8.15152 214.642 8.0625 214.945 8.0625 215.313C8.0625 215.634 8.12689 215.909 8.25568 216.136C8.38068 216.36 8.55492 216.47 8.77841 216.466C8.94508 216.47 9.0928 216.402 9.22159 216.261C9.34659 216.117 9.44697 215.862 9.52273 215.494L9.84091 213.813C10.1705 212.097 10.9583 211.233 12.2045 211.222C12.803 211.225 13.3239 211.403 13.767 211.756C14.2102 212.104 14.5549 212.581 14.8011 213.188C15.0436 213.794 15.1648 214.487 15.1648 215.267C15.1648 216.513 14.9091 217.496 14.3977 218.216C13.8826 218.936 13.1932 219.345 12.3295 219.443L12.2614 216.699C12.5795 216.638 12.822 216.481 12.9886 216.227C13.1553 215.973 13.2386 215.65 13.2386 215.256C13.2386 214.9 13.1723 214.61 13.0398 214.386C12.9072 214.163 12.7311 214.049 12.5114 214.045C12.1439 214.057 11.892 214.411 11.7557 215.108L11.4659 216.631C11.1439 218.369 10.3011 219.233 8.9375 219.222C8.0625 219.225 7.38068 218.879 6.89205 218.182C6.40341 217.485 6.15909 216.545 6.15909 215.364C6.15909 214.182 6.4072 213.25 6.90341 212.568C7.39583 211.886 8.07386 211.509 8.9375 211.438ZM15.1648 205.78C15.1648 206.693 14.9773 207.479 14.6023 208.138C14.2235 208.797 13.697 209.304 13.0227 209.661C12.3447 210.013 11.5587 210.189 10.6648 210.189C9.76705 210.189 8.98106 210.013 8.30682 209.661C7.62879 209.304 7.10227 208.797 6.72727 208.138C6.34849 207.479 6.15909 206.693 6.15909 205.78C6.15909 204.863 6.34849 204.077 6.72727 203.422C7.10227 202.763 7.62879 202.257 8.30682 201.905C8.98106 201.549 9.76705 201.371 10.6648 201.371C11.5587 201.371 12.3447 201.549 13.0227 201.905C13.697 202.257 14.2235 202.763 14.6023 203.422C14.9773 204.077 15.1648 204.863 15.1648 205.78ZM13.0682 205.763C13.0682 205.267 12.8447 204.882 12.3977 204.609C11.9508 204.337 11.3674 204.2 10.6477 204.2C9.92424 204.2 9.33902 204.337 8.89205 204.609C8.44129 204.882 8.21591 205.267 8.21591 205.763C8.21591 206.278 8.44129 206.674 8.89205 206.95C9.33902 207.223 9.92424 207.359 10.6477 207.359C11.3674 207.359 11.9508 207.223 12.3977 206.95C12.8447 206.674 13.0682 206.278 13.0682 205.763ZM3.36364 197.169L15 197.169L15 199.947L3.36364 199.947L3.36364 197.169ZM11.233 189.77L6.27273 189.77L6.27273 186.997L15 186.997L15 189.645L13.375 189.645L13.375 189.736C13.9091 189.929 14.3333 190.259 14.6477 190.724C14.9583 191.187 15.1136 191.745 15.1136 192.401C15.1136 192.999 14.9773 193.524 14.7045 193.974C14.4318 194.421 14.0492 194.77 13.5568 195.02C13.0644 195.27 12.4905 195.397 11.8352 195.401L6.27273 195.401L6.27273 192.622L11.2898 192.622C11.7633 192.618 12.1364 192.493 12.4091 192.247C12.6818 192.001 12.8182 191.666 12.8182 191.241C12.8182 190.829 12.6818 190.48 12.4091 190.196C12.1326 189.912 11.7405 189.77 11.233 189.77ZM6.27273 180.303L8.31818 180.303L8.31818 181.876L12.2557 181.876C12.5133 181.876 12.6951 181.816 12.8011 181.695C12.9034 181.57 12.9545 181.395 12.9545 181.172C12.9545 181.066 12.9451 180.954 12.9261 180.837C12.9034 180.715 12.8845 180.625 12.8693 180.564L14.875 180.143C14.9129 180.276 14.9583 180.462 15.0114 180.7C15.0682 180.939 15.1061 181.227 15.125 181.564C15.1705 182.545 14.9754 183.308 14.5398 183.854C14.1042 184.395 13.4451 184.662 12.5625 184.655L8.31818 184.655L8.31818 185.808L6.27273 185.808L6.27273 184.655L4.18182 184.655L4.18182 181.876L6.27273 181.876L6.27273 180.303ZM15 178.885L6.27273 178.885L6.27273 176.107L15 176.107L15 178.885ZM5.25568 177.493C5.25568 177.883 5.12689 178.218 4.86932 178.499C4.60795 178.779 4.29356 178.919 3.92614 178.919C3.55871 178.919 3.24621 178.779 2.98864 178.499C2.73106 178.218 2.60227 177.883 2.60227 177.493C2.60227 177.099 2.73106 176.764 2.98864 176.487C3.24621 176.207 3.55871 176.067 3.92614 176.067C4.29356 176.067 4.60795 176.207 4.86932 176.487C5.12689 176.764 5.25568 177.099 5.25568 177.493ZM15.1648 170.264C15.1648 171.177 14.9773 171.963 14.6023 172.622C14.2235 173.281 13.697 173.789 13.0227 174.145C12.3447 174.497 11.5587 174.673 10.6648 174.673C9.76705 174.673 8.98106 174.497 8.30682 174.145C7.62879 173.789 7.10227 173.281 6.72727 172.622C6.34849 171.963 6.15909 171.177 6.15909 170.264C6.15909 169.348 6.34849 168.562 6.72727 167.906C7.10227 167.247 7.62879 166.741 8.30682 166.389C8.98106 166.033 9.76705 165.855 10.6648 165.855C11.5587 165.855 12.3447 166.033 13.0227 166.389C13.697 166.741 14.2235 167.247 14.6023 167.906C14.9773 168.562 15.1648 169.348 15.1648 170.264ZM13.0682 170.247C13.0682 169.751 12.8447 169.366 12.3977 169.094C11.9508 168.821 11.3674 168.685 10.6477 168.685C9.92424 168.685 9.33902 168.821 8.89205 169.094C8.44129 169.366 8.21591 169.751 8.21591 170.247C8.21591 170.762 8.44129 171.158 8.89205 171.435C9.33902 171.707 9.92424 171.844 10.6477 171.844C11.3674 171.844 11.9508 171.707 12.3977 171.435C12.8447 171.158 13.0682 170.762 13.0682 170.247ZM10.0227 161.653L15 161.653L15 164.432L6.27273 164.432L6.27273 161.79L7.875 161.79L7.875 161.693C7.3447 161.5 6.92614 161.17 6.61932 160.705C6.3125 160.239 6.15909 159.684 6.15909 159.04C6.15909 158.426 6.29546 157.894 6.56818 157.443C6.84091 156.989 7.22349 156.636 7.71591 156.386C8.20833 156.133 8.7822 156.008 9.4375 156.011L15 156.011L15 158.79L9.98296 158.79C9.49811 158.786 9.11932 158.909 8.84659 159.159C8.57386 159.405 8.4375 159.748 8.4375 160.188C8.4375 160.627 8.57765 160.981 8.85796 161.25C9.13826 161.515 9.52652 161.65 10.0227 161.653Z" fill="#29C825"/>
<path d="M189.5 61.5H237.5V264.5H189.5V61.5Z" fill="white" stroke="black" stroke-width="3"/>
<path d="M34.267 15C34.2443 14.7159 34.1378 14.4943 33.9474 14.3352C33.7599 14.1761 33.4744 14.0966 33.0909 14.0966C32.7244 14.0966 32.4574 14.1591 32.2898 14.2841C32.1222 14.4091 32.0369 14.5682 32.0341 14.7614C32.0227 14.9687 32.1122 15.1378 32.3026 15.2685C32.4957 15.3991 32.7983 15.5085 33.2102 15.5966L33.9261 15.75C34.8892 15.9574 35.5838 16.2898 36.0099 16.7472C36.4361 17.2017 36.6506 17.7614 36.6534 18.4261C36.6506 19.2869 36.3352 19.9489 35.7074 20.4119C35.0795 20.8722 34.2131 21.1023 33.108 21.1023C32.3494 21.1023 31.6875 20.9901 31.1222 20.7656C30.5597 20.5412 30.1222 20.196 29.8097 19.7301C29.5 19.2614 29.3438 18.6619 29.3409 17.9318H31.5909C31.6108 18.3324 31.7486 18.6378 32.0043 18.848C32.2628 19.0554 32.6193 19.1591 33.0739 19.1591C33.4545 19.1591 33.7415 19.0909 33.9347 18.9545C34.1307 18.8182 34.2301 18.642 34.233 18.4261C34.2301 18.2273 34.1321 18.0625 33.9389 17.9318C33.7457 17.7983 33.4063 17.679 32.9205 17.5739L32.0511 17.3864C31.2784 17.2187 30.669 16.9389 30.223 16.5469C29.7798 16.152 29.5597 15.6136 29.5625 14.9318C29.5597 14.3778 29.7074 13.8935 30.0057 13.4787C30.3068 13.0611 30.723 12.7358 31.2543 12.5028C31.7884 12.2699 32.4006 12.1534 33.0909 12.1534C33.7955 12.1534 34.4048 12.2713 34.919 12.5071C35.4332 12.7429 35.8295 13.0753 36.108 13.5043C36.3892 13.9304 36.5313 14.429 36.5341 15H34.267ZM40.7251 21.1193C39.6768 21.1193 38.8516 20.8224 38.2493 20.2287C37.6499 19.6321 37.3501 18.804 37.3501 17.7443C37.3501 17.0682 37.4865 16.4773 37.7592 15.9716C38.032 15.4659 38.4169 15.0724 38.9141 14.7912C39.4112 14.5099 39.9979 14.3693 40.674 14.3693C41.3331 14.3693 41.9055 14.5043 42.3913 14.7741C42.88 15.044 43.2578 15.4304 43.5249 15.9332C43.7947 16.4332 43.9297 17.0312 43.9297 17.7273V18.2727H39.6683V18.375C39.6683 18.6903 39.7649 18.9517 39.9581 19.1591C40.1541 19.3636 40.4268 19.4659 40.7763 19.4659C41.0178 19.4659 41.228 19.4162 41.407 19.3168C41.5888 19.2145 41.7138 19.071 41.782 18.8864H43.9297C43.8189 19.5682 43.4837 20.1108 42.924 20.5142C42.3672 20.9176 41.6342 21.1193 40.7251 21.1193ZM39.6683 16.9773H41.7649C41.7592 16.696 41.657 16.4673 41.4581 16.2912C41.2621 16.1122 41.0178 16.0227 40.7251 16.0227C40.4382 16.0227 40.1911 16.1108 39.9837 16.2869C39.7791 16.4631 39.674 16.6932 39.6683 16.9773ZM44.8896 21V14.4545H47.1737V15.6989H47.2418C47.3612 15.2386 47.5501 14.902 47.8086 14.6889C48.07 14.4759 48.3754 14.3693 48.7248 14.3693C48.9208 14.3693 49.1197 14.3991 49.3214 14.4588V16.4659C49.2049 16.4261 49.0614 16.3963 48.891 16.3764C48.7205 16.3565 48.5742 16.3466 48.4521 16.3466C48.1055 16.3466 47.8171 16.4602 47.587 16.6875C47.3569 16.9148 47.2418 17.2159 47.2418 17.5909V21H44.8896ZM56.8885 14.4545L54.6896 21H51.9624L49.7635 14.4545H52.2351L53.2919 18.7841H53.3601L54.4169 14.4545H56.8885ZM57.6278 21V14.4545H59.9801V21H57.6278ZM58.804 13.7727C58.4858 13.7727 58.2131 13.6676 57.9858 13.4574C57.7585 13.2472 57.6449 12.9943 57.6449 12.6989C57.6449 12.4034 57.7585 12.1506 57.9858 11.9403C58.2131 11.7301 58.4858 11.625 58.804 11.625C59.125 11.625 59.3977 11.7301 59.6222 11.9403C59.8494 12.1506 59.9631 12.4034 59.9631 12.6989C59.9631 12.9943 59.8494 13.2472 59.6222 13.4574C59.3977 13.6676 59.125 13.7727 58.804 13.7727ZM64.332 21.1193C63.6218 21.1193 63.0138 20.9787 62.5082 20.6974C62.0025 20.4134 61.6147 20.0185 61.3448 19.5128C61.0749 19.0043 60.94 18.4148 60.94 17.7443C60.94 17.0739 61.0749 16.4858 61.3448 15.9801C61.6147 15.4716 62.0025 15.0767 62.5082 14.7955C63.0138 14.5114 63.6218 14.3693 64.332 14.3693C64.9741 14.3693 65.5295 14.4858 65.9982 14.7188C66.4698 14.9489 66.8349 15.2756 67.0934 15.6989C67.3519 16.1193 67.4826 16.6136 67.4854 17.1818H65.3036C65.2724 16.8381 65.1729 16.5767 65.0053 16.3977C64.8406 16.2159 64.6275 16.125 64.3661 16.125C64.0565 16.125 63.8079 16.2585 63.6204 16.5256C63.4357 16.7898 63.3434 17.1903 63.3434 17.7273C63.3434 18.2642 63.4357 18.6662 63.6204 18.9332C63.8079 19.1974 64.0565 19.3295 64.3661 19.3295C64.6246 19.3295 64.8391 19.2401 65.0096 19.0611C65.18 18.8793 65.2781 18.6165 65.3036 18.2727H67.4854C67.4741 19.1392 67.1871 19.831 66.6246 20.348C66.065 20.8622 65.3008 21.1193 64.332 21.1193ZM71.5923 21.1193C70.544 21.1193 69.7188 20.8224 69.1165 20.2287C68.517 19.6321 68.2173 18.804 68.2173 17.7443C68.2173 17.0682 68.3537 16.4773 68.6264 15.9716C68.8991 15.4659 69.2841 15.0724 69.7812 14.7912C70.2784 14.5099 70.8651 14.3693 71.5412 14.3693C72.2003 14.3693 72.7727 14.5043 73.2585 14.7741C73.7472 15.044 74.125 15.4304 74.392 15.9332C74.6619 16.4332 74.7969 17.0312 74.7969 17.7273V18.2727H70.5355V18.375C70.5355 18.6903 70.6321 18.9517 70.8253 19.1591C71.0213 19.3636 71.294 19.4659 71.6435 19.4659C71.8849 19.4659 72.0952 19.4162 72.2741 19.3168C72.456 19.2145 72.581 19.071 72.6491 18.8864H74.7969C74.6861 19.5682 74.3509 20.1108 73.7912 20.5142C73.2344 20.9176 72.5014 21.1193 71.5923 21.1193ZM70.5355 16.9773H72.6321C72.6264 16.696 72.5241 16.4673 72.3253 16.2912C72.1293 16.1122 71.8849 16.0227 71.5923 16.0227C71.3054 16.0227 71.0582 16.1108 70.8509 16.2869C70.6463 16.4631 70.5412 16.6932 70.5355 16.9773ZM80.3803 21H77.8235L80.7042 12.2727H83.9428L86.8235 21H84.2667L83.7638 19.3295H80.8832L80.3803 21ZM81.4201 17.5568H83.2269L82.3576 14.6761H82.2894L81.4201 17.5568Z" fill="black"/>
<path d="M193.267 15C193.244 14.7159 193.138 14.4943 192.947 14.3352C192.76 14.1761 192.474 14.0966 192.091 14.0966C191.724 14.0966 191.457 14.1591 191.29 14.2841C191.122 14.4091 191.037 14.5682 191.034 14.7614C191.023 14.9687 191.112 15.1378 191.303 15.2685C191.496 15.3991 191.798 15.5085 192.21 15.5966L192.926 15.75C193.889 15.9574 194.584 16.2898 195.01 16.7472C195.436 17.2017 195.651 17.7614 195.653 18.4261C195.651 19.2869 195.335 19.9489 194.707 20.4119C194.08 20.8722 193.213 21.1023 192.108 21.1023C191.349 21.1023 190.688 20.9901 190.122 20.7656C189.56 20.5412 189.122 20.196 188.81 19.7301C188.5 19.2614 188.344 18.6619 188.341 17.9318H190.591C190.611 18.3324 190.749 18.6378 191.004 18.848C191.263 19.0554 191.619 19.1591 192.074 19.1591C192.455 19.1591 192.741 19.0909 192.935 18.9545C193.131 18.8182 193.23 18.642 193.233 18.4261C193.23 18.2273 193.132 18.0625 192.939 17.9318C192.746 17.7983 192.406 17.679 191.92 17.5739L191.051 17.3864C190.278 17.2187 189.669 16.9389 189.223 16.5469C188.78 16.152 188.56 15.6136 188.562 14.9318C188.56 14.3778 188.707 13.8935 189.006 13.4787C189.307 13.0611 189.723 12.7358 190.254 12.5028C190.788 12.2699 191.401 12.1534 192.091 12.1534C192.795 12.1534 193.405 12.2713 193.919 12.5071C194.433 12.7429 194.83 13.0753 195.108 13.5043C195.389 13.9304 195.531 14.429 195.534 15H193.267ZM199.725 21.1193C198.677 21.1193 197.852 20.8224 197.249 20.2287C196.65 19.6321 196.35 18.804 196.35 17.7443C196.35 17.0682 196.487 16.4773 196.759 15.9716C197.032 15.4659 197.417 15.0724 197.914 14.7912C198.411 14.5099 198.998 14.3693 199.674 14.3693C200.333 14.3693 200.906 14.5043 201.391 14.7741C201.88 15.044 202.258 15.4304 202.525 15.9332C202.795 16.4332 202.93 17.0312 202.93 17.7273V18.2727H198.668V18.375C198.668 18.6903 198.765 18.9517 198.958 19.1591C199.154 19.3636 199.427 19.4659 199.776 19.4659C200.018 19.4659 200.228 19.4162 200.407 19.3168C200.589 19.2145 200.714 19.071 200.782 18.8864H202.93C202.819 19.5682 202.484 20.1108 201.924 20.5142C201.367 20.9176 200.634 21.1193 199.725 21.1193ZM198.668 16.9773H200.765C200.759 16.696 200.657 16.4673 200.458 16.2912C200.262 16.1122 200.018 16.0227 199.725 16.0227C199.438 16.0227 199.191 16.1108 198.984 16.2869C198.779 16.4631 198.674 16.6932 198.668 16.9773ZM203.89 21V14.4545H206.174V15.6989H206.242C206.361 15.2386 206.55 14.902 206.809 14.6889C207.07 14.4759 207.375 14.3693 207.725 14.3693C207.921 14.3693 208.12 14.3991 208.321 14.4588V16.4659C208.205 16.4261 208.061 16.3963 207.891 16.3764C207.721 16.3565 207.574 16.3466 207.452 16.3466C207.105 16.3466 206.817 16.4602 206.587 16.6875C206.357 16.9148 206.242 17.2159 206.242 17.5909V21H203.89ZM215.888 14.4545L213.69 21H210.962L208.763 14.4545H211.235L212.292 18.7841H212.36L213.417 14.4545H215.888ZM216.628 21V14.4545H218.98V21H216.628ZM217.804 13.7727C217.486 13.7727 217.213 13.6676 216.986 13.4574C216.759 13.2472 216.645 12.9943 216.645 12.6989C216.645 12.4034 216.759 12.1506 216.986 11.9403C217.213 11.7301 217.486 11.625 217.804 11.625C218.125 11.625 218.398 11.7301 218.622 11.9403C218.849 12.1506 218.963 12.4034 218.963 12.6989C218.963 12.9943 218.849 13.2472 218.622 13.4574C218.398 13.6676 218.125 13.7727 217.804 13.7727ZM223.332 21.1193C222.622 21.1193 222.014 20.9787 221.508 20.6974C221.002 20.4134 220.615 20.0185 220.345 19.5128C220.075 19.0043 219.94 18.4148 219.94 17.7443C219.94 17.0739 220.075 16.4858 220.345 15.9801C220.615 15.4716 221.002 15.0767 221.508 14.7955C222.014 14.5114 222.622 14.3693 223.332 14.3693C223.974 14.3693 224.529 14.4858 224.998 14.7188C225.47 14.9489 225.835 15.2756 226.093 15.6989C226.352 16.1193 226.483 16.6136 226.485 17.1818H224.304C224.272 16.8381 224.173 16.5767 224.005 16.3977C223.841 16.2159 223.627 16.125 223.366 16.125C223.056 16.125 222.808 16.2585 222.62 16.5256C222.436 16.7898 222.343 17.1903 222.343 17.7273C222.343 18.2642 222.436 18.6662 222.62 18.9332C222.808 19.1974 223.056 19.3295 223.366 19.3295C223.625 19.3295 223.839 19.2401 224.01 19.0611C224.18 18.8793 224.278 18.6165 224.304 18.2727H226.485C226.474 19.1392 226.187 19.831 225.625 20.348C225.065 20.8622 224.301 21.1193 223.332 21.1193ZM230.592 21.1193C229.544 21.1193 228.719 20.8224 228.116 20.2287C227.517 19.6321 227.217 18.804 227.217 17.7443C227.217 17.0682 227.354 16.4773 227.626 15.9716C227.899 15.4659 228.284 15.0724 228.781 14.7912C229.278 14.5099 229.865 14.3693 230.541 14.3693C231.2 14.3693 231.773 14.5043 232.259 14.7741C232.747 15.044 233.125 15.4304 233.392 15.9332C233.662 16.4332 233.797 17.0312 233.797 17.7273V18.2727H229.536V18.375C229.536 18.6903 229.632 18.9517 229.825 19.1591C230.021 19.3636 230.294 19.4659 230.643 19.4659C230.885 19.4659 231.095 19.4162 231.274 19.3168C231.456 19.2145 231.581 19.071 231.649 18.8864H233.797C233.686 19.5682 233.351 20.1108 232.791 20.5142C232.234 20.9176 231.501 21.1193 230.592 21.1193ZM229.536 16.9773H231.632C231.626 16.696 231.524 16.4673 231.325 16.2912C231.129 16.1122 230.885 16.0227 230.592 16.0227C230.305 16.0227 230.058 16.1108 229.851 16.2869C229.646 16.4631 229.541 16.6932 229.536 16.9773ZM237.113 21V12.2727H240.897C241.895 12.2727 242.652 12.4702 243.169 12.8651C243.689 13.2599 243.949 13.7898 243.949 14.4545C243.949 14.9347 243.794 15.348 243.484 15.6946C243.174 16.0412 242.767 16.2642 242.261 16.3636V16.4489C242.636 16.4631 242.977 16.5582 243.284 16.7344C243.591 16.9077 243.835 17.1477 244.017 17.4545C244.199 17.7585 244.289 18.1165 244.289 18.5284C244.289 19.0057 244.164 19.4304 243.914 19.8026C243.667 20.1747 243.315 20.4673 242.858 20.6804C242.4 20.8935 241.855 21 241.221 21H237.113ZM239.483 19.108H240.591C241.386 19.108 241.784 18.8125 241.784 18.2216C241.784 17.9148 241.68 17.679 241.473 17.5142C241.268 17.3494 240.985 17.267 240.625 17.267H239.483V19.108ZM239.483 15.8011H240.454C240.767 15.8011 241.021 15.7287 241.217 15.5838C241.413 15.4389 241.511 15.233 241.511 14.9659C241.511 14.696 241.414 14.4901 241.221 14.348C241.028 14.2031 240.784 14.1307 240.488 14.1307H239.483V15.8011Z" fill="black"/>
<path d="M263.5 222.5H432.5V264.5H263.5V222.5Z" fill="white" stroke="black" stroke-width="3"/>
<path d="M267.267 15C267.244 14.7159 267.138 14.4943 266.947 14.3352C266.76 14.1761 266.474 14.0966 266.091 14.0966C265.724 14.0966 265.457 14.1591 265.29 14.2841C265.122 14.4091 265.037 14.5682 265.034 14.7614C265.023 14.9687 265.112 15.1378 265.303 15.2685C265.496 15.3991 265.798 15.5085 266.21 15.5966L266.926 15.75C267.889 15.9574 268.584 16.2898 269.01 16.7472C269.436 17.2017 269.651 17.7614 269.653 18.4261C269.651 19.2869 269.335 19.9489 268.707 20.4119C268.08 20.8722 267.213 21.1023 266.108 21.1023C265.349 21.1023 264.688 20.9901 264.122 20.7656C263.56 20.5412 263.122 20.196 262.81 19.7301C262.5 19.2614 262.344 18.6619 262.341 17.9318H264.591C264.611 18.3324 264.749 18.6378 265.004 18.848C265.263 19.0554 265.619 19.1591 266.074 19.1591C266.455 19.1591 266.741 19.0909 266.935 18.9545C267.131 18.8182 267.23 18.642 267.233 18.4261C267.23 18.2273 267.132 18.0625 266.939 17.9318C266.746 17.7983 266.406 17.679 265.92 17.5739L265.051 17.3864C264.278 17.2187 263.669 16.9389 263.223 16.5469C262.78 16.152 262.56 15.6136 262.562 14.9318C262.56 14.3778 262.707 13.8935 263.006 13.4787C263.307 13.0611 263.723 12.7358 264.254 12.5028C264.788 12.2699 265.401 12.1534 266.091 12.1534C266.795 12.1534 267.405 12.2713 267.919 12.5071C268.433 12.7429 268.83 13.0753 269.108 13.5043C269.389 13.9304 269.531 14.429 269.534 15H267.267ZM273.725 21.1193C272.677 21.1193 271.852 20.8224 271.249 20.2287C270.65 19.6321 270.35 18.804 270.35 17.7443C270.35 17.0682 270.487 16.4773 270.759 15.9716C271.032 15.4659 271.417 15.0724 271.914 14.7912C272.411 14.5099 272.998 14.3693 273.674 14.3693C274.333 14.3693 274.906 14.5043 275.391 14.7741C275.88 15.044 276.258 15.4304 276.525 15.9332C276.795 16.4332 276.93 17.0312 276.93 17.7273V18.2727H272.668V18.375C272.668 18.6903 272.765 18.9517 272.958 19.1591C273.154 19.3636 273.427 19.4659 273.776 19.4659C274.018 19.4659 274.228 19.4162 274.407 19.3168C274.589 19.2145 274.714 19.071 274.782 18.8864H276.93C276.819 19.5682 276.484 20.1108 275.924 20.5142C275.367 20.9176 274.634 21.1193 273.725 21.1193ZM272.668 16.9773H274.765C274.759 16.696 274.657 16.4673 274.458 16.2912C274.262 16.1122 274.018 16.0227 273.725 16.0227C273.438 16.0227 273.191 16.1108 272.984 16.2869C272.779 16.4631 272.674 16.6932 272.668 16.9773ZM277.89 21V14.4545H280.174V15.6989H280.242C280.361 15.2386 280.55 14.902 280.809 14.6889C281.07 14.4759 281.375 14.3693 281.725 14.3693C281.921 14.3693 282.12 14.3991 282.321 14.4588V16.4659C282.205 16.4261 282.061 16.3963 281.891 16.3764C281.721 16.3565 281.574 16.3466 281.452 16.3466C281.105 16.3466 280.817 16.4602 280.587 16.6875C280.357 16.9148 280.242 17.2159 280.242 17.5909V21H277.89ZM289.888 14.4545L287.69 21H284.962L282.763 14.4545H285.235L286.292 18.7841H286.36L287.417 14.4545H289.888ZM290.628 21V14.4545H292.98V21H290.628ZM291.804 13.7727C291.486 13.7727 291.213 13.6676 290.986 13.4574C290.759 13.2472 290.645 12.9943 290.645 12.6989C290.645 12.4034 290.759 12.1506 290.986 11.9403C291.213 11.7301 291.486 11.625 291.804 11.625C292.125 11.625 292.398 11.7301 292.622 11.9403C292.849 12.1506 292.963 12.4034 292.963 12.6989C292.963 12.9943 292.849 13.2472 292.622 13.4574C292.398 13.6676 292.125 13.7727 291.804 13.7727ZM297.332 21.1193C296.622 21.1193 296.014 20.9787 295.508 20.6974C295.002 20.4134 294.615 20.0185 294.345 19.5128C294.075 19.0043 293.94 18.4148 293.94 17.7443C293.94 17.0739 294.075 16.4858 294.345 15.9801C294.615 15.4716 295.002 15.0767 295.508 14.7955C296.014 14.5114 296.622 14.3693 297.332 14.3693C297.974 14.3693 298.529 14.4858 298.998 14.7188C299.47 14.9489 299.835 15.2756 300.093 15.6989C300.352 16.1193 300.483 16.6136 300.485 17.1818H298.304C298.272 16.8381 298.173 16.5767 298.005 16.3977C297.841 16.2159 297.627 16.125 297.366 16.125C297.056 16.125 296.808 16.2585 296.62 16.5256C296.436 16.7898 296.343 17.1903 296.343 17.7273C296.343 18.2642 296.436 18.6662 296.62 18.9332C296.808 19.1974 297.056 19.3295 297.366 19.3295C297.625 19.3295 297.839 19.2401 298.01 19.0611C298.18 18.8793 298.278 18.6165 298.304 18.2727H300.485C300.474 19.1392 300.187 19.831 299.625 20.348C299.065 20.8622 298.301 21.1193 297.332 21.1193ZM304.592 21.1193C303.544 21.1193 302.719 20.8224 302.116 20.2287C301.517 19.6321 301.217 18.804 301.217 17.7443C301.217 17.0682 301.354 16.4773 301.626 15.9716C301.899 15.4659 302.284 15.0724 302.781 14.7912C303.278 14.5099 303.865 14.3693 304.541 14.3693C305.2 14.3693 305.773 14.5043 306.259 14.7741C306.747 15.044 307.125 15.4304 307.392 15.9332C307.662 16.4332 307.797 17.0312 307.797 17.7273V18.2727H303.536V18.375C303.536 18.6903 303.632 18.9517 303.825 19.1591C304.021 19.3636 304.294 19.4659 304.643 19.4659C304.885 19.4659 305.095 19.4162 305.274 19.3168C305.456 19.2145 305.581 19.071 305.649 18.8864H307.797C307.686 19.5682 307.351 20.1108 306.791 20.5142C306.234 20.9176 305.501 21.1193 304.592 21.1193ZM303.536 16.9773H305.632C305.626 16.696 305.524 16.4673 305.325 16.2912C305.129 16.1122 304.885 16.0227 304.592 16.0227C304.305 16.0227 304.058 16.1108 303.851 16.2869C303.646 16.4631 303.541 16.6932 303.536 16.9773ZM319.261 15.5455H316.858C316.824 15.1477 316.679 14.8267 316.423 14.5824C316.17 14.3381 315.815 14.2159 315.358 14.2159C314.761 14.2159 314.305 14.4304 313.99 14.8594C313.674 15.2855 313.517 15.8778 313.517 16.6364C313.517 17.4375 313.676 18.0412 313.994 18.4474C314.315 18.8537 314.764 19.0568 315.341 19.0568C315.775 19.0568 316.122 18.9489 316.38 18.733C316.639 18.5142 316.798 18.2187 316.858 17.8466L319.261 17.8636C319.233 18.233 319.129 18.6094 318.95 18.9929C318.771 19.3736 318.517 19.7259 318.187 20.0497C317.86 20.3707 317.456 20.6293 316.973 20.8253C316.49 21.0213 315.929 21.1193 315.289 21.1193C314.488 21.1193 313.77 20.9474 313.133 20.6037C312.5 20.2599 311.998 19.7543 311.629 19.0866C311.262 18.419 311.079 17.6023 311.079 16.6364C311.079 15.6648 311.267 14.8466 311.642 14.1818C312.017 13.5142 312.522 13.0099 313.159 12.669C313.795 12.3253 314.505 12.1534 315.289 12.1534C316.022 12.1534 316.676 12.2855 317.25 12.5497C317.826 12.8139 318.289 13.1989 318.639 13.7045C318.991 14.2102 319.199 14.8239 319.261 15.5455Z" fill="black"/>
</svg>
