<svg width="311" height="161" viewBox="0 0 311 161" fill="none" xmlns="http://www.w3.org/2000/svg">
<rect x="1.5" y="1.5" width="157" height="93" stroke="#29C825" stroke-width="3"/>
<path d="M21.1705 45.8523C21.1326 45.4356 20.964 45.1117 20.6648 44.8807C20.3693 44.6458 19.947 44.5284 19.3977 44.5284C18.8523 44.5284 18.4432 44.6326 18.1705 44.8409C17.8977 45.0455 17.7595 45.3068 17.7557 45.625C17.7443 45.9697 17.8939 46.2405 18.2045 46.4375C18.5152 46.6307 18.9337 46.7841 19.4602 46.8977L20.4602 47.125C21.608 47.3788 22.4867 47.7936 23.0966 48.3693C23.7102 48.9451 24.0189 49.697 24.0227 50.625C24.0189 51.7311 23.6098 52.5947 22.7955 53.2159C21.9811 53.8371 20.8485 54.1477 19.3977 54.1477C17.9356 54.1477 16.7652 53.8182 15.8864 53.1591C15.0114 52.4962 14.5644 51.4848 14.5455 50.125H17.2386C17.2689 50.6856 17.4754 51.1098 17.858 51.3977C18.2405 51.6818 18.7424 51.8239 19.3636 51.8239C19.928 51.8239 20.3693 51.7121 20.6875 51.4886C21.0057 51.2652 21.1667 50.9754 21.1705 50.6193C21.1667 50.2936 21.0152 50.0341 20.7159 49.8409C20.4167 49.6439 19.947 49.4716 19.3068 49.3239L18.0909 49.0398C17.0871 48.8087 16.2936 48.4356 15.7102 47.9205C15.1307 47.4015 14.8428 46.7008 14.8466 45.8182C14.8428 45.0947 15.036 44.4621 15.4261 43.9205C15.8163 43.3788 16.3542 42.9583 17.0398 42.6591C17.7292 42.3561 18.517 42.2045 19.4034 42.2045C20.3049 42.2045 21.0871 42.358 21.75 42.6648C22.4167 42.9678 22.9337 43.3939 23.3011 43.9432C23.6686 44.4886 23.8561 45.125 23.8636 45.8523H21.1705ZM29.5227 54.1648C28.1515 54.1648 27.072 53.7652 26.2841 52.9659C25.5 52.1667 25.108 51.0682 25.108 49.6705C25.108 48.7689 25.286 47.9811 25.642 47.3068C25.9981 46.6288 26.5 46.1023 27.1477 45.7273C27.7955 45.3485 28.5587 45.1591 29.4375 45.1591C30.2633 45.1591 30.9943 45.3314 31.6307 45.6761C32.267 46.017 32.7652 46.5189 33.125 47.1818C33.4848 47.8447 33.6648 48.6553 33.6648 49.6136V50.3068H27.8466V50.3807C27.8466 50.9148 28 51.3447 28.3068 51.6705C28.6174 51.9962 29.0398 52.1591 29.5739 52.1591C29.9375 52.1591 30.2538 52.0833 30.5227 51.9318C30.7917 51.7765 30.9792 51.5549 31.0852 51.267L33.6364 51.3409C33.4773 52.197 33.0379 52.8826 32.3182 53.3977C31.5985 53.9091 30.6667 54.1648 29.5227 54.1648ZM27.8466 48.6932H31.0795C31.0758 48.2462 30.9242 47.8807 30.625 47.5966C30.3295 47.3087 29.9527 47.1648 29.4943 47.1648C29.0322 47.1648 28.6458 47.3106 28.3352 47.6023C28.0284 47.8939 27.8655 48.2576 27.8466 48.6932ZM40.0099 45.2727V47.3182H38.4361V51.2557C38.4361 51.5133 38.4967 51.6951 38.6179 51.8011C38.7429 51.9034 38.9171 51.9545 39.1406 51.9545C39.2467 51.9545 39.3584 51.9451 39.4759 51.9261C39.5971 51.9034 39.688 51.8845 39.7486 51.8693L40.169 53.875C40.0365 53.9129 39.8509 53.9583 39.6122 54.0114C39.3736 54.0682 39.0857 54.1061 38.7486 54.125C37.7675 54.1705 37.0043 53.9754 36.4588 53.5398C35.9171 53.1042 35.6501 52.4451 35.6577 51.5625V47.3182H34.5043V45.2727H35.6577V43.1818H38.4361V45.2727H40.0099ZM48.9389 54.1648C48.026 54.1648 47.2401 53.9773 46.581 53.6023C45.9219 53.2235 45.4143 52.697 45.0582 52.0227C44.706 51.3447 44.5298 50.5587 44.5298 49.6648C44.5298 48.767 44.706 47.9811 45.0582 47.3068C45.4143 46.6288 45.9219 46.1023 46.581 45.7273C47.2401 45.3485 48.026 45.1591 48.9389 45.1591C49.8556 45.1591 50.6416 45.3485 51.2969 45.7273C51.956 46.1023 52.4616 46.6288 52.8139 47.3068C53.17 47.9811 53.348 48.767 53.348 49.6648C53.348 50.5587 53.17 51.3447 52.8139 52.0227C52.4616 52.697 51.956 53.2235 51.2969 53.6023C50.6416 53.9773 49.8556 54.1648 48.9389 54.1648ZM48.956 52.0682C49.4522 52.0682 49.8366 51.8447 50.1094 51.3977C50.3821 50.9508 50.5185 50.3674 50.5185 49.6477C50.5185 48.9242 50.3821 48.339 50.1094 47.892C49.8366 47.4413 49.4522 47.2159 48.956 47.2159C48.4408 47.2159 48.045 47.4413 47.7685 47.892C47.4957 48.339 47.3594 48.9242 47.3594 49.6477C47.3594 50.3674 47.4957 50.9508 47.7685 51.3977C48.045 51.8447 48.4408 52.0682 48.956 52.0682ZM59.8395 45.2727V47.3182H58.1747V54H55.402V47.3182H54.2259V45.2727H55.402V44.8295C55.402 43.8182 55.6785 43.0644 56.2315 42.5682C56.7884 42.0682 57.5118 41.8182 58.402 41.8182C58.7846 41.8182 59.1482 41.8485 59.4929 41.9091C59.8376 41.9659 60.0914 42.017 60.2543 42.0625L59.8111 44.0966C59.7088 44.0663 59.5857 44.0398 59.4418 44.017C59.2978 43.9905 59.1596 43.9773 59.027 43.9773C58.705 43.9773 58.4815 44.0492 58.3565 44.1932C58.2353 44.3371 58.1747 44.5341 58.1747 44.7841V45.2727H59.8395ZM67.3935 49.0227V54H64.6151V45.2727H67.2571V46.875H67.3537C67.5469 46.3447 67.8764 45.9261 68.3423 45.6193C68.8082 45.3125 69.3632 45.1591 70.0071 45.1591C70.6207 45.1591 71.1529 45.2955 71.6037 45.5682C72.0582 45.8409 72.4105 46.2235 72.6605 46.7159C72.9143 47.2083 73.0393 47.7822 73.0355 48.4375V54H70.2571V48.983C70.2609 48.4981 70.1378 48.1193 69.8878 47.8466C69.6416 47.5739 69.2988 47.4375 68.8594 47.4375C68.42 47.4375 68.0658 47.5777 67.7969 47.858C67.5317 48.1383 67.3973 48.5265 67.3935 49.0227ZM78.8352 54.1648C77.464 54.1648 76.3845 53.7652 75.5966 52.9659C74.8125 52.1667 74.4205 51.0682 74.4205 49.6705C74.4205 48.7689 74.5985 47.9811 74.9545 47.3068C75.3106 46.6288 75.8125 46.1023 76.4602 45.7273C77.108 45.3485 77.8712 45.1591 78.75 45.1591C79.5758 45.1591 80.3068 45.3314 80.9432 45.6761C81.5795 46.017 82.0777 46.5189 82.4375 47.1818C82.7973 47.8447 82.9773 48.6553 82.9773 49.6136V50.3068H77.1591V50.3807C77.1591 50.9148 77.3125 51.3447 77.6193 51.6705C77.9299 51.9962 78.3523 52.1591 78.8864 52.1591C79.25 52.1591 79.5663 52.0833 79.8352 51.9318C80.1042 51.7765 80.2917 51.5549 80.3977 51.267L82.9489 51.3409C82.7898 52.197 82.3504 52.8826 81.6307 53.3977C80.911 53.9091 79.9792 54.1648 78.8352 54.1648ZM77.1591 48.6932H80.392C80.3883 48.2462 80.2367 47.8807 79.9375 47.5966C79.642 47.3087 79.2652 47.1648 78.8068 47.1648C78.3447 47.1648 77.9583 47.3106 77.6477 47.6023C77.3409 47.8939 77.178 48.2576 77.1591 48.6932ZM88.4759 54.1648C87.1046 54.1648 86.0251 53.7652 85.2372 52.9659C84.4531 52.1667 84.0611 51.0682 84.0611 49.6705C84.0611 48.7689 84.2391 47.9811 84.5952 47.3068C84.9512 46.6288 85.4531 46.1023 86.1009 45.7273C86.7486 45.3485 87.5118 45.1591 88.3906 45.1591C89.2164 45.1591 89.9474 45.3314 90.5838 45.6761C91.2202 46.017 91.7183 46.5189 92.0781 47.1818C92.438 47.8447 92.6179 48.6553 92.6179 49.6136V50.3068H86.7997V50.3807C86.7997 50.9148 86.9531 51.3447 87.2599 51.6705C87.5705 51.9962 87.9929 52.1591 88.527 52.1591C88.8906 52.1591 89.2069 52.0833 89.4759 51.9318C89.7448 51.7765 89.9323 51.5549 90.0384 51.267L92.5895 51.3409C92.4304 52.197 91.991 52.8826 91.2713 53.3977C90.5516 53.9091 89.6198 54.1648 88.4759 54.1648ZM86.7997 48.6932H90.0327C90.0289 48.2462 89.8774 47.8807 89.5781 47.5966C89.2827 47.3087 88.9058 47.1648 88.4474 47.1648C87.9853 47.1648 87.599 47.3106 87.2884 47.6023C86.9815 47.8939 86.8187 48.2576 86.7997 48.6932ZM97.2244 54.125C96.5843 54.125 95.9991 53.9583 95.4688 53.625C94.9422 53.2879 94.5218 52.7879 94.2074 52.125C93.893 51.4621 93.7358 50.6345 93.7358 49.642C93.7358 48.6155 93.8987 47.7727 94.2244 47.1136C94.5502 46.4508 94.9782 45.9602 95.5085 45.642C96.0388 45.3201 96.607 45.1591 97.2131 45.1591C97.9025 45.1591 98.4441 45.3277 98.8381 45.6648C99.2358 45.9981 99.5161 46.3655 99.679 46.767H99.7358V42.3636H102.514V54H99.7642V52.5852H99.679C99.5047 52.9867 99.2169 53.3447 98.8153 53.6591C98.4138 53.9697 97.8835 54.125 97.2244 54.125ZM98.1903 51.9602C98.6979 51.9602 99.0919 51.75 99.3722 51.3295C99.6563 50.9091 99.7983 50.3447 99.7983 49.6364C99.7983 48.9242 99.6563 48.3617 99.3722 47.9489C99.0919 47.536 98.6979 47.3295 98.1903 47.3295C97.6752 47.3295 97.2794 47.5398 97.0028 47.9602C96.7263 48.3769 96.5881 48.9356 96.5881 49.6364C96.5881 50.3409 96.7263 50.9053 97.0028 51.3295C97.2794 51.75 97.6752 51.9602 98.1903 51.9602ZM111.891 47.9375L109.339 48.0057C109.302 47.7292 109.163 47.5038 108.925 47.3295C108.686 47.1515 108.383 47.0625 108.016 47.0625C107.694 47.0625 107.419 47.1269 107.192 47.2557C106.968 47.3807 106.858 47.5549 106.862 47.7784C106.858 47.9451 106.927 48.0928 107.067 48.2216C107.211 48.3466 107.466 48.447 107.834 48.5227L109.516 48.8409C111.232 49.1705 112.095 49.9583 112.107 51.2045C112.103 51.803 111.925 52.3239 111.572 52.767C111.224 53.2102 110.747 53.5549 110.141 53.8011C109.535 54.0436 108.841 54.1648 108.061 54.1648C106.815 54.1648 105.832 53.9091 105.112 53.3977C104.393 52.8826 103.983 52.1932 103.885 51.3295L106.629 51.2614C106.69 51.5795 106.847 51.822 107.101 51.9886C107.355 52.1553 107.679 52.2386 108.072 52.2386C108.429 52.2386 108.718 52.1723 108.942 52.0398C109.165 51.9072 109.279 51.7311 109.283 51.5114C109.271 51.1439 108.917 50.892 108.22 50.7557L106.697 50.4659C104.959 50.1439 104.095 49.3011 104.107 47.9375C104.103 47.0625 104.449 46.3807 105.146 45.892C105.843 45.4034 106.783 45.1591 107.964 45.1591C109.146 45.1591 110.078 45.4072 110.76 45.9034C111.442 46.3958 111.819 47.0739 111.891 47.9375Z" fill="black"/>
<rect x="1.5" y="66.5" width="157" height="93" stroke="#00A3FF" stroke-width="3"/>
<path d="M25.8636 113.182C25.8636 114.462 25.6174 115.547 25.125 116.438C24.6326 117.328 23.9659 118.004 23.125 118.466C22.2879 118.928 21.3485 119.159 20.3068 119.159C19.2614 119.159 18.3182 118.928 17.4773 118.466C16.6402 118 15.9773 117.322 15.4886 116.432C15 115.542 14.7557 114.458 14.7557 113.182C14.7557 111.898 15 110.812 15.4886 109.926C15.9773 109.036 16.6402 108.36 17.4773 107.898C18.3182 107.436 19.2614 107.205 20.3068 107.205C21.3485 107.205 22.2879 107.436 23.125 107.898C23.9659 108.36 24.6326 109.036 25.125 109.926C25.6174 110.812 25.8636 111.898 25.8636 113.182ZM22.9886 113.182C22.9886 112.042 22.7519 111.172 22.2784 110.574C21.8049 109.972 21.1477 109.67 20.3068 109.67C19.4697 109.67 18.8125 109.972 18.3352 110.574C17.8617 111.172 17.625 112.042 17.625 113.182C17.625 114.322 17.8617 115.193 18.3352 115.795C18.8125 116.394 19.4697 116.693 20.3068 116.693C21.1477 116.693 21.8049 116.394 22.2784 115.795C22.7519 115.193 22.9886 114.322 22.9886 113.182ZM33.1364 115.233V110.273H35.9091V119H33.2614V117.375H33.1705C32.9773 117.909 32.6477 118.333 32.1818 118.648C31.7197 118.958 31.161 119.114 30.5057 119.114C29.9072 119.114 29.3826 118.977 28.9318 118.705C28.4848 118.432 28.1364 118.049 27.8864 117.557C27.6364 117.064 27.5095 116.491 27.5057 115.835V110.273H30.2841V115.29C30.2879 115.763 30.4129 116.136 30.6591 116.409C30.9053 116.682 31.2405 116.818 31.6648 116.818C32.0777 116.818 32.4261 116.682 32.7102 116.409C32.9943 116.133 33.1364 115.741 33.1364 115.233ZM42.6037 110.273V112.318H41.0298V116.256C41.0298 116.513 41.0904 116.695 41.2116 116.801C41.3366 116.903 41.5109 116.955 41.7344 116.955C41.8404 116.955 41.9522 116.945 42.0696 116.926C42.1908 116.903 42.2817 116.884 42.3423 116.869L42.7628 118.875C42.6302 118.913 42.4446 118.958 42.206 119.011C41.9673 119.068 41.6795 119.106 41.3423 119.125C40.3613 119.17 39.598 118.975 39.0526 118.54C38.5109 118.104 38.2438 117.445 38.2514 116.562V112.318H37.098V110.273H38.2514V108.182H41.0298V110.273H42.6037ZM48.0014 119.165C47.081 119.165 46.2912 118.975 45.6321 118.597C44.9768 118.214 44.473 117.686 44.1207 117.011C43.7685 116.333 43.5923 115.551 43.5923 114.665C43.5923 113.771 43.7685 112.987 44.1207 112.312C44.473 111.634 44.9787 111.106 45.6378 110.727C46.2969 110.348 47.0829 110.159 47.9957 110.159C48.8063 110.159 49.5109 110.305 50.1094 110.597C50.7079 110.888 51.1757 111.301 51.5128 111.835C51.8537 112.366 52.0336 112.989 52.0526 113.705H49.456C49.4029 113.258 49.2514 112.907 49.0014 112.653C48.7552 112.4 48.4332 112.273 48.0355 112.273C47.5507 112.273 47.1605 112.475 46.8651 112.881C46.5696 113.282 46.4219 113.867 46.4219 114.636C46.4219 115.413 46.5677 116.004 46.8594 116.409C47.1548 116.811 47.5469 117.011 48.0355 117.011C48.4181 117.011 48.7382 116.888 48.9957 116.642C49.2533 116.396 49.4067 116.042 49.456 115.58H52.0526C52.0298 116.299 51.8518 116.928 51.5185 117.466C51.1851 118.004 50.7192 118.422 50.1207 118.722C49.526 119.017 48.8196 119.165 48.0014 119.165ZM57.5483 119.165C56.6354 119.165 55.8494 118.977 55.1903 118.602C54.5313 118.223 54.0237 117.697 53.6676 117.023C53.3153 116.345 53.1392 115.559 53.1392 114.665C53.1392 113.767 53.3153 112.981 53.6676 112.307C54.0237 111.629 54.5313 111.102 55.1903 110.727C55.8494 110.348 56.6354 110.159 57.5483 110.159C58.465 110.159 59.2509 110.348 59.9062 110.727C60.5653 111.102 61.071 111.629 61.4233 112.307C61.7794 112.981 61.9574 113.767 61.9574 114.665C61.9574 115.559 61.7794 116.345 61.4233 117.023C61.071 117.697 60.5653 118.223 59.9062 118.602C59.2509 118.977 58.465 119.165 57.5483 119.165ZM57.5653 117.068C58.0616 117.068 58.446 116.845 58.7188 116.398C58.9915 115.951 59.1278 115.367 59.1278 114.648C59.1278 113.924 58.9915 113.339 58.7188 112.892C58.446 112.441 58.0616 112.216 57.5653 112.216C57.0502 112.216 56.6544 112.441 56.3778 112.892C56.1051 113.339 55.9688 113.924 55.9688 114.648C55.9688 115.367 56.1051 115.951 56.3778 116.398C56.6544 116.845 57.0502 117.068 57.5653 117.068ZM63.3807 119V110.273H66.0227V111.875H66.1193C66.3011 111.345 66.608 110.926 67.0398 110.619C67.4754 110.312 67.9905 110.159 68.5852 110.159C69.1913 110.159 69.7102 110.314 70.142 110.625C70.5739 110.936 70.8485 111.352 70.9659 111.875H71.0568C71.2197 111.356 71.5379 110.941 72.0114 110.631C72.4848 110.316 73.0436 110.159 73.6875 110.159C74.5133 110.159 75.1837 110.422 75.6989 110.949C76.214 111.475 76.4716 112.201 76.4716 113.125V119H73.6932V113.761C73.6932 113.326 73.5795 112.994 73.3523 112.767C73.1288 112.536 72.8409 112.42 72.4886 112.42C72.1061 112.42 71.8049 112.545 71.5852 112.795C71.3693 113.042 71.2614 113.373 71.2614 113.79V119H68.5909V113.733C68.5909 113.328 68.4811 113.008 68.2614 112.773C68.0417 112.538 67.7519 112.42 67.392 112.42C67.0284 112.42 66.7311 112.549 66.5 112.807C66.2727 113.061 66.1591 113.403 66.1591 113.835V119H63.3807ZM82.2727 119.165C80.9015 119.165 79.822 118.765 79.0341 117.966C78.25 117.167 77.858 116.068 77.858 114.67C77.858 113.769 78.036 112.981 78.392 112.307C78.7481 111.629 79.25 111.102 79.8977 110.727C80.5455 110.348 81.3087 110.159 82.1875 110.159C83.0133 110.159 83.7443 110.331 84.3807 110.676C85.017 111.017 85.5152 111.519 85.875 112.182C86.2348 112.845 86.4148 113.655 86.4148 114.614V115.307H80.5966V115.381C80.5966 115.915 80.75 116.345 81.0568 116.67C81.3674 116.996 81.7898 117.159 82.3239 117.159C82.6875 117.159 83.0038 117.083 83.2727 116.932C83.5417 116.777 83.7292 116.555 83.8352 116.267L86.3864 116.341C86.2273 117.197 85.7879 117.883 85.0682 118.398C84.3485 118.909 83.4167 119.165 82.2727 119.165ZM80.5966 113.693H83.8295C83.8258 113.246 83.6742 112.881 83.375 112.597C83.0795 112.309 82.7027 112.165 82.2443 112.165C81.7822 112.165 81.3958 112.311 81.0852 112.602C80.7784 112.894 80.6155 113.258 80.5966 113.693Z" fill="black"/>
<path d="M3 68H157V93H3V68Z" fill="#FF0000"/>
<path d="M173 68L173 93" stroke="#FF0000" stroke-width="3"/>
<path d="M197.443 79.5795H194.602C194.53 78.9962 194.295 78.5322 193.898 78.1875C193.504 77.8428 192.987 77.6705 192.347 77.6705C191.498 77.6705 190.831 77.9792 190.347 78.5966C189.866 79.2102 189.625 80.072 189.625 81.1818C189.625 82.3371 189.867 83.2121 190.352 83.8068C190.841 84.3977 191.5 84.6932 192.33 84.6932C192.947 84.6932 193.455 84.536 193.852 84.2216C194.254 83.9072 194.504 83.4697 194.602 82.9091L197.443 82.9261C197.39 83.4413 197.241 83.9508 196.994 84.4545C196.748 84.9545 196.407 85.4091 195.972 85.8182C195.54 86.2235 195.015 86.5492 194.398 86.7955C193.78 87.0379 193.072 87.1591 192.273 87.1591C191.22 87.1591 190.277 86.928 189.443 86.4659C188.614 86 187.958 85.322 187.477 84.4318C186.996 83.5417 186.756 82.4583 186.756 81.1818C186.756 79.8977 187 78.8125 187.489 77.9261C187.977 77.036 188.638 76.3598 189.472 75.8977C190.305 75.4356 191.239 75.2045 192.273 75.2045C193.212 75.2045 194.053 75.3769 194.795 75.7216C195.538 76.0625 196.14 76.5587 196.602 77.2102C197.068 77.8617 197.348 78.6515 197.443 79.5795ZM201.513 87.1477C200.679 87.1477 199.992 86.9356 199.45 86.5114C198.912 86.0871 198.643 85.4432 198.643 84.5795C198.643 83.9356 198.791 83.4242 199.087 83.0455C199.382 82.6629 199.776 82.3807 200.268 82.1989C200.761 82.0133 201.301 81.8958 201.888 81.8466C202.634 81.7822 203.164 81.7027 203.479 81.608C203.797 81.5133 203.956 81.3333 203.956 81.0682V81.0398C203.956 80.7481 203.856 80.5227 203.655 80.3636C203.454 80.2045 203.183 80.125 202.842 80.125C202.475 80.125 202.179 80.2045 201.956 80.3636C201.732 80.5227 201.59 80.7424 201.53 81.0227L198.967 80.9318C199.077 80.1364 199.46 79.4754 200.115 78.9489C200.774 78.4223 201.691 78.1591 202.865 78.1591C203.607 78.1591 204.268 78.2746 204.848 78.5057C205.431 78.733 205.89 79.0625 206.223 79.4943C206.56 79.9261 206.729 80.4508 206.729 81.0682V87H204.115V85.7841H204.047C203.562 86.6932 202.717 87.1477 201.513 87.1477ZM202.371 85.3295C202.814 85.3295 203.191 85.197 203.501 84.9318C203.816 84.6667 203.973 84.322 203.973 83.8977V83.0682C203.818 83.1515 203.598 83.2216 203.314 83.2784C203.034 83.3352 202.765 83.3826 202.507 83.4205C201.685 83.5455 201.274 83.8864 201.274 84.4432C201.274 84.7311 201.376 84.9508 201.581 85.1023C201.786 85.2538 202.049 85.3295 202.371 85.3295ZM216.047 80.9375L213.496 81.0057C213.458 80.7292 213.32 80.5038 213.081 80.3295C212.842 80.1515 212.539 80.0625 212.172 80.0625C211.85 80.0625 211.575 80.1269 211.348 80.2557C211.125 80.3807 211.015 80.5549 211.018 80.7784C211.015 80.9451 211.083 81.0928 211.223 81.2216C211.367 81.3466 211.623 81.447 211.99 81.5227L213.672 81.8409C215.388 82.1705 216.251 82.9583 216.263 84.2045C216.259 84.803 216.081 85.3239 215.729 85.767C215.38 86.2102 214.903 86.5549 214.297 86.8011C213.691 87.0436 212.998 87.1648 212.217 87.1648C210.971 87.1648 209.988 86.9091 209.268 86.3977C208.549 85.8826 208.14 85.1932 208.041 84.3295L210.786 84.2614C210.846 84.5795 211.003 84.822 211.257 84.9886C211.511 85.1553 211.835 85.2386 212.229 85.2386C212.585 85.2386 212.875 85.1723 213.098 85.0398C213.321 84.9072 213.435 84.7311 213.439 84.5114C213.428 84.1439 213.073 83.892 212.376 83.7557L210.854 83.4659C209.115 83.1439 208.251 82.3011 208.263 80.9375C208.259 80.0625 208.606 79.3807 209.303 78.892C210 78.4034 210.939 78.1591 212.121 78.1591C213.303 78.1591 214.234 78.4072 214.916 78.9034C215.598 79.3958 215.975 80.0739 216.047 80.9375ZM221.71 87.1648C220.339 87.1648 219.259 86.7652 218.472 85.9659C217.688 85.1667 217.295 84.0682 217.295 82.6705C217.295 81.7689 217.473 80.9811 217.83 80.3068C218.186 79.6288 218.688 79.1023 219.335 78.7273C219.983 78.3485 220.746 78.1591 221.625 78.1591C222.451 78.1591 223.182 78.3314 223.818 78.6761C224.455 79.017 224.953 79.5189 225.312 80.1818C225.672 80.8447 225.852 81.6553 225.852 82.6136V83.3068H220.034V83.3807C220.034 83.9148 220.188 84.3447 220.494 84.6705C220.805 84.9962 221.227 85.1591 221.761 85.1591C222.125 85.1591 222.441 85.0833 222.71 84.9318C222.979 84.7765 223.167 84.5549 223.273 84.267L225.824 84.3409C225.665 85.197 225.225 85.8826 224.506 86.3977C223.786 86.9091 222.854 87.1648 221.71 87.1648ZM220.034 81.6932H223.267C223.263 81.2462 223.112 80.8807 222.812 80.5966C222.517 80.3087 222.14 80.1648 221.682 80.1648C221.22 80.1648 220.833 80.3106 220.523 80.6023C220.216 80.8939 220.053 81.2576 220.034 81.6932ZM230.709 87V78.2727H233.408V79.8636H233.499C233.658 79.2879 233.917 78.8598 234.277 78.5795C234.637 78.2955 235.055 78.1534 235.533 78.1534C235.764 78.1534 235.983 78.1818 236.192 78.2386C236.4 78.2955 236.588 78.3731 236.754 78.4716L235.936 80.7557C235.815 80.6989 235.684 80.6496 235.544 80.608C235.408 80.5625 235.256 80.5398 235.089 80.5398C234.654 80.5398 234.279 80.697 233.964 81.0114C233.65 81.3258 233.491 81.7424 233.487 82.2614V87H230.709ZM241.445 87.1648C240.073 87.1648 238.994 86.7652 238.206 85.9659C237.422 85.1667 237.03 84.0682 237.03 82.6705C237.03 81.7689 237.208 80.9811 237.564 80.3068C237.92 79.6288 238.422 79.1023 239.07 78.7273C239.717 78.3485 240.481 78.1591 241.359 78.1591C242.185 78.1591 242.916 78.3314 243.553 78.6761C244.189 79.017 244.687 79.5189 245.047 80.1818C245.407 80.8447 245.587 81.6553 245.587 82.6136V83.3068H239.768V83.3807C239.768 83.9148 239.922 84.3447 240.229 84.6705C240.539 84.9962 240.962 85.1591 241.496 85.1591C241.859 85.1591 242.176 85.0833 242.445 84.9318C242.714 84.7765 242.901 84.5549 243.007 84.267L245.558 84.3409C245.399 85.197 244.96 85.8826 244.24 86.3977C243.52 86.9091 242.589 87.1648 241.445 87.1648ZM239.768 81.6932H243.001C242.998 81.2462 242.846 80.8807 242.547 80.5966C242.251 80.3087 241.875 80.1648 241.416 80.1648C240.954 80.1648 240.568 80.3106 240.257 80.6023C239.95 80.8939 239.787 81.2576 239.768 81.6932ZM254.625 80.9375L252.074 81.0057C252.036 80.7292 251.898 80.5038 251.659 80.3295C251.42 80.1515 251.117 80.0625 250.75 80.0625C250.428 80.0625 250.153 80.1269 249.926 80.2557C249.703 80.3807 249.593 80.5549 249.597 80.7784C249.593 80.9451 249.661 81.0928 249.801 81.2216C249.945 81.3466 250.201 81.447 250.568 81.5227L252.25 81.8409C253.966 82.1705 254.83 82.9583 254.841 84.2045C254.837 84.803 254.659 85.3239 254.307 85.767C253.958 86.2102 253.481 86.5549 252.875 86.8011C252.269 87.0436 251.576 87.1648 250.795 87.1648C249.549 87.1648 248.566 86.9091 247.847 86.3977C247.127 85.8826 246.718 85.1932 246.619 84.3295L249.364 84.2614C249.424 84.5795 249.581 84.822 249.835 84.9886C250.089 85.1553 250.413 85.2386 250.807 85.2386C251.163 85.2386 251.453 85.1723 251.676 85.0398C251.9 84.9072 252.013 84.7311 252.017 84.5114C252.006 84.1439 251.652 83.892 250.955 83.7557L249.432 83.4659C247.693 83.1439 246.83 82.3011 246.841 80.9375C246.837 80.0625 247.184 79.3807 247.881 78.892C248.578 78.4034 249.517 78.1591 250.699 78.1591C251.881 78.1591 252.813 78.4072 253.494 78.9034C254.176 79.3958 254.553 80.0739 254.625 80.9375ZM260.283 87.1648C259.37 87.1648 258.584 86.9773 257.925 86.6023C257.266 86.2235 256.758 85.697 256.402 85.0227C256.05 84.3447 255.874 83.5587 255.874 82.6648C255.874 81.767 256.05 80.9811 256.402 80.3068C256.758 79.6288 257.266 79.1023 257.925 78.7273C258.584 78.3485 259.37 78.1591 260.283 78.1591C261.199 78.1591 261.985 78.3485 262.641 78.7273C263.3 79.1023 263.805 79.6288 264.158 80.3068C264.514 80.9811 264.692 81.767 264.692 82.6648C264.692 83.5587 264.514 84.3447 264.158 85.0227C263.805 85.697 263.3 86.2235 262.641 86.6023C261.985 86.9773 261.199 87.1648 260.283 87.1648ZM260.3 85.0682C260.796 85.0682 261.18 84.8447 261.453 84.3977C261.726 83.9508 261.862 83.3674 261.862 82.6477C261.862 81.9242 261.726 81.339 261.453 80.892C261.18 80.4413 260.796 80.2159 260.3 80.2159C259.785 80.2159 259.389 80.4413 259.112 80.892C258.839 81.339 258.703 81.9242 258.703 82.6477C258.703 83.3674 258.839 83.9508 259.112 84.3977C259.389 84.8447 259.785 85.0682 260.3 85.0682ZM268.893 75.3636V87H266.115V75.3636H268.893ZM276.293 83.233V78.2727H279.065V87H276.418V85.375H276.327C276.134 85.9091 275.804 86.3333 275.338 86.6477C274.876 86.9583 274.317 87.1136 273.662 87.1136C273.063 87.1136 272.539 86.9773 272.088 86.7045C271.641 86.4318 271.293 86.0492 271.043 85.5568C270.793 85.0644 270.666 84.4905 270.662 83.8352V78.2727H273.44V83.2898C273.444 83.7633 273.569 84.1364 273.815 84.4091C274.062 84.6818 274.397 84.8182 274.821 84.8182C275.234 84.8182 275.582 84.6818 275.866 84.4091C276.151 84.1326 276.293 83.7405 276.293 83.233ZM285.76 78.2727V80.3182H284.186V84.2557C284.186 84.5133 284.247 84.6951 284.368 84.8011C284.493 84.9034 284.667 84.9545 284.891 84.9545C284.997 84.9545 285.108 84.9451 285.226 84.9261C285.347 84.9034 285.438 84.8845 285.499 84.8693L285.919 86.875C285.786 86.9129 285.601 86.9583 285.362 87.0114C285.124 87.0682 284.836 87.1061 284.499 87.125C283.518 87.1705 282.754 86.9754 282.209 86.5398C281.667 86.1042 281.4 85.4451 281.408 84.5625V80.3182H280.254V78.2727H281.408V76.1818H284.186V78.2727H285.76ZM287.178 87V78.2727H289.956V87H287.178ZM288.57 77.2557C288.179 77.2557 287.844 77.1269 287.564 76.8693C287.284 76.608 287.143 76.2936 287.143 75.9261C287.143 75.5587 287.284 75.2462 287.564 74.9886C287.844 74.7311 288.179 74.6023 288.57 74.6023C288.964 74.6023 289.299 74.7311 289.575 74.9886C289.856 75.2462 289.996 75.5587 289.996 75.9261C289.996 76.2936 289.856 76.608 289.575 76.8693C289.299 77.1269 288.964 77.2557 288.57 77.2557ZM295.798 87.1648C294.885 87.1648 294.099 86.9773 293.44 86.6023C292.781 86.2235 292.274 85.697 291.918 85.0227C291.565 84.3447 291.389 83.5587 291.389 82.6648C291.389 81.767 291.565 80.9811 291.918 80.3068C292.274 79.6288 292.781 79.1023 293.44 78.7273C294.099 78.3485 294.885 78.1591 295.798 78.1591C296.715 78.1591 297.501 78.3485 298.156 78.7273C298.815 79.1023 299.321 79.6288 299.673 80.3068C300.029 80.9811 300.207 81.767 300.207 82.6648C300.207 83.5587 300.029 84.3447 299.673 85.0227C299.321 85.697 298.815 86.2235 298.156 86.6023C297.501 86.9773 296.715 87.1648 295.798 87.1648ZM295.815 85.0682C296.312 85.0682 296.696 84.8447 296.969 84.3977C297.241 83.9508 297.378 83.3674 297.378 82.6477C297.378 81.9242 297.241 81.339 296.969 80.892C296.696 80.4413 296.312 80.2159 295.815 80.2159C295.3 80.2159 294.904 80.4413 294.628 80.892C294.355 81.339 294.219 81.9242 294.219 82.6477C294.219 83.3674 294.355 83.9508 294.628 84.3977C294.904 84.8447 295.3 85.0682 295.815 85.0682ZM304.409 82.0227V87H301.631V78.2727H304.273V79.875H304.369C304.563 79.3447 304.892 78.9261 305.358 78.6193C305.824 78.3125 306.379 78.1591 307.023 78.1591C307.636 78.1591 308.169 78.2955 308.619 78.5682C309.074 78.8409 309.426 79.2235 309.676 79.7159C309.93 80.2083 310.055 80.7822 310.051 81.4375V87H307.273V81.983C307.277 81.4981 307.153 81.1193 306.903 80.8466C306.657 80.5739 306.314 80.4375 305.875 80.4375C305.436 80.4375 305.081 80.5777 304.812 80.858C304.547 81.1383 304.413 81.5265 304.409 82.0227Z" fill="black"/>
<path d="M173 2L173 65" stroke="#BDBDBD" stroke-width="3"/>
<path d="M186.881 40V28.3636H189.693V37.7159H194.534V40H186.881ZM200.064 40.1648C199.151 40.1648 198.365 39.9773 197.706 39.6023C197.047 39.2235 196.539 38.697 196.183 38.0227C195.831 37.3447 195.655 36.5587 195.655 35.6648C195.655 34.767 195.831 33.9811 196.183 33.3068C196.539 32.6288 197.047 32.1023 197.706 31.7273C198.365 31.3485 199.151 31.1591 200.064 31.1591C200.981 31.1591 201.767 31.3485 202.422 31.7273C203.081 32.1023 203.587 32.6288 203.939 33.3068C204.295 33.9811 204.473 34.767 204.473 35.6648C204.473 36.5587 204.295 37.3447 203.939 38.0227C203.587 38.697 203.081 39.2235 202.422 39.6023C201.767 39.9773 200.981 40.1648 200.064 40.1648ZM200.081 38.0682C200.577 38.0682 200.962 37.8447 201.234 37.3977C201.507 36.9508 201.643 36.3674 201.643 35.6477C201.643 34.9242 201.507 34.339 201.234 33.892C200.962 33.4413 200.577 33.2159 200.081 33.2159C199.566 33.2159 199.17 33.4413 198.893 33.892C198.621 34.339 198.484 34.9242 198.484 35.6477C198.484 36.3674 198.621 36.9508 198.893 37.3977C199.17 37.8447 199.566 38.0682 200.081 38.0682ZM213.516 33.9375L210.964 34.0057C210.927 33.7292 210.788 33.5038 210.55 33.3295C210.311 33.1515 210.008 33.0625 209.641 33.0625C209.319 33.0625 209.044 33.1269 208.817 33.2557C208.593 33.3807 208.483 33.5549 208.487 33.7784C208.483 33.9451 208.552 34.0928 208.692 34.2216C208.836 34.3466 209.091 34.447 209.459 34.5227L211.141 34.8409C212.857 35.1705 213.72 35.9583 213.732 37.2045C213.728 37.803 213.55 38.3239 213.197 38.767C212.849 39.2102 212.372 39.5549 211.766 39.8011C211.16 40.0436 210.466 40.1648 209.686 40.1648C208.44 40.1648 207.457 39.9091 206.737 39.3977C206.018 38.8826 205.608 38.1932 205.51 37.3295L208.254 37.2614C208.315 37.5795 208.472 37.822 208.726 37.9886C208.98 38.1553 209.304 38.2386 209.697 38.2386C210.054 38.2386 210.343 38.1723 210.567 38.0398C210.79 37.9072 210.904 37.7311 210.908 37.5114C210.896 37.1439 210.542 36.892 209.845 36.7557L208.322 36.4659C206.584 36.1439 205.72 35.3011 205.732 33.9375C205.728 33.0625 206.074 32.3807 206.771 31.892C207.468 31.4034 208.408 31.1591 209.589 31.1591C210.771 31.1591 211.703 31.4072 212.385 31.9034C213.067 32.3958 213.444 33.0739 213.516 33.9375ZM222.719 33.9375L220.168 34.0057C220.13 33.7292 219.991 33.5038 219.753 33.3295C219.514 33.1515 219.211 33.0625 218.844 33.0625C218.522 33.0625 218.247 33.1269 218.02 33.2557C217.796 33.3807 217.687 33.5549 217.69 33.7784C217.687 33.9451 217.755 34.0928 217.895 34.2216C218.039 34.3466 218.295 34.447 218.662 34.5227L220.344 34.8409C222.06 35.1705 222.923 35.9583 222.935 37.2045C222.931 37.803 222.753 38.3239 222.401 38.767C222.052 39.2102 221.575 39.5549 220.969 39.8011C220.363 40.0436 219.67 40.1648 218.889 40.1648C217.643 40.1648 216.66 39.9091 215.94 39.3977C215.221 38.8826 214.812 38.1932 214.713 37.3295L217.457 37.2614C217.518 37.5795 217.675 37.822 217.929 37.9886C218.183 38.1553 218.507 38.2386 218.901 38.2386C219.257 38.2386 219.546 38.1723 219.77 38.0398C219.993 37.9072 220.107 37.7311 220.111 37.5114C220.099 37.1439 219.745 36.892 219.048 36.7557L217.526 36.4659C215.787 36.1439 214.923 35.3011 214.935 33.9375C214.931 33.0625 215.277 32.3807 215.974 31.892C216.671 31.4034 217.611 31.1591 218.793 31.1591C219.974 31.1591 220.906 31.4072 221.588 31.9034C222.27 32.3958 222.647 33.0739 222.719 33.9375Z" fill="#BDBDBD"/>
<path d="M173 96L173 159" stroke="#BDBDBD" stroke-width="3"/>
<path d="M197.864 128.182C197.864 129.462 197.617 130.547 197.125 131.438C196.633 132.328 195.966 133.004 195.125 133.466C194.288 133.928 193.348 134.159 192.307 134.159C191.261 134.159 190.318 133.928 189.477 133.466C188.64 133 187.977 132.322 187.489 131.432C187 130.542 186.756 129.458 186.756 128.182C186.756 126.898 187 125.812 187.489 124.926C187.977 124.036 188.64 123.36 189.477 122.898C190.318 122.436 191.261 122.205 192.307 122.205C193.348 122.205 194.288 122.436 195.125 122.898C195.966 123.36 196.633 124.036 197.125 124.926C197.617 125.812 197.864 126.898 197.864 128.182ZM194.989 128.182C194.989 127.042 194.752 126.172 194.278 125.574C193.805 124.972 193.148 124.67 192.307 124.67C191.47 124.67 190.813 124.972 190.335 125.574C189.862 126.172 189.625 127.042 189.625 128.182C189.625 129.322 189.862 130.193 190.335 130.795C190.813 131.394 191.47 131.693 192.307 131.693C193.148 131.693 193.805 131.394 194.278 130.795C194.752 130.193 194.989 129.322 194.989 128.182ZM207.972 125.273L204.977 134H201.795L198.807 125.273H201.733L203.341 131.284H203.432L205.045 125.273H207.972ZM212.835 134.165C211.464 134.165 210.384 133.765 209.597 132.966C208.813 132.167 208.42 131.068 208.42 129.67C208.42 128.769 208.598 127.981 208.955 127.307C209.311 126.629 209.812 126.102 210.46 125.727C211.108 125.348 211.871 125.159 212.75 125.159C213.576 125.159 214.307 125.331 214.943 125.676C215.58 126.017 216.078 126.519 216.438 127.182C216.797 127.845 216.977 128.655 216.977 129.614V130.307H211.159V130.381C211.159 130.915 211.313 131.345 211.619 131.67C211.93 131.996 212.352 132.159 212.886 132.159C213.25 132.159 213.566 132.083 213.835 131.932C214.104 131.777 214.292 131.555 214.398 131.267L216.949 131.341C216.79 132.197 216.35 132.883 215.631 133.398C214.911 133.909 213.979 134.165 212.835 134.165ZM211.159 128.693H214.392C214.388 128.246 214.237 127.881 213.938 127.597C213.642 127.309 213.265 127.165 212.807 127.165C212.345 127.165 211.958 127.311 211.648 127.602C211.341 127.894 211.178 128.258 211.159 128.693ZM218.396 134V125.273H221.095V126.864H221.186C221.345 126.288 221.605 125.86 221.964 125.58C222.324 125.295 222.743 125.153 223.22 125.153C223.451 125.153 223.671 125.182 223.879 125.239C224.088 125.295 224.275 125.373 224.442 125.472L223.624 127.756C223.502 127.699 223.372 127.65 223.232 127.608C223.095 127.562 222.944 127.54 222.777 127.54C222.341 127.54 221.966 127.697 221.652 128.011C221.338 128.326 221.179 128.742 221.175 129.261V134H218.396ZM228.284 129.023V134H225.506V122.364H228.193V126.875H228.29C228.487 126.337 228.809 125.917 229.256 125.614C229.706 125.311 230.258 125.159 230.909 125.159C231.826 125.159 232.561 125.458 233.114 126.057C233.67 126.655 233.947 127.449 233.943 128.438V134H231.165V128.983C231.169 128.498 231.047 128.119 230.801 127.847C230.555 127.574 230.208 127.438 229.761 127.438C229.322 127.438 228.966 127.578 228.693 127.858C228.424 128.138 228.288 128.527 228.284 129.023ZM239.757 134.165C238.386 134.165 237.306 133.765 236.518 132.966C235.734 132.167 235.342 131.068 235.342 129.67C235.342 128.769 235.52 127.981 235.876 127.307C236.232 126.629 236.734 126.102 237.382 125.727C238.03 125.348 238.793 125.159 239.672 125.159C240.498 125.159 241.229 125.331 241.865 125.676C242.501 126.017 243 126.519 243.359 127.182C243.719 127.845 243.899 128.655 243.899 129.614V130.307H238.081V130.381C238.081 130.915 238.234 131.345 238.541 131.67C238.852 131.996 239.274 132.159 239.808 132.159C240.172 132.159 240.488 132.083 240.757 131.932C241.026 131.777 241.214 131.555 241.32 131.267L243.871 131.341C243.712 132.197 243.272 132.883 242.553 133.398C241.833 133.909 240.901 134.165 239.757 134.165ZM238.081 128.693H241.314C241.31 128.246 241.159 127.881 240.859 127.597C240.564 127.309 240.187 127.165 239.729 127.165C239.267 127.165 238.88 127.311 238.57 127.602C238.263 127.894 238.1 128.258 238.081 128.693ZM247.778 134.148C246.945 134.148 246.258 133.936 245.716 133.511C245.178 133.087 244.909 132.443 244.909 131.58C244.909 130.936 245.057 130.424 245.352 130.045C245.648 129.663 246.042 129.381 246.534 129.199C247.027 129.013 247.566 128.896 248.153 128.847C248.9 128.782 249.43 128.703 249.744 128.608C250.063 128.513 250.222 128.333 250.222 128.068V128.04C250.222 127.748 250.121 127.523 249.92 127.364C249.72 127.205 249.449 127.125 249.108 127.125C248.741 127.125 248.445 127.205 248.222 127.364C247.998 127.523 247.856 127.742 247.795 128.023L245.233 127.932C245.343 127.136 245.725 126.475 246.381 125.949C247.04 125.422 247.956 125.159 249.131 125.159C249.873 125.159 250.534 125.275 251.114 125.506C251.697 125.733 252.155 126.062 252.489 126.494C252.826 126.926 252.994 127.451 252.994 128.068V134H250.381V132.784H250.312C249.828 133.693 248.983 134.148 247.778 134.148ZM248.636 132.33C249.08 132.33 249.456 132.197 249.767 131.932C250.081 131.667 250.239 131.322 250.239 130.898V130.068C250.083 130.152 249.864 130.222 249.58 130.278C249.299 130.335 249.03 130.383 248.773 130.42C247.951 130.545 247.54 130.886 247.54 131.443C247.54 131.731 247.642 131.951 247.847 132.102C248.051 132.254 248.314 132.33 248.636 132.33ZM257.881 134.125C257.241 134.125 256.655 133.958 256.125 133.625C255.598 133.288 255.178 132.788 254.864 132.125C254.549 131.462 254.392 130.634 254.392 129.642C254.392 128.616 254.555 127.773 254.881 127.114C255.206 126.451 255.634 125.96 256.165 125.642C256.695 125.32 257.263 125.159 257.869 125.159C258.559 125.159 259.1 125.328 259.494 125.665C259.892 125.998 260.172 126.366 260.335 126.767H260.392V122.364H263.17V134H260.42V132.585H260.335C260.161 132.987 259.873 133.345 259.472 133.659C259.07 133.97 258.54 134.125 257.881 134.125ZM258.847 131.96C259.354 131.96 259.748 131.75 260.028 131.33C260.313 130.909 260.455 130.345 260.455 129.636C260.455 128.924 260.313 128.362 260.028 127.949C259.748 127.536 259.354 127.33 258.847 127.33C258.331 127.33 257.936 127.54 257.659 127.96C257.383 128.377 257.244 128.936 257.244 129.636C257.244 130.341 257.383 130.905 257.659 131.33C257.936 131.75 258.331 131.96 258.847 131.96Z" fill="#BDBDBD"/>
</svg>
