<svg width="343" height="236" viewBox="0 0 343 236" fill="none" xmlns="http://www.w3.org/2000/svg">
<rect width="343" height="236" fill="white"/>
<rect x="1.5" y="1.5" width="157" height="93" stroke="black" stroke-width="3"/>
<path d="M19.1818 30H14.8807V18.3636H19.1761C20.3617 18.3636 21.3826 18.5966 22.2386 19.0625C23.0985 19.5246 23.7614 20.1894 24.2273 21.0568C24.6932 21.9242 24.9261 22.964 24.9261 24.1761C24.9261 25.3883 24.6932 26.4299 24.2273 27.3011C23.7652 28.1686 23.1042 28.8352 22.2443 29.3011C21.3845 29.767 20.3636 30 19.1818 30ZM17.6932 27.6023H19.0739C20.0549 27.6023 20.8049 27.3466 21.3239 26.8352C21.8466 26.3201 22.108 25.4337 22.108 24.1761C22.108 22.9223 21.8447 22.0398 21.3182 21.5284C20.7955 21.017 20.0341 20.7614 19.0341 20.7614H17.6932V27.6023ZM30.6477 30.1648C29.2765 30.1648 28.197 29.7652 27.4091 28.9659C26.625 28.1667 26.233 27.0682 26.233 25.6705C26.233 24.7689 26.411 23.9811 26.767 23.3068C27.1231 22.6288 27.625 22.1023 28.2727 21.7273C28.9205 21.3485 29.6837 21.1591 30.5625 21.1591C31.3883 21.1591 32.1193 21.3314 32.7557 21.6761C33.392 22.017 33.8902 22.5189 34.25 23.1818C34.6098 23.8447 34.7898 24.6553 34.7898 25.6136V26.3068H28.9716V26.3807C28.9716 26.9148 29.125 27.3447 29.4318 27.6705C29.7424 27.9962 30.1648 28.1591 30.6989 28.1591C31.0625 28.1591 31.3788 28.0833 31.6477 27.9318C31.9167 27.7765 32.1042 27.5549 32.2102 27.267L34.7614 27.3409C34.6023 28.197 34.1629 28.8826 33.4432 29.3977C32.7235 29.9091 31.7917 30.1648 30.6477 30.1648ZM28.9716 24.6932H32.2045C32.2008 24.2462 32.0492 23.8807 31.75 23.5966C31.4545 23.3087 31.0777 23.1648 30.6193 23.1648C30.1572 23.1648 29.7708 23.3106 29.4602 23.6023C29.1534 23.8939 28.9905 24.2576 28.9716 24.6932ZM43.8281 23.9375L41.277 24.0057C41.2391 23.7292 41.1009 23.5038 40.8622 23.3295C40.6236 23.1515 40.3205 23.0625 39.9531 23.0625C39.6312 23.0625 39.3565 23.1269 39.1293 23.2557C38.9058 23.3807 38.7959 23.5549 38.7997 23.7784C38.7959 23.9451 38.8641 24.0928 39.0043 24.2216C39.1482 24.3466 39.4039 24.447 39.7713 24.5227L41.4531 24.8409C43.169 25.1705 44.0327 25.9583 44.044 27.2045C44.0402 27.803 43.8622 28.3239 43.5099 28.767C43.1615 29.2102 42.6842 29.5549 42.0781 29.8011C41.4721 30.0436 40.7789 30.1648 39.9986 30.1648C38.7524 30.1648 37.7694 29.9091 37.0497 29.3977C36.33 28.8826 35.9209 28.1932 35.8224 27.3295L38.5668 27.2614C38.6274 27.5795 38.7846 27.822 39.0384 27.9886C39.2921 28.1553 39.616 28.2386 40.0099 28.2386C40.366 28.2386 40.6558 28.1723 40.8793 28.0398C41.1027 27.9072 41.2164 27.7311 41.2202 27.5114C41.2088 27.1439 40.8546 26.892 40.1577 26.7557L38.6349 26.4659C36.8963 26.1439 36.0327 25.3011 36.044 23.9375C36.0402 23.0625 36.3868 22.3807 37.0838 21.892C37.7808 21.4034 38.7202 21.1591 39.902 21.1591C41.0838 21.1591 42.0156 21.4072 42.6974 21.9034C43.3793 22.3958 43.7562 23.0739 43.8281 23.9375ZM45.4119 30V21.2727H48.1903V30H45.4119ZM46.804 20.2557C46.4138 20.2557 46.0786 20.1269 45.7983 19.8693C45.518 19.608 45.3778 19.2936 45.3778 18.9261C45.3778 18.5587 45.518 18.2462 45.7983 17.9886C46.0786 17.7311 46.4138 17.6023 46.804 17.6023C47.1979 17.6023 47.5331 17.7311 47.8097 17.9886C48.09 18.2462 48.2301 18.5587 48.2301 18.9261C48.2301 19.2936 48.09 19.608 47.8097 19.8693C47.5331 20.1269 47.1979 20.2557 46.804 20.2557ZM54.027 33.3807C52.7846 33.3807 51.8111 33.1307 51.1065 32.6307C50.402 32.1345 49.9986 31.5227 49.8963 30.7955L52.527 30.6477C52.6027 30.8788 52.7713 31.0701 53.0327 31.2216C53.2978 31.3769 53.6539 31.4545 54.1009 31.4545C54.5668 31.4545 54.9512 31.3447 55.2543 31.125C55.5611 30.9053 55.7145 30.5341 55.7145 30.0114V28.4773H55.6179C55.455 28.8788 55.1634 29.214 54.7429 29.483C54.3224 29.7481 53.7902 29.8807 53.1463 29.8807C52.5099 29.8807 51.9266 29.733 51.3963 29.4375C50.8698 29.1383 50.4474 28.6761 50.1293 28.0511C49.8149 27.4223 49.6577 26.6136 49.6577 25.625C49.6577 24.6023 49.8205 23.7614 50.1463 23.1023C50.4721 22.4432 50.9001 21.9545 51.4304 21.6364C51.9607 21.3182 52.5289 21.1591 53.1349 21.1591C53.8243 21.1591 54.366 21.3277 54.7599 21.6648C55.1577 21.9981 55.4399 22.3655 55.6065 22.767H55.6861V21.2727H58.4531V30.0341C58.4531 30.75 58.2656 31.3561 57.8906 31.8523C57.5194 32.3523 57.0024 32.7311 56.3395 32.9886C55.6766 33.25 54.9058 33.3807 54.027 33.3807ZM54.1122 27.858C54.6198 27.858 55.0137 27.661 55.294 27.267C55.5781 26.8731 55.7202 26.3258 55.7202 25.625C55.7202 24.9167 55.5781 24.358 55.294 23.9489C55.0137 23.536 54.6198 23.3295 54.1122 23.3295C53.5971 23.3295 53.2012 23.5379 52.9247 23.9545C52.6482 24.3712 52.5099 24.928 52.5099 25.625C52.5099 26.322 52.6482 26.8693 52.9247 27.267C53.2012 27.661 53.5971 27.858 54.1122 27.858ZM63.0028 25.0227V30H60.2244V21.2727H62.8665V22.875H62.9631C63.1563 22.3447 63.4858 21.9261 63.9517 21.6193C64.4176 21.3125 64.9725 21.1591 65.6165 21.1591C66.2301 21.1591 66.7623 21.2955 67.2131 21.5682C67.6676 21.8409 68.0199 22.2235 68.2699 22.7159C68.5237 23.2083 68.6487 23.7822 68.6449 24.4375V30H65.8665V24.983C65.8703 24.4981 65.7472 24.1193 65.4972 23.8466C65.2509 23.5739 64.9081 23.4375 64.4688 23.4375C64.0294 23.4375 63.6752 23.5777 63.4062 23.858C63.1411 24.1383 63.0066 24.5265 63.0028 25.0227ZM73.4219 20.6477V18.3636H83.2571V20.6477H79.7287V30H76.956V20.6477H73.4219ZM87.4389 30.1648C86.526 30.1648 85.7401 29.9773 85.081 29.6023C84.4219 29.2235 83.9143 28.697 83.5582 28.0227C83.206 27.3447 83.0298 26.5587 83.0298 25.6648C83.0298 24.767 83.206 23.9811 83.5582 23.3068C83.9143 22.6288 84.4219 22.1023 85.081 21.7273C85.7401 21.3485 86.526 21.1591 87.4389 21.1591C88.3556 21.1591 89.1416 21.3485 89.7969 21.7273C90.456 22.1023 90.9616 22.6288 91.3139 23.3068C91.67 23.9811 91.848 24.767 91.848 25.6648C91.848 26.5587 91.67 27.3447 91.3139 28.0227C90.9616 28.697 90.456 29.2235 89.7969 29.6023C89.1416 29.9773 88.3556 30.1648 87.4389 30.1648ZM87.456 28.0682C87.9522 28.0682 88.3366 27.8447 88.6094 27.3977C88.8821 26.9508 89.0185 26.3674 89.0185 25.6477C89.0185 24.9242 88.8821 24.339 88.6094 23.892C88.3366 23.4413 87.9522 23.2159 87.456 23.2159C86.9408 23.2159 86.545 23.4413 86.2685 23.892C85.9957 24.339 85.8594 24.9242 85.8594 25.6477C85.8594 26.3674 85.9957 26.9508 86.2685 27.3977C86.545 27.8447 86.9408 28.0682 87.456 28.0682ZM93.2713 30V18.3636H96.0497V24.3977H96.1747L98.6293 21.2727H101.777L98.6804 25.0739L101.902 30H98.6918L96.6122 26.6989L96.0497 27.3807V30H93.2713ZM106.491 30.1648C105.12 30.1648 104.041 29.7652 103.253 28.9659C102.469 28.1667 102.077 27.0682 102.077 25.6705C102.077 24.7689 102.255 23.9811 102.611 23.3068C102.967 22.6288 103.469 22.1023 104.116 21.7273C104.764 21.3485 105.527 21.1591 106.406 21.1591C107.232 21.1591 107.963 21.3314 108.599 21.6761C109.236 22.017 109.734 22.5189 110.094 23.1818C110.454 23.8447 110.634 24.6553 110.634 25.6136V26.3068H104.815V26.3807C104.815 26.9148 104.969 27.3447 105.276 27.6705C105.586 27.9962 106.009 28.1591 106.543 28.1591C106.906 28.1591 107.223 28.0833 107.491 27.9318C107.76 27.7765 107.948 27.5549 108.054 27.267L110.605 27.3409C110.446 28.197 110.007 28.8826 109.287 29.3977C108.567 29.9091 107.635 30.1648 106.491 30.1648ZM104.815 24.6932H108.048C108.045 24.2462 107.893 23.8807 107.594 23.5966C107.298 23.3087 106.921 23.1648 106.463 23.1648C106.001 23.1648 105.615 23.3106 105.304 23.6023C104.997 23.8939 104.834 24.2576 104.815 24.6932ZM114.831 25.0227V30H112.053V21.2727H114.695V22.875H114.791C114.984 22.3447 115.314 21.9261 115.78 21.6193C116.246 21.3125 116.801 21.1591 117.445 21.1591C118.058 21.1591 118.59 21.2955 119.041 21.5682C119.496 21.8409 119.848 22.2235 120.098 22.7159C120.352 23.2083 120.477 23.7822 120.473 24.4375V30H117.695V24.983C117.698 24.4981 117.575 24.1193 117.325 23.8466C117.079 23.5739 116.736 23.4375 116.297 23.4375C115.857 23.4375 115.503 23.5777 115.234 23.858C114.969 24.1383 114.835 24.5265 114.831 25.0227ZM129.812 23.9375L127.261 24.0057C127.223 23.7292 127.085 23.5038 126.847 23.3295C126.608 23.1515 126.305 23.0625 125.938 23.0625C125.616 23.0625 125.341 23.1269 125.114 23.2557C124.89 23.3807 124.78 23.5549 124.784 23.7784C124.78 23.9451 124.848 24.0928 124.989 24.2216C125.133 24.3466 125.388 24.447 125.756 24.5227L127.438 24.8409C129.153 25.1705 130.017 25.9583 130.028 27.2045C130.025 27.803 129.847 28.3239 129.494 28.767C129.146 29.2102 128.669 29.5549 128.062 29.8011C127.456 30.0436 126.763 30.1648 125.983 30.1648C124.737 30.1648 123.754 29.9091 123.034 29.3977C122.314 28.8826 121.905 28.1932 121.807 27.3295L124.551 27.2614C124.612 27.5795 124.769 27.822 125.023 27.9886C125.277 28.1553 125.6 28.2386 125.994 28.2386C126.35 28.2386 126.64 28.1723 126.864 28.0398C127.087 27.9072 127.201 27.7311 127.205 27.5114C127.193 27.1439 126.839 26.892 126.142 26.7557L124.619 26.4659C122.881 26.1439 122.017 25.3011 122.028 23.9375C122.025 23.0625 122.371 22.3807 123.068 21.892C123.765 21.4034 124.705 21.1591 125.886 21.1591C127.068 21.1591 128 21.4072 128.682 21.9034C129.364 22.3958 129.741 23.0739 129.812 23.9375Z" fill="black"/>
<rect x="14" y="57" width="24" height="24" fill="#FF0000"/>
<rect x="1.5" y="145.5" width="340" height="89" stroke="black" stroke-width="3"/>
<path d="M17.3977 174H14.375L18.3011 162.364H22.0455L25.9716 174H22.9489L22.1818 171.557H18.1648L17.3977 174ZM18.8352 169.42H21.5114L20.2159 165.295H20.125L18.8352 169.42ZM27.2244 177.273V165.273H29.9744V166.767H30.0597C30.2263 166.366 30.5066 165.998 30.9006 165.665C31.2983 165.328 31.8419 165.159 32.5312 165.159C33.1411 165.159 33.7093 165.32 34.2358 165.642C34.7623 165.96 35.1884 166.451 35.5142 167.114C35.84 167.773 36.0028 168.616 36.0028 169.642C36.0028 170.634 35.8456 171.462 35.5312 172.125C35.2206 172.788 34.8002 173.288 34.2699 173.625C33.7434 173.958 33.1581 174.125 32.5142 174.125C31.8551 174.125 31.3248 173.97 30.9233 173.659C30.5256 173.345 30.2377 172.987 30.0597 172.585H30.0028V177.273H27.2244ZM29.946 169.636C29.946 170.345 30.0862 170.909 30.3665 171.33C30.6506 171.75 31.0464 171.96 31.554 171.96C32.0691 171.96 32.4631 171.75 32.7358 171.33C33.0123 170.905 33.1506 170.341 33.1506 169.636C33.1506 168.936 33.0123 168.377 32.7358 167.96C32.4631 167.54 32.0691 167.33 31.554 167.33C31.0464 167.33 30.6506 167.536 30.3665 167.949C30.0862 168.362 29.946 168.924 29.946 169.636ZM37.4588 177.273V165.273H40.2088V166.767H40.294C40.4607 166.366 40.741 165.998 41.1349 165.665C41.5327 165.328 42.0762 165.159 42.7656 165.159C43.3755 165.159 43.9437 165.32 44.4702 165.642C44.9967 165.96 45.4228 166.451 45.7486 167.114C46.0743 167.773 46.2372 168.616 46.2372 169.642C46.2372 170.634 46.08 171.462 45.7656 172.125C45.455 172.788 45.0346 173.288 44.5043 173.625C43.9777 173.958 43.3925 174.125 42.7486 174.125C42.0895 174.125 41.5592 173.97 41.1577 173.659C40.7599 173.345 40.4721 172.987 40.294 172.585H40.2372V177.273H37.4588ZM40.1804 169.636C40.1804 170.345 40.3205 170.909 40.6009 171.33C40.8849 171.75 41.2808 171.96 41.7884 171.96C42.3035 171.96 42.6974 171.75 42.9702 171.33C43.2467 170.905 43.3849 170.341 43.3849 169.636C43.3849 168.936 43.2467 168.377 42.9702 167.96C42.6974 167.54 42.3035 167.33 41.7884 167.33C41.2808 167.33 40.8849 167.536 40.6009 167.949C40.3205 168.362 40.1804 168.924 40.1804 169.636ZM50.4716 162.364V174H47.6932V162.364H50.4716ZM52.2401 174V165.273H55.0185V174H52.2401ZM53.6321 164.256C53.242 164.256 52.9067 164.127 52.6264 163.869C52.3461 163.608 52.206 163.294 52.206 162.926C52.206 162.559 52.3461 162.246 52.6264 161.989C52.9067 161.731 53.242 161.602 53.6321 161.602C54.026 161.602 54.3613 161.731 54.6378 161.989C54.9181 162.246 55.0582 162.559 55.0582 162.926C55.0582 163.294 54.9181 163.608 54.6378 163.869C54.3613 164.127 54.026 164.256 53.6321 164.256ZM60.8608 174.165C59.9403 174.165 59.1506 173.975 58.4915 173.597C57.8362 173.214 57.3324 172.686 56.9801 172.011C56.6278 171.333 56.4517 170.551 56.4517 169.665C56.4517 168.771 56.6278 167.987 56.9801 167.312C57.3324 166.634 57.8381 166.106 58.4972 165.727C59.1563 165.348 59.9422 165.159 60.8551 165.159C61.6657 165.159 62.3703 165.305 62.9688 165.597C63.5672 165.888 64.035 166.301 64.3722 166.835C64.7131 167.366 64.893 167.989 64.9119 168.705H62.3153C62.2623 168.258 62.1108 167.907 61.8608 167.653C61.6146 167.4 61.2926 167.273 60.8949 167.273C60.41 167.273 60.0199 167.475 59.7244 167.881C59.429 168.282 59.2812 168.867 59.2812 169.636C59.2812 170.413 59.4271 171.004 59.7188 171.409C60.0142 171.811 60.4063 172.011 60.8949 172.011C61.2775 172.011 61.5975 171.888 61.8551 171.642C62.1127 171.396 62.2661 171.042 62.3153 170.58H64.9119C64.8892 171.299 64.7112 171.928 64.3778 172.466C64.0445 173.004 63.5786 173.422 62.9801 173.722C62.3854 174.017 61.679 174.165 60.8608 174.165ZM68.794 174.148C67.9607 174.148 67.2732 173.936 66.7315 173.511C66.1937 173.087 65.9247 172.443 65.9247 171.58C65.9247 170.936 66.0724 170.424 66.3679 170.045C66.6634 169.663 67.0573 169.381 67.5497 169.199C68.0421 169.013 68.5819 168.896 69.169 168.847C69.9152 168.782 70.4455 168.703 70.7599 168.608C71.0781 168.513 71.2372 168.333 71.2372 168.068V168.04C71.2372 167.748 71.1368 167.523 70.9361 167.364C70.7353 167.205 70.4645 167.125 70.1236 167.125C69.7562 167.125 69.4607 167.205 69.2372 167.364C69.0137 167.523 68.8717 167.742 68.8111 168.023L66.2486 167.932C66.3584 167.136 66.741 166.475 67.3963 165.949C68.0554 165.422 68.9721 165.159 70.1463 165.159C70.8887 165.159 71.5497 165.275 72.1293 165.506C72.7126 165.733 73.1709 166.062 73.5043 166.494C73.8414 166.926 74.0099 167.451 74.0099 168.068V174H71.3963V172.784H71.3281C70.8433 173.693 69.9986 174.148 68.794 174.148ZM69.652 172.33C70.0952 172.33 70.4721 172.197 70.7827 171.932C71.0971 171.667 71.2543 171.322 71.2543 170.898V170.068C71.099 170.152 70.8793 170.222 70.5952 170.278C70.3149 170.335 70.0459 170.383 69.7884 170.42C68.9664 170.545 68.5554 170.886 68.5554 171.443C68.5554 171.731 68.6577 171.951 68.8622 172.102C69.0668 172.254 69.33 172.33 69.652 172.33ZM80.6349 165.273V167.318H79.0611V171.256C79.0611 171.513 79.1217 171.695 79.2429 171.801C79.3679 171.903 79.5421 171.955 79.7656 171.955C79.8717 171.955 79.9834 171.945 80.1009 171.926C80.2221 171.903 80.313 171.884 80.3736 171.869L80.794 173.875C80.6615 173.913 80.4759 173.958 80.2372 174.011C79.9986 174.068 79.7107 174.106 79.3736 174.125C78.3925 174.17 77.6293 173.975 77.0838 173.54C76.5421 173.104 76.2751 172.445 76.2827 171.562V167.318H75.1293V165.273H76.2827V163.182H79.0611V165.273H80.6349ZM82.0526 174V165.273H84.831V174H82.0526ZM83.4446 164.256C83.0545 164.256 82.7192 164.127 82.4389 163.869C82.1586 163.608 82.0185 163.294 82.0185 162.926C82.0185 162.559 82.1586 162.246 82.4389 161.989C82.7192 161.731 83.0545 161.602 83.4446 161.602C83.8385 161.602 84.1738 161.731 84.4503 161.989C84.7306 162.246 84.8707 162.559 84.8707 162.926C84.8707 163.294 84.7306 163.608 84.4503 163.869C84.1738 164.127 83.8385 164.256 83.4446 164.256ZM90.6733 174.165C89.7604 174.165 88.9744 173.977 88.3153 173.602C87.6563 173.223 87.1487 172.697 86.7926 172.023C86.4403 171.345 86.2642 170.559 86.2642 169.665C86.2642 168.767 86.4403 167.981 86.7926 167.307C87.1487 166.629 87.6563 166.102 88.3153 165.727C88.9744 165.348 89.7604 165.159 90.6733 165.159C91.59 165.159 92.3759 165.348 93.0312 165.727C93.6903 166.102 94.196 166.629 94.5483 167.307C94.9044 167.981 95.0824 168.767 95.0824 169.665C95.0824 170.559 94.9044 171.345 94.5483 172.023C94.196 172.697 93.6903 173.223 93.0312 173.602C92.3759 173.977 91.59 174.165 90.6733 174.165ZM90.6903 172.068C91.1866 172.068 91.571 171.845 91.8438 171.398C92.1165 170.951 92.2528 170.367 92.2528 169.648C92.2528 168.924 92.1165 168.339 91.8438 167.892C91.571 167.441 91.1866 167.216 90.6903 167.216C90.1752 167.216 89.7794 167.441 89.5028 167.892C89.2301 168.339 89.0938 168.924 89.0938 169.648C89.0938 170.367 89.2301 170.951 89.5028 171.398C89.7794 171.845 90.1752 172.068 90.6903 172.068ZM99.2841 169.023V174H96.5057V165.273H99.1477V166.875H99.2443C99.4375 166.345 99.767 165.926 100.233 165.619C100.699 165.312 101.254 165.159 101.898 165.159C102.511 165.159 103.044 165.295 103.494 165.568C103.949 165.841 104.301 166.223 104.551 166.716C104.805 167.208 104.93 167.782 104.926 168.438V174H102.148V168.983C102.152 168.498 102.028 168.119 101.778 167.847C101.532 167.574 101.189 167.438 100.75 167.438C100.311 167.438 99.9564 167.578 99.6875 167.858C99.4223 168.138 99.2879 168.527 99.2841 169.023Z" fill="black"/>
<rect x="14" y="196" width="62" height="24" fill="#FF0000"/>
<path d="M18.8807 214V202.364H23.733C25.0398 202.364 26.0265 202.634 26.6932 203.176C27.3636 203.718 27.6989 204.428 27.6989 205.307C27.6989 205.97 27.4962 206.523 27.0909 206.966C26.6856 207.409 26.1629 207.697 25.5227 207.83V207.943C25.9924 207.962 26.4261 208.089 26.8239 208.324C27.2254 208.555 27.5473 208.877 27.7898 209.29C28.0322 209.699 28.1534 210.184 28.1534 210.744C28.1534 211.369 27.9943 211.928 27.6761 212.42C27.358 212.909 26.8977 213.295 26.2955 213.58C25.6932 213.86 24.9621 214 24.1023 214H18.8807ZM21.6932 211.733H23.4318C24.0417 211.733 24.4905 211.617 24.7784 211.386C25.0701 211.155 25.2159 210.833 25.2159 210.42C25.2159 209.973 25.0606 209.619 24.75 209.358C24.4432 209.093 24.0208 208.96 23.483 208.96H21.6932V211.733ZM21.6932 207.148H23.25C23.7121 207.148 24.0909 207.034 24.3864 206.807C24.6818 206.58 24.8295 206.261 24.8295 205.852C24.8295 205.466 24.6913 205.161 24.4148 204.938C24.1383 204.71 23.7652 204.597 23.2955 204.597H21.6932V207.148ZM35.1364 210.233V205.273H37.9091V214H35.2614V212.375H35.1705C34.9773 212.909 34.6477 213.333 34.1818 213.648C33.7197 213.958 33.161 214.114 32.5057 214.114C31.9072 214.114 31.3826 213.977 30.9318 213.705C30.4848 213.432 30.1364 213.049 29.8864 212.557C29.6364 212.064 29.5095 211.491 29.5057 210.835V205.273H32.2841V210.29C32.2879 210.763 32.4129 211.136 32.6591 211.409C32.9053 211.682 33.2405 211.818 33.6648 211.818C34.0777 211.818 34.4261 211.682 34.7102 211.409C34.9943 211.133 35.1364 210.741 35.1364 210.233ZM44.6037 205.273V207.318H43.0298V211.256C43.0298 211.513 43.0904 211.695 43.2116 211.801C43.3366 211.903 43.5109 211.955 43.7344 211.955C43.8404 211.955 43.9522 211.945 44.0696 211.926C44.1908 211.903 44.2817 211.884 44.3423 211.869L44.7628 213.875C44.6302 213.913 44.4446 213.958 44.206 214.011C43.9673 214.068 43.6795 214.106 43.3423 214.125C42.3613 214.17 41.598 213.975 41.0526 213.54C40.5109 213.104 40.2438 212.445 40.2514 211.562V207.318H39.098V205.273H40.2514V203.182H43.0298V205.273H44.6037ZM50.9474 205.273V207.318H49.3736V211.256C49.3736 211.513 49.4342 211.695 49.5554 211.801C49.6804 211.903 49.8546 211.955 50.0781 211.955C50.1842 211.955 50.2959 211.945 50.4134 211.926C50.5346 211.903 50.6255 211.884 50.6861 211.869L51.1065 213.875C50.974 213.913 50.7884 213.958 50.5497 214.011C50.3111 214.068 50.0232 214.106 49.6861 214.125C48.705 214.17 47.9418 213.975 47.3963 213.54C46.8546 213.104 46.5876 212.445 46.5952 211.562V207.318H45.4418V205.273H46.5952V203.182H49.3736V205.273H50.9474ZM56.3452 214.165C55.4323 214.165 54.6463 213.977 53.9872 213.602C53.3281 213.223 52.8205 212.697 52.4645 212.023C52.1122 211.345 51.9361 210.559 51.9361 209.665C51.9361 208.767 52.1122 207.981 52.4645 207.307C52.8205 206.629 53.3281 206.102 53.9872 205.727C54.6463 205.348 55.4323 205.159 56.3452 205.159C57.2618 205.159 58.0478 205.348 58.7031 205.727C59.3622 206.102 59.8679 206.629 60.2202 207.307C60.5762 207.981 60.7543 208.767 60.7543 209.665C60.7543 210.559 60.5762 211.345 60.2202 212.023C59.8679 212.697 59.3622 213.223 58.7031 213.602C58.0478 213.977 57.2618 214.165 56.3452 214.165ZM56.3622 212.068C56.8584 212.068 57.2429 211.845 57.5156 211.398C57.7884 210.951 57.9247 210.367 57.9247 209.648C57.9247 208.924 57.7884 208.339 57.5156 207.892C57.2429 207.441 56.8584 207.216 56.3622 207.216C55.8471 207.216 55.4512 207.441 55.1747 207.892C54.902 208.339 54.7656 208.924 54.7656 209.648C54.7656 210.367 54.902 210.951 55.1747 211.398C55.4512 211.845 55.8471 212.068 56.3622 212.068ZM64.956 209.023V214H62.1776V205.273H64.8196V206.875H64.9162C65.1094 206.345 65.4389 205.926 65.9048 205.619C66.3707 205.312 66.9257 205.159 67.5696 205.159C68.1832 205.159 68.7154 205.295 69.1662 205.568C69.6207 205.841 69.973 206.223 70.223 206.716C70.4768 207.208 70.6018 207.782 70.598 208.438V214H67.8196V208.983C67.8234 208.498 67.7003 208.119 67.4503 207.847C67.2041 207.574 66.8613 207.438 66.4219 207.438C65.9825 207.438 65.6283 207.578 65.3594 207.858C65.0942 208.138 64.9598 208.527 64.956 209.023Z" fill="white"/>
<rect x="80" y="196" width="62" height="24" fill="#FF0000"/>
<path d="M84.8807 214V202.364H89.733C91.0398 202.364 92.0265 202.634 92.6932 203.176C93.3636 203.718 93.6989 204.428 93.6989 205.307C93.6989 205.97 93.4962 206.523 93.0909 206.966C92.6856 207.409 92.1629 207.697 91.5227 207.83V207.943C91.9924 207.962 92.4261 208.089 92.8239 208.324C93.2254 208.555 93.5473 208.877 93.7898 209.29C94.0322 209.699 94.1534 210.184 94.1534 210.744C94.1534 211.369 93.9943 211.928 93.6761 212.42C93.358 212.909 92.8977 213.295 92.2955 213.58C91.6932 213.86 90.9621 214 90.1023 214H84.8807ZM87.6932 211.733H89.4318C90.0417 211.733 90.4905 211.617 90.7784 211.386C91.0701 211.155 91.2159 210.833 91.2159 210.42C91.2159 209.973 91.0606 209.619 90.75 209.358C90.4432 209.093 90.0208 208.96 89.483 208.96H87.6932V211.733ZM87.6932 207.148H89.25C89.7121 207.148 90.0909 207.034 90.3864 206.807C90.6818 206.58 90.8295 206.261 90.8295 205.852C90.8295 205.466 90.6913 205.161 90.4148 204.938C90.1383 204.71 89.7652 204.597 89.2955 204.597H87.6932V207.148ZM101.136 210.233V205.273H103.909V214H101.261V212.375H101.17C100.977 212.909 100.648 213.333 100.182 213.648C99.7197 213.958 99.161 214.114 98.5057 214.114C97.9072 214.114 97.3826 213.977 96.9318 213.705C96.4848 213.432 96.1364 213.049 95.8864 212.557C95.6364 212.064 95.5095 211.491 95.5057 210.835V205.273H98.2841V210.29C98.2879 210.763 98.4129 211.136 98.6591 211.409C98.9053 211.682 99.2405 211.818 99.6648 211.818C100.078 211.818 100.426 211.682 100.71 211.409C100.994 211.133 101.136 210.741 101.136 210.233ZM110.604 205.273V207.318H109.03V211.256C109.03 211.513 109.09 211.695 109.212 211.801C109.337 211.903 109.511 211.955 109.734 211.955C109.84 211.955 109.952 211.945 110.07 211.926C110.191 211.903 110.282 211.884 110.342 211.869L110.763 213.875C110.63 213.913 110.445 213.958 110.206 214.011C109.967 214.068 109.679 214.106 109.342 214.125C108.361 214.17 107.598 213.975 107.053 213.54C106.511 213.104 106.244 212.445 106.251 211.562V207.318H105.098V205.273H106.251V203.182H109.03V205.273H110.604ZM116.947 205.273V207.318H115.374V211.256C115.374 211.513 115.434 211.695 115.555 211.801C115.68 211.903 115.855 211.955 116.078 211.955C116.184 211.955 116.296 211.945 116.413 211.926C116.535 211.903 116.625 211.884 116.686 211.869L117.107 213.875C116.974 213.913 116.788 213.958 116.55 214.011C116.311 214.068 116.023 214.106 115.686 214.125C114.705 214.17 113.942 213.975 113.396 213.54C112.855 213.104 112.588 212.445 112.595 211.562V207.318H111.442V205.273H112.595V203.182H115.374V205.273H116.947ZM122.345 214.165C121.432 214.165 120.646 213.977 119.987 213.602C119.328 213.223 118.821 212.697 118.464 212.023C118.112 211.345 117.936 210.559 117.936 209.665C117.936 208.767 118.112 207.981 118.464 207.307C118.821 206.629 119.328 206.102 119.987 205.727C120.646 205.348 121.432 205.159 122.345 205.159C123.262 205.159 124.048 205.348 124.703 205.727C125.362 206.102 125.868 206.629 126.22 207.307C126.576 207.981 126.754 208.767 126.754 209.665C126.754 210.559 126.576 211.345 126.22 212.023C125.868 212.697 125.362 213.223 124.703 213.602C124.048 213.977 123.262 214.165 122.345 214.165ZM122.362 212.068C122.858 212.068 123.243 211.845 123.516 211.398C123.788 210.951 123.925 210.367 123.925 209.648C123.925 208.924 123.788 208.339 123.516 207.892C123.243 207.441 122.858 207.216 122.362 207.216C121.847 207.216 121.451 207.441 121.175 207.892C120.902 208.339 120.766 208.924 120.766 209.648C120.766 210.367 120.902 210.951 121.175 211.398C121.451 211.845 121.847 212.068 122.362 212.068ZM130.956 209.023V214H128.178V205.273H130.82V206.875H130.916C131.109 206.345 131.439 205.926 131.905 205.619C132.371 205.312 132.926 205.159 133.57 205.159C134.183 205.159 134.715 205.295 135.166 205.568C135.621 205.841 135.973 206.223 136.223 206.716C136.477 207.208 136.602 207.782 136.598 208.438V214H133.82V208.983C133.823 208.498 133.7 208.119 133.45 207.847C133.204 207.574 132.861 207.438 132.422 207.438C131.982 207.438 131.628 207.578 131.359 207.858C131.094 208.138 130.96 208.527 130.956 209.023Z" fill="white"/>
<rect x="146" y="196" width="42" height="24" fill="#13C9F1"/>
<path d="M150.881 214V202.364H153.693V211.716H158.534V214H150.881ZM159.99 214V205.273H162.768V214H159.99ZM161.382 204.256C160.992 204.256 160.657 204.127 160.376 203.869C160.096 203.608 159.956 203.294 159.956 202.926C159.956 202.559 160.096 202.246 160.376 201.989C160.657 201.731 160.992 201.602 161.382 201.602C161.776 201.602 162.111 201.731 162.388 201.989C162.668 202.246 162.808 202.559 162.808 202.926C162.808 203.294 162.668 203.608 162.388 203.869C162.111 204.127 161.776 204.256 161.382 204.256ZM167.315 209.023V214H164.537V205.273H167.179V206.875H167.276C167.469 206.345 167.798 205.926 168.264 205.619C168.73 205.312 169.285 205.159 169.929 205.159C170.543 205.159 171.075 205.295 171.526 205.568C171.98 205.841 172.332 206.223 172.582 206.716C172.836 207.208 172.961 207.782 172.957 208.438V214H170.179V208.983C170.183 208.498 170.06 208.119 169.81 207.847C169.563 207.574 169.221 207.438 168.781 207.438C168.342 207.438 167.988 207.578 167.719 207.858C167.454 208.138 167.319 208.527 167.315 209.023ZM174.678 214V202.364H177.456V208.398H177.581L180.036 205.273H183.183L180.087 209.074L183.308 214H180.098L178.018 210.699L177.456 211.381V214H174.678Z" fill="white"/>
<rect x="238" y="196" width="88" height="24" fill="#E5F529"/>
<path d="M253.443 206.58H250.602C250.53 205.996 250.295 205.532 249.898 205.188C249.504 204.843 248.987 204.67 248.347 204.67C247.498 204.67 246.831 204.979 246.347 205.597C245.866 206.21 245.625 207.072 245.625 208.182C245.625 209.337 245.867 210.212 246.352 210.807C246.841 211.398 247.5 211.693 248.33 211.693C248.947 211.693 249.455 211.536 249.852 211.222C250.254 210.907 250.504 210.47 250.602 209.909L253.443 209.926C253.39 210.441 253.241 210.951 252.994 211.455C252.748 211.955 252.407 212.409 251.972 212.818C251.54 213.223 251.015 213.549 250.398 213.795C249.78 214.038 249.072 214.159 248.273 214.159C247.22 214.159 246.277 213.928 245.443 213.466C244.614 213 243.958 212.322 243.477 211.432C242.996 210.542 242.756 209.458 242.756 208.182C242.756 206.898 243 205.812 243.489 204.926C243.977 204.036 244.638 203.36 245.472 202.898C246.305 202.436 247.239 202.205 248.273 202.205C249.212 202.205 250.053 202.377 250.795 202.722C251.538 203.062 252.14 203.559 252.602 204.21C253.068 204.862 253.348 205.652 253.443 206.58ZM257.831 209.023V214H255.053V202.364H257.74V206.875H257.837C258.034 206.337 258.356 205.917 258.803 205.614C259.253 205.311 259.804 205.159 260.456 205.159C261.373 205.159 262.107 205.458 262.661 206.057C263.217 206.655 263.494 207.449 263.49 208.438V214H260.712V208.983C260.715 208.498 260.594 208.119 260.348 207.847C260.102 207.574 259.755 207.438 259.308 207.438C258.869 207.438 258.513 207.578 258.24 207.858C257.971 208.138 257.835 208.527 257.831 209.023ZM269.304 214.165C267.933 214.165 266.853 213.765 266.065 212.966C265.281 212.167 264.889 211.068 264.889 209.67C264.889 208.769 265.067 207.981 265.423 207.307C265.779 206.629 266.281 206.102 266.929 205.727C267.577 205.348 268.34 205.159 269.219 205.159C270.045 205.159 270.776 205.331 271.412 205.676C272.048 206.017 272.546 206.519 272.906 207.182C273.266 207.845 273.446 208.655 273.446 209.614V210.307H267.628V210.381C267.628 210.915 267.781 211.345 268.088 211.67C268.399 211.996 268.821 212.159 269.355 212.159C269.719 212.159 270.035 212.083 270.304 211.932C270.573 211.777 270.76 211.555 270.866 211.267L273.418 211.341C273.259 212.197 272.819 212.883 272.099 213.398C271.38 213.909 270.448 214.165 269.304 214.165ZM267.628 208.693H270.861C270.857 208.246 270.705 207.881 270.406 207.597C270.111 207.309 269.734 207.165 269.276 207.165C268.813 207.165 268.427 207.311 268.116 207.602C267.81 207.894 267.647 208.258 267.628 208.693ZM278.939 214.165C278.018 214.165 277.229 213.975 276.57 213.597C275.914 213.214 275.411 212.686 275.058 212.011C274.706 211.333 274.53 210.551 274.53 209.665C274.53 208.771 274.706 207.987 275.058 207.312C275.411 206.634 275.916 206.106 276.575 205.727C277.234 205.348 278.02 205.159 278.933 205.159C279.744 205.159 280.448 205.305 281.047 205.597C281.645 205.888 282.113 206.301 282.45 206.835C282.791 207.366 282.971 207.989 282.99 208.705H280.393C280.34 208.258 280.189 207.907 279.939 207.653C279.693 207.4 279.371 207.273 278.973 207.273C278.488 207.273 278.098 207.475 277.803 207.881C277.507 208.282 277.359 208.867 277.359 209.636C277.359 210.413 277.505 211.004 277.797 211.409C278.092 211.811 278.484 212.011 278.973 212.011C279.356 212.011 279.676 211.888 279.933 211.642C280.191 211.396 280.344 211.042 280.393 210.58H282.99C282.967 211.299 282.789 211.928 282.456 212.466C282.123 213.004 281.657 213.422 281.058 213.722C280.464 214.017 279.757 214.165 278.939 214.165ZM284.412 214V202.364H287.19V208.398H287.315L289.77 205.273H292.918L289.821 209.074L293.043 214H289.832L287.753 210.699L287.19 211.381V214H284.412ZM293.912 214V202.364H296.69V206.767H296.747C296.914 206.366 297.194 205.998 297.588 205.665C297.986 205.328 298.529 205.159 299.219 205.159C299.829 205.159 300.397 205.32 300.923 205.642C301.45 205.96 301.876 206.451 302.202 207.114C302.527 207.773 302.69 208.616 302.69 209.642C302.69 210.634 302.533 211.462 302.219 212.125C301.908 212.788 301.488 213.288 300.957 213.625C300.431 213.958 299.846 214.125 299.202 214.125C298.543 214.125 298.012 213.97 297.611 213.659C297.213 213.345 296.925 212.987 296.747 212.585H296.662V214H293.912ZM296.634 209.636C296.634 210.345 296.774 210.909 297.054 211.33C297.338 211.75 297.734 211.96 298.241 211.96C298.757 211.96 299.151 211.75 299.423 211.33C299.7 210.905 299.838 210.341 299.838 209.636C299.838 208.936 299.7 208.377 299.423 207.96C299.151 207.54 298.757 207.33 298.241 207.33C297.734 207.33 297.338 207.536 297.054 207.949C296.774 208.362 296.634 208.924 296.634 209.636ZM308.22 214.165C307.307 214.165 306.521 213.977 305.862 213.602C305.203 213.223 304.696 212.697 304.339 212.023C303.987 211.345 303.811 210.559 303.811 209.665C303.811 208.767 303.987 207.981 304.339 207.307C304.696 206.629 305.203 206.102 305.862 205.727C306.521 205.348 307.307 205.159 308.22 205.159C309.137 205.159 309.923 205.348 310.578 205.727C311.237 206.102 311.743 206.629 312.095 207.307C312.451 207.981 312.629 208.767 312.629 209.665C312.629 210.559 312.451 211.345 312.095 212.023C311.743 212.697 311.237 213.223 310.578 213.602C309.923 213.977 309.137 214.165 308.22 214.165ZM308.237 212.068C308.733 212.068 309.118 211.845 309.391 211.398C309.663 210.951 309.8 210.367 309.8 209.648C309.8 208.924 309.663 208.339 309.391 207.892C309.118 207.441 308.733 207.216 308.237 207.216C307.722 207.216 307.326 207.441 307.05 207.892C306.777 208.339 306.641 208.924 306.641 209.648C306.641 210.367 306.777 210.951 307.05 211.398C307.326 211.845 307.722 212.068 308.237 212.068ZM316.104 205.273L317.541 208.148L319.03 205.273H321.831L319.393 209.636L321.922 214H319.143L317.541 211.102L315.979 214H313.161L315.695 209.636L313.286 205.273H316.104Z" fill="black"/>
<rect x="192" y="196" width="42" height="24" fill="#13C9F1"/>
<path d="M196.881 214V202.364H199.693V211.716H204.534V214H196.881ZM205.99 214V205.273H208.768V214H205.99ZM207.382 204.256C206.992 204.256 206.657 204.127 206.376 203.869C206.096 203.608 205.956 203.294 205.956 202.926C205.956 202.559 206.096 202.246 206.376 201.989C206.657 201.731 206.992 201.602 207.382 201.602C207.776 201.602 208.111 201.731 208.388 201.989C208.668 202.246 208.808 202.559 208.808 202.926C208.808 203.294 208.668 203.608 208.388 203.869C208.111 204.127 207.776 204.256 207.382 204.256ZM213.315 209.023V214H210.537V205.273H213.179V206.875H213.276C213.469 206.345 213.798 205.926 214.264 205.619C214.73 205.312 215.285 205.159 215.929 205.159C216.543 205.159 217.075 205.295 217.526 205.568C217.98 205.841 218.332 206.223 218.582 206.716C218.836 207.208 218.961 207.782 218.957 208.438V214H216.179V208.983C216.183 208.498 216.06 208.119 215.81 207.847C215.563 207.574 215.221 207.438 214.781 207.438C214.342 207.438 213.988 207.578 213.719 207.858C213.454 208.138 213.319 208.527 213.315 209.023ZM220.678 214V202.364H223.456V208.398H223.581L226.036 205.273H229.183L226.087 209.074L229.308 214H226.098L224.018 210.699L223.456 211.381V214H220.678Z" fill="white"/>
<rect x="46" y="57" width="24" height="24" fill="#58BF3E"/>
<rect x="78" y="57" width="24" height="24" fill="#E5F529"/>
<rect x="110" y="57" width="24" height="24" fill="#13C9F1"/>
<path d="M25.5 79.5V187M25.5 197V187M25.5 187H98.5V197" stroke="#FF0000" stroke-width="3"/>
<path d="M122 79.5V187H155.5M155.5 187V196.5M155.5 187H203V196.5" stroke="#13C9F1" stroke-width="3"/>
<path d="M90 80V178.5H248V197" stroke="#E5F529" stroke-width="3"/>
</svg>
