<svg width="336" height="96" viewBox="0 0 336 96" fill="none" xmlns="http://www.w3.org/2000/svg">
<rect x="1.5" y="1.5" width="157" height="93" stroke="black" stroke-width="3"/>
<path d="M21.1705 45.8523C21.1326 45.4356 20.964 45.1117 20.6648 44.8807C20.3693 44.6458 19.947 44.5284 19.3977 44.5284C18.8523 44.5284 18.4432 44.6326 18.1705 44.8409C17.8977 45.0455 17.7595 45.3068 17.7557 45.625C17.7443 45.9697 17.8939 46.2405 18.2045 46.4375C18.5152 46.6307 18.9337 46.7841 19.4602 46.8977L20.4602 47.125C21.608 47.3788 22.4867 47.7936 23.0966 48.3693C23.7102 48.9451 24.0189 49.697 24.0227 50.625C24.0189 51.7311 23.6098 52.5947 22.7955 53.2159C21.9811 53.8371 20.8485 54.1477 19.3977 54.1477C17.9356 54.1477 16.7652 53.8182 15.8864 53.1591C15.0114 52.4962 14.5644 51.4848 14.5455 50.125H17.2386C17.2689 50.6856 17.4754 51.1098 17.858 51.3977C18.2405 51.6818 18.7424 51.8239 19.3636 51.8239C19.928 51.8239 20.3693 51.7121 20.6875 51.4886C21.0057 51.2652 21.1667 50.9754 21.1705 50.6193C21.1667 50.2936 21.0152 50.0341 20.7159 49.8409C20.4167 49.6439 19.947 49.4716 19.3068 49.3239L18.0909 49.0398C17.0871 48.8087 16.2936 48.4356 15.7102 47.9205C15.1307 47.4015 14.8428 46.7008 14.8466 45.8182C14.8428 45.0947 15.036 44.4621 15.4261 43.9205C15.8163 43.3788 16.3542 42.9583 17.0398 42.6591C17.7292 42.3561 18.517 42.2045 19.4034 42.2045C20.3049 42.2045 21.0871 42.358 21.75 42.6648C22.4167 42.9678 22.9337 43.3939 23.3011 43.9432C23.6686 44.4886 23.8561 45.125 23.8636 45.8523H21.1705ZM29.5227 54.1648C28.1515 54.1648 27.072 53.7652 26.2841 52.9659C25.5 52.1667 25.108 51.0682 25.108 49.6705C25.108 48.7689 25.286 47.9811 25.642 47.3068C25.9981 46.6288 26.5 46.1023 27.1477 45.7273C27.7955 45.3485 28.5587 45.1591 29.4375 45.1591C30.2633 45.1591 30.9943 45.3314 31.6307 45.6761C32.267 46.017 32.7652 46.5189 33.125 47.1818C33.4848 47.8447 33.6648 48.6553 33.6648 49.6136V50.3068H27.8466V50.3807C27.8466 50.9148 28 51.3447 28.3068 51.6705C28.6174 51.9962 29.0398 52.1591 29.5739 52.1591C29.9375 52.1591 30.2538 52.0833 30.5227 51.9318C30.7917 51.7765 30.9792 51.5549 31.0852 51.267L33.6364 51.3409C33.4773 52.197 33.0379 52.8826 32.3182 53.3977C31.5985 53.9091 30.6667 54.1648 29.5227 54.1648ZM27.8466 48.6932H31.0795C31.0758 48.2462 30.9242 47.8807 30.625 47.5966C30.3295 47.3087 29.9527 47.1648 29.4943 47.1648C29.0322 47.1648 28.6458 47.3106 28.3352 47.6023C28.0284 47.8939 27.8655 48.2576 27.8466 48.6932ZM35.0838 54V45.2727H37.7827V46.8636H37.8736C38.0327 46.2879 38.2921 45.8598 38.652 45.5795C39.0118 45.2955 39.4304 45.1534 39.9077 45.1534C40.1728 45.1534 40.4323 45.1875 40.6861 45.2557V47.6705C40.5535 47.625 40.3793 47.589 40.1634 47.5625C39.9512 47.536 39.7618 47.5227 39.5952 47.5227C39.099 47.5227 38.6861 47.6837 38.3565 48.0057C38.027 48.3239 37.8622 48.7424 37.8622 49.2614V54H35.0838ZM50.5497 45.2727L47.5554 54H44.3736L41.3849 45.2727H44.3111L45.919 51.2841H46.0099L47.6236 45.2727H50.5497ZM51.8026 54V45.2727H54.581V54H51.8026ZM53.1946 44.2557C52.8045 44.2557 52.4692 44.1269 52.1889 43.8693C51.9086 43.608 51.7685 43.2936 51.7685 42.9261C51.7685 42.5587 51.9086 42.2462 52.1889 41.9886C52.4692 41.7311 52.8045 41.6023 53.1946 41.6023C53.5885 41.6023 53.9238 41.7311 54.2003 41.9886C54.4806 42.2462 54.6207 42.5587 54.6207 42.9261C54.6207 43.2936 54.4806 43.608 54.2003 43.8693C53.9238 44.1269 53.5885 44.2557 53.1946 44.2557ZM60.4233 54.1648C59.5028 54.1648 58.7131 53.9754 58.054 53.5966C57.3987 53.214 56.8949 52.6856 56.5426 52.0114C56.1903 51.3333 56.0142 50.5511 56.0142 49.6648C56.0142 48.7708 56.1903 47.9867 56.5426 47.3125C56.8949 46.6345 57.4006 46.1061 58.0597 45.7273C58.7188 45.3485 59.5047 45.1591 60.4176 45.1591C61.2282 45.1591 61.9328 45.3049 62.5312 45.5966C63.1297 45.8883 63.5975 46.3011 63.9347 46.8352C64.2756 47.3655 64.4555 47.9886 64.4744 48.7045H61.8778C61.8248 48.2576 61.6733 47.9072 61.4233 47.6534C61.1771 47.3996 60.8551 47.2727 60.4574 47.2727C59.9725 47.2727 59.5824 47.4754 59.2869 47.8807C58.9915 48.2822 58.8438 48.8674 58.8438 49.6364C58.8438 50.4129 58.9896 51.0038 59.2812 51.4091C59.5767 51.8106 59.9688 52.0114 60.4574 52.0114C60.84 52.0114 61.16 51.8883 61.4176 51.642C61.6752 51.3958 61.8286 51.0417 61.8778 50.5795H64.4744C64.4517 51.2992 64.2737 51.928 63.9403 52.4659C63.607 53.0038 63.1411 53.4223 62.5426 53.7216C61.9479 54.017 61.2415 54.1648 60.4233 54.1648ZM69.9759 54.1648C68.6046 54.1648 67.5251 53.7652 66.7372 52.9659C65.9531 52.1667 65.5611 51.0682 65.5611 49.6705C65.5611 48.7689 65.7391 47.9811 66.0952 47.3068C66.4512 46.6288 66.9531 46.1023 67.6009 45.7273C68.2486 45.3485 69.0118 45.1591 69.8906 45.1591C70.7164 45.1591 71.4474 45.3314 72.0838 45.6761C72.7202 46.017 73.2183 46.5189 73.5781 47.1818C73.938 47.8447 74.1179 48.6553 74.1179 49.6136V50.3068H68.2997V50.3807C68.2997 50.9148 68.4531 51.3447 68.7599 51.6705C69.0705 51.9962 69.4929 52.1591 70.027 52.1591C70.3906 52.1591 70.7069 52.0833 70.9759 51.9318C71.2448 51.7765 71.4323 51.5549 71.5384 51.267L74.0895 51.3409C73.9304 52.197 73.491 52.8826 72.7713 53.3977C72.0516 53.9091 71.1198 54.1648 69.9759 54.1648ZM68.2997 48.6932H71.5327C71.5289 48.2462 71.3774 47.8807 71.0781 47.5966C70.7827 47.3087 70.4058 47.1648 69.9474 47.1648C69.4853 47.1648 69.099 47.3106 68.7884 47.6023C68.4815 47.8939 68.3187 48.2576 68.2997 48.6932ZM81.4915 54H78.4688L82.3949 42.3636H86.1392L90.0653 54H87.0426L86.2756 51.5568H82.2585L81.4915 54ZM82.929 49.4205H85.6051L84.3097 45.2955H84.2188L82.929 49.4205Z" fill="black"/>
<rect width="160" height="96" transform="translate(176)" fill="white"/>
<rect x="177.5" y="1.5" width="157" height="93" stroke="black" stroke-width="3"/>
<path d="M197.17 45.8523C197.133 45.4356 196.964 45.1117 196.665 44.8807C196.369 44.6458 195.947 44.5284 195.398 44.5284C194.852 44.5284 194.443 44.6326 194.17 44.8409C193.898 45.0455 193.759 45.3068 193.756 45.625C193.744 45.9697 193.894 46.2405 194.205 46.4375C194.515 46.6307 194.934 46.7841 195.46 46.8977L196.46 47.125C197.608 47.3788 198.487 47.7936 199.097 48.3693C199.71 48.9451 200.019 49.697 200.023 50.625C200.019 51.7311 199.61 52.5947 198.795 53.2159C197.981 53.8371 196.848 54.1477 195.398 54.1477C193.936 54.1477 192.765 53.8182 191.886 53.1591C191.011 52.4962 190.564 51.4848 190.545 50.125H193.239C193.269 50.6856 193.475 51.1098 193.858 51.3977C194.241 51.6818 194.742 51.8239 195.364 51.8239C195.928 51.8239 196.369 51.7121 196.688 51.4886C197.006 51.2652 197.167 50.9754 197.17 50.6193C197.167 50.2936 197.015 50.0341 196.716 49.8409C196.417 49.6439 195.947 49.4716 195.307 49.3239L194.091 49.0398C193.087 48.8087 192.294 48.4356 191.71 47.9205C191.131 47.4015 190.843 46.7008 190.847 45.8182C190.843 45.0947 191.036 44.4621 191.426 43.9205C191.816 43.3788 192.354 42.9583 193.04 42.6591C193.729 42.3561 194.517 42.2045 195.403 42.2045C196.305 42.2045 197.087 42.358 197.75 42.6648C198.417 42.9678 198.934 43.3939 199.301 43.9432C199.669 44.4886 199.856 45.125 199.864 45.8523H197.17ZM205.523 54.1648C204.152 54.1648 203.072 53.7652 202.284 52.9659C201.5 52.1667 201.108 51.0682 201.108 49.6705C201.108 48.7689 201.286 47.9811 201.642 47.3068C201.998 46.6288 202.5 46.1023 203.148 45.7273C203.795 45.3485 204.559 45.1591 205.438 45.1591C206.263 45.1591 206.994 45.3314 207.631 45.6761C208.267 46.017 208.765 46.5189 209.125 47.1818C209.485 47.8447 209.665 48.6553 209.665 49.6136V50.3068H203.847V50.3807C203.847 50.9148 204 51.3447 204.307 51.6705C204.617 51.9962 205.04 52.1591 205.574 52.1591C205.938 52.1591 206.254 52.0833 206.523 51.9318C206.792 51.7765 206.979 51.5549 207.085 51.267L209.636 51.3409C209.477 52.197 209.038 52.8826 208.318 53.3977C207.598 53.9091 206.667 54.1648 205.523 54.1648ZM203.847 48.6932H207.08C207.076 48.2462 206.924 47.8807 206.625 47.5966C206.33 47.3087 205.953 47.1648 205.494 47.1648C205.032 47.1648 204.646 47.3106 204.335 47.6023C204.028 47.8939 203.866 48.2576 203.847 48.6932ZM211.084 54V45.2727H213.783V46.8636H213.874C214.033 46.2879 214.292 45.8598 214.652 45.5795C215.012 45.2955 215.43 45.1534 215.908 45.1534C216.173 45.1534 216.432 45.1875 216.686 45.2557V47.6705C216.554 47.625 216.379 47.589 216.163 47.5625C215.951 47.536 215.762 47.5227 215.595 47.5227C215.099 47.5227 214.686 47.6837 214.357 48.0057C214.027 48.3239 213.862 48.7424 213.862 49.2614V54H211.084ZM226.55 45.2727L223.555 54H220.374L217.385 45.2727H220.311L221.919 51.2841H222.01L223.624 45.2727H226.55ZM227.803 54V45.2727H230.581V54H227.803ZM229.195 44.2557C228.804 44.2557 228.469 44.1269 228.189 43.8693C227.909 43.608 227.768 43.2936 227.768 42.9261C227.768 42.5587 227.909 42.2462 228.189 41.9886C228.469 41.7311 228.804 41.6023 229.195 41.6023C229.589 41.6023 229.924 41.7311 230.2 41.9886C230.481 42.2462 230.621 42.5587 230.621 42.9261C230.621 43.2936 230.481 43.608 230.2 43.8693C229.924 44.1269 229.589 44.2557 229.195 44.2557ZM236.423 54.1648C235.503 54.1648 234.713 53.9754 234.054 53.5966C233.399 53.214 232.895 52.6856 232.543 52.0114C232.19 51.3333 232.014 50.5511 232.014 49.6648C232.014 48.7708 232.19 47.9867 232.543 47.3125C232.895 46.6345 233.401 46.1061 234.06 45.7273C234.719 45.3485 235.505 45.1591 236.418 45.1591C237.228 45.1591 237.933 45.3049 238.531 45.5966C239.13 45.8883 239.598 46.3011 239.935 46.8352C240.276 47.3655 240.455 47.9886 240.474 48.7045H237.878C237.825 48.2576 237.673 47.9072 237.423 47.6534C237.177 47.3996 236.855 47.2727 236.457 47.2727C235.973 47.2727 235.582 47.4754 235.287 47.8807C234.991 48.2822 234.844 48.8674 234.844 49.6364C234.844 50.4129 234.99 51.0038 235.281 51.4091C235.577 51.8106 235.969 52.0114 236.457 52.0114C236.84 52.0114 237.16 51.8883 237.418 51.642C237.675 51.3958 237.829 51.0417 237.878 50.5795H240.474C240.452 51.2992 240.274 51.928 239.94 52.4659C239.607 53.0038 239.141 53.4223 238.543 53.7216C237.948 54.017 237.241 54.1648 236.423 54.1648ZM245.976 54.1648C244.605 54.1648 243.525 53.7652 242.737 52.9659C241.953 52.1667 241.561 51.0682 241.561 49.6705C241.561 48.7689 241.739 47.9811 242.095 47.3068C242.451 46.6288 242.953 46.1023 243.601 45.7273C244.249 45.3485 245.012 45.1591 245.891 45.1591C246.716 45.1591 247.447 45.3314 248.084 45.6761C248.72 46.017 249.218 46.5189 249.578 47.1818C249.938 47.8447 250.118 48.6553 250.118 49.6136V50.3068H244.3V50.3807C244.3 50.9148 244.453 51.3447 244.76 51.6705C245.071 51.9962 245.493 52.1591 246.027 52.1591C246.391 52.1591 246.707 52.0833 246.976 51.9318C247.245 51.7765 247.432 51.5549 247.538 51.267L250.089 51.3409C249.93 52.197 249.491 52.8826 248.771 53.3977C248.052 53.9091 247.12 54.1648 245.976 54.1648ZM244.3 48.6932H247.533C247.529 48.2462 247.377 47.8807 247.078 47.5966C246.783 47.3087 246.406 47.1648 245.947 47.1648C245.485 47.1648 245.099 47.3106 244.788 47.6023C244.482 47.8939 244.319 48.2576 244.3 48.6932ZM254.974 54V42.3636H259.827C261.134 42.3636 262.12 42.6345 262.787 43.1761C263.457 43.7178 263.793 44.428 263.793 45.3068C263.793 45.9697 263.59 46.5227 263.185 46.9659C262.779 47.4091 262.257 47.697 261.616 47.8295V47.9432C262.086 47.9621 262.52 48.089 262.918 48.3239C263.319 48.5549 263.641 48.8769 263.884 49.2898C264.126 49.6989 264.247 50.1837 264.247 50.7443C264.247 51.3693 264.088 51.928 263.77 52.4205C263.452 52.9091 262.991 53.2955 262.389 53.5795C261.787 53.8598 261.056 54 260.196 54H254.974ZM257.787 51.733H259.526C260.135 51.733 260.584 51.6174 260.872 51.3864C261.164 51.1553 261.31 50.8333 261.31 50.4205C261.31 49.9735 261.154 49.6193 260.844 49.358C260.537 49.0928 260.115 48.9602 259.577 48.9602H257.787V51.733ZM257.787 47.1477H259.344C259.806 47.1477 260.185 47.0341 260.48 46.8068C260.776 46.5795 260.923 46.2614 260.923 45.8523C260.923 45.4659 260.785 45.161 260.509 44.9375C260.232 44.7102 259.859 44.5966 259.389 44.5966H257.787V47.1477Z" fill="black"/>
<circle cx="319" cy="79" r="8" fill="#EB5757"/>
</svg>
