<svg width="352" height="352" viewBox="0 0 352 352" fill="none" xmlns="http://www.w3.org/2000/svg">
<rect width="352" height="352" fill="white"/>
<rect x="193.5" y="129.5" width="157" height="93" stroke="black" stroke-width="3"/>
<path d="M213.17 162.852C213.133 162.436 212.964 162.112 212.665 161.881C212.369 161.646 211.947 161.528 211.398 161.528C210.852 161.528 210.443 161.633 210.17 161.841C209.898 162.045 209.759 162.307 209.756 162.625C209.744 162.97 209.894 163.241 210.205 163.438C210.515 163.631 210.934 163.784 211.46 163.898L212.46 164.125C213.608 164.379 214.487 164.794 215.097 165.369C215.71 165.945 216.019 166.697 216.023 167.625C216.019 168.731 215.61 169.595 214.795 170.216C213.981 170.837 212.848 171.148 211.398 171.148C209.936 171.148 208.765 170.818 207.886 170.159C207.011 169.496 206.564 168.485 206.545 167.125H209.239C209.269 167.686 209.475 168.11 209.858 168.398C210.241 168.682 210.742 168.824 211.364 168.824C211.928 168.824 212.369 168.712 212.688 168.489C213.006 168.265 213.167 167.975 213.17 167.619C213.167 167.294 213.015 167.034 212.716 166.841C212.417 166.644 211.947 166.472 211.307 166.324L210.091 166.04C209.087 165.809 208.294 165.436 207.71 164.92C207.131 164.402 206.843 163.701 206.847 162.818C206.843 162.095 207.036 161.462 207.426 160.92C207.816 160.379 208.354 159.958 209.04 159.659C209.729 159.356 210.517 159.205 211.403 159.205C212.305 159.205 213.087 159.358 213.75 159.665C214.417 159.968 214.934 160.394 215.301 160.943C215.669 161.489 215.856 162.125 215.864 162.852H213.17ZM221.523 171.165C220.152 171.165 219.072 170.765 218.284 169.966C217.5 169.167 217.108 168.068 217.108 166.67C217.108 165.769 217.286 164.981 217.642 164.307C217.998 163.629 218.5 163.102 219.148 162.727C219.795 162.348 220.559 162.159 221.438 162.159C222.263 162.159 222.994 162.331 223.631 162.676C224.267 163.017 224.765 163.519 225.125 164.182C225.485 164.845 225.665 165.655 225.665 166.614V167.307H219.847V167.381C219.847 167.915 220 168.345 220.307 168.67C220.617 168.996 221.04 169.159 221.574 169.159C221.938 169.159 222.254 169.083 222.523 168.932C222.792 168.777 222.979 168.555 223.085 168.267L225.636 168.341C225.477 169.197 225.038 169.883 224.318 170.398C223.598 170.909 222.667 171.165 221.523 171.165ZM219.847 165.693H223.08C223.076 165.246 222.924 164.881 222.625 164.597C222.33 164.309 221.953 164.165 221.494 164.165C221.032 164.165 220.646 164.311 220.335 164.602C220.028 164.894 219.866 165.258 219.847 165.693ZM227.084 171V162.273H229.783V163.864H229.874C230.033 163.288 230.292 162.86 230.652 162.58C231.012 162.295 231.43 162.153 231.908 162.153C232.173 162.153 232.432 162.188 232.686 162.256V164.67C232.554 164.625 232.379 164.589 232.163 164.562C231.951 164.536 231.762 164.523 231.595 164.523C231.099 164.523 230.686 164.684 230.357 165.006C230.027 165.324 229.862 165.742 229.862 166.261V171H227.084ZM242.55 162.273L239.555 171H236.374L233.385 162.273H236.311L237.919 168.284H238.01L239.624 162.273H242.55ZM243.803 171V162.273H246.581V171H243.803ZM245.195 161.256C244.804 161.256 244.469 161.127 244.189 160.869C243.909 160.608 243.768 160.294 243.768 159.926C243.768 159.559 243.909 159.246 244.189 158.989C244.469 158.731 244.804 158.602 245.195 158.602C245.589 158.602 245.924 158.731 246.2 158.989C246.481 159.246 246.621 159.559 246.621 159.926C246.621 160.294 246.481 160.608 246.2 160.869C245.924 161.127 245.589 161.256 245.195 161.256ZM252.423 171.165C251.503 171.165 250.713 170.975 250.054 170.597C249.399 170.214 248.895 169.686 248.543 169.011C248.19 168.333 248.014 167.551 248.014 166.665C248.014 165.771 248.19 164.987 248.543 164.312C248.895 163.634 249.401 163.106 250.06 162.727C250.719 162.348 251.505 162.159 252.418 162.159C253.228 162.159 253.933 162.305 254.531 162.597C255.13 162.888 255.598 163.301 255.935 163.835C256.276 164.366 256.455 164.989 256.474 165.705H253.878C253.825 165.258 253.673 164.907 253.423 164.653C253.177 164.4 252.855 164.273 252.457 164.273C251.973 164.273 251.582 164.475 251.287 164.881C250.991 165.282 250.844 165.867 250.844 166.636C250.844 167.413 250.99 168.004 251.281 168.409C251.577 168.811 251.969 169.011 252.457 169.011C252.84 169.011 253.16 168.888 253.418 168.642C253.675 168.396 253.829 168.042 253.878 167.58H256.474C256.452 168.299 256.274 168.928 255.94 169.466C255.607 170.004 255.141 170.422 254.543 170.722C253.948 171.017 253.241 171.165 252.423 171.165ZM261.976 171.165C260.605 171.165 259.525 170.765 258.737 169.966C257.953 169.167 257.561 168.068 257.561 166.67C257.561 165.769 257.739 164.981 258.095 164.307C258.451 163.629 258.953 163.102 259.601 162.727C260.249 162.348 261.012 162.159 261.891 162.159C262.716 162.159 263.447 162.331 264.084 162.676C264.72 163.017 265.218 163.519 265.578 164.182C265.938 164.845 266.118 165.655 266.118 166.614V167.307H260.3V167.381C260.3 167.915 260.453 168.345 260.76 168.67C261.071 168.996 261.493 169.159 262.027 169.159C262.391 169.159 262.707 169.083 262.976 168.932C263.245 168.777 263.432 168.555 263.538 168.267L266.089 168.341C265.93 169.197 265.491 169.883 264.771 170.398C264.052 170.909 263.12 171.165 261.976 171.165ZM260.3 165.693H263.533C263.529 165.246 263.377 164.881 263.078 164.597C262.783 164.309 262.406 164.165 261.947 164.165C261.485 164.165 261.099 164.311 260.788 164.602C260.482 164.894 260.319 165.258 260.3 165.693Z" fill="#BDBDBD"/>
<path d="M214.5 186.938L211.949 187.006C211.911 186.729 211.773 186.504 211.534 186.33C211.295 186.152 210.992 186.062 210.625 186.062C210.303 186.062 210.028 186.127 209.801 186.256C209.578 186.381 209.468 186.555 209.472 186.778C209.468 186.945 209.536 187.093 209.676 187.222C209.82 187.347 210.076 187.447 210.443 187.523L212.125 187.841C213.841 188.17 214.705 188.958 214.716 190.205C214.712 190.803 214.534 191.324 214.182 191.767C213.833 192.21 213.356 192.555 212.75 192.801C212.144 193.044 211.451 193.165 210.67 193.165C209.424 193.165 208.441 192.909 207.722 192.398C207.002 191.883 206.593 191.193 206.494 190.33L209.239 190.261C209.299 190.58 209.456 190.822 209.71 190.989C209.964 191.155 210.288 191.239 210.682 191.239C211.038 191.239 211.328 191.172 211.551 191.04C211.775 190.907 211.888 190.731 211.892 190.511C211.881 190.144 211.527 189.892 210.83 189.756L209.307 189.466C207.568 189.144 206.705 188.301 206.716 186.938C206.712 186.062 207.059 185.381 207.756 184.892C208.453 184.403 209.392 184.159 210.574 184.159C211.756 184.159 212.688 184.407 213.369 184.903C214.051 185.396 214.428 186.074 214.5 186.938ZM219.271 193.125C218.631 193.125 218.046 192.958 217.516 192.625C216.989 192.288 216.569 191.788 216.254 191.125C215.94 190.462 215.783 189.634 215.783 188.642C215.783 187.616 215.946 186.773 216.271 186.114C216.597 185.451 217.025 184.96 217.555 184.642C218.086 184.32 218.654 184.159 219.26 184.159C219.949 184.159 220.491 184.328 220.885 184.665C221.283 184.998 221.563 185.366 221.726 185.767H221.783V181.364H224.561V193H221.811V191.585H221.726C221.552 191.987 221.264 192.345 220.862 192.659C220.461 192.97 219.93 193.125 219.271 193.125ZM220.237 190.96C220.745 190.96 221.139 190.75 221.419 190.33C221.703 189.909 221.845 189.345 221.845 188.636C221.845 187.924 221.703 187.362 221.419 186.949C221.139 186.536 220.745 186.33 220.237 186.33C219.722 186.33 219.326 186.54 219.05 186.96C218.773 187.377 218.635 187.936 218.635 188.636C218.635 189.341 218.773 189.905 219.05 190.33C219.326 190.75 219.722 190.96 220.237 190.96Z" fill="black"/>
<rect x="1.5" y="1.5" width="157" height="93" stroke="black" stroke-width="3"/>
<path d="M21.9375 42.3636H24.7273V50.0511C24.7273 50.9337 24.5208 51.6799 24.108 52.2898C23.6951 52.8996 23.1193 53.3617 22.3807 53.6761C21.642 53.9905 20.7841 54.1477 19.8068 54.1477C18.8258 54.1477 17.964 53.9905 17.2216 53.6761C16.483 53.3617 15.9072 52.8996 15.4943 52.2898C15.0852 51.6799 14.8807 50.9337 14.8807 50.0511V42.3636H17.6932V49.9432C17.6932 50.4697 17.8883 50.8902 18.2784 51.2045C18.6686 51.5152 19.178 51.6705 19.8068 51.6705C20.4432 51.6705 20.9564 51.5152 21.3466 51.2045C21.7405 50.8902 21.9375 50.4697 21.9375 49.9432V42.3636ZM34.1094 47.9375L31.5582 48.0057C31.5204 47.7292 31.3821 47.5038 31.1435 47.3295C30.9048 47.1515 30.6018 47.0625 30.2344 47.0625C29.9124 47.0625 29.6378 47.1269 29.4105 47.2557C29.187 47.3807 29.0772 47.5549 29.081 47.7784C29.0772 47.9451 29.1454 48.0928 29.2855 48.2216C29.4295 48.3466 29.6851 48.447 30.0526 48.5227L31.7344 48.8409C33.4503 49.1705 34.3139 49.9583 34.3253 51.2045C34.3215 51.803 34.1435 52.3239 33.7912 52.767C33.4427 53.2102 32.9654 53.5549 32.3594 53.8011C31.7533 54.0436 31.0601 54.1648 30.2798 54.1648C29.0336 54.1648 28.0507 53.9091 27.331 53.3977C26.6113 52.8826 26.2022 52.1932 26.1037 51.3295L28.848 51.2614C28.9086 51.5795 29.0658 51.822 29.3196 51.9886C29.5734 52.1553 29.8973 52.2386 30.2912 52.2386C30.6473 52.2386 30.937 52.1723 31.1605 52.0398C31.384 51.9072 31.4976 51.7311 31.5014 51.5114C31.4901 51.1439 31.1359 50.892 30.4389 50.7557L28.9162 50.4659C27.1776 50.1439 26.3139 49.3011 26.3253 47.9375C26.3215 47.0625 26.6681 46.3807 27.3651 45.892C28.062 45.4034 29.0014 45.1591 30.1832 45.1591C31.3651 45.1591 32.2969 45.4072 32.9787 45.9034C33.6605 46.3958 34.0374 47.0739 34.1094 47.9375ZM39.7727 54.1648C38.4015 54.1648 37.322 53.7652 36.5341 52.9659C35.75 52.1667 35.358 51.0682 35.358 49.6705C35.358 48.7689 35.536 47.9811 35.892 47.3068C36.2481 46.6288 36.75 46.1023 37.3977 45.7273C38.0455 45.3485 38.8087 45.1591 39.6875 45.1591C40.5133 45.1591 41.2443 45.3314 41.8807 45.6761C42.517 46.017 43.0152 46.5189 43.375 47.1818C43.7348 47.8447 43.9148 48.6553 43.9148 49.6136V50.3068H38.0966V50.3807C38.0966 50.9148 38.25 51.3447 38.5568 51.6705C38.8674 51.9962 39.2898 52.1591 39.8239 52.1591C40.1875 52.1591 40.5038 52.0833 40.7727 51.9318C41.0417 51.7765 41.2292 51.5549 41.3352 51.267L43.8864 51.3409C43.7273 52.197 43.2879 52.8826 42.5682 53.3977C41.8485 53.9091 40.9167 54.1648 39.7727 54.1648ZM38.0966 48.6932H41.3295C41.3258 48.2462 41.1742 47.8807 40.875 47.5966C40.5795 47.3087 40.2027 47.1648 39.7443 47.1648C39.2822 47.1648 38.8958 47.3106 38.5852 47.6023C38.2784 47.8939 38.1155 48.2576 38.0966 48.6932ZM45.3338 54V45.2727H48.0327V46.8636H48.1236C48.2827 46.2879 48.5421 45.8598 48.902 45.5795C49.2618 45.2955 49.6804 45.1534 50.1577 45.1534C50.3887 45.1534 50.6084 45.1818 50.8168 45.2386C51.0251 45.2955 51.2126 45.3731 51.3793 45.4716L50.5611 47.7557C50.4399 47.6989 50.3092 47.6496 50.169 47.608C50.0327 47.5625 49.8812 47.5398 49.7145 47.5398C49.2789 47.5398 48.9039 47.697 48.5895 48.0114C48.2751 48.3258 48.116 48.7424 48.1122 49.2614V54H45.3338Z" fill="black"/>
<rect x="1.5" y="129.5" width="157" height="93" stroke="black" stroke-width="3"/>
<path d="M24.7841 159.364V171H22.3977L17.767 164.284H17.6932V171H14.8807V159.364H17.3011L21.8807 166.068H21.9773V159.364H24.7841ZM30.6321 171.165C29.2609 171.165 28.1813 170.765 27.3935 169.966C26.6094 169.167 26.2173 168.068 26.2173 166.67C26.2173 165.769 26.3954 164.981 26.7514 164.307C27.1075 163.629 27.6094 163.102 28.2571 162.727C28.9048 162.348 29.6681 162.159 30.5469 162.159C31.3726 162.159 32.1037 162.331 32.7401 162.676C33.3764 163.017 33.8745 163.519 34.2344 164.182C34.5942 164.845 34.7741 165.655 34.7741 166.614V167.307H28.956V167.381C28.956 167.915 29.1094 168.345 29.4162 168.67C29.7268 168.996 30.1491 169.159 30.6832 169.159C31.0469 169.159 31.3632 169.083 31.6321 168.932C31.901 168.777 32.0885 168.555 32.1946 168.267L34.7457 168.341C34.5866 169.197 34.1473 169.883 33.4276 170.398C32.7079 170.909 31.776 171.165 30.6321 171.165ZM28.956 165.693H32.1889C32.1851 165.246 32.0336 164.881 31.7344 164.597C31.4389 164.309 31.062 164.165 30.6037 164.165C30.1416 164.165 29.7552 164.311 29.4446 164.602C29.1378 164.894 28.9749 165.258 28.956 165.693ZM40.2727 171.165C38.9015 171.165 37.822 170.765 37.0341 169.966C36.25 169.167 35.858 168.068 35.858 166.67C35.858 165.769 36.036 164.981 36.392 164.307C36.7481 163.629 37.25 163.102 37.8977 162.727C38.5455 162.348 39.3087 162.159 40.1875 162.159C41.0133 162.159 41.7443 162.331 42.3807 162.676C43.017 163.017 43.5152 163.519 43.875 164.182C44.2348 164.845 44.4148 165.655 44.4148 166.614V167.307H38.5966V167.381C38.5966 167.915 38.75 168.345 39.0568 168.67C39.3674 168.996 39.7898 169.159 40.3239 169.159C40.6875 169.159 41.0038 169.083 41.2727 168.932C41.5417 168.777 41.7292 168.555 41.8352 168.267L44.3864 168.341C44.2273 169.197 43.7879 169.883 43.0682 170.398C42.3485 170.909 41.4167 171.165 40.2727 171.165ZM38.5966 165.693H41.8295C41.8258 165.246 41.6742 164.881 41.375 164.597C41.0795 164.309 40.7027 164.165 40.2443 164.165C39.7822 164.165 39.3958 164.311 39.0852 164.602C38.7784 164.894 38.6155 165.258 38.5966 165.693ZM49.0213 171.125C48.3812 171.125 47.7959 170.958 47.2656 170.625C46.7391 170.288 46.3187 169.788 46.0043 169.125C45.6899 168.462 45.5327 167.634 45.5327 166.642C45.5327 165.616 45.6955 164.773 46.0213 164.114C46.3471 163.451 46.7751 162.96 47.3054 162.642C47.8357 162.32 48.4039 162.159 49.0099 162.159C49.6993 162.159 50.241 162.328 50.6349 162.665C51.0327 162.998 51.313 163.366 51.4759 163.767H51.5327V159.364H54.3111V171H51.5611V169.585H51.4759C51.3016 169.987 51.0137 170.345 50.6122 170.659C50.2107 170.97 49.6804 171.125 49.0213 171.125ZM49.9872 168.96C50.4948 168.96 50.8887 168.75 51.169 168.33C51.4531 167.909 51.5952 167.345 51.5952 166.636C51.5952 165.924 51.4531 165.362 51.169 164.949C50.8887 164.536 50.4948 164.33 49.9872 164.33C49.4721 164.33 49.0762 164.54 48.7997 164.96C48.5232 165.377 48.3849 165.936 48.3849 166.636C48.3849 167.341 48.5232 167.905 48.7997 168.33C49.0762 168.75 49.4721 168.96 49.9872 168.96ZM63.6875 164.938L61.1364 165.006C61.0985 164.729 60.9602 164.504 60.7216 164.33C60.483 164.152 60.1799 164.062 59.8125 164.062C59.4905 164.062 59.2159 164.127 58.9886 164.256C58.7652 164.381 58.6553 164.555 58.6591 164.778C58.6553 164.945 58.7235 165.093 58.8636 165.222C59.0076 165.347 59.2633 165.447 59.6307 165.523L61.3125 165.841C63.0284 166.17 63.892 166.958 63.9034 168.205C63.8996 168.803 63.7216 169.324 63.3693 169.767C63.0208 170.21 62.5436 170.555 61.9375 170.801C61.3314 171.044 60.6383 171.165 59.858 171.165C58.6117 171.165 57.6288 170.909 56.9091 170.398C56.1894 169.883 55.7803 169.193 55.6818 168.33L58.4261 168.261C58.4867 168.58 58.6439 168.822 58.8977 168.989C59.1515 169.155 59.4754 169.239 59.8693 169.239C60.2254 169.239 60.5152 169.172 60.7386 169.04C60.9621 168.907 61.0758 168.731 61.0795 168.511C61.0682 168.144 60.714 167.892 60.017 167.756L58.4943 167.466C56.7557 167.144 55.892 166.301 55.9034 164.938C55.8996 164.062 56.2462 163.381 56.9432 162.892C57.6402 162.403 58.5795 162.159 59.7614 162.159C60.9432 162.159 61.875 162.407 62.5568 162.903C63.2386 163.396 63.6155 164.074 63.6875 164.938Z" fill="#BDBDBD"/>
<path d="M14.8807 193V181.364H22.8239V183.648H17.6932V186.034H22.3182V188.324H17.6932V193H14.8807ZM24.2401 193V184.273H27.0185V193H24.2401ZM25.6321 183.256C25.242 183.256 24.9067 183.127 24.6264 182.869C24.3461 182.608 24.206 182.294 24.206 181.926C24.206 181.559 24.3461 181.246 24.6264 180.989C24.9067 180.731 25.242 180.602 25.6321 180.602C26.026 180.602 26.3613 180.731 26.6378 180.989C26.9181 181.246 27.0582 181.559 27.0582 181.926C27.0582 182.294 26.9181 182.608 26.6378 182.869C26.3613 183.127 26.026 183.256 25.6321 183.256ZM31.5653 188.023V193H28.7869V184.273H31.429V185.875H31.5256C31.7188 185.345 32.0483 184.926 32.5142 184.619C32.9801 184.312 33.535 184.159 34.179 184.159C34.7926 184.159 35.3248 184.295 35.7756 184.568C36.2301 184.841 36.5824 185.223 36.8324 185.716C37.0862 186.208 37.2112 186.782 37.2074 187.438V193H34.429V187.983C34.4328 187.498 34.3097 187.119 34.0597 186.847C33.8134 186.574 33.4706 186.438 33.0312 186.438C32.5919 186.438 32.2377 186.578 31.9688 186.858C31.7036 187.138 31.5691 187.527 31.5653 188.023ZM42.1151 193.125C41.4749 193.125 40.8897 192.958 40.3594 192.625C39.8329 192.288 39.4124 191.788 39.098 191.125C38.7836 190.462 38.6264 189.634 38.6264 188.642C38.6264 187.616 38.7893 186.773 39.1151 186.114C39.4408 185.451 39.8688 184.96 40.3991 184.642C40.9295 184.32 41.4976 184.159 42.1037 184.159C42.7931 184.159 43.3348 184.328 43.7287 184.665C44.1264 184.998 44.4067 185.366 44.5696 185.767H44.6264V181.364H47.4048V193H44.6548V191.585H44.5696C44.3954 191.987 44.1075 192.345 43.706 192.659C43.3045 192.97 42.7741 193.125 42.1151 193.125ZM43.081 190.96C43.5885 190.96 43.9825 190.75 44.2628 190.33C44.5469 189.909 44.6889 189.345 44.6889 188.636C44.6889 187.924 44.5469 187.362 44.2628 186.949C43.9825 186.536 43.5885 186.33 43.081 186.33C42.5658 186.33 42.17 186.54 41.8935 186.96C41.617 187.377 41.4787 187.936 41.4787 188.636C41.4787 189.341 41.617 189.905 41.8935 190.33C42.17 190.75 42.5658 190.96 43.081 190.96ZM55.0597 193.148C54.2263 193.148 53.5388 192.936 52.9972 192.511C52.4593 192.087 52.1903 191.443 52.1903 190.58C52.1903 189.936 52.3381 189.424 52.6335 189.045C52.929 188.663 53.3229 188.381 53.8153 188.199C54.3078 188.013 54.8475 187.896 55.4347 187.847C56.1809 187.782 56.7112 187.703 57.0256 187.608C57.3438 187.513 57.5028 187.333 57.5028 187.068V187.04C57.5028 186.748 57.4025 186.523 57.2017 186.364C57.0009 186.205 56.7301 186.125 56.3892 186.125C56.0218 186.125 55.7263 186.205 55.5028 186.364C55.2794 186.523 55.1373 186.742 55.0767 187.023L52.5142 186.932C52.6241 186.136 53.0066 185.475 53.6619 184.949C54.321 184.422 55.2377 184.159 56.4119 184.159C57.1544 184.159 57.8153 184.275 58.3949 184.506C58.9782 184.733 59.4366 185.062 59.7699 185.494C60.107 185.926 60.2756 186.451 60.2756 187.068V193H57.6619V191.784H57.5938C57.1089 192.693 56.2642 193.148 55.0597 193.148ZM55.9176 191.33C56.3608 191.33 56.7377 191.197 57.0483 190.932C57.3627 190.667 57.5199 190.322 57.5199 189.898V189.068C57.3646 189.152 57.1449 189.222 56.8608 189.278C56.5805 189.335 56.3116 189.383 56.054 189.42C55.232 189.545 54.821 189.886 54.821 190.443C54.821 190.731 54.9233 190.951 55.1278 191.102C55.3324 191.254 55.5956 191.33 55.9176 191.33ZM70.4801 184.273V186.318H68.8153V193H66.0426V186.318H64.8665V184.273H66.0426V183.83C66.0426 182.818 66.3191 182.064 66.8722 181.568C67.429 181.068 68.1525 180.818 69.0426 180.818C69.4252 180.818 69.7888 180.848 70.1335 180.909C70.4782 180.966 70.732 181.017 70.8949 181.062L70.4517 183.097C70.3494 183.066 70.2263 183.04 70.0824 183.017C69.9384 182.991 69.8002 182.977 69.6676 182.977C69.3456 182.977 69.1222 183.049 68.9972 183.193C68.8759 183.337 68.8153 183.534 68.8153 183.784V184.273H70.4801ZM71.8182 193V184.273H74.5966V193H71.8182ZM73.2102 183.256C72.8201 183.256 72.4848 183.127 72.2045 182.869C71.9242 182.608 71.7841 182.294 71.7841 181.926C71.7841 181.559 71.9242 181.246 72.2045 180.989C72.4848 180.731 72.8201 180.602 73.2102 180.602C73.6042 180.602 73.9394 180.731 74.2159 180.989C74.4962 181.246 74.6364 181.559 74.6364 181.926C74.6364 182.294 74.4962 182.608 74.2159 182.869C73.9394 183.127 73.6042 183.256 73.2102 183.256ZM79.1435 181.364V193H76.3651V181.364H79.1435ZM84.9915 193.165C83.6203 193.165 82.5407 192.765 81.7528 191.966C80.9688 191.167 80.5767 190.068 80.5767 188.67C80.5767 187.769 80.7547 186.981 81.1108 186.307C81.4669 185.629 81.9688 185.102 82.6165 184.727C83.2642 184.348 84.0275 184.159 84.9062 184.159C85.732 184.159 86.4631 184.331 87.0994 184.676C87.7358 185.017 88.2339 185.519 88.5938 186.182C88.9536 186.845 89.1335 187.655 89.1335 188.614V189.307H83.3153V189.381C83.3153 189.915 83.4688 190.345 83.7756 190.67C84.0862 190.996 84.5085 191.159 85.0426 191.159C85.4063 191.159 85.7225 191.083 85.9915 190.932C86.2604 190.777 86.4479 190.555 86.554 190.267L89.1051 190.341C88.946 191.197 88.5066 191.883 87.7869 192.398C87.0672 192.909 86.1354 193.165 84.9915 193.165ZM83.3153 187.693H86.5483C86.5445 187.246 86.393 186.881 86.0938 186.597C85.7983 186.309 85.4214 186.165 84.9631 186.165C84.5009 186.165 84.1146 186.311 83.804 186.602C83.4972 186.894 83.3343 187.258 83.3153 187.693Z" fill="black"/>
<path d="M25.8636 293.182C25.8636 294.462 25.6174 295.547 25.125 296.438C24.6326 297.328 23.9659 298.004 23.125 298.466C22.2879 298.928 21.3485 299.159 20.3068 299.159C19.2614 299.159 18.3182 298.928 17.4773 298.466C16.6402 298 15.9773 297.322 15.4886 296.432C15 295.542 14.7557 294.458 14.7557 293.182C14.7557 291.898 15 290.812 15.4886 289.926C15.9773 289.036 16.6402 288.36 17.4773 287.898C18.3182 287.436 19.2614 287.205 20.3068 287.205C21.3485 287.205 22.2879 287.436 23.125 287.898C23.9659 288.36 24.6326 289.036 25.125 289.926C25.6174 290.812 25.8636 291.898 25.8636 293.182ZM22.9886 293.182C22.9886 292.042 22.7519 291.172 22.2784 290.574C21.8049 289.972 21.1477 289.67 20.3068 289.67C19.4697 289.67 18.8125 289.972 18.3352 290.574C17.8617 291.172 17.625 292.042 17.625 293.182C17.625 294.322 17.8617 295.193 18.3352 295.795C18.8125 296.394 19.4697 296.693 20.3068 296.693C21.1477 296.693 21.8049 296.394 22.2784 295.795C22.7519 295.193 22.9886 294.322 22.9886 293.182ZM33.1364 295.233V290.273H35.9091V299H33.2614V297.375H33.1705C32.9773 297.909 32.6477 298.333 32.1818 298.648C31.7197 298.958 31.161 299.114 30.5057 299.114C29.9072 299.114 29.3826 298.977 28.9318 298.705C28.4848 298.432 28.1364 298.049 27.8864 297.557C27.6364 297.064 27.5095 296.491 27.5057 295.835V290.273H30.2841V295.29C30.2879 295.763 30.4129 296.136 30.6591 296.409C30.9053 296.682 31.2405 296.818 31.6648 296.818C32.0777 296.818 32.4261 296.682 32.7102 296.409C32.9943 296.133 33.1364 295.741 33.1364 295.233ZM42.6037 290.273V292.318H41.0298V296.256C41.0298 296.513 41.0904 296.695 41.2116 296.801C41.3366 296.903 41.5109 296.955 41.7344 296.955C41.8404 296.955 41.9522 296.945 42.0696 296.926C42.1908 296.903 42.2817 296.884 42.3423 296.869L42.7628 298.875C42.6302 298.913 42.4446 298.958 42.206 299.011C41.9673 299.068 41.6795 299.106 41.3423 299.125C40.3613 299.17 39.598 298.975 39.0526 298.54C38.5109 298.104 38.2438 297.445 38.2514 296.562V292.318H37.098V290.273H38.2514V288.182H41.0298V290.273H42.6037ZM48.0014 299.165C47.081 299.165 46.2912 298.975 45.6321 298.597C44.9768 298.214 44.473 297.686 44.1207 297.011C43.7685 296.333 43.5923 295.551 43.5923 294.665C43.5923 293.771 43.7685 292.987 44.1207 292.312C44.473 291.634 44.9787 291.106 45.6378 290.727C46.2969 290.348 47.0829 290.159 47.9957 290.159C48.8063 290.159 49.5109 290.305 50.1094 290.597C50.7079 290.888 51.1757 291.301 51.5128 291.835C51.8537 292.366 52.0336 292.989 52.0526 293.705H49.456C49.4029 293.258 49.2514 292.907 49.0014 292.653C48.7552 292.4 48.4332 292.273 48.0355 292.273C47.5507 292.273 47.1605 292.475 46.8651 292.881C46.5696 293.282 46.4219 293.867 46.4219 294.636C46.4219 295.413 46.5677 296.004 46.8594 296.409C47.1548 296.811 47.5469 297.011 48.0355 297.011C48.4181 297.011 48.7382 296.888 48.9957 296.642C49.2533 296.396 49.4067 296.042 49.456 295.58H52.0526C52.0298 296.299 51.8518 296.928 51.5185 297.466C51.1851 298.004 50.7192 298.422 50.1207 298.722C49.526 299.017 48.8196 299.165 48.0014 299.165ZM57.5483 299.165C56.6354 299.165 55.8494 298.977 55.1903 298.602C54.5313 298.223 54.0237 297.697 53.6676 297.023C53.3153 296.345 53.1392 295.559 53.1392 294.665C53.1392 293.767 53.3153 292.981 53.6676 292.307C54.0237 291.629 54.5313 291.102 55.1903 290.727C55.8494 290.348 56.6354 290.159 57.5483 290.159C58.465 290.159 59.2509 290.348 59.9062 290.727C60.5653 291.102 61.071 291.629 61.4233 292.307C61.7794 292.981 61.9574 293.767 61.9574 294.665C61.9574 295.559 61.7794 296.345 61.4233 297.023C61.071 297.697 60.5653 298.223 59.9062 298.602C59.2509 298.977 58.465 299.165 57.5483 299.165ZM57.5653 297.068C58.0616 297.068 58.446 296.845 58.7188 296.398C58.9915 295.951 59.1278 295.367 59.1278 294.648C59.1278 293.924 58.9915 293.339 58.7188 292.892C58.446 292.441 58.0616 292.216 57.5653 292.216C57.0502 292.216 56.6544 292.441 56.3778 292.892C56.1051 293.339 55.9688 293.924 55.9688 294.648C55.9688 295.367 56.1051 295.951 56.3778 296.398C56.6544 296.845 57.0502 297.068 57.5653 297.068ZM63.3807 299V290.273H66.0227V291.875H66.1193C66.3011 291.345 66.608 290.926 67.0398 290.619C67.4754 290.312 67.9905 290.159 68.5852 290.159C69.1913 290.159 69.7102 290.314 70.142 290.625C70.5739 290.936 70.8485 291.352 70.9659 291.875H71.0568C71.2197 291.356 71.5379 290.941 72.0114 290.631C72.4848 290.316 73.0436 290.159 73.6875 290.159C74.5133 290.159 75.1837 290.422 75.6989 290.949C76.214 291.475 76.4716 292.201 76.4716 293.125V299H73.6932V293.761C73.6932 293.326 73.5795 292.994 73.3523 292.767C73.1288 292.536 72.8409 292.42 72.4886 292.42C72.1061 292.42 71.8049 292.545 71.5852 292.795C71.3693 293.042 71.2614 293.373 71.2614 293.79V299H68.5909V293.733C68.5909 293.328 68.4811 293.008 68.2614 292.773C68.0417 292.538 67.7519 292.42 67.392 292.42C67.0284 292.42 66.7311 292.549 66.5 292.807C66.2727 293.061 66.1591 293.403 66.1591 293.835V299H63.3807ZM82.2727 299.165C80.9015 299.165 79.822 298.765 79.0341 297.966C78.25 297.167 77.858 296.068 77.858 294.67C77.858 293.769 78.036 292.981 78.392 292.307C78.7481 291.629 79.25 291.102 79.8977 290.727C80.5455 290.348 81.3087 290.159 82.1875 290.159C83.0133 290.159 83.7443 290.331 84.3807 290.676C85.017 291.017 85.5152 291.519 85.875 292.182C86.2348 292.845 86.4148 293.655 86.4148 294.614V295.307H80.5966V295.381C80.5966 295.915 80.75 296.345 81.0568 296.67C81.3674 296.996 81.7898 297.159 82.3239 297.159C82.6875 297.159 83.0038 297.083 83.2727 296.932C83.5417 296.777 83.7292 296.555 83.8352 296.267L86.3864 296.341C86.2273 297.197 85.7879 297.883 85.0682 298.398C84.3485 298.909 83.4167 299.165 82.2727 299.165ZM80.5966 293.693H83.8295C83.8258 293.246 83.6742 292.881 83.375 292.597C83.0795 292.309 82.7027 292.165 82.2443 292.165C81.7822 292.165 81.3958 292.311 81.0852 292.602C80.7784 292.894 80.6155 293.258 80.5966 293.693Z" fill="#BDBDBD"/>
<rect x="1.5" y="257.5" width="157" height="93" stroke="black" stroke-width="3"/>
<path d="M21.1705 311.852C21.1326 311.436 20.964 311.112 20.6648 310.881C20.3693 310.646 19.947 310.528 19.3977 310.528C18.8523 310.528 18.4432 310.633 18.1705 310.841C17.8977 311.045 17.7595 311.307 17.7557 311.625C17.7443 311.97 17.8939 312.241 18.2045 312.438C18.5152 312.631 18.9337 312.784 19.4602 312.898L20.4602 313.125C21.608 313.379 22.4867 313.794 23.0966 314.369C23.7102 314.945 24.0189 315.697 24.0227 316.625C24.0189 317.731 23.6098 318.595 22.7955 319.216C21.9811 319.837 20.8485 320.148 19.3977 320.148C17.9356 320.148 16.7652 319.818 15.8864 319.159C15.0114 318.496 14.5644 317.485 14.5455 316.125H17.2386C17.2689 316.686 17.4754 317.11 17.858 317.398C18.2405 317.682 18.7424 317.824 19.3636 317.824C19.928 317.824 20.3693 317.712 20.6875 317.489C21.0057 317.265 21.1667 316.975 21.1705 316.619C21.1667 316.294 21.0152 316.034 20.7159 315.841C20.4167 315.644 19.947 315.472 19.3068 315.324L18.0909 315.04C17.0871 314.809 16.2936 314.436 15.7102 313.92C15.1307 313.402 14.8428 312.701 14.8466 311.818C14.8428 311.095 15.036 310.462 15.4261 309.92C15.8163 309.379 16.3542 308.958 17.0398 308.659C17.7292 308.356 18.517 308.205 19.4034 308.205C20.3049 308.205 21.0871 308.358 21.75 308.665C22.4167 308.968 22.9337 309.394 23.3011 309.943C23.6686 310.489 23.8561 311.125 23.8636 311.852H21.1705ZM29.5227 320.165C28.1515 320.165 27.072 319.765 26.2841 318.966C25.5 318.167 25.108 317.068 25.108 315.67C25.108 314.769 25.286 313.981 25.642 313.307C25.9981 312.629 26.5 312.102 27.1477 311.727C27.7955 311.348 28.5587 311.159 29.4375 311.159C30.2633 311.159 30.9943 311.331 31.6307 311.676C32.267 312.017 32.7652 312.519 33.125 313.182C33.4848 313.845 33.6648 314.655 33.6648 315.614V316.307H27.8466V316.381C27.8466 316.915 28 317.345 28.3068 317.67C28.6174 317.996 29.0398 318.159 29.5739 318.159C29.9375 318.159 30.2538 318.083 30.5227 317.932C30.7917 317.777 30.9792 317.555 31.0852 317.267L33.6364 317.341C33.4773 318.197 33.0379 318.883 32.3182 319.398C31.5985 319.909 30.6667 320.165 29.5227 320.165ZM27.8466 314.693H31.0795C31.0758 314.246 30.9242 313.881 30.625 313.597C30.3295 313.309 29.9527 313.165 29.4943 313.165C29.0322 313.165 28.6458 313.311 28.3352 313.602C28.0284 313.894 27.8655 314.258 27.8466 314.693ZM37.544 320.148C36.7107 320.148 36.0232 319.936 35.4815 319.511C34.9437 319.087 34.6747 318.443 34.6747 317.58C34.6747 316.936 34.8224 316.424 35.1179 316.045C35.4134 315.663 35.8073 315.381 36.2997 315.199C36.7921 315.013 37.3319 314.896 37.919 314.847C38.6652 314.782 39.1955 314.703 39.5099 314.608C39.8281 314.513 39.9872 314.333 39.9872 314.068V314.04C39.9872 313.748 39.8868 313.523 39.6861 313.364C39.4853 313.205 39.2145 313.125 38.8736 313.125C38.5062 313.125 38.2107 313.205 37.9872 313.364C37.7637 313.523 37.6217 313.742 37.5611 314.023L34.9986 313.932C35.1084 313.136 35.491 312.475 36.1463 311.949C36.8054 311.422 37.7221 311.159 38.8963 311.159C39.6387 311.159 40.2997 311.275 40.8793 311.506C41.4626 311.733 41.9209 312.062 42.2543 312.494C42.5914 312.926 42.7599 313.451 42.7599 314.068V320H40.1463V318.784H40.0781C39.5933 319.693 38.7486 320.148 37.544 320.148ZM38.402 318.33C38.8452 318.33 39.2221 318.197 39.5327 317.932C39.8471 317.667 40.0043 317.322 40.0043 316.898V316.068C39.849 316.152 39.6293 316.222 39.3452 316.278C39.0649 316.335 38.7959 316.383 38.5384 316.42C37.7164 316.545 37.3054 316.886 37.3054 317.443C37.3054 317.731 37.4077 317.951 37.6122 318.102C37.8168 318.254 38.08 318.33 38.402 318.33ZM44.4588 320V311.273H47.1577V312.864H47.2486C47.4077 312.288 47.6671 311.86 48.027 311.58C48.3868 311.295 48.8054 311.153 49.2827 311.153C49.5137 311.153 49.7334 311.182 49.9418 311.239C50.1501 311.295 50.3376 311.373 50.5043 311.472L49.6861 313.756C49.5649 313.699 49.4342 313.65 49.294 313.608C49.1577 313.562 49.0062 313.54 48.8395 313.54C48.4039 313.54 48.0289 313.697 47.7145 314.011C47.4001 314.326 47.241 314.742 47.2372 315.261V320H44.4588ZM55.1889 320.165C54.2685 320.165 53.4787 319.975 52.8196 319.597C52.1643 319.214 51.6605 318.686 51.3082 318.011C50.956 317.333 50.7798 316.551 50.7798 315.665C50.7798 314.771 50.956 313.987 51.3082 313.312C51.6605 312.634 52.1662 312.106 52.8253 311.727C53.4844 311.348 54.2704 311.159 55.1832 311.159C55.9938 311.159 56.6984 311.305 57.2969 311.597C57.8954 311.888 58.3632 312.301 58.7003 312.835C59.0412 313.366 59.2211 313.989 59.2401 314.705H56.6435C56.5904 314.258 56.4389 313.907 56.1889 313.653C55.9427 313.4 55.6207 313.273 55.223 313.273C54.7382 313.273 54.348 313.475 54.0526 313.881C53.7571 314.282 53.6094 314.867 53.6094 315.636C53.6094 316.413 53.7552 317.004 54.0469 317.409C54.3423 317.811 54.7344 318.011 55.223 318.011C55.6056 318.011 55.9257 317.888 56.1832 317.642C56.4408 317.396 56.5942 317.042 56.6435 316.58H59.2401C59.2173 317.299 59.0393 317.928 58.706 318.466C58.3726 319.004 57.9067 319.422 57.3082 319.722C56.7135 320.017 56.0071 320.165 55.1889 320.165ZM63.4403 315.023V320H60.6619V308.364H63.3494V312.875H63.446C63.643 312.337 63.965 311.917 64.4119 311.614C64.8627 311.311 65.4138 311.159 66.0653 311.159C66.982 311.159 67.7169 311.458 68.2699 312.057C68.8267 312.655 69.1032 313.449 69.0994 314.438V320H66.321V314.983C66.3248 314.498 66.2036 314.119 65.9574 313.847C65.7112 313.574 65.3646 313.438 64.9176 313.438C64.4782 313.438 64.1222 313.578 63.8494 313.858C63.5805 314.138 63.4441 314.527 63.4403 315.023ZM74.2713 320V311.273H76.9702V312.864H77.0611C77.2202 312.288 77.4796 311.86 77.8395 311.58C78.1993 311.295 78.6179 311.153 79.0952 311.153C79.3262 311.153 79.5459 311.182 79.7543 311.239C79.9626 311.295 80.1501 311.373 80.3168 311.472L79.4986 313.756C79.3774 313.699 79.2467 313.65 79.1065 313.608C78.9702 313.562 78.8187 313.54 78.652 313.54C78.2164 313.54 77.8414 313.697 77.527 314.011C77.2126 314.326 77.0535 314.742 77.0497 315.261V320H74.2713ZM85.0071 320.165C83.6359 320.165 82.5563 319.765 81.7685 318.966C80.9844 318.167 80.5923 317.068 80.5923 315.67C80.5923 314.769 80.7704 313.981 81.1264 313.307C81.4825 312.629 81.9844 312.102 82.6321 311.727C83.2798 311.348 84.0431 311.159 84.9219 311.159C85.7476 311.159 86.4787 311.331 87.1151 311.676C87.7514 312.017 88.2495 312.519 88.6094 313.182C88.9692 313.845 89.1491 314.655 89.1491 315.614V316.307H83.331V316.381C83.331 316.915 83.4844 317.345 83.7912 317.67C84.1018 317.996 84.5241 318.159 85.0582 318.159C85.4219 318.159 85.7382 318.083 86.0071 317.932C86.276 317.777 86.4635 317.555 86.5696 317.267L89.1207 317.341C88.9616 318.197 88.5223 318.883 87.8026 319.398C87.0829 319.909 86.151 320.165 85.0071 320.165ZM83.331 314.693H86.5639C86.5601 314.246 86.4086 313.881 86.1094 313.597C85.8139 313.309 85.437 313.165 84.9787 313.165C84.5166 313.165 84.1302 313.311 83.8196 313.602C83.5128 313.894 83.3499 314.258 83.331 314.693ZM98.1875 313.938L95.6364 314.006C95.5985 313.729 95.4602 313.504 95.2216 313.33C94.983 313.152 94.6799 313.062 94.3125 313.062C93.9905 313.062 93.7159 313.127 93.4886 313.256C93.2652 313.381 93.1553 313.555 93.1591 313.778C93.1553 313.945 93.2235 314.093 93.3636 314.222C93.5076 314.347 93.7633 314.447 94.1307 314.523L95.8125 314.841C97.5284 315.17 98.392 315.958 98.4034 317.205C98.3996 317.803 98.2216 318.324 97.8693 318.767C97.5208 319.21 97.0436 319.555 96.4375 319.801C95.8314 320.044 95.1383 320.165 94.358 320.165C93.1117 320.165 92.1288 319.909 91.4091 319.398C90.6894 318.883 90.2803 318.193 90.1818 317.33L92.9261 317.261C92.9867 317.58 93.1439 317.822 93.3977 317.989C93.6515 318.155 93.9754 318.239 94.3693 318.239C94.7254 318.239 95.0152 318.172 95.2386 318.04C95.4621 317.907 95.5758 317.731 95.5795 317.511C95.5682 317.144 95.214 316.892 94.517 316.756L92.9943 316.466C91.2557 316.144 90.392 315.301 90.4034 313.938C90.3996 313.062 90.7462 312.381 91.4432 311.892C92.1402 311.403 93.0795 311.159 94.2614 311.159C95.4432 311.159 96.375 311.407 97.0568 311.903C97.7386 312.396 98.1155 313.074 98.1875 313.938ZM105.402 316.233V311.273H108.175V320H105.527V318.375H105.436C105.243 318.909 104.913 319.333 104.447 319.648C103.985 319.958 103.427 320.114 102.771 320.114C102.173 320.114 101.648 319.977 101.197 319.705C100.75 319.432 100.402 319.049 100.152 318.557C99.902 318.064 99.7751 317.491 99.7713 316.835V311.273H102.55V316.29C102.554 316.763 102.679 317.136 102.925 317.409C103.171 317.682 103.506 317.818 103.93 317.818C104.343 317.818 104.692 317.682 104.976 317.409C105.26 317.133 105.402 316.741 105.402 316.233ZM112.722 308.364V320H109.943V308.364H112.722ZM119.416 311.273V313.318H117.842V317.256C117.842 317.513 117.903 317.695 118.024 317.801C118.149 317.903 118.323 317.955 118.547 317.955C118.653 317.955 118.765 317.945 118.882 317.926C119.003 317.903 119.094 317.884 119.155 317.869L119.575 319.875C119.443 319.913 119.257 319.958 119.018 320.011C118.78 320.068 118.492 320.106 118.155 320.125C117.174 320.17 116.411 319.975 115.865 319.54C115.323 319.104 115.056 318.445 115.064 317.562V313.318H113.911V311.273H115.064V309.182H117.842V311.273H119.416ZM128.344 313.938L125.793 314.006C125.755 313.729 125.616 313.504 125.378 313.33C125.139 313.152 124.836 313.062 124.469 313.062C124.147 313.062 123.872 313.127 123.645 313.256C123.421 313.381 123.312 313.555 123.315 313.778C123.312 313.945 123.38 314.093 123.52 314.222C123.664 314.347 123.92 314.447 124.287 314.523L125.969 314.841C127.685 315.17 128.548 315.958 128.56 317.205C128.556 317.803 128.378 318.324 128.026 318.767C127.677 319.21 127.2 319.555 126.594 319.801C125.988 320.044 125.295 320.165 124.514 320.165C123.268 320.165 122.285 319.909 121.565 319.398C120.846 318.883 120.437 318.193 120.338 317.33L123.082 317.261C123.143 317.58 123.3 317.822 123.554 317.989C123.808 318.155 124.132 318.239 124.526 318.239C124.882 318.239 125.171 318.172 125.395 318.04C125.618 317.907 125.732 317.731 125.736 317.511C125.724 317.144 125.37 316.892 124.673 316.756L123.151 316.466C121.412 316.144 120.548 315.301 120.56 313.938C120.556 313.062 120.902 312.381 121.599 311.892C122.296 311.403 123.236 311.159 124.418 311.159C125.599 311.159 126.531 311.407 127.213 311.903C127.895 312.396 128.272 313.074 128.344 313.938Z" fill="black"/>
<path d="M272 224V304H173.5M173.5 304L183 294.5M173.5 304L183 313.5" stroke="black" stroke-width="3"/>
<path d="M194.562 322V313.273H198.33C198.977 313.273 199.544 313.401 200.03 313.656C200.516 313.912 200.893 314.271 201.163 314.734C201.433 315.197 201.568 315.739 201.568 316.358C201.568 316.983 201.429 317.524 201.151 317.982C200.875 318.439 200.487 318.791 199.987 319.038C199.49 319.286 198.909 319.409 198.244 319.409H196.932V322H194.562ZM196.932 317.568H197.767C198.182 317.568 198.507 317.46 198.743 317.244C198.979 317.026 199.097 316.73 199.097 316.358C199.097 315.983 198.979 315.69 198.743 315.48C198.507 315.27 198.182 315.165 197.767 315.165H196.932V317.568ZM205.467 322.119C204.419 322.119 203.594 321.822 202.991 321.229C202.392 320.632 202.092 319.804 202.092 318.744C202.092 318.068 202.229 317.477 202.501 316.972C202.774 316.466 203.159 316.072 203.656 315.791C204.153 315.51 204.74 315.369 205.416 315.369C206.075 315.369 206.648 315.504 207.134 315.774C207.622 316.044 208 316.43 208.267 316.933C208.537 317.433 208.672 318.031 208.672 318.727V319.273H204.411V319.375C204.411 319.69 204.507 319.952 204.7 320.159C204.896 320.364 205.169 320.466 205.518 320.466C205.76 320.466 205.97 320.416 206.149 320.317C206.331 320.214 206.456 320.071 206.524 319.886H208.672C208.561 320.568 208.226 321.111 207.666 321.514C207.109 321.918 206.376 322.119 205.467 322.119ZM204.411 317.977H206.507C206.501 317.696 206.399 317.467 206.2 317.291C206.004 317.112 205.76 317.023 205.467 317.023C205.18 317.023 204.933 317.111 204.726 317.287C204.521 317.463 204.416 317.693 204.411 317.977ZM209.632 322V315.455H211.916V316.699H211.984C212.103 316.239 212.292 315.902 212.551 315.689C212.812 315.476 213.118 315.369 213.467 315.369C213.663 315.369 213.862 315.399 214.064 315.459V317.466C213.947 317.426 213.804 317.396 213.633 317.376C213.463 317.357 213.316 317.347 213.194 317.347C212.848 317.347 212.559 317.46 212.329 317.688C212.099 317.915 211.984 318.216 211.984 318.591V322H209.632ZM218.928 315.455V317.159H217.735V322H215.382V317.159H214.547V315.455H215.382V315.267C215.382 314.457 215.596 313.855 216.022 313.46C216.448 313.062 217.019 312.864 217.735 312.864C218.033 312.864 218.323 312.886 218.604 312.932C218.888 312.977 219.098 313.017 219.235 313.051L218.894 314.739C218.809 314.713 218.709 314.693 218.596 314.679C218.482 314.662 218.382 314.653 218.297 314.653C218.076 314.653 217.926 314.7 217.85 314.794C217.773 314.888 217.735 315.011 217.735 315.165V315.455H218.928ZM222.781 322.119C222.071 322.119 221.463 321.979 220.957 321.697C220.452 321.413 220.064 321.018 219.794 320.513C219.524 320.004 219.389 319.415 219.389 318.744C219.389 318.074 219.524 317.486 219.794 316.98C220.064 316.472 220.452 316.077 220.957 315.795C221.463 315.511 222.071 315.369 222.781 315.369C223.491 315.369 224.099 315.511 224.605 315.795C225.111 316.077 225.499 316.472 225.768 316.98C226.038 317.486 226.173 318.074 226.173 318.744C226.173 319.415 226.038 320.004 225.768 320.513C225.499 321.018 225.111 321.413 224.605 321.697C224.099 321.979 223.491 322.119 222.781 322.119ZM222.798 320.381C223.097 320.381 223.332 320.234 223.506 319.942C223.682 319.646 223.77 319.241 223.77 318.727C223.77 318.213 223.682 317.81 223.506 317.517C223.332 317.222 223.097 317.074 222.798 317.074C222.483 317.074 222.236 317.222 222.057 317.517C221.881 317.81 221.793 318.213 221.793 318.727C221.793 319.241 221.881 319.646 222.057 319.942C222.236 320.234 222.483 320.381 222.798 320.381ZM227.128 322V315.455H229.412V316.699H229.48C229.599 316.239 229.788 315.902 230.047 315.689C230.308 315.476 230.614 315.369 230.963 315.369C231.159 315.369 231.358 315.399 231.56 315.459V317.466C231.443 317.426 231.3 317.396 231.129 317.376C230.959 317.357 230.813 317.347 230.69 317.347C230.344 317.347 230.055 317.46 229.825 317.688C229.595 317.915 229.48 318.216 229.48 318.591V322H227.128ZM232.331 322V315.455H234.564V316.699H234.632C234.768 316.29 235.001 315.966 235.331 315.727C235.661 315.489 236.053 315.369 236.507 315.369C236.967 315.369 237.364 315.491 237.696 315.736C238.028 315.977 238.229 316.298 238.297 316.699H238.365C238.476 316.298 238.712 315.977 239.072 315.736C239.433 315.491 239.857 315.369 240.342 315.369C240.97 315.369 241.479 315.571 241.868 315.974C242.26 316.378 242.456 316.915 242.456 317.585V322H240.104V318.182C240.104 317.895 240.031 317.67 239.886 317.509C239.741 317.344 239.547 317.261 239.303 317.261C239.061 317.261 238.869 317.344 238.727 317.509C238.588 317.67 238.518 317.895 238.518 318.182V322H236.268V318.182C236.268 317.895 236.196 317.67 236.051 317.509C235.906 317.344 235.712 317.261 235.467 317.261C235.226 317.261 235.034 317.344 234.892 317.509C234.753 317.67 234.683 317.895 234.683 318.182V322H232.331ZM245.44 322.102C244.815 322.102 244.304 321.947 243.906 321.638C243.508 321.325 243.309 320.844 243.309 320.193C243.309 319.713 243.416 319.327 243.629 319.034C243.842 318.741 244.13 318.523 244.494 318.378C244.858 318.233 245.264 318.145 245.713 318.114C246.264 318.074 246.654 318.016 246.885 317.939C247.115 317.859 247.23 317.724 247.23 317.534V317.517C247.23 317.347 247.164 317.216 247.034 317.125C246.903 317.034 246.735 316.989 246.531 316.989C246.306 316.989 246.123 317.038 245.981 317.138C245.842 317.234 245.758 317.384 245.73 317.585H243.565C243.593 317.187 243.72 316.821 243.944 316.486C244.172 316.148 244.502 315.878 244.937 315.676C245.372 315.472 245.914 315.369 246.565 315.369C247.19 315.369 247.727 315.464 248.176 315.655C248.627 315.845 248.974 316.102 249.216 316.426C249.46 316.75 249.582 317.114 249.582 317.517V322H247.383V321.08H247.332C247.133 321.446 246.875 321.709 246.556 321.868C246.238 322.024 245.866 322.102 245.44 322.102ZM246.207 320.619C246.474 320.619 246.714 320.538 246.927 320.376C247.14 320.212 247.247 319.98 247.247 319.682V319.136C247.014 319.233 246.701 319.312 246.309 319.375C246.037 319.418 245.838 319.5 245.713 319.622C245.588 319.744 245.525 319.889 245.525 320.057C245.525 320.239 245.589 320.378 245.717 320.474C245.845 320.571 246.008 320.619 246.207 320.619ZM253.058 318.318V322H250.706V315.455H252.939V316.699H253.007C253.149 316.284 253.399 315.959 253.757 315.723C254.118 315.487 254.538 315.369 255.018 315.369C255.482 315.369 255.884 315.476 256.224 315.689C256.568 315.899 256.834 316.189 257.021 316.558C257.212 316.928 257.305 317.349 257.303 317.824V322H254.95V318.318C254.953 317.994 254.871 317.74 254.703 317.555C254.538 317.371 254.308 317.278 254.013 317.278C253.72 317.278 253.489 317.371 253.318 317.555C253.148 317.74 253.061 317.994 253.058 318.318ZM261.617 322.119C260.907 322.119 260.299 321.979 259.793 321.697C259.288 321.413 258.9 321.018 258.63 320.513C258.36 320.004 258.225 319.415 258.225 318.744C258.225 318.074 258.36 317.486 258.63 316.98C258.9 316.472 259.288 316.077 259.793 315.795C260.299 315.511 260.907 315.369 261.617 315.369C262.259 315.369 262.815 315.486 263.283 315.719C263.755 315.949 264.12 316.276 264.379 316.699C264.637 317.119 264.768 317.614 264.771 318.182H262.589C262.558 317.838 262.458 317.577 262.29 317.398C262.126 317.216 261.913 317.125 261.651 317.125C261.342 317.125 261.093 317.259 260.906 317.526C260.721 317.79 260.629 318.19 260.629 318.727C260.629 319.264 260.721 319.666 260.906 319.933C261.093 320.197 261.342 320.33 261.651 320.33C261.91 320.33 262.124 320.24 262.295 320.061C262.465 319.879 262.563 319.616 262.589 319.273H264.771C264.759 320.139 264.472 320.831 263.91 321.348C263.35 321.862 262.586 322.119 261.617 322.119ZM268.877 322.119C267.829 322.119 267.004 321.822 266.402 321.229C265.802 320.632 265.502 319.804 265.502 318.744C265.502 318.068 265.639 317.477 265.912 316.972C266.184 316.466 266.569 316.072 267.066 315.791C267.564 315.51 268.15 315.369 268.826 315.369C269.485 315.369 270.058 315.504 270.544 315.774C271.032 316.044 271.41 316.43 271.677 316.933C271.947 317.433 272.082 318.031 272.082 318.727V319.273H267.821V319.375C267.821 319.69 267.917 319.952 268.11 320.159C268.306 320.364 268.579 320.466 268.929 320.466C269.17 320.466 269.38 320.416 269.559 320.317C269.741 320.214 269.866 320.071 269.934 319.886H272.082C271.971 320.568 271.636 321.111 271.076 321.514C270.52 321.918 269.787 322.119 268.877 322.119ZM267.821 317.977H269.917C269.912 317.696 269.809 317.467 269.61 317.291C269.414 317.112 269.17 317.023 268.877 317.023C268.591 317.023 268.343 317.111 268.136 317.287C267.931 317.463 267.826 317.693 267.821 317.977Z" fill="black"/>
<path d="M64 247L80 233L96 247" stroke="black" stroke-width="3"/>
<path d="M96 105L80 119L64 105" stroke="black" stroke-width="3"/>
</svg>
