<svg width="544" height="166" viewBox="0 0 544 166" fill="none" xmlns="http://www.w3.org/2000/svg">
<rect width="544" height="166" fill="white"/>
<rect x="1.5" y="1.5" width="541" height="163" stroke="black" stroke-width="3"/>
<path d="M23.1705 24.8523C23.1326 24.4356 22.964 24.1117 22.6648 23.8807C22.3693 23.6458 21.947 23.5284 21.3977 23.5284C20.8523 23.5284 20.4432 23.6326 20.1705 23.8409C19.8977 24.0455 19.7595 24.3068 19.7557 24.625C19.7443 24.9697 19.8939 25.2405 20.2045 25.4375C20.5152 25.6307 20.9337 25.7841 21.4602 25.8977L22.4602 26.125C23.608 26.3788 24.4867 26.7936 25.0966 27.3693C25.7102 27.9451 26.0189 28.697 26.0227 29.625C26.0189 30.7311 25.6098 31.5947 24.7955 32.2159C23.9811 32.8371 22.8485 33.1477 21.3977 33.1477C19.9356 33.1477 18.7652 32.8182 17.8864 32.1591C17.0114 31.4962 16.5644 30.4848 16.5455 29.125H19.2386C19.2689 29.6856 19.4754 30.1098 19.858 30.3977C20.2405 30.6818 20.7424 30.8239 21.3636 30.8239C21.928 30.8239 22.3693 30.7121 22.6875 30.4886C23.0057 30.2652 23.1667 29.9754 23.1705 29.6193C23.1667 29.2936 23.0152 29.0341 22.7159 28.8409C22.4167 28.6439 21.947 28.4716 21.3068 28.3239L20.0909 28.0398C19.0871 27.8087 18.2936 27.4356 17.7102 26.9205C17.1307 26.4015 16.8428 25.7008 16.8466 24.8182C16.8428 24.0947 17.036 23.4621 17.4261 22.9205C17.8163 22.3788 18.3542 21.9583 19.0398 21.6591C19.7292 21.3561 20.517 21.2045 21.4034 21.2045C22.3049 21.2045 23.0871 21.358 23.75 21.6648C24.4167 21.9678 24.9337 22.3939 25.3011 22.9432C25.6686 23.4886 25.8561 24.125 25.8636 24.8523H23.1705ZM31.5227 33.1648C30.1515 33.1648 29.072 32.7652 28.2841 31.9659C27.5 31.1667 27.108 30.0682 27.108 28.6705C27.108 27.7689 27.286 26.9811 27.642 26.3068C27.9981 25.6288 28.5 25.1023 29.1477 24.7273C29.7955 24.3485 30.5587 24.1591 31.4375 24.1591C32.2633 24.1591 32.9943 24.3314 33.6307 24.6761C34.267 25.017 34.7652 25.5189 35.125 26.1818C35.4848 26.8447 35.6648 27.6553 35.6648 28.6136V29.3068H29.8466V29.3807C29.8466 29.9148 30 30.3447 30.3068 30.6705C30.6174 30.9962 31.0398 31.1591 31.5739 31.1591C31.9375 31.1591 32.2538 31.0833 32.5227 30.9318C32.7917 30.7765 32.9792 30.5549 33.0852 30.267L35.6364 30.3409C35.4773 31.197 35.0379 31.8826 34.3182 32.3977C33.5985 32.9091 32.6667 33.1648 31.5227 33.1648ZM29.8466 27.6932H33.0795C33.0758 27.2462 32.9242 26.8807 32.625 26.5966C32.3295 26.3087 31.9527 26.1648 31.4943 26.1648C31.0322 26.1648 30.6458 26.3106 30.3352 26.6023C30.0284 26.8939 29.8655 27.2576 29.8466 27.6932ZM37.0838 33V24.2727H39.7827V25.8636H39.8736C40.0327 25.2879 40.2921 24.8598 40.652 24.5795C41.0118 24.2955 41.4304 24.1534 41.9077 24.1534C42.1728 24.1534 42.4323 24.1875 42.6861 24.2557V26.6705C42.5535 26.625 42.3793 26.589 42.1634 26.5625C41.9512 26.536 41.7618 26.5227 41.5952 26.5227C41.099 26.5227 40.6861 26.6837 40.3565 27.0057C40.027 27.3239 39.8622 27.7424 39.8622 28.2614V33H37.0838ZM52.5497 24.2727L49.5554 33H46.3736L43.3849 24.2727H46.3111L47.919 30.2841H48.0099L49.6236 24.2727H52.5497ZM53.8026 33V24.2727H56.581V33H53.8026ZM55.1946 23.2557C54.8045 23.2557 54.4692 23.1269 54.1889 22.8693C53.9086 22.608 53.7685 22.2936 53.7685 21.9261C53.7685 21.5587 53.9086 21.2462 54.1889 20.9886C54.4692 20.7311 54.8045 20.6023 55.1946 20.6023C55.5885 20.6023 55.9238 20.7311 56.2003 20.9886C56.4806 21.2462 56.6207 21.5587 56.6207 21.9261C56.6207 22.2936 56.4806 22.608 56.2003 22.8693C55.9238 23.1269 55.5885 23.2557 55.1946 23.2557ZM62.4233 33.1648C61.5028 33.1648 60.7131 32.9754 60.054 32.5966C59.3987 32.214 58.8949 31.6856 58.5426 31.0114C58.1903 30.3333 58.0142 29.5511 58.0142 28.6648C58.0142 27.7708 58.1903 26.9867 58.5426 26.3125C58.8949 25.6345 59.4006 25.1061 60.0597 24.7273C60.7188 24.3485 61.5047 24.1591 62.4176 24.1591C63.2282 24.1591 63.9328 24.3049 64.5312 24.5966C65.1297 24.8883 65.5975 25.3011 65.9347 25.8352C66.2756 26.3655 66.4555 26.9886 66.4744 27.7045H63.8778C63.8248 27.2576 63.6733 26.9072 63.4233 26.6534C63.1771 26.3996 62.8551 26.2727 62.4574 26.2727C61.9725 26.2727 61.5824 26.4754 61.2869 26.8807C60.9915 27.2822 60.8438 27.8674 60.8438 28.6364C60.8438 29.4129 60.9896 30.0038 61.2812 30.4091C61.5767 30.8106 61.9688 31.0114 62.4574 31.0114C62.84 31.0114 63.16 30.8883 63.4176 30.642C63.6752 30.3958 63.8286 30.0417 63.8778 29.5795H66.4744C66.4517 30.2992 66.2737 30.928 65.9403 31.4659C65.607 32.0038 65.1411 32.4223 64.5426 32.7216C63.9479 33.017 63.2415 33.1648 62.4233 33.1648ZM71.9759 33.1648C70.6046 33.1648 69.5251 32.7652 68.7372 31.9659C67.9531 31.1667 67.5611 30.0682 67.5611 28.6705C67.5611 27.7689 67.7391 26.9811 68.0952 26.3068C68.4512 25.6288 68.9531 25.1023 69.6009 24.7273C70.2486 24.3485 71.0118 24.1591 71.8906 24.1591C72.7164 24.1591 73.4474 24.3314 74.0838 24.6761C74.7202 25.017 75.2183 25.5189 75.5781 26.1818C75.938 26.8447 76.1179 27.6553 76.1179 28.6136V29.3068H70.2997V29.3807C70.2997 29.9148 70.4531 30.3447 70.7599 30.6705C71.0705 30.9962 71.4929 31.1591 72.027 31.1591C72.3906 31.1591 72.7069 31.0833 72.9759 30.9318C73.2448 30.7765 73.4323 30.5549 73.5384 30.267L76.0895 30.3409C75.9304 31.197 75.491 31.8826 74.7713 32.3977C74.0516 32.9091 73.1198 33.1648 71.9759 33.1648ZM70.2997 27.6932H73.5327C73.5289 27.2462 73.3774 26.8807 73.0781 26.5966C72.7827 26.3087 72.4058 26.1648 71.9474 26.1648C71.4853 26.1648 71.099 26.3106 70.7884 26.6023C70.4815 26.8939 70.3187 27.2576 70.2997 27.6932ZM80.9744 33V21.3636H83.7869V30.7159H88.6278V33H80.9744ZM92.544 33.1477C91.7107 33.1477 91.0232 32.9356 90.4815 32.5114C89.9437 32.0871 89.6747 31.4432 89.6747 30.5795C89.6747 29.9356 89.8224 29.4242 90.1179 29.0455C90.4134 28.6629 90.8073 28.3807 91.2997 28.1989C91.7921 28.0133 92.3319 27.8958 92.919 27.8466C93.6652 27.7822 94.1955 27.7027 94.5099 27.608C94.8281 27.5133 94.9872 27.3333 94.9872 27.0682V27.0398C94.9872 26.7481 94.8868 26.5227 94.6861 26.3636C94.4853 26.2045 94.2145 26.125 93.8736 26.125C93.5062 26.125 93.2107 26.2045 92.9872 26.3636C92.7637 26.5227 92.6217 26.7424 92.5611 27.0227L89.9986 26.9318C90.1084 26.1364 90.491 25.4754 91.1463 24.9489C91.8054 24.4223 92.7221 24.1591 93.8963 24.1591C94.6387 24.1591 95.2997 24.2746 95.8793 24.5057C96.4626 24.733 96.9209 25.0625 97.2543 25.4943C97.5914 25.9261 97.7599 26.4508 97.7599 27.0682V33H95.1463V31.7841H95.0781C94.5933 32.6932 93.7486 33.1477 92.544 33.1477ZM93.402 31.3295C93.8452 31.3295 94.2221 31.197 94.5327 30.9318C94.8471 30.6667 95.0043 30.322 95.0043 29.8977V29.0682C94.849 29.1515 94.6293 29.2216 94.3452 29.2784C94.0649 29.3352 93.7959 29.3826 93.5384 29.4205C92.7164 29.5455 92.3054 29.8864 92.3054 30.4432C92.3054 30.7311 92.4077 30.9508 92.6122 31.1023C92.8168 31.2538 93.08 31.3295 93.402 31.3295ZM102.237 28.0227V33H99.4588V24.2727H102.101V25.875H102.197C102.391 25.3447 102.72 24.9261 103.186 24.6193C103.652 24.3125 104.207 24.1591 104.851 24.1591C105.464 24.1591 105.997 24.2955 106.447 24.5682C106.902 24.8409 107.254 25.2235 107.504 25.7159C107.758 26.2083 107.883 26.7822 107.879 27.4375V33H105.101V27.983C105.105 27.4981 104.982 27.1193 104.732 26.8466C104.485 26.5739 104.143 26.4375 103.703 26.4375C103.264 26.4375 102.91 26.5777 102.641 26.858C102.375 27.1383 102.241 27.5265 102.237 28.0227ZM112.787 33.125C112.147 33.125 111.562 32.9583 111.031 32.625C110.505 32.2879 110.084 31.7879 109.77 31.125C109.455 30.4621 109.298 29.6345 109.298 28.642C109.298 27.6155 109.461 26.7727 109.787 26.1136C110.113 25.4508 110.541 24.9602 111.071 24.642C111.601 24.3201 112.17 24.1591 112.776 24.1591C113.465 24.1591 114.007 24.3277 114.401 24.6648C114.798 24.9981 115.079 25.3655 115.241 25.767H115.298V21.3636H118.077V33H115.327V31.5852H115.241C115.067 31.9867 114.779 32.3447 114.378 32.6591C113.976 32.9697 113.446 33.125 112.787 33.125ZM113.753 30.9602C114.26 30.9602 114.654 30.75 114.935 30.3295C115.219 29.9091 115.361 29.3447 115.361 28.6364C115.361 27.9242 115.219 27.3617 114.935 26.9489C114.654 26.536 114.26 26.3295 113.753 26.3295C113.238 26.3295 112.842 26.5398 112.565 26.9602C112.289 27.3769 112.151 27.9356 112.151 28.6364C112.151 29.3409 112.289 29.9053 112.565 30.3295C112.842 30.75 113.238 30.9602 113.753 30.9602ZM127.453 26.9375L124.902 27.0057C124.864 26.7292 124.726 26.5038 124.487 26.3295C124.249 26.1515 123.946 26.0625 123.578 26.0625C123.256 26.0625 122.982 26.1269 122.754 26.2557C122.531 26.3807 122.421 26.5549 122.425 26.7784C122.421 26.9451 122.489 27.0928 122.629 27.2216C122.773 27.3466 123.029 27.447 123.396 27.5227L125.078 27.8409C126.794 28.1705 127.658 28.9583 127.669 30.2045C127.665 30.803 127.487 31.3239 127.135 31.767C126.786 32.2102 126.309 32.5549 125.703 32.8011C125.097 33.0436 124.404 33.1648 123.624 33.1648C122.377 33.1648 121.394 32.9091 120.675 32.3977C119.955 31.8826 119.546 31.1932 119.447 30.3295L122.192 30.2614C122.252 30.5795 122.41 30.822 122.663 30.9886C122.917 31.1553 123.241 31.2386 123.635 31.2386C123.991 31.2386 124.281 31.1723 124.504 31.0398C124.728 30.9072 124.841 30.7311 124.845 30.5114C124.834 30.1439 124.48 29.892 123.783 29.7557L122.26 29.4659C120.521 29.1439 119.658 28.3011 119.669 26.9375C119.665 26.0625 120.012 25.3807 120.709 24.892C121.406 24.4034 122.345 24.1591 123.527 24.1591C124.709 24.1591 125.641 24.4072 126.322 24.9034C127.004 25.3958 127.381 26.0739 127.453 26.9375ZM133.111 33.1648C132.19 33.1648 131.401 32.9754 130.741 32.5966C130.086 32.214 129.582 31.6856 129.23 31.0114C128.878 30.3333 128.702 29.5511 128.702 28.6648C128.702 27.7708 128.878 26.9867 129.23 26.3125C129.582 25.6345 130.088 25.1061 130.747 24.7273C131.406 24.3485 132.192 24.1591 133.105 24.1591C133.916 24.1591 134.62 24.3049 135.219 24.5966C135.817 24.8883 136.285 25.3011 136.622 25.8352C136.963 26.3655 137.143 26.9886 137.162 27.7045H134.565C134.512 27.2576 134.361 26.9072 134.111 26.6534C133.865 26.3996 133.543 26.2727 133.145 26.2727C132.66 26.2727 132.27 26.4754 131.974 26.8807C131.679 27.2822 131.531 27.8674 131.531 28.6364C131.531 29.4129 131.677 30.0038 131.969 30.4091C132.264 30.8106 132.656 31.0114 133.145 31.0114C133.527 31.0114 133.848 30.8883 134.105 30.642C134.363 30.3958 134.516 30.0417 134.565 29.5795H137.162C137.139 30.2992 136.961 30.928 136.628 31.4659C136.295 32.0038 135.829 32.4223 135.23 32.7216C134.635 33.017 133.929 33.1648 133.111 33.1648ZM141.044 33.1477C140.211 33.1477 139.523 32.9356 138.982 32.5114C138.444 32.0871 138.175 31.4432 138.175 30.5795C138.175 29.9356 138.322 29.4242 138.618 29.0455C138.913 28.6629 139.307 28.3807 139.8 28.1989C140.292 28.0133 140.832 27.8958 141.419 27.8466C142.165 27.7822 142.696 27.7027 143.01 27.608C143.328 27.5133 143.487 27.3333 143.487 27.0682V27.0398C143.487 26.7481 143.387 26.5227 143.186 26.3636C142.985 26.2045 142.714 26.125 142.374 26.125C142.006 26.125 141.711 26.2045 141.487 26.3636C141.264 26.5227 141.122 26.7424 141.061 27.0227L138.499 26.9318C138.608 26.1364 138.991 25.4754 139.646 24.9489C140.305 24.4223 141.222 24.1591 142.396 24.1591C143.139 24.1591 143.8 24.2746 144.379 24.5057C144.963 24.733 145.421 25.0625 145.754 25.4943C146.091 25.9261 146.26 26.4508 146.26 27.0682V33H143.646V31.7841H143.578C143.093 32.6932 142.249 33.1477 141.044 33.1477ZM141.902 31.3295C142.345 31.3295 142.722 31.197 143.033 30.9318C143.347 30.6667 143.504 30.322 143.504 29.8977V29.0682C143.349 29.1515 143.129 29.2216 142.845 29.2784C142.565 29.3352 142.296 29.3826 142.038 29.4205C141.216 29.5455 140.805 29.8864 140.805 30.4432C140.805 30.7311 140.908 30.9508 141.112 31.1023C141.317 31.2538 141.58 31.3295 141.902 31.3295ZM147.959 36.2727V24.2727H150.709V25.767H150.794C150.961 25.3655 151.241 24.9981 151.635 24.6648C152.033 24.3277 152.576 24.1591 153.266 24.1591C153.875 24.1591 154.444 24.3201 154.97 24.642C155.497 24.9602 155.923 25.4508 156.249 26.1136C156.574 26.7727 156.737 27.6155 156.737 28.642C156.737 29.6345 156.58 30.4621 156.266 31.125C155.955 31.7879 155.535 32.2879 155.004 32.625C154.478 32.9583 153.893 33.125 153.249 33.125C152.589 33.125 152.059 32.9697 151.658 32.6591C151.26 32.3447 150.972 31.9867 150.794 31.5852H150.737V36.2727H147.959ZM150.68 28.6364C150.68 29.3447 150.821 29.9091 151.101 30.3295C151.385 30.75 151.781 30.9602 152.288 30.9602C152.804 30.9602 153.197 30.75 153.47 30.3295C153.747 29.9053 153.885 29.3409 153.885 28.6364C153.885 27.9356 153.747 27.3769 153.47 26.9602C153.197 26.5398 152.804 26.3295 152.288 26.3295C151.781 26.3295 151.385 26.536 151.101 26.9489C150.821 27.3617 150.68 27.9242 150.68 28.6364ZM162.273 33.1648C160.902 33.1648 159.822 32.7652 159.034 31.9659C158.25 31.1667 157.858 30.0682 157.858 28.6705C157.858 27.7689 158.036 26.9811 158.392 26.3068C158.748 25.6288 159.25 25.1023 159.898 24.7273C160.545 24.3485 161.309 24.1591 162.188 24.1591C163.013 24.1591 163.744 24.3314 164.381 24.6761C165.017 25.017 165.515 25.5189 165.875 26.1818C166.235 26.8447 166.415 27.6553 166.415 28.6136V29.3068H160.597V29.3807C160.597 29.9148 160.75 30.3447 161.057 30.6705C161.367 30.9962 161.79 31.1591 162.324 31.1591C162.688 31.1591 163.004 31.0833 163.273 30.9318C163.542 30.7765 163.729 30.5549 163.835 30.267L166.386 30.3409C166.227 31.197 165.788 31.8826 165.068 32.3977C164.348 32.9091 163.417 33.1648 162.273 33.1648ZM160.597 27.6932H163.83C163.826 27.2462 163.674 26.8807 163.375 26.5966C163.08 26.3087 162.703 26.1648 162.244 26.1648C161.782 26.1648 161.396 26.3106 161.085 26.6023C160.778 26.8939 160.616 27.2576 160.597 27.6932Z" fill="black"/>
<rect x="17.5" y="55.5" width="157" height="93" stroke="black" stroke-width="3"/>
<path d="M37.1705 99.8523C37.1326 99.4356 36.964 99.1117 36.6648 98.8807C36.3693 98.6458 35.947 98.5284 35.3977 98.5284C34.8523 98.5284 34.4432 98.6326 34.1705 98.8409C33.8977 99.0455 33.7595 99.3068 33.7557 99.625C33.7443 99.9697 33.8939 100.241 34.2045 100.438C34.5152 100.631 34.9337 100.784 35.4602 100.898L36.4602 101.125C37.608 101.379 38.4867 101.794 39.0966 102.369C39.7102 102.945 40.0189 103.697 40.0227 104.625C40.0189 105.731 39.6098 106.595 38.7955 107.216C37.9811 107.837 36.8485 108.148 35.3977 108.148C33.9356 108.148 32.7652 107.818 31.8864 107.159C31.0114 106.496 30.5644 105.485 30.5455 104.125H33.2386C33.2689 104.686 33.4754 105.11 33.858 105.398C34.2405 105.682 34.7424 105.824 35.3636 105.824C35.928 105.824 36.3693 105.712 36.6875 105.489C37.0057 105.265 37.1667 104.975 37.1705 104.619C37.1667 104.294 37.0152 104.034 36.7159 103.841C36.4167 103.644 35.947 103.472 35.3068 103.324L34.0909 103.04C33.0871 102.809 32.2936 102.436 31.7102 101.92C31.1307 101.402 30.8428 100.701 30.8466 99.8182C30.8428 99.0947 31.036 98.4621 31.4261 97.9205C31.8163 97.3788 32.3542 96.9583 33.0398 96.6591C33.7292 96.3561 34.517 96.2045 35.4034 96.2045C36.3049 96.2045 37.0871 96.358 37.75 96.6648C38.4167 96.9678 38.9337 97.3939 39.3011 97.9432C39.6686 98.4886 39.8561 99.125 39.8636 99.8523H37.1705ZM45.5227 108.165C44.1515 108.165 43.072 107.765 42.2841 106.966C41.5 106.167 41.108 105.068 41.108 103.67C41.108 102.769 41.286 101.981 41.642 101.307C41.9981 100.629 42.5 100.102 43.1477 99.7273C43.7955 99.3485 44.5587 99.1591 45.4375 99.1591C46.2633 99.1591 46.9943 99.3314 47.6307 99.6761C48.267 100.017 48.7652 100.519 49.125 101.182C49.4848 101.845 49.6648 102.655 49.6648 103.614V104.307H43.8466V104.381C43.8466 104.915 44 105.345 44.3068 105.67C44.6174 105.996 45.0398 106.159 45.5739 106.159C45.9375 106.159 46.2538 106.083 46.5227 105.932C46.7917 105.777 46.9792 105.555 47.0852 105.267L49.6364 105.341C49.4773 106.197 49.0379 106.883 48.3182 107.398C47.5985 107.909 46.6667 108.165 45.5227 108.165ZM43.8466 102.693H47.0795C47.0758 102.246 46.9242 101.881 46.625 101.597C46.3295 101.309 45.9527 101.165 45.4943 101.165C45.0322 101.165 44.6458 101.311 44.3352 101.602C44.0284 101.894 43.8655 102.258 43.8466 102.693ZM51.0838 108V99.2727H53.7827V100.864H53.8736C54.0327 100.288 54.2921 99.8598 54.652 99.5795C55.0118 99.2955 55.4304 99.1534 55.9077 99.1534C56.1728 99.1534 56.4323 99.1875 56.6861 99.2557V101.67C56.5535 101.625 56.3793 101.589 56.1634 101.562C55.9512 101.536 55.7618 101.523 55.5952 101.523C55.099 101.523 54.6861 101.684 54.3565 102.006C54.027 102.324 53.8622 102.742 53.8622 103.261V108H51.0838ZM66.5497 99.2727L63.5554 108H60.3736L57.3849 99.2727H60.3111L61.919 105.284H62.0099L63.6236 99.2727H66.5497ZM67.8026 108V99.2727H70.581V108H67.8026ZM69.1946 98.2557C68.8045 98.2557 68.4692 98.1269 68.1889 97.8693C67.9086 97.608 67.7685 97.2936 67.7685 96.9261C67.7685 96.5587 67.9086 96.2462 68.1889 95.9886C68.4692 95.7311 68.8045 95.6023 69.1946 95.6023C69.5885 95.6023 69.9238 95.7311 70.2003 95.9886C70.4806 96.2462 70.6207 96.5587 70.6207 96.9261C70.6207 97.2936 70.4806 97.608 70.2003 97.8693C69.9238 98.1269 69.5885 98.2557 69.1946 98.2557ZM76.4233 108.165C75.5028 108.165 74.7131 107.975 74.054 107.597C73.3987 107.214 72.8949 106.686 72.5426 106.011C72.1903 105.333 72.0142 104.551 72.0142 103.665C72.0142 102.771 72.1903 101.987 72.5426 101.312C72.8949 100.634 73.4006 100.106 74.0597 99.7273C74.7188 99.3485 75.5047 99.1591 76.4176 99.1591C77.2282 99.1591 77.9328 99.3049 78.5312 99.5966C79.1297 99.8883 79.5975 100.301 79.9347 100.835C80.2756 101.366 80.4555 101.989 80.4744 102.705H77.8778C77.8248 102.258 77.6733 101.907 77.4233 101.653C77.1771 101.4 76.8551 101.273 76.4574 101.273C75.9725 101.273 75.5824 101.475 75.2869 101.881C74.9915 102.282 74.8438 102.867 74.8438 103.636C74.8438 104.413 74.9896 105.004 75.2812 105.409C75.5767 105.811 75.9688 106.011 76.4574 106.011C76.84 106.011 77.16 105.888 77.4176 105.642C77.6752 105.396 77.8286 105.042 77.8778 104.58H80.4744C80.4517 105.299 80.2737 105.928 79.9403 106.466C79.607 107.004 79.1411 107.422 78.5426 107.722C77.9479 108.017 77.2415 108.165 76.4233 108.165ZM85.9759 108.165C84.6046 108.165 83.5251 107.765 82.7372 106.966C81.9531 106.167 81.5611 105.068 81.5611 103.67C81.5611 102.769 81.7391 101.981 82.0952 101.307C82.4512 100.629 82.9531 100.102 83.6009 99.7273C84.2486 99.3485 85.0118 99.1591 85.8906 99.1591C86.7164 99.1591 87.4474 99.3314 88.0838 99.6761C88.7202 100.017 89.2183 100.519 89.5781 101.182C89.938 101.845 90.1179 102.655 90.1179 103.614V104.307H84.2997V104.381C84.2997 104.915 84.4531 105.345 84.7599 105.67C85.0705 105.996 85.4929 106.159 86.027 106.159C86.3906 106.159 86.7069 106.083 86.9759 105.932C87.2448 105.777 87.4323 105.555 87.5384 105.267L90.0895 105.341C89.9304 106.197 89.491 106.883 88.7713 107.398C88.0516 107.909 87.1198 108.165 85.9759 108.165ZM84.2997 102.693H87.5327C87.5289 102.246 87.3774 101.881 87.0781 101.597C86.7827 101.309 86.4058 101.165 85.9474 101.165C85.4853 101.165 85.099 101.311 84.7884 101.602C84.4815 101.894 84.3187 102.258 84.2997 102.693Z" fill="black"/>
<rect x="193.5" y="55.5" width="157" height="93" stroke="black" stroke-width="3"/>
<path d="M213.17 99.8523C213.133 99.4356 212.964 99.1117 212.665 98.8807C212.369 98.6458 211.947 98.5284 211.398 98.5284C210.852 98.5284 210.443 98.6326 210.17 98.8409C209.898 99.0455 209.759 99.3068 209.756 99.625C209.744 99.9697 209.894 100.241 210.205 100.438C210.515 100.631 210.934 100.784 211.46 100.898L212.46 101.125C213.608 101.379 214.487 101.794 215.097 102.369C215.71 102.945 216.019 103.697 216.023 104.625C216.019 105.731 215.61 106.595 214.795 107.216C213.981 107.837 212.848 108.148 211.398 108.148C209.936 108.148 208.765 107.818 207.886 107.159C207.011 106.496 206.564 105.485 206.545 104.125H209.239C209.269 104.686 209.475 105.11 209.858 105.398C210.241 105.682 210.742 105.824 211.364 105.824C211.928 105.824 212.369 105.712 212.688 105.489C213.006 105.265 213.167 104.975 213.17 104.619C213.167 104.294 213.015 104.034 212.716 103.841C212.417 103.644 211.947 103.472 211.307 103.324L210.091 103.04C209.087 102.809 208.294 102.436 207.71 101.92C207.131 101.402 206.843 100.701 206.847 99.8182C206.843 99.0947 207.036 98.4621 207.426 97.9205C207.816 97.3788 208.354 96.9583 209.04 96.6591C209.729 96.3561 210.517 96.2045 211.403 96.2045C212.305 96.2045 213.087 96.358 213.75 96.6648C214.417 96.9678 214.934 97.3939 215.301 97.9432C215.669 98.4886 215.856 99.125 215.864 99.8523H213.17ZM221.523 108.165C220.152 108.165 219.072 107.765 218.284 106.966C217.5 106.167 217.108 105.068 217.108 103.67C217.108 102.769 217.286 101.981 217.642 101.307C217.998 100.629 218.5 100.102 219.148 99.7273C219.795 99.3485 220.559 99.1591 221.438 99.1591C222.263 99.1591 222.994 99.3314 223.631 99.6761C224.267 100.017 224.765 100.519 225.125 101.182C225.485 101.845 225.665 102.655 225.665 103.614V104.307H219.847V104.381C219.847 104.915 220 105.345 220.307 105.67C220.617 105.996 221.04 106.159 221.574 106.159C221.938 106.159 222.254 106.083 222.523 105.932C222.792 105.777 222.979 105.555 223.085 105.267L225.636 105.341C225.477 106.197 225.038 106.883 224.318 107.398C223.598 107.909 222.667 108.165 221.523 108.165ZM219.847 102.693H223.08C223.076 102.246 222.924 101.881 222.625 101.597C222.33 101.309 221.953 101.165 221.494 101.165C221.032 101.165 220.646 101.311 220.335 101.602C220.028 101.894 219.866 102.258 219.847 102.693ZM227.084 108V99.2727H229.783V100.864H229.874C230.033 100.288 230.292 99.8598 230.652 99.5795C231.012 99.2955 231.43 99.1534 231.908 99.1534C232.173 99.1534 232.432 99.1875 232.686 99.2557V101.67C232.554 101.625 232.379 101.589 232.163 101.562C231.951 101.536 231.762 101.523 231.595 101.523C231.099 101.523 230.686 101.684 230.357 102.006C230.027 102.324 229.862 102.742 229.862 103.261V108H227.084ZM242.55 99.2727L239.555 108H236.374L233.385 99.2727H236.311L237.919 105.284H238.01L239.624 99.2727H242.55ZM243.803 108V99.2727H246.581V108H243.803ZM245.195 98.2557C244.804 98.2557 244.469 98.1269 244.189 97.8693C243.909 97.608 243.768 97.2936 243.768 96.9261C243.768 96.5587 243.909 96.2462 244.189 95.9886C244.469 95.7311 244.804 95.6023 245.195 95.6023C245.589 95.6023 245.924 95.7311 246.2 95.9886C246.481 96.2462 246.621 96.5587 246.621 96.9261C246.621 97.2936 246.481 97.608 246.2 97.8693C245.924 98.1269 245.589 98.2557 245.195 98.2557ZM252.423 108.165C251.503 108.165 250.713 107.975 250.054 107.597C249.399 107.214 248.895 106.686 248.543 106.011C248.19 105.333 248.014 104.551 248.014 103.665C248.014 102.771 248.19 101.987 248.543 101.312C248.895 100.634 249.401 100.106 250.06 99.7273C250.719 99.3485 251.505 99.1591 252.418 99.1591C253.228 99.1591 253.933 99.3049 254.531 99.5966C255.13 99.8883 255.598 100.301 255.935 100.835C256.276 101.366 256.455 101.989 256.474 102.705H253.878C253.825 102.258 253.673 101.907 253.423 101.653C253.177 101.4 252.855 101.273 252.457 101.273C251.973 101.273 251.582 101.475 251.287 101.881C250.991 102.282 250.844 102.867 250.844 103.636C250.844 104.413 250.99 105.004 251.281 105.409C251.577 105.811 251.969 106.011 252.457 106.011C252.84 106.011 253.16 105.888 253.418 105.642C253.675 105.396 253.829 105.042 253.878 104.58H256.474C256.452 105.299 256.274 105.928 255.94 106.466C255.607 107.004 255.141 107.422 254.543 107.722C253.948 108.017 253.241 108.165 252.423 108.165ZM261.976 108.165C260.605 108.165 259.525 107.765 258.737 106.966C257.953 106.167 257.561 105.068 257.561 103.67C257.561 102.769 257.739 101.981 258.095 101.307C258.451 100.629 258.953 100.102 259.601 99.7273C260.249 99.3485 261.012 99.1591 261.891 99.1591C262.716 99.1591 263.447 99.3314 264.084 99.6761C264.72 100.017 265.218 100.519 265.578 101.182C265.938 101.845 266.118 102.655 266.118 103.614V104.307H260.3V104.381C260.3 104.915 260.453 105.345 260.76 105.67C261.071 105.996 261.493 106.159 262.027 106.159C262.391 106.159 262.707 106.083 262.976 105.932C263.245 105.777 263.432 105.555 263.538 105.267L266.089 105.341C265.93 106.197 265.491 106.883 264.771 107.398C264.052 107.909 263.12 108.165 261.976 108.165ZM260.3 102.693H263.533C263.529 102.246 263.377 101.881 263.078 101.597C262.783 101.309 262.406 101.165 261.947 101.165C261.485 101.165 261.099 101.311 260.788 101.602C260.482 101.894 260.319 102.258 260.3 102.693Z" fill="black"/>
<rect x="369.5" y="55.5" width="157" height="93" stroke="black" stroke-width="3"/>
<path d="M389.17 99.8523C389.133 99.4356 388.964 99.1117 388.665 98.8807C388.369 98.6458 387.947 98.5284 387.398 98.5284C386.852 98.5284 386.443 98.6326 386.17 98.8409C385.898 99.0455 385.759 99.3068 385.756 99.625C385.744 99.9697 385.894 100.241 386.205 100.438C386.515 100.631 386.934 100.784 387.46 100.898L388.46 101.125C389.608 101.379 390.487 101.794 391.097 102.369C391.71 102.945 392.019 103.697 392.023 104.625C392.019 105.731 391.61 106.595 390.795 107.216C389.981 107.837 388.848 108.148 387.398 108.148C385.936 108.148 384.765 107.818 383.886 107.159C383.011 106.496 382.564 105.485 382.545 104.125H385.239C385.269 104.686 385.475 105.11 385.858 105.398C386.241 105.682 386.742 105.824 387.364 105.824C387.928 105.824 388.369 105.712 388.688 105.489C389.006 105.265 389.167 104.975 389.17 104.619C389.167 104.294 389.015 104.034 388.716 103.841C388.417 103.644 387.947 103.472 387.307 103.324L386.091 103.04C385.087 102.809 384.294 102.436 383.71 101.92C383.131 101.402 382.843 100.701 382.847 99.8182C382.843 99.0947 383.036 98.4621 383.426 97.9205C383.816 97.3788 384.354 96.9583 385.04 96.6591C385.729 96.3561 386.517 96.2045 387.403 96.2045C388.305 96.2045 389.087 96.358 389.75 96.6648C390.417 96.9678 390.934 97.3939 391.301 97.9432C391.669 98.4886 391.856 99.125 391.864 99.8523H389.17ZM397.523 108.165C396.152 108.165 395.072 107.765 394.284 106.966C393.5 106.167 393.108 105.068 393.108 103.67C393.108 102.769 393.286 101.981 393.642 101.307C393.998 100.629 394.5 100.102 395.148 99.7273C395.795 99.3485 396.559 99.1591 397.438 99.1591C398.263 99.1591 398.994 99.3314 399.631 99.6761C400.267 100.017 400.765 100.519 401.125 101.182C401.485 101.845 401.665 102.655 401.665 103.614V104.307H395.847V104.381C395.847 104.915 396 105.345 396.307 105.67C396.617 105.996 397.04 106.159 397.574 106.159C397.938 106.159 398.254 106.083 398.523 105.932C398.792 105.777 398.979 105.555 399.085 105.267L401.636 105.341C401.477 106.197 401.038 106.883 400.318 107.398C399.598 107.909 398.667 108.165 397.523 108.165ZM395.847 102.693H399.08C399.076 102.246 398.924 101.881 398.625 101.597C398.33 101.309 397.953 101.165 397.494 101.165C397.032 101.165 396.646 101.311 396.335 101.602C396.028 101.894 395.866 102.258 395.847 102.693ZM403.084 108V99.2727H405.783V100.864H405.874C406.033 100.288 406.292 99.8598 406.652 99.5795C407.012 99.2955 407.43 99.1534 407.908 99.1534C408.173 99.1534 408.432 99.1875 408.686 99.2557V101.67C408.554 101.625 408.379 101.589 408.163 101.562C407.951 101.536 407.762 101.523 407.595 101.523C407.099 101.523 406.686 101.684 406.357 102.006C406.027 102.324 405.862 102.742 405.862 103.261V108H403.084ZM418.55 99.2727L415.555 108H412.374L409.385 99.2727H412.311L413.919 105.284H414.01L415.624 99.2727H418.55ZM419.803 108V99.2727H422.581V108H419.803ZM421.195 98.2557C420.804 98.2557 420.469 98.1269 420.189 97.8693C419.909 97.608 419.768 97.2936 419.768 96.9261C419.768 96.5587 419.909 96.2462 420.189 95.9886C420.469 95.7311 420.804 95.6023 421.195 95.6023C421.589 95.6023 421.924 95.7311 422.2 95.9886C422.481 96.2462 422.621 96.5587 422.621 96.9261C422.621 97.2936 422.481 97.608 422.2 97.8693C421.924 98.1269 421.589 98.2557 421.195 98.2557ZM428.423 108.165C427.503 108.165 426.713 107.975 426.054 107.597C425.399 107.214 424.895 106.686 424.543 106.011C424.19 105.333 424.014 104.551 424.014 103.665C424.014 102.771 424.19 101.987 424.543 101.312C424.895 100.634 425.401 100.106 426.06 99.7273C426.719 99.3485 427.505 99.1591 428.418 99.1591C429.228 99.1591 429.933 99.3049 430.531 99.5966C431.13 99.8883 431.598 100.301 431.935 100.835C432.276 101.366 432.455 101.989 432.474 102.705H429.878C429.825 102.258 429.673 101.907 429.423 101.653C429.177 101.4 428.855 101.273 428.457 101.273C427.973 101.273 427.582 101.475 427.287 101.881C426.991 102.282 426.844 102.867 426.844 103.636C426.844 104.413 426.99 105.004 427.281 105.409C427.577 105.811 427.969 106.011 428.457 106.011C428.84 106.011 429.16 105.888 429.418 105.642C429.675 105.396 429.829 105.042 429.878 104.58H432.474C432.452 105.299 432.274 105.928 431.94 106.466C431.607 107.004 431.141 107.422 430.543 107.722C429.948 108.017 429.241 108.165 428.423 108.165ZM437.976 108.165C436.605 108.165 435.525 107.765 434.737 106.966C433.953 106.167 433.561 105.068 433.561 103.67C433.561 102.769 433.739 101.981 434.095 101.307C434.451 100.629 434.953 100.102 435.601 99.7273C436.249 99.3485 437.012 99.1591 437.891 99.1591C438.716 99.1591 439.447 99.3314 440.084 99.6761C440.72 100.017 441.218 100.519 441.578 101.182C441.938 101.845 442.118 102.655 442.118 103.614V104.307H436.3V104.381C436.3 104.915 436.453 105.345 436.76 105.67C437.071 105.996 437.493 106.159 438.027 106.159C438.391 106.159 438.707 106.083 438.976 105.932C439.245 105.777 439.432 105.555 439.538 105.267L442.089 105.341C441.93 106.197 441.491 106.883 440.771 107.398C440.052 107.909 439.12 108.165 437.976 108.165ZM436.3 102.693H439.533C439.529 102.246 439.377 101.881 439.078 101.597C438.783 101.309 438.406 101.165 437.947 101.165C437.485 101.165 437.099 101.311 436.788 101.602C436.482 101.894 436.319 102.258 436.3 102.693Z" fill="black"/>
</svg>
