<svg width="352" height="352" viewBox="0 0 352 352" fill="none" xmlns="http://www.w3.org/2000/svg">
<rect width="352" height="352" fill="white"/>
<rect x="193.5" y="129.5" width="157" height="93" stroke="black" stroke-width="3"/>
<path d="M213.17 173.852C213.133 173.436 212.964 173.112 212.665 172.881C212.369 172.646 211.947 172.528 211.398 172.528C210.852 172.528 210.443 172.633 210.17 172.841C209.898 173.045 209.759 173.307 209.756 173.625C209.744 173.97 209.894 174.241 210.205 174.438C210.515 174.631 210.934 174.784 211.46 174.898L212.46 175.125C213.608 175.379 214.487 175.794 215.097 176.369C215.71 176.945 216.019 177.697 216.023 178.625C216.019 179.731 215.61 180.595 214.795 181.216C213.981 181.837 212.848 182.148 211.398 182.148C209.936 182.148 208.765 181.818 207.886 181.159C207.011 180.496 206.564 179.485 206.545 178.125H209.239C209.269 178.686 209.475 179.11 209.858 179.398C210.241 179.682 210.742 179.824 211.364 179.824C211.928 179.824 212.369 179.712 212.688 179.489C213.006 179.265 213.167 178.975 213.17 178.619C213.167 178.294 213.015 178.034 212.716 177.841C212.417 177.644 211.947 177.472 211.307 177.324L210.091 177.04C209.087 176.809 208.294 176.436 207.71 175.92C207.131 175.402 206.843 174.701 206.847 173.818C206.843 173.095 207.036 172.462 207.426 171.92C207.816 171.379 208.354 170.958 209.04 170.659C209.729 170.356 210.517 170.205 211.403 170.205C212.305 170.205 213.087 170.358 213.75 170.665C214.417 170.968 214.934 171.394 215.301 171.943C215.669 172.489 215.856 173.125 215.864 173.852H213.17ZM221.523 182.165C220.152 182.165 219.072 181.765 218.284 180.966C217.5 180.167 217.108 179.068 217.108 177.67C217.108 176.769 217.286 175.981 217.642 175.307C217.998 174.629 218.5 174.102 219.148 173.727C219.795 173.348 220.559 173.159 221.438 173.159C222.263 173.159 222.994 173.331 223.631 173.676C224.267 174.017 224.765 174.519 225.125 175.182C225.485 175.845 225.665 176.655 225.665 177.614V178.307H219.847V178.381C219.847 178.915 220 179.345 220.307 179.67C220.617 179.996 221.04 180.159 221.574 180.159C221.938 180.159 222.254 180.083 222.523 179.932C222.792 179.777 222.979 179.555 223.085 179.267L225.636 179.341C225.477 180.197 225.038 180.883 224.318 181.398C223.598 181.909 222.667 182.165 221.523 182.165ZM219.847 176.693H223.08C223.076 176.246 222.924 175.881 222.625 175.597C222.33 175.309 221.953 175.165 221.494 175.165C221.032 175.165 220.646 175.311 220.335 175.602C220.028 175.894 219.866 176.258 219.847 176.693ZM227.084 182V173.273H229.783V174.864H229.874C230.033 174.288 230.292 173.86 230.652 173.58C231.012 173.295 231.43 173.153 231.908 173.153C232.173 173.153 232.432 173.188 232.686 173.256V175.67C232.554 175.625 232.379 175.589 232.163 175.562C231.951 175.536 231.762 175.523 231.595 175.523C231.099 175.523 230.686 175.684 230.357 176.006C230.027 176.324 229.862 176.742 229.862 177.261V182H227.084ZM242.55 173.273L239.555 182H236.374L233.385 173.273H236.311L237.919 179.284H238.01L239.624 173.273H242.55ZM243.803 182V173.273H246.581V182H243.803ZM245.195 172.256C244.804 172.256 244.469 172.127 244.189 171.869C243.909 171.608 243.768 171.294 243.768 170.926C243.768 170.559 243.909 170.246 244.189 169.989C244.469 169.731 244.804 169.602 245.195 169.602C245.589 169.602 245.924 169.731 246.2 169.989C246.481 170.246 246.621 170.559 246.621 170.926C246.621 171.294 246.481 171.608 246.2 171.869C245.924 172.127 245.589 172.256 245.195 172.256ZM252.423 182.165C251.503 182.165 250.713 181.975 250.054 181.597C249.399 181.214 248.895 180.686 248.543 180.011C248.19 179.333 248.014 178.551 248.014 177.665C248.014 176.771 248.19 175.987 248.543 175.312C248.895 174.634 249.401 174.106 250.06 173.727C250.719 173.348 251.505 173.159 252.418 173.159C253.228 173.159 253.933 173.305 254.531 173.597C255.13 173.888 255.598 174.301 255.935 174.835C256.276 175.366 256.455 175.989 256.474 176.705H253.878C253.825 176.258 253.673 175.907 253.423 175.653C253.177 175.4 252.855 175.273 252.457 175.273C251.973 175.273 251.582 175.475 251.287 175.881C250.991 176.282 250.844 176.867 250.844 177.636C250.844 178.413 250.99 179.004 251.281 179.409C251.577 179.811 251.969 180.011 252.457 180.011C252.84 180.011 253.16 179.888 253.418 179.642C253.675 179.396 253.829 179.042 253.878 178.58H256.474C256.452 179.299 256.274 179.928 255.94 180.466C255.607 181.004 255.141 181.422 254.543 181.722C253.948 182.017 253.241 182.165 252.423 182.165ZM261.976 182.165C260.605 182.165 259.525 181.765 258.737 180.966C257.953 180.167 257.561 179.068 257.561 177.67C257.561 176.769 257.739 175.981 258.095 175.307C258.451 174.629 258.953 174.102 259.601 173.727C260.249 173.348 261.012 173.159 261.891 173.159C262.716 173.159 263.447 173.331 264.084 173.676C264.72 174.017 265.218 174.519 265.578 175.182C265.938 175.845 266.118 176.655 266.118 177.614V178.307H260.3V178.381C260.3 178.915 260.453 179.345 260.76 179.67C261.071 179.996 261.493 180.159 262.027 180.159C262.391 180.159 262.707 180.083 262.976 179.932C263.245 179.777 263.432 179.555 263.538 179.267L266.089 179.341C265.93 180.197 265.491 180.883 264.771 181.398C264.052 181.909 263.12 182.165 261.976 182.165ZM260.3 176.693H263.533C263.529 176.246 263.377 175.881 263.078 175.597C262.783 175.309 262.406 175.165 261.947 175.165C261.485 175.165 261.099 175.311 260.788 175.602C260.482 175.894 260.319 176.258 260.3 176.693Z" fill="black"/>
<rect x="1.5" y="1.5" width="157" height="93" stroke="black" stroke-width="3"/>
<path d="M21.9375 42.3636H24.7273V50.0511C24.7273 50.9337 24.5208 51.6799 24.108 52.2898C23.6951 52.8996 23.1193 53.3617 22.3807 53.6761C21.642 53.9905 20.7841 54.1477 19.8068 54.1477C18.8258 54.1477 17.964 53.9905 17.2216 53.6761C16.483 53.3617 15.9072 52.8996 15.4943 52.2898C15.0852 51.6799 14.8807 50.9337 14.8807 50.0511V42.3636H17.6932V49.9432C17.6932 50.4697 17.8883 50.8902 18.2784 51.2045C18.6686 51.5152 19.178 51.6705 19.8068 51.6705C20.4432 51.6705 20.9564 51.5152 21.3466 51.2045C21.7405 50.8902 21.9375 50.4697 21.9375 49.9432V42.3636ZM34.1094 47.9375L31.5582 48.0057C31.5204 47.7292 31.3821 47.5038 31.1435 47.3295C30.9048 47.1515 30.6018 47.0625 30.2344 47.0625C29.9124 47.0625 29.6378 47.1269 29.4105 47.2557C29.187 47.3807 29.0772 47.5549 29.081 47.7784C29.0772 47.9451 29.1454 48.0928 29.2855 48.2216C29.4295 48.3466 29.6851 48.447 30.0526 48.5227L31.7344 48.8409C33.4503 49.1705 34.3139 49.9583 34.3253 51.2045C34.3215 51.803 34.1435 52.3239 33.7912 52.767C33.4427 53.2102 32.9654 53.5549 32.3594 53.8011C31.7533 54.0436 31.0601 54.1648 30.2798 54.1648C29.0336 54.1648 28.0507 53.9091 27.331 53.3977C26.6113 52.8826 26.2022 52.1932 26.1037 51.3295L28.848 51.2614C28.9086 51.5795 29.0658 51.822 29.3196 51.9886C29.5734 52.1553 29.8973 52.2386 30.2912 52.2386C30.6473 52.2386 30.937 52.1723 31.1605 52.0398C31.384 51.9072 31.4976 51.7311 31.5014 51.5114C31.4901 51.1439 31.1359 50.892 30.4389 50.7557L28.9162 50.4659C27.1776 50.1439 26.3139 49.3011 26.3253 47.9375C26.3215 47.0625 26.6681 46.3807 27.3651 45.892C28.062 45.4034 29.0014 45.1591 30.1832 45.1591C31.3651 45.1591 32.2969 45.4072 32.9787 45.9034C33.6605 46.3958 34.0374 47.0739 34.1094 47.9375ZM39.7727 54.1648C38.4015 54.1648 37.322 53.7652 36.5341 52.9659C35.75 52.1667 35.358 51.0682 35.358 49.6705C35.358 48.7689 35.536 47.9811 35.892 47.3068C36.2481 46.6288 36.75 46.1023 37.3977 45.7273C38.0455 45.3485 38.8087 45.1591 39.6875 45.1591C40.5133 45.1591 41.2443 45.3314 41.8807 45.6761C42.517 46.017 43.0152 46.5189 43.375 47.1818C43.7348 47.8447 43.9148 48.6553 43.9148 49.6136V50.3068H38.0966V50.3807C38.0966 50.9148 38.25 51.3447 38.5568 51.6705C38.8674 51.9962 39.2898 52.1591 39.8239 52.1591C40.1875 52.1591 40.5038 52.0833 40.7727 51.9318C41.0417 51.7765 41.2292 51.5549 41.3352 51.267L43.8864 51.3409C43.7273 52.197 43.2879 52.8826 42.5682 53.3977C41.8485 53.9091 40.9167 54.1648 39.7727 54.1648ZM38.0966 48.6932H41.3295C41.3258 48.2462 41.1742 47.8807 40.875 47.5966C40.5795 47.3087 40.2027 47.1648 39.7443 47.1648C39.2822 47.1648 38.8958 47.3106 38.5852 47.6023C38.2784 47.8939 38.1155 48.2576 38.0966 48.6932ZM45.3338 54V45.2727H48.0327V46.8636H48.1236C48.2827 46.2879 48.5421 45.8598 48.902 45.5795C49.2618 45.2955 49.6804 45.1534 50.1577 45.1534C50.3887 45.1534 50.6084 45.1818 50.8168 45.2386C51.0251 45.2955 51.2126 45.3731 51.3793 45.4716L50.5611 47.7557C50.4399 47.6989 50.3092 47.6496 50.169 47.608C50.0327 47.5625 49.8812 47.5398 49.7145 47.5398C49.2789 47.5398 48.9039 47.697 48.5895 48.0114C48.2751 48.3258 48.116 48.7424 48.1122 49.2614V54H45.3338Z" fill="black"/>
<rect x="1.5" y="129.5" width="157" height="93" stroke="black" stroke-width="3"/>
<path d="M24.7841 170.364V182H22.3977L17.767 175.284H17.6932V182H14.8807V170.364H17.3011L21.8807 177.068H21.9773V170.364H24.7841ZM30.6321 182.165C29.2609 182.165 28.1813 181.765 27.3935 180.966C26.6094 180.167 26.2173 179.068 26.2173 177.67C26.2173 176.769 26.3954 175.981 26.7514 175.307C27.1075 174.629 27.6094 174.102 28.2571 173.727C28.9048 173.348 29.6681 173.159 30.5469 173.159C31.3726 173.159 32.1037 173.331 32.7401 173.676C33.3764 174.017 33.8745 174.519 34.2344 175.182C34.5942 175.845 34.7741 176.655 34.7741 177.614V178.307H28.956V178.381C28.956 178.915 29.1094 179.345 29.4162 179.67C29.7268 179.996 30.1491 180.159 30.6832 180.159C31.0469 180.159 31.3632 180.083 31.6321 179.932C31.901 179.777 32.0885 179.555 32.1946 179.267L34.7457 179.341C34.5866 180.197 34.1473 180.883 33.4276 181.398C32.7079 181.909 31.776 182.165 30.6321 182.165ZM28.956 176.693H32.1889C32.1851 176.246 32.0336 175.881 31.7344 175.597C31.4389 175.309 31.062 175.165 30.6037 175.165C30.1416 175.165 29.7552 175.311 29.4446 175.602C29.1378 175.894 28.9749 176.258 28.956 176.693ZM40.2727 182.165C38.9015 182.165 37.822 181.765 37.0341 180.966C36.25 180.167 35.858 179.068 35.858 177.67C35.858 176.769 36.036 175.981 36.392 175.307C36.7481 174.629 37.25 174.102 37.8977 173.727C38.5455 173.348 39.3087 173.159 40.1875 173.159C41.0133 173.159 41.7443 173.331 42.3807 173.676C43.017 174.017 43.5152 174.519 43.875 175.182C44.2348 175.845 44.4148 176.655 44.4148 177.614V178.307H38.5966V178.381C38.5966 178.915 38.75 179.345 39.0568 179.67C39.3674 179.996 39.7898 180.159 40.3239 180.159C40.6875 180.159 41.0038 180.083 41.2727 179.932C41.5417 179.777 41.7292 179.555 41.8352 179.267L44.3864 179.341C44.2273 180.197 43.7879 180.883 43.0682 181.398C42.3485 181.909 41.4167 182.165 40.2727 182.165ZM38.5966 176.693H41.8295C41.8258 176.246 41.6742 175.881 41.375 175.597C41.0795 175.309 40.7027 175.165 40.2443 175.165C39.7822 175.165 39.3958 175.311 39.0852 175.602C38.7784 175.894 38.6155 176.258 38.5966 176.693ZM49.0213 182.125C48.3812 182.125 47.7959 181.958 47.2656 181.625C46.7391 181.288 46.3187 180.788 46.0043 180.125C45.6899 179.462 45.5327 178.634 45.5327 177.642C45.5327 176.616 45.6955 175.773 46.0213 175.114C46.3471 174.451 46.7751 173.96 47.3054 173.642C47.8357 173.32 48.4039 173.159 49.0099 173.159C49.6993 173.159 50.241 173.328 50.6349 173.665C51.0327 173.998 51.313 174.366 51.4759 174.767H51.5327V170.364H54.3111V182H51.5611V180.585H51.4759C51.3016 180.987 51.0137 181.345 50.6122 181.659C50.2107 181.97 49.6804 182.125 49.0213 182.125ZM49.9872 179.96C50.4948 179.96 50.8887 179.75 51.169 179.33C51.4531 178.909 51.5952 178.345 51.5952 177.636C51.5952 176.924 51.4531 176.362 51.169 175.949C50.8887 175.536 50.4948 175.33 49.9872 175.33C49.4721 175.33 49.0762 175.54 48.7997 175.96C48.5232 176.377 48.3849 176.936 48.3849 177.636C48.3849 178.341 48.5232 178.905 48.7997 179.33C49.0762 179.75 49.4721 179.96 49.9872 179.96ZM63.6875 175.938L61.1364 176.006C61.0985 175.729 60.9602 175.504 60.7216 175.33C60.483 175.152 60.1799 175.062 59.8125 175.062C59.4905 175.062 59.2159 175.127 58.9886 175.256C58.7652 175.381 58.6553 175.555 58.6591 175.778C58.6553 175.945 58.7235 176.093 58.8636 176.222C59.0076 176.347 59.2633 176.447 59.6307 176.523L61.3125 176.841C63.0284 177.17 63.892 177.958 63.9034 179.205C63.8996 179.803 63.7216 180.324 63.3693 180.767C63.0208 181.21 62.5436 181.555 61.9375 181.801C61.3314 182.044 60.6383 182.165 59.858 182.165C58.6117 182.165 57.6288 181.909 56.9091 181.398C56.1894 180.883 55.7803 180.193 55.6818 179.33L58.4261 179.261C58.4867 179.58 58.6439 179.822 58.8977 179.989C59.1515 180.155 59.4754 180.239 59.8693 180.239C60.2254 180.239 60.5152 180.172 60.7386 180.04C60.9621 179.907 61.0758 179.731 61.0795 179.511C61.0682 179.144 60.714 178.892 60.017 178.756L58.4943 178.466C56.7557 178.144 55.892 177.301 55.9034 175.938C55.8996 175.062 56.2462 174.381 56.9432 173.892C57.6402 173.403 58.5795 173.159 59.7614 173.159C60.9432 173.159 61.875 173.407 62.5568 173.903C63.2386 174.396 63.6155 175.074 63.6875 175.938Z" fill="black"/>
<rect x="1.5" y="257.5" width="157" height="93" stroke="black" stroke-width="3"/>
<path d="M25.8636 304.182C25.8636 305.462 25.6174 306.547 25.125 307.438C24.6326 308.328 23.9659 309.004 23.125 309.466C22.2879 309.928 21.3485 310.159 20.3068 310.159C19.2614 310.159 18.3182 309.928 17.4773 309.466C16.6402 309 15.9773 308.322 15.4886 307.432C15 306.542 14.7557 305.458 14.7557 304.182C14.7557 302.898 15 301.812 15.4886 300.926C15.9773 300.036 16.6402 299.36 17.4773 298.898C18.3182 298.436 19.2614 298.205 20.3068 298.205C21.3485 298.205 22.2879 298.436 23.125 298.898C23.9659 299.36 24.6326 300.036 25.125 300.926C25.6174 301.812 25.8636 302.898 25.8636 304.182ZM22.9886 304.182C22.9886 303.042 22.7519 302.172 22.2784 301.574C21.8049 300.972 21.1477 300.67 20.3068 300.67C19.4697 300.67 18.8125 300.972 18.3352 301.574C17.8617 302.172 17.625 303.042 17.625 304.182C17.625 305.322 17.8617 306.193 18.3352 306.795C18.8125 307.394 19.4697 307.693 20.3068 307.693C21.1477 307.693 21.8049 307.394 22.2784 306.795C22.7519 306.193 22.9886 305.322 22.9886 304.182ZM33.1364 306.233V301.273H35.9091V310H33.2614V308.375H33.1705C32.9773 308.909 32.6477 309.333 32.1818 309.648C31.7197 309.958 31.161 310.114 30.5057 310.114C29.9072 310.114 29.3826 309.977 28.9318 309.705C28.4848 309.432 28.1364 309.049 27.8864 308.557C27.6364 308.064 27.5095 307.491 27.5057 306.835V301.273H30.2841V306.29C30.2879 306.763 30.4129 307.136 30.6591 307.409C30.9053 307.682 31.2405 307.818 31.6648 307.818C32.0777 307.818 32.4261 307.682 32.7102 307.409C32.9943 307.133 33.1364 306.741 33.1364 306.233ZM42.6037 301.273V303.318H41.0298V307.256C41.0298 307.513 41.0904 307.695 41.2116 307.801C41.3366 307.903 41.5109 307.955 41.7344 307.955C41.8404 307.955 41.9522 307.945 42.0696 307.926C42.1908 307.903 42.2817 307.884 42.3423 307.869L42.7628 309.875C42.6302 309.913 42.4446 309.958 42.206 310.011C41.9673 310.068 41.6795 310.106 41.3423 310.125C40.3613 310.17 39.598 309.975 39.0526 309.54C38.5109 309.104 38.2438 308.445 38.2514 307.562V303.318H37.098V301.273H38.2514V299.182H41.0298V301.273H42.6037ZM48.0014 310.165C47.081 310.165 46.2912 309.975 45.6321 309.597C44.9768 309.214 44.473 308.686 44.1207 308.011C43.7685 307.333 43.5923 306.551 43.5923 305.665C43.5923 304.771 43.7685 303.987 44.1207 303.312C44.473 302.634 44.9787 302.106 45.6378 301.727C46.2969 301.348 47.0829 301.159 47.9957 301.159C48.8063 301.159 49.5109 301.305 50.1094 301.597C50.7079 301.888 51.1757 302.301 51.5128 302.835C51.8537 303.366 52.0336 303.989 52.0526 304.705H49.456C49.4029 304.258 49.2514 303.907 49.0014 303.653C48.7552 303.4 48.4332 303.273 48.0355 303.273C47.5507 303.273 47.1605 303.475 46.8651 303.881C46.5696 304.282 46.4219 304.867 46.4219 305.636C46.4219 306.413 46.5677 307.004 46.8594 307.409C47.1548 307.811 47.5469 308.011 48.0355 308.011C48.4181 308.011 48.7382 307.888 48.9957 307.642C49.2533 307.396 49.4067 307.042 49.456 306.58H52.0526C52.0298 307.299 51.8518 307.928 51.5185 308.466C51.1851 309.004 50.7192 309.422 50.1207 309.722C49.526 310.017 48.8196 310.165 48.0014 310.165ZM57.5483 310.165C56.6354 310.165 55.8494 309.977 55.1903 309.602C54.5313 309.223 54.0237 308.697 53.6676 308.023C53.3153 307.345 53.1392 306.559 53.1392 305.665C53.1392 304.767 53.3153 303.981 53.6676 303.307C54.0237 302.629 54.5313 302.102 55.1903 301.727C55.8494 301.348 56.6354 301.159 57.5483 301.159C58.465 301.159 59.2509 301.348 59.9062 301.727C60.5653 302.102 61.071 302.629 61.4233 303.307C61.7794 303.981 61.9574 304.767 61.9574 305.665C61.9574 306.559 61.7794 307.345 61.4233 308.023C61.071 308.697 60.5653 309.223 59.9062 309.602C59.2509 309.977 58.465 310.165 57.5483 310.165ZM57.5653 308.068C58.0616 308.068 58.446 307.845 58.7188 307.398C58.9915 306.951 59.1278 306.367 59.1278 305.648C59.1278 304.924 58.9915 304.339 58.7188 303.892C58.446 303.441 58.0616 303.216 57.5653 303.216C57.0502 303.216 56.6544 303.441 56.3778 303.892C56.1051 304.339 55.9688 304.924 55.9688 305.648C55.9688 306.367 56.1051 306.951 56.3778 307.398C56.6544 307.845 57.0502 308.068 57.5653 308.068ZM63.3807 310V301.273H66.0227V302.875H66.1193C66.3011 302.345 66.608 301.926 67.0398 301.619C67.4754 301.312 67.9905 301.159 68.5852 301.159C69.1913 301.159 69.7102 301.314 70.142 301.625C70.5739 301.936 70.8485 302.352 70.9659 302.875H71.0568C71.2197 302.356 71.5379 301.941 72.0114 301.631C72.4848 301.316 73.0436 301.159 73.6875 301.159C74.5133 301.159 75.1837 301.422 75.6989 301.949C76.214 302.475 76.4716 303.201 76.4716 304.125V310H73.6932V304.761C73.6932 304.326 73.5795 303.994 73.3523 303.767C73.1288 303.536 72.8409 303.42 72.4886 303.42C72.1061 303.42 71.8049 303.545 71.5852 303.795C71.3693 304.042 71.2614 304.373 71.2614 304.79V310H68.5909V304.733C68.5909 304.328 68.4811 304.008 68.2614 303.773C68.0417 303.538 67.7519 303.42 67.392 303.42C67.0284 303.42 66.7311 303.549 66.5 303.807C66.2727 304.061 66.1591 304.403 66.1591 304.835V310H63.3807ZM82.2727 310.165C80.9015 310.165 79.822 309.765 79.0341 308.966C78.25 308.167 77.858 307.068 77.858 305.67C77.858 304.769 78.036 303.981 78.392 303.307C78.7481 302.629 79.25 302.102 79.8977 301.727C80.5455 301.348 81.3087 301.159 82.1875 301.159C83.0133 301.159 83.7443 301.331 84.3807 301.676C85.017 302.017 85.5152 302.519 85.875 303.182C86.2348 303.845 86.4148 304.655 86.4148 305.614V306.307H80.5966V306.381C80.5966 306.915 80.75 307.345 81.0568 307.67C81.3674 307.996 81.7898 308.159 82.3239 308.159C82.6875 308.159 83.0038 308.083 83.2727 307.932C83.5417 307.777 83.7292 307.555 83.8352 307.267L86.3864 307.341C86.2273 308.197 85.7879 308.883 85.0682 309.398C84.3485 309.909 83.4167 310.165 82.2727 310.165ZM80.5966 304.693H83.8295C83.8258 304.246 83.6742 303.881 83.375 303.597C83.0795 303.309 82.7027 303.165 82.2443 303.165C81.7822 303.165 81.3958 303.311 81.0852 303.602C80.7784 303.894 80.6155 304.258 80.5966 304.693Z" fill="black"/>
<path d="M272 112V48.5H176M272 112L281.5 102.5M272 112L262.5 102.5M176 48.5L185.5 58M176 48.5L185.5 39" stroke="black" stroke-width="3"/>
<path d="M206.83 36H204.273L207.153 27.2727H210.392L213.273 36H210.716L210.213 34.3295H207.332L206.83 36ZM207.869 32.5568H209.676L208.807 29.6761H208.739L207.869 32.5568ZM216.785 38.5227C216.129 38.5227 215.566 38.4304 215.098 38.2457C214.632 38.0639 214.27 37.8139 214.011 37.4957C213.755 37.1804 213.612 36.8239 213.581 36.4261H215.848C215.882 36.5994 215.99 36.7273 216.172 36.8097C216.356 36.8949 216.583 36.9375 216.853 36.9375C217.157 36.9375 217.409 36.8665 217.608 36.7244C217.809 36.5824 217.91 36.3352 217.91 35.983V34.875H217.842C217.714 35.2074 217.485 35.4645 217.156 35.6463C216.829 35.8253 216.444 35.9148 216.001 35.9148C215.535 35.9148 215.106 35.8068 214.714 35.5909C214.325 35.375 214.012 35.0327 213.777 34.5639C213.544 34.0952 213.427 33.483 213.427 32.7273C213.427 31.9375 213.549 31.2955 213.794 30.8011C214.041 30.3068 214.359 29.9446 214.748 29.7145C215.14 29.4844 215.552 29.3693 215.984 29.3693C216.47 29.3693 216.866 29.4915 217.173 29.7358C217.48 29.9773 217.697 30.2642 217.825 30.5966H217.876V29.4545H220.228V35.983C220.228 36.5142 220.085 36.9688 219.798 37.3466C219.514 37.7273 219.113 38.0185 218.596 38.2202C218.079 38.4219 217.475 38.5227 216.785 38.5227ZM216.87 34.2443C217.194 34.2443 217.449 34.1108 217.633 33.8438C217.818 33.5767 217.91 33.2045 217.91 32.7273C217.91 32.2415 217.818 31.8622 217.633 31.5895C217.449 31.3139 217.194 31.1761 216.87 31.1761C216.547 31.1761 216.295 31.3139 216.116 31.5895C215.937 31.8622 215.848 32.2415 215.848 32.7273C215.848 33.2131 215.937 33.5881 216.116 33.8523C216.295 34.1136 216.547 34.2443 216.87 34.2443ZM221.425 36V29.4545H223.709V30.6989H223.777C223.899 30.2386 224.089 29.902 224.348 29.6889C224.607 29.4759 224.911 29.3693 225.26 29.3693C225.43 29.3693 225.597 29.3906 225.759 29.4332C225.92 29.4759 226.067 29.5341 226.197 29.608L225.516 31.5341C225.419 31.4886 225.318 31.4489 225.213 31.4148C225.108 31.3807 224.993 31.3636 224.868 31.3636C224.575 31.3636 224.321 31.4759 224.105 31.7003C223.889 31.9219 223.78 32.2187 223.777 32.5909V36H221.425ZM229.694 36.1193C228.646 36.1193 227.82 35.8224 227.218 35.2287C226.619 34.6321 226.319 33.804 226.319 32.7443C226.319 32.0682 226.455 31.4773 226.728 30.9716C227.001 30.4659 227.386 30.0724 227.883 29.7912C228.38 29.5099 228.967 29.3693 229.643 29.3693C230.302 29.3693 230.874 29.5043 231.36 29.7741C231.849 30.044 232.227 30.4304 232.494 30.9332C232.763 31.4332 232.898 32.0312 232.898 32.7273V33.2727H228.637V33.375C228.637 33.6903 228.734 33.9517 228.927 34.1591C229.123 34.3636 229.396 34.4659 229.745 34.4659C229.987 34.4659 230.197 34.4162 230.376 34.3168C230.558 34.2145 230.683 34.071 230.751 33.8864H232.898C232.788 34.5682 232.452 35.1108 231.893 35.5142C231.336 35.9176 230.603 36.1193 229.694 36.1193ZM228.637 31.9773H230.734C230.728 31.696 230.626 31.4673 230.427 31.2912C230.231 31.1122 229.987 31.0227 229.694 31.0227C229.407 31.0227 229.16 31.1108 228.952 31.2869C228.748 31.4631 228.643 31.6932 228.637 31.9773ZM236.995 36.1193C235.946 36.1193 235.121 35.8224 234.519 35.2287C233.919 34.6321 233.62 33.804 233.62 32.7443C233.62 32.0682 233.756 31.4773 234.029 30.9716C234.301 30.4659 234.686 30.0724 235.184 29.7912C235.681 29.5099 236.267 29.3693 236.944 29.3693C237.603 29.3693 238.175 29.5043 238.661 29.7741C239.15 30.044 239.527 30.4304 239.794 30.9332C240.064 31.4332 240.199 32.0312 240.199 32.7273V33.2727H235.938V33.375C235.938 33.6903 236.034 33.9517 236.228 34.1591C236.424 34.3636 236.696 34.4659 237.046 34.4659C237.287 34.4659 237.498 34.4162 237.676 34.3168C237.858 34.2145 237.983 34.071 238.051 33.8864H240.199C240.088 34.5682 239.753 35.1108 239.194 35.5142C238.637 35.9176 237.904 36.1193 236.995 36.1193ZM235.938 31.9773H238.034C238.029 31.696 237.926 31.4673 237.728 31.2912C237.532 31.1122 237.287 31.0227 236.995 31.0227C236.708 31.0227 236.461 31.1108 236.253 31.2869C236.049 31.4631 235.944 31.6932 235.938 31.9773ZM241.159 36V29.4545H243.392V30.6989H243.46C243.597 30.2898 243.83 29.9659 244.159 29.7273C244.489 29.4886 244.881 29.3693 245.335 29.3693C245.795 29.3693 246.192 29.4915 246.524 29.7358C246.857 29.9773 247.057 30.2983 247.125 30.6989H247.193C247.304 30.2983 247.54 29.9773 247.901 29.7358C248.261 29.4915 248.685 29.3693 249.17 29.3693C249.798 29.3693 250.307 29.571 250.696 29.9744C251.088 30.3778 251.284 30.9148 251.284 31.5852V36H248.932V32.1818C248.932 31.8949 248.859 31.6705 248.714 31.5085C248.57 31.3437 248.375 31.2614 248.131 31.2614C247.889 31.2614 247.697 31.3437 247.555 31.5085C247.416 31.6705 247.347 31.8949 247.347 32.1818V36H245.097V32.1818C245.097 31.8949 245.024 31.6705 244.879 31.5085C244.734 31.3437 244.54 31.2614 244.295 31.2614C244.054 31.2614 243.862 31.3437 243.72 31.5085C243.581 31.6705 243.511 31.8949 243.511 32.1818V36H241.159ZM255.581 36.1193C254.532 36.1193 253.707 35.8224 253.105 35.2287C252.505 34.6321 252.206 33.804 252.206 32.7443C252.206 32.0682 252.342 31.4773 252.615 30.9716C252.887 30.4659 253.272 30.0724 253.77 29.7912C254.267 29.5099 254.853 29.3693 255.529 29.3693C256.189 29.3693 256.761 29.5043 257.247 29.7741C257.735 30.044 258.113 30.4304 258.38 30.9332C258.65 31.4332 258.785 32.0312 258.785 32.7273V33.2727H254.524V33.375C254.524 33.6903 254.62 33.9517 254.814 34.1591C255.01 34.3636 255.282 34.4659 255.632 34.4659C255.873 34.4659 256.083 34.4162 256.262 34.3168C256.444 34.2145 256.569 34.071 256.637 33.8864H258.785C258.674 34.5682 258.339 35.1108 257.779 35.5142C257.223 35.9176 256.49 36.1193 255.581 36.1193ZM254.524 31.9773H256.62C256.615 31.696 256.512 31.4673 256.314 31.2912C256.118 31.1122 255.873 31.0227 255.581 31.0227C255.294 31.0227 255.047 31.1108 254.839 31.2869C254.635 31.4631 254.529 31.6932 254.524 31.9773ZM262.097 32.3182V36H259.745V29.4545H261.978V30.6989H262.046C262.188 30.2841 262.438 29.9588 262.796 29.723C263.157 29.4872 263.577 29.3693 264.058 29.3693C264.521 29.3693 264.923 29.4759 265.263 29.6889C265.607 29.8991 265.873 30.1889 266.06 30.5582C266.251 30.9276 266.344 31.3494 266.342 31.8239V36H263.989V32.3182C263.992 31.9943 263.91 31.7401 263.742 31.5554C263.577 31.3707 263.347 31.2784 263.052 31.2784C262.759 31.2784 262.528 31.3707 262.357 31.5554C262.187 31.7401 262.1 31.9943 262.097 32.3182ZM271.406 29.4545V31.1591H270.281V33.8949C270.281 34.1676 270.429 34.304 270.724 34.304C270.795 34.304 270.878 34.2955 270.972 34.2784C271.068 34.2614 271.139 34.2472 271.185 34.2358L271.526 35.8892C271.42 35.9205 271.27 35.9588 271.074 36.0043C270.881 36.0497 270.651 36.0795 270.384 36.0938C269.571 36.1392 268.956 35.9929 268.538 35.6548C268.124 35.3139 267.92 34.8011 267.929 34.1165V31.1591H267.094V29.4545H267.929V27.8864H270.281V29.4545H271.406Z" fill="black"/>
<path d="M64 247L80 233L96 247" stroke="black" stroke-width="3"/>
<path d="M96 105L80 119L64 105" stroke="black" stroke-width="3"/>
</svg>
