<svg width="282" height="240" viewBox="0 0 282 240" fill="none" xmlns="http://www.w3.org/2000/svg">
<rect width="282" height="240" fill="white"/>
<rect x="1.5" y="1.5" width="157" height="93" stroke="black" stroke-width="3"/>
<path d="M21.9375 42.3636H24.7273V50.0511C24.7273 50.9337 24.5208 51.6799 24.108 52.2898C23.6951 52.8996 23.1193 53.3617 22.3807 53.6761C21.642 53.9905 20.7841 54.1477 19.8068 54.1477C18.8258 54.1477 17.964 53.9905 17.2216 53.6761C16.483 53.3617 15.9072 52.8996 15.4943 52.2898C15.0852 51.6799 14.8807 50.9337 14.8807 50.0511V42.3636H17.6932V49.9432C17.6932 50.4697 17.8883 50.8902 18.2784 51.2045C18.6686 51.5152 19.178 51.6705 19.8068 51.6705C20.4432 51.6705 20.9564 51.5152 21.3466 51.2045C21.7405 50.8902 21.9375 50.4697 21.9375 49.9432V42.3636ZM34.1094 47.9375L31.5582 48.0057C31.5204 47.7292 31.3821 47.5038 31.1435 47.3295C30.9048 47.1515 30.6018 47.0625 30.2344 47.0625C29.9124 47.0625 29.6378 47.1269 29.4105 47.2557C29.187 47.3807 29.0772 47.5549 29.081 47.7784C29.0772 47.9451 29.1454 48.0928 29.2855 48.2216C29.4295 48.3466 29.6851 48.447 30.0526 48.5227L31.7344 48.8409C33.4503 49.1705 34.3139 49.9583 34.3253 51.2045C34.3215 51.803 34.1435 52.3239 33.7912 52.767C33.4427 53.2102 32.9654 53.5549 32.3594 53.8011C31.7533 54.0436 31.0601 54.1648 30.2798 54.1648C29.0336 54.1648 28.0507 53.9091 27.331 53.3977C26.6113 52.8826 26.2022 52.1932 26.1037 51.3295L28.848 51.2614C28.9086 51.5795 29.0658 51.822 29.3196 51.9886C29.5734 52.1553 29.8973 52.2386 30.2912 52.2386C30.6473 52.2386 30.937 52.1723 31.1605 52.0398C31.384 51.9072 31.4976 51.7311 31.5014 51.5114C31.4901 51.1439 31.1359 50.892 30.4389 50.7557L28.9162 50.4659C27.1776 50.1439 26.3139 49.3011 26.3253 47.9375C26.3215 47.0625 26.6681 46.3807 27.3651 45.892C28.062 45.4034 29.0014 45.1591 30.1832 45.1591C31.3651 45.1591 32.2969 45.4072 32.9787 45.9034C33.6605 46.3958 34.0374 47.0739 34.1094 47.9375ZM39.7727 54.1648C38.4015 54.1648 37.322 53.7652 36.5341 52.9659C35.75 52.1667 35.358 51.0682 35.358 49.6705C35.358 48.7689 35.536 47.9811 35.892 47.3068C36.2481 46.6288 36.75 46.1023 37.3977 45.7273C38.0455 45.3485 38.8087 45.1591 39.6875 45.1591C40.5133 45.1591 41.2443 45.3314 41.8807 45.6761C42.517 46.017 43.0152 46.5189 43.375 47.1818C43.7348 47.8447 43.9148 48.6553 43.9148 49.6136V50.3068H38.0966V50.3807C38.0966 50.9148 38.25 51.3447 38.5568 51.6705C38.8674 51.9962 39.2898 52.1591 39.8239 52.1591C40.1875 52.1591 40.5038 52.0833 40.7727 51.9318C41.0417 51.7765 41.2292 51.5549 41.3352 51.267L43.8864 51.3409C43.7273 52.197 43.2879 52.8826 42.5682 53.3977C41.8485 53.9091 40.9167 54.1648 39.7727 54.1648ZM38.0966 48.6932H41.3295C41.3258 48.2462 41.1742 47.8807 40.875 47.5966C40.5795 47.3087 40.2027 47.1648 39.7443 47.1648C39.2822 47.1648 38.8958 47.3106 38.5852 47.6023C38.2784 47.8939 38.1155 48.2576 38.0966 48.6932ZM45.3338 54V45.2727H48.0327V46.8636H48.1236C48.2827 46.2879 48.5421 45.8598 48.902 45.5795C49.2618 45.2955 49.6804 45.1534 50.1577 45.1534C50.3887 45.1534 50.6084 45.1818 50.8168 45.2386C51.0251 45.2955 51.2126 45.3731 51.3793 45.4716L50.5611 47.7557C50.4399 47.6989 50.3092 47.6496 50.169 47.608C50.0327 47.5625 49.8812 47.5398 49.7145 47.5398C49.2789 47.5398 48.9039 47.697 48.5895 48.0114C48.2751 48.3258 48.116 48.7424 48.1122 49.2614V54H45.3338Z" fill="black"/>
<path d="M175.938 114.364H178.727V122.051C178.727 122.934 178.521 123.68 178.108 124.29C177.695 124.9 177.119 125.362 176.381 125.676C175.642 125.991 174.784 126.148 173.807 126.148C172.826 126.148 171.964 125.991 171.222 125.676C170.483 125.362 169.907 124.9 169.494 124.29C169.085 123.68 168.881 122.934 168.881 122.051V114.364H171.693V121.943C171.693 122.47 171.888 122.89 172.278 123.205C172.669 123.515 173.178 123.67 173.807 123.67C174.443 123.67 174.956 123.515 175.347 123.205C175.741 122.89 175.938 122.47 175.938 121.943V114.364ZM188.109 119.938L185.558 120.006C185.52 119.729 185.382 119.504 185.143 119.33C184.905 119.152 184.602 119.062 184.234 119.062C183.912 119.062 183.638 119.127 183.411 119.256C183.187 119.381 183.077 119.555 183.081 119.778C183.077 119.945 183.145 120.093 183.286 120.222C183.429 120.347 183.685 120.447 184.053 120.523L185.734 120.841C187.45 121.17 188.314 121.958 188.325 123.205C188.321 123.803 188.143 124.324 187.791 124.767C187.443 125.21 186.965 125.555 186.359 125.801C185.753 126.044 185.06 126.165 184.28 126.165C183.034 126.165 182.051 125.909 181.331 125.398C180.611 124.883 180.202 124.193 180.104 123.33L182.848 123.261C182.909 123.58 183.066 123.822 183.32 123.989C183.573 124.155 183.897 124.239 184.291 124.239C184.647 124.239 184.937 124.172 185.161 124.04C185.384 123.907 185.498 123.731 185.501 123.511C185.49 123.144 185.136 122.892 184.439 122.756L182.916 122.466C181.178 122.144 180.314 121.301 180.325 119.938C180.321 119.062 180.668 118.381 181.365 117.892C182.062 117.403 183.001 117.159 184.183 117.159C185.365 117.159 186.297 117.407 186.979 117.903C187.661 118.396 188.037 119.074 188.109 119.938ZM193.773 126.165C192.402 126.165 191.322 125.765 190.534 124.966C189.75 124.167 189.358 123.068 189.358 121.67C189.358 120.769 189.536 119.981 189.892 119.307C190.248 118.629 190.75 118.102 191.398 117.727C192.045 117.348 192.809 117.159 193.688 117.159C194.513 117.159 195.244 117.331 195.881 117.676C196.517 118.017 197.015 118.519 197.375 119.182C197.735 119.845 197.915 120.655 197.915 121.614V122.307H192.097V122.381C192.097 122.915 192.25 123.345 192.557 123.67C192.867 123.996 193.29 124.159 193.824 124.159C194.188 124.159 194.504 124.083 194.773 123.932C195.042 123.777 195.229 123.555 195.335 123.267L197.886 123.341C197.727 124.197 197.288 124.883 196.568 125.398C195.848 125.909 194.917 126.165 193.773 126.165ZM192.097 120.693H195.33C195.326 120.246 195.174 119.881 194.875 119.597C194.58 119.309 194.203 119.165 193.744 119.165C193.282 119.165 192.896 119.311 192.585 119.602C192.278 119.894 192.116 120.258 192.097 120.693ZM199.334 126V117.273H202.033V118.864H202.124C202.283 118.288 202.542 117.86 202.902 117.58C203.262 117.295 203.68 117.153 204.158 117.153C204.389 117.153 204.608 117.182 204.817 117.239C205.025 117.295 205.213 117.373 205.379 117.472L204.561 119.756C204.44 119.699 204.309 119.65 204.169 119.608C204.033 119.562 203.881 119.54 203.714 119.54C203.279 119.54 202.904 119.697 202.589 120.011C202.275 120.326 202.116 120.742 202.112 121.261V126H199.334ZM212.693 114.364V126H209.881V114.364H212.693ZM217.237 121.023V126H214.459V117.273H217.101V118.875H217.197C217.391 118.345 217.72 117.926 218.186 117.619C218.652 117.312 219.207 117.159 219.851 117.159C220.464 117.159 220.997 117.295 221.447 117.568C221.902 117.841 222.254 118.223 222.504 118.716C222.758 119.208 222.883 119.782 222.879 120.438V126H220.101V120.983C220.105 120.498 219.982 120.119 219.732 119.847C219.485 119.574 219.143 119.438 218.703 119.438C218.264 119.438 217.91 119.578 217.641 119.858C217.375 120.138 217.241 120.527 217.237 121.023ZM229.526 117.273V119.318H227.952V123.256C227.952 123.513 228.012 123.695 228.134 123.801C228.259 123.903 228.433 123.955 228.656 123.955C228.762 123.955 228.874 123.945 228.991 123.926C229.113 123.903 229.204 123.884 229.264 123.869L229.685 125.875C229.552 125.913 229.366 125.958 229.128 126.011C228.889 126.068 228.601 126.106 228.264 126.125C227.283 126.17 226.52 125.975 225.974 125.54C225.433 125.104 225.166 124.445 225.173 123.562V119.318H224.02V117.273H225.173V115.182H227.952V117.273H229.526ZM234.929 126.165C233.558 126.165 232.478 125.765 231.69 124.966C230.906 124.167 230.514 123.068 230.514 121.67C230.514 120.769 230.692 119.981 231.048 119.307C231.404 118.629 231.906 118.102 232.554 117.727C233.202 117.348 233.965 117.159 234.844 117.159C235.67 117.159 236.401 117.331 237.037 117.676C237.673 118.017 238.171 118.519 238.531 119.182C238.891 119.845 239.071 120.655 239.071 121.614V122.307H233.253V122.381C233.253 122.915 233.406 123.345 233.713 123.67C234.024 123.996 234.446 124.159 234.98 124.159C235.344 124.159 235.66 124.083 235.929 123.932C236.198 123.777 236.385 123.555 236.491 123.267L239.043 123.341C238.884 124.197 238.444 124.883 237.724 125.398C237.005 125.909 236.073 126.165 234.929 126.165ZM233.253 120.693H236.486C236.482 120.246 236.33 119.881 236.031 119.597C235.736 119.309 235.359 119.165 234.901 119.165C234.438 119.165 234.052 119.311 233.741 119.602C233.435 119.894 233.272 120.258 233.253 120.693ZM240.49 126V117.273H243.189V118.864H243.28C243.439 118.288 243.698 117.86 244.058 117.58C244.418 117.295 244.837 117.153 245.314 117.153C245.579 117.153 245.839 117.188 246.092 117.256V119.67C245.96 119.625 245.786 119.589 245.57 119.562C245.357 119.536 245.168 119.523 245.001 119.523C244.505 119.523 244.092 119.684 243.763 120.006C243.433 120.324 243.268 120.742 243.268 121.261V126H240.49ZM252.48 117.273V119.318H250.815V126H248.043V119.318H246.866V117.273H248.043V116.83C248.043 115.818 248.319 115.064 248.872 114.568C249.429 114.068 250.152 113.818 251.043 113.818C251.425 113.818 251.789 113.848 252.134 113.909C252.478 113.966 252.732 114.017 252.895 114.062L252.452 116.097C252.349 116.066 252.226 116.04 252.082 116.017C251.938 115.991 251.8 115.977 251.668 115.977C251.346 115.977 251.122 116.049 250.997 116.193C250.876 116.337 250.815 116.534 250.815 116.784V117.273H252.48ZM255.919 126.148C255.086 126.148 254.398 125.936 253.857 125.511C253.319 125.087 253.05 124.443 253.05 123.58C253.05 122.936 253.197 122.424 253.493 122.045C253.788 121.663 254.182 121.381 254.675 121.199C255.167 121.013 255.707 120.896 256.294 120.847C257.04 120.782 257.571 120.703 257.885 120.608C258.203 120.513 258.362 120.333 258.362 120.068V120.04C258.362 119.748 258.262 119.523 258.061 119.364C257.86 119.205 257.589 119.125 257.249 119.125C256.881 119.125 256.586 119.205 256.362 119.364C256.139 119.523 255.997 119.742 255.936 120.023L253.374 119.932C253.483 119.136 253.866 118.475 254.521 117.949C255.18 117.422 256.097 117.159 257.271 117.159C258.014 117.159 258.675 117.275 259.254 117.506C259.838 117.733 260.296 118.062 260.629 118.494C260.966 118.926 261.135 119.451 261.135 120.068V126H258.521V124.784H258.453C257.968 125.693 257.124 126.148 255.919 126.148ZM256.777 124.33C257.22 124.33 257.597 124.197 257.908 123.932C258.222 123.667 258.379 123.322 258.379 122.898V122.068C258.224 122.152 258.004 122.222 257.72 122.278C257.44 122.335 257.171 122.383 256.913 122.42C256.091 122.545 255.68 122.886 255.68 123.443C255.68 123.731 255.783 123.951 255.987 124.102C256.192 124.254 256.455 124.33 256.777 124.33ZM266.908 126.165C265.987 126.165 265.197 125.975 264.538 125.597C263.883 125.214 263.379 124.686 263.027 124.011C262.675 123.333 262.499 122.551 262.499 121.665C262.499 120.771 262.675 119.987 263.027 119.312C263.379 118.634 263.885 118.106 264.544 117.727C265.203 117.348 265.989 117.159 266.902 117.159C267.713 117.159 268.417 117.305 269.016 117.597C269.614 117.888 270.082 118.301 270.419 118.835C270.76 119.366 270.94 119.989 270.959 120.705H268.362C268.309 120.258 268.158 119.907 267.908 119.653C267.661 119.4 267.339 119.273 266.942 119.273C266.457 119.273 266.067 119.475 265.771 119.881C265.476 120.282 265.328 120.867 265.328 121.636C265.328 122.413 265.474 123.004 265.766 123.409C266.061 123.811 266.453 124.011 266.942 124.011C267.324 124.011 267.644 123.888 267.902 123.642C268.16 123.396 268.313 123.042 268.362 122.58H270.959C270.936 123.299 270.758 123.928 270.425 124.466C270.091 125.004 269.625 125.422 269.027 125.722C268.432 126.017 267.726 126.165 266.908 126.165ZM276.46 126.165C275.089 126.165 274.009 125.765 273.222 124.966C272.438 124.167 272.045 123.068 272.045 121.67C272.045 120.769 272.223 119.981 272.58 119.307C272.936 118.629 273.438 118.102 274.085 117.727C274.733 117.348 275.496 117.159 276.375 117.159C277.201 117.159 277.932 117.331 278.568 117.676C279.205 118.017 279.703 118.519 280.062 119.182C280.422 119.845 280.602 120.655 280.602 121.614V122.307H274.784V122.381C274.784 122.915 274.938 123.345 275.244 123.67C275.555 123.996 275.977 124.159 276.511 124.159C276.875 124.159 277.191 124.083 277.46 123.932C277.729 123.777 277.917 123.555 278.023 123.267L280.574 123.341C280.415 124.197 279.975 124.883 279.256 125.398C278.536 125.909 277.604 126.165 276.46 126.165ZM274.784 120.693H278.017C278.013 120.246 277.862 119.881 277.562 119.597C277.267 119.309 276.89 119.165 276.432 119.165C275.97 119.165 275.583 119.311 275.273 119.602C274.966 119.894 274.803 120.258 274.784 120.693Z" fill="black"/>
<rect x="1.5" y="145.5" width="157" height="93" stroke="black" stroke-width="3"/>
<path d="M21.1705 189.852C21.1326 189.436 20.964 189.112 20.6648 188.881C20.3693 188.646 19.947 188.528 19.3977 188.528C18.8523 188.528 18.4432 188.633 18.1705 188.841C17.8977 189.045 17.7595 189.307 17.7557 189.625C17.7443 189.97 17.8939 190.241 18.2045 190.438C18.5152 190.631 18.9337 190.784 19.4602 190.898L20.4602 191.125C21.608 191.379 22.4867 191.794 23.0966 192.369C23.7102 192.945 24.0189 193.697 24.0227 194.625C24.0189 195.731 23.6098 196.595 22.7955 197.216C21.9811 197.837 20.8485 198.148 19.3977 198.148C17.9356 198.148 16.7652 197.818 15.8864 197.159C15.0114 196.496 14.5644 195.485 14.5455 194.125H17.2386C17.2689 194.686 17.4754 195.11 17.858 195.398C18.2405 195.682 18.7424 195.824 19.3636 195.824C19.928 195.824 20.3693 195.712 20.6875 195.489C21.0057 195.265 21.1667 194.975 21.1705 194.619C21.1667 194.294 21.0152 194.034 20.7159 193.841C20.4167 193.644 19.947 193.472 19.3068 193.324L18.0909 193.04C17.0871 192.809 16.2936 192.436 15.7102 191.92C15.1307 191.402 14.8428 190.701 14.8466 189.818C14.8428 189.095 15.036 188.462 15.4261 187.92C15.8163 187.379 16.3542 186.958 17.0398 186.659C17.7292 186.356 18.517 186.205 19.4034 186.205C20.3049 186.205 21.0871 186.358 21.75 186.665C22.4167 186.968 22.9337 187.394 23.3011 187.943C23.6686 188.489 23.8561 189.125 23.8636 189.852H21.1705ZM29.5227 198.165C28.1515 198.165 27.072 197.765 26.2841 196.966C25.5 196.167 25.108 195.068 25.108 193.67C25.108 192.769 25.286 191.981 25.642 191.307C25.9981 190.629 26.5 190.102 27.1477 189.727C27.7955 189.348 28.5587 189.159 29.4375 189.159C30.2633 189.159 30.9943 189.331 31.6307 189.676C32.267 190.017 32.7652 190.519 33.125 191.182C33.4848 191.845 33.6648 192.655 33.6648 193.614V194.307H27.8466V194.381C27.8466 194.915 28 195.345 28.3068 195.67C28.6174 195.996 29.0398 196.159 29.5739 196.159C29.9375 196.159 30.2538 196.083 30.5227 195.932C30.7917 195.777 30.9792 195.555 31.0852 195.267L33.6364 195.341C33.4773 196.197 33.0379 196.883 32.3182 197.398C31.5985 197.909 30.6667 198.165 29.5227 198.165ZM27.8466 192.693H31.0795C31.0758 192.246 30.9242 191.881 30.625 191.597C30.3295 191.309 29.9527 191.165 29.4943 191.165C29.0322 191.165 28.6458 191.311 28.3352 191.602C28.0284 191.894 27.8655 192.258 27.8466 192.693ZM35.0838 198V189.273H37.7827V190.864H37.8736C38.0327 190.288 38.2921 189.86 38.652 189.58C39.0118 189.295 39.4304 189.153 39.9077 189.153C40.1728 189.153 40.4323 189.188 40.6861 189.256V191.67C40.5535 191.625 40.3793 191.589 40.1634 191.562C39.9512 191.536 39.7618 191.523 39.5952 191.523C39.099 191.523 38.6861 191.684 38.3565 192.006C38.027 192.324 37.8622 192.742 37.8622 193.261V198H35.0838ZM50.5497 189.273L47.5554 198H44.3736L41.3849 189.273H44.3111L45.919 195.284H46.0099L47.6236 189.273H50.5497ZM51.8026 198V189.273H54.581V198H51.8026ZM53.1946 188.256C52.8045 188.256 52.4692 188.127 52.1889 187.869C51.9086 187.608 51.7685 187.294 51.7685 186.926C51.7685 186.559 51.9086 186.246 52.1889 185.989C52.4692 185.731 52.8045 185.602 53.1946 185.602C53.5885 185.602 53.9238 185.731 54.2003 185.989C54.4806 186.246 54.6207 186.559 54.6207 186.926C54.6207 187.294 54.4806 187.608 54.2003 187.869C53.9238 188.127 53.5885 188.256 53.1946 188.256ZM60.4233 198.165C59.5028 198.165 58.7131 197.975 58.054 197.597C57.3987 197.214 56.8949 196.686 56.5426 196.011C56.1903 195.333 56.0142 194.551 56.0142 193.665C56.0142 192.771 56.1903 191.987 56.5426 191.312C56.8949 190.634 57.4006 190.106 58.0597 189.727C58.7188 189.348 59.5047 189.159 60.4176 189.159C61.2282 189.159 61.9328 189.305 62.5312 189.597C63.1297 189.888 63.5975 190.301 63.9347 190.835C64.2756 191.366 64.4555 191.989 64.4744 192.705H61.8778C61.8248 192.258 61.6733 191.907 61.4233 191.653C61.1771 191.4 60.8551 191.273 60.4574 191.273C59.9725 191.273 59.5824 191.475 59.2869 191.881C58.9915 192.282 58.8438 192.867 58.8438 193.636C58.8438 194.413 58.9896 195.004 59.2812 195.409C59.5767 195.811 59.9688 196.011 60.4574 196.011C60.84 196.011 61.16 195.888 61.4176 195.642C61.6752 195.396 61.8286 195.042 61.8778 194.58H64.4744C64.4517 195.299 64.2737 195.928 63.9403 196.466C63.607 197.004 63.1411 197.422 62.5426 197.722C61.9479 198.017 61.2415 198.165 60.4233 198.165ZM69.9759 198.165C68.6046 198.165 67.5251 197.765 66.7372 196.966C65.9531 196.167 65.5611 195.068 65.5611 193.67C65.5611 192.769 65.7391 191.981 66.0952 191.307C66.4512 190.629 66.9531 190.102 67.6009 189.727C68.2486 189.348 69.0118 189.159 69.8906 189.159C70.7164 189.159 71.4474 189.331 72.0838 189.676C72.7202 190.017 73.2183 190.519 73.5781 191.182C73.938 191.845 74.1179 192.655 74.1179 193.614V194.307H68.2997V194.381C68.2997 194.915 68.4531 195.345 68.7599 195.67C69.0705 195.996 69.4929 196.159 70.027 196.159C70.3906 196.159 70.7069 196.083 70.9759 195.932C71.2448 195.777 71.4323 195.555 71.5384 195.267L74.0895 195.341C73.9304 196.197 73.491 196.883 72.7713 197.398C72.0516 197.909 71.1198 198.165 69.9759 198.165ZM68.2997 192.693H71.5327C71.5289 192.246 71.3774 191.881 71.0781 191.597C70.7827 191.309 70.4058 191.165 69.9474 191.165C69.4853 191.165 69.099 191.311 68.7884 191.602C68.4815 191.894 68.3187 192.258 68.2997 192.693Z" fill="black"/>
<path d="M0 120L80 120L160 120" stroke="black" stroke-width="3"/>
<path d="M79.5 101V138.5M79.5 138.5L70 129M79.5 138.5L89 129" stroke="black" stroke-width="3"/>
</svg>
