<svg width="511" height="134" viewBox="0 0 511 134" fill="none" xmlns="http://www.w3.org/2000/svg">
<rect x="1.5" y="1.5" width="214" height="131" stroke="black" stroke-width="3"/>
<path d="M15.1705 13.5047C15.1326 13.0881 14.964 12.7642 14.6648 12.5331C14.3693 12.2983 13.947 12.1809 13.3977 12.1809C12.8523 12.1809 12.4432 12.285 12.1705 12.4934C11.8977 12.6979 11.7595 12.9593 11.7557 13.2775C11.7443 13.6222 11.8939 13.893 12.2045 14.09C12.5152 14.2831 12.9337 14.4366 13.4602 14.5502L14.4602 14.7775C15.608 15.0313 16.4867 15.446 17.0966 16.0218C17.7102 16.5975 18.0189 17.3494 18.0227 18.2775C18.0189 19.3835 17.6098 20.2472 16.7955 20.8684C15.9811 21.4896 14.8485 21.8002 13.3977 21.8002C11.9356 21.8002 10.7652 21.4706 9.88636 20.8116C9.01136 20.1487 8.56439 19.1373 8.54545 17.7775H11.2386C11.2689 18.3381 11.4754 18.7623 11.858 19.0502C12.2405 19.3343 12.7424 19.4763 13.3636 19.4763C13.928 19.4763 14.3693 19.3646 14.6875 19.1411C15.0057 18.9176 15.1667 18.6278 15.1705 18.2718C15.1667 17.946 15.0152 17.6866 14.7159 17.4934C14.4167 17.2964 13.947 17.1241 13.3068 16.9763L12.0909 16.6922C11.0871 16.4612 10.2936 16.0881 9.71023 15.5729C9.13068 15.054 8.8428 14.3532 8.84659 13.4706C8.8428 12.7472 9.03598 12.1146 9.42614 11.5729C9.81629 11.0313 10.3542 10.6108 11.0398 10.3116C11.7292 10.0085 12.517 9.85701 13.4034 9.85701C14.3049 9.85701 15.0871 10.0104 15.75 10.3172C16.4167 10.6203 16.9337 11.0464 17.3011 11.5956C17.6686 12.1411 17.8561 12.7775 17.8636 13.5047H15.1705ZM23.5227 21.8172C22.1515 21.8172 21.072 21.4176 20.2841 20.6184C19.5 19.8191 19.108 18.7206 19.108 17.3229C19.108 16.4214 19.286 15.6335 19.642 14.9593C19.9981 14.2813 20.5 13.7547 21.1477 13.3797C21.7955 13.001 22.5587 12.8116 23.4375 12.8116C24.2633 12.8116 24.9943 12.9839 25.6307 13.3286C26.267 13.6695 26.7652 14.1714 27.125 14.8343C27.4848 15.4972 27.6648 16.3078 27.6648 17.2661V17.9593H21.8466V18.0331C21.8466 18.5672 22 18.9972 22.3068 19.3229C22.6174 19.6487 23.0398 19.8116 23.5739 19.8116C23.9375 19.8116 24.2538 19.7358 24.5227 19.5843C24.7917 19.429 24.9792 19.2074 25.0852 18.9195L27.6364 18.9934C27.4773 19.8494 27.0379 20.535 26.3182 21.0502C25.5985 21.5616 24.6667 21.8172 23.5227 21.8172ZM21.8466 16.3456H25.0795C25.0758 15.8987 24.9242 15.5331 24.625 15.2491C24.3295 14.9612 23.9527 14.8172 23.4943 14.8172C23.0322 14.8172 22.6458 14.9631 22.3352 15.2547C22.0284 15.5464 21.8655 15.91 21.8466 16.3456ZM34.0099 12.9252V14.9706H32.4361V18.9081C32.4361 19.1657 32.4967 19.3475 32.6179 19.4536C32.7429 19.5559 32.9171 19.607 33.1406 19.607C33.2467 19.607 33.3584 19.5975 33.4759 19.5786C33.5971 19.5559 33.688 19.5369 33.7486 19.5218L34.169 21.5275C34.0365 21.5653 33.8509 21.6108 33.6122 21.6638C33.3736 21.7206 33.0857 21.7585 32.7486 21.7775C31.7675 21.8229 31.0043 21.6278 30.4588 21.1922C29.9171 20.7566 29.6501 20.0975 29.6577 19.215V14.9706H28.5043V12.9252H29.6577V10.8343H32.4361V12.9252H34.0099ZM42.9389 21.8172C42.026 21.8172 41.2401 21.6297 40.581 21.2547C39.9219 20.876 39.4143 20.3494 39.0582 19.6752C38.706 18.9972 38.5298 18.2112 38.5298 17.3172C38.5298 16.4195 38.706 15.6335 39.0582 14.9593C39.4143 14.2813 39.9219 13.7547 40.581 13.3797C41.2401 13.001 42.026 12.8116 42.9389 12.8116C43.8556 12.8116 44.6416 13.001 45.2969 13.3797C45.956 13.7547 46.4616 14.2813 46.8139 14.9593C47.17 15.6335 47.348 16.4195 47.348 17.3172C47.348 18.2112 47.17 18.9972 46.8139 19.6752C46.4616 20.3494 45.956 20.876 45.2969 21.2547C44.6416 21.6297 43.8556 21.8172 42.9389 21.8172ZM42.956 19.7206C43.4522 19.7206 43.8366 19.4972 44.1094 19.0502C44.3821 18.6032 44.5185 18.0199 44.5185 17.3002C44.5185 16.5767 44.3821 15.9915 44.1094 15.5445C43.8366 15.0938 43.4522 14.8684 42.956 14.8684C42.4408 14.8684 42.045 15.0938 41.7685 15.5445C41.4957 15.9915 41.3594 16.5767 41.3594 17.3002C41.3594 18.0199 41.4957 18.6032 41.7685 19.0502C42.045 19.4972 42.4408 19.7206 42.956 19.7206ZM53.8395 12.9252V14.9706H52.1747V21.6525H49.402V14.9706H48.2259V12.9252H49.402V12.482C49.402 11.4706 49.6785 10.7169 50.2315 10.2206C50.7884 9.72065 51.5118 9.47065 52.402 9.47065C52.7846 9.47065 53.1482 9.50095 53.4929 9.56156C53.8376 9.61837 54.0914 9.66951 54.2543 9.71497L53.8111 11.7491C53.7088 11.7188 53.5857 11.6922 53.4418 11.6695C53.2978 11.643 53.1596 11.6297 53.027 11.6297C52.705 11.6297 52.4815 11.7017 52.3565 11.8456C52.2353 11.9896 52.1747 12.1866 52.1747 12.4366V12.9252H53.8395ZM61.3935 16.6752V21.6525H58.6151V12.9252H61.2571V14.5275H61.3537C61.5469 13.9972 61.8764 13.5786 62.3423 13.2718C62.8082 12.965 63.3632 12.8116 64.0071 12.8116C64.6207 12.8116 65.1529 12.9479 65.6037 13.2206C66.0582 13.4934 66.4105 13.876 66.6605 14.3684C66.9143 14.8608 67.0393 15.4347 67.0355 16.09V21.6525H64.2571V16.6354C64.2609 16.1506 64.1378 15.7718 63.8878 15.4991C63.6416 15.2263 63.2988 15.09 62.8594 15.09C62.42 15.09 62.0658 15.2301 61.7969 15.5104C61.5317 15.7907 61.3973 16.179 61.3935 16.6752ZM72.8352 21.8172C71.464 21.8172 70.3845 21.4176 69.5966 20.6184C68.8125 19.8191 68.4205 18.7206 68.4205 17.3229C68.4205 16.4214 68.5985 15.6335 68.9545 14.9593C69.3106 14.2813 69.8125 13.7547 70.4602 13.3797C71.108 13.001 71.8712 12.8116 72.75 12.8116C73.5758 12.8116 74.3068 12.9839 74.9432 13.3286C75.5795 13.6695 76.0777 14.1714 76.4375 14.8343C76.7973 15.4972 76.9773 16.3078 76.9773 17.2661V17.9593H71.1591V18.0331C71.1591 18.5672 71.3125 18.9972 71.6193 19.3229C71.9299 19.6487 72.3523 19.8116 72.8864 19.8116C73.25 19.8116 73.5663 19.7358 73.8352 19.5843C74.1042 19.429 74.2917 19.2074 74.3977 18.9195L76.9489 18.9934C76.7898 19.8494 76.3504 20.535 75.6307 21.0502C74.911 21.5616 73.9792 21.8172 72.8352 21.8172ZM71.1591 16.3456H74.392C74.3883 15.8987 74.2367 15.5331 73.9375 15.2491C73.642 14.9612 73.2652 14.8172 72.8068 14.8172C72.3447 14.8172 71.9583 14.9631 71.6477 15.2547C71.3409 15.5464 71.178 15.91 71.1591 16.3456ZM82.4759 21.8172C81.1046 21.8172 80.0251 21.4176 79.2372 20.6184C78.4531 19.8191 78.0611 18.7206 78.0611 17.3229C78.0611 16.4214 78.2391 15.6335 78.5952 14.9593C78.9512 14.2813 79.4531 13.7547 80.1009 13.3797C80.7486 13.001 81.5118 12.8116 82.3906 12.8116C83.2164 12.8116 83.9474 12.9839 84.5838 13.3286C85.2202 13.6695 85.7183 14.1714 86.0781 14.8343C86.438 15.4972 86.6179 16.3078 86.6179 17.2661V17.9593H80.7997V18.0331C80.7997 18.5672 80.9531 18.9972 81.2599 19.3229C81.5705 19.6487 81.9929 19.8116 82.527 19.8116C82.8906 19.8116 83.2069 19.7358 83.4759 19.5843C83.7448 19.429 83.9323 19.2074 84.0384 18.9195L86.5895 18.9934C86.4304 19.8494 85.991 20.535 85.2713 21.0502C84.5516 21.5616 83.6198 21.8172 82.4759 21.8172ZM80.7997 16.3456H84.0327C84.0289 15.8987 83.8774 15.5331 83.5781 15.2491C83.2827 14.9612 82.9058 14.8172 82.4474 14.8172C81.9853 14.8172 81.599 14.9631 81.2884 15.2547C80.9815 15.5464 80.8187 15.91 80.7997 16.3456ZM91.2244 21.7775C90.5843 21.7775 89.9991 21.6108 89.4688 21.2775C88.9422 20.9403 88.5218 20.4403 88.2074 19.7775C87.893 19.1146 87.7358 18.2869 87.7358 17.2945C87.7358 16.268 87.8987 15.4252 88.2244 14.7661C88.5502 14.1032 88.9782 13.6127 89.5085 13.2945C90.0388 12.9725 90.607 12.8116 91.2131 12.8116C91.9025 12.8116 92.4441 12.9801 92.8381 13.3172C93.2358 13.6506 93.5161 14.018 93.679 14.4195H93.7358V10.0161H96.5142V21.6525H93.7642V20.2377H93.679C93.5047 20.6392 93.2169 20.9972 92.8153 21.3116C92.4138 21.6222 91.8835 21.7775 91.2244 21.7775ZM92.1903 19.6127C92.6979 19.6127 93.0919 19.4025 93.3722 18.982C93.6563 18.5616 93.7983 17.9972 93.7983 17.2888C93.7983 16.5767 93.6563 16.0142 93.3722 15.6013C93.0919 15.1885 92.6979 14.982 92.1903 14.982C91.6752 14.982 91.2794 15.1922 91.0028 15.6127C90.7263 16.0294 90.5881 16.5881 90.5881 17.2888C90.5881 17.9934 90.7263 18.5578 91.0028 18.982C91.2794 19.4025 91.6752 19.6127 92.1903 19.6127ZM105.891 15.59L103.339 15.6581C103.302 15.3816 103.163 15.1563 102.925 14.982C102.686 14.804 102.383 14.715 102.016 14.715C101.694 14.715 101.419 14.7794 101.192 14.9081C100.968 15.0331 100.858 15.2074 100.862 15.4309C100.858 15.5975 100.927 15.7453 101.067 15.8741C101.211 15.9991 101.466 16.0994 101.834 16.1752L103.516 16.4934C105.232 16.8229 106.095 17.6108 106.107 18.857C106.103 19.4555 105.925 19.9763 105.572 20.4195C105.224 20.8627 104.747 21.2074 104.141 21.4536C103.535 21.696 102.841 21.8172 102.061 21.8172C100.815 21.8172 99.8319 21.5616 99.1122 21.0502C98.3925 20.535 97.9834 19.8456 97.8849 18.982L100.629 18.9138C100.69 19.232 100.847 19.4744 101.101 19.6411C101.355 19.8078 101.679 19.8911 102.072 19.8911C102.429 19.8911 102.718 19.8248 102.942 19.6922C103.165 19.5597 103.279 19.3835 103.283 19.1638C103.271 18.7964 102.917 18.5445 102.22 18.4081L100.697 18.1184C98.9588 17.7964 98.0952 16.9536 98.1065 15.59C98.1027 14.715 98.4493 14.0331 99.1463 13.5445C99.8433 13.0559 100.783 12.8116 101.964 12.8116C103.146 12.8116 104.078 13.0597 104.76 13.5559C105.442 14.0483 105.819 14.7263 105.891 15.59Z" fill="black"/>
<rect x="8" y="31" width="201" height="29" fill="#00A3FF"/>
<path d="M24.7841 40.3636V52H22.3977L17.767 45.2841H17.6932V52H14.8807V40.3636H17.3011L21.8807 47.0682H21.9773V40.3636H24.7841ZM30.6321 52.1648C29.2609 52.1648 28.1813 51.7652 27.3935 50.9659C26.6094 50.1667 26.2173 49.0682 26.2173 47.6705C26.2173 46.7689 26.3954 45.9811 26.7514 45.3068C27.1075 44.6288 27.6094 44.1023 28.2571 43.7273C28.9048 43.3485 29.6681 43.1591 30.5469 43.1591C31.3726 43.1591 32.1037 43.3314 32.7401 43.6761C33.3764 44.017 33.8745 44.5189 34.2344 45.1818C34.5942 45.8447 34.7741 46.6553 34.7741 47.6136V48.3068H28.956V48.3807C28.956 48.9148 29.1094 49.3447 29.4162 49.6705C29.7268 49.9962 30.1491 50.1591 30.6832 50.1591C31.0469 50.1591 31.3632 50.0833 31.6321 49.9318C31.901 49.7765 32.0885 49.5549 32.1946 49.267L34.7457 49.3409C34.5866 50.197 34.1473 50.8826 33.4276 51.3977C32.7079 51.9091 31.776 52.1648 30.6321 52.1648ZM28.956 46.6932H32.1889C32.1851 46.2462 32.0336 45.8807 31.7344 45.5966C31.4389 45.3087 31.062 45.1648 30.6037 45.1648C30.1416 45.1648 29.7552 45.3106 29.4446 45.6023C29.1378 45.8939 28.9749 46.2576 28.956 46.6932ZM40.2727 52.1648C38.9015 52.1648 37.822 51.7652 37.0341 50.9659C36.25 50.1667 35.858 49.0682 35.858 47.6705C35.858 46.7689 36.036 45.9811 36.392 45.3068C36.7481 44.6288 37.25 44.1023 37.8977 43.7273C38.5455 43.3485 39.3087 43.1591 40.1875 43.1591C41.0133 43.1591 41.7443 43.3314 42.3807 43.6761C43.017 44.017 43.5152 44.5189 43.875 45.1818C44.2348 45.8447 44.4148 46.6553 44.4148 47.6136V48.3068H38.5966V48.3807C38.5966 48.9148 38.75 49.3447 39.0568 49.6705C39.3674 49.9962 39.7898 50.1591 40.3239 50.1591C40.6875 50.1591 41.0038 50.0833 41.2727 49.9318C41.5417 49.7765 41.7292 49.5549 41.8352 49.267L44.3864 49.3409C44.2273 50.197 43.7879 50.8826 43.0682 51.3977C42.3485 51.9091 41.4167 52.1648 40.2727 52.1648ZM38.5966 46.6932H41.8295C41.8258 46.2462 41.6742 45.8807 41.375 45.5966C41.0795 45.3087 40.7027 45.1648 40.2443 45.1648C39.7822 45.1648 39.3958 45.3106 39.0852 45.6023C38.7784 45.8939 38.6155 46.2576 38.5966 46.6932ZM49.0213 52.125C48.3812 52.125 47.7959 51.9583 47.2656 51.625C46.7391 51.2879 46.3187 50.7879 46.0043 50.125C45.6899 49.4621 45.5327 48.6345 45.5327 47.642C45.5327 46.6155 45.6955 45.7727 46.0213 45.1136C46.3471 44.4508 46.7751 43.9602 47.3054 43.642C47.8357 43.3201 48.4039 43.1591 49.0099 43.1591C49.6993 43.1591 50.241 43.3277 50.6349 43.6648C51.0327 43.9981 51.313 44.3655 51.4759 44.767H51.5327V40.3636H54.3111V52H51.5611V50.5852H51.4759C51.3016 50.9867 51.0137 51.3447 50.6122 51.6591C50.2107 51.9697 49.6804 52.125 49.0213 52.125ZM49.9872 49.9602C50.4948 49.9602 50.8887 49.75 51.169 49.3295C51.4531 48.9091 51.5952 48.3447 51.5952 47.6364C51.5952 46.9242 51.4531 46.3617 51.169 45.9489C50.8887 45.536 50.4948 45.3295 49.9872 45.3295C49.4721 45.3295 49.0762 45.5398 48.7997 45.9602C48.5232 46.3769 48.3849 46.9356 48.3849 47.6364C48.3849 48.3409 48.5232 48.9053 48.7997 49.3295C49.0762 49.75 49.4721 49.9602 49.9872 49.9602Z" fill="white"/>
<rect x="8" y="64" width="201" height="29" fill="#00A3FF"/>
<path d="M24.7841 73.3636V85H22.3977L17.767 78.2841H17.6932V85H14.8807V73.3636H17.3011L21.8807 80.0682H21.9773V73.3636H24.7841ZM30.6321 85.1648C29.2609 85.1648 28.1813 84.7652 27.3935 83.9659C26.6094 83.1667 26.2173 82.0682 26.2173 80.6705C26.2173 79.7689 26.3954 78.9811 26.7514 78.3068C27.1075 77.6288 27.6094 77.1023 28.2571 76.7273C28.9048 76.3485 29.6681 76.1591 30.5469 76.1591C31.3726 76.1591 32.1037 76.3314 32.7401 76.6761C33.3764 77.017 33.8745 77.5189 34.2344 78.1818C34.5942 78.8447 34.7741 79.6553 34.7741 80.6136V81.3068H28.956V81.3807C28.956 81.9148 29.1094 82.3447 29.4162 82.6705C29.7268 82.9962 30.1491 83.1591 30.6832 83.1591C31.0469 83.1591 31.3632 83.0833 31.6321 82.9318C31.901 82.7765 32.0885 82.5549 32.1946 82.267L34.7457 82.3409C34.5866 83.197 34.1473 83.8826 33.4276 84.3977C32.7079 84.9091 31.776 85.1648 30.6321 85.1648ZM28.956 79.6932H32.1889C32.1851 79.2462 32.0336 78.8807 31.7344 78.5966C31.4389 78.3087 31.062 78.1648 30.6037 78.1648C30.1416 78.1648 29.7552 78.3106 29.4446 78.6023C29.1378 78.8939 28.9749 79.2576 28.956 79.6932ZM40.2727 85.1648C38.9015 85.1648 37.822 84.7652 37.0341 83.9659C36.25 83.1667 35.858 82.0682 35.858 80.6705C35.858 79.7689 36.036 78.9811 36.392 78.3068C36.7481 77.6288 37.25 77.1023 37.8977 76.7273C38.5455 76.3485 39.3087 76.1591 40.1875 76.1591C41.0133 76.1591 41.7443 76.3314 42.3807 76.6761C43.017 77.017 43.5152 77.5189 43.875 78.1818C44.2348 78.8447 44.4148 79.6553 44.4148 80.6136V81.3068H38.5966V81.3807C38.5966 81.9148 38.75 82.3447 39.0568 82.6705C39.3674 82.9962 39.7898 83.1591 40.3239 83.1591C40.6875 83.1591 41.0038 83.0833 41.2727 82.9318C41.5417 82.7765 41.7292 82.5549 41.8352 82.267L44.3864 82.3409C44.2273 83.197 43.7879 83.8826 43.0682 84.3977C42.3485 84.9091 41.4167 85.1648 40.2727 85.1648ZM38.5966 79.6932H41.8295C41.8258 79.2462 41.6742 78.8807 41.375 78.5966C41.0795 78.3087 40.7027 78.1648 40.2443 78.1648C39.7822 78.1648 39.3958 78.3106 39.0852 78.6023C38.7784 78.8939 38.6155 79.2576 38.5966 79.6932ZM49.0213 85.125C48.3812 85.125 47.7959 84.9583 47.2656 84.625C46.7391 84.2879 46.3187 83.7879 46.0043 83.125C45.6899 82.4621 45.5327 81.6345 45.5327 80.642C45.5327 79.6155 45.6955 78.7727 46.0213 78.1136C46.3471 77.4508 46.7751 76.9602 47.3054 76.642C47.8357 76.3201 48.4039 76.1591 49.0099 76.1591C49.6993 76.1591 50.241 76.3277 50.6349 76.6648C51.0327 76.9981 51.313 77.3655 51.4759 77.767H51.5327V73.3636H54.3111V85H51.5611V83.5852H51.4759C51.3016 83.9867 51.0137 84.3447 50.6122 84.6591C50.2107 84.9697 49.6804 85.125 49.0213 85.125ZM49.9872 82.9602C50.4948 82.9602 50.8887 82.75 51.169 82.3295C51.4531 81.9091 51.5952 81.3447 51.5952 80.6364C51.5952 79.9242 51.4531 79.3617 51.169 78.9489C50.8887 78.536 50.4948 78.3295 49.9872 78.3295C49.4721 78.3295 49.0762 78.5398 48.7997 78.9602C48.5232 79.3769 48.3849 79.9356 48.3849 80.6364C48.3849 81.3409 48.5232 81.9053 48.7997 82.3295C49.0762 82.75 49.4721 82.9602 49.9872 82.9602Z" fill="white"/>
<rect x="8" y="97" width="201" height="29" fill="#00A3FF"/>
<path d="M24.7841 106.364V118H22.3977L17.767 111.284H17.6932V118H14.8807V106.364H17.3011L21.8807 113.068H21.9773V106.364H24.7841ZM30.6321 118.165C29.2609 118.165 28.1813 117.765 27.3935 116.966C26.6094 116.167 26.2173 115.068 26.2173 113.67C26.2173 112.769 26.3954 111.981 26.7514 111.307C27.1075 110.629 27.6094 110.102 28.2571 109.727C28.9048 109.348 29.6681 109.159 30.5469 109.159C31.3726 109.159 32.1037 109.331 32.7401 109.676C33.3764 110.017 33.8745 110.519 34.2344 111.182C34.5942 111.845 34.7741 112.655 34.7741 113.614V114.307H28.956V114.381C28.956 114.915 29.1094 115.345 29.4162 115.67C29.7268 115.996 30.1491 116.159 30.6832 116.159C31.0469 116.159 31.3632 116.083 31.6321 115.932C31.901 115.777 32.0885 115.555 32.1946 115.267L34.7457 115.341C34.5866 116.197 34.1473 116.883 33.4276 117.398C32.7079 117.909 31.776 118.165 30.6321 118.165ZM28.956 112.693H32.1889C32.1851 112.246 32.0336 111.881 31.7344 111.597C31.4389 111.309 31.062 111.165 30.6037 111.165C30.1416 111.165 29.7552 111.311 29.4446 111.602C29.1378 111.894 28.9749 112.258 28.956 112.693ZM40.2727 118.165C38.9015 118.165 37.822 117.765 37.0341 116.966C36.25 116.167 35.858 115.068 35.858 113.67C35.858 112.769 36.036 111.981 36.392 111.307C36.7481 110.629 37.25 110.102 37.8977 109.727C38.5455 109.348 39.3087 109.159 40.1875 109.159C41.0133 109.159 41.7443 109.331 42.3807 109.676C43.017 110.017 43.5152 110.519 43.875 111.182C44.2348 111.845 44.4148 112.655 44.4148 113.614V114.307H38.5966V114.381C38.5966 114.915 38.75 115.345 39.0568 115.67C39.3674 115.996 39.7898 116.159 40.3239 116.159C40.6875 116.159 41.0038 116.083 41.2727 115.932C41.5417 115.777 41.7292 115.555 41.8352 115.267L44.3864 115.341C44.2273 116.197 43.7879 116.883 43.0682 117.398C42.3485 117.909 41.4167 118.165 40.2727 118.165ZM38.5966 112.693H41.8295C41.8258 112.246 41.6742 111.881 41.375 111.597C41.0795 111.309 40.7027 111.165 40.2443 111.165C39.7822 111.165 39.3958 111.311 39.0852 111.602C38.7784 111.894 38.6155 112.258 38.5966 112.693ZM49.0213 118.125C48.3812 118.125 47.7959 117.958 47.2656 117.625C46.7391 117.288 46.3187 116.788 46.0043 116.125C45.6899 115.462 45.5327 114.634 45.5327 113.642C45.5327 112.616 45.6955 111.773 46.0213 111.114C46.3471 110.451 46.7751 109.96 47.3054 109.642C47.8357 109.32 48.4039 109.159 49.0099 109.159C49.6993 109.159 50.241 109.328 50.6349 109.665C51.0327 109.998 51.313 110.366 51.4759 110.767H51.5327V106.364H54.3111V118H51.5611V116.585H51.4759C51.3016 116.987 51.0137 117.345 50.6122 117.659C50.2107 117.97 49.6804 118.125 49.0213 118.125ZM49.9872 115.96C50.4948 115.96 50.8887 115.75 51.169 115.33C51.4531 114.909 51.5952 114.345 51.5952 113.636C51.5952 112.924 51.4531 112.362 51.169 111.949C50.8887 111.536 50.4948 111.33 49.9872 111.33C49.4721 111.33 49.0762 111.54 48.7997 111.96C48.5232 112.377 48.3849 112.936 48.3849 113.636C48.3849 114.341 48.5232 114.905 48.7997 115.33C49.0762 115.75 49.4721 115.96 49.9872 115.96Z" fill="white"/>
<rect x="232.5" y="1.5" width="214" height="98" stroke="black" stroke-width="3"/>
<path d="M250.864 15.8343C250.864 17.1146 250.617 18.1998 250.125 19.09C249.633 19.9801 248.966 20.6563 248.125 21.1184C247.288 21.5805 246.348 21.8116 245.307 21.8116C244.261 21.8116 243.318 21.5805 242.477 21.1184C241.64 20.6525 240.977 19.9744 240.489 19.0843C240 18.1941 239.756 17.1108 239.756 15.8343C239.756 14.5502 240 13.465 240.489 12.5786C240.977 11.6885 241.64 11.0123 242.477 10.5502C243.318 10.0881 244.261 9.85701 245.307 9.85701C246.348 9.85701 247.288 10.0881 248.125 10.5502C248.966 11.0123 249.633 11.6885 250.125 12.5786C250.617 13.465 250.864 14.5502 250.864 15.8343ZM247.989 15.8343C247.989 14.6941 247.752 13.8248 247.278 13.2263C246.805 12.6241 246.148 12.3229 245.307 12.3229C244.47 12.3229 243.813 12.6241 243.335 13.2263C242.862 13.8248 242.625 14.6941 242.625 15.8343C242.625 16.9744 242.862 17.8456 243.335 18.4479C243.813 19.0464 244.47 19.3456 245.307 19.3456C246.148 19.3456 246.805 19.0464 247.278 18.4479C247.752 17.8456 247.989 16.9744 247.989 15.8343ZM258.136 17.8854V12.9252H260.909V21.6525H258.261V20.0275H258.17C257.977 20.5616 257.648 20.9858 257.182 21.3002C256.72 21.6108 256.161 21.7661 255.506 21.7661C254.907 21.7661 254.383 21.6297 253.932 21.357C253.485 21.0843 253.136 20.7017 252.886 20.2093C252.636 19.7169 252.509 19.143 252.506 18.4877V12.9252H255.284V17.9422C255.288 18.4157 255.413 18.7888 255.659 19.0616C255.905 19.3343 256.241 19.4706 256.665 19.4706C257.078 19.4706 257.426 19.3343 257.71 19.0616C257.994 18.785 258.136 18.393 258.136 17.8854ZM267.604 12.9252V14.9706H266.03V18.9081C266.03 19.1657 266.09 19.3475 266.212 19.4536C266.337 19.5559 266.511 19.607 266.734 19.607C266.84 19.607 266.952 19.5975 267.07 19.5786C267.191 19.5559 267.282 19.5369 267.342 19.5218L267.763 21.5275C267.63 21.5653 267.445 21.6108 267.206 21.6638C266.967 21.7206 266.679 21.7585 266.342 21.7775C265.361 21.8229 264.598 21.6278 264.053 21.1922C263.511 20.7566 263.244 20.0975 263.251 19.215V14.9706H262.098V12.9252H263.251V10.8343H266.03V12.9252H267.604ZM273.001 21.8172C272.081 21.8172 271.291 21.6278 270.632 21.2491C269.977 20.8665 269.473 20.3381 269.121 19.6638C268.768 18.9858 268.592 18.2036 268.592 17.3172C268.592 16.4233 268.768 15.6392 269.121 14.965C269.473 14.2869 269.979 13.7585 270.638 13.3797C271.297 13.001 272.083 12.8116 272.996 12.8116C273.806 12.8116 274.511 12.9574 275.109 13.2491C275.708 13.5407 276.176 13.9536 276.513 14.4877C276.854 15.018 277.034 15.6411 277.053 16.357H274.456C274.403 15.91 274.251 15.5597 274.001 15.3059C273.755 15.0521 273.433 14.9252 273.036 14.9252C272.551 14.9252 272.161 15.1278 271.865 15.5331C271.57 15.9347 271.422 16.5199 271.422 17.2888C271.422 18.0653 271.568 18.6563 271.859 19.0616C272.155 19.4631 272.547 19.6638 273.036 19.6638C273.418 19.6638 273.738 19.5407 273.996 19.2945C274.253 19.0483 274.407 18.6941 274.456 18.232H277.053C277.03 18.9517 276.852 19.5805 276.518 20.1184C276.185 20.6563 275.719 21.0748 275.121 21.3741C274.526 21.6695 273.82 21.8172 273.001 21.8172ZM282.548 21.8172C281.635 21.8172 280.849 21.6297 280.19 21.2547C279.531 20.876 279.024 20.3494 278.668 19.6752C278.315 18.9972 278.139 18.2112 278.139 17.3172C278.139 16.4195 278.315 15.6335 278.668 14.9593C279.024 14.2813 279.531 13.7547 280.19 13.3797C280.849 13.001 281.635 12.8116 282.548 12.8116C283.465 12.8116 284.251 13.001 284.906 13.3797C285.565 13.7547 286.071 14.2813 286.423 14.9593C286.779 15.6335 286.957 16.4195 286.957 17.3172C286.957 18.2112 286.779 18.9972 286.423 19.6752C286.071 20.3494 285.565 20.876 284.906 21.2547C284.251 21.6297 283.465 21.8172 282.548 21.8172ZM282.565 19.7206C283.062 19.7206 283.446 19.4972 283.719 19.0502C283.991 18.6032 284.128 18.0199 284.128 17.3002C284.128 16.5767 283.991 15.9915 283.719 15.5445C283.446 15.0938 283.062 14.8684 282.565 14.8684C282.05 14.8684 281.654 15.0938 281.378 15.5445C281.105 15.9915 280.969 16.5767 280.969 17.3002C280.969 18.0199 281.105 18.6032 281.378 19.0502C281.654 19.4972 282.05 19.7206 282.565 19.7206ZM288.381 21.6525V12.9252H291.023V14.5275H291.119C291.301 13.9972 291.608 13.5786 292.04 13.2718C292.475 12.965 292.991 12.8116 293.585 12.8116C294.191 12.8116 294.71 12.9669 295.142 13.2775C295.574 13.5881 295.848 14.0047 295.966 14.5275H296.057C296.22 14.0085 296.538 13.5938 297.011 13.2831C297.485 12.9688 298.044 12.8116 298.688 12.8116C299.513 12.8116 300.184 13.0748 300.699 13.6013C301.214 14.1278 301.472 14.8532 301.472 15.7775V21.6525H298.693V16.4138C298.693 15.9782 298.58 15.6468 298.352 15.4195C298.129 15.1885 297.841 15.0729 297.489 15.0729C297.106 15.0729 296.805 15.1979 296.585 15.4479C296.369 15.6941 296.261 16.0256 296.261 16.4422V21.6525H293.591V16.3854C293.591 15.9801 293.481 15.66 293.261 15.4252C293.042 15.1903 292.752 15.0729 292.392 15.0729C292.028 15.0729 291.731 15.2017 291.5 15.4593C291.273 15.7131 291.159 16.0559 291.159 16.4877V21.6525H288.381ZM307.273 21.8172C305.902 21.8172 304.822 21.4176 304.034 20.6184C303.25 19.8191 302.858 18.7206 302.858 17.3229C302.858 16.4214 303.036 15.6335 303.392 14.9593C303.748 14.2813 304.25 13.7547 304.898 13.3797C305.545 13.001 306.309 12.8116 307.188 12.8116C308.013 12.8116 308.744 12.9839 309.381 13.3286C310.017 13.6695 310.515 14.1714 310.875 14.8343C311.235 15.4972 311.415 16.3078 311.415 17.2661V17.9593H305.597V18.0331C305.597 18.5672 305.75 18.9972 306.057 19.3229C306.367 19.6487 306.79 19.8116 307.324 19.8116C307.688 19.8116 308.004 19.7358 308.273 19.5843C308.542 19.429 308.729 19.2074 308.835 18.9195L311.386 18.9934C311.227 19.8494 310.788 20.535 310.068 21.0502C309.348 21.5616 308.417 21.8172 307.273 21.8172ZM305.597 16.3456H308.83C308.826 15.8987 308.674 15.5331 308.375 15.2491C308.08 14.9612 307.703 14.8172 307.244 14.8172C306.782 14.8172 306.396 14.9631 306.085 15.2547C305.778 15.5464 305.616 15.91 305.597 16.3456Z" fill="black"/>
<rect x="239" y="31" width="201" height="29" fill="#00A3FF"/>
<path d="M245.881 52V40.3636H250.688C251.559 40.3636 252.311 40.5208 252.943 40.8352C253.58 41.1496 254.07 41.5966 254.415 42.1761C254.759 42.7519 254.932 43.4394 254.932 44.2386C254.932 45.0417 254.756 45.7254 254.403 46.2898C254.051 46.8542 253.555 47.2803 252.915 47.5682L255.33 52H252.261L250.136 48.017H248.693V52H245.881ZM248.693 45.8011H250.08C250.712 45.8011 251.193 45.6761 251.523 45.4261C251.852 45.1723 252.017 44.7765 252.017 44.2386C252.017 43.1667 251.371 42.6307 250.08 42.6307H248.693V45.8011ZM260.382 52.1648C259.011 52.1648 257.931 51.7652 257.143 50.9659C256.359 50.1667 255.967 49.0682 255.967 47.6705C255.967 46.7689 256.145 45.9811 256.501 45.3068C256.857 44.6288 257.359 44.1023 258.007 43.7273C258.655 43.3485 259.418 43.1591 260.297 43.1591C261.123 43.1591 261.854 43.3314 262.49 43.6761C263.126 44.017 263.625 44.5189 263.984 45.1818C264.344 45.8447 264.524 46.6553 264.524 47.6136V48.3068H258.706V48.3807C258.706 48.9148 258.859 49.3447 259.166 49.6705C259.477 49.9962 259.899 50.1591 260.433 50.1591C260.797 50.1591 261.113 50.0833 261.382 49.9318C261.651 49.7765 261.839 49.5549 261.945 49.267L264.496 49.3409C264.337 50.197 263.897 50.8826 263.178 51.3977C262.458 51.9091 261.526 52.1648 260.382 52.1648ZM258.706 46.6932H261.939C261.935 46.2462 261.784 45.8807 261.484 45.5966C261.189 45.3087 260.812 45.1648 260.354 45.1648C259.892 45.1648 259.505 45.3106 259.195 45.6023C258.888 45.8939 258.725 46.2576 258.706 46.6932ZM273.562 45.9375L271.011 46.0057C270.973 45.7292 270.835 45.5038 270.597 45.3295C270.358 45.1515 270.055 45.0625 269.688 45.0625C269.366 45.0625 269.091 45.1269 268.864 45.2557C268.64 45.3807 268.53 45.5549 268.534 45.7784C268.53 45.9451 268.598 46.0928 268.739 46.2216C268.883 46.3466 269.138 46.447 269.506 46.5227L271.188 46.8409C272.903 47.1705 273.767 47.9583 273.778 49.2045C273.775 49.803 273.597 50.3239 273.244 50.767C272.896 51.2102 272.419 51.5549 271.812 51.8011C271.206 52.0436 270.513 52.1648 269.733 52.1648C268.487 52.1648 267.504 51.9091 266.784 51.3977C266.064 50.8826 265.655 50.1932 265.557 49.3295L268.301 49.2614C268.362 49.5795 268.519 49.822 268.773 49.9886C269.027 50.1553 269.35 50.2386 269.744 50.2386C270.1 50.2386 270.39 50.1723 270.614 50.0398C270.837 49.9072 270.951 49.7311 270.955 49.5114C270.943 49.1439 270.589 48.892 269.892 48.7557L268.369 48.4659C266.631 48.1439 265.767 47.3011 265.778 45.9375C265.775 45.0625 266.121 44.3807 266.818 43.892C267.515 43.4034 268.455 43.1591 269.636 43.1591C270.818 43.1591 271.75 43.4072 272.432 43.9034C273.114 44.3958 273.491 45.0739 273.562 45.9375ZM279.22 52.1648C278.307 52.1648 277.521 51.9773 276.862 51.6023C276.203 51.2235 275.696 50.697 275.339 50.0227C274.987 49.3447 274.811 48.5587 274.811 47.6648C274.811 46.767 274.987 45.9811 275.339 45.3068C275.696 44.6288 276.203 44.1023 276.862 43.7273C277.521 43.3485 278.307 43.1591 279.22 43.1591C280.137 43.1591 280.923 43.3485 281.578 43.7273C282.237 44.1023 282.743 44.6288 283.095 45.3068C283.451 45.9811 283.629 46.767 283.629 47.6648C283.629 48.5587 283.451 49.3447 283.095 50.0227C282.743 50.697 282.237 51.2235 281.578 51.6023C280.923 51.9773 280.137 52.1648 279.22 52.1648ZM279.237 50.0682C279.733 50.0682 280.118 49.8447 280.391 49.3977C280.663 48.9508 280.8 48.3674 280.8 47.6477C280.8 46.9242 280.663 46.339 280.391 45.892C280.118 45.4413 279.733 45.2159 279.237 45.2159C278.722 45.2159 278.326 45.4413 278.05 45.892C277.777 46.339 277.641 46.9242 277.641 47.6477C277.641 48.3674 277.777 48.9508 278.05 49.3977C278.326 49.8447 278.722 50.0682 279.237 50.0682ZM287.831 40.3636V52H285.053V40.3636H287.831ZM295.23 48.233V43.2727H298.003V52H295.355V50.375H295.264C295.071 50.9091 294.741 51.3333 294.276 51.6477C293.813 51.9583 293.255 52.1136 292.599 52.1136C292.001 52.1136 291.476 51.9773 291.026 51.7045C290.579 51.4318 290.23 51.0492 289.98 50.5568C289.73 50.0644 289.603 49.4905 289.599 48.8352V43.2727H292.378V48.2898C292.382 48.7633 292.507 49.1364 292.753 49.4091C292.999 49.6818 293.334 49.8182 293.759 49.8182C294.171 49.8182 294.52 49.6818 294.804 49.4091C295.088 49.1326 295.23 48.7405 295.23 48.233ZM304.697 43.2727V45.3182H303.124V49.2557C303.124 49.5133 303.184 49.6951 303.305 49.8011C303.43 49.9034 303.605 49.9545 303.828 49.9545C303.934 49.9545 304.046 49.9451 304.163 49.9261C304.285 49.9034 304.375 49.8845 304.436 49.8693L304.857 51.875C304.724 51.9129 304.538 51.9583 304.3 52.0114C304.061 52.0682 303.773 52.1061 303.436 52.125C302.455 52.1705 301.692 51.9754 301.146 51.5398C300.605 51.1042 300.338 50.4451 300.345 49.5625V45.3182H299.192V43.2727H300.345V41.1818H303.124V43.2727H304.697ZM306.115 52V43.2727H308.893V52H306.115ZM307.507 42.2557C307.117 42.2557 306.782 42.1269 306.501 41.8693C306.221 41.608 306.081 41.2936 306.081 40.9261C306.081 40.5587 306.221 40.2462 306.501 39.9886C306.782 39.7311 307.117 39.6023 307.507 39.6023C307.901 39.6023 308.236 39.7311 308.513 39.9886C308.793 40.2462 308.933 40.5587 308.933 40.9261C308.933 41.2936 308.793 41.608 308.513 41.8693C308.236 42.1269 307.901 42.2557 307.507 42.2557ZM314.736 52.1648C313.823 52.1648 313.037 51.9773 312.378 51.6023C311.719 51.2235 311.211 50.697 310.855 50.0227C310.503 49.3447 310.327 48.5587 310.327 47.6648C310.327 46.767 310.503 45.9811 310.855 45.3068C311.211 44.6288 311.719 44.1023 312.378 43.7273C313.037 43.3485 313.823 43.1591 314.736 43.1591C315.652 43.1591 316.438 43.3485 317.094 43.7273C317.753 44.1023 318.259 44.6288 318.611 45.3068C318.967 45.9811 319.145 46.767 319.145 47.6648C319.145 48.5587 318.967 49.3447 318.611 50.0227C318.259 50.697 317.753 51.2235 317.094 51.6023C316.438 51.9773 315.652 52.1648 314.736 52.1648ZM314.753 50.0682C315.249 50.0682 315.634 49.8447 315.906 49.3977C316.179 48.9508 316.315 48.3674 316.315 47.6477C316.315 46.9242 316.179 46.339 315.906 45.892C315.634 45.4413 315.249 45.2159 314.753 45.2159C314.238 45.2159 313.842 45.4413 313.565 45.892C313.293 46.339 313.156 46.9242 313.156 47.6477C313.156 48.3674 313.293 48.9508 313.565 49.3977C313.842 49.8447 314.238 50.0682 314.753 50.0682ZM323.347 47.0227V52H320.568V43.2727H323.21V44.875H323.307C323.5 44.3447 323.83 43.9261 324.295 43.6193C324.761 43.3125 325.316 43.1591 325.96 43.1591C326.574 43.1591 327.106 43.2955 327.557 43.5682C328.011 43.8409 328.364 44.2235 328.614 44.7159C328.867 45.2083 328.992 45.7822 328.989 46.4375V52H326.21V46.983C326.214 46.4981 326.091 46.1193 325.841 45.8466C325.595 45.5739 325.252 45.4375 324.812 45.4375C324.373 45.4375 324.019 45.5777 323.75 45.858C323.485 46.1383 323.35 46.5265 323.347 47.0227Z" fill="white"/>
<rect x="239" y="64" width="201" height="29" fill="#00A3FF"/>
<path d="M245.881 85V73.3636H250.688C251.559 73.3636 252.311 73.5208 252.943 73.8352C253.58 74.1496 254.07 74.5966 254.415 75.1761C254.759 75.7519 254.932 76.4394 254.932 77.2386C254.932 78.0417 254.756 78.7254 254.403 79.2898C254.051 79.8542 253.555 80.2803 252.915 80.5682L255.33 85H252.261L250.136 81.017H248.693V85H245.881ZM248.693 78.8011H250.08C250.712 78.8011 251.193 78.6761 251.523 78.4261C251.852 78.1723 252.017 77.7765 252.017 77.2386C252.017 76.1667 251.371 75.6307 250.08 75.6307H248.693V78.8011ZM260.382 85.1648C259.011 85.1648 257.931 84.7652 257.143 83.9659C256.359 83.1667 255.967 82.0682 255.967 80.6705C255.967 79.7689 256.145 78.9811 256.501 78.3068C256.857 77.6288 257.359 77.1023 258.007 76.7273C258.655 76.3485 259.418 76.1591 260.297 76.1591C261.123 76.1591 261.854 76.3314 262.49 76.6761C263.126 77.017 263.625 77.5189 263.984 78.1818C264.344 78.8447 264.524 79.6553 264.524 80.6136V81.3068H258.706V81.3807C258.706 81.9148 258.859 82.3447 259.166 82.6705C259.477 82.9962 259.899 83.1591 260.433 83.1591C260.797 83.1591 261.113 83.0833 261.382 82.9318C261.651 82.7765 261.839 82.5549 261.945 82.267L264.496 82.3409C264.337 83.197 263.897 83.8826 263.178 84.3977C262.458 84.9091 261.526 85.1648 260.382 85.1648ZM258.706 79.6932H261.939C261.935 79.2462 261.784 78.8807 261.484 78.5966C261.189 78.3087 260.812 78.1648 260.354 78.1648C259.892 78.1648 259.505 78.3106 259.195 78.6023C258.888 78.8939 258.725 79.2576 258.706 79.6932ZM273.562 78.9375L271.011 79.0057C270.973 78.7292 270.835 78.5038 270.597 78.3295C270.358 78.1515 270.055 78.0625 269.688 78.0625C269.366 78.0625 269.091 78.1269 268.864 78.2557C268.64 78.3807 268.53 78.5549 268.534 78.7784C268.53 78.9451 268.598 79.0928 268.739 79.2216C268.883 79.3466 269.138 79.447 269.506 79.5227L271.188 79.8409C272.903 80.1705 273.767 80.9583 273.778 82.2045C273.775 82.803 273.597 83.3239 273.244 83.767C272.896 84.2102 272.419 84.5549 271.812 84.8011C271.206 85.0436 270.513 85.1648 269.733 85.1648C268.487 85.1648 267.504 84.9091 266.784 84.3977C266.064 83.8826 265.655 83.1932 265.557 82.3295L268.301 82.2614C268.362 82.5795 268.519 82.822 268.773 82.9886C269.027 83.1553 269.35 83.2386 269.744 83.2386C270.1 83.2386 270.39 83.1723 270.614 83.0398C270.837 82.9072 270.951 82.7311 270.955 82.5114C270.943 82.1439 270.589 81.892 269.892 81.7557L268.369 81.4659C266.631 81.1439 265.767 80.3011 265.778 78.9375C265.775 78.0625 266.121 77.3807 266.818 76.892C267.515 76.4034 268.455 76.1591 269.636 76.1591C270.818 76.1591 271.75 76.4072 272.432 76.9034C273.114 77.3958 273.491 78.0739 273.562 78.9375ZM279.22 85.1648C278.307 85.1648 277.521 84.9773 276.862 84.6023C276.203 84.2235 275.696 83.697 275.339 83.0227C274.987 82.3447 274.811 81.5587 274.811 80.6648C274.811 79.767 274.987 78.9811 275.339 78.3068C275.696 77.6288 276.203 77.1023 276.862 76.7273C277.521 76.3485 278.307 76.1591 279.22 76.1591C280.137 76.1591 280.923 76.3485 281.578 76.7273C282.237 77.1023 282.743 77.6288 283.095 78.3068C283.451 78.9811 283.629 79.767 283.629 80.6648C283.629 81.5587 283.451 82.3447 283.095 83.0227C282.743 83.697 282.237 84.2235 281.578 84.6023C280.923 84.9773 280.137 85.1648 279.22 85.1648ZM279.237 83.0682C279.733 83.0682 280.118 82.8447 280.391 82.3977C280.663 81.9508 280.8 81.3674 280.8 80.6477C280.8 79.9242 280.663 79.339 280.391 78.892C280.118 78.4413 279.733 78.2159 279.237 78.2159C278.722 78.2159 278.326 78.4413 278.05 78.892C277.777 79.339 277.641 79.9242 277.641 80.6477C277.641 81.3674 277.777 81.9508 278.05 82.3977C278.326 82.8447 278.722 83.0682 279.237 83.0682ZM287.831 73.3636V85H285.053V73.3636H287.831ZM295.23 81.233V76.2727H298.003V85H295.355V83.375H295.264C295.071 83.9091 294.741 84.3333 294.276 84.6477C293.813 84.9583 293.255 85.1136 292.599 85.1136C292.001 85.1136 291.476 84.9773 291.026 84.7045C290.579 84.4318 290.23 84.0492 289.98 83.5568C289.73 83.0644 289.603 82.4905 289.599 81.8352V76.2727H292.378V81.2898C292.382 81.7633 292.507 82.1364 292.753 82.4091C292.999 82.6818 293.334 82.8182 293.759 82.8182C294.171 82.8182 294.52 82.6818 294.804 82.4091C295.088 82.1326 295.23 81.7405 295.23 81.233ZM304.697 76.2727V78.3182H303.124V82.2557C303.124 82.5133 303.184 82.6951 303.305 82.8011C303.43 82.9034 303.605 82.9545 303.828 82.9545C303.934 82.9545 304.046 82.9451 304.163 82.9261C304.285 82.9034 304.375 82.8845 304.436 82.8693L304.857 84.875C304.724 84.9129 304.538 84.9583 304.3 85.0114C304.061 85.0682 303.773 85.1061 303.436 85.125C302.455 85.1705 301.692 84.9754 301.146 84.5398C300.605 84.1042 300.338 83.4451 300.345 82.5625V78.3182H299.192V76.2727H300.345V74.1818H303.124V76.2727H304.697ZM306.115 85V76.2727H308.893V85H306.115ZM307.507 75.2557C307.117 75.2557 306.782 75.1269 306.501 74.8693C306.221 74.608 306.081 74.2936 306.081 73.9261C306.081 73.5587 306.221 73.2462 306.501 72.9886C306.782 72.7311 307.117 72.6023 307.507 72.6023C307.901 72.6023 308.236 72.7311 308.513 72.9886C308.793 73.2462 308.933 73.5587 308.933 73.9261C308.933 74.2936 308.793 74.608 308.513 74.8693C308.236 75.1269 307.901 75.2557 307.507 75.2557ZM314.736 85.1648C313.823 85.1648 313.037 84.9773 312.378 84.6023C311.719 84.2235 311.211 83.697 310.855 83.0227C310.503 82.3447 310.327 81.5587 310.327 80.6648C310.327 79.767 310.503 78.9811 310.855 78.3068C311.211 77.6288 311.719 77.1023 312.378 76.7273C313.037 76.3485 313.823 76.1591 314.736 76.1591C315.652 76.1591 316.438 76.3485 317.094 76.7273C317.753 77.1023 318.259 77.6288 318.611 78.3068C318.967 78.9811 319.145 79.767 319.145 80.6648C319.145 81.5587 318.967 82.3447 318.611 83.0227C318.259 83.697 317.753 84.2235 317.094 84.6023C316.438 84.9773 315.652 85.1648 314.736 85.1648ZM314.753 83.0682C315.249 83.0682 315.634 82.8447 315.906 82.3977C316.179 81.9508 316.315 81.3674 316.315 80.6477C316.315 79.9242 316.179 79.339 315.906 78.892C315.634 78.4413 315.249 78.2159 314.753 78.2159C314.238 78.2159 313.842 78.4413 313.565 78.892C313.293 79.339 313.156 79.9242 313.156 80.6477C313.156 81.3674 313.293 81.9508 313.565 82.3977C313.842 82.8447 314.238 83.0682 314.753 83.0682ZM323.347 80.0227V85H320.568V76.2727H323.21V77.875H323.307C323.5 77.3447 323.83 76.9261 324.295 76.6193C324.761 76.3125 325.316 76.1591 325.96 76.1591C326.574 76.1591 327.106 76.2955 327.557 76.5682C328.011 76.8409 328.364 77.2235 328.614 77.7159C328.867 78.2083 328.992 78.7822 328.989 79.4375V85H326.21V79.983C326.214 79.4981 326.091 79.1193 325.841 78.8466C325.595 78.5739 325.252 78.4375 324.812 78.4375C324.373 78.4375 324.019 78.5777 323.75 78.858C323.485 79.1383 323.35 79.5265 323.347 80.0227Z" fill="white"/>
<path d="M203.5 45.5H242" stroke="#00A3FF" stroke-width="3"/>
<path d="M203.5 79H242" stroke="#00A3FF" stroke-width="3"/>
<path d="M488.5 0V124M488.5 124L476 111.5M488.5 124L501 111.5" stroke="black" stroke-width="3"/>
<path d="M499 35.5625L507.727 35.5625L507.727 39.3466C507.727 40.3437 507.53 41.1009 507.135 41.6179C506.74 42.1378 506.21 42.3977 505.545 42.3977C505.065 42.3977 504.652 42.2429 504.305 41.9332C503.959 41.6236 503.736 41.2159 503.636 40.7102L503.551 40.7102C503.537 41.0852 503.442 41.4261 503.266 41.733C503.092 42.0398 502.852 42.2841 502.545 42.4659C502.241 42.6477 501.884 42.7386 501.472 42.7386C500.994 42.7386 500.57 42.6136 500.197 42.3636C499.825 42.1165 499.533 41.7642 499.32 41.3068C499.107 40.8494 499 40.304 499 39.6705L499 35.5625ZM500.892 37.9318L500.892 39.0398C500.892 39.8352 501.187 40.233 501.778 40.233C502.085 40.233 502.321 40.1293 502.486 39.9219C502.651 39.7173 502.733 39.4347 502.733 39.0739L502.733 37.9318L500.892 37.9318ZM504.199 37.9318L504.199 38.9034C504.199 39.2159 504.271 39.4702 504.416 39.6662C504.561 39.8622 504.767 39.9602 505.034 39.9602C505.304 39.9602 505.51 39.8636 505.652 39.6705C505.797 39.4773 505.869 39.233 505.869 38.9375L505.869 37.9318L504.199 37.9318ZM499 43.6122L505.545 43.6122L505.545 45.8963L504.301 45.8963L504.301 45.9645C504.761 46.0866 505.098 46.277 505.311 46.5355C505.524 46.794 505.631 47.098 505.631 47.4474C505.631 47.6179 505.609 47.7841 505.567 47.946C505.524 48.108 505.466 48.2543 505.392 48.3849L503.466 47.7031C503.511 47.6065 503.551 47.5057 503.585 47.4006C503.619 47.2955 503.636 47.1804 503.636 47.0554C503.636 46.7628 503.524 46.5085 503.3 46.2926C503.078 46.0767 502.781 45.9673 502.409 45.9645L499 45.9645L499 43.6122ZM498.881 51.8814C498.881 50.8331 499.178 50.0078 499.771 49.4055C500.368 48.8061 501.196 48.5064 502.256 48.5064C502.932 48.5064 503.523 48.6428 504.028 48.9155C504.534 49.1882 504.928 49.5732 505.209 50.0703C505.49 50.5675 505.631 51.1541 505.631 51.8303C505.631 52.4893 505.496 53.0618 505.226 53.5476C504.956 54.0362 504.57 54.4141 504.067 54.6811C503.567 54.951 502.969 55.0859 502.273 55.0859L501.727 55.0859L501.727 50.8246L501.625 50.8246C501.31 50.8246 501.048 50.9212 500.841 51.1143C500.636 51.3104 500.534 51.5831 500.534 51.9325C500.534 52.174 500.584 52.3842 500.683 52.5632C500.786 52.745 500.929 52.87 501.114 52.9382L501.114 55.0859C500.432 54.9751 499.889 54.6399 499.486 54.0803C499.082 53.5234 498.881 52.7905 498.881 51.8814ZM503.023 50.8246L503.023 52.9212C503.304 52.9155 503.533 52.8132 503.709 52.6143C503.888 52.4183 503.977 52.174 503.977 51.8814C503.977 51.5945 503.889 51.3473 503.713 51.1399C503.537 50.9354 503.307 50.8303 503.023 50.8246ZM498.898 57.8697C498.898 57.2447 499.053 56.7333 499.362 56.3356C499.675 55.9379 500.156 55.739 500.807 55.739C501.287 55.739 501.673 55.8455 501.966 56.0586C502.259 56.2717 502.477 56.56 502.622 56.9237C502.767 57.2873 502.855 57.6935 502.886 58.1424C502.926 58.6935 502.984 59.0842 503.061 59.3143C503.141 59.5444 503.276 59.6594 503.466 59.6594L503.483 59.6594C503.653 59.6594 503.784 59.5941 503.875 59.4634C503.966 59.3327 504.011 59.1651 504.011 58.9606C504.011 58.7362 503.962 58.5529 503.862 58.4109C503.766 58.2717 503.616 58.1879 503.415 58.1594L503.415 55.9947C503.812 56.0231 504.179 56.1495 504.514 56.3739C504.852 56.6012 505.122 56.9322 505.324 57.3668C505.528 57.8015 505.631 58.3441 505.631 58.9947C505.631 59.6197 505.536 60.1566 505.345 60.6055C505.155 61.0572 504.898 61.4038 504.574 61.6452C504.25 61.8896 503.886 62.0117 503.483 62.0117L499 62.0117L499 59.8129L499.92 59.8129L499.92 59.7617C499.554 59.5629 499.291 59.3043 499.132 58.9861C498.976 58.668 498.898 58.2958 498.898 57.8697ZM500.381 58.6367C500.381 58.9038 500.462 59.1438 500.624 59.3569C500.788 59.57 501.02 59.6765 501.318 59.6765L501.864 59.6765C501.767 59.4435 501.687 59.131 501.625 58.739C501.582 58.4663 501.5 58.2674 501.378 58.1424C501.256 58.0174 501.111 57.9549 500.943 57.9549C500.761 57.9549 500.622 58.0188 500.526 58.1467C500.429 58.2745 500.381 58.4379 500.381 58.6367ZM498.915 65.505C498.915 65.0391 499.037 64.6101 499.281 64.218C499.526 63.8288 499.896 63.5163 500.393 63.2805C500.891 63.0476 501.517 62.9311 502.273 62.9311C503.062 62.9311 503.705 63.0533 504.199 63.2976C504.693 63.5447 505.055 63.8629 505.286 64.2521C505.516 64.6442 505.631 65.0561 505.631 65.4879C505.631 65.9737 505.509 66.37 505.264 66.6768C505.023 66.9837 504.736 67.201 504.403 67.3288L504.403 67.3629L507.727 67.3629L507.727 69.7152L499 69.7152L499 67.38L500.074 67.38L500.074 67.3288C499.741 67.1925 499.464 66.9695 499.243 66.6598C499.024 66.3501 498.915 65.9652 498.915 65.505ZM500.722 66.3743C500.722 66.6982 500.861 66.9524 501.139 67.1371C501.418 67.3217 501.795 67.4141 502.273 67.4141C502.759 67.4141 503.138 67.3217 503.411 67.1371C503.686 66.9524 503.824 66.6982 503.824 66.3743C503.824 66.0504 503.686 65.799 503.411 65.62C503.138 65.4411 502.759 65.3516 502.273 65.3516C501.787 65.3516 501.406 65.4411 501.131 65.62C500.858 65.799 500.722 66.0504 500.722 66.3743ZM505.545 74.7734L503.841 74.7734L503.841 73.6484L501.105 73.6484C500.832 73.6484 500.696 73.7962 500.696 74.0916C500.696 74.1626 500.705 74.245 500.722 74.3388C500.739 74.4354 500.753 74.5064 500.764 74.5518L499.111 74.8928C499.08 74.7876 499.041 74.6371 498.996 74.4411C498.95 74.2479 498.92 74.0178 498.906 73.7507C498.861 72.9382 499.007 72.3232 499.345 71.9055C499.686 71.4908 500.199 71.2876 500.884 71.2962L503.841 71.2962L503.841 70.4609L505.545 70.4609L505.545 71.2962L507.114 71.2962L507.114 73.6484L505.545 73.6484L505.545 74.7734ZM502.682 78.2262L499 78.2262L499 75.8739L507.727 75.8739L507.727 78.141L504.301 78.141L504.301 78.2092C504.719 78.3569 505.044 78.6026 505.277 78.9464C505.513 79.2901 505.631 79.7035 505.631 80.1864C505.631 80.6495 505.526 81.0515 505.315 81.3924C505.105 81.7362 504.815 82.0018 504.446 82.1893C504.077 82.3796 503.653 82.4734 503.176 82.4705L499 82.4705L499 80.1183L502.682 80.1183C503.006 80.1211 503.26 80.0401 503.445 79.8754C503.629 79.7134 503.722 79.4819 503.722 79.1808C503.722 78.8938 503.629 78.6637 503.445 78.4904C503.26 78.3171 503.006 78.229 502.682 78.2262Z" fill="black"/>
</svg>
