<svg width="579" height="529" viewBox="0 0 579 529" fill="none" xmlns="http://www.w3.org/2000/svg">
<rect width="579" height="529" fill="white"/>
<rect x="3" y="3" width="576" height="125" fill="black"/>
<rect x="1.5" y="1.5" width="576" height="526" stroke="black" stroke-width="3"/>
<rect x="18" y="146" width="541" height="125" fill="black"/>
<rect x="35.5" y="163.5" width="157" height="93" fill="white" stroke="black" stroke-width="3"/>
<path d="M48.8807 204.364H52.3636L55.3182 211.568H55.4545L58.4091 204.364H61.892V216H59.1534V208.852H59.0568L56.2614 215.926H54.5114L51.7159 208.812H51.6193V216H48.8807V204.364ZM66.9119 216.125C66.2718 216.125 65.6866 215.958 65.1562 215.625C64.6297 215.288 64.2093 214.788 63.8949 214.125C63.5805 213.462 63.4233 212.634 63.4233 211.642C63.4233 210.616 63.5862 209.773 63.9119 209.114C64.2377 208.451 64.6657 207.96 65.196 207.642C65.7263 207.32 66.2945 207.159 66.9006 207.159C67.59 207.159 68.1316 207.328 68.5256 207.665C68.9233 207.998 69.2036 208.366 69.3665 208.767H69.4233V204.364H72.2017V216H69.4517V214.585H69.3665C69.1922 214.987 68.9044 215.345 68.5028 215.659C68.1013 215.97 67.571 216.125 66.9119 216.125ZM67.8778 213.96C68.3854 213.96 68.7794 213.75 69.0597 213.33C69.3438 212.909 69.4858 212.345 69.4858 211.636C69.4858 210.924 69.3438 210.362 69.0597 209.949C68.7794 209.536 68.3854 209.33 67.8778 209.33C67.3627 209.33 66.9669 209.54 66.6903 209.96C66.4138 210.377 66.2756 210.936 66.2756 211.636C66.2756 212.341 66.4138 212.905 66.6903 213.33C66.9669 213.75 67.3627 213.96 67.8778 213.96ZM73.5781 206.648V204.364H83.4134V206.648H79.8849V216H77.1122V206.648H73.5781ZM87.6009 216.165C86.2296 216.165 85.1501 215.765 84.3622 214.966C83.5781 214.167 83.1861 213.068 83.1861 211.67C83.1861 210.769 83.3641 209.981 83.7202 209.307C84.0762 208.629 84.5781 208.102 85.2259 207.727C85.8736 207.348 86.6368 207.159 87.5156 207.159C88.3414 207.159 89.0724 207.331 89.7088 207.676C90.3452 208.017 90.8433 208.519 91.2031 209.182C91.563 209.845 91.7429 210.655 91.7429 211.614V212.307H85.9247V212.381C85.9247 212.915 86.0781 213.345 86.3849 213.67C86.6955 213.996 87.1179 214.159 87.652 214.159C88.0156 214.159 88.3319 214.083 88.6009 213.932C88.8698 213.777 89.0573 213.555 89.1634 213.267L91.7145 213.341C91.5554 214.197 91.116 214.883 90.3963 215.398C89.6766 215.909 88.7448 216.165 87.6009 216.165ZM85.9247 210.693H89.1577C89.1539 210.246 89.0024 209.881 88.7031 209.597C88.4077 209.309 88.0308 209.165 87.5724 209.165C87.1103 209.165 86.724 209.311 86.4134 209.602C86.1065 209.894 85.9437 210.258 85.9247 210.693ZM95.4006 207.273L96.8381 210.148L98.3267 207.273H101.128L98.6903 211.636L101.219 216H98.4403L96.8381 213.102L95.2756 216H92.4574L94.9915 211.636L92.5824 207.273H95.4006ZM107.322 207.273V209.318H105.749V213.256C105.749 213.513 105.809 213.695 105.93 213.801C106.055 213.903 106.23 213.955 106.453 213.955C106.559 213.955 106.671 213.945 106.788 213.926C106.91 213.903 107 213.884 107.061 213.869L107.482 215.875C107.349 215.913 107.163 215.958 106.925 216.011C106.686 216.068 106.398 216.106 106.061 216.125C105.08 216.17 104.317 215.975 103.771 215.54C103.23 215.104 102.963 214.445 102.97 213.562V209.318H101.817V207.273H102.97V205.182H105.749V207.273H107.322Z" fill="black"/>
<rect x="211.5" y="163.5" width="157" height="93" fill="white" stroke="black" stroke-width="3"/>
<path d="M235.443 208.58H232.602C232.53 207.996 232.295 207.532 231.898 207.188C231.504 206.843 230.987 206.67 230.347 206.67C229.498 206.67 228.831 206.979 228.347 207.597C227.866 208.21 227.625 209.072 227.625 210.182C227.625 211.337 227.867 212.212 228.352 212.807C228.841 213.398 229.5 213.693 230.33 213.693C230.947 213.693 231.455 213.536 231.852 213.222C232.254 212.907 232.504 212.47 232.602 211.909L235.443 211.926C235.39 212.441 235.241 212.951 234.994 213.455C234.748 213.955 234.407 214.409 233.972 214.818C233.54 215.223 233.015 215.549 232.398 215.795C231.78 216.038 231.072 216.159 230.273 216.159C229.22 216.159 228.277 215.928 227.443 215.466C226.614 215 225.958 214.322 225.477 213.432C224.996 212.542 224.756 211.458 224.756 210.182C224.756 208.898 225 207.812 225.489 206.926C225.977 206.036 226.638 205.36 227.472 204.898C228.305 204.436 229.239 204.205 230.273 204.205C231.212 204.205 232.053 204.377 232.795 204.722C233.538 205.062 234.14 205.559 234.602 206.21C235.068 206.862 235.348 207.652 235.443 208.58ZM237.053 216V207.273H239.831V216H237.053ZM238.445 206.256C238.054 206.256 237.719 206.127 237.439 205.869C237.159 205.608 237.018 205.294 237.018 204.926C237.018 204.559 237.159 204.246 237.439 203.989C237.719 203.731 238.054 203.602 238.445 203.602C238.839 203.602 239.174 203.731 239.45 203.989C239.731 204.246 239.871 204.559 239.871 204.926C239.871 205.294 239.731 205.608 239.45 205.869C239.174 206.127 238.839 206.256 238.445 206.256ZM246.526 207.273V209.318H244.952V213.256C244.952 213.513 245.012 213.695 245.134 213.801C245.259 213.903 245.433 213.955 245.656 213.955C245.762 213.955 245.874 213.945 245.991 213.926C246.113 213.903 246.204 213.884 246.264 213.869L246.685 215.875C246.552 215.913 246.366 215.958 246.128 216.011C245.889 216.068 245.601 216.106 245.264 216.125C244.283 216.17 243.52 215.975 242.974 215.54C242.433 215.104 242.166 214.445 242.173 213.562V209.318H241.02V207.273H242.173V205.182H244.952V207.273H246.526ZM250.403 216.148C249.57 216.148 248.883 215.936 248.341 215.511C247.803 215.087 247.534 214.443 247.534 213.58C247.534 212.936 247.682 212.424 247.977 212.045C248.273 211.663 248.667 211.381 249.159 211.199C249.652 211.013 250.191 210.896 250.778 210.847C251.525 210.782 252.055 210.703 252.369 210.608C252.688 210.513 252.847 210.333 252.847 210.068V210.04C252.847 209.748 252.746 209.523 252.545 209.364C252.345 209.205 252.074 209.125 251.733 209.125C251.366 209.125 251.07 209.205 250.847 209.364C250.623 209.523 250.481 209.742 250.42 210.023L247.858 209.932C247.968 209.136 248.35 208.475 249.006 207.949C249.665 207.422 250.581 207.159 251.756 207.159C252.498 207.159 253.159 207.275 253.739 207.506C254.322 207.733 254.78 208.062 255.114 208.494C255.451 208.926 255.619 209.451 255.619 210.068V216H253.006V214.784H252.938C252.453 215.693 251.608 216.148 250.403 216.148ZM251.261 214.33C251.705 214.33 252.081 214.197 252.392 213.932C252.706 213.667 252.864 213.322 252.864 212.898V212.068C252.708 212.152 252.489 212.222 252.205 212.278C251.924 212.335 251.655 212.383 251.398 212.42C250.576 212.545 250.165 212.886 250.165 213.443C250.165 213.731 250.267 213.951 250.472 214.102C250.676 214.254 250.939 214.33 251.261 214.33ZM262.244 207.273V209.318H260.67V213.256C260.67 213.513 260.731 213.695 260.852 213.801C260.977 213.903 261.152 213.955 261.375 213.955C261.481 213.955 261.593 213.945 261.71 213.926C261.831 213.903 261.922 213.884 261.983 213.869L262.403 215.875C262.271 215.913 262.085 215.958 261.847 216.011C261.608 216.068 261.32 216.106 260.983 216.125C260.002 216.17 259.239 215.975 258.693 215.54C258.152 215.104 257.884 214.445 257.892 213.562V209.318H256.739V207.273H257.892V205.182H260.67V207.273H262.244ZM263.662 216V207.273H266.44V216H263.662ZM265.054 206.256C264.664 206.256 264.329 206.127 264.048 205.869C263.768 205.608 263.628 205.294 263.628 204.926C263.628 204.559 263.768 204.246 264.048 203.989C264.329 203.731 264.664 203.602 265.054 203.602C265.448 203.602 265.783 203.731 266.06 203.989C266.34 204.246 266.48 204.559 266.48 204.926C266.48 205.294 266.34 205.608 266.06 205.869C265.783 206.127 265.448 206.256 265.054 206.256ZM272.283 216.165C271.37 216.165 270.584 215.977 269.925 215.602C269.266 215.223 268.758 214.697 268.402 214.023C268.05 213.345 267.874 212.559 267.874 211.665C267.874 210.767 268.05 209.981 268.402 209.307C268.758 208.629 269.266 208.102 269.925 207.727C270.584 207.348 271.37 207.159 272.283 207.159C273.199 207.159 273.985 207.348 274.641 207.727C275.3 208.102 275.805 208.629 276.158 209.307C276.514 209.981 276.692 210.767 276.692 211.665C276.692 212.559 276.514 213.345 276.158 214.023C275.805 214.697 275.3 215.223 274.641 215.602C273.985 215.977 273.199 216.165 272.283 216.165ZM272.3 214.068C272.796 214.068 273.18 213.845 273.453 213.398C273.726 212.951 273.862 212.367 273.862 211.648C273.862 210.924 273.726 210.339 273.453 209.892C273.18 209.441 272.796 209.216 272.3 209.216C271.785 209.216 271.389 209.441 271.112 209.892C270.839 210.339 270.703 210.924 270.703 211.648C270.703 212.367 270.839 212.951 271.112 213.398C271.389 213.845 271.785 214.068 272.3 214.068ZM280.893 211.023V216H278.115V207.273H280.757V208.875H280.854C281.047 208.345 281.376 207.926 281.842 207.619C282.308 207.312 282.863 207.159 283.507 207.159C284.121 207.159 284.653 207.295 285.104 207.568C285.558 207.841 285.911 208.223 286.161 208.716C286.414 209.208 286.539 209.782 286.536 210.438V216H283.757V210.983C283.761 210.498 283.638 210.119 283.388 209.847C283.142 209.574 282.799 209.438 282.359 209.438C281.92 209.438 281.566 209.578 281.297 209.858C281.032 210.138 280.897 210.527 280.893 211.023Z" fill="black"/>
<rect x="35.5" y="288.5" width="157" height="93" fill="white" stroke="black" stroke-width="3"/>
<path d="M59.4432 333.58H56.6023C56.5303 332.996 56.2955 332.532 55.8977 332.188C55.5038 331.843 54.9867 331.67 54.3466 331.67C53.4981 331.67 52.8314 331.979 52.3466 332.597C51.8655 333.21 51.625 334.072 51.625 335.182C51.625 336.337 51.8674 337.212 52.3523 337.807C52.8409 338.398 53.5 338.693 54.3295 338.693C54.947 338.693 55.4545 338.536 55.8523 338.222C56.2538 337.907 56.5038 337.47 56.6023 336.909L59.4432 336.926C59.3902 337.441 59.2405 337.951 58.9943 338.455C58.7481 338.955 58.4072 339.409 57.9716 339.818C57.5398 340.223 57.0152 340.549 56.3977 340.795C55.7803 341.038 55.072 341.159 54.2727 341.159C53.2197 341.159 52.2765 340.928 51.4432 340.466C50.6136 340 49.9583 339.322 49.4773 338.432C48.9962 337.542 48.7557 336.458 48.7557 335.182C48.7557 333.898 49 332.812 49.4886 331.926C49.9773 331.036 50.6383 330.36 51.4716 329.898C52.3049 329.436 53.2386 329.205 54.2727 329.205C55.2121 329.205 56.053 329.377 56.7955 329.722C57.5379 330.062 58.1402 330.559 58.6023 331.21C59.0682 331.862 59.3485 332.652 59.4432 333.58ZM63.831 336.023V341H61.0526V329.364H63.7401V333.875H63.8366C64.0336 333.337 64.3556 332.917 64.8026 332.614C65.2533 332.311 65.8045 332.159 66.456 332.159C67.3726 332.159 68.1075 332.458 68.6605 333.057C69.2173 333.655 69.4938 334.449 69.4901 335.438V341H66.7116V335.983C66.7154 335.498 66.5942 335.119 66.348 334.847C66.1018 334.574 65.7552 334.438 65.3082 334.438C64.8688 334.438 64.5128 334.578 64.2401 334.858C63.9711 335.138 63.8348 335.527 63.831 336.023ZM73.6847 341.148C72.8513 341.148 72.1638 340.936 71.6222 340.511C71.0843 340.087 70.8153 339.443 70.8153 338.58C70.8153 337.936 70.9631 337.424 71.2585 337.045C71.554 336.663 71.9479 336.381 72.4403 336.199C72.9328 336.013 73.4725 335.896 74.0597 335.847C74.8059 335.782 75.3362 335.703 75.6506 335.608C75.9688 335.513 76.1278 335.333 76.1278 335.068V335.04C76.1278 334.748 76.0275 334.523 75.8267 334.364C75.6259 334.205 75.3551 334.125 75.0142 334.125C74.6468 334.125 74.3513 334.205 74.1278 334.364C73.9044 334.523 73.7623 334.742 73.7017 335.023L71.1392 334.932C71.2491 334.136 71.6316 333.475 72.2869 332.949C72.946 332.422 73.8627 332.159 75.0369 332.159C75.7794 332.159 76.4403 332.275 77.0199 332.506C77.6032 332.733 78.0616 333.062 78.3949 333.494C78.732 333.926 78.9006 334.451 78.9006 335.068V341H76.2869V339.784H76.2188C75.7339 340.693 74.8892 341.148 73.6847 341.148ZM74.5426 339.33C74.9858 339.33 75.3627 339.197 75.6733 338.932C75.9877 338.667 76.1449 338.322 76.1449 337.898V337.068C75.9896 337.152 75.7699 337.222 75.4858 337.278C75.2055 337.335 74.9366 337.383 74.679 337.42C73.857 337.545 73.446 337.886 73.446 338.443C73.446 338.731 73.5483 338.951 73.7528 339.102C73.9574 339.254 74.2206 339.33 74.5426 339.33ZM80.5994 344.273V332.273H83.3494V333.767H83.4347C83.6013 333.366 83.8816 332.998 84.2756 332.665C84.6733 332.328 85.2169 332.159 85.9062 332.159C86.5161 332.159 87.0843 332.32 87.6108 332.642C88.1373 332.96 88.5634 333.451 88.8892 334.114C89.215 334.773 89.3778 335.616 89.3778 336.642C89.3778 337.634 89.2206 338.462 88.9062 339.125C88.5956 339.788 88.1752 340.288 87.6449 340.625C87.1184 340.958 86.5331 341.125 85.8892 341.125C85.2301 341.125 84.6998 340.97 84.2983 340.659C83.9006 340.345 83.6127 339.987 83.4347 339.585H83.3778V344.273H80.5994ZM83.321 336.636C83.321 337.345 83.4612 337.909 83.7415 338.33C84.0256 338.75 84.4214 338.96 84.929 338.96C85.4441 338.96 85.8381 338.75 86.1108 338.33C86.3873 337.905 86.5256 337.341 86.5256 336.636C86.5256 335.936 86.3873 335.377 86.1108 334.96C85.8381 334.54 85.4441 334.33 84.929 334.33C84.4214 334.33 84.0256 334.536 83.7415 334.949C83.4612 335.362 83.321 335.924 83.321 336.636ZM95.7599 332.273V334.318H94.1861V338.256C94.1861 338.513 94.2467 338.695 94.3679 338.801C94.4929 338.903 94.6671 338.955 94.8906 338.955C94.9967 338.955 95.1084 338.945 95.2259 338.926C95.3471 338.903 95.438 338.884 95.4986 338.869L95.919 340.875C95.7865 340.913 95.6009 340.958 95.3622 341.011C95.1236 341.068 94.8357 341.106 94.4986 341.125C93.5175 341.17 92.7543 340.975 92.2088 340.54C91.6671 340.104 91.4001 339.445 91.4077 338.562V334.318H90.2543V332.273H91.4077V330.182H94.1861V332.273H95.7599ZM101.163 341.165C99.7921 341.165 98.7126 340.765 97.9247 339.966C97.1406 339.167 96.7486 338.068 96.7486 336.67C96.7486 335.769 96.9266 334.981 97.2827 334.307C97.6387 333.629 98.1406 333.102 98.7884 332.727C99.4361 332.348 100.199 332.159 101.078 332.159C101.904 332.159 102.635 332.331 103.271 332.676C103.908 333.017 104.406 333.519 104.766 334.182C105.125 334.845 105.305 335.655 105.305 336.614V337.307H99.4872V337.381C99.4872 337.915 99.6406 338.345 99.9474 338.67C100.258 338.996 100.68 339.159 101.214 339.159C101.578 339.159 101.894 339.083 102.163 338.932C102.432 338.777 102.62 338.555 102.726 338.267L105.277 338.341C105.118 339.197 104.679 339.883 103.959 340.398C103.239 340.909 102.307 341.165 101.163 341.165ZM99.4872 335.693H102.72C102.716 335.246 102.565 334.881 102.266 334.597C101.97 334.309 101.593 334.165 101.135 334.165C100.673 334.165 100.286 334.311 99.9759 334.602C99.669 334.894 99.5062 335.258 99.4872 335.693ZM106.724 341V332.273H109.423V333.864H109.514C109.673 333.288 109.933 332.86 110.293 332.58C110.652 332.295 111.071 332.153 111.548 332.153C111.779 332.153 111.999 332.182 112.207 332.239C112.416 332.295 112.603 332.373 112.77 332.472L111.952 334.756C111.83 334.699 111.7 334.65 111.56 334.608C111.423 334.562 111.272 334.54 111.105 334.54C110.67 334.54 110.295 334.697 109.98 335.011C109.666 335.326 109.507 335.742 109.503 336.261V341H106.724Z" fill="black"/>
<rect x="211.5" y="288.5" width="157" height="93" fill="white" stroke="black" stroke-width="3"/>
<path d="M235.443 333.58H232.602C232.53 332.996 232.295 332.532 231.898 332.188C231.504 331.843 230.987 331.67 230.347 331.67C229.498 331.67 228.831 331.979 228.347 332.597C227.866 333.21 227.625 334.072 227.625 335.182C227.625 336.337 227.867 337.212 228.352 337.807C228.841 338.398 229.5 338.693 230.33 338.693C230.947 338.693 231.455 338.536 231.852 338.222C232.254 337.907 232.504 337.47 232.602 336.909L235.443 336.926C235.39 337.441 235.241 337.951 234.994 338.455C234.748 338.955 234.407 339.409 233.972 339.818C233.54 340.223 233.015 340.549 232.398 340.795C231.78 341.038 231.072 341.159 230.273 341.159C229.22 341.159 228.277 340.928 227.443 340.466C226.614 340 225.958 339.322 225.477 338.432C224.996 337.542 224.756 336.458 224.756 335.182C224.756 333.898 225 332.812 225.489 331.926C225.977 331.036 226.638 330.36 227.472 329.898C228.305 329.436 229.239 329.205 230.273 329.205C231.212 329.205 232.053 329.377 232.795 329.722C233.538 330.062 234.14 330.559 234.602 331.21C235.068 331.862 235.348 332.652 235.443 333.58ZM241.126 341.165C240.214 341.165 239.428 340.977 238.768 340.602C238.109 340.223 237.602 339.697 237.246 339.023C236.893 338.345 236.717 337.559 236.717 336.665C236.717 335.767 236.893 334.981 237.246 334.307C237.602 333.629 238.109 333.102 238.768 332.727C239.428 332.348 240.214 332.159 241.126 332.159C242.043 332.159 242.829 332.348 243.484 332.727C244.143 333.102 244.649 333.629 245.001 334.307C245.357 334.981 245.536 335.767 245.536 336.665C245.536 337.559 245.357 338.345 245.001 339.023C244.649 339.697 244.143 340.223 243.484 340.602C242.829 340.977 242.043 341.165 241.126 341.165ZM241.143 339.068C241.64 339.068 242.024 338.845 242.297 338.398C242.57 337.951 242.706 337.367 242.706 336.648C242.706 335.924 242.57 335.339 242.297 334.892C242.024 334.441 241.64 334.216 241.143 334.216C240.628 334.216 240.232 334.441 239.956 334.892C239.683 335.339 239.547 335.924 239.547 336.648C239.547 337.367 239.683 337.951 239.956 338.398C240.232 338.845 240.628 339.068 241.143 339.068ZM255.143 332.273L252.149 341H248.967L245.979 332.273H248.905L250.513 338.284H250.604L252.217 332.273H255.143ZM260.007 341.165C258.636 341.165 257.556 340.765 256.768 339.966C255.984 339.167 255.592 338.068 255.592 336.67C255.592 335.769 255.77 334.981 256.126 334.307C256.482 333.629 256.984 333.102 257.632 332.727C258.28 332.348 259.043 332.159 259.922 332.159C260.748 332.159 261.479 332.331 262.115 332.676C262.751 333.017 263.25 333.519 263.609 334.182C263.969 334.845 264.149 335.655 264.149 336.614V337.307H258.331V337.381C258.331 337.915 258.484 338.345 258.791 338.67C259.102 338.996 259.524 339.159 260.058 339.159C260.422 339.159 260.738 339.083 261.007 338.932C261.276 338.777 261.464 338.555 261.57 338.267L264.121 338.341C263.962 339.197 263.522 339.883 262.803 340.398C262.083 340.909 261.151 341.165 260.007 341.165ZM258.331 335.693H261.564C261.56 335.246 261.409 334.881 261.109 334.597C260.814 334.309 260.437 334.165 259.979 334.165C259.517 334.165 259.13 334.311 258.82 334.602C258.513 334.894 258.35 335.258 258.331 335.693ZM265.568 341V332.273H268.267V333.864H268.358C268.517 333.288 268.777 332.86 269.136 332.58C269.496 332.295 269.915 332.153 270.392 332.153C270.623 332.153 270.843 332.182 271.051 332.239C271.259 332.295 271.447 332.373 271.614 332.472L270.795 334.756C270.674 334.699 270.544 334.65 270.403 334.608C270.267 334.562 270.116 334.54 269.949 334.54C269.513 334.54 269.138 334.697 268.824 335.011C268.509 335.326 268.35 335.742 268.347 336.261V341H265.568Z" fill="black"/>
<rect x="387.5" y="288.5" width="157" height="93" fill="white" stroke="black" stroke-width="3"/>
<path d="M403.398 341H400.375L404.301 329.364H408.045L411.972 341H408.949L408.182 338.557H404.165L403.398 341ZM404.835 336.42H407.511L406.216 332.295H406.125L404.835 336.42ZM413.224 344.273V332.273H415.974V333.767H416.06C416.226 333.366 416.507 332.998 416.901 332.665C417.298 332.328 417.842 332.159 418.531 332.159C419.141 332.159 419.709 332.32 420.236 332.642C420.762 332.96 421.188 333.451 421.514 334.114C421.84 334.773 422.003 335.616 422.003 336.642C422.003 337.634 421.846 338.462 421.531 339.125C421.221 339.788 420.8 340.288 420.27 340.625C419.743 340.958 419.158 341.125 418.514 341.125C417.855 341.125 417.325 340.97 416.923 340.659C416.526 340.345 416.238 339.987 416.06 339.585H416.003V344.273H413.224ZM415.946 336.636C415.946 337.345 416.086 337.909 416.366 338.33C416.651 338.75 417.046 338.96 417.554 338.96C418.069 338.96 418.463 338.75 418.736 338.33C419.012 337.905 419.151 337.341 419.151 336.636C419.151 335.936 419.012 335.377 418.736 334.96C418.463 334.54 418.069 334.33 417.554 334.33C417.046 334.33 416.651 334.536 416.366 334.949C416.086 335.362 415.946 335.924 415.946 336.636ZM423.459 344.273V332.273H426.209V333.767H426.294C426.461 333.366 426.741 332.998 427.135 332.665C427.533 332.328 428.076 332.159 428.766 332.159C429.375 332.159 429.944 332.32 430.47 332.642C430.997 332.96 431.423 333.451 431.749 334.114C432.074 334.773 432.237 335.616 432.237 336.642C432.237 337.634 432.08 338.462 431.766 339.125C431.455 339.788 431.035 340.288 430.504 340.625C429.978 340.958 429.393 341.125 428.749 341.125C428.089 341.125 427.559 340.97 427.158 340.659C426.76 340.345 426.472 339.987 426.294 339.585H426.237V344.273H423.459ZM426.18 336.636C426.18 337.345 426.321 337.909 426.601 338.33C426.885 338.75 427.281 338.96 427.788 338.96C428.304 338.96 428.697 338.75 428.97 338.33C429.247 337.905 429.385 337.341 429.385 336.636C429.385 335.936 429.247 335.377 428.97 334.96C428.697 334.54 428.304 334.33 427.788 334.33C427.281 334.33 426.885 334.536 426.601 334.949C426.321 335.362 426.18 335.924 426.18 336.636ZM437.773 341.165C436.402 341.165 435.322 340.765 434.534 339.966C433.75 339.167 433.358 338.068 433.358 336.67C433.358 335.769 433.536 334.981 433.892 334.307C434.248 333.629 434.75 333.102 435.398 332.727C436.045 332.348 436.809 332.159 437.688 332.159C438.513 332.159 439.244 332.331 439.881 332.676C440.517 333.017 441.015 333.519 441.375 334.182C441.735 334.845 441.915 335.655 441.915 336.614V337.307H436.097V337.381C436.097 337.915 436.25 338.345 436.557 338.67C436.867 338.996 437.29 339.159 437.824 339.159C438.188 339.159 438.504 339.083 438.773 338.932C439.042 338.777 439.229 338.555 439.335 338.267L441.886 338.341C441.727 339.197 441.288 339.883 440.568 340.398C439.848 340.909 438.917 341.165 437.773 341.165ZM436.097 335.693H439.33C439.326 335.246 439.174 334.881 438.875 334.597C438.58 334.309 438.203 334.165 437.744 334.165C437.282 334.165 436.896 334.311 436.585 334.602C436.278 334.894 436.116 335.258 436.097 335.693ZM446.112 336.023V341H443.334V332.273H445.976V333.875H446.072C446.266 333.345 446.595 332.926 447.061 332.619C447.527 332.312 448.082 332.159 448.726 332.159C449.339 332.159 449.872 332.295 450.322 332.568C450.777 332.841 451.129 333.223 451.379 333.716C451.633 334.208 451.758 334.782 451.754 335.438V341H448.976V335.983C448.98 335.498 448.857 335.119 448.607 334.847C448.36 334.574 448.018 334.438 447.578 334.438C447.139 334.438 446.785 334.578 446.516 334.858C446.25 335.138 446.116 335.527 446.112 336.023ZM456.662 341.125C456.022 341.125 455.437 340.958 454.906 340.625C454.38 340.288 453.959 339.788 453.645 339.125C453.33 338.462 453.173 337.634 453.173 336.642C453.173 335.616 453.336 334.773 453.662 334.114C453.988 333.451 454.416 332.96 454.946 332.642C455.476 332.32 456.045 332.159 456.651 332.159C457.34 332.159 457.882 332.328 458.276 332.665C458.673 332.998 458.954 333.366 459.116 333.767H459.173V329.364H461.952V341H459.202V339.585H459.116C458.942 339.987 458.654 340.345 458.253 340.659C457.851 340.97 457.321 341.125 456.662 341.125ZM457.628 338.96C458.135 338.96 458.529 338.75 458.81 338.33C459.094 337.909 459.236 337.345 459.236 336.636C459.236 335.924 459.094 335.362 458.81 334.949C458.529 334.536 458.135 334.33 457.628 334.33C457.113 334.33 456.717 334.54 456.44 334.96C456.164 335.377 456.026 335.936 456.026 336.636C456.026 337.341 456.164 337.905 456.44 338.33C456.717 338.75 457.113 338.96 457.628 338.96ZM463.709 341V332.273H466.487V341H463.709ZM465.101 331.256C464.711 331.256 464.375 331.127 464.095 330.869C463.815 330.608 463.675 330.294 463.675 329.926C463.675 329.559 463.815 329.246 464.095 328.989C464.375 328.731 464.711 328.602 465.101 328.602C465.495 328.602 465.83 328.731 466.107 328.989C466.387 329.246 466.527 329.559 466.527 329.926C466.527 330.294 466.387 330.608 466.107 330.869C465.83 331.127 465.495 331.256 465.101 331.256ZM470.619 332.273L472.057 335.148L473.545 332.273H476.347L473.909 336.636L476.438 341H473.659L472.057 338.102L470.494 341H467.676L470.21 336.636L467.801 332.273H470.619Z" fill="black"/>
<rect x="17.5" y="145.5" width="543" height="253" stroke="black" stroke-width="3"/>
<rect x="17.5" y="19.5" width="157" height="93" fill="white" stroke="black" stroke-width="3"/>
<path d="M30.5 62.6477V60.3636H40.3352V62.6477H36.8068V72H34.0341V62.6477H30.5ZM44.4872 67.0227V72H41.7088V60.3636H44.3963V64.875H44.4929C44.6899 64.3371 45.0118 63.9167 45.4588 63.6136C45.9096 63.3106 46.4607 63.1591 47.1122 63.1591C48.0289 63.1591 48.7637 63.4583 49.3168 64.0568C49.8736 64.6553 50.1501 65.4489 50.1463 66.4375V72H47.3679V66.983C47.3717 66.4981 47.2505 66.1193 47.0043 65.8466C46.758 65.5739 46.4115 65.4375 45.9645 65.4375C45.5251 65.4375 45.169 65.5777 44.8963 65.858C44.6274 66.1383 44.491 66.5265 44.4872 67.0227ZM55.9602 72.1648C54.589 72.1648 53.5095 71.7652 52.7216 70.9659C51.9375 70.1667 51.5455 69.0682 51.5455 67.6705C51.5455 66.7689 51.7235 65.9811 52.0795 65.3068C52.4356 64.6288 52.9375 64.1023 53.5852 63.7273C54.233 63.3485 54.9962 63.1591 55.875 63.1591C56.7008 63.1591 57.4318 63.3314 58.0682 63.6761C58.7045 64.017 59.2027 64.5189 59.5625 65.1818C59.9223 65.8447 60.1023 66.6553 60.1023 67.6136V68.3068H54.2841V68.3807C54.2841 68.9148 54.4375 69.3447 54.7443 69.6705C55.0549 69.9962 55.4773 70.1591 56.0114 70.1591C56.375 70.1591 56.6913 70.0833 56.9602 69.9318C57.2292 69.7765 57.4167 69.5549 57.5227 69.267L60.0739 69.3409C59.9148 70.197 59.4754 70.8826 58.7557 71.3977C58.036 71.9091 57.1042 72.1648 55.9602 72.1648ZM54.2841 66.6932H57.517C57.5133 66.2462 57.3617 65.8807 57.0625 65.5966C56.767 65.3087 56.3902 65.1648 55.9318 65.1648C55.4697 65.1648 55.0833 65.3106 54.7727 65.6023C54.4659 65.8939 54.303 66.2576 54.2841 66.6932ZM69.1406 65.9375L66.5895 66.0057C66.5516 65.7292 66.4134 65.5038 66.1747 65.3295C65.9361 65.1515 65.633 65.0625 65.2656 65.0625C64.9437 65.0625 64.669 65.1269 64.4418 65.2557C64.2183 65.3807 64.1084 65.5549 64.1122 65.7784C64.1084 65.9451 64.1766 66.0928 64.3168 66.2216C64.4607 66.3466 64.7164 66.447 65.0838 66.5227L66.7656 66.8409C68.4815 67.1705 69.3452 67.9583 69.3565 69.2045C69.3527 69.803 69.1747 70.3239 68.8224 70.767C68.474 71.2102 67.9967 71.5549 67.3906 71.8011C66.7846 72.0436 66.0914 72.1648 65.3111 72.1648C64.0649 72.1648 63.0819 71.9091 62.3622 71.3977C61.6425 70.8826 61.2334 70.1932 61.1349 69.3295L63.8793 69.2614C63.9399 69.5795 64.0971 69.822 64.3509 69.9886C64.6046 70.1553 64.9285 70.2386 65.3224 70.2386C65.6785 70.2386 65.9683 70.1723 66.1918 70.0398C66.4152 69.9072 66.5289 69.7311 66.5327 69.5114C66.5213 69.1439 66.1671 68.892 65.4702 68.7557L63.9474 68.4659C62.2088 68.1439 61.3452 67.3011 61.3565 65.9375C61.3527 65.0625 61.6993 64.3807 62.3963 63.892C63.0933 63.4034 64.0327 63.1591 65.2145 63.1591C66.3963 63.1591 67.3281 63.4072 68.0099 63.9034C68.6918 64.3958 69.0687 65.0739 69.1406 65.9375ZM70.7244 72V63.2727H73.5028V72H70.7244ZM72.1165 62.2557C71.7263 62.2557 71.3911 62.1269 71.1108 61.8693C70.8305 61.608 70.6903 61.2936 70.6903 60.9261C70.6903 60.5587 70.8305 60.2462 71.1108 59.9886C71.3911 59.7311 71.7263 59.6023 72.1165 59.6023C72.5104 59.6023 72.8456 59.7311 73.1222 59.9886C73.4025 60.2462 73.5426 60.5587 73.5426 60.9261C73.5426 61.2936 73.4025 61.608 73.1222 61.8693C72.8456 62.1269 72.5104 62.2557 72.1165 62.2557ZM82.8906 65.9375L80.3395 66.0057C80.3016 65.7292 80.1634 65.5038 79.9247 65.3295C79.6861 65.1515 79.383 65.0625 79.0156 65.0625C78.6937 65.0625 78.419 65.1269 78.1918 65.2557C77.9683 65.3807 77.8584 65.5549 77.8622 65.7784C77.8584 65.9451 77.9266 66.0928 78.0668 66.2216C78.2107 66.3466 78.4664 66.447 78.8338 66.5227L80.5156 66.8409C82.2315 67.1705 83.0952 67.9583 83.1065 69.2045C83.1027 69.803 82.9247 70.3239 82.5724 70.767C82.224 71.2102 81.7467 71.5549 81.1406 71.8011C80.5346 72.0436 79.8414 72.1648 79.0611 72.1648C77.8149 72.1648 76.8319 71.9091 76.1122 71.3977C75.3925 70.8826 74.9834 70.1932 74.8849 69.3295L77.6293 69.2614C77.6899 69.5795 77.8471 69.822 78.1009 69.9886C78.3546 70.1553 78.6785 70.2386 79.0724 70.2386C79.4285 70.2386 79.7183 70.1723 79.9418 70.0398C80.1652 69.9072 80.2789 69.7311 80.2827 69.5114C80.2713 69.1439 79.9171 68.892 79.2202 68.7557L77.6974 68.4659C75.9588 68.1439 75.0952 67.3011 75.1065 65.9375C75.1027 65.0625 75.4493 64.3807 76.1463 63.892C76.8433 63.4034 77.7827 63.1591 78.9645 63.1591C80.1463 63.1591 81.0781 63.4072 81.7599 63.9034C82.4418 64.3958 82.8187 65.0739 82.8906 65.9375ZM84.4744 72V60.3636H89.2812C90.1525 60.3636 90.9044 60.5341 91.5369 60.875C92.1733 61.2121 92.6638 61.6837 93.0085 62.2898C93.3532 62.892 93.5256 63.5928 93.5256 64.392C93.5256 65.1951 93.3494 65.8977 92.9972 66.5C92.6449 67.0985 92.1449 67.5625 91.4972 67.892C90.8532 68.2216 90.0862 68.3864 89.196 68.3864H87.2869V72H84.4744ZM87.2869 66.1705H88.6733C89.3059 66.1705 89.7869 66.0095 90.1165 65.6875C90.446 65.3617 90.6108 64.9299 90.6108 64.392C90.6108 63.8504 90.446 63.4223 90.1165 63.108C89.7869 62.7898 89.3059 62.6307 88.6733 62.6307H87.2869V66.1705ZM94.9119 72V63.2727H97.6108V64.8636H97.7017C97.8608 64.2879 98.1203 63.8598 98.4801 63.5795C98.84 63.2955 99.2585 63.1534 99.7358 63.1534C99.9669 63.1534 100.187 63.1818 100.395 63.2386C100.603 63.2955 100.791 63.3731 100.957 63.4716L100.139 65.7557C100.018 65.6989 99.8873 65.6496 99.7472 65.608C99.6108 65.5625 99.4593 65.5398 99.2926 65.5398C98.857 65.5398 98.482 65.697 98.1676 66.0114C97.8532 66.3258 97.6941 66.7424 97.6903 67.2614V72H94.9119ZM105.642 72.1648C104.729 72.1648 103.943 71.9773 103.284 71.6023C102.625 71.2235 102.117 70.697 101.761 70.0227C101.409 69.3447 101.233 68.5587 101.233 67.6648C101.233 66.767 101.409 65.9811 101.761 65.3068C102.117 64.6288 102.625 64.1023 103.284 63.7273C103.943 63.3485 104.729 63.1591 105.642 63.1591C106.559 63.1591 107.345 63.3485 108 63.7273C108.659 64.1023 109.165 64.6288 109.517 65.3068C109.873 65.9811 110.051 66.767 110.051 67.6648C110.051 68.5587 109.873 69.3447 109.517 70.0227C109.165 70.697 108.659 71.2235 108 71.6023C107.345 71.9773 106.559 72.1648 105.642 72.1648ZM105.659 70.0682C106.155 70.0682 106.54 69.8447 106.812 69.3977C107.085 68.9508 107.222 68.3674 107.222 67.6477C107.222 66.9242 107.085 66.339 106.812 65.892C106.54 65.4413 106.155 65.2159 105.659 65.2159C105.144 65.2159 104.748 65.4413 104.472 65.892C104.199 66.339 104.062 66.9242 104.062 67.6477C104.062 68.3674 104.199 68.9508 104.472 69.3977C104.748 69.8447 105.144 70.0682 105.659 70.0682ZM119.659 63.2727L116.665 72H113.483L110.494 63.2727H113.42L115.028 69.2841H115.119L116.733 63.2727H119.659ZM120.912 72V63.2727H123.69V72H120.912ZM122.304 62.2557C121.914 62.2557 121.579 62.1269 121.298 61.8693C121.018 61.608 120.878 61.2936 120.878 60.9261C120.878 60.5587 121.018 60.2462 121.298 59.9886C121.579 59.7311 121.914 59.6023 122.304 59.6023C122.698 59.6023 123.033 59.7311 123.31 59.9886C123.59 60.2462 123.73 60.5587 123.73 60.9261C123.73 61.2936 123.59 61.608 123.31 61.8693C123.033 62.1269 122.698 62.2557 122.304 62.2557ZM128.646 72.125C128.006 72.125 127.421 71.9583 126.891 71.625C126.364 71.2879 125.944 70.7879 125.629 70.125C125.315 69.4621 125.158 68.6345 125.158 67.642C125.158 66.6155 125.321 65.7727 125.646 65.1136C125.972 64.4508 126.4 63.9602 126.93 63.642C127.461 63.3201 128.029 63.1591 128.635 63.1591C129.324 63.1591 129.866 63.3277 130.26 63.6648C130.658 63.9981 130.938 64.3655 131.101 64.767H131.158V60.3636H133.936V72H131.186V70.5852H131.101C130.927 70.9867 130.639 71.3447 130.237 71.6591C129.836 71.9697 129.305 72.125 128.646 72.125ZM129.612 69.9602C130.12 69.9602 130.514 69.75 130.794 69.3295C131.078 68.9091 131.22 68.3447 131.22 67.6364C131.22 66.9242 131.078 66.3617 130.794 65.9489C130.514 65.536 130.12 65.3295 129.612 65.3295C129.097 65.3295 128.701 65.5398 128.425 65.9602C128.148 66.3769 128.01 66.9356 128.01 67.6364C128.01 68.3409 128.148 68.9053 128.425 69.3295C128.701 69.75 129.097 69.9602 129.612 69.9602ZM139.773 72.1648C138.402 72.1648 137.322 71.7652 136.534 70.9659C135.75 70.1667 135.358 69.0682 135.358 67.6705C135.358 66.7689 135.536 65.9811 135.892 65.3068C136.248 64.6288 136.75 64.1023 137.398 63.7273C138.045 63.3485 138.809 63.1591 139.688 63.1591C140.513 63.1591 141.244 63.3314 141.881 63.6761C142.517 64.017 143.015 64.5189 143.375 65.1818C143.735 65.8447 143.915 66.6553 143.915 67.6136V68.3068H138.097V68.3807C138.097 68.9148 138.25 69.3447 138.557 69.6705C138.867 69.9962 139.29 70.1591 139.824 70.1591C140.188 70.1591 140.504 70.0833 140.773 69.9318C141.042 69.7765 141.229 69.5549 141.335 69.267L143.886 69.3409C143.727 70.197 143.288 70.8826 142.568 71.3977C141.848 71.9091 140.917 72.1648 139.773 72.1648ZM138.097 66.6932H141.33C141.326 66.2462 141.174 65.8807 140.875 65.5966C140.58 65.3087 140.203 65.1648 139.744 65.1648C139.282 65.1648 138.896 65.3106 138.585 65.6023C138.278 65.8939 138.116 66.2576 138.097 66.6932ZM145.334 72V63.2727H148.033V64.8636H148.124C148.283 64.2879 148.542 63.8598 148.902 63.5795C149.262 63.2955 149.68 63.1534 150.158 63.1534C150.389 63.1534 150.608 63.1818 150.817 63.2386C151.025 63.2955 151.213 63.3731 151.379 63.4716L150.561 65.7557C150.44 65.6989 150.309 65.6496 150.169 65.608C150.033 65.5625 149.881 65.5398 149.714 65.5398C149.279 65.5398 148.904 65.697 148.589 66.0114C148.275 66.3258 148.116 66.7424 148.112 67.2614V72H145.334Z" fill="black"/>
<rect x="193.5" y="19.5" width="157" height="93" fill="white" stroke="black" stroke-width="3"/>
<path d="M206.881 72V60.3636H211.688C212.559 60.3636 213.311 60.5208 213.943 60.8352C214.58 61.1496 215.07 61.5966 215.415 62.1761C215.759 62.7519 215.932 63.4394 215.932 64.2386C215.932 65.0417 215.756 65.7254 215.403 66.2898C215.051 66.8542 214.555 67.2803 213.915 67.5682L216.33 72H213.261L211.136 68.017H209.693V72H206.881ZM209.693 65.8011H211.08C211.712 65.8011 212.193 65.6761 212.523 65.4261C212.852 65.1723 213.017 64.7765 213.017 64.2386C213.017 63.1667 212.371 62.6307 211.08 62.6307H209.693V65.8011ZM221.382 72.1648C220.011 72.1648 218.931 71.7652 218.143 70.9659C217.359 70.1667 216.967 69.0682 216.967 67.6705C216.967 66.7689 217.145 65.9811 217.501 65.3068C217.857 64.6288 218.359 64.1023 219.007 63.7273C219.655 63.3485 220.418 63.1591 221.297 63.1591C222.123 63.1591 222.854 63.3314 223.49 63.6761C224.126 64.017 224.625 64.5189 224.984 65.1818C225.344 65.8447 225.524 66.6553 225.524 67.6136V68.3068H219.706V68.3807C219.706 68.9148 219.859 69.3447 220.166 69.6705C220.477 69.9962 220.899 70.1591 221.433 70.1591C221.797 70.1591 222.113 70.0833 222.382 69.9318C222.651 69.7765 222.839 69.5549 222.945 69.267L225.496 69.3409C225.337 70.197 224.897 70.8826 224.178 71.3977C223.458 71.9091 222.526 72.1648 221.382 72.1648ZM219.706 66.6932H222.939C222.935 66.2462 222.784 65.8807 222.484 65.5966C222.189 65.3087 221.812 65.1648 221.354 65.1648C220.892 65.1648 220.505 65.3106 220.195 65.6023C219.888 65.8939 219.725 66.2576 219.706 66.6932ZM232.011 63.2727V65.3182H230.347V72H227.574V65.3182H226.398V63.2727H227.574V62.8295C227.574 61.8182 227.85 61.0644 228.403 60.5682C228.96 60.0682 229.684 59.8182 230.574 59.8182C230.956 59.8182 231.32 59.8485 231.665 59.9091C232.009 59.9659 232.263 60.017 232.426 60.0625L231.983 62.0966C231.881 62.0663 231.758 62.0398 231.614 62.017C231.47 61.9905 231.331 61.9773 231.199 61.9773C230.877 61.9773 230.653 62.0492 230.528 62.1932C230.407 62.3371 230.347 62.5341 230.347 62.7841V63.2727H232.011ZM233.349 72V60.3636H238.156C239.027 60.3636 239.779 60.5341 240.412 60.875C241.048 61.2121 241.539 61.6837 241.884 62.2898C242.228 62.892 242.401 63.5928 242.401 64.392C242.401 65.1951 242.224 65.8977 241.872 66.5C241.52 67.0985 241.02 67.5625 240.372 67.892C239.728 68.2216 238.961 68.3864 238.071 68.3864H236.162V72H233.349ZM236.162 66.1705H237.548C238.181 66.1705 238.662 66.0095 238.991 65.6875C239.321 65.3617 239.486 64.9299 239.486 64.392C239.486 63.8504 239.321 63.4223 238.991 63.108C238.662 62.7898 238.181 62.6307 237.548 62.6307H236.162V66.1705ZM243.787 72V63.2727H246.486V64.8636H246.577C246.736 64.2879 246.995 63.8598 247.355 63.5795C247.715 63.2955 248.134 63.1534 248.611 63.1534C248.842 63.1534 249.062 63.1818 249.27 63.2386C249.478 63.2955 249.666 63.3731 249.832 63.4716L249.014 65.7557C248.893 65.6989 248.762 65.6496 248.622 65.608C248.486 65.5625 248.334 65.5398 248.168 65.5398C247.732 65.5398 247.357 65.697 247.043 66.0114C246.728 66.3258 246.569 66.7424 246.565 67.2614V72H243.787ZM254.517 72.1648C253.604 72.1648 252.818 71.9773 252.159 71.6023C251.5 71.2235 250.992 70.697 250.636 70.0227C250.284 69.3447 250.108 68.5587 250.108 67.6648C250.108 66.767 250.284 65.9811 250.636 65.3068C250.992 64.6288 251.5 64.1023 252.159 63.7273C252.818 63.3485 253.604 63.1591 254.517 63.1591C255.434 63.1591 256.22 63.3485 256.875 63.7273C257.534 64.1023 258.04 64.6288 258.392 65.3068C258.748 65.9811 258.926 66.767 258.926 67.6648C258.926 68.5587 258.748 69.3447 258.392 70.0227C258.04 70.697 257.534 71.2235 256.875 71.6023C256.22 71.9773 255.434 72.1648 254.517 72.1648ZM254.534 70.0682C255.03 70.0682 255.415 69.8447 255.688 69.3977C255.96 68.9508 256.097 68.3674 256.097 67.6477C256.097 66.9242 255.96 66.339 255.688 65.892C255.415 65.4413 255.03 65.2159 254.534 65.2159C254.019 65.2159 253.623 65.4413 253.347 65.892C253.074 66.339 252.938 66.9242 252.938 67.6477C252.938 68.3674 253.074 68.9508 253.347 69.3977C253.623 69.8447 254.019 70.0682 254.534 70.0682ZM268.534 63.2727L265.54 72H262.358L259.369 63.2727H262.295L263.903 69.2841H263.994L265.608 63.2727H268.534ZM269.787 72V63.2727H272.565V72H269.787ZM271.179 62.2557C270.789 62.2557 270.454 62.1269 270.173 61.8693C269.893 61.608 269.753 61.2936 269.753 60.9261C269.753 60.5587 269.893 60.2462 270.173 59.9886C270.454 59.7311 270.789 59.6023 271.179 59.6023C271.573 59.6023 271.908 59.7311 272.185 59.9886C272.465 60.2462 272.605 60.5587 272.605 60.9261C272.605 61.2936 272.465 61.608 272.185 61.8693C271.908 62.1269 271.573 62.2557 271.179 62.2557ZM277.521 72.125C276.881 72.125 276.296 71.9583 275.766 71.625C275.239 71.2879 274.819 70.7879 274.504 70.125C274.19 69.4621 274.033 68.6345 274.033 67.642C274.033 66.6155 274.196 65.7727 274.521 65.1136C274.847 64.4508 275.275 63.9602 275.805 63.642C276.336 63.3201 276.904 63.1591 277.51 63.1591C278.199 63.1591 278.741 63.3277 279.135 63.6648C279.533 63.9981 279.813 64.3655 279.976 64.767H280.033V60.3636H282.811V72H280.061V70.5852H279.976C279.802 70.9867 279.514 71.3447 279.112 71.6591C278.711 71.9697 278.18 72.125 277.521 72.125ZM278.487 69.9602C278.995 69.9602 279.389 69.75 279.669 69.3295C279.953 68.9091 280.095 68.3447 280.095 67.6364C280.095 66.9242 279.953 66.3617 279.669 65.9489C279.389 65.536 278.995 65.3295 278.487 65.3295C277.972 65.3295 277.576 65.5398 277.3 65.9602C277.023 66.3769 276.885 66.9356 276.885 67.6364C276.885 68.3409 277.023 68.9053 277.3 69.3295C277.576 69.75 277.972 69.9602 278.487 69.9602ZM288.648 72.1648C287.277 72.1648 286.197 71.7652 285.409 70.9659C284.625 70.1667 284.233 69.0682 284.233 67.6705C284.233 66.7689 284.411 65.9811 284.767 65.3068C285.123 64.6288 285.625 64.1023 286.273 63.7273C286.92 63.3485 287.684 63.1591 288.562 63.1591C289.388 63.1591 290.119 63.3314 290.756 63.6761C291.392 64.017 291.89 64.5189 292.25 65.1818C292.61 65.8447 292.79 66.6553 292.79 67.6136V68.3068H286.972V68.3807C286.972 68.9148 287.125 69.3447 287.432 69.6705C287.742 69.9962 288.165 70.1591 288.699 70.1591C289.063 70.1591 289.379 70.0833 289.648 69.9318C289.917 69.7765 290.104 69.5549 290.21 69.267L292.761 69.3409C292.602 70.197 292.163 70.8826 291.443 71.3977C290.723 71.9091 289.792 72.1648 288.648 72.1648ZM286.972 66.6932H290.205C290.201 66.2462 290.049 65.8807 289.75 65.5966C289.455 65.3087 289.078 65.1648 288.619 65.1648C288.157 65.1648 287.771 65.3106 287.46 65.6023C287.153 65.8939 286.991 66.2576 286.972 66.6932ZM294.209 72V63.2727H296.908V64.8636H296.999C297.158 64.2879 297.417 63.8598 297.777 63.5795C298.137 63.2955 298.555 63.1534 299.033 63.1534C299.264 63.1534 299.483 63.1818 299.692 63.2386C299.9 63.2955 300.088 63.3731 300.254 63.4716L299.436 65.7557C299.315 65.6989 299.184 65.6496 299.044 65.608C298.908 65.5625 298.756 65.5398 298.589 65.5398C298.154 65.5398 297.779 65.697 297.464 66.0114C297.15 66.3258 296.991 66.7424 296.987 67.2614V72H294.209Z" fill="black"/>
<rect x="17.5" y="417.5" width="157" height="93" stroke="black" stroke-width="3"/>
<path d="M40.7841 458.364V470H38.3977L33.767 463.284H33.6932V470H30.8807V458.364H33.3011L37.8807 465.068H37.9773V458.364H40.7841ZM45.0128 470.148C44.1795 470.148 43.492 469.936 42.9503 469.511C42.4124 469.087 42.1435 468.443 42.1435 467.58C42.1435 466.936 42.2912 466.424 42.5866 466.045C42.8821 465.663 43.276 465.381 43.7685 465.199C44.2609 465.013 44.8007 464.896 45.3878 464.847C46.134 464.782 46.6643 464.703 46.9787 464.608C47.2969 464.513 47.456 464.333 47.456 464.068V464.04C47.456 463.748 47.3556 463.523 47.1548 463.364C46.9541 463.205 46.6832 463.125 46.3423 463.125C45.9749 463.125 45.6795 463.205 45.456 463.364C45.2325 463.523 45.0904 463.742 45.0298 464.023L42.4673 463.932C42.5772 463.136 42.9598 462.475 43.6151 461.949C44.2741 461.422 45.1908 461.159 46.3651 461.159C47.1075 461.159 47.7685 461.275 48.348 461.506C48.9313 461.733 49.3897 462.062 49.723 462.494C50.0601 462.926 50.2287 463.451 50.2287 464.068V470H47.6151V468.784H47.5469C47.062 469.693 46.2173 470.148 45.0128 470.148ZM45.8707 468.33C46.3139 468.33 46.6908 468.197 47.0014 467.932C47.3158 467.667 47.473 467.322 47.473 466.898V466.068C47.3177 466.152 47.098 466.222 46.8139 466.278C46.5336 466.335 46.2647 466.383 46.0071 466.42C45.1851 466.545 44.7741 466.886 44.7741 467.443C44.7741 467.731 44.8764 467.951 45.081 468.102C45.2855 468.254 45.5488 468.33 45.8707 468.33ZM60.081 461.273L57.0866 470H53.9048L50.9162 461.273H53.8423L55.4503 467.284H55.5412L57.1548 461.273H60.081Z" fill="black"/>
<rect x="193.5" y="417.5" width="157" height="93" stroke="black" stroke-width="3"/>
<path d="M213.17 461.852C213.133 461.436 212.964 461.112 212.665 460.881C212.369 460.646 211.947 460.528 211.398 460.528C210.852 460.528 210.443 460.633 210.17 460.841C209.898 461.045 209.759 461.307 209.756 461.625C209.744 461.97 209.894 462.241 210.205 462.438C210.515 462.631 210.934 462.784 211.46 462.898L212.46 463.125C213.608 463.379 214.487 463.794 215.097 464.369C215.71 464.945 216.019 465.697 216.023 466.625C216.019 467.731 215.61 468.595 214.795 469.216C213.981 469.837 212.848 470.148 211.398 470.148C209.936 470.148 208.765 469.818 207.886 469.159C207.011 468.496 206.564 467.485 206.545 466.125H209.239C209.269 466.686 209.475 467.11 209.858 467.398C210.241 467.682 210.742 467.824 211.364 467.824C211.928 467.824 212.369 467.712 212.688 467.489C213.006 467.265 213.167 466.975 213.17 466.619C213.167 466.294 213.015 466.034 212.716 465.841C212.417 465.644 211.947 465.472 211.307 465.324L210.091 465.04C209.087 464.809 208.294 464.436 207.71 463.92C207.131 463.402 206.843 462.701 206.847 461.818C206.843 461.095 207.036 460.462 207.426 459.92C207.816 459.379 208.354 458.958 209.04 458.659C209.729 458.356 210.517 458.205 211.403 458.205C212.305 458.205 213.087 458.358 213.75 458.665C214.417 458.968 214.934 459.394 215.301 459.943C215.669 460.489 215.856 461.125 215.864 461.852H213.17ZM221.517 470.165C220.604 470.165 219.818 469.977 219.159 469.602C218.5 469.223 217.992 468.697 217.636 468.023C217.284 467.345 217.108 466.559 217.108 465.665C217.108 464.767 217.284 463.981 217.636 463.307C217.992 462.629 218.5 462.102 219.159 461.727C219.818 461.348 220.604 461.159 221.517 461.159C222.434 461.159 223.22 461.348 223.875 461.727C224.534 462.102 225.04 462.629 225.392 463.307C225.748 463.981 225.926 464.767 225.926 465.665C225.926 466.559 225.748 467.345 225.392 468.023C225.04 468.697 224.534 469.223 223.875 469.602C223.22 469.977 222.434 470.165 221.517 470.165ZM221.534 468.068C222.03 468.068 222.415 467.845 222.688 467.398C222.96 466.951 223.097 466.367 223.097 465.648C223.097 464.924 222.96 464.339 222.688 463.892C222.415 463.441 222.03 463.216 221.534 463.216C221.019 463.216 220.623 463.441 220.347 463.892C220.074 464.339 219.938 464.924 219.938 465.648C219.938 466.367 220.074 466.951 220.347 467.398C220.623 467.845 221.019 468.068 221.534 468.068ZM232.98 466.233V461.273H235.753V470H233.105V468.375H233.014C232.821 468.909 232.491 469.333 232.026 469.648C231.563 469.958 231.005 470.114 230.349 470.114C229.751 470.114 229.226 469.977 228.776 469.705C228.329 469.432 227.98 469.049 227.73 468.557C227.48 468.064 227.353 467.491 227.349 466.835V461.273H230.128V466.29C230.132 466.763 230.257 467.136 230.503 467.409C230.749 467.682 231.084 467.818 231.509 467.818C231.921 467.818 232.27 467.682 232.554 467.409C232.838 467.133 232.98 466.741 232.98 466.233ZM237.521 470V461.273H240.22V462.864H240.311C240.47 462.288 240.73 461.86 241.089 461.58C241.449 461.295 241.868 461.153 242.345 461.153C242.576 461.153 242.796 461.182 243.004 461.239C243.213 461.295 243.4 461.373 243.567 461.472L242.749 463.756C242.627 463.699 242.497 463.65 242.357 463.608C242.22 463.562 242.069 463.54 241.902 463.54C241.466 463.54 241.091 463.697 240.777 464.011C240.463 464.326 240.304 464.742 240.3 465.261V470H237.521ZM248.251 470.165C247.331 470.165 246.541 469.975 245.882 469.597C245.227 469.214 244.723 468.686 244.371 468.011C244.018 467.333 243.842 466.551 243.842 465.665C243.842 464.771 244.018 463.987 244.371 463.312C244.723 462.634 245.229 462.106 245.888 461.727C246.547 461.348 247.333 461.159 248.246 461.159C249.056 461.159 249.761 461.305 250.359 461.597C250.958 461.888 251.426 462.301 251.763 462.835C252.104 463.366 252.284 463.989 252.303 464.705H249.706C249.653 464.258 249.501 463.907 249.251 463.653C249.005 463.4 248.683 463.273 248.286 463.273C247.801 463.273 247.411 463.475 247.115 463.881C246.82 464.282 246.672 464.867 246.672 465.636C246.672 466.413 246.818 467.004 247.109 467.409C247.405 467.811 247.797 468.011 248.286 468.011C248.668 468.011 248.988 467.888 249.246 467.642C249.503 467.396 249.657 467.042 249.706 466.58H252.303C252.28 467.299 252.102 467.928 251.768 468.466C251.435 469.004 250.969 469.422 250.371 469.722C249.776 470.017 249.07 470.165 248.251 470.165ZM257.804 470.165C256.433 470.165 255.353 469.765 254.565 468.966C253.781 468.167 253.389 467.068 253.389 465.67C253.389 464.769 253.567 463.981 253.923 463.307C254.279 462.629 254.781 462.102 255.429 461.727C256.077 461.348 256.84 461.159 257.719 461.159C258.545 461.159 259.276 461.331 259.912 461.676C260.548 462.017 261.046 462.519 261.406 463.182C261.766 463.845 261.946 464.655 261.946 465.614V466.307H256.128V466.381C256.128 466.915 256.281 467.345 256.588 467.67C256.899 467.996 257.321 468.159 257.855 468.159C258.219 468.159 258.535 468.083 258.804 467.932C259.073 467.777 259.26 467.555 259.366 467.267L261.918 467.341C261.759 468.197 261.319 468.883 260.599 469.398C259.88 469.909 258.948 470.165 257.804 470.165ZM256.128 464.693H259.361C259.357 464.246 259.205 463.881 258.906 463.597C258.611 463.309 258.234 463.165 257.776 463.165C257.313 463.165 256.927 463.311 256.616 463.602C256.31 463.894 256.147 464.258 256.128 464.693ZM270.984 463.938L268.433 464.006C268.395 463.729 268.257 463.504 268.018 463.33C267.78 463.152 267.477 463.062 267.109 463.062C266.787 463.062 266.513 463.127 266.286 463.256C266.062 463.381 265.952 463.555 265.956 463.778C265.952 463.945 266.02 464.093 266.161 464.222C266.304 464.347 266.56 464.447 266.928 464.523L268.609 464.841C270.325 465.17 271.189 465.958 271.2 467.205C271.196 467.803 271.018 468.324 270.666 468.767C270.318 469.21 269.84 469.555 269.234 469.801C268.628 470.044 267.935 470.165 267.155 470.165C265.909 470.165 264.926 469.909 264.206 469.398C263.486 468.883 263.077 468.193 262.979 467.33L265.723 467.261C265.784 467.58 265.941 467.822 266.195 467.989C266.448 468.155 266.772 468.239 267.166 468.239C267.522 468.239 267.812 468.172 268.036 468.04C268.259 467.907 268.373 467.731 268.376 467.511C268.365 467.144 268.011 466.892 267.314 466.756L265.791 466.466C264.053 466.144 263.189 465.301 263.2 463.938C263.196 463.062 263.543 462.381 264.24 461.892C264.937 461.403 265.876 461.159 267.058 461.159C268.24 461.159 269.172 461.407 269.854 461.903C270.536 462.396 270.912 463.074 270.984 463.938Z" fill="black"/>
</svg>
