<svg width="352" height="352" viewBox="0 0 352 352" fill="none" xmlns="http://www.w3.org/2000/svg">
<rect x="193.5" y="129.5" width="157" height="93" stroke="black" stroke-width="3"/>
<path d="M213.17 162.852C213.133 162.436 212.964 162.112 212.665 161.881C212.369 161.646 211.947 161.528 211.398 161.528C210.852 161.528 210.443 161.633 210.17 161.841C209.898 162.045 209.759 162.307 209.756 162.625C209.744 162.97 209.894 163.241 210.205 163.438C210.515 163.631 210.934 163.784 211.46 163.898L212.46 164.125C213.608 164.379 214.487 164.794 215.097 165.369C215.71 165.945 216.019 166.697 216.023 167.625C216.019 168.731 215.61 169.595 214.795 170.216C213.981 170.837 212.848 171.148 211.398 171.148C209.936 171.148 208.765 170.818 207.886 170.159C207.011 169.496 206.564 168.485 206.545 167.125H209.239C209.269 167.686 209.475 168.11 209.858 168.398C210.241 168.682 210.742 168.824 211.364 168.824C211.928 168.824 212.369 168.712 212.688 168.489C213.006 168.265 213.167 167.975 213.17 167.619C213.167 167.294 213.015 167.034 212.716 166.841C212.417 166.644 211.947 166.472 211.307 166.324L210.091 166.04C209.087 165.809 208.294 165.436 207.71 164.92C207.131 164.402 206.843 163.701 206.847 162.818C206.843 162.095 207.036 161.462 207.426 160.92C207.816 160.379 208.354 159.958 209.04 159.659C209.729 159.356 210.517 159.205 211.403 159.205C212.305 159.205 213.087 159.358 213.75 159.665C214.417 159.968 214.934 160.394 215.301 160.943C215.669 161.489 215.856 162.125 215.864 162.852H213.17ZM221.523 171.165C220.152 171.165 219.072 170.765 218.284 169.966C217.5 169.167 217.108 168.068 217.108 166.67C217.108 165.769 217.286 164.981 217.642 164.307C217.998 163.629 218.5 163.102 219.148 162.727C219.795 162.348 220.559 162.159 221.438 162.159C222.263 162.159 222.994 162.331 223.631 162.676C224.267 163.017 224.765 163.519 225.125 164.182C225.485 164.845 225.665 165.655 225.665 166.614V167.307H219.847V167.381C219.847 167.915 220 168.345 220.307 168.67C220.617 168.996 221.04 169.159 221.574 169.159C221.938 169.159 222.254 169.083 222.523 168.932C222.792 168.777 222.979 168.555 223.085 168.267L225.636 168.341C225.477 169.197 225.038 169.883 224.318 170.398C223.598 170.909 222.667 171.165 221.523 171.165ZM219.847 165.693H223.08C223.076 165.246 222.924 164.881 222.625 164.597C222.33 164.309 221.953 164.165 221.494 164.165C221.032 164.165 220.646 164.311 220.335 164.602C220.028 164.894 219.866 165.258 219.847 165.693ZM227.084 171V162.273H229.783V163.864H229.874C230.033 163.288 230.292 162.86 230.652 162.58C231.012 162.295 231.43 162.153 231.908 162.153C232.173 162.153 232.432 162.188 232.686 162.256V164.67C232.554 164.625 232.379 164.589 232.163 164.562C231.951 164.536 231.762 164.523 231.595 164.523C231.099 164.523 230.686 164.684 230.357 165.006C230.027 165.324 229.862 165.742 229.862 166.261V171H227.084ZM242.55 162.273L239.555 171H236.374L233.385 162.273H236.311L237.919 168.284H238.01L239.624 162.273H242.55ZM243.803 171V162.273H246.581V171H243.803ZM245.195 161.256C244.804 161.256 244.469 161.127 244.189 160.869C243.909 160.608 243.768 160.294 243.768 159.926C243.768 159.559 243.909 159.246 244.189 158.989C244.469 158.731 244.804 158.602 245.195 158.602C245.589 158.602 245.924 158.731 246.2 158.989C246.481 159.246 246.621 159.559 246.621 159.926C246.621 160.294 246.481 160.608 246.2 160.869C245.924 161.127 245.589 161.256 245.195 161.256ZM252.423 171.165C251.503 171.165 250.713 170.975 250.054 170.597C249.399 170.214 248.895 169.686 248.543 169.011C248.19 168.333 248.014 167.551 248.014 166.665C248.014 165.771 248.19 164.987 248.543 164.312C248.895 163.634 249.401 163.106 250.06 162.727C250.719 162.348 251.505 162.159 252.418 162.159C253.228 162.159 253.933 162.305 254.531 162.597C255.13 162.888 255.598 163.301 255.935 163.835C256.276 164.366 256.455 164.989 256.474 165.705H253.878C253.825 165.258 253.673 164.907 253.423 164.653C253.177 164.4 252.855 164.273 252.457 164.273C251.973 164.273 251.582 164.475 251.287 164.881C250.991 165.282 250.844 165.867 250.844 166.636C250.844 167.413 250.99 168.004 251.281 168.409C251.577 168.811 251.969 169.011 252.457 169.011C252.84 169.011 253.16 168.888 253.418 168.642C253.675 168.396 253.829 168.042 253.878 167.58H256.474C256.452 168.299 256.274 168.928 255.94 169.466C255.607 170.004 255.141 170.422 254.543 170.722C253.948 171.017 253.241 171.165 252.423 171.165ZM261.976 171.165C260.605 171.165 259.525 170.765 258.737 169.966C257.953 169.167 257.561 168.068 257.561 166.67C257.561 165.769 257.739 164.981 258.095 164.307C258.451 163.629 258.953 163.102 259.601 162.727C260.249 162.348 261.012 162.159 261.891 162.159C262.716 162.159 263.447 162.331 264.084 162.676C264.72 163.017 265.218 163.519 265.578 164.182C265.938 164.845 266.118 165.655 266.118 166.614V167.307H260.3V167.381C260.3 167.915 260.453 168.345 260.76 168.67C261.071 168.996 261.493 169.159 262.027 169.159C262.391 169.159 262.707 169.083 262.976 168.932C263.245 168.777 263.432 168.555 263.538 168.267L266.089 168.341C265.93 169.197 265.491 169.883 264.771 170.398C264.052 170.909 263.12 171.165 261.976 171.165ZM260.3 165.693H263.533C263.529 165.246 263.377 164.881 263.078 164.597C262.783 164.309 262.406 164.165 261.947 164.165C261.485 164.165 261.099 164.311 260.788 164.602C260.482 164.894 260.319 165.258 260.3 165.693Z" fill="#BDBDBD"/>
<path d="M206.881 193V184.273H209.523V185.875H209.619C209.801 185.345 210.108 184.926 210.54 184.619C210.975 184.312 211.491 184.159 212.085 184.159C212.691 184.159 213.21 184.314 213.642 184.625C214.074 184.936 214.348 185.352 214.466 185.875H214.557C214.72 185.356 215.038 184.941 215.511 184.631C215.985 184.316 216.544 184.159 217.188 184.159C218.013 184.159 218.684 184.422 219.199 184.949C219.714 185.475 219.972 186.201 219.972 187.125V193H217.193V187.761C217.193 187.326 217.08 186.994 216.852 186.767C216.629 186.536 216.341 186.42 215.989 186.42C215.606 186.42 215.305 186.545 215.085 186.795C214.869 187.042 214.761 187.373 214.761 187.79V193H212.091V187.733C212.091 187.328 211.981 187.008 211.761 186.773C211.542 186.538 211.252 186.42 210.892 186.42C210.528 186.42 210.231 186.549 210 186.807C209.773 187.061 209.659 187.403 209.659 187.835V193H206.881ZM224.881 193.125C224.241 193.125 223.655 192.958 223.125 192.625C222.598 192.288 222.178 191.788 221.864 191.125C221.549 190.462 221.392 189.634 221.392 188.642C221.392 187.616 221.555 186.773 221.881 186.114C222.206 185.451 222.634 184.96 223.165 184.642C223.695 184.32 224.263 184.159 224.869 184.159C225.559 184.159 226.1 184.328 226.494 184.665C226.892 184.998 227.172 185.366 227.335 185.767H227.392V181.364H230.17V193H227.42V191.585H227.335C227.161 191.987 226.873 192.345 226.472 192.659C226.07 192.97 225.54 193.125 224.881 193.125ZM225.847 190.96C226.354 190.96 226.748 190.75 227.028 190.33C227.313 189.909 227.455 189.345 227.455 188.636C227.455 187.924 227.313 187.362 227.028 186.949C226.748 186.536 226.354 186.33 225.847 186.33C225.331 186.33 224.936 186.54 224.659 186.96C224.383 187.377 224.244 187.936 224.244 188.636C224.244 189.341 224.383 189.905 224.659 190.33C224.936 190.75 225.331 190.96 225.847 190.96ZM239.355 193V195.034H231.588V193H239.355ZM245.151 184.273V186.318H243.577V190.256C243.577 190.513 243.637 190.695 243.759 190.801C243.884 190.903 244.058 190.955 244.281 190.955C244.387 190.955 244.499 190.945 244.616 190.926C244.738 190.903 244.829 190.884 244.889 190.869L245.31 192.875C245.177 192.913 244.991 192.958 244.753 193.011C244.514 193.068 244.226 193.106 243.889 193.125C242.908 193.17 242.145 192.975 241.599 192.54C241.058 192.104 240.791 191.445 240.798 190.562V186.318H239.645V184.273H240.798V182.182H243.577V184.273H245.151ZM249.534 188.023V193H246.756V181.364H249.443V185.875H249.54C249.737 185.337 250.059 184.917 250.506 184.614C250.956 184.311 251.508 184.159 252.159 184.159C253.076 184.159 253.811 184.458 254.364 185.057C254.92 185.655 255.197 186.449 255.193 187.438V193H252.415V187.983C252.419 187.498 252.297 187.119 252.051 186.847C251.805 186.574 251.458 186.438 251.011 186.438C250.572 186.438 250.216 186.578 249.943 186.858C249.674 187.138 249.538 187.527 249.534 188.023ZM261.007 193.165C259.636 193.165 258.556 192.765 257.768 191.966C256.984 191.167 256.592 190.068 256.592 188.67C256.592 187.769 256.77 186.981 257.126 186.307C257.482 185.629 257.984 185.102 258.632 184.727C259.28 184.348 260.043 184.159 260.922 184.159C261.748 184.159 262.479 184.331 263.115 184.676C263.751 185.017 264.25 185.519 264.609 186.182C264.969 186.845 265.149 187.655 265.149 188.614V189.307H259.331V189.381C259.331 189.915 259.484 190.345 259.791 190.67C260.102 190.996 260.524 191.159 261.058 191.159C261.422 191.159 261.738 191.083 262.007 190.932C262.276 190.777 262.464 190.555 262.57 190.267L265.121 190.341C264.962 191.197 264.522 191.883 263.803 192.398C263.083 192.909 262.151 193.165 261.007 193.165ZM259.331 187.693H262.564C262.56 187.246 262.409 186.881 262.109 186.597C261.814 186.309 261.437 186.165 260.979 186.165C260.517 186.165 260.13 186.311 259.82 186.602C259.513 186.894 259.35 187.258 259.331 187.693ZM274.188 186.938L271.636 187.006C271.598 186.729 271.46 186.504 271.222 186.33C270.983 186.152 270.68 186.062 270.312 186.062C269.991 186.062 269.716 186.127 269.489 186.256C269.265 186.381 269.155 186.555 269.159 186.778C269.155 186.945 269.223 187.093 269.364 187.222C269.508 187.347 269.763 187.447 270.131 187.523L271.812 187.841C273.528 188.17 274.392 188.958 274.403 190.205C274.4 190.803 274.222 191.324 273.869 191.767C273.521 192.21 273.044 192.555 272.438 192.801C271.831 193.044 271.138 193.165 270.358 193.165C269.112 193.165 268.129 192.909 267.409 192.398C266.689 191.883 266.28 191.193 266.182 190.33L268.926 190.261C268.987 190.58 269.144 190.822 269.398 190.989C269.652 191.155 269.975 191.239 270.369 191.239C270.725 191.239 271.015 191.172 271.239 191.04C271.462 190.907 271.576 190.731 271.58 190.511C271.568 190.144 271.214 189.892 270.517 189.756L268.994 189.466C267.256 189.144 266.392 188.301 266.403 186.938C266.4 186.062 266.746 185.381 267.443 184.892C268.14 184.403 269.08 184.159 270.261 184.159C271.443 184.159 272.375 184.407 273.057 184.903C273.739 185.396 274.116 186.074 274.188 186.938ZM275.771 193V184.273H278.55V193H275.771ZM277.163 183.256C276.773 183.256 276.438 183.127 276.158 182.869C275.877 182.608 275.737 182.294 275.737 181.926C275.737 181.559 275.877 181.246 276.158 180.989C276.438 180.731 276.773 180.602 277.163 180.602C277.557 180.602 277.893 180.731 278.169 180.989C278.449 181.246 278.589 181.559 278.589 181.926C278.589 182.294 278.449 182.608 278.169 182.869C277.893 183.127 277.557 183.256 277.163 183.256ZM287.938 186.938L285.386 187.006C285.348 186.729 285.21 186.504 284.972 186.33C284.733 186.152 284.43 186.062 284.062 186.062C283.741 186.062 283.466 186.127 283.239 186.256C283.015 186.381 282.905 186.555 282.909 186.778C282.905 186.945 282.973 187.093 283.114 187.222C283.258 187.347 283.513 187.447 283.881 187.523L285.562 187.841C287.278 188.17 288.142 188.958 288.153 190.205C288.15 190.803 287.972 191.324 287.619 191.767C287.271 192.21 286.794 192.555 286.188 192.801C285.581 193.044 284.888 193.165 284.108 193.165C282.862 193.165 281.879 192.909 281.159 192.398C280.439 191.883 280.03 191.193 279.932 190.33L282.676 190.261C282.737 190.58 282.894 190.822 283.148 190.989C283.402 191.155 283.725 191.239 284.119 191.239C284.475 191.239 284.765 191.172 284.989 191.04C285.212 190.907 285.326 190.731 285.33 190.511C285.318 190.144 284.964 189.892 284.267 189.756L282.744 189.466C281.006 189.144 280.142 188.301 280.153 186.938C280.15 186.062 280.496 185.381 281.193 184.892C281.89 184.403 282.83 184.159 284.011 184.159C285.193 184.159 286.125 184.407 286.807 184.903C287.489 185.396 287.866 186.074 287.938 186.938ZM296.402 193V195.034H288.635V193H296.402ZM300.05 188.023V193H297.271V181.364H299.959V185.875H300.055C300.252 185.337 300.574 184.917 301.021 184.614C301.472 184.311 302.023 184.159 302.675 184.159C303.591 184.159 304.326 184.458 304.879 185.057C305.436 185.655 305.713 186.449 305.709 187.438V193H302.93V187.983C302.934 187.498 302.813 187.119 302.567 186.847C302.321 186.574 301.974 186.438 301.527 186.438C301.088 186.438 300.732 186.578 300.459 186.858C300.19 187.138 300.054 187.527 300.05 188.023ZM311.523 193.165C310.152 193.165 309.072 192.765 308.284 191.966C307.5 191.167 307.108 190.068 307.108 188.67C307.108 187.769 307.286 186.981 307.642 186.307C307.998 185.629 308.5 185.102 309.148 184.727C309.795 184.348 310.559 184.159 311.438 184.159C312.263 184.159 312.994 184.331 313.631 184.676C314.267 185.017 314.765 185.519 315.125 186.182C315.485 186.845 315.665 187.655 315.665 188.614V189.307H309.847V189.381C309.847 189.915 310 190.345 310.307 190.67C310.617 190.996 311.04 191.159 311.574 191.159C311.938 191.159 312.254 191.083 312.523 190.932C312.792 190.777 312.979 190.555 313.085 190.267L315.636 190.341C315.477 191.197 315.038 191.883 314.318 192.398C313.598 192.909 312.667 193.165 311.523 193.165ZM309.847 187.693H313.08C313.076 187.246 312.924 186.881 312.625 186.597C312.33 186.309 311.953 186.165 311.494 186.165C311.032 186.165 310.646 186.311 310.335 186.602C310.028 186.894 309.866 187.258 309.847 187.693ZM319.544 193.148C318.711 193.148 318.023 192.936 317.482 192.511C316.944 192.087 316.675 191.443 316.675 190.58C316.675 189.936 316.822 189.424 317.118 189.045C317.413 188.663 317.807 188.381 318.3 188.199C318.792 188.013 319.332 187.896 319.919 187.847C320.665 187.782 321.196 187.703 321.51 187.608C321.828 187.513 321.987 187.333 321.987 187.068V187.04C321.987 186.748 321.887 186.523 321.686 186.364C321.485 186.205 321.214 186.125 320.874 186.125C320.506 186.125 320.211 186.205 319.987 186.364C319.764 186.523 319.622 186.742 319.561 187.023L316.999 186.932C317.108 186.136 317.491 185.475 318.146 184.949C318.805 184.422 319.722 184.159 320.896 184.159C321.639 184.159 322.3 184.275 322.879 184.506C323.463 184.733 323.921 185.062 324.254 185.494C324.591 185.926 324.76 186.451 324.76 187.068V193H322.146V191.784H322.078C321.593 192.693 320.749 193.148 319.544 193.148ZM320.402 191.33C320.845 191.33 321.222 191.197 321.533 190.932C321.847 190.667 322.004 190.322 322.004 189.898V189.068C321.849 189.152 321.629 189.222 321.345 189.278C321.065 189.335 320.796 189.383 320.538 189.42C319.716 189.545 319.305 189.886 319.305 190.443C319.305 190.731 319.408 190.951 319.612 191.102C319.817 191.254 320.08 191.33 320.402 191.33ZM329.646 193.125C329.006 193.125 328.421 192.958 327.891 192.625C327.364 192.288 326.944 191.788 326.629 191.125C326.315 190.462 326.158 189.634 326.158 188.642C326.158 187.616 326.321 186.773 326.646 186.114C326.972 185.451 327.4 184.96 327.93 184.642C328.461 184.32 329.029 184.159 329.635 184.159C330.324 184.159 330.866 184.328 331.26 184.665C331.658 184.998 331.938 185.366 332.101 185.767H332.158V181.364H334.936V193H332.186V191.585H332.101C331.927 191.987 331.639 192.345 331.237 192.659C330.836 192.97 330.305 193.125 329.646 193.125ZM330.612 190.96C331.12 190.96 331.514 190.75 331.794 190.33C332.078 189.909 332.22 189.345 332.22 188.636C332.22 187.924 332.078 187.362 331.794 186.949C331.514 186.536 331.12 186.33 330.612 186.33C330.097 186.33 329.701 186.54 329.425 186.96C329.148 187.377 329.01 187.936 329.01 188.636C329.01 189.341 329.148 189.905 329.425 190.33C329.701 190.75 330.097 190.96 330.612 190.96Z" fill="black"/>
<rect x="1.5" y="1.5" width="157" height="93" stroke="black" stroke-width="3"/>
<path d="M21.9375 42.3636H24.7273V50.0511C24.7273 50.9337 24.5208 51.6799 24.108 52.2898C23.6951 52.8996 23.1193 53.3617 22.3807 53.6761C21.642 53.9905 20.7841 54.1477 19.8068 54.1477C18.8258 54.1477 17.964 53.9905 17.2216 53.6761C16.483 53.3617 15.9072 52.8996 15.4943 52.2898C15.0852 51.6799 14.8807 50.9337 14.8807 50.0511V42.3636H17.6932V49.9432C17.6932 50.4697 17.8883 50.8902 18.2784 51.2045C18.6686 51.5152 19.178 51.6705 19.8068 51.6705C20.4432 51.6705 20.9564 51.5152 21.3466 51.2045C21.7405 50.8902 21.9375 50.4697 21.9375 49.9432V42.3636ZM34.1094 47.9375L31.5582 48.0057C31.5204 47.7292 31.3821 47.5038 31.1435 47.3295C30.9048 47.1515 30.6018 47.0625 30.2344 47.0625C29.9124 47.0625 29.6378 47.1269 29.4105 47.2557C29.187 47.3807 29.0772 47.5549 29.081 47.7784C29.0772 47.9451 29.1454 48.0928 29.2855 48.2216C29.4295 48.3466 29.6851 48.447 30.0526 48.5227L31.7344 48.8409C33.4503 49.1705 34.3139 49.9583 34.3253 51.2045C34.3215 51.803 34.1435 52.3239 33.7912 52.767C33.4427 53.2102 32.9654 53.5549 32.3594 53.8011C31.7533 54.0436 31.0601 54.1648 30.2798 54.1648C29.0336 54.1648 28.0507 53.9091 27.331 53.3977C26.6113 52.8826 26.2022 52.1932 26.1037 51.3295L28.848 51.2614C28.9086 51.5795 29.0658 51.822 29.3196 51.9886C29.5734 52.1553 29.8973 52.2386 30.2912 52.2386C30.6473 52.2386 30.937 52.1723 31.1605 52.0398C31.384 51.9072 31.4976 51.7311 31.5014 51.5114C31.4901 51.1439 31.1359 50.892 30.4389 50.7557L28.9162 50.4659C27.1776 50.1439 26.3139 49.3011 26.3253 47.9375C26.3215 47.0625 26.6681 46.3807 27.3651 45.892C28.062 45.4034 29.0014 45.1591 30.1832 45.1591C31.3651 45.1591 32.2969 45.4072 32.9787 45.9034C33.6605 46.3958 34.0374 47.0739 34.1094 47.9375ZM39.7727 54.1648C38.4015 54.1648 37.322 53.7652 36.5341 52.9659C35.75 52.1667 35.358 51.0682 35.358 49.6705C35.358 48.7689 35.536 47.9811 35.892 47.3068C36.2481 46.6288 36.75 46.1023 37.3977 45.7273C38.0455 45.3485 38.8087 45.1591 39.6875 45.1591C40.5133 45.1591 41.2443 45.3314 41.8807 45.6761C42.517 46.017 43.0152 46.5189 43.375 47.1818C43.7348 47.8447 43.9148 48.6553 43.9148 49.6136V50.3068H38.0966V50.3807C38.0966 50.9148 38.25 51.3447 38.5568 51.6705C38.8674 51.9962 39.2898 52.1591 39.8239 52.1591C40.1875 52.1591 40.5038 52.0833 40.7727 51.9318C41.0417 51.7765 41.2292 51.5549 41.3352 51.267L43.8864 51.3409C43.7273 52.197 43.2879 52.8826 42.5682 53.3977C41.8485 53.9091 40.9167 54.1648 39.7727 54.1648ZM38.0966 48.6932H41.3295C41.3258 48.2462 41.1742 47.8807 40.875 47.5966C40.5795 47.3087 40.2027 47.1648 39.7443 47.1648C39.2822 47.1648 38.8958 47.3106 38.5852 47.6023C38.2784 47.8939 38.1155 48.2576 38.0966 48.6932ZM45.3338 54V45.2727H48.0327V46.8636H48.1236C48.2827 46.2879 48.5421 45.8598 48.902 45.5795C49.2618 45.2955 49.6804 45.1534 50.1577 45.1534C50.3887 45.1534 50.6084 45.1818 50.8168 45.2386C51.0251 45.2955 51.2126 45.3731 51.3793 45.4716L50.5611 47.7557C50.4399 47.6989 50.3092 47.6496 50.169 47.608C50.0327 47.5625 49.8812 47.5398 49.7145 47.5398C49.2789 47.5398 48.9039 47.697 48.5895 48.0114C48.2751 48.3258 48.116 48.7424 48.1122 49.2614V54H45.3338Z" fill="black"/>
<rect x="1.5" y="129.5" width="157" height="93" stroke="black" stroke-width="3"/>
<path d="M24.7841 159.364V171H22.3977L17.767 164.284H17.6932V171H14.8807V159.364H17.3011L21.8807 166.068H21.9773V159.364H24.7841ZM30.6321 171.165C29.2609 171.165 28.1813 170.765 27.3935 169.966C26.6094 169.167 26.2173 168.068 26.2173 166.67C26.2173 165.769 26.3954 164.981 26.7514 164.307C27.1075 163.629 27.6094 163.102 28.2571 162.727C28.9048 162.348 29.6681 162.159 30.5469 162.159C31.3726 162.159 32.1037 162.331 32.7401 162.676C33.3764 163.017 33.8745 163.519 34.2344 164.182C34.5942 164.845 34.7741 165.655 34.7741 166.614V167.307H28.956V167.381C28.956 167.915 29.1094 168.345 29.4162 168.67C29.7268 168.996 30.1491 169.159 30.6832 169.159C31.0469 169.159 31.3632 169.083 31.6321 168.932C31.901 168.777 32.0885 168.555 32.1946 168.267L34.7457 168.341C34.5866 169.197 34.1473 169.883 33.4276 170.398C32.7079 170.909 31.776 171.165 30.6321 171.165ZM28.956 165.693H32.1889C32.1851 165.246 32.0336 164.881 31.7344 164.597C31.4389 164.309 31.062 164.165 30.6037 164.165C30.1416 164.165 29.7552 164.311 29.4446 164.602C29.1378 164.894 28.9749 165.258 28.956 165.693ZM40.2727 171.165C38.9015 171.165 37.822 170.765 37.0341 169.966C36.25 169.167 35.858 168.068 35.858 166.67C35.858 165.769 36.036 164.981 36.392 164.307C36.7481 163.629 37.25 163.102 37.8977 162.727C38.5455 162.348 39.3087 162.159 40.1875 162.159C41.0133 162.159 41.7443 162.331 42.3807 162.676C43.017 163.017 43.5152 163.519 43.875 164.182C44.2348 164.845 44.4148 165.655 44.4148 166.614V167.307H38.5966V167.381C38.5966 167.915 38.75 168.345 39.0568 168.67C39.3674 168.996 39.7898 169.159 40.3239 169.159C40.6875 169.159 41.0038 169.083 41.2727 168.932C41.5417 168.777 41.7292 168.555 41.8352 168.267L44.3864 168.341C44.2273 169.197 43.7879 169.883 43.0682 170.398C42.3485 170.909 41.4167 171.165 40.2727 171.165ZM38.5966 165.693H41.8295C41.8258 165.246 41.6742 164.881 41.375 164.597C41.0795 164.309 40.7027 164.165 40.2443 164.165C39.7822 164.165 39.3958 164.311 39.0852 164.602C38.7784 164.894 38.6155 165.258 38.5966 165.693ZM49.0213 171.125C48.3812 171.125 47.7959 170.958 47.2656 170.625C46.7391 170.288 46.3187 169.788 46.0043 169.125C45.6899 168.462 45.5327 167.634 45.5327 166.642C45.5327 165.616 45.6955 164.773 46.0213 164.114C46.3471 163.451 46.7751 162.96 47.3054 162.642C47.8357 162.32 48.4039 162.159 49.0099 162.159C49.6993 162.159 50.241 162.328 50.6349 162.665C51.0327 162.998 51.313 163.366 51.4759 163.767H51.5327V159.364H54.3111V171H51.5611V169.585H51.4759C51.3016 169.987 51.0137 170.345 50.6122 170.659C50.2107 170.97 49.6804 171.125 49.0213 171.125ZM49.9872 168.96C50.4948 168.96 50.8887 168.75 51.169 168.33C51.4531 167.909 51.5952 167.345 51.5952 166.636C51.5952 165.924 51.4531 165.362 51.169 164.949C50.8887 164.536 50.4948 164.33 49.9872 164.33C49.4721 164.33 49.0762 164.54 48.7997 164.96C48.5232 165.377 48.3849 165.936 48.3849 166.636C48.3849 167.341 48.5232 167.905 48.7997 168.33C49.0762 168.75 49.4721 168.96 49.9872 168.96ZM63.6875 164.938L61.1364 165.006C61.0985 164.729 60.9602 164.504 60.7216 164.33C60.483 164.152 60.1799 164.062 59.8125 164.062C59.4905 164.062 59.2159 164.127 58.9886 164.256C58.7652 164.381 58.6553 164.555 58.6591 164.778C58.6553 164.945 58.7235 165.093 58.8636 165.222C59.0076 165.347 59.2633 165.447 59.6307 165.523L61.3125 165.841C63.0284 166.17 63.892 166.958 63.9034 168.205C63.8996 168.803 63.7216 169.324 63.3693 169.767C63.0208 170.21 62.5436 170.555 61.9375 170.801C61.3314 171.044 60.6383 171.165 59.858 171.165C58.6117 171.165 57.6288 170.909 56.9091 170.398C56.1894 169.883 55.7803 169.193 55.6818 168.33L58.4261 168.261C58.4867 168.58 58.6439 168.822 58.8977 168.989C59.1515 169.155 59.4754 169.239 59.8693 169.239C60.2254 169.239 60.5152 169.172 60.7386 169.04C60.9621 168.907 61.0758 168.731 61.0795 168.511C61.0682 168.144 60.714 167.892 60.017 167.756L58.4943 167.466C56.7557 167.144 55.892 166.301 55.9034 164.938C55.8996 164.062 56.2462 163.381 56.9432 162.892C57.6402 162.403 58.5795 162.159 59.7614 162.159C60.9432 162.159 61.875 162.407 62.5568 162.903C63.2386 163.396 63.6155 164.074 63.6875 164.938Z" fill="#BDBDBD"/>
<path d="M14.8807 193V181.364H19.6875C20.5587 181.364 21.3106 181.521 21.9432 181.835C22.5795 182.15 23.0701 182.597 23.4148 183.176C23.7595 183.752 23.9318 184.439 23.9318 185.239C23.9318 186.042 23.7557 186.725 23.4034 187.29C23.0511 187.854 22.5549 188.28 21.9148 188.568L24.3295 193H21.2614L19.1364 189.017H17.6932V193H14.8807ZM17.6932 186.801H19.0795C19.7121 186.801 20.1932 186.676 20.5227 186.426C20.8523 186.172 21.017 185.777 21.017 185.239C21.017 184.167 20.3712 183.631 19.0795 183.631H17.6932V186.801ZM29.3821 193.165C28.0109 193.165 26.9313 192.765 26.1435 191.966C25.3594 191.167 24.9673 190.068 24.9673 188.67C24.9673 187.769 25.1454 186.981 25.5014 186.307C25.8575 185.629 26.3594 185.102 27.0071 184.727C27.6548 184.348 28.4181 184.159 29.2969 184.159C30.1226 184.159 30.8537 184.331 31.4901 184.676C32.1264 185.017 32.6245 185.519 32.9844 186.182C33.3442 186.845 33.5241 187.655 33.5241 188.614V189.307H27.706V189.381C27.706 189.915 27.8594 190.345 28.1662 190.67C28.4768 190.996 28.8991 191.159 29.4332 191.159C29.7969 191.159 30.1132 191.083 30.3821 190.932C30.651 190.777 30.8385 190.555 30.9446 190.267L33.4957 190.341C33.3366 191.197 32.8973 191.883 32.1776 192.398C31.4579 192.909 30.526 193.165 29.3821 193.165ZM27.706 187.693H30.9389C30.9351 187.246 30.7836 186.881 30.4844 186.597C30.1889 186.309 29.812 186.165 29.3537 186.165C28.8916 186.165 28.5052 186.311 28.1946 186.602C27.8878 186.894 27.7249 187.258 27.706 187.693ZM37.4034 193.148C36.5701 193.148 35.8826 192.936 35.3409 192.511C34.803 192.087 34.5341 191.443 34.5341 190.58C34.5341 189.936 34.6818 189.424 34.9773 189.045C35.2727 188.663 35.6667 188.381 36.1591 188.199C36.6515 188.013 37.1913 187.896 37.7784 187.847C38.5246 187.782 39.0549 187.703 39.3693 187.608C39.6875 187.513 39.8466 187.333 39.8466 187.068V187.04C39.8466 186.748 39.7462 186.523 39.5455 186.364C39.3447 186.205 39.0739 186.125 38.733 186.125C38.3655 186.125 38.0701 186.205 37.8466 186.364C37.6231 186.523 37.4811 186.742 37.4205 187.023L34.858 186.932C34.9678 186.136 35.3504 185.475 36.0057 184.949C36.6648 184.422 37.5814 184.159 38.7557 184.159C39.4981 184.159 40.1591 184.275 40.7386 184.506C41.322 184.733 41.7803 185.062 42.1136 185.494C42.4508 185.926 42.6193 186.451 42.6193 187.068V193H40.0057V191.784H39.9375C39.4527 192.693 38.608 193.148 37.4034 193.148ZM38.2614 191.33C38.7045 191.33 39.0814 191.197 39.392 190.932C39.7064 190.667 39.8636 190.322 39.8636 189.898V189.068C39.7083 189.152 39.4886 189.222 39.2045 189.278C38.9242 189.335 38.6553 189.383 38.3977 189.42C37.5758 189.545 37.1648 189.886 37.1648 190.443C37.1648 190.731 37.267 190.951 37.4716 191.102C37.6761 191.254 37.9394 191.33 38.2614 191.33ZM47.5057 193.125C46.8655 193.125 46.2803 192.958 45.75 192.625C45.2235 192.288 44.803 191.788 44.4886 191.125C44.1742 190.462 44.017 189.634 44.017 188.642C44.017 187.616 44.1799 186.773 44.5057 186.114C44.8314 185.451 45.2595 184.96 45.7898 184.642C46.3201 184.32 46.8883 184.159 47.4943 184.159C48.1837 184.159 48.7254 184.328 49.1193 184.665C49.517 184.998 49.7973 185.366 49.9602 185.767H50.017V181.364H52.7955V193H50.0455V191.585H49.9602C49.786 191.987 49.4981 192.345 49.0966 192.659C48.6951 192.97 48.1648 193.125 47.5057 193.125ZM48.4716 190.96C48.9792 190.96 49.3731 190.75 49.6534 190.33C49.9375 189.909 50.0795 189.345 50.0795 188.636C50.0795 187.924 49.9375 187.362 49.6534 186.949C49.3731 186.536 48.9792 186.33 48.4716 186.33C47.9564 186.33 47.5606 186.54 47.2841 186.96C47.0076 187.377 46.8693 187.936 46.8693 188.636C46.8693 189.341 47.0076 189.905 47.2841 190.33C47.5606 190.75 47.9564 190.96 48.4716 190.96ZM60.4503 193.148C59.617 193.148 58.9295 192.936 58.3878 192.511C57.8499 192.087 57.581 191.443 57.581 190.58C57.581 189.936 57.7287 189.424 58.0241 189.045C58.3196 188.663 58.7135 188.381 59.206 188.199C59.6984 188.013 60.2382 187.896 60.8253 187.847C61.5715 187.782 62.1018 187.703 62.4162 187.608C62.7344 187.513 62.8935 187.333 62.8935 187.068V187.04C62.8935 186.748 62.7931 186.523 62.5923 186.364C62.3916 186.205 62.1207 186.125 61.7798 186.125C61.4124 186.125 61.117 186.205 60.8935 186.364C60.67 186.523 60.5279 186.742 60.4673 187.023L57.9048 186.932C58.0147 186.136 58.3973 185.475 59.0526 184.949C59.7116 184.422 60.6283 184.159 61.8026 184.159C62.545 184.159 63.206 184.275 63.7855 184.506C64.3688 184.733 64.8272 185.062 65.1605 185.494C65.4976 185.926 65.6662 186.451 65.6662 187.068V193H63.0526V191.784H62.9844C62.4995 192.693 61.6548 193.148 60.4503 193.148ZM61.3082 191.33C61.7514 191.33 62.1283 191.197 62.4389 190.932C62.7533 190.667 62.9105 190.322 62.9105 189.898V189.068C62.7552 189.152 62.5355 189.222 62.2514 189.278C61.9711 189.335 61.7022 189.383 61.4446 189.42C60.6226 189.545 60.2116 189.886 60.2116 190.443C60.2116 190.731 60.3139 190.951 60.5185 191.102C60.723 191.254 60.9863 191.33 61.3082 191.33ZM75.7287 184.273V186.318H74.1548V190.256C74.1548 190.513 74.2154 190.695 74.3366 190.801C74.4616 190.903 74.6359 190.955 74.8594 190.955C74.9654 190.955 75.0772 190.945 75.1946 190.926C75.3158 190.903 75.4067 190.884 75.4673 190.869L75.8878 192.875C75.7552 192.913 75.5696 192.958 75.331 193.011C75.0923 193.068 74.8045 193.106 74.4673 193.125C73.4863 193.17 72.723 192.975 72.1776 192.54C71.6359 192.104 71.3688 191.445 71.3764 190.562V186.318H70.223V184.273H71.3764V182.182H74.1548V184.273H75.7287ZM80.1122 188.023V193H77.3338V181.364H80.0213V185.875H80.1179C80.3149 185.337 80.6368 184.917 81.0838 184.614C81.5346 184.311 82.0857 184.159 82.7372 184.159C83.6539 184.159 84.3887 184.458 84.9418 185.057C85.4986 185.655 85.7751 186.449 85.7713 187.438V193H82.9929V187.983C82.9967 187.498 82.8755 187.119 82.6293 186.847C82.383 186.574 82.0365 186.438 81.5895 186.438C81.1501 186.438 80.794 186.578 80.5213 186.858C80.2524 187.138 80.116 187.527 80.1122 188.023ZM91.5852 193.165C90.214 193.165 89.1345 192.765 88.3466 191.966C87.5625 191.167 87.1705 190.068 87.1705 188.67C87.1705 187.769 87.3485 186.981 87.7045 186.307C88.0606 185.629 88.5625 185.102 89.2102 184.727C89.858 184.348 90.6212 184.159 91.5 184.159C92.3258 184.159 93.0568 184.331 93.6932 184.676C94.3295 185.017 94.8277 185.519 95.1875 186.182C95.5473 186.845 95.7273 187.655 95.7273 188.614V189.307H89.9091V189.381C89.9091 189.915 90.0625 190.345 90.3693 190.67C90.6799 190.996 91.1023 191.159 91.6364 191.159C92 191.159 92.3163 191.083 92.5852 190.932C92.8542 190.777 93.0417 190.555 93.1477 190.267L95.6989 190.341C95.5398 191.197 95.1004 191.883 94.3807 192.398C93.661 192.909 92.7292 193.165 91.5852 193.165ZM89.9091 187.693H93.142C93.1383 187.246 92.9867 186.881 92.6875 186.597C92.392 186.309 92.0152 186.165 91.5568 186.165C91.0947 186.165 90.7083 186.311 90.3977 186.602C90.0909 186.894 89.928 187.258 89.9091 187.693ZM104.766 186.938L102.214 187.006C102.177 186.729 102.038 186.504 101.8 186.33C101.561 186.152 101.258 186.062 100.891 186.062C100.569 186.062 100.294 186.127 100.067 186.256C99.8433 186.381 99.7334 186.555 99.7372 186.778C99.7334 186.945 99.8016 187.093 99.9418 187.222C100.086 187.347 100.341 187.447 100.709 187.523L102.391 187.841C104.107 188.17 104.97 188.958 104.982 190.205C104.978 190.803 104.8 191.324 104.447 191.767C104.099 192.21 103.622 192.555 103.016 192.801C102.41 193.044 101.716 193.165 100.936 193.165C99.6899 193.165 98.7069 192.909 97.9872 192.398C97.2675 191.883 96.8584 191.193 96.7599 190.33L99.5043 190.261C99.5649 190.58 99.7221 190.822 99.9759 190.989C100.23 191.155 100.554 191.239 100.947 191.239C101.304 191.239 101.593 191.172 101.817 191.04C102.04 190.907 102.154 190.731 102.158 190.511C102.146 190.144 101.792 189.892 101.095 189.756L99.5724 189.466C97.8338 189.144 96.9702 188.301 96.9815 186.938C96.9777 186.062 97.3243 185.381 98.0213 184.892C98.7183 184.403 99.6577 184.159 100.839 184.159C102.021 184.159 102.953 184.407 103.635 184.903C104.317 185.396 104.694 186.074 104.766 186.938ZM106.349 193V184.273H109.128V193H106.349ZM107.741 183.256C107.351 183.256 107.016 183.127 106.736 182.869C106.455 182.608 106.315 182.294 106.315 181.926C106.315 181.559 106.455 181.246 106.736 180.989C107.016 180.731 107.351 180.602 107.741 180.602C108.135 180.602 108.471 180.731 108.747 180.989C109.027 181.246 109.168 181.559 109.168 181.926C109.168 182.294 109.027 182.608 108.747 182.869C108.471 183.127 108.135 183.256 107.741 183.256ZM118.516 186.938L115.964 187.006C115.927 186.729 115.788 186.504 115.55 186.33C115.311 186.152 115.008 186.062 114.641 186.062C114.319 186.062 114.044 186.127 113.817 186.256C113.593 186.381 113.483 186.555 113.487 186.778C113.483 186.945 113.552 187.093 113.692 187.222C113.836 187.347 114.091 187.447 114.459 187.523L116.141 187.841C117.857 188.17 118.72 188.958 118.732 190.205C118.728 190.803 118.55 191.324 118.197 191.767C117.849 192.21 117.372 192.555 116.766 192.801C116.16 193.044 115.466 193.165 114.686 193.165C113.44 193.165 112.457 192.909 111.737 192.398C111.018 191.883 110.608 191.193 110.51 190.33L113.254 190.261C113.315 190.58 113.472 190.822 113.726 190.989C113.98 191.155 114.304 191.239 114.697 191.239C115.054 191.239 115.343 191.172 115.567 191.04C115.79 190.907 115.904 190.731 115.908 190.511C115.896 190.144 115.542 189.892 114.845 189.756L113.322 189.466C111.584 189.144 110.72 188.301 110.732 186.938C110.728 186.062 111.074 185.381 111.771 184.892C112.468 184.403 113.408 184.159 114.589 184.159C115.771 184.159 116.703 184.407 117.385 184.903C118.067 185.396 118.444 186.074 118.516 186.938Z" fill="black"/>
<path d="M25.8636 293.182C25.8636 294.462 25.6174 295.547 25.125 296.438C24.6326 297.328 23.9659 298.004 23.125 298.466C22.2879 298.928 21.3485 299.159 20.3068 299.159C19.2614 299.159 18.3182 298.928 17.4773 298.466C16.6402 298 15.9773 297.322 15.4886 296.432C15 295.542 14.7557 294.458 14.7557 293.182C14.7557 291.898 15 290.812 15.4886 289.926C15.9773 289.036 16.6402 288.36 17.4773 287.898C18.3182 287.436 19.2614 287.205 20.3068 287.205C21.3485 287.205 22.2879 287.436 23.125 287.898C23.9659 288.36 24.6326 289.036 25.125 289.926C25.6174 290.812 25.8636 291.898 25.8636 293.182ZM22.9886 293.182C22.9886 292.042 22.7519 291.172 22.2784 290.574C21.8049 289.972 21.1477 289.67 20.3068 289.67C19.4697 289.67 18.8125 289.972 18.3352 290.574C17.8617 291.172 17.625 292.042 17.625 293.182C17.625 294.322 17.8617 295.193 18.3352 295.795C18.8125 296.394 19.4697 296.693 20.3068 296.693C21.1477 296.693 21.8049 296.394 22.2784 295.795C22.7519 295.193 22.9886 294.322 22.9886 293.182ZM33.1364 295.233V290.273H35.9091V299H33.2614V297.375H33.1705C32.9773 297.909 32.6477 298.333 32.1818 298.648C31.7197 298.958 31.161 299.114 30.5057 299.114C29.9072 299.114 29.3826 298.977 28.9318 298.705C28.4848 298.432 28.1364 298.049 27.8864 297.557C27.6364 297.064 27.5095 296.491 27.5057 295.835V290.273H30.2841V295.29C30.2879 295.763 30.4129 296.136 30.6591 296.409C30.9053 296.682 31.2405 296.818 31.6648 296.818C32.0777 296.818 32.4261 296.682 32.7102 296.409C32.9943 296.133 33.1364 295.741 33.1364 295.233ZM42.6037 290.273V292.318H41.0298V296.256C41.0298 296.513 41.0904 296.695 41.2116 296.801C41.3366 296.903 41.5109 296.955 41.7344 296.955C41.8404 296.955 41.9522 296.945 42.0696 296.926C42.1908 296.903 42.2817 296.884 42.3423 296.869L42.7628 298.875C42.6302 298.913 42.4446 298.958 42.206 299.011C41.9673 299.068 41.6795 299.106 41.3423 299.125C40.3613 299.17 39.598 298.975 39.0526 298.54C38.5109 298.104 38.2438 297.445 38.2514 296.562V292.318H37.098V290.273H38.2514V288.182H41.0298V290.273H42.6037ZM48.0014 299.165C47.081 299.165 46.2912 298.975 45.6321 298.597C44.9768 298.214 44.473 297.686 44.1207 297.011C43.7685 296.333 43.5923 295.551 43.5923 294.665C43.5923 293.771 43.7685 292.987 44.1207 292.312C44.473 291.634 44.9787 291.106 45.6378 290.727C46.2969 290.348 47.0829 290.159 47.9957 290.159C48.8063 290.159 49.5109 290.305 50.1094 290.597C50.7079 290.888 51.1757 291.301 51.5128 291.835C51.8537 292.366 52.0336 292.989 52.0526 293.705H49.456C49.4029 293.258 49.2514 292.907 49.0014 292.653C48.7552 292.4 48.4332 292.273 48.0355 292.273C47.5507 292.273 47.1605 292.475 46.8651 292.881C46.5696 293.282 46.4219 293.867 46.4219 294.636C46.4219 295.413 46.5677 296.004 46.8594 296.409C47.1548 296.811 47.5469 297.011 48.0355 297.011C48.4181 297.011 48.7382 296.888 48.9957 296.642C49.2533 296.396 49.4067 296.042 49.456 295.58H52.0526C52.0298 296.299 51.8518 296.928 51.5185 297.466C51.1851 298.004 50.7192 298.422 50.1207 298.722C49.526 299.017 48.8196 299.165 48.0014 299.165ZM57.5483 299.165C56.6354 299.165 55.8494 298.977 55.1903 298.602C54.5313 298.223 54.0237 297.697 53.6676 297.023C53.3153 296.345 53.1392 295.559 53.1392 294.665C53.1392 293.767 53.3153 292.981 53.6676 292.307C54.0237 291.629 54.5313 291.102 55.1903 290.727C55.8494 290.348 56.6354 290.159 57.5483 290.159C58.465 290.159 59.2509 290.348 59.9062 290.727C60.5653 291.102 61.071 291.629 61.4233 292.307C61.7794 292.981 61.9574 293.767 61.9574 294.665C61.9574 295.559 61.7794 296.345 61.4233 297.023C61.071 297.697 60.5653 298.223 59.9062 298.602C59.2509 298.977 58.465 299.165 57.5483 299.165ZM57.5653 297.068C58.0616 297.068 58.446 296.845 58.7188 296.398C58.9915 295.951 59.1278 295.367 59.1278 294.648C59.1278 293.924 58.9915 293.339 58.7188 292.892C58.446 292.441 58.0616 292.216 57.5653 292.216C57.0502 292.216 56.6544 292.441 56.3778 292.892C56.1051 293.339 55.9688 293.924 55.9688 294.648C55.9688 295.367 56.1051 295.951 56.3778 296.398C56.6544 296.845 57.0502 297.068 57.5653 297.068ZM63.3807 299V290.273H66.0227V291.875H66.1193C66.3011 291.345 66.608 290.926 67.0398 290.619C67.4754 290.312 67.9905 290.159 68.5852 290.159C69.1913 290.159 69.7102 290.314 70.142 290.625C70.5739 290.936 70.8485 291.352 70.9659 291.875H71.0568C71.2197 291.356 71.5379 290.941 72.0114 290.631C72.4848 290.316 73.0436 290.159 73.6875 290.159C74.5133 290.159 75.1837 290.422 75.6989 290.949C76.214 291.475 76.4716 292.201 76.4716 293.125V299H73.6932V293.761C73.6932 293.326 73.5795 292.994 73.3523 292.767C73.1288 292.536 72.8409 292.42 72.4886 292.42C72.1061 292.42 71.8049 292.545 71.5852 292.795C71.3693 293.042 71.2614 293.373 71.2614 293.79V299H68.5909V293.733C68.5909 293.328 68.4811 293.008 68.2614 292.773C68.0417 292.538 67.7519 292.42 67.392 292.42C67.0284 292.42 66.7311 292.549 66.5 292.807C66.2727 293.061 66.1591 293.403 66.1591 293.835V299H63.3807ZM82.2727 299.165C80.9015 299.165 79.822 298.765 79.0341 297.966C78.25 297.167 77.858 296.068 77.858 294.67C77.858 293.769 78.036 292.981 78.392 292.307C78.7481 291.629 79.25 291.102 79.8977 290.727C80.5455 290.348 81.3087 290.159 82.1875 290.159C83.0133 290.159 83.7443 290.331 84.3807 290.676C85.017 291.017 85.5152 291.519 85.875 292.182C86.2348 292.845 86.4148 293.655 86.4148 294.614V295.307H80.5966V295.381C80.5966 295.915 80.75 296.345 81.0568 296.67C81.3674 296.996 81.7898 297.159 82.3239 297.159C82.6875 297.159 83.0038 297.083 83.2727 296.932C83.5417 296.777 83.7292 296.555 83.8352 296.267L86.3864 296.341C86.2273 297.197 85.7879 297.883 85.0682 298.398C84.3485 298.909 83.4167 299.165 82.2727 299.165ZM80.5966 293.693H83.8295C83.8258 293.246 83.6742 292.881 83.375 292.597C83.0795 292.309 82.7027 292.165 82.2443 292.165C81.7822 292.165 81.3958 292.311 81.0852 292.602C80.7784 292.894 80.6155 293.258 80.5966 293.693Z" fill="#BDBDBD"/>
<rect x="1.5" y="257.5" width="157" height="93" stroke="black" stroke-width="3"/>
<path d="M14.5 310.648V308.364H24.3352V310.648H20.8068V320H18.0341V310.648H14.5ZM28.4872 315.023V320H25.7088V308.364H28.3963V312.875H28.4929C28.6899 312.337 29.0118 311.917 29.4588 311.614C29.9096 311.311 30.4607 311.159 31.1122 311.159C32.0289 311.159 32.7637 311.458 33.3168 312.057C33.8736 312.655 34.1501 313.449 34.1463 314.438V320H31.3679V314.983C31.3717 314.498 31.2505 314.119 31.0043 313.847C30.758 313.574 30.4115 313.438 29.9645 313.438C29.5251 313.438 29.169 313.578 28.8963 313.858C28.6274 314.138 28.491 314.527 28.4872 315.023ZM39.9602 320.165C38.589 320.165 37.5095 319.765 36.7216 318.966C35.9375 318.167 35.5455 317.068 35.5455 315.67C35.5455 314.769 35.7235 313.981 36.0795 313.307C36.4356 312.629 36.9375 312.102 37.5852 311.727C38.233 311.348 38.9962 311.159 39.875 311.159C40.7008 311.159 41.4318 311.331 42.0682 311.676C42.7045 312.017 43.2027 312.519 43.5625 313.182C43.9223 313.845 44.1023 314.655 44.1023 315.614V316.307H38.2841V316.381C38.2841 316.915 38.4375 317.345 38.7443 317.67C39.0549 317.996 39.4773 318.159 40.0114 318.159C40.375 318.159 40.6913 318.083 40.9602 317.932C41.2292 317.777 41.4167 317.555 41.5227 317.267L44.0739 317.341C43.9148 318.197 43.4754 318.883 42.7557 319.398C42.036 319.909 41.1042 320.165 39.9602 320.165ZM38.2841 314.693H41.517C41.5133 314.246 41.3617 313.881 41.0625 313.597C40.767 313.309 40.3902 313.165 39.9318 313.165C39.4697 313.165 39.0833 313.311 38.7727 313.602C38.4659 313.894 38.303 314.258 38.2841 314.693ZM53.1406 313.938L50.5895 314.006C50.5516 313.729 50.4134 313.504 50.1747 313.33C49.9361 313.152 49.633 313.062 49.2656 313.062C48.9437 313.062 48.669 313.127 48.4418 313.256C48.2183 313.381 48.1084 313.555 48.1122 313.778C48.1084 313.945 48.1766 314.093 48.3168 314.222C48.4607 314.347 48.7164 314.447 49.0838 314.523L50.7656 314.841C52.4815 315.17 53.3452 315.958 53.3565 317.205C53.3527 317.803 53.1747 318.324 52.8224 318.767C52.474 319.21 51.9967 319.555 51.3906 319.801C50.7846 320.044 50.0914 320.165 49.3111 320.165C48.0649 320.165 47.0819 319.909 46.3622 319.398C45.6425 318.883 45.2334 318.193 45.1349 317.33L47.8793 317.261C47.9399 317.58 48.0971 317.822 48.3509 317.989C48.6046 318.155 48.9285 318.239 49.3224 318.239C49.6785 318.239 49.9683 318.172 50.1918 318.04C50.4152 317.907 50.5289 317.731 50.5327 317.511C50.5213 317.144 50.1671 316.892 49.4702 316.756L47.9474 316.466C46.2088 316.144 45.3452 315.301 45.3565 313.938C45.3527 313.062 45.6993 312.381 46.3963 311.892C47.0933 311.403 48.0327 311.159 49.2145 311.159C50.3963 311.159 51.3281 311.407 52.0099 311.903C52.6918 312.396 53.0687 313.074 53.1406 313.938ZM54.7244 320V311.273H57.5028V320H54.7244ZM56.1165 310.256C55.7263 310.256 55.3911 310.127 55.1108 309.869C54.8305 309.608 54.6903 309.294 54.6903 308.926C54.6903 308.559 54.8305 308.246 55.1108 307.989C55.3911 307.731 55.7263 307.602 56.1165 307.602C56.5104 307.602 56.8456 307.731 57.1222 307.989C57.4025 308.246 57.5426 308.559 57.5426 308.926C57.5426 309.294 57.4025 309.608 57.1222 309.869C56.8456 310.127 56.5104 310.256 56.1165 310.256ZM66.8906 313.938L64.3395 314.006C64.3016 313.729 64.1634 313.504 63.9247 313.33C63.6861 313.152 63.383 313.062 63.0156 313.062C62.6937 313.062 62.419 313.127 62.1918 313.256C61.9683 313.381 61.8584 313.555 61.8622 313.778C61.8584 313.945 61.9266 314.093 62.0668 314.222C62.2107 314.347 62.4664 314.447 62.8338 314.523L64.5156 314.841C66.2315 315.17 67.0952 315.958 67.1065 317.205C67.1027 317.803 66.9247 318.324 66.5724 318.767C66.224 319.21 65.7467 319.555 65.1406 319.801C64.5346 320.044 63.8414 320.165 63.0611 320.165C61.8149 320.165 60.8319 319.909 60.1122 319.398C59.3925 318.883 58.9834 318.193 58.8849 317.33L61.6293 317.261C61.6899 317.58 61.8471 317.822 62.1009 317.989C62.3546 318.155 62.6785 318.239 63.0724 318.239C63.4285 318.239 63.7183 318.172 63.9418 318.04C64.1652 317.907 64.2789 317.731 64.2827 317.511C64.2713 317.144 63.9171 316.892 63.2202 316.756L61.6974 316.466C59.9588 316.144 59.0952 315.301 59.1065 313.938C59.1027 313.062 59.4493 312.381 60.1463 311.892C60.8433 311.403 61.7827 311.159 62.9645 311.159C64.1463 311.159 65.0781 311.407 65.7599 311.903C66.4418 312.396 66.8187 313.074 66.8906 313.938ZM79.5312 313.938L76.9801 314.006C76.9422 313.729 76.804 313.504 76.5653 313.33C76.3267 313.152 76.0237 313.062 75.6562 313.062C75.3343 313.062 75.0597 313.127 74.8324 313.256C74.6089 313.381 74.4991 313.555 74.5028 313.778C74.4991 313.945 74.5672 314.093 74.7074 314.222C74.8513 314.347 75.107 314.447 75.4744 314.523L77.1562 314.841C78.8722 315.17 79.7358 315.958 79.7472 317.205C79.7434 317.803 79.5653 318.324 79.2131 318.767C78.8646 319.21 78.3873 319.555 77.7812 319.801C77.1752 320.044 76.482 320.165 75.7017 320.165C74.4555 320.165 73.4725 319.909 72.7528 319.398C72.0331 318.883 71.6241 318.193 71.5256 317.33L74.2699 317.261C74.3305 317.58 74.4877 317.822 74.7415 317.989C74.9953 318.155 75.3191 318.239 75.7131 318.239C76.0691 318.239 76.3589 318.172 76.5824 318.04C76.8059 317.907 76.9195 317.731 76.9233 317.511C76.9119 317.144 76.5578 316.892 75.8608 316.756L74.3381 316.466C72.5994 316.144 71.7358 315.301 71.7472 313.938C71.7434 313.062 72.09 312.381 72.7869 311.892C73.4839 311.403 74.4233 311.159 75.6051 311.159C76.7869 311.159 77.7188 311.407 78.4006 311.903C79.0824 312.396 79.4593 313.074 79.5312 313.938ZM83.8935 315.023V320H81.1151V308.364H83.8026V312.875H83.8991C84.0961 312.337 84.4181 311.917 84.8651 311.614C85.3158 311.311 85.867 311.159 86.5185 311.159C87.4351 311.159 88.17 311.458 88.723 312.057C89.2798 312.655 89.5563 313.449 89.5526 314.438V320H86.7741V314.983C86.7779 314.498 86.6567 314.119 86.4105 313.847C86.1643 313.574 85.8177 313.438 85.3707 313.438C84.9313 313.438 84.5753 313.578 84.3026 313.858C84.0336 314.138 83.8973 314.527 83.8935 315.023ZM95.3608 320.165C94.4479 320.165 93.6619 319.977 93.0028 319.602C92.3438 319.223 91.8362 318.697 91.4801 318.023C91.1278 317.345 90.9517 316.559 90.9517 315.665C90.9517 314.767 91.1278 313.981 91.4801 313.307C91.8362 312.629 92.3438 312.102 93.0028 311.727C93.6619 311.348 94.4479 311.159 95.3608 311.159C96.2775 311.159 97.0634 311.348 97.7188 311.727C98.3778 312.102 98.8835 312.629 99.2358 313.307C99.5919 313.981 99.7699 314.767 99.7699 315.665C99.7699 316.559 99.5919 317.345 99.2358 318.023C98.8835 318.697 98.3778 319.223 97.7188 319.602C97.0634 319.977 96.2775 320.165 95.3608 320.165ZM95.3778 318.068C95.8741 318.068 96.2585 317.845 96.5312 317.398C96.804 316.951 96.9403 316.367 96.9403 315.648C96.9403 314.924 96.804 314.339 96.5312 313.892C96.2585 313.441 95.8741 313.216 95.3778 313.216C94.8627 313.216 94.4669 313.441 94.1903 313.892C93.9176 314.339 93.7812 314.924 93.7812 315.648C93.7812 316.367 93.9176 316.951 94.1903 317.398C94.4669 317.845 94.8627 318.068 95.3778 318.068ZM102.636 320L100.364 311.273H103.153L104.33 316.864H104.403L105.665 311.273H108.386L109.682 316.824H109.756L110.898 311.273H113.688L111.409 320H108.438L107.074 314.915H106.977L105.614 320H102.636ZM117.581 315.023V320H114.803V311.273H117.445V312.875H117.541C117.734 312.345 118.064 311.926 118.53 311.619C118.996 311.312 119.551 311.159 120.195 311.159C120.808 311.159 121.34 311.295 121.791 311.568C122.246 311.841 122.598 312.223 122.848 312.716C123.102 313.208 123.227 313.782 123.223 314.438V320H120.445V314.983C120.448 314.498 120.325 314.119 120.075 313.847C119.829 313.574 119.486 313.438 119.047 313.438C118.607 313.438 118.253 313.578 117.984 313.858C117.719 314.138 117.585 314.527 117.581 315.023Z" fill="black"/>
<path d="M272 224V304H173.5M173.5 304L183 294.5M173.5 304L183 313.5" stroke="black" stroke-width="3"/>
<path d="M194.562 322V313.273H198.33C198.977 313.273 199.544 313.401 200.03 313.656C200.516 313.912 200.893 314.271 201.163 314.734C201.433 315.197 201.568 315.739 201.568 316.358C201.568 316.983 201.429 317.524 201.151 317.982C200.875 318.439 200.487 318.791 199.987 319.038C199.49 319.286 198.909 319.409 198.244 319.409H196.932V322H194.562ZM196.932 317.568H197.767C198.182 317.568 198.507 317.46 198.743 317.244C198.979 317.026 199.097 316.73 199.097 316.358C199.097 315.983 198.979 315.69 198.743 315.48C198.507 315.27 198.182 315.165 197.767 315.165H196.932V317.568ZM205.467 322.119C204.419 322.119 203.594 321.822 202.991 321.229C202.392 320.632 202.092 319.804 202.092 318.744C202.092 318.068 202.229 317.477 202.501 316.972C202.774 316.466 203.159 316.072 203.656 315.791C204.153 315.51 204.74 315.369 205.416 315.369C206.075 315.369 206.648 315.504 207.134 315.774C207.622 316.044 208 316.43 208.267 316.933C208.537 317.433 208.672 318.031 208.672 318.727V319.273H204.411V319.375C204.411 319.69 204.507 319.952 204.7 320.159C204.896 320.364 205.169 320.466 205.518 320.466C205.76 320.466 205.97 320.416 206.149 320.317C206.331 320.214 206.456 320.071 206.524 319.886H208.672C208.561 320.568 208.226 321.111 207.666 321.514C207.109 321.918 206.376 322.119 205.467 322.119ZM204.411 317.977H206.507C206.501 317.696 206.399 317.467 206.2 317.291C206.004 317.112 205.76 317.023 205.467 317.023C205.18 317.023 204.933 317.111 204.726 317.287C204.521 317.463 204.416 317.693 204.411 317.977ZM209.632 322V315.455H211.916V316.699H211.984C212.103 316.239 212.292 315.902 212.551 315.689C212.812 315.476 213.118 315.369 213.467 315.369C213.663 315.369 213.862 315.399 214.064 315.459V317.466C213.947 317.426 213.804 317.396 213.633 317.376C213.463 317.357 213.316 317.347 213.194 317.347C212.848 317.347 212.559 317.46 212.329 317.688C212.099 317.915 211.984 318.216 211.984 318.591V322H209.632ZM218.928 315.455V317.159H217.735V322H215.382V317.159H214.547V315.455H215.382V315.267C215.382 314.457 215.596 313.855 216.022 313.46C216.448 313.062 217.019 312.864 217.735 312.864C218.033 312.864 218.323 312.886 218.604 312.932C218.888 312.977 219.098 313.017 219.235 313.051L218.894 314.739C218.809 314.713 218.709 314.693 218.596 314.679C218.482 314.662 218.382 314.653 218.297 314.653C218.076 314.653 217.926 314.7 217.85 314.794C217.773 314.888 217.735 315.011 217.735 315.165V315.455H218.928ZM222.781 322.119C222.071 322.119 221.463 321.979 220.957 321.697C220.452 321.413 220.064 321.018 219.794 320.513C219.524 320.004 219.389 319.415 219.389 318.744C219.389 318.074 219.524 317.486 219.794 316.98C220.064 316.472 220.452 316.077 220.957 315.795C221.463 315.511 222.071 315.369 222.781 315.369C223.491 315.369 224.099 315.511 224.605 315.795C225.111 316.077 225.499 316.472 225.768 316.98C226.038 317.486 226.173 318.074 226.173 318.744C226.173 319.415 226.038 320.004 225.768 320.513C225.499 321.018 225.111 321.413 224.605 321.697C224.099 321.979 223.491 322.119 222.781 322.119ZM222.798 320.381C223.097 320.381 223.332 320.234 223.506 319.942C223.682 319.646 223.77 319.241 223.77 318.727C223.77 318.213 223.682 317.81 223.506 317.517C223.332 317.222 223.097 317.074 222.798 317.074C222.483 317.074 222.236 317.222 222.057 317.517C221.881 317.81 221.793 318.213 221.793 318.727C221.793 319.241 221.881 319.646 222.057 319.942C222.236 320.234 222.483 320.381 222.798 320.381ZM227.128 322V315.455H229.412V316.699H229.48C229.599 316.239 229.788 315.902 230.047 315.689C230.308 315.476 230.614 315.369 230.963 315.369C231.159 315.369 231.358 315.399 231.56 315.459V317.466C231.443 317.426 231.3 317.396 231.129 317.376C230.959 317.357 230.813 317.347 230.69 317.347C230.344 317.347 230.055 317.46 229.825 317.688C229.595 317.915 229.48 318.216 229.48 318.591V322H227.128ZM232.331 322V315.455H234.564V316.699H234.632C234.768 316.29 235.001 315.966 235.331 315.727C235.661 315.489 236.053 315.369 236.507 315.369C236.967 315.369 237.364 315.491 237.696 315.736C238.028 315.977 238.229 316.298 238.297 316.699H238.365C238.476 316.298 238.712 315.977 239.072 315.736C239.433 315.491 239.857 315.369 240.342 315.369C240.97 315.369 241.479 315.571 241.868 315.974C242.26 316.378 242.456 316.915 242.456 317.585V322H240.104V318.182C240.104 317.895 240.031 317.67 239.886 317.509C239.741 317.344 239.547 317.261 239.303 317.261C239.061 317.261 238.869 317.344 238.727 317.509C238.588 317.67 238.518 317.895 238.518 318.182V322H236.268V318.182C236.268 317.895 236.196 317.67 236.051 317.509C235.906 317.344 235.712 317.261 235.467 317.261C235.226 317.261 235.034 317.344 234.892 317.509C234.753 317.67 234.683 317.895 234.683 318.182V322H232.331ZM245.44 322.102C244.815 322.102 244.304 321.947 243.906 321.638C243.508 321.325 243.309 320.844 243.309 320.193C243.309 319.713 243.416 319.327 243.629 319.034C243.842 318.741 244.13 318.523 244.494 318.378C244.858 318.233 245.264 318.145 245.713 318.114C246.264 318.074 246.654 318.016 246.885 317.939C247.115 317.859 247.23 317.724 247.23 317.534V317.517C247.23 317.347 247.164 317.216 247.034 317.125C246.903 317.034 246.735 316.989 246.531 316.989C246.306 316.989 246.123 317.038 245.981 317.138C245.842 317.234 245.758 317.384 245.73 317.585H243.565C243.593 317.187 243.72 316.821 243.944 316.486C244.172 316.148 244.502 315.878 244.937 315.676C245.372 315.472 245.914 315.369 246.565 315.369C247.19 315.369 247.727 315.464 248.176 315.655C248.627 315.845 248.974 316.102 249.216 316.426C249.46 316.75 249.582 317.114 249.582 317.517V322H247.383V321.08H247.332C247.133 321.446 246.875 321.709 246.556 321.868C246.238 322.024 245.866 322.102 245.44 322.102ZM246.207 320.619C246.474 320.619 246.714 320.538 246.927 320.376C247.14 320.212 247.247 319.98 247.247 319.682V319.136C247.014 319.233 246.701 319.312 246.309 319.375C246.037 319.418 245.838 319.5 245.713 319.622C245.588 319.744 245.525 319.889 245.525 320.057C245.525 320.239 245.589 320.378 245.717 320.474C245.845 320.571 246.008 320.619 246.207 320.619ZM253.058 318.318V322H250.706V315.455H252.939V316.699H253.007C253.149 316.284 253.399 315.959 253.757 315.723C254.118 315.487 254.538 315.369 255.018 315.369C255.482 315.369 255.884 315.476 256.224 315.689C256.568 315.899 256.834 316.189 257.021 316.558C257.212 316.928 257.305 317.349 257.303 317.824V322H254.95V318.318C254.953 317.994 254.871 317.74 254.703 317.555C254.538 317.371 254.308 317.278 254.013 317.278C253.72 317.278 253.489 317.371 253.318 317.555C253.148 317.74 253.061 317.994 253.058 318.318ZM261.617 322.119C260.907 322.119 260.299 321.979 259.793 321.697C259.288 321.413 258.9 321.018 258.63 320.513C258.36 320.004 258.225 319.415 258.225 318.744C258.225 318.074 258.36 317.486 258.63 316.98C258.9 316.472 259.288 316.077 259.793 315.795C260.299 315.511 260.907 315.369 261.617 315.369C262.259 315.369 262.815 315.486 263.283 315.719C263.755 315.949 264.12 316.276 264.379 316.699C264.637 317.119 264.768 317.614 264.771 318.182H262.589C262.558 317.838 262.458 317.577 262.29 317.398C262.126 317.216 261.913 317.125 261.651 317.125C261.342 317.125 261.093 317.259 260.906 317.526C260.721 317.79 260.629 318.19 260.629 318.727C260.629 319.264 260.721 319.666 260.906 319.933C261.093 320.197 261.342 320.33 261.651 320.33C261.91 320.33 262.124 320.24 262.295 320.061C262.465 319.879 262.563 319.616 262.589 319.273H264.771C264.759 320.139 264.472 320.831 263.91 321.348C263.35 321.862 262.586 322.119 261.617 322.119ZM268.877 322.119C267.829 322.119 267.004 321.822 266.402 321.229C265.802 320.632 265.502 319.804 265.502 318.744C265.502 318.068 265.639 317.477 265.912 316.972C266.184 316.466 266.569 316.072 267.066 315.791C267.564 315.51 268.15 315.369 268.826 315.369C269.485 315.369 270.058 315.504 270.544 315.774C271.032 316.044 271.41 316.43 271.677 316.933C271.947 317.433 272.082 318.031 272.082 318.727V319.273H267.821V319.375C267.821 319.69 267.917 319.952 268.11 320.159C268.306 320.364 268.579 320.466 268.929 320.466C269.17 320.466 269.38 320.416 269.559 320.317C269.741 320.214 269.866 320.071 269.934 319.886H272.082C271.971 320.568 271.636 321.111 271.076 321.514C270.52 321.918 269.787 322.119 268.877 322.119ZM267.821 317.977H269.917C269.912 317.696 269.809 317.467 269.61 317.291C269.414 317.112 269.17 317.023 268.877 317.023C268.591 317.023 268.343 317.111 268.136 317.287C267.931 317.463 267.826 317.693 267.821 317.977Z" fill="black"/>
<path d="M64 247L80 233L96 247" stroke="black" stroke-width="3"/>
<path d="M96 105L80 119L64 105" stroke="black" stroke-width="3"/>
</svg>
