<svg width="576" height="272" viewBox="0 0 576 272" fill="none" xmlns="http://www.w3.org/2000/svg">
<rect width="576" height="272" fill="white"/>
<rect x="1.5" y="1.5" width="573" height="157" stroke="black" stroke-width="3"/>
<rect x="33.5" y="33.5" width="157" height="93" stroke="black" stroke-width="3"/>
<path d="M53.1705 77.8523C53.1326 77.4356 52.964 77.1117 52.6648 76.8807C52.3693 76.6458 51.947 76.5284 51.3977 76.5284C50.8523 76.5284 50.4432 76.6326 50.1705 76.8409C49.8977 77.0455 49.7595 77.3068 49.7557 77.625C49.7443 77.9697 49.8939 78.2405 50.2045 78.4375C50.5152 78.6307 50.9337 78.7841 51.4602 78.8977L52.4602 79.125C53.608 79.3788 54.4867 79.7936 55.0966 80.3693C55.7102 80.9451 56.0189 81.697 56.0227 82.625C56.0189 83.7311 55.6098 84.5947 54.7955 85.2159C53.9811 85.8371 52.8485 86.1477 51.3977 86.1477C49.9356 86.1477 48.7652 85.8182 47.8864 85.1591C47.0114 84.4962 46.5644 83.4848 46.5455 82.125H49.2386C49.2689 82.6856 49.4754 83.1098 49.858 83.3977C50.2405 83.6818 50.7424 83.8239 51.3636 83.8239C51.928 83.8239 52.3693 83.7121 52.6875 83.4886C53.0057 83.2652 53.1667 82.9754 53.1705 82.6193C53.1667 82.2936 53.0152 82.0341 52.7159 81.8409C52.4167 81.6439 51.947 81.4716 51.3068 81.3239L50.0909 81.0398C49.0871 80.8087 48.2936 80.4356 47.7102 79.9205C47.1307 79.4015 46.8428 78.7008 46.8466 77.8182C46.8428 77.0947 47.036 76.4621 47.4261 75.9205C47.8163 75.3788 48.3542 74.9583 49.0398 74.6591C49.7292 74.3561 50.517 74.2045 51.4034 74.2045C52.3049 74.2045 53.0871 74.358 53.75 74.6648C54.4167 74.9678 54.9337 75.3939 55.3011 75.9432C55.6686 76.4886 55.8561 77.125 55.8636 77.8523H53.1705ZM61.5227 86.1648C60.1515 86.1648 59.072 85.7652 58.2841 84.9659C57.5 84.1667 57.108 83.0682 57.108 81.6705C57.108 80.7689 57.286 79.9811 57.642 79.3068C57.9981 78.6288 58.5 78.1023 59.1477 77.7273C59.7955 77.3485 60.5587 77.1591 61.4375 77.1591C62.2633 77.1591 62.9943 77.3314 63.6307 77.6761C64.267 78.017 64.7652 78.5189 65.125 79.1818C65.4848 79.8447 65.6648 80.6553 65.6648 81.6136V82.3068H59.8466V82.3807C59.8466 82.9148 60 83.3447 60.3068 83.6705C60.6174 83.9962 61.0398 84.1591 61.5739 84.1591C61.9375 84.1591 62.2538 84.0833 62.5227 83.9318C62.7917 83.7765 62.9792 83.5549 63.0852 83.267L65.6364 83.3409C65.4773 84.197 65.0379 84.8826 64.3182 85.3977C63.5985 85.9091 62.6667 86.1648 61.5227 86.1648ZM59.8466 80.6932H63.0795C63.0758 80.2462 62.9242 79.8807 62.625 79.5966C62.3295 79.3087 61.9527 79.1648 61.4943 79.1648C61.0322 79.1648 60.6458 79.3106 60.3352 79.6023C60.0284 79.8939 59.8655 80.2576 59.8466 80.6932ZM67.0838 86V77.2727H69.7827V78.8636H69.8736C70.0327 78.2879 70.2921 77.8598 70.652 77.5795C71.0118 77.2955 71.4304 77.1534 71.9077 77.1534C72.1728 77.1534 72.4323 77.1875 72.6861 77.2557V79.6705C72.5535 79.625 72.3793 79.589 72.1634 79.5625C71.9512 79.536 71.7618 79.5227 71.5952 79.5227C71.099 79.5227 70.6861 79.6837 70.3565 80.0057C70.027 80.3239 69.8622 80.7424 69.8622 81.2614V86H67.0838ZM82.5497 77.2727L79.5554 86H76.3736L73.3849 77.2727H76.3111L77.919 83.2841H78.0099L79.6236 77.2727H82.5497ZM83.8026 86V77.2727H86.581V86H83.8026ZM85.1946 76.2557C84.8045 76.2557 84.4692 76.1269 84.1889 75.8693C83.9086 75.608 83.7685 75.2936 83.7685 74.9261C83.7685 74.5587 83.9086 74.2462 84.1889 73.9886C84.4692 73.7311 84.8045 73.6023 85.1946 73.6023C85.5885 73.6023 85.9238 73.7311 86.2003 73.9886C86.4806 74.2462 86.6207 74.5587 86.6207 74.9261C86.6207 75.2936 86.4806 75.608 86.2003 75.8693C85.9238 76.1269 85.5885 76.2557 85.1946 76.2557ZM92.4233 86.1648C91.5028 86.1648 90.7131 85.9754 90.054 85.5966C89.3987 85.214 88.8949 84.6856 88.5426 84.0114C88.1903 83.3333 88.0142 82.5511 88.0142 81.6648C88.0142 80.7708 88.1903 79.9867 88.5426 79.3125C88.8949 78.6345 89.4006 78.1061 90.0597 77.7273C90.7188 77.3485 91.5047 77.1591 92.4176 77.1591C93.2282 77.1591 93.9328 77.3049 94.5312 77.5966C95.1297 77.8883 95.5975 78.3011 95.9347 78.8352C96.2756 79.3655 96.4555 79.9886 96.4744 80.7045H93.8778C93.8248 80.2576 93.6733 79.9072 93.4233 79.6534C93.1771 79.3996 92.8551 79.2727 92.4574 79.2727C91.9725 79.2727 91.5824 79.4754 91.2869 79.8807C90.9915 80.2822 90.8438 80.8674 90.8438 81.6364C90.8438 82.4129 90.9896 83.0038 91.2812 83.4091C91.5767 83.8106 91.9688 84.0114 92.4574 84.0114C92.84 84.0114 93.16 83.8883 93.4176 83.642C93.6752 83.3958 93.8286 83.0417 93.8778 82.5795H96.4744C96.4517 83.2992 96.2737 83.928 95.9403 84.4659C95.607 85.0038 95.1411 85.4223 94.5426 85.7216C93.9479 86.017 93.2415 86.1648 92.4233 86.1648ZM101.976 86.1648C100.605 86.1648 99.5251 85.7652 98.7372 84.9659C97.9531 84.1667 97.5611 83.0682 97.5611 81.6705C97.5611 80.7689 97.7391 79.9811 98.0952 79.3068C98.4512 78.6288 98.9531 78.1023 99.6009 77.7273C100.249 77.3485 101.012 77.1591 101.891 77.1591C102.716 77.1591 103.447 77.3314 104.084 77.6761C104.72 78.017 105.218 78.5189 105.578 79.1818C105.938 79.8447 106.118 80.6553 106.118 81.6136V82.3068H100.3V82.3807C100.3 82.9148 100.453 83.3447 100.76 83.6705C101.071 83.9962 101.493 84.1591 102.027 84.1591C102.391 84.1591 102.707 84.0833 102.976 83.9318C103.245 83.7765 103.432 83.5549 103.538 83.267L106.089 83.3409C105.93 84.197 105.491 84.8826 104.771 85.3977C104.052 85.9091 103.12 86.1648 101.976 86.1648ZM100.3 80.6932H103.533C103.529 80.2462 103.377 79.8807 103.078 79.5966C102.783 79.3087 102.406 79.1648 101.947 79.1648C101.485 79.1648 101.099 79.3106 100.788 79.6023C100.482 79.8939 100.319 80.2576 100.3 80.6932Z" fill="black"/>
<rect x="209.5" y="33.5" width="157" height="93" stroke="black" stroke-width="3"/>
<path d="M229.17 77.8523C229.133 77.4356 228.964 77.1117 228.665 76.8807C228.369 76.6458 227.947 76.5284 227.398 76.5284C226.852 76.5284 226.443 76.6326 226.17 76.8409C225.898 77.0455 225.759 77.3068 225.756 77.625C225.744 77.9697 225.894 78.2405 226.205 78.4375C226.515 78.6307 226.934 78.7841 227.46 78.8977L228.46 79.125C229.608 79.3788 230.487 79.7936 231.097 80.3693C231.71 80.9451 232.019 81.697 232.023 82.625C232.019 83.7311 231.61 84.5947 230.795 85.2159C229.981 85.8371 228.848 86.1477 227.398 86.1477C225.936 86.1477 224.765 85.8182 223.886 85.1591C223.011 84.4962 222.564 83.4848 222.545 82.125H225.239C225.269 82.6856 225.475 83.1098 225.858 83.3977C226.241 83.6818 226.742 83.8239 227.364 83.8239C227.928 83.8239 228.369 83.7121 228.688 83.4886C229.006 83.2652 229.167 82.9754 229.17 82.6193C229.167 82.2936 229.015 82.0341 228.716 81.8409C228.417 81.6439 227.947 81.4716 227.307 81.3239L226.091 81.0398C225.087 80.8087 224.294 80.4356 223.71 79.9205C223.131 79.4015 222.843 78.7008 222.847 77.8182C222.843 77.0947 223.036 76.4621 223.426 75.9205C223.816 75.3788 224.354 74.9583 225.04 74.6591C225.729 74.3561 226.517 74.2045 227.403 74.2045C228.305 74.2045 229.087 74.358 229.75 74.6648C230.417 74.9678 230.934 75.3939 231.301 75.9432C231.669 76.4886 231.856 77.125 231.864 77.8523H229.17ZM237.523 86.1648C236.152 86.1648 235.072 85.7652 234.284 84.9659C233.5 84.1667 233.108 83.0682 233.108 81.6705C233.108 80.7689 233.286 79.9811 233.642 79.3068C233.998 78.6288 234.5 78.1023 235.148 77.7273C235.795 77.3485 236.559 77.1591 237.438 77.1591C238.263 77.1591 238.994 77.3314 239.631 77.6761C240.267 78.017 240.765 78.5189 241.125 79.1818C241.485 79.8447 241.665 80.6553 241.665 81.6136V82.3068H235.847V82.3807C235.847 82.9148 236 83.3447 236.307 83.6705C236.617 83.9962 237.04 84.1591 237.574 84.1591C237.938 84.1591 238.254 84.0833 238.523 83.9318C238.792 83.7765 238.979 83.5549 239.085 83.267L241.636 83.3409C241.477 84.197 241.038 84.8826 240.318 85.3977C239.598 85.9091 238.667 86.1648 237.523 86.1648ZM235.847 80.6932H239.08C239.076 80.2462 238.924 79.8807 238.625 79.5966C238.33 79.3087 237.953 79.1648 237.494 79.1648C237.032 79.1648 236.646 79.3106 236.335 79.6023C236.028 79.8939 235.866 80.2576 235.847 80.6932ZM243.084 86V77.2727H245.783V78.8636H245.874C246.033 78.2879 246.292 77.8598 246.652 77.5795C247.012 77.2955 247.43 77.1534 247.908 77.1534C248.173 77.1534 248.432 77.1875 248.686 77.2557V79.6705C248.554 79.625 248.379 79.589 248.163 79.5625C247.951 79.536 247.762 79.5227 247.595 79.5227C247.099 79.5227 246.686 79.6837 246.357 80.0057C246.027 80.3239 245.862 80.7424 245.862 81.2614V86H243.084ZM258.55 77.2727L255.555 86H252.374L249.385 77.2727H252.311L253.919 83.2841H254.01L255.624 77.2727H258.55ZM259.803 86V77.2727H262.581V86H259.803ZM261.195 76.2557C260.804 76.2557 260.469 76.1269 260.189 75.8693C259.909 75.608 259.768 75.2936 259.768 74.9261C259.768 74.5587 259.909 74.2462 260.189 73.9886C260.469 73.7311 260.804 73.6023 261.195 73.6023C261.589 73.6023 261.924 73.7311 262.2 73.9886C262.481 74.2462 262.621 74.5587 262.621 74.9261C262.621 75.2936 262.481 75.608 262.2 75.8693C261.924 76.1269 261.589 76.2557 261.195 76.2557ZM268.423 86.1648C267.503 86.1648 266.713 85.9754 266.054 85.5966C265.399 85.214 264.895 84.6856 264.543 84.0114C264.19 83.3333 264.014 82.5511 264.014 81.6648C264.014 80.7708 264.19 79.9867 264.543 79.3125C264.895 78.6345 265.401 78.1061 266.06 77.7273C266.719 77.3485 267.505 77.1591 268.418 77.1591C269.228 77.1591 269.933 77.3049 270.531 77.5966C271.13 77.8883 271.598 78.3011 271.935 78.8352C272.276 79.3655 272.455 79.9886 272.474 80.7045H269.878C269.825 80.2576 269.673 79.9072 269.423 79.6534C269.177 79.3996 268.855 79.2727 268.457 79.2727C267.973 79.2727 267.582 79.4754 267.287 79.8807C266.991 80.2822 266.844 80.8674 266.844 81.6364C266.844 82.4129 266.99 83.0038 267.281 83.4091C267.577 83.8106 267.969 84.0114 268.457 84.0114C268.84 84.0114 269.16 83.8883 269.418 83.642C269.675 83.3958 269.829 83.0417 269.878 82.5795H272.474C272.452 83.2992 272.274 83.928 271.94 84.4659C271.607 85.0038 271.141 85.4223 270.543 85.7216C269.948 86.017 269.241 86.1648 268.423 86.1648ZM277.976 86.1648C276.605 86.1648 275.525 85.7652 274.737 84.9659C273.953 84.1667 273.561 83.0682 273.561 81.6705C273.561 80.7689 273.739 79.9811 274.095 79.3068C274.451 78.6288 274.953 78.1023 275.601 77.7273C276.249 77.3485 277.012 77.1591 277.891 77.1591C278.716 77.1591 279.447 77.3314 280.084 77.6761C280.72 78.017 281.218 78.5189 281.578 79.1818C281.938 79.8447 282.118 80.6553 282.118 81.6136V82.3068H276.3V82.3807C276.3 82.9148 276.453 83.3447 276.76 83.6705C277.071 83.9962 277.493 84.1591 278.027 84.1591C278.391 84.1591 278.707 84.0833 278.976 83.9318C279.245 83.7765 279.432 83.5549 279.538 83.267L282.089 83.3409C281.93 84.197 281.491 84.8826 280.771 85.3977C280.052 85.9091 279.12 86.1648 277.976 86.1648ZM276.3 80.6932H279.533C279.529 80.2462 279.377 79.8807 279.078 79.5966C278.783 79.3087 278.406 79.1648 277.947 79.1648C277.485 79.1648 277.099 79.3106 276.788 79.6023C276.482 79.8939 276.319 80.2576 276.3 80.6932Z" fill="black"/>
<rect x="401.5" y="17.5" width="157" height="93" stroke="black" stroke-width="3"/>
<path d="M421.17 61.8523C421.133 61.4356 420.964 61.1117 420.665 60.8807C420.369 60.6458 419.947 60.5284 419.398 60.5284C418.852 60.5284 418.443 60.6326 418.17 60.8409C417.898 61.0455 417.759 61.3068 417.756 61.625C417.744 61.9697 417.894 62.2405 418.205 62.4375C418.515 62.6307 418.934 62.7841 419.46 62.8977L420.46 63.125C421.608 63.3788 422.487 63.7936 423.097 64.3693C423.71 64.9451 424.019 65.697 424.023 66.625C424.019 67.7311 423.61 68.5947 422.795 69.2159C421.981 69.8371 420.848 70.1477 419.398 70.1477C417.936 70.1477 416.765 69.8182 415.886 69.1591C415.011 68.4962 414.564 67.4848 414.545 66.125H417.239C417.269 66.6856 417.475 67.1098 417.858 67.3977C418.241 67.6818 418.742 67.8239 419.364 67.8239C419.928 67.8239 420.369 67.7121 420.688 67.4886C421.006 67.2652 421.167 66.9754 421.17 66.6193C421.167 66.2936 421.015 66.0341 420.716 65.8409C420.417 65.6439 419.947 65.4716 419.307 65.3239L418.091 65.0398C417.087 64.8087 416.294 64.4356 415.71 63.9205C415.131 63.4015 414.843 62.7008 414.847 61.8182C414.843 61.0947 415.036 60.4621 415.426 59.9205C415.816 59.3788 416.354 58.9583 417.04 58.6591C417.729 58.3561 418.517 58.2045 419.403 58.2045C420.305 58.2045 421.087 58.358 421.75 58.6648C422.417 58.9678 422.934 59.3939 423.301 59.9432C423.669 60.4886 423.856 61.125 423.864 61.8523H421.17ZM429.523 70.1648C428.152 70.1648 427.072 69.7652 426.284 68.9659C425.5 68.1667 425.108 67.0682 425.108 65.6705C425.108 64.7689 425.286 63.9811 425.642 63.3068C425.998 62.6288 426.5 62.1023 427.148 61.7273C427.795 61.3485 428.559 61.1591 429.438 61.1591C430.263 61.1591 430.994 61.3314 431.631 61.6761C432.267 62.017 432.765 62.5189 433.125 63.1818C433.485 63.8447 433.665 64.6553 433.665 65.6136V66.3068H427.847V66.3807C427.847 66.9148 428 67.3447 428.307 67.6705C428.617 67.9962 429.04 68.1591 429.574 68.1591C429.938 68.1591 430.254 68.0833 430.523 67.9318C430.792 67.7765 430.979 67.5549 431.085 67.267L433.636 67.3409C433.477 68.197 433.038 68.8826 432.318 69.3977C431.598 69.9091 430.667 70.1648 429.523 70.1648ZM427.847 64.6932H431.08C431.076 64.2462 430.924 63.8807 430.625 63.5966C430.33 63.3087 429.953 63.1648 429.494 63.1648C429.032 63.1648 428.646 63.3106 428.335 63.6023C428.028 63.8939 427.866 64.2576 427.847 64.6932ZM435.084 70V61.2727H437.783V62.8636H437.874C438.033 62.2879 438.292 61.8598 438.652 61.5795C439.012 61.2955 439.43 61.1534 439.908 61.1534C440.173 61.1534 440.432 61.1875 440.686 61.2557V63.6705C440.554 63.625 440.379 63.589 440.163 63.5625C439.951 63.536 439.762 63.5227 439.595 63.5227C439.099 63.5227 438.686 63.6837 438.357 64.0057C438.027 64.3239 437.862 64.7424 437.862 65.2614V70H435.084ZM450.55 61.2727L447.555 70H444.374L441.385 61.2727H444.311L445.919 67.2841H446.01L447.624 61.2727H450.55ZM451.803 70V61.2727H454.581V70H451.803ZM453.195 60.2557C452.804 60.2557 452.469 60.1269 452.189 59.8693C451.909 59.608 451.768 59.2936 451.768 58.9261C451.768 58.5587 451.909 58.2462 452.189 57.9886C452.469 57.7311 452.804 57.6023 453.195 57.6023C453.589 57.6023 453.924 57.7311 454.2 57.9886C454.481 58.2462 454.621 58.5587 454.621 58.9261C454.621 59.2936 454.481 59.608 454.2 59.8693C453.924 60.1269 453.589 60.2557 453.195 60.2557ZM460.423 70.1648C459.503 70.1648 458.713 69.9754 458.054 69.5966C457.399 69.214 456.895 68.6856 456.543 68.0114C456.19 67.3333 456.014 66.5511 456.014 65.6648C456.014 64.7708 456.19 63.9867 456.543 63.3125C456.895 62.6345 457.401 62.1061 458.06 61.7273C458.719 61.3485 459.505 61.1591 460.418 61.1591C461.228 61.1591 461.933 61.3049 462.531 61.5966C463.13 61.8883 463.598 62.3011 463.935 62.8352C464.276 63.3655 464.455 63.9886 464.474 64.7045H461.878C461.825 64.2576 461.673 63.9072 461.423 63.6534C461.177 63.3996 460.855 63.2727 460.457 63.2727C459.973 63.2727 459.582 63.4754 459.287 63.8807C458.991 64.2822 458.844 64.8674 458.844 65.6364C458.844 66.4129 458.99 67.0038 459.281 67.4091C459.577 67.8106 459.969 68.0114 460.457 68.0114C460.84 68.0114 461.16 67.8883 461.418 67.642C461.675 67.3958 461.829 67.0417 461.878 66.5795H464.474C464.452 67.2992 464.274 67.928 463.94 68.4659C463.607 69.0038 463.141 69.4223 462.543 69.7216C461.948 70.017 461.241 70.1648 460.423 70.1648ZM469.976 70.1648C468.605 70.1648 467.525 69.7652 466.737 68.9659C465.953 68.1667 465.561 67.0682 465.561 65.6705C465.561 64.7689 465.739 63.9811 466.095 63.3068C466.451 62.6288 466.953 62.1023 467.601 61.7273C468.249 61.3485 469.012 61.1591 469.891 61.1591C470.716 61.1591 471.447 61.3314 472.084 61.6761C472.72 62.017 473.218 62.5189 473.578 63.1818C473.938 63.8447 474.118 64.6553 474.118 65.6136V66.3068H468.3V66.3807C468.3 66.9148 468.453 67.3447 468.76 67.6705C469.071 67.9962 469.493 68.1591 470.027 68.1591C470.391 68.1591 470.707 68.0833 470.976 67.9318C471.245 67.7765 471.432 67.5549 471.538 67.267L474.089 67.3409C473.93 68.197 473.491 68.8826 472.771 69.3977C472.052 69.9091 471.12 70.1648 469.976 70.1648ZM468.3 64.6932H471.533C471.529 64.2462 471.377 63.8807 471.078 63.5966C470.783 63.3087 470.406 63.1648 469.947 63.1648C469.485 63.1648 469.099 63.3106 468.788 63.6023C468.482 63.8939 468.319 64.2576 468.3 64.6932Z" fill="black"/>
<rect x="17.5" y="17.5" width="365" height="125" stroke="black" stroke-width="3"/>
<rect x="1.5" y="177.5" width="157" height="93" stroke="black" stroke-width="3"/>
<path d="M21.1705 221.852C21.1326 221.436 20.964 221.112 20.6648 220.881C20.3693 220.646 19.947 220.528 19.3977 220.528C18.8523 220.528 18.4432 220.633 18.1705 220.841C17.8977 221.045 17.7595 221.307 17.7557 221.625C17.7443 221.97 17.8939 222.241 18.2045 222.438C18.5152 222.631 18.9337 222.784 19.4602 222.898L20.4602 223.125C21.608 223.379 22.4867 223.794 23.0966 224.369C23.7102 224.945 24.0189 225.697 24.0227 226.625C24.0189 227.731 23.6098 228.595 22.7955 229.216C21.9811 229.837 20.8485 230.148 19.3977 230.148C17.9356 230.148 16.7652 229.818 15.8864 229.159C15.0114 228.496 14.5644 227.485 14.5455 226.125H17.2386C17.2689 226.686 17.4754 227.11 17.858 227.398C18.2405 227.682 18.7424 227.824 19.3636 227.824C19.928 227.824 20.3693 227.712 20.6875 227.489C21.0057 227.265 21.1667 226.975 21.1705 226.619C21.1667 226.294 21.0152 226.034 20.7159 225.841C20.4167 225.644 19.947 225.472 19.3068 225.324L18.0909 225.04C17.0871 224.809 16.2936 224.436 15.7102 223.92C15.1307 223.402 14.8428 222.701 14.8466 221.818C14.8428 221.095 15.036 220.462 15.4261 219.92C15.8163 219.379 16.3542 218.958 17.0398 218.659C17.7292 218.356 18.517 218.205 19.4034 218.205C20.3049 218.205 21.0871 218.358 21.75 218.665C22.4167 218.968 22.9337 219.394 23.3011 219.943C23.6686 220.489 23.8561 221.125 23.8636 221.852H21.1705ZM29.5227 230.165C28.1515 230.165 27.072 229.765 26.2841 228.966C25.5 228.167 25.108 227.068 25.108 225.67C25.108 224.769 25.286 223.981 25.642 223.307C25.9981 222.629 26.5 222.102 27.1477 221.727C27.7955 221.348 28.5587 221.159 29.4375 221.159C30.2633 221.159 30.9943 221.331 31.6307 221.676C32.267 222.017 32.7652 222.519 33.125 223.182C33.4848 223.845 33.6648 224.655 33.6648 225.614V226.307H27.8466V226.381C27.8466 226.915 28 227.345 28.3068 227.67C28.6174 227.996 29.0398 228.159 29.5739 228.159C29.9375 228.159 30.2538 228.083 30.5227 227.932C30.7917 227.777 30.9792 227.555 31.0852 227.267L33.6364 227.341C33.4773 228.197 33.0379 228.883 32.3182 229.398C31.5985 229.909 30.6667 230.165 29.5227 230.165ZM27.8466 224.693H31.0795C31.0758 224.246 30.9242 223.881 30.625 223.597C30.3295 223.309 29.9527 223.165 29.4943 223.165C29.0322 223.165 28.6458 223.311 28.3352 223.602C28.0284 223.894 27.8655 224.258 27.8466 224.693ZM35.0838 230V221.273H37.7827V222.864H37.8736C38.0327 222.288 38.2921 221.86 38.652 221.58C39.0118 221.295 39.4304 221.153 39.9077 221.153C40.1728 221.153 40.4323 221.188 40.6861 221.256V223.67C40.5535 223.625 40.3793 223.589 40.1634 223.562C39.9512 223.536 39.7618 223.523 39.5952 223.523C39.099 223.523 38.6861 223.684 38.3565 224.006C38.027 224.324 37.8622 224.742 37.8622 225.261V230H35.0838ZM50.5497 221.273L47.5554 230H44.3736L41.3849 221.273H44.3111L45.919 227.284H46.0099L47.6236 221.273H50.5497ZM51.8026 230V221.273H54.581V230H51.8026ZM53.1946 220.256C52.8045 220.256 52.4692 220.127 52.1889 219.869C51.9086 219.608 51.7685 219.294 51.7685 218.926C51.7685 218.559 51.9086 218.246 52.1889 217.989C52.4692 217.731 52.8045 217.602 53.1946 217.602C53.5885 217.602 53.9238 217.731 54.2003 217.989C54.4806 218.246 54.6207 218.559 54.6207 218.926C54.6207 219.294 54.4806 219.608 54.2003 219.869C53.9238 220.127 53.5885 220.256 53.1946 220.256ZM60.4233 230.165C59.5028 230.165 58.7131 229.975 58.054 229.597C57.3987 229.214 56.8949 228.686 56.5426 228.011C56.1903 227.333 56.0142 226.551 56.0142 225.665C56.0142 224.771 56.1903 223.987 56.5426 223.312C56.8949 222.634 57.4006 222.106 58.0597 221.727C58.7188 221.348 59.5047 221.159 60.4176 221.159C61.2282 221.159 61.9328 221.305 62.5312 221.597C63.1297 221.888 63.5975 222.301 63.9347 222.835C64.2756 223.366 64.4555 223.989 64.4744 224.705H61.8778C61.8248 224.258 61.6733 223.907 61.4233 223.653C61.1771 223.4 60.8551 223.273 60.4574 223.273C59.9725 223.273 59.5824 223.475 59.2869 223.881C58.9915 224.282 58.8438 224.867 58.8438 225.636C58.8438 226.413 58.9896 227.004 59.2812 227.409C59.5767 227.811 59.9688 228.011 60.4574 228.011C60.84 228.011 61.16 227.888 61.4176 227.642C61.6752 227.396 61.8286 227.042 61.8778 226.58H64.4744C64.4517 227.299 64.2737 227.928 63.9403 228.466C63.607 229.004 63.1411 229.422 62.5426 229.722C61.9479 230.017 61.2415 230.165 60.4233 230.165ZM69.9759 230.165C68.6046 230.165 67.5251 229.765 66.7372 228.966C65.9531 228.167 65.5611 227.068 65.5611 225.67C65.5611 224.769 65.7391 223.981 66.0952 223.307C66.4512 222.629 66.9531 222.102 67.6009 221.727C68.2486 221.348 69.0118 221.159 69.8906 221.159C70.7164 221.159 71.4474 221.331 72.0838 221.676C72.7202 222.017 73.2183 222.519 73.5781 223.182C73.938 223.845 74.1179 224.655 74.1179 225.614V226.307H68.2997V226.381C68.2997 226.915 68.4531 227.345 68.7599 227.67C69.0705 227.996 69.4929 228.159 70.027 228.159C70.3906 228.159 70.7069 228.083 70.9759 227.932C71.2448 227.777 71.4323 227.555 71.5384 227.267L74.0895 227.341C73.9304 228.197 73.491 228.883 72.7713 229.398C72.0516 229.909 71.1198 230.165 69.9759 230.165ZM68.2997 224.693H71.5327C71.5289 224.246 71.3774 223.881 71.0781 223.597C70.7827 223.309 70.4058 223.165 69.9474 223.165C69.4853 223.165 69.099 223.311 68.7884 223.602C68.4815 223.894 68.3187 224.258 68.2997 224.693Z" fill="black"/>
<rect x="177.5" y="177.5" width="157" height="93" stroke="black" stroke-width="3"/>
<path d="M197.17 221.852C197.133 221.436 196.964 221.112 196.665 220.881C196.369 220.646 195.947 220.528 195.398 220.528C194.852 220.528 194.443 220.633 194.17 220.841C193.898 221.045 193.759 221.307 193.756 221.625C193.744 221.97 193.894 222.241 194.205 222.438C194.515 222.631 194.934 222.784 195.46 222.898L196.46 223.125C197.608 223.379 198.487 223.794 199.097 224.369C199.71 224.945 200.019 225.697 200.023 226.625C200.019 227.731 199.61 228.595 198.795 229.216C197.981 229.837 196.848 230.148 195.398 230.148C193.936 230.148 192.765 229.818 191.886 229.159C191.011 228.496 190.564 227.485 190.545 226.125H193.239C193.269 226.686 193.475 227.11 193.858 227.398C194.241 227.682 194.742 227.824 195.364 227.824C195.928 227.824 196.369 227.712 196.688 227.489C197.006 227.265 197.167 226.975 197.17 226.619C197.167 226.294 197.015 226.034 196.716 225.841C196.417 225.644 195.947 225.472 195.307 225.324L194.091 225.04C193.087 224.809 192.294 224.436 191.71 223.92C191.131 223.402 190.843 222.701 190.847 221.818C190.843 221.095 191.036 220.462 191.426 219.92C191.816 219.379 192.354 218.958 193.04 218.659C193.729 218.356 194.517 218.205 195.403 218.205C196.305 218.205 197.087 218.358 197.75 218.665C198.417 218.968 198.934 219.394 199.301 219.943C199.669 220.489 199.856 221.125 199.864 221.852H197.17ZM205.523 230.165C204.152 230.165 203.072 229.765 202.284 228.966C201.5 228.167 201.108 227.068 201.108 225.67C201.108 224.769 201.286 223.981 201.642 223.307C201.998 222.629 202.5 222.102 203.148 221.727C203.795 221.348 204.559 221.159 205.438 221.159C206.263 221.159 206.994 221.331 207.631 221.676C208.267 222.017 208.765 222.519 209.125 223.182C209.485 223.845 209.665 224.655 209.665 225.614V226.307H203.847V226.381C203.847 226.915 204 227.345 204.307 227.67C204.617 227.996 205.04 228.159 205.574 228.159C205.938 228.159 206.254 228.083 206.523 227.932C206.792 227.777 206.979 227.555 207.085 227.267L209.636 227.341C209.477 228.197 209.038 228.883 208.318 229.398C207.598 229.909 206.667 230.165 205.523 230.165ZM203.847 224.693H207.08C207.076 224.246 206.924 223.881 206.625 223.597C206.33 223.309 205.953 223.165 205.494 223.165C205.032 223.165 204.646 223.311 204.335 223.602C204.028 223.894 203.866 224.258 203.847 224.693ZM211.084 230V221.273H213.783V222.864H213.874C214.033 222.288 214.292 221.86 214.652 221.58C215.012 221.295 215.43 221.153 215.908 221.153C216.173 221.153 216.432 221.188 216.686 221.256V223.67C216.554 223.625 216.379 223.589 216.163 223.562C215.951 223.536 215.762 223.523 215.595 223.523C215.099 223.523 214.686 223.684 214.357 224.006C214.027 224.324 213.862 224.742 213.862 225.261V230H211.084ZM226.55 221.273L223.555 230H220.374L217.385 221.273H220.311L221.919 227.284H222.01L223.624 221.273H226.55ZM227.803 230V221.273H230.581V230H227.803ZM229.195 220.256C228.804 220.256 228.469 220.127 228.189 219.869C227.909 219.608 227.768 219.294 227.768 218.926C227.768 218.559 227.909 218.246 228.189 217.989C228.469 217.731 228.804 217.602 229.195 217.602C229.589 217.602 229.924 217.731 230.2 217.989C230.481 218.246 230.621 218.559 230.621 218.926C230.621 219.294 230.481 219.608 230.2 219.869C229.924 220.127 229.589 220.256 229.195 220.256ZM236.423 230.165C235.503 230.165 234.713 229.975 234.054 229.597C233.399 229.214 232.895 228.686 232.543 228.011C232.19 227.333 232.014 226.551 232.014 225.665C232.014 224.771 232.19 223.987 232.543 223.312C232.895 222.634 233.401 222.106 234.06 221.727C234.719 221.348 235.505 221.159 236.418 221.159C237.228 221.159 237.933 221.305 238.531 221.597C239.13 221.888 239.598 222.301 239.935 222.835C240.276 223.366 240.455 223.989 240.474 224.705H237.878C237.825 224.258 237.673 223.907 237.423 223.653C237.177 223.4 236.855 223.273 236.457 223.273C235.973 223.273 235.582 223.475 235.287 223.881C234.991 224.282 234.844 224.867 234.844 225.636C234.844 226.413 234.99 227.004 235.281 227.409C235.577 227.811 235.969 228.011 236.457 228.011C236.84 228.011 237.16 227.888 237.418 227.642C237.675 227.396 237.829 227.042 237.878 226.58H240.474C240.452 227.299 240.274 227.928 239.94 228.466C239.607 229.004 239.141 229.422 238.543 229.722C237.948 230.017 237.241 230.165 236.423 230.165ZM245.976 230.165C244.605 230.165 243.525 229.765 242.737 228.966C241.953 228.167 241.561 227.068 241.561 225.67C241.561 224.769 241.739 223.981 242.095 223.307C242.451 222.629 242.953 222.102 243.601 221.727C244.249 221.348 245.012 221.159 245.891 221.159C246.716 221.159 247.447 221.331 248.084 221.676C248.72 222.017 249.218 222.519 249.578 223.182C249.938 223.845 250.118 224.655 250.118 225.614V226.307H244.3V226.381C244.3 226.915 244.453 227.345 244.76 227.67C245.071 227.996 245.493 228.159 246.027 228.159C246.391 228.159 246.707 228.083 246.976 227.932C247.245 227.777 247.432 227.555 247.538 227.267L250.089 227.341C249.93 228.197 249.491 228.883 248.771 229.398C248.052 229.909 247.12 230.165 245.976 230.165ZM244.3 224.693H247.533C247.529 224.246 247.377 223.881 247.078 223.597C246.783 223.309 246.406 223.165 245.947 223.165C245.485 223.165 245.099 223.311 244.788 223.602C244.482 223.894 244.319 224.258 244.3 224.693Z" fill="black"/>
</svg>
