<svg width="490" height="239" viewBox="0 0 490 239" fill="none" xmlns="http://www.w3.org/2000/svg">
<rect width="490" height="239" fill="white"/>
<path d="M56.5 55.5H186.5V103.5H56.5V55.5Z" fill="#FF0000" stroke="black" stroke-width="3"/>
<path d="M68.8807 86V74.3636H71.6932V83.7159H76.5341V86H68.8807ZM82.0639 86.1648C81.151 86.1648 80.3651 85.9773 79.706 85.6023C79.0469 85.2235 78.5393 84.697 78.1832 84.0227C77.831 83.3447 77.6548 82.5587 77.6548 81.6648C77.6548 80.767 77.831 79.9811 78.1832 79.3068C78.5393 78.6288 79.0469 78.1023 79.706 77.7273C80.3651 77.3485 81.151 77.1591 82.0639 77.1591C82.9806 77.1591 83.7666 77.3485 84.4219 77.7273C85.081 78.1023 85.5866 78.6288 85.9389 79.3068C86.295 79.9811 86.473 80.767 86.473 81.6648C86.473 82.5587 86.295 83.3447 85.9389 84.0227C85.5866 84.697 85.081 85.2235 84.4219 85.6023C83.7666 85.9773 82.9806 86.1648 82.0639 86.1648ZM82.081 84.0682C82.5772 84.0682 82.9616 83.8447 83.2344 83.3977C83.5071 82.9508 83.6435 82.3674 83.6435 81.6477C83.6435 80.9242 83.5071 80.339 83.2344 79.892C82.9616 79.4413 82.5772 79.2159 82.081 79.2159C81.5658 79.2159 81.17 79.4413 80.8935 79.892C80.6207 80.339 80.4844 80.9242 80.4844 81.6477C80.4844 82.3674 80.6207 82.9508 80.8935 83.3977C81.17 83.8447 81.5658 84.0682 82.081 84.0682ZM95.5156 79.9375L92.9645 80.0057C92.9266 79.7292 92.7884 79.5038 92.5497 79.3295C92.3111 79.1515 92.008 79.0625 91.6406 79.0625C91.3187 79.0625 91.044 79.1269 90.8168 79.2557C90.5933 79.3807 90.4834 79.5549 90.4872 79.7784C90.4834 79.9451 90.5516 80.0928 90.6918 80.2216C90.8357 80.3466 91.0914 80.447 91.4588 80.5227L93.1406 80.8409C94.8565 81.1705 95.7202 81.9583 95.7315 83.2045C95.7277 83.803 95.5497 84.3239 95.1974 84.767C94.849 85.2102 94.3717 85.5549 93.7656 85.8011C93.1596 86.0436 92.4664 86.1648 91.6861 86.1648C90.4399 86.1648 89.4569 85.9091 88.7372 85.3977C88.0175 84.8826 87.6084 84.1932 87.5099 83.3295L90.2543 83.2614C90.3149 83.5795 90.4721 83.822 90.7259 83.9886C90.9796 84.1553 91.3035 84.2386 91.6974 84.2386C92.0535 84.2386 92.3433 84.1723 92.5668 84.0398C92.7902 83.9072 92.9039 83.7311 92.9077 83.5114C92.8963 83.1439 92.5421 82.892 91.8452 82.7557L90.3224 82.4659C88.5838 82.1439 87.7202 81.3011 87.7315 79.9375C87.7277 79.0625 88.0743 78.3807 88.7713 77.892C89.4683 77.4034 90.4077 77.1591 91.5895 77.1591C92.7713 77.1591 93.7031 77.4072 94.3849 77.9034C95.0668 78.3958 95.4437 79.0739 95.5156 79.9375ZM104.719 79.9375L102.168 80.0057C102.13 79.7292 101.991 79.5038 101.753 79.3295C101.514 79.1515 101.211 79.0625 100.844 79.0625C100.522 79.0625 100.247 79.1269 100.02 79.2557C99.7964 79.3807 99.6866 79.5549 99.6903 79.7784C99.6866 79.9451 99.7547 80.0928 99.8949 80.2216C100.039 80.3466 100.295 80.447 100.662 80.5227L102.344 80.8409C104.06 81.1705 104.923 81.9583 104.935 83.2045C104.931 83.803 104.753 84.3239 104.401 84.767C104.052 85.2102 103.575 85.5549 102.969 85.8011C102.363 86.0436 101.67 86.1648 100.889 86.1648C99.643 86.1648 98.66 85.9091 97.9403 85.3977C97.2206 84.8826 96.8116 84.1932 96.7131 83.3295L99.4574 83.2614C99.518 83.5795 99.6752 83.822 99.929 83.9886C100.183 84.1553 100.507 84.2386 100.901 84.2386C101.257 84.2386 101.546 84.1723 101.77 84.0398C101.993 83.9072 102.107 83.7311 102.111 83.5114C102.099 83.1439 101.745 82.892 101.048 82.7557L99.5256 82.4659C97.7869 82.1439 96.9233 81.3011 96.9347 79.9375C96.9309 79.0625 97.2775 78.3807 97.9744 77.892C98.6714 77.4034 99.6108 77.1591 100.793 77.1591C101.974 77.1591 102.906 77.4072 103.588 77.9034C104.27 78.3958 104.647 79.0739 104.719 79.9375Z" fill="black"/>
<path d="M56.5 103.5H186.5V202.5H56.5V103.5Z" fill="#1BF1FF" stroke="black" stroke-width="3"/>
<path d="M68.8807 152V140.364H73.6875C74.5587 140.364 75.3106 140.521 75.9432 140.835C76.5795 141.15 77.0701 141.597 77.4148 142.176C77.7595 142.752 77.9318 143.439 77.9318 144.239C77.9318 145.042 77.7557 145.725 77.4034 146.29C77.0511 146.854 76.5549 147.28 75.9148 147.568L78.3295 152H75.2614L73.1364 148.017H71.6932V152H68.8807ZM71.6932 145.801H73.0795C73.7121 145.801 74.1932 145.676 74.5227 145.426C74.8523 145.172 75.017 144.777 75.017 144.239C75.017 143.167 74.3712 142.631 73.0795 142.631H71.6932V145.801ZM83.3821 152.165C82.0109 152.165 80.9313 151.765 80.1435 150.966C79.3594 150.167 78.9673 149.068 78.9673 147.67C78.9673 146.769 79.1454 145.981 79.5014 145.307C79.8575 144.629 80.3594 144.102 81.0071 143.727C81.6548 143.348 82.4181 143.159 83.2969 143.159C84.1226 143.159 84.8537 143.331 85.4901 143.676C86.1264 144.017 86.6245 144.519 86.9844 145.182C87.3442 145.845 87.5241 146.655 87.5241 147.614V148.307H81.706V148.381C81.706 148.915 81.8594 149.345 82.1662 149.67C82.4768 149.996 82.8991 150.159 83.4332 150.159C83.7969 150.159 84.1132 150.083 84.3821 149.932C84.651 149.777 84.8385 149.555 84.9446 149.267L87.4957 149.341C87.3366 150.197 86.8973 150.883 86.1776 151.398C85.4579 151.909 84.526 152.165 83.3821 152.165ZM81.706 146.693H84.9389C84.9351 146.246 84.7836 145.881 84.4844 145.597C84.1889 145.309 83.812 145.165 83.3537 145.165C82.8916 145.165 82.5052 145.311 82.1946 145.602C81.8878 145.894 81.7249 146.258 81.706 146.693ZM96.5625 145.938L94.0114 146.006C93.9735 145.729 93.8352 145.504 93.5966 145.33C93.358 145.152 93.0549 145.062 92.6875 145.062C92.3655 145.062 92.0909 145.127 91.8636 145.256C91.6402 145.381 91.5303 145.555 91.5341 145.778C91.5303 145.945 91.5985 146.093 91.7386 146.222C91.8826 146.347 92.1383 146.447 92.5057 146.523L94.1875 146.841C95.9034 147.17 96.767 147.958 96.7784 149.205C96.7746 149.803 96.5966 150.324 96.2443 150.767C95.8958 151.21 95.4186 151.555 94.8125 151.801C94.2064 152.044 93.5133 152.165 92.733 152.165C91.4867 152.165 90.5038 151.909 89.7841 151.398C89.0644 150.883 88.6553 150.193 88.5568 149.33L91.3011 149.261C91.3617 149.58 91.5189 149.822 91.7727 149.989C92.0265 150.155 92.3504 150.239 92.7443 150.239C93.1004 150.239 93.3902 150.172 93.6136 150.04C93.8371 149.907 93.9508 149.731 93.9545 149.511C93.9432 149.144 93.589 148.892 92.892 148.756L91.3693 148.466C89.6307 148.144 88.767 147.301 88.7784 145.938C88.7746 145.062 89.1212 144.381 89.8182 143.892C90.5152 143.403 91.4545 143.159 92.6364 143.159C93.8182 143.159 94.75 143.407 95.4318 143.903C96.1136 144.396 96.4905 145.074 96.5625 145.938ZM102.22 152.165C101.307 152.165 100.521 151.977 99.8622 151.602C99.2031 151.223 98.6955 150.697 98.3395 150.023C97.9872 149.345 97.8111 148.559 97.8111 147.665C97.8111 146.767 97.9872 145.981 98.3395 145.307C98.6955 144.629 99.2031 144.102 99.8622 143.727C100.521 143.348 101.307 143.159 102.22 143.159C103.137 143.159 103.923 143.348 104.578 143.727C105.237 144.102 105.743 144.629 106.095 145.307C106.451 145.981 106.629 146.767 106.629 147.665C106.629 148.559 106.451 149.345 106.095 150.023C105.743 150.697 105.237 151.223 104.578 151.602C103.923 151.977 103.137 152.165 102.22 152.165ZM102.237 150.068C102.733 150.068 103.118 149.845 103.391 149.398C103.663 148.951 103.8 148.367 103.8 147.648C103.8 146.924 103.663 146.339 103.391 145.892C103.118 145.441 102.733 145.216 102.237 145.216C101.722 145.216 101.326 145.441 101.05 145.892C100.777 146.339 100.641 146.924 100.641 147.648C100.641 148.367 100.777 148.951 101.05 149.398C101.326 149.845 101.722 150.068 102.237 150.068ZM110.831 140.364V152H108.053V140.364H110.831ZM121.065 143.273L118.071 152H114.889L111.901 143.273H114.827L116.435 149.284H116.526L118.139 143.273H121.065ZM125.929 152.165C124.558 152.165 123.478 151.765 122.69 150.966C121.906 150.167 121.514 149.068 121.514 147.67C121.514 146.769 121.692 145.981 122.048 145.307C122.404 144.629 122.906 144.102 123.554 143.727C124.202 143.348 124.965 143.159 125.844 143.159C126.67 143.159 127.401 143.331 128.037 143.676C128.673 144.017 129.171 144.519 129.531 145.182C129.891 145.845 130.071 146.655 130.071 147.614V148.307H124.253V148.381C124.253 148.915 124.406 149.345 124.713 149.67C125.024 149.996 125.446 150.159 125.98 150.159C126.344 150.159 126.66 150.083 126.929 149.932C127.198 149.777 127.385 149.555 127.491 149.267L130.043 149.341C129.884 150.197 129.444 150.883 128.724 151.398C128.005 151.909 127.073 152.165 125.929 152.165ZM124.253 146.693H127.486C127.482 146.246 127.33 145.881 127.031 145.597C126.736 145.309 126.359 145.165 125.901 145.165C125.438 145.165 125.052 145.311 124.741 145.602C124.435 145.894 124.272 146.258 124.253 146.693ZM134.678 152.125C134.037 152.125 133.452 151.958 132.922 151.625C132.395 151.288 131.975 150.788 131.661 150.125C131.346 149.462 131.189 148.634 131.189 147.642C131.189 146.616 131.352 145.773 131.678 145.114C132.003 144.451 132.431 143.96 132.962 143.642C133.492 143.32 134.06 143.159 134.666 143.159C135.356 143.159 135.897 143.328 136.291 143.665C136.689 143.998 136.969 144.366 137.132 144.767H137.189V140.364H139.967V152H137.217V150.585H137.132C136.958 150.987 136.67 151.345 136.268 151.659C135.867 151.97 135.337 152.125 134.678 152.125ZM135.643 149.96C136.151 149.96 136.545 149.75 136.825 149.33C137.109 148.909 137.251 148.345 137.251 147.636C137.251 146.924 137.109 146.362 136.825 145.949C136.545 145.536 136.151 145.33 135.643 145.33C135.128 145.33 134.732 145.54 134.456 145.96C134.179 146.377 134.041 146.936 134.041 147.636C134.041 148.341 134.179 148.905 134.456 149.33C134.732 149.75 135.128 149.96 135.643 149.96ZM71.6591 165.023V170H68.8807V161.273H71.5227V162.875H71.6193C71.8125 162.345 72.142 161.926 72.608 161.619C73.0739 161.312 73.6288 161.159 74.2727 161.159C74.8864 161.159 75.4186 161.295 75.8693 161.568C76.3239 161.841 76.6761 162.223 76.9261 162.716C77.1799 163.208 77.3049 163.782 77.3011 164.438V170H74.5227V164.983C74.5265 164.498 74.4034 164.119 74.1534 163.847C73.9072 163.574 73.5644 163.438 73.125 163.438C72.6856 163.438 72.3314 163.578 72.0625 163.858C71.7973 164.138 71.6629 164.527 71.6591 165.023ZM83.1009 170.165C81.7296 170.165 80.6501 169.765 79.8622 168.966C79.0781 168.167 78.6861 167.068 78.6861 165.67C78.6861 164.769 78.8641 163.981 79.2202 163.307C79.5762 162.629 80.0781 162.102 80.7259 161.727C81.3736 161.348 82.1368 161.159 83.0156 161.159C83.8414 161.159 84.5724 161.331 85.2088 161.676C85.8452 162.017 86.3433 162.519 86.7031 163.182C87.063 163.845 87.2429 164.655 87.2429 165.614V166.307H81.4247V166.381C81.4247 166.915 81.5781 167.345 81.8849 167.67C82.1955 167.996 82.6179 168.159 83.152 168.159C83.5156 168.159 83.8319 168.083 84.1009 167.932C84.3698 167.777 84.5573 167.555 84.6634 167.267L87.2145 167.341C87.0554 168.197 86.616 168.883 85.8963 169.398C85.1766 169.909 84.2448 170.165 83.1009 170.165ZM81.4247 164.693H84.6577C84.6539 164.246 84.5024 163.881 84.2031 163.597C83.9077 163.309 83.5308 163.165 83.0724 163.165C82.6103 163.165 82.224 163.311 81.9134 163.602C81.6065 163.894 81.4437 164.258 81.4247 164.693ZM92.7415 170.165C91.3703 170.165 90.2907 169.765 89.5028 168.966C88.7188 168.167 88.3267 167.068 88.3267 165.67C88.3267 164.769 88.5047 163.981 88.8608 163.307C89.2169 162.629 89.7188 162.102 90.3665 161.727C91.0142 161.348 91.7775 161.159 92.6562 161.159C93.482 161.159 94.2131 161.331 94.8494 161.676C95.4858 162.017 95.9839 162.519 96.3438 163.182C96.7036 163.845 96.8835 164.655 96.8835 165.614V166.307H91.0653V166.381C91.0653 166.915 91.2188 167.345 91.5256 167.67C91.8362 167.996 92.2585 168.159 92.7926 168.159C93.1563 168.159 93.4725 168.083 93.7415 167.932C94.0104 167.777 94.1979 167.555 94.304 167.267L96.8551 167.341C96.696 168.197 96.2566 168.883 95.5369 169.398C94.8172 169.909 93.8854 170.165 92.7415 170.165ZM91.0653 164.693H94.2983C94.2945 164.246 94.143 163.881 93.8438 163.597C93.5483 163.309 93.1714 163.165 92.7131 163.165C92.2509 163.165 91.8646 163.311 91.554 163.602C91.2472 163.894 91.0843 164.258 91.0653 164.693ZM101.49 170.125C100.85 170.125 100.265 169.958 99.7344 169.625C99.2079 169.288 98.7874 168.788 98.473 168.125C98.1586 167.462 98.0014 166.634 98.0014 165.642C98.0014 164.616 98.1643 163.773 98.4901 163.114C98.8158 162.451 99.2438 161.96 99.7741 161.642C100.304 161.32 100.873 161.159 101.479 161.159C102.168 161.159 102.71 161.328 103.104 161.665C103.501 161.998 103.782 162.366 103.945 162.767H104.001V158.364H106.78V170H104.03V168.585H103.945C103.77 168.987 103.482 169.345 103.081 169.659C102.679 169.97 102.149 170.125 101.49 170.125ZM102.456 167.96C102.964 167.96 103.357 167.75 103.638 167.33C103.922 166.909 104.064 166.345 104.064 165.636C104.064 164.924 103.922 164.362 103.638 163.949C103.357 163.536 102.964 163.33 102.456 163.33C101.941 163.33 101.545 163.54 101.268 163.96C100.992 164.377 100.854 164.936 100.854 165.636C100.854 166.341 100.992 166.905 101.268 167.33C101.545 167.75 101.941 167.96 102.456 167.96ZM116.156 163.938L113.605 164.006C113.567 163.729 113.429 163.504 113.19 163.33C112.952 163.152 112.649 163.062 112.281 163.062C111.959 163.062 111.685 163.127 111.457 163.256C111.234 163.381 111.124 163.555 111.128 163.778C111.124 163.945 111.192 164.093 111.332 164.222C111.476 164.347 111.732 164.447 112.099 164.523L113.781 164.841C115.497 165.17 116.361 165.958 116.372 167.205C116.368 167.803 116.19 168.324 115.838 168.767C115.49 169.21 115.012 169.555 114.406 169.801C113.8 170.044 113.107 170.165 112.327 170.165C111.08 170.165 110.098 169.909 109.378 169.398C108.658 168.883 108.249 168.193 108.151 167.33L110.895 167.261C110.955 167.58 111.113 167.822 111.366 167.989C111.62 168.155 111.944 168.239 112.338 168.239C112.694 168.239 112.984 168.172 113.207 168.04C113.431 167.907 113.545 167.731 113.548 167.511C113.537 167.144 113.183 166.892 112.486 166.756L110.963 166.466C109.224 166.144 108.361 165.301 108.372 163.938C108.368 163.062 108.715 162.381 109.412 161.892C110.109 161.403 111.048 161.159 112.23 161.159C113.412 161.159 114.344 161.407 115.026 161.903C115.707 162.396 116.084 163.074 116.156 163.938Z" fill="black"/>
<path d="M56.5 202.5H186.5V237.5H56.5V202.5Z" fill="#FAFF00" stroke="black" stroke-width="3"/>
<path d="M79.8636 220.182C79.8636 221.462 79.6174 222.547 79.125 223.438C78.6326 224.328 77.9659 225.004 77.125 225.466C76.2879 225.928 75.3485 226.159 74.3068 226.159C73.2614 226.159 72.3182 225.928 71.4773 225.466C70.6402 225 69.9773 224.322 69.4886 223.432C69 222.542 68.7557 221.458 68.7557 220.182C68.7557 218.898 69 217.812 69.4886 216.926C69.9773 216.036 70.6402 215.36 71.4773 214.898C72.3182 214.436 73.2614 214.205 74.3068 214.205C75.3485 214.205 76.2879 214.436 77.125 214.898C77.9659 215.36 78.6326 216.036 79.125 216.926C79.6174 217.812 79.8636 218.898 79.8636 220.182ZM76.9886 220.182C76.9886 219.042 76.7519 218.172 76.2784 217.574C75.8049 216.972 75.1477 216.67 74.3068 216.67C73.4697 216.67 72.8125 216.972 72.3352 217.574C71.8617 218.172 71.625 219.042 71.625 220.182C71.625 221.322 71.8617 222.193 72.3352 222.795C72.8125 223.394 73.4697 223.693 74.3068 223.693C75.1477 223.693 75.8049 223.394 76.2784 222.795C76.7519 222.193 76.9886 221.322 76.9886 220.182ZM89.9716 217.273L86.9773 226H83.7955L80.8068 217.273H83.733L85.3409 223.284H85.4318L87.0455 217.273H89.9716ZM94.8352 226.165C93.464 226.165 92.3845 225.765 91.5966 224.966C90.8125 224.167 90.4205 223.068 90.4205 221.67C90.4205 220.769 90.5985 219.981 90.9545 219.307C91.3106 218.629 91.8125 218.102 92.4602 217.727C93.108 217.348 93.8712 217.159 94.75 217.159C95.5758 217.159 96.3068 217.331 96.9432 217.676C97.5795 218.017 98.0777 218.519 98.4375 219.182C98.7973 219.845 98.9773 220.655 98.9773 221.614V222.307H93.1591V222.381C93.1591 222.915 93.3125 223.345 93.6193 223.67C93.9299 223.996 94.3523 224.159 94.8864 224.159C95.25 224.159 95.5663 224.083 95.8352 223.932C96.1042 223.777 96.2917 223.555 96.3977 223.267L98.9489 223.341C98.7898 224.197 98.3504 224.883 97.6307 225.398C96.911 225.909 95.9792 226.165 94.8352 226.165ZM93.1591 220.693H96.392C96.3883 220.246 96.2367 219.881 95.9375 219.597C95.642 219.309 95.2652 219.165 94.8068 219.165C94.3447 219.165 93.9583 219.311 93.6477 219.602C93.3409 219.894 93.178 220.258 93.1591 220.693ZM100.396 226V217.273H103.095V218.864H103.186C103.345 218.288 103.605 217.86 103.964 217.58C104.324 217.295 104.743 217.153 105.22 217.153C105.451 217.153 105.671 217.182 105.879 217.239C106.088 217.295 106.275 217.373 106.442 217.472L105.624 219.756C105.502 219.699 105.372 219.65 105.232 219.608C105.095 219.562 104.944 219.54 104.777 219.54C104.341 219.54 103.966 219.697 103.652 220.011C103.338 220.326 103.179 220.742 103.175 221.261V226H100.396ZM110.284 221.023V226H107.506V214.364H110.193V218.875H110.29C110.487 218.337 110.809 217.917 111.256 217.614C111.706 217.311 112.258 217.159 112.909 217.159C113.826 217.159 114.561 217.458 115.114 218.057C115.67 218.655 115.947 219.449 115.943 220.438V226H113.165V220.983C113.169 220.498 113.047 220.119 112.801 219.847C112.555 219.574 112.208 219.438 111.761 219.438C111.322 219.438 110.966 219.578 110.693 219.858C110.424 220.138 110.288 220.527 110.284 221.023ZM121.757 226.165C120.386 226.165 119.306 225.765 118.518 224.966C117.734 224.167 117.342 223.068 117.342 221.67C117.342 220.769 117.52 219.981 117.876 219.307C118.232 218.629 118.734 218.102 119.382 217.727C120.03 217.348 120.793 217.159 121.672 217.159C122.498 217.159 123.229 217.331 123.865 217.676C124.501 218.017 125 218.519 125.359 219.182C125.719 219.845 125.899 220.655 125.899 221.614V222.307H120.081V222.381C120.081 222.915 120.234 223.345 120.541 223.67C120.852 223.996 121.274 224.159 121.808 224.159C122.172 224.159 122.488 224.083 122.757 223.932C123.026 223.777 123.214 223.555 123.32 223.267L125.871 223.341C125.712 224.197 125.272 224.883 124.553 225.398C123.833 225.909 122.901 226.165 121.757 226.165ZM120.081 220.693H123.314C123.31 220.246 123.159 219.881 122.859 219.597C122.564 219.309 122.187 219.165 121.729 219.165C121.267 219.165 120.88 219.311 120.57 219.602C120.263 219.894 120.1 220.258 120.081 220.693ZM129.778 226.148C128.945 226.148 128.258 225.936 127.716 225.511C127.178 225.087 126.909 224.443 126.909 223.58C126.909 222.936 127.057 222.424 127.352 222.045C127.648 221.663 128.042 221.381 128.534 221.199C129.027 221.013 129.566 220.896 130.153 220.847C130.9 220.782 131.43 220.703 131.744 220.608C132.063 220.513 132.222 220.333 132.222 220.068V220.04C132.222 219.748 132.121 219.523 131.92 219.364C131.72 219.205 131.449 219.125 131.108 219.125C130.741 219.125 130.445 219.205 130.222 219.364C129.998 219.523 129.856 219.742 129.795 220.023L127.233 219.932C127.343 219.136 127.725 218.475 128.381 217.949C129.04 217.422 129.956 217.159 131.131 217.159C131.873 217.159 132.534 217.275 133.114 217.506C133.697 217.733 134.155 218.062 134.489 218.494C134.826 218.926 134.994 219.451 134.994 220.068V226H132.381V224.784H132.312C131.828 225.693 130.983 226.148 129.778 226.148ZM130.636 224.33C131.08 224.33 131.456 224.197 131.767 223.932C132.081 223.667 132.239 223.322 132.239 222.898V222.068C132.083 222.152 131.864 222.222 131.58 222.278C131.299 222.335 131.03 222.383 130.773 222.42C129.951 222.545 129.54 222.886 129.54 223.443C129.54 223.731 129.642 223.951 129.847 224.102C130.051 224.254 130.314 224.33 130.636 224.33ZM139.881 226.125C139.241 226.125 138.655 225.958 138.125 225.625C137.598 225.288 137.178 224.788 136.864 224.125C136.549 223.462 136.392 222.634 136.392 221.642C136.392 220.616 136.555 219.773 136.881 219.114C137.206 218.451 137.634 217.96 138.165 217.642C138.695 217.32 139.263 217.159 139.869 217.159C140.559 217.159 141.1 217.328 141.494 217.665C141.892 217.998 142.172 218.366 142.335 218.767H142.392V214.364H145.17V226H142.42V224.585H142.335C142.161 224.987 141.873 225.345 141.472 225.659C141.07 225.97 140.54 226.125 139.881 226.125ZM140.847 223.96C141.354 223.96 141.748 223.75 142.028 223.33C142.313 222.909 142.455 222.345 142.455 221.636C142.455 220.924 142.313 220.362 142.028 219.949C141.748 219.536 141.354 219.33 140.847 219.33C140.331 219.33 139.936 219.54 139.659 219.96C139.383 220.377 139.244 220.936 139.244 221.636C139.244 222.341 139.383 222.905 139.659 223.33C139.936 223.75 140.331 223.96 140.847 223.96Z" fill="black"/>
<path d="M207.5 37.5H337.5V64.5H207.5V37.5Z" fill="#FF0000" stroke="black" stroke-width="3"/>
<path d="M219.881 57V45.3636H222.693V54.7159H227.534V57H219.881ZM233.064 57.1648C232.151 57.1648 231.365 56.9773 230.706 56.6023C230.047 56.2235 229.539 55.697 229.183 55.0227C228.831 54.3447 228.655 53.5587 228.655 52.6648C228.655 51.767 228.831 50.9811 229.183 50.3068C229.539 49.6288 230.047 49.1023 230.706 48.7273C231.365 48.3485 232.151 48.1591 233.064 48.1591C233.981 48.1591 234.767 48.3485 235.422 48.7273C236.081 49.1023 236.587 49.6288 236.939 50.3068C237.295 50.9811 237.473 51.767 237.473 52.6648C237.473 53.5587 237.295 54.3447 236.939 55.0227C236.587 55.697 236.081 56.2235 235.422 56.6023C234.767 56.9773 233.981 57.1648 233.064 57.1648ZM233.081 55.0682C233.577 55.0682 233.962 54.8447 234.234 54.3977C234.507 53.9508 234.643 53.3674 234.643 52.6477C234.643 51.9242 234.507 51.339 234.234 50.892C233.962 50.4413 233.577 50.2159 233.081 50.2159C232.566 50.2159 232.17 50.4413 231.893 50.892C231.621 51.339 231.484 51.9242 231.484 52.6477C231.484 53.3674 231.621 53.9508 231.893 54.3977C232.17 54.8447 232.566 55.0682 233.081 55.0682ZM246.516 50.9375L243.964 51.0057C243.927 50.7292 243.788 50.5038 243.55 50.3295C243.311 50.1515 243.008 50.0625 242.641 50.0625C242.319 50.0625 242.044 50.1269 241.817 50.2557C241.593 50.3807 241.483 50.5549 241.487 50.7784C241.483 50.9451 241.552 51.0928 241.692 51.2216C241.836 51.3466 242.091 51.447 242.459 51.5227L244.141 51.8409C245.857 52.1705 246.72 52.9583 246.732 54.2045C246.728 54.803 246.55 55.3239 246.197 55.767C245.849 56.2102 245.372 56.5549 244.766 56.8011C244.16 57.0436 243.466 57.1648 242.686 57.1648C241.44 57.1648 240.457 56.9091 239.737 56.3977C239.018 55.8826 238.608 55.1932 238.51 54.3295L241.254 54.2614C241.315 54.5795 241.472 54.822 241.726 54.9886C241.98 55.1553 242.304 55.2386 242.697 55.2386C243.054 55.2386 243.343 55.1723 243.567 55.0398C243.79 54.9072 243.904 54.7311 243.908 54.5114C243.896 54.1439 243.542 53.892 242.845 53.7557L241.322 53.4659C239.584 53.1439 238.72 52.3011 238.732 50.9375C238.728 50.0625 239.074 49.3807 239.771 48.892C240.468 48.4034 241.408 48.1591 242.589 48.1591C243.771 48.1591 244.703 48.4072 245.385 48.9034C246.067 49.3958 246.444 50.0739 246.516 50.9375ZM255.719 50.9375L253.168 51.0057C253.13 50.7292 252.991 50.5038 252.753 50.3295C252.514 50.1515 252.211 50.0625 251.844 50.0625C251.522 50.0625 251.247 50.1269 251.02 50.2557C250.796 50.3807 250.687 50.5549 250.69 50.7784C250.687 50.9451 250.755 51.0928 250.895 51.2216C251.039 51.3466 251.295 51.447 251.662 51.5227L253.344 51.8409C255.06 52.1705 255.923 52.9583 255.935 54.2045C255.931 54.803 255.753 55.3239 255.401 55.767C255.052 56.2102 254.575 56.5549 253.969 56.8011C253.363 57.0436 252.67 57.1648 251.889 57.1648C250.643 57.1648 249.66 56.9091 248.94 56.3977C248.221 55.8826 247.812 55.1932 247.713 54.3295L250.457 54.2614C250.518 54.5795 250.675 54.822 250.929 54.9886C251.183 55.1553 251.507 55.2386 251.901 55.2386C252.257 55.2386 252.546 55.1723 252.77 55.0398C252.993 54.9072 253.107 54.7311 253.111 54.5114C253.099 54.1439 252.745 53.892 252.048 53.7557L250.526 53.4659C248.787 53.1439 247.923 52.3011 247.935 50.9375C247.931 50.0625 248.277 49.3807 248.974 48.892C249.671 48.4034 250.611 48.1591 251.793 48.1591C252.974 48.1591 253.906 48.4072 254.588 48.9034C255.27 49.3958 255.647 50.0739 255.719 50.9375Z" fill="black"/>
<path d="M207.5 64.5H337.5V141.5H207.5V64.5Z" fill="#1BF1FF" stroke="black" stroke-width="3"/>
<path d="M219.881 99V87.3636H224.688C225.559 87.3636 226.311 87.5208 226.943 87.8352C227.58 88.1496 228.07 88.5966 228.415 89.1761C228.759 89.7519 228.932 90.4394 228.932 91.2386C228.932 92.0417 228.756 92.7254 228.403 93.2898C228.051 93.8542 227.555 94.2803 226.915 94.5682L229.33 99H226.261L224.136 95.017H222.693V99H219.881ZM222.693 92.8011H224.08C224.712 92.8011 225.193 92.6761 225.523 92.4261C225.852 92.1723 226.017 91.7765 226.017 91.2386C226.017 90.1667 225.371 89.6307 224.08 89.6307H222.693V92.8011ZM234.382 99.1648C233.011 99.1648 231.931 98.7652 231.143 97.9659C230.359 97.1667 229.967 96.0682 229.967 94.6705C229.967 93.7689 230.145 92.9811 230.501 92.3068C230.857 91.6288 231.359 91.1023 232.007 90.7273C232.655 90.3485 233.418 90.1591 234.297 90.1591C235.123 90.1591 235.854 90.3314 236.49 90.6761C237.126 91.017 237.625 91.5189 237.984 92.1818C238.344 92.8447 238.524 93.6553 238.524 94.6136V95.3068H232.706V95.3807C232.706 95.9148 232.859 96.3447 233.166 96.6705C233.477 96.9962 233.899 97.1591 234.433 97.1591C234.797 97.1591 235.113 97.0833 235.382 96.9318C235.651 96.7765 235.839 96.5549 235.945 96.267L238.496 96.3409C238.337 97.197 237.897 97.8826 237.178 98.3977C236.458 98.9091 235.526 99.1648 234.382 99.1648ZM232.706 93.6932H235.939C235.935 93.2462 235.784 92.8807 235.484 92.5966C235.189 92.3087 234.812 92.1648 234.354 92.1648C233.892 92.1648 233.505 92.3106 233.195 92.6023C232.888 92.8939 232.725 93.2576 232.706 93.6932ZM247.562 92.9375L245.011 93.0057C244.973 92.7292 244.835 92.5038 244.597 92.3295C244.358 92.1515 244.055 92.0625 243.688 92.0625C243.366 92.0625 243.091 92.1269 242.864 92.2557C242.64 92.3807 242.53 92.5549 242.534 92.7784C242.53 92.9451 242.598 93.0928 242.739 93.2216C242.883 93.3466 243.138 93.447 243.506 93.5227L245.188 93.8409C246.903 94.1705 247.767 94.9583 247.778 96.2045C247.775 96.803 247.597 97.3239 247.244 97.767C246.896 98.2102 246.419 98.5549 245.812 98.8011C245.206 99.0436 244.513 99.1648 243.733 99.1648C242.487 99.1648 241.504 98.9091 240.784 98.3977C240.064 97.8826 239.655 97.1932 239.557 96.3295L242.301 96.2614C242.362 96.5795 242.519 96.822 242.773 96.9886C243.027 97.1553 243.35 97.2386 243.744 97.2386C244.1 97.2386 244.39 97.1723 244.614 97.0398C244.837 96.9072 244.951 96.7311 244.955 96.5114C244.943 96.1439 244.589 95.892 243.892 95.7557L242.369 95.4659C240.631 95.1439 239.767 94.3011 239.778 92.9375C239.775 92.0625 240.121 91.3807 240.818 90.892C241.515 90.4034 242.455 90.1591 243.636 90.1591C244.818 90.1591 245.75 90.4072 246.432 90.9034C247.114 91.3958 247.491 92.0739 247.562 92.9375ZM253.22 99.1648C252.307 99.1648 251.521 98.9773 250.862 98.6023C250.203 98.2235 249.696 97.697 249.339 97.0227C248.987 96.3447 248.811 95.5587 248.811 94.6648C248.811 93.767 248.987 92.9811 249.339 92.3068C249.696 91.6288 250.203 91.1023 250.862 90.7273C251.521 90.3485 252.307 90.1591 253.22 90.1591C254.137 90.1591 254.923 90.3485 255.578 90.7273C256.237 91.1023 256.743 91.6288 257.095 92.3068C257.451 92.9811 257.629 93.767 257.629 94.6648C257.629 95.5587 257.451 96.3447 257.095 97.0227C256.743 97.697 256.237 98.2235 255.578 98.6023C254.923 98.9773 254.137 99.1648 253.22 99.1648ZM253.237 97.0682C253.733 97.0682 254.118 96.8447 254.391 96.3977C254.663 95.9508 254.8 95.3674 254.8 94.6477C254.8 93.9242 254.663 93.339 254.391 92.892C254.118 92.4413 253.733 92.2159 253.237 92.2159C252.722 92.2159 252.326 92.4413 252.05 92.892C251.777 93.339 251.641 93.9242 251.641 94.6477C251.641 95.3674 251.777 95.9508 252.05 96.3977C252.326 96.8447 252.722 97.0682 253.237 97.0682ZM261.831 87.3636V99H259.053V87.3636H261.831ZM272.065 90.2727L269.071 99H265.889L262.901 90.2727H265.827L267.435 96.2841H267.526L269.139 90.2727H272.065ZM276.929 99.1648C275.558 99.1648 274.478 98.7652 273.69 97.9659C272.906 97.1667 272.514 96.0682 272.514 94.6705C272.514 93.7689 272.692 92.9811 273.048 92.3068C273.404 91.6288 273.906 91.1023 274.554 90.7273C275.202 90.3485 275.965 90.1591 276.844 90.1591C277.67 90.1591 278.401 90.3314 279.037 90.6761C279.673 91.017 280.171 91.5189 280.531 92.1818C280.891 92.8447 281.071 93.6553 281.071 94.6136V95.3068H275.253V95.3807C275.253 95.9148 275.406 96.3447 275.713 96.6705C276.024 96.9962 276.446 97.1591 276.98 97.1591C277.344 97.1591 277.66 97.0833 277.929 96.9318C278.198 96.7765 278.385 96.5549 278.491 96.267L281.043 96.3409C280.884 97.197 280.444 97.8826 279.724 98.3977C279.005 98.9091 278.073 99.1648 276.929 99.1648ZM275.253 93.6932H278.486C278.482 93.2462 278.33 92.8807 278.031 92.5966C277.736 92.3087 277.359 92.1648 276.901 92.1648C276.438 92.1648 276.052 92.3106 275.741 92.6023C275.435 92.8939 275.272 93.2576 275.253 93.6932ZM285.678 99.125C285.037 99.125 284.452 98.9583 283.922 98.625C283.395 98.2879 282.975 97.7879 282.661 97.125C282.346 96.4621 282.189 95.6345 282.189 94.642C282.189 93.6155 282.352 92.7727 282.678 92.1136C283.003 91.4508 283.431 90.9602 283.962 90.642C284.492 90.3201 285.06 90.1591 285.666 90.1591C286.356 90.1591 286.897 90.3277 287.291 90.6648C287.689 90.9981 287.969 91.3655 288.132 91.767H288.189V87.3636H290.967V99H288.217V97.5852H288.132C287.958 97.9867 287.67 98.3447 287.268 98.6591C286.867 98.9697 286.337 99.125 285.678 99.125ZM286.643 96.9602C287.151 96.9602 287.545 96.75 287.825 96.3295C288.109 95.9091 288.251 95.3447 288.251 94.6364C288.251 93.9242 288.109 93.3617 287.825 92.9489C287.545 92.536 287.151 92.3295 286.643 92.3295C286.128 92.3295 285.732 92.5398 285.456 92.9602C285.179 93.3769 285.041 93.9356 285.041 94.6364C285.041 95.3409 285.179 95.9053 285.456 96.3295C285.732 96.75 286.128 96.9602 286.643 96.9602ZM222.659 112.023V117H219.881V108.273H222.523V109.875H222.619C222.813 109.345 223.142 108.926 223.608 108.619C224.074 108.312 224.629 108.159 225.273 108.159C225.886 108.159 226.419 108.295 226.869 108.568C227.324 108.841 227.676 109.223 227.926 109.716C228.18 110.208 228.305 110.782 228.301 111.438V117H225.523V111.983C225.527 111.498 225.403 111.119 225.153 110.847C224.907 110.574 224.564 110.438 224.125 110.438C223.686 110.438 223.331 110.578 223.062 110.858C222.797 111.138 222.663 111.527 222.659 112.023ZM234.101 117.165C232.73 117.165 231.65 116.765 230.862 115.966C230.078 115.167 229.686 114.068 229.686 112.67C229.686 111.769 229.864 110.981 230.22 110.307C230.576 109.629 231.078 109.102 231.726 108.727C232.374 108.348 233.137 108.159 234.016 108.159C234.841 108.159 235.572 108.331 236.209 108.676C236.845 109.017 237.343 109.519 237.703 110.182C238.063 110.845 238.243 111.655 238.243 112.614V113.307H232.425V113.381C232.425 113.915 232.578 114.345 232.885 114.67C233.196 114.996 233.618 115.159 234.152 115.159C234.516 115.159 234.832 115.083 235.101 114.932C235.37 114.777 235.557 114.555 235.663 114.267L238.214 114.341C238.055 115.197 237.616 115.883 236.896 116.398C236.177 116.909 235.245 117.165 234.101 117.165ZM232.425 111.693H235.658C235.654 111.246 235.502 110.881 235.203 110.597C234.908 110.309 234.531 110.165 234.072 110.165C233.61 110.165 233.224 110.311 232.913 110.602C232.607 110.894 232.444 111.258 232.425 111.693ZM243.741 117.165C242.37 117.165 241.291 116.765 240.503 115.966C239.719 115.167 239.327 114.068 239.327 112.67C239.327 111.769 239.505 110.981 239.861 110.307C240.217 109.629 240.719 109.102 241.366 108.727C242.014 108.348 242.777 108.159 243.656 108.159C244.482 108.159 245.213 108.331 245.849 108.676C246.486 109.017 246.984 109.519 247.344 110.182C247.704 110.845 247.884 111.655 247.884 112.614V113.307H242.065V113.381C242.065 113.915 242.219 114.345 242.526 114.67C242.836 114.996 243.259 115.159 243.793 115.159C244.156 115.159 244.473 115.083 244.741 114.932C245.01 114.777 245.198 114.555 245.304 114.267L247.855 114.341C247.696 115.197 247.257 115.883 246.537 116.398C245.817 116.909 244.885 117.165 243.741 117.165ZM242.065 111.693H245.298C245.295 111.246 245.143 110.881 244.844 110.597C244.548 110.309 244.171 110.165 243.713 110.165C243.251 110.165 242.865 110.311 242.554 110.602C242.247 110.894 242.084 111.258 242.065 111.693ZM252.49 117.125C251.85 117.125 251.265 116.958 250.734 116.625C250.208 116.288 249.787 115.788 249.473 115.125C249.159 114.462 249.001 113.634 249.001 112.642C249.001 111.616 249.164 110.773 249.49 110.114C249.816 109.451 250.244 108.96 250.774 108.642C251.304 108.32 251.873 108.159 252.479 108.159C253.168 108.159 253.71 108.328 254.104 108.665C254.501 108.998 254.782 109.366 254.945 109.767H255.001V105.364H257.78V117H255.03V115.585H254.945C254.77 115.987 254.482 116.345 254.081 116.659C253.679 116.97 253.149 117.125 252.49 117.125ZM253.456 114.96C253.964 114.96 254.357 114.75 254.638 114.33C254.922 113.909 255.064 113.345 255.064 112.636C255.064 111.924 254.922 111.362 254.638 110.949C254.357 110.536 253.964 110.33 253.456 110.33C252.941 110.33 252.545 110.54 252.268 110.96C251.992 111.377 251.854 111.936 251.854 112.636C251.854 113.341 251.992 113.905 252.268 114.33C252.545 114.75 252.941 114.96 253.456 114.96ZM267.156 110.938L264.605 111.006C264.567 110.729 264.429 110.504 264.19 110.33C263.952 110.152 263.649 110.062 263.281 110.062C262.959 110.062 262.685 110.127 262.457 110.256C262.234 110.381 262.124 110.555 262.128 110.778C262.124 110.945 262.192 111.093 262.332 111.222C262.476 111.347 262.732 111.447 263.099 111.523L264.781 111.841C266.497 112.17 267.361 112.958 267.372 114.205C267.368 114.803 267.19 115.324 266.838 115.767C266.49 116.21 266.012 116.555 265.406 116.801C264.8 117.044 264.107 117.165 263.327 117.165C262.08 117.165 261.098 116.909 260.378 116.398C259.658 115.883 259.249 115.193 259.151 114.33L261.895 114.261C261.955 114.58 262.113 114.822 262.366 114.989C262.62 115.155 262.944 115.239 263.338 115.239C263.694 115.239 263.984 115.172 264.207 115.04C264.431 114.907 264.545 114.731 264.548 114.511C264.537 114.144 264.183 113.892 263.486 113.756L261.963 113.466C260.224 113.144 259.361 112.301 259.372 110.938C259.368 110.062 259.715 109.381 260.412 108.892C261.109 108.403 262.048 108.159 263.23 108.159C264.412 108.159 265.344 108.407 266.026 108.903C266.707 109.396 267.084 110.074 267.156 110.938Z" fill="black"/>
<path d="M207.5 141.5H337.5V237.5H207.5V141.5Z" fill="#FAFF00" stroke="black" stroke-width="3"/>
<path d="M230.864 190.182C230.864 191.462 230.617 192.547 230.125 193.438C229.633 194.328 228.966 195.004 228.125 195.466C227.288 195.928 226.348 196.159 225.307 196.159C224.261 196.159 223.318 195.928 222.477 195.466C221.64 195 220.977 194.322 220.489 193.432C220 192.542 219.756 191.458 219.756 190.182C219.756 188.898 220 187.812 220.489 186.926C220.977 186.036 221.64 185.36 222.477 184.898C223.318 184.436 224.261 184.205 225.307 184.205C226.348 184.205 227.288 184.436 228.125 184.898C228.966 185.36 229.633 186.036 230.125 186.926C230.617 187.812 230.864 188.898 230.864 190.182ZM227.989 190.182C227.989 189.042 227.752 188.172 227.278 187.574C226.805 186.972 226.148 186.67 225.307 186.67C224.47 186.67 223.813 186.972 223.335 187.574C222.862 188.172 222.625 189.042 222.625 190.182C222.625 191.322 222.862 192.193 223.335 192.795C223.813 193.394 224.47 193.693 225.307 193.693C226.148 193.693 226.805 193.394 227.278 192.795C227.752 192.193 227.989 191.322 227.989 190.182ZM240.972 187.273L237.977 196H234.795L231.807 187.273H234.733L236.341 193.284H236.432L238.045 187.273H240.972ZM245.835 196.165C244.464 196.165 243.384 195.765 242.597 194.966C241.813 194.167 241.42 193.068 241.42 191.67C241.42 190.769 241.598 189.981 241.955 189.307C242.311 188.629 242.812 188.102 243.46 187.727C244.108 187.348 244.871 187.159 245.75 187.159C246.576 187.159 247.307 187.331 247.943 187.676C248.58 188.017 249.078 188.519 249.438 189.182C249.797 189.845 249.977 190.655 249.977 191.614V192.307H244.159V192.381C244.159 192.915 244.313 193.345 244.619 193.67C244.93 193.996 245.352 194.159 245.886 194.159C246.25 194.159 246.566 194.083 246.835 193.932C247.104 193.777 247.292 193.555 247.398 193.267L249.949 193.341C249.79 194.197 249.35 194.883 248.631 195.398C247.911 195.909 246.979 196.165 245.835 196.165ZM244.159 190.693H247.392C247.388 190.246 247.237 189.881 246.938 189.597C246.642 189.309 246.265 189.165 245.807 189.165C245.345 189.165 244.958 189.311 244.648 189.602C244.341 189.894 244.178 190.258 244.159 190.693ZM251.396 196V187.273H254.095V188.864H254.186C254.345 188.288 254.605 187.86 254.964 187.58C255.324 187.295 255.743 187.153 256.22 187.153C256.451 187.153 256.671 187.182 256.879 187.239C257.088 187.295 257.275 187.373 257.442 187.472L256.624 189.756C256.502 189.699 256.372 189.65 256.232 189.608C256.095 189.562 255.944 189.54 255.777 189.54C255.341 189.54 254.966 189.697 254.652 190.011C254.338 190.326 254.179 190.742 254.175 191.261V196H251.396ZM261.284 191.023V196H258.506V184.364H261.193V188.875H261.29C261.487 188.337 261.809 187.917 262.256 187.614C262.706 187.311 263.258 187.159 263.909 187.159C264.826 187.159 265.561 187.458 266.114 188.057C266.67 188.655 266.947 189.449 266.943 190.438V196H264.165V190.983C264.169 190.498 264.047 190.119 263.801 189.847C263.555 189.574 263.208 189.438 262.761 189.438C262.322 189.438 261.966 189.578 261.693 189.858C261.424 190.138 261.288 190.527 261.284 191.023ZM272.757 196.165C271.386 196.165 270.306 195.765 269.518 194.966C268.734 194.167 268.342 193.068 268.342 191.67C268.342 190.769 268.52 189.981 268.876 189.307C269.232 188.629 269.734 188.102 270.382 187.727C271.03 187.348 271.793 187.159 272.672 187.159C273.498 187.159 274.229 187.331 274.865 187.676C275.501 188.017 276 188.519 276.359 189.182C276.719 189.845 276.899 190.655 276.899 191.614V192.307H271.081V192.381C271.081 192.915 271.234 193.345 271.541 193.67C271.852 193.996 272.274 194.159 272.808 194.159C273.172 194.159 273.488 194.083 273.757 193.932C274.026 193.777 274.214 193.555 274.32 193.267L276.871 193.341C276.712 194.197 276.272 194.883 275.553 195.398C274.833 195.909 273.901 196.165 272.757 196.165ZM271.081 190.693H274.314C274.31 190.246 274.159 189.881 273.859 189.597C273.564 189.309 273.187 189.165 272.729 189.165C272.267 189.165 271.88 189.311 271.57 189.602C271.263 189.894 271.1 190.258 271.081 190.693ZM280.778 196.148C279.945 196.148 279.258 195.936 278.716 195.511C278.178 195.087 277.909 194.443 277.909 193.58C277.909 192.936 278.057 192.424 278.352 192.045C278.648 191.663 279.042 191.381 279.534 191.199C280.027 191.013 280.566 190.896 281.153 190.847C281.9 190.782 282.43 190.703 282.744 190.608C283.063 190.513 283.222 190.333 283.222 190.068V190.04C283.222 189.748 283.121 189.523 282.92 189.364C282.72 189.205 282.449 189.125 282.108 189.125C281.741 189.125 281.445 189.205 281.222 189.364C280.998 189.523 280.856 189.742 280.795 190.023L278.233 189.932C278.343 189.136 278.725 188.475 279.381 187.949C280.04 187.422 280.956 187.159 282.131 187.159C282.873 187.159 283.534 187.275 284.114 187.506C284.697 187.733 285.155 188.062 285.489 188.494C285.826 188.926 285.994 189.451 285.994 190.068V196H283.381V194.784H283.312C282.828 195.693 281.983 196.148 280.778 196.148ZM281.636 194.33C282.08 194.33 282.456 194.197 282.767 193.932C283.081 193.667 283.239 193.322 283.239 192.898V192.068C283.083 192.152 282.864 192.222 282.58 192.278C282.299 192.335 282.03 192.383 281.773 192.42C280.951 192.545 280.54 192.886 280.54 193.443C280.54 193.731 280.642 193.951 280.847 194.102C281.051 194.254 281.314 194.33 281.636 194.33ZM290.881 196.125C290.241 196.125 289.655 195.958 289.125 195.625C288.598 195.288 288.178 194.788 287.864 194.125C287.549 193.462 287.392 192.634 287.392 191.642C287.392 190.616 287.555 189.773 287.881 189.114C288.206 188.451 288.634 187.96 289.165 187.642C289.695 187.32 290.263 187.159 290.869 187.159C291.559 187.159 292.1 187.328 292.494 187.665C292.892 187.998 293.172 188.366 293.335 188.767H293.392V184.364H296.17V196H293.42V194.585H293.335C293.161 194.987 292.873 195.345 292.472 195.659C292.07 195.97 291.54 196.125 290.881 196.125ZM291.847 193.96C292.354 193.96 292.748 193.75 293.028 193.33C293.313 192.909 293.455 192.345 293.455 191.636C293.455 190.924 293.313 190.362 293.028 189.949C292.748 189.536 292.354 189.33 291.847 189.33C291.331 189.33 290.936 189.54 290.659 189.96C290.383 190.377 290.244 190.936 290.244 191.636C290.244 192.341 290.383 192.905 290.659 193.33C290.936 193.75 291.331 193.96 291.847 193.96Z" fill="black"/>
<path d="M358.5 37.5H488.5V64.5H358.5V37.5Z" fill="#FF0000" stroke="black" stroke-width="3"/>
<path d="M370.881 57V45.3636H373.693V54.7159H378.534V57H370.881ZM384.064 57.1648C383.151 57.1648 382.365 56.9773 381.706 56.6023C381.047 56.2235 380.539 55.697 380.183 55.0227C379.831 54.3447 379.655 53.5587 379.655 52.6648C379.655 51.767 379.831 50.9811 380.183 50.3068C380.539 49.6288 381.047 49.1023 381.706 48.7273C382.365 48.3485 383.151 48.1591 384.064 48.1591C384.981 48.1591 385.767 48.3485 386.422 48.7273C387.081 49.1023 387.587 49.6288 387.939 50.3068C388.295 50.9811 388.473 51.767 388.473 52.6648C388.473 53.5587 388.295 54.3447 387.939 55.0227C387.587 55.697 387.081 56.2235 386.422 56.6023C385.767 56.9773 384.981 57.1648 384.064 57.1648ZM384.081 55.0682C384.577 55.0682 384.962 54.8447 385.234 54.3977C385.507 53.9508 385.643 53.3674 385.643 52.6477C385.643 51.9242 385.507 51.339 385.234 50.892C384.962 50.4413 384.577 50.2159 384.081 50.2159C383.566 50.2159 383.17 50.4413 382.893 50.892C382.621 51.339 382.484 51.9242 382.484 52.6477C382.484 53.3674 382.621 53.9508 382.893 54.3977C383.17 54.8447 383.566 55.0682 384.081 55.0682ZM397.516 50.9375L394.964 51.0057C394.927 50.7292 394.788 50.5038 394.55 50.3295C394.311 50.1515 394.008 50.0625 393.641 50.0625C393.319 50.0625 393.044 50.1269 392.817 50.2557C392.593 50.3807 392.483 50.5549 392.487 50.7784C392.483 50.9451 392.552 51.0928 392.692 51.2216C392.836 51.3466 393.091 51.447 393.459 51.5227L395.141 51.8409C396.857 52.1705 397.72 52.9583 397.732 54.2045C397.728 54.803 397.55 55.3239 397.197 55.767C396.849 56.2102 396.372 56.5549 395.766 56.8011C395.16 57.0436 394.466 57.1648 393.686 57.1648C392.44 57.1648 391.457 56.9091 390.737 56.3977C390.018 55.8826 389.608 55.1932 389.51 54.3295L392.254 54.2614C392.315 54.5795 392.472 54.822 392.726 54.9886C392.98 55.1553 393.304 55.2386 393.697 55.2386C394.054 55.2386 394.343 55.1723 394.567 55.0398C394.79 54.9072 394.904 54.7311 394.908 54.5114C394.896 54.1439 394.542 53.892 393.845 53.7557L392.322 53.4659C390.584 53.1439 389.72 52.3011 389.732 50.9375C389.728 50.0625 390.074 49.3807 390.771 48.892C391.468 48.4034 392.408 48.1591 393.589 48.1591C394.771 48.1591 395.703 48.4072 396.385 48.9034C397.067 49.3958 397.444 50.0739 397.516 50.9375ZM406.719 50.9375L404.168 51.0057C404.13 50.7292 403.991 50.5038 403.753 50.3295C403.514 50.1515 403.211 50.0625 402.844 50.0625C402.522 50.0625 402.247 50.1269 402.02 50.2557C401.796 50.3807 401.687 50.5549 401.69 50.7784C401.687 50.9451 401.755 51.0928 401.895 51.2216C402.039 51.3466 402.295 51.447 402.662 51.5227L404.344 51.8409C406.06 52.1705 406.923 52.9583 406.935 54.2045C406.931 54.803 406.753 55.3239 406.401 55.767C406.052 56.2102 405.575 56.5549 404.969 56.8011C404.363 57.0436 403.67 57.1648 402.889 57.1648C401.643 57.1648 400.66 56.9091 399.94 56.3977C399.221 55.8826 398.812 55.1932 398.713 54.3295L401.457 54.2614C401.518 54.5795 401.675 54.822 401.929 54.9886C402.183 55.1553 402.507 55.2386 402.901 55.2386C403.257 55.2386 403.546 55.1723 403.77 55.0398C403.993 54.9072 404.107 54.7311 404.111 54.5114C404.099 54.1439 403.745 53.892 403.048 53.7557L401.526 53.4659C399.787 53.1439 398.923 52.3011 398.935 50.9375C398.931 50.0625 399.277 49.3807 399.974 48.892C400.671 48.4034 401.611 48.1591 402.793 48.1591C403.974 48.1591 404.906 48.4072 405.588 48.9034C406.27 49.3958 406.647 50.0739 406.719 50.9375Z" fill="black"/>
<path d="M358.5 64.5H488.5V211.5H358.5V64.5Z" fill="#1BF1FF" stroke="black" stroke-width="3"/>
<path d="M370.881 135V123.364H375.688C376.559 123.364 377.311 123.521 377.943 123.835C378.58 124.15 379.07 124.597 379.415 125.176C379.759 125.752 379.932 126.439 379.932 127.239C379.932 128.042 379.756 128.725 379.403 129.29C379.051 129.854 378.555 130.28 377.915 130.568L380.33 135H377.261L375.136 131.017H373.693V135H370.881ZM373.693 128.801H375.08C375.712 128.801 376.193 128.676 376.523 128.426C376.852 128.172 377.017 127.777 377.017 127.239C377.017 126.167 376.371 125.631 375.08 125.631H373.693V128.801ZM385.382 135.165C384.011 135.165 382.931 134.765 382.143 133.966C381.359 133.167 380.967 132.068 380.967 130.67C380.967 129.769 381.145 128.981 381.501 128.307C381.857 127.629 382.359 127.102 383.007 126.727C383.655 126.348 384.418 126.159 385.297 126.159C386.123 126.159 386.854 126.331 387.49 126.676C388.126 127.017 388.625 127.519 388.984 128.182C389.344 128.845 389.524 129.655 389.524 130.614V131.307H383.706V131.381C383.706 131.915 383.859 132.345 384.166 132.67C384.477 132.996 384.899 133.159 385.433 133.159C385.797 133.159 386.113 133.083 386.382 132.932C386.651 132.777 386.839 132.555 386.945 132.267L389.496 132.341C389.337 133.197 388.897 133.883 388.178 134.398C387.458 134.909 386.526 135.165 385.382 135.165ZM383.706 129.693H386.939C386.935 129.246 386.784 128.881 386.484 128.597C386.189 128.309 385.812 128.165 385.354 128.165C384.892 128.165 384.505 128.311 384.195 128.602C383.888 128.894 383.725 129.258 383.706 129.693ZM398.562 128.938L396.011 129.006C395.973 128.729 395.835 128.504 395.597 128.33C395.358 128.152 395.055 128.062 394.688 128.062C394.366 128.062 394.091 128.127 393.864 128.256C393.64 128.381 393.53 128.555 393.534 128.778C393.53 128.945 393.598 129.093 393.739 129.222C393.883 129.347 394.138 129.447 394.506 129.523L396.188 129.841C397.903 130.17 398.767 130.958 398.778 132.205C398.775 132.803 398.597 133.324 398.244 133.767C397.896 134.21 397.419 134.555 396.812 134.801C396.206 135.044 395.513 135.165 394.733 135.165C393.487 135.165 392.504 134.909 391.784 134.398C391.064 133.883 390.655 133.193 390.557 132.33L393.301 132.261C393.362 132.58 393.519 132.822 393.773 132.989C394.027 133.155 394.35 133.239 394.744 133.239C395.1 133.239 395.39 133.172 395.614 133.04C395.837 132.907 395.951 132.731 395.955 132.511C395.943 132.144 395.589 131.892 394.892 131.756L393.369 131.466C391.631 131.144 390.767 130.301 390.778 128.938C390.775 128.062 391.121 127.381 391.818 126.892C392.515 126.403 393.455 126.159 394.636 126.159C395.818 126.159 396.75 126.407 397.432 126.903C398.114 127.396 398.491 128.074 398.562 128.938ZM404.22 135.165C403.307 135.165 402.521 134.977 401.862 134.602C401.203 134.223 400.696 133.697 400.339 133.023C399.987 132.345 399.811 131.559 399.811 130.665C399.811 129.767 399.987 128.981 400.339 128.307C400.696 127.629 401.203 127.102 401.862 126.727C402.521 126.348 403.307 126.159 404.22 126.159C405.137 126.159 405.923 126.348 406.578 126.727C407.237 127.102 407.743 127.629 408.095 128.307C408.451 128.981 408.629 129.767 408.629 130.665C408.629 131.559 408.451 132.345 408.095 133.023C407.743 133.697 407.237 134.223 406.578 134.602C405.923 134.977 405.137 135.165 404.22 135.165ZM404.237 133.068C404.733 133.068 405.118 132.845 405.391 132.398C405.663 131.951 405.8 131.367 405.8 130.648C405.8 129.924 405.663 129.339 405.391 128.892C405.118 128.441 404.733 128.216 404.237 128.216C403.722 128.216 403.326 128.441 403.05 128.892C402.777 129.339 402.641 129.924 402.641 130.648C402.641 131.367 402.777 131.951 403.05 132.398C403.326 132.845 403.722 133.068 404.237 133.068ZM412.831 123.364V135H410.053V123.364H412.831ZM423.065 126.273L420.071 135H416.889L413.901 126.273H416.827L418.435 132.284H418.526L420.139 126.273H423.065ZM427.929 135.165C426.558 135.165 425.478 134.765 424.69 133.966C423.906 133.167 423.514 132.068 423.514 130.67C423.514 129.769 423.692 128.981 424.048 128.307C424.404 127.629 424.906 127.102 425.554 126.727C426.202 126.348 426.965 126.159 427.844 126.159C428.67 126.159 429.401 126.331 430.037 126.676C430.673 127.017 431.171 127.519 431.531 128.182C431.891 128.845 432.071 129.655 432.071 130.614V131.307H426.253V131.381C426.253 131.915 426.406 132.345 426.713 132.67C427.024 132.996 427.446 133.159 427.98 133.159C428.344 133.159 428.66 133.083 428.929 132.932C429.198 132.777 429.385 132.555 429.491 132.267L432.043 132.341C431.884 133.197 431.444 133.883 430.724 134.398C430.005 134.909 429.073 135.165 427.929 135.165ZM426.253 129.693H429.486C429.482 129.246 429.33 128.881 429.031 128.597C428.736 128.309 428.359 128.165 427.901 128.165C427.438 128.165 427.052 128.311 426.741 128.602C426.435 128.894 426.272 129.258 426.253 129.693ZM436.678 135.125C436.037 135.125 435.452 134.958 434.922 134.625C434.395 134.288 433.975 133.788 433.661 133.125C433.346 132.462 433.189 131.634 433.189 130.642C433.189 129.616 433.352 128.773 433.678 128.114C434.003 127.451 434.431 126.96 434.962 126.642C435.492 126.32 436.06 126.159 436.666 126.159C437.356 126.159 437.897 126.328 438.291 126.665C438.689 126.998 438.969 127.366 439.132 127.767H439.189V123.364H441.967V135H439.217V133.585H439.132C438.958 133.987 438.67 134.345 438.268 134.659C437.867 134.97 437.337 135.125 436.678 135.125ZM437.643 132.96C438.151 132.96 438.545 132.75 438.825 132.33C439.109 131.909 439.251 131.345 439.251 130.636C439.251 129.924 439.109 129.362 438.825 128.949C438.545 128.536 438.151 128.33 437.643 128.33C437.128 128.33 436.732 128.54 436.456 128.96C436.179 129.377 436.041 129.936 436.041 130.636C436.041 131.341 436.179 131.905 436.456 132.33C436.732 132.75 437.128 132.96 437.643 132.96ZM373.659 148.023V153H370.881V144.273H373.523V145.875H373.619C373.813 145.345 374.142 144.926 374.608 144.619C375.074 144.312 375.629 144.159 376.273 144.159C376.886 144.159 377.419 144.295 377.869 144.568C378.324 144.841 378.676 145.223 378.926 145.716C379.18 146.208 379.305 146.782 379.301 147.438V153H376.523V147.983C376.527 147.498 376.403 147.119 376.153 146.847C375.907 146.574 375.564 146.438 375.125 146.438C374.686 146.438 374.331 146.578 374.062 146.858C373.797 147.138 373.663 147.527 373.659 148.023ZM385.101 153.165C383.73 153.165 382.65 152.765 381.862 151.966C381.078 151.167 380.686 150.068 380.686 148.67C380.686 147.769 380.864 146.981 381.22 146.307C381.576 145.629 382.078 145.102 382.726 144.727C383.374 144.348 384.137 144.159 385.016 144.159C385.841 144.159 386.572 144.331 387.209 144.676C387.845 145.017 388.343 145.519 388.703 146.182C389.063 146.845 389.243 147.655 389.243 148.614V149.307H383.425V149.381C383.425 149.915 383.578 150.345 383.885 150.67C384.196 150.996 384.618 151.159 385.152 151.159C385.516 151.159 385.832 151.083 386.101 150.932C386.37 150.777 386.557 150.555 386.663 150.267L389.214 150.341C389.055 151.197 388.616 151.883 387.896 152.398C387.177 152.909 386.245 153.165 385.101 153.165ZM383.425 147.693H386.658C386.654 147.246 386.502 146.881 386.203 146.597C385.908 146.309 385.531 146.165 385.072 146.165C384.61 146.165 384.224 146.311 383.913 146.602C383.607 146.894 383.444 147.258 383.425 147.693ZM394.741 153.165C393.37 153.165 392.291 152.765 391.503 151.966C390.719 151.167 390.327 150.068 390.327 148.67C390.327 147.769 390.505 146.981 390.861 146.307C391.217 145.629 391.719 145.102 392.366 144.727C393.014 144.348 393.777 144.159 394.656 144.159C395.482 144.159 396.213 144.331 396.849 144.676C397.486 145.017 397.984 145.519 398.344 146.182C398.704 146.845 398.884 147.655 398.884 148.614V149.307H393.065V149.381C393.065 149.915 393.219 150.345 393.526 150.67C393.836 150.996 394.259 151.159 394.793 151.159C395.156 151.159 395.473 151.083 395.741 150.932C396.01 150.777 396.198 150.555 396.304 150.267L398.855 150.341C398.696 151.197 398.257 151.883 397.537 152.398C396.817 152.909 395.885 153.165 394.741 153.165ZM393.065 147.693H396.298C396.295 147.246 396.143 146.881 395.844 146.597C395.548 146.309 395.171 146.165 394.713 146.165C394.251 146.165 393.865 146.311 393.554 146.602C393.247 146.894 393.084 147.258 393.065 147.693ZM403.49 153.125C402.85 153.125 402.265 152.958 401.734 152.625C401.208 152.288 400.787 151.788 400.473 151.125C400.159 150.462 400.001 149.634 400.001 148.642C400.001 147.616 400.164 146.773 400.49 146.114C400.816 145.451 401.244 144.96 401.774 144.642C402.304 144.32 402.873 144.159 403.479 144.159C404.168 144.159 404.71 144.328 405.104 144.665C405.501 144.998 405.782 145.366 405.945 145.767H406.001V141.364H408.78V153H406.03V151.585H405.945C405.77 151.987 405.482 152.345 405.081 152.659C404.679 152.97 404.149 153.125 403.49 153.125ZM404.456 150.96C404.964 150.96 405.357 150.75 405.638 150.33C405.922 149.909 406.064 149.345 406.064 148.636C406.064 147.924 405.922 147.362 405.638 146.949C405.357 146.536 404.964 146.33 404.456 146.33C403.941 146.33 403.545 146.54 403.268 146.96C402.992 147.377 402.854 147.936 402.854 148.636C402.854 149.341 402.992 149.905 403.268 150.33C403.545 150.75 403.941 150.96 404.456 150.96ZM418.156 146.938L415.605 147.006C415.567 146.729 415.429 146.504 415.19 146.33C414.952 146.152 414.649 146.062 414.281 146.062C413.959 146.062 413.685 146.127 413.457 146.256C413.234 146.381 413.124 146.555 413.128 146.778C413.124 146.945 413.192 147.093 413.332 147.222C413.476 147.347 413.732 147.447 414.099 147.523L415.781 147.841C417.497 148.17 418.361 148.958 418.372 150.205C418.368 150.803 418.19 151.324 417.838 151.767C417.49 152.21 417.012 152.555 416.406 152.801C415.8 153.044 415.107 153.165 414.327 153.165C413.08 153.165 412.098 152.909 411.378 152.398C410.658 151.883 410.249 151.193 410.151 150.33L412.895 150.261C412.955 150.58 413.113 150.822 413.366 150.989C413.62 151.155 413.944 151.239 414.338 151.239C414.694 151.239 414.984 151.172 415.207 151.04C415.431 150.907 415.545 150.731 415.548 150.511C415.537 150.144 415.183 149.892 414.486 149.756L412.963 149.466C411.224 149.144 410.361 148.301 410.372 146.938C410.368 146.062 410.715 145.381 411.412 144.892C412.109 144.403 413.048 144.159 414.23 144.159C415.412 144.159 416.344 144.407 417.026 144.903C417.707 145.396 418.084 146.074 418.156 146.938Z" fill="black"/>
<path d="M358.5 211.5H488.5V237.5H358.5V211.5Z" fill="#FAFF00" stroke="black" stroke-width="3"/>
<path d="M381.864 225.182C381.864 226.462 381.617 227.547 381.125 228.438C380.633 229.328 379.966 230.004 379.125 230.466C378.288 230.928 377.348 231.159 376.307 231.159C375.261 231.159 374.318 230.928 373.477 230.466C372.64 230 371.977 229.322 371.489 228.432C371 227.542 370.756 226.458 370.756 225.182C370.756 223.898 371 222.812 371.489 221.926C371.977 221.036 372.64 220.36 373.477 219.898C374.318 219.436 375.261 219.205 376.307 219.205C377.348 219.205 378.288 219.436 379.125 219.898C379.966 220.36 380.633 221.036 381.125 221.926C381.617 222.812 381.864 223.898 381.864 225.182ZM378.989 225.182C378.989 224.042 378.752 223.172 378.278 222.574C377.805 221.972 377.148 221.67 376.307 221.67C375.47 221.67 374.813 221.972 374.335 222.574C373.862 223.172 373.625 224.042 373.625 225.182C373.625 226.322 373.862 227.193 374.335 227.795C374.813 228.394 375.47 228.693 376.307 228.693C377.148 228.693 377.805 228.394 378.278 227.795C378.752 227.193 378.989 226.322 378.989 225.182ZM391.972 222.273L388.977 231H385.795L382.807 222.273H385.733L387.341 228.284H387.432L389.045 222.273H391.972ZM396.835 231.165C395.464 231.165 394.384 230.765 393.597 229.966C392.813 229.167 392.42 228.068 392.42 226.67C392.42 225.769 392.598 224.981 392.955 224.307C393.311 223.629 393.812 223.102 394.46 222.727C395.108 222.348 395.871 222.159 396.75 222.159C397.576 222.159 398.307 222.331 398.943 222.676C399.58 223.017 400.078 223.519 400.438 224.182C400.797 224.845 400.977 225.655 400.977 226.614V227.307H395.159V227.381C395.159 227.915 395.313 228.345 395.619 228.67C395.93 228.996 396.352 229.159 396.886 229.159C397.25 229.159 397.566 229.083 397.835 228.932C398.104 228.777 398.292 228.555 398.398 228.267L400.949 228.341C400.79 229.197 400.35 229.883 399.631 230.398C398.911 230.909 397.979 231.165 396.835 231.165ZM395.159 225.693H398.392C398.388 225.246 398.237 224.881 397.938 224.597C397.642 224.309 397.265 224.165 396.807 224.165C396.345 224.165 395.958 224.311 395.648 224.602C395.341 224.894 395.178 225.258 395.159 225.693ZM402.396 231V222.273H405.095V223.864H405.186C405.345 223.288 405.605 222.86 405.964 222.58C406.324 222.295 406.743 222.153 407.22 222.153C407.451 222.153 407.671 222.182 407.879 222.239C408.088 222.295 408.275 222.373 408.442 222.472L407.624 224.756C407.502 224.699 407.372 224.65 407.232 224.608C407.095 224.562 406.944 224.54 406.777 224.54C406.341 224.54 405.966 224.697 405.652 225.011C405.338 225.326 405.179 225.742 405.175 226.261V231H402.396ZM412.284 226.023V231H409.506V219.364H412.193V223.875H412.29C412.487 223.337 412.809 222.917 413.256 222.614C413.706 222.311 414.258 222.159 414.909 222.159C415.826 222.159 416.561 222.458 417.114 223.057C417.67 223.655 417.947 224.449 417.943 225.438V231H415.165V225.983C415.169 225.498 415.047 225.119 414.801 224.847C414.555 224.574 414.208 224.438 413.761 224.438C413.322 224.438 412.966 224.578 412.693 224.858C412.424 225.138 412.288 225.527 412.284 226.023ZM423.757 231.165C422.386 231.165 421.306 230.765 420.518 229.966C419.734 229.167 419.342 228.068 419.342 226.67C419.342 225.769 419.52 224.981 419.876 224.307C420.232 223.629 420.734 223.102 421.382 222.727C422.03 222.348 422.793 222.159 423.672 222.159C424.498 222.159 425.229 222.331 425.865 222.676C426.501 223.017 427 223.519 427.359 224.182C427.719 224.845 427.899 225.655 427.899 226.614V227.307H422.081V227.381C422.081 227.915 422.234 228.345 422.541 228.67C422.852 228.996 423.274 229.159 423.808 229.159C424.172 229.159 424.488 229.083 424.757 228.932C425.026 228.777 425.214 228.555 425.32 228.267L427.871 228.341C427.712 229.197 427.272 229.883 426.553 230.398C425.833 230.909 424.901 231.165 423.757 231.165ZM422.081 225.693H425.314C425.31 225.246 425.159 224.881 424.859 224.597C424.564 224.309 424.187 224.165 423.729 224.165C423.267 224.165 422.88 224.311 422.57 224.602C422.263 224.894 422.1 225.258 422.081 225.693ZM431.778 231.148C430.945 231.148 430.258 230.936 429.716 230.511C429.178 230.087 428.909 229.443 428.909 228.58C428.909 227.936 429.057 227.424 429.352 227.045C429.648 226.663 430.042 226.381 430.534 226.199C431.027 226.013 431.566 225.896 432.153 225.847C432.9 225.782 433.43 225.703 433.744 225.608C434.063 225.513 434.222 225.333 434.222 225.068V225.04C434.222 224.748 434.121 224.523 433.92 224.364C433.72 224.205 433.449 224.125 433.108 224.125C432.741 224.125 432.445 224.205 432.222 224.364C431.998 224.523 431.856 224.742 431.795 225.023L429.233 224.932C429.343 224.136 429.725 223.475 430.381 222.949C431.04 222.422 431.956 222.159 433.131 222.159C433.873 222.159 434.534 222.275 435.114 222.506C435.697 222.733 436.155 223.062 436.489 223.494C436.826 223.926 436.994 224.451 436.994 225.068V231H434.381V229.784H434.312C433.828 230.693 432.983 231.148 431.778 231.148ZM432.636 229.33C433.08 229.33 433.456 229.197 433.767 228.932C434.081 228.667 434.239 228.322 434.239 227.898V227.068C434.083 227.152 433.864 227.222 433.58 227.278C433.299 227.335 433.03 227.383 432.773 227.42C431.951 227.545 431.54 227.886 431.54 228.443C431.54 228.731 431.642 228.951 431.847 229.102C432.051 229.254 432.314 229.33 432.636 229.33ZM441.881 231.125C441.241 231.125 440.655 230.958 440.125 230.625C439.598 230.288 439.178 229.788 438.864 229.125C438.549 228.462 438.392 227.634 438.392 226.642C438.392 225.616 438.555 224.773 438.881 224.114C439.206 223.451 439.634 222.96 440.165 222.642C440.695 222.32 441.263 222.159 441.869 222.159C442.559 222.159 443.1 222.328 443.494 222.665C443.892 222.998 444.172 223.366 444.335 223.767H444.392V219.364H447.17V231H444.42V229.585H444.335C444.161 229.987 443.873 230.345 443.472 230.659C443.07 230.97 442.54 231.125 441.881 231.125ZM442.847 228.96C443.354 228.96 443.748 228.75 444.028 228.33C444.313 227.909 444.455 227.345 444.455 226.636C444.455 225.924 444.313 225.362 444.028 224.949C443.748 224.536 443.354 224.33 442.847 224.33C442.331 224.33 441.936 224.54 441.659 224.96C441.383 225.377 441.244 225.936 441.244 226.636C441.244 227.341 441.383 227.905 441.659 228.33C441.936 228.75 442.331 228.96 442.847 228.96Z" fill="black"/>
<path d="M60.267 6C60.2443 5.71591 60.1378 5.49432 59.9474 5.33523C59.7599 5.17614 59.4744 5.09659 59.0909 5.09659C58.7244 5.09659 58.4574 5.15909 58.2898 5.28409C58.1222 5.40909 58.0369 5.56818 58.0341 5.76136C58.0227 5.96875 58.1122 6.13778 58.3026 6.26847C58.4957 6.39915 58.7983 6.50852 59.2102 6.59659L59.9261 6.75C60.8892 6.95739 61.5838 7.28977 62.0099 7.74716C62.4361 8.2017 62.6506 8.76136 62.6534 9.42614C62.6506 10.2869 62.3352 10.9489 61.7074 11.4119C61.0795 11.8722 60.2131 12.1023 59.108 12.1023C58.3494 12.1023 57.6875 11.9901 57.1222 11.7656C56.5597 11.5412 56.1222 11.196 55.8097 10.7301C55.5 10.2614 55.3438 9.66193 55.3409 8.93182H57.5909C57.6108 9.33239 57.7486 9.63778 58.0043 9.84801C58.2628 10.0554 58.6193 10.1591 59.0739 10.1591C59.4545 10.1591 59.7415 10.0909 59.9347 9.95455C60.1307 9.81818 60.2301 9.64205 60.233 9.42614C60.2301 9.22727 60.1321 9.0625 59.9389 8.93182C59.7457 8.7983 59.4063 8.67898 58.9205 8.57386L58.0511 8.38636C57.2784 8.21875 56.669 7.93892 56.223 7.54688C55.7798 7.15199 55.5597 6.61364 55.5625 5.93182C55.5597 5.37784 55.7074 4.89347 56.0057 4.47869C56.3068 4.06108 56.723 3.7358 57.2543 3.50284C57.7884 3.26989 58.4006 3.15341 59.0909 3.15341C59.7955 3.15341 60.4048 3.27131 60.919 3.5071C61.4332 3.7429 61.8295 4.07528 62.108 4.50426C62.3892 4.9304 62.5313 5.42898 62.5341 6H60.267ZM66.7251 12.1193C65.6768 12.1193 64.8516 11.8224 64.2493 11.2287C63.6499 10.6321 63.3501 9.80398 63.3501 8.74432C63.3501 8.06818 63.4865 7.47727 63.7592 6.97159C64.032 6.46591 64.4169 6.07244 64.9141 5.79119C65.4112 5.50994 65.9979 5.36932 66.674 5.36932C67.3331 5.36932 67.9055 5.50426 68.3913 5.77415C68.88 6.04403 69.2578 6.4304 69.5249 6.93324C69.7947 7.43324 69.9297 8.03125 69.9297 8.72727V9.27273H65.6683V9.375C65.6683 9.69034 65.7649 9.9517 65.9581 10.1591C66.1541 10.3636 66.4268 10.4659 66.7763 10.4659C67.0178 10.4659 67.228 10.4162 67.407 10.3168C67.5888 10.2145 67.7138 10.071 67.782 9.88636H69.9297C69.8189 10.5682 69.4837 11.1108 68.924 11.5142C68.3672 11.9176 67.6342 12.1193 66.7251 12.1193ZM65.6683 7.97727H67.7649C67.7592 7.69602 67.657 7.46733 67.4581 7.29119C67.2621 7.11222 67.0178 7.02273 66.7251 7.02273C66.4382 7.02273 66.1911 7.1108 65.9837 7.28693C65.7791 7.46307 65.674 7.69318 65.6683 7.97727ZM70.8896 12V5.45455H73.1737V6.69886H73.2418C73.3612 6.23864 73.5501 5.90199 73.8086 5.68892C74.07 5.47585 74.3754 5.36932 74.7248 5.36932C74.9208 5.36932 75.1197 5.39915 75.3214 5.45881V7.46591C75.2049 7.42614 75.0614 7.39631 74.891 7.37642C74.7205 7.35653 74.5742 7.34659 74.4521 7.34659C74.1055 7.34659 73.8171 7.46023 73.587 7.6875C73.3569 7.91477 73.2418 8.21591 73.2418 8.59091V12H70.8896ZM82.8885 5.45455L80.6896 12H77.9624L75.7635 5.45455H78.2351L79.2919 9.78409H79.3601L80.4169 5.45455H82.8885ZM83.6278 12V5.45455H85.9801V12H83.6278ZM84.804 4.77273C84.4858 4.77273 84.2131 4.66761 83.9858 4.45739C83.7585 4.24716 83.6449 3.99432 83.6449 3.69886C83.6449 3.40341 83.7585 3.15057 83.9858 2.94034C84.2131 2.73011 84.4858 2.625 84.804 2.625C85.125 2.625 85.3977 2.73011 85.6222 2.94034C85.8494 3.15057 85.9631 3.40341 85.9631 3.69886C85.9631 3.99432 85.8494 4.24716 85.6222 4.45739C85.3977 4.66761 85.125 4.77273 84.804 4.77273ZM90.332 12.1193C89.6218 12.1193 89.0138 11.9787 88.5082 11.6974C88.0025 11.4134 87.6147 11.0185 87.3448 10.5128C87.0749 10.0043 86.94 9.41477 86.94 8.74432C86.94 8.07386 87.0749 7.4858 87.3448 6.98011C87.6147 6.47159 88.0025 6.0767 88.5082 5.79545C89.0138 5.51136 89.6218 5.36932 90.332 5.36932C90.9741 5.36932 91.5295 5.4858 91.9982 5.71875C92.4698 5.94886 92.8349 6.27557 93.0934 6.69886C93.3519 7.11932 93.4826 7.61364 93.4854 8.18182H91.3036C91.2724 7.83807 91.1729 7.5767 91.0053 7.39773C90.8406 7.21591 90.6275 7.125 90.3661 7.125C90.0565 7.125 89.8079 7.25852 89.6204 7.52557C89.4357 7.78977 89.3434 8.19034 89.3434 8.72727C89.3434 9.2642 89.4357 9.66619 89.6204 9.93324C89.8079 10.1974 90.0565 10.3295 90.3661 10.3295C90.6246 10.3295 90.8391 10.2401 91.0096 10.0611C91.18 9.87926 91.2781 9.61648 91.3036 9.27273H93.4854C93.4741 10.1392 93.1871 10.831 92.6246 11.348C92.065 11.8622 91.3008 12.1193 90.332 12.1193ZM97.5923 12.1193C96.544 12.1193 95.7188 11.8224 95.1165 11.2287C94.517 10.6321 94.2173 9.80398 94.2173 8.74432C94.2173 8.06818 94.3537 7.47727 94.6264 6.97159C94.8991 6.46591 95.2841 6.07244 95.7812 5.79119C96.2784 5.50994 96.8651 5.36932 97.5412 5.36932C98.2003 5.36932 98.7727 5.50426 99.2585 5.77415C99.7472 6.04403 100.125 6.4304 100.392 6.93324C100.662 7.43324 100.797 8.03125 100.797 8.72727V9.27273H96.5355V9.375C96.5355 9.69034 96.6321 9.9517 96.8253 10.1591C97.0213 10.3636 97.294 10.4659 97.6435 10.4659C97.8849 10.4659 98.0952 10.4162 98.2741 10.3168C98.456 10.2145 98.581 10.071 98.6491 9.88636H100.797C100.686 10.5682 100.351 11.1108 99.7912 11.5142C99.2344 11.9176 98.5014 12.1193 97.5923 12.1193ZM96.5355 7.97727H98.6321C98.6264 7.69602 98.5241 7.46733 98.3253 7.29119C98.1293 7.11222 97.8849 7.02273 97.5923 7.02273C97.3054 7.02273 97.0582 7.1108 96.8509 7.28693C96.6463 7.46307 96.5412 7.69318 96.5355 7.97727ZM107.471 12H104.113V3.27273H107.437C108.335 3.27273 109.11 3.44744 109.764 3.79688C110.42 4.14347 110.926 4.64347 111.281 5.29688C111.639 5.94744 111.818 6.72727 111.818 7.63636C111.818 8.54545 111.64 9.3267 111.285 9.98011C110.93 10.6307 110.427 11.1307 109.777 11.4801C109.126 11.8267 108.358 12 107.471 12ZM106.483 9.98864H107.386C107.818 9.98864 108.186 9.91903 108.49 9.77983C108.797 9.64062 109.029 9.40057 109.189 9.05966C109.35 8.71875 109.431 8.24432 109.431 7.63636C109.431 7.02841 109.349 6.55398 109.184 6.21307C109.022 5.87216 108.784 5.6321 108.468 5.4929C108.156 5.35369 107.772 5.28409 107.318 5.28409H106.483V9.98864Z" fill="black"/>
<path d="M211.267 6C211.244 5.71591 211.138 5.49432 210.947 5.33523C210.76 5.17614 210.474 5.09659 210.091 5.09659C209.724 5.09659 209.457 5.15909 209.29 5.28409C209.122 5.40909 209.037 5.56818 209.034 5.76136C209.023 5.96875 209.112 6.13778 209.303 6.26847C209.496 6.39915 209.798 6.50852 210.21 6.59659L210.926 6.75C211.889 6.95739 212.584 7.28977 213.01 7.74716C213.436 8.2017 213.651 8.76136 213.653 9.42614C213.651 10.2869 213.335 10.9489 212.707 11.4119C212.08 11.8722 211.213 12.1023 210.108 12.1023C209.349 12.1023 208.688 11.9901 208.122 11.7656C207.56 11.5412 207.122 11.196 206.81 10.7301C206.5 10.2614 206.344 9.66193 206.341 8.93182H208.591C208.611 9.33239 208.749 9.63778 209.004 9.84801C209.263 10.0554 209.619 10.1591 210.074 10.1591C210.455 10.1591 210.741 10.0909 210.935 9.95455C211.131 9.81818 211.23 9.64205 211.233 9.42614C211.23 9.22727 211.132 9.0625 210.939 8.93182C210.746 8.7983 210.406 8.67898 209.92 8.57386L209.051 8.38636C208.278 8.21875 207.669 7.93892 207.223 7.54688C206.78 7.15199 206.56 6.61364 206.562 5.93182C206.56 5.37784 206.707 4.89347 207.006 4.47869C207.307 4.06108 207.723 3.7358 208.254 3.50284C208.788 3.26989 209.401 3.15341 210.091 3.15341C210.795 3.15341 211.405 3.27131 211.919 3.5071C212.433 3.7429 212.83 4.07528 213.108 4.50426C213.389 4.9304 213.531 5.42898 213.534 6H211.267ZM217.725 12.1193C216.677 12.1193 215.852 11.8224 215.249 11.2287C214.65 10.6321 214.35 9.80398 214.35 8.74432C214.35 8.06818 214.487 7.47727 214.759 6.97159C215.032 6.46591 215.417 6.07244 215.914 5.79119C216.411 5.50994 216.998 5.36932 217.674 5.36932C218.333 5.36932 218.906 5.50426 219.391 5.77415C219.88 6.04403 220.258 6.4304 220.525 6.93324C220.795 7.43324 220.93 8.03125 220.93 8.72727V9.27273H216.668V9.375C216.668 9.69034 216.765 9.9517 216.958 10.1591C217.154 10.3636 217.427 10.4659 217.776 10.4659C218.018 10.4659 218.228 10.4162 218.407 10.3168C218.589 10.2145 218.714 10.071 218.782 9.88636H220.93C220.819 10.5682 220.484 11.1108 219.924 11.5142C219.367 11.9176 218.634 12.1193 217.725 12.1193ZM216.668 7.97727H218.765C218.759 7.69602 218.657 7.46733 218.458 7.29119C218.262 7.11222 218.018 7.02273 217.725 7.02273C217.438 7.02273 217.191 7.1108 216.984 7.28693C216.779 7.46307 216.674 7.69318 216.668 7.97727ZM221.89 12V5.45455H224.174V6.69886H224.242C224.361 6.23864 224.55 5.90199 224.809 5.68892C225.07 5.47585 225.375 5.36932 225.725 5.36932C225.921 5.36932 226.12 5.39915 226.321 5.45881V7.46591C226.205 7.42614 226.061 7.39631 225.891 7.37642C225.721 7.35653 225.574 7.34659 225.452 7.34659C225.105 7.34659 224.817 7.46023 224.587 7.6875C224.357 7.91477 224.242 8.21591 224.242 8.59091V12H221.89ZM233.888 5.45455L231.69 12H228.962L226.763 5.45455H229.235L230.292 9.78409H230.36L231.417 5.45455H233.888ZM234.628 12V5.45455H236.98V12H234.628ZM235.804 4.77273C235.486 4.77273 235.213 4.66761 234.986 4.45739C234.759 4.24716 234.645 3.99432 234.645 3.69886C234.645 3.40341 234.759 3.15057 234.986 2.94034C235.213 2.73011 235.486 2.625 235.804 2.625C236.125 2.625 236.398 2.73011 236.622 2.94034C236.849 3.15057 236.963 3.40341 236.963 3.69886C236.963 3.99432 236.849 4.24716 236.622 4.45739C236.398 4.66761 236.125 4.77273 235.804 4.77273ZM241.332 12.1193C240.622 12.1193 240.014 11.9787 239.508 11.6974C239.002 11.4134 238.615 11.0185 238.345 10.5128C238.075 10.0043 237.94 9.41477 237.94 8.74432C237.94 8.07386 238.075 7.4858 238.345 6.98011C238.615 6.47159 239.002 6.0767 239.508 5.79545C240.014 5.51136 240.622 5.36932 241.332 5.36932C241.974 5.36932 242.529 5.4858 242.998 5.71875C243.47 5.94886 243.835 6.27557 244.093 6.69886C244.352 7.11932 244.483 7.61364 244.485 8.18182H242.304C242.272 7.83807 242.173 7.5767 242.005 7.39773C241.841 7.21591 241.627 7.125 241.366 7.125C241.056 7.125 240.808 7.25852 240.62 7.52557C240.436 7.78977 240.343 8.19034 240.343 8.72727C240.343 9.2642 240.436 9.66619 240.62 9.93324C240.808 10.1974 241.056 10.3295 241.366 10.3295C241.625 10.3295 241.839 10.2401 242.01 10.0611C242.18 9.87926 242.278 9.61648 242.304 9.27273H244.485C244.474 10.1392 244.187 10.831 243.625 11.348C243.065 11.8622 242.301 12.1193 241.332 12.1193ZM248.592 12.1193C247.544 12.1193 246.719 11.8224 246.116 11.2287C245.517 10.6321 245.217 9.80398 245.217 8.74432C245.217 8.06818 245.354 7.47727 245.626 6.97159C245.899 6.46591 246.284 6.07244 246.781 5.79119C247.278 5.50994 247.865 5.36932 248.541 5.36932C249.2 5.36932 249.773 5.50426 250.259 5.77415C250.747 6.04403 251.125 6.4304 251.392 6.93324C251.662 7.43324 251.797 8.03125 251.797 8.72727V9.27273H247.536V9.375C247.536 9.69034 247.632 9.9517 247.825 10.1591C248.021 10.3636 248.294 10.4659 248.643 10.4659C248.885 10.4659 249.095 10.4162 249.274 10.3168C249.456 10.2145 249.581 10.071 249.649 9.88636H251.797C251.686 10.5682 251.351 11.1108 250.791 11.5142C250.234 11.9176 249.501 12.1193 248.592 12.1193ZM247.536 7.97727H249.632C249.626 7.69602 249.524 7.46733 249.325 7.29119C249.129 7.11222 248.885 7.02273 248.592 7.02273C248.305 7.02273 248.058 7.1108 247.851 7.28693C247.646 7.46307 247.541 7.69318 247.536 7.97727ZM255.113 12V3.27273H261.403V5.18182H257.483V6.68182H261.079V8.59091H257.483V10.0909H261.386V12H255.113Z" fill="black"/>
<path d="M362.267 6C362.244 5.71591 362.138 5.49432 361.947 5.33523C361.76 5.17614 361.474 5.09659 361.091 5.09659C360.724 5.09659 360.457 5.15909 360.29 5.28409C360.122 5.40909 360.037 5.56818 360.034 5.76136C360.023 5.96875 360.112 6.13778 360.303 6.26847C360.496 6.39915 360.798 6.50852 361.21 6.59659L361.926 6.75C362.889 6.95739 363.584 7.28977 364.01 7.74716C364.436 8.2017 364.651 8.76136 364.653 9.42614C364.651 10.2869 364.335 10.9489 363.707 11.4119C363.08 11.8722 362.213 12.1023 361.108 12.1023C360.349 12.1023 359.688 11.9901 359.122 11.7656C358.56 11.5412 358.122 11.196 357.81 10.7301C357.5 10.2614 357.344 9.66193 357.341 8.93182H359.591C359.611 9.33239 359.749 9.63778 360.004 9.84801C360.263 10.0554 360.619 10.1591 361.074 10.1591C361.455 10.1591 361.741 10.0909 361.935 9.95455C362.131 9.81818 362.23 9.64205 362.233 9.42614C362.23 9.22727 362.132 9.0625 361.939 8.93182C361.746 8.7983 361.406 8.67898 360.92 8.57386L360.051 8.38636C359.278 8.21875 358.669 7.93892 358.223 7.54688C357.78 7.15199 357.56 6.61364 357.562 5.93182C357.56 5.37784 357.707 4.89347 358.006 4.47869C358.307 4.06108 358.723 3.7358 359.254 3.50284C359.788 3.26989 360.401 3.15341 361.091 3.15341C361.795 3.15341 362.405 3.27131 362.919 3.5071C363.433 3.7429 363.83 4.07528 364.108 4.50426C364.389 4.9304 364.531 5.42898 364.534 6H362.267ZM368.725 12.1193C367.677 12.1193 366.852 11.8224 366.249 11.2287C365.65 10.6321 365.35 9.80398 365.35 8.74432C365.35 8.06818 365.487 7.47727 365.759 6.97159C366.032 6.46591 366.417 6.07244 366.914 5.79119C367.411 5.50994 367.998 5.36932 368.674 5.36932C369.333 5.36932 369.906 5.50426 370.391 5.77415C370.88 6.04403 371.258 6.4304 371.525 6.93324C371.795 7.43324 371.93 8.03125 371.93 8.72727V9.27273H367.668V9.375C367.668 9.69034 367.765 9.9517 367.958 10.1591C368.154 10.3636 368.427 10.4659 368.776 10.4659C369.018 10.4659 369.228 10.4162 369.407 10.3168C369.589 10.2145 369.714 10.071 369.782 9.88636H371.93C371.819 10.5682 371.484 11.1108 370.924 11.5142C370.367 11.9176 369.634 12.1193 368.725 12.1193ZM367.668 7.97727H369.765C369.759 7.69602 369.657 7.46733 369.458 7.29119C369.262 7.11222 369.018 7.02273 368.725 7.02273C368.438 7.02273 368.191 7.1108 367.984 7.28693C367.779 7.46307 367.674 7.69318 367.668 7.97727ZM372.89 12V5.45455H375.174V6.69886H375.242C375.361 6.23864 375.55 5.90199 375.809 5.68892C376.07 5.47585 376.375 5.36932 376.725 5.36932C376.921 5.36932 377.12 5.39915 377.321 5.45881V7.46591C377.205 7.42614 377.061 7.39631 376.891 7.37642C376.721 7.35653 376.574 7.34659 376.452 7.34659C376.105 7.34659 375.817 7.46023 375.587 7.6875C375.357 7.91477 375.242 8.21591 375.242 8.59091V12H372.89ZM384.888 5.45455L382.69 12H379.962L377.763 5.45455H380.235L381.292 9.78409H381.36L382.417 5.45455H384.888ZM385.628 12V5.45455H387.98V12H385.628ZM386.804 4.77273C386.486 4.77273 386.213 4.66761 385.986 4.45739C385.759 4.24716 385.645 3.99432 385.645 3.69886C385.645 3.40341 385.759 3.15057 385.986 2.94034C386.213 2.73011 386.486 2.625 386.804 2.625C387.125 2.625 387.398 2.73011 387.622 2.94034C387.849 3.15057 387.963 3.40341 387.963 3.69886C387.963 3.99432 387.849 4.24716 387.622 4.45739C387.398 4.66761 387.125 4.77273 386.804 4.77273ZM392.332 12.1193C391.622 12.1193 391.014 11.9787 390.508 11.6974C390.002 11.4134 389.615 11.0185 389.345 10.5128C389.075 10.0043 388.94 9.41477 388.94 8.74432C388.94 8.07386 389.075 7.4858 389.345 6.98011C389.615 6.47159 390.002 6.0767 390.508 5.79545C391.014 5.51136 391.622 5.36932 392.332 5.36932C392.974 5.36932 393.529 5.4858 393.998 5.71875C394.47 5.94886 394.835 6.27557 395.093 6.69886C395.352 7.11932 395.483 7.61364 395.485 8.18182H393.304C393.272 7.83807 393.173 7.5767 393.005 7.39773C392.841 7.21591 392.627 7.125 392.366 7.125C392.056 7.125 391.808 7.25852 391.62 7.52557C391.436 7.78977 391.343 8.19034 391.343 8.72727C391.343 9.2642 391.436 9.66619 391.62 9.93324C391.808 10.1974 392.056 10.3295 392.366 10.3295C392.625 10.3295 392.839 10.2401 393.01 10.0611C393.18 9.87926 393.278 9.61648 393.304 9.27273H395.485C395.474 10.1392 395.187 10.831 394.625 11.348C394.065 11.8622 393.301 12.1193 392.332 12.1193ZM399.592 12.1193C398.544 12.1193 397.719 11.8224 397.116 11.2287C396.517 10.6321 396.217 9.80398 396.217 8.74432C396.217 8.06818 396.354 7.47727 396.626 6.97159C396.899 6.46591 397.284 6.07244 397.781 5.79119C398.278 5.50994 398.865 5.36932 399.541 5.36932C400.2 5.36932 400.773 5.50426 401.259 5.77415C401.747 6.04403 402.125 6.4304 402.392 6.93324C402.662 7.43324 402.797 8.03125 402.797 8.72727V9.27273H398.536V9.375C398.536 9.69034 398.632 9.9517 398.825 10.1591C399.021 10.3636 399.294 10.4659 399.643 10.4659C399.885 10.4659 400.095 10.4162 400.274 10.3168C400.456 10.2145 400.581 10.071 400.649 9.88636H402.797C402.686 10.5682 402.351 11.1108 401.791 11.5142C401.234 11.9176 400.501 12.1193 399.592 12.1193ZM398.536 7.97727H400.632C400.626 7.69602 400.524 7.46733 400.325 7.29119C400.129 7.11222 399.885 7.02273 399.592 7.02273C399.305 7.02273 399.058 7.1108 398.851 7.28693C398.646 7.46307 398.541 7.69318 398.536 7.97727ZM406.113 12V3.27273H412.25V5.18182H408.483V6.68182H411.875V8.59091H408.483V12H406.113Z" fill="black"/>
<path d="M22.5 239L22.5 115M22.5 115L35 127.5M22.5 115L10 127.5" stroke="black" stroke-width="3"/>
<path d="M12 203.438L3.27273 203.438L3.27273 199.653C3.27273 198.656 3.47017 197.899 3.86506 197.382C4.25994 196.862 4.78977 196.602 5.45455 196.602C5.93466 196.602 6.34801 196.757 6.6946 197.067C7.04119 197.376 7.26421 197.784 7.36364 198.29L7.44886 198.29C7.46307 197.915 7.55824 197.574 7.73438 197.267C7.90767 196.96 8.14773 196.716 8.45455 196.534C8.75852 196.352 9.11648 196.261 9.52841 196.261C10.0057 196.261 10.4304 196.386 10.8026 196.636C11.1747 196.884 11.4673 197.236 11.6804 197.693C11.8935 198.151 12 198.696 12 199.33L12 203.438ZM10.108 201.068L10.108 199.96C10.108 199.165 9.8125 198.767 9.22159 198.767C8.91477 198.767 8.67898 198.871 8.51421 199.078C8.34943 199.283 8.26705 199.565 8.26705 199.926L8.26705 201.068L10.108 201.068ZM6.80114 201.068L6.80114 200.097C6.80114 199.784 6.72869 199.53 6.58381 199.334C6.43892 199.138 6.23295 199.04 5.96591 199.04C5.69602 199.04 5.49006 199.136 5.34801 199.33C5.20313 199.523 5.13068 199.767 5.13068 200.063L5.13068 201.068L6.80114 201.068ZM12 195.388L5.45455 195.388L5.45455 193.104L6.69886 193.104L6.69886 193.036C6.23864 192.913 5.90199 192.723 5.68892 192.464C5.47585 192.206 5.36932 191.902 5.36932 191.553C5.36932 191.382 5.39063 191.216 5.43324 191.054C5.47585 190.892 5.53409 190.746 5.60796 190.615L7.53409 191.297C7.48864 191.393 7.44887 191.494 7.41477 191.599C7.38068 191.705 7.36364 191.82 7.36364 191.945C7.36364 192.237 7.47585 192.491 7.70029 192.707C7.92188 192.923 8.21875 193.033 8.59091 193.036L12 193.036L12 195.388ZM12.1193 187.119C12.1193 188.167 11.8224 188.992 11.2287 189.594C10.6321 190.194 9.80398 190.494 8.74432 190.494C8.06818 190.494 7.47727 190.357 6.97159 190.085C6.46591 189.812 6.07244 189.427 5.7912 188.93C5.50995 188.433 5.36932 187.846 5.36932 187.17C5.36932 186.511 5.50426 185.938 5.77415 185.452C6.04404 184.964 6.4304 184.586 6.93324 184.319C7.43324 184.049 8.03125 183.914 8.72728 183.914L9.27273 183.914L9.27273 188.175L9.375 188.175C9.69034 188.175 9.95171 188.079 10.1591 187.886C10.3636 187.69 10.4659 187.417 10.4659 187.067C10.4659 186.826 10.4162 186.616 10.3168 186.437C10.2145 186.255 10.071 186.13 9.88637 186.062L9.88637 183.914C10.5682 184.025 11.1108 184.36 11.5142 184.92C11.9176 185.477 12.1193 186.21 12.1193 187.119ZM7.97727 188.175L7.97727 186.079C7.69602 186.085 7.46733 186.187 7.2912 186.386C7.11222 186.582 7.02273 186.826 7.02273 187.119C7.02273 187.406 7.1108 187.653 7.28693 187.86C7.46307 188.065 7.69318 188.17 7.97727 188.175ZM12.1023 181.13C12.1023 181.755 11.9474 182.267 11.6378 182.664C11.3253 183.062 10.8438 183.261 10.1932 183.261C9.71307 183.261 9.32671 183.154 9.03409 182.941C8.74148 182.728 8.52273 182.44 8.37784 182.076C8.23296 181.713 8.14489 181.306 8.11364 180.858C8.07387 180.306 8.01563 179.916 7.93892 179.686C7.85938 179.456 7.72443 179.341 7.53409 179.341L7.51705 179.341C7.34659 179.341 7.21591 179.406 7.125 179.537C7.03409 179.667 6.98864 179.835 6.98864 180.039C6.98864 180.264 7.03836 180.447 7.13779 180.589C7.23438 180.728 7.38353 180.812 7.58523 180.841L7.58523 183.005C7.1875 182.977 6.82103 182.85 6.4858 182.626C6.14773 182.399 5.87784 182.068 5.67614 181.633C5.47159 181.199 5.36932 180.656 5.36932 180.005C5.36932 179.38 5.46449 178.843 5.65483 178.395C5.84517 177.943 6.10228 177.596 6.42614 177.355C6.75 177.11 7.11364 176.988 7.51705 176.988L12 176.988L12 179.187L11.0795 179.187L11.0795 179.238C11.446 179.437 11.7088 179.696 11.8679 180.014C12.0242 180.332 12.1023 180.704 12.1023 181.13ZM10.6193 180.363C10.6193 180.096 10.5384 179.856 10.3764 179.643C10.2117 179.43 9.98012 179.324 9.68182 179.324L9.13637 179.324C9.23296 179.556 9.3125 179.869 9.375 180.261C9.41762 180.534 9.5 180.733 9.62216 180.858C9.74432 180.983 9.88921 181.045 10.0568 181.045C10.2386 181.045 10.3778 180.981 10.4744 180.853C10.571 180.725 10.6193 180.562 10.6193 180.363ZM12.0852 173.495C12.0852 173.961 11.9631 174.39 11.7188 174.782C11.4744 175.171 11.1037 175.484 10.6065 175.719C10.1094 175.952 9.48296 176.069 8.72728 176.069C7.9375 176.069 7.29546 175.947 6.80114 175.702C6.30682 175.455 5.94461 175.137 5.71449 174.748C5.48438 174.356 5.36932 173.944 5.36932 173.512C5.36932 173.026 5.49148 172.63 5.7358 172.323C5.97728 172.016 6.26421 171.799 6.5966 171.671L6.5966 171.637L3.27273 171.637L3.27273 169.285L12 169.285L12 171.62L10.9261 171.62L10.9261 171.671C11.2585 171.808 11.5355 172.031 11.7571 172.34C11.9759 172.65 12.0852 173.035 12.0852 173.495ZM10.2784 172.626C10.2784 172.302 10.1392 172.048 9.8608 171.863C9.58239 171.678 9.20455 171.586 8.72728 171.586C8.24148 171.586 7.86222 171.678 7.58949 171.863C7.31392 172.048 7.17614 172.302 7.17614 172.626C7.17614 172.95 7.31392 173.201 7.58949 173.38C7.86222 173.559 8.24148 173.648 8.72728 173.648C9.21307 173.648 9.59375 173.559 9.86932 173.38C10.142 173.201 10.2784 172.95 10.2784 172.626ZM5.45455 164.227L7.1591 164.227L7.1591 165.352L9.89489 165.352C10.1676 165.352 10.304 165.204 10.304 164.908C10.304 164.837 10.2955 164.755 10.2784 164.661C10.2614 164.565 10.2472 164.494 10.2358 164.448L11.8892 164.107C11.9205 164.212 11.9588 164.363 12.0043 164.559C12.0497 164.752 12.0796 164.982 12.0938 165.249C12.1392 166.062 11.9929 166.677 11.6548 167.094C11.3139 167.509 10.8011 167.712 10.1165 167.704L7.1591 167.704L7.1591 168.539L5.45455 168.539L5.45455 167.704L3.88637 167.704L3.88637 165.352L5.45455 165.352L5.45455 164.227ZM8.31819 160.774L12 160.774L12 163.126L3.27273 163.126L3.27273 160.859L6.69887 160.859L6.69887 160.791C6.28126 160.643 5.95597 160.397 5.72302 160.054C5.48722 159.71 5.36932 159.297 5.36932 158.814C5.36932 158.35 5.47444 157.949 5.68466 157.608C5.89489 157.264 6.18467 156.998 6.55398 156.811C6.9233 156.62 7.3466 156.527 7.82387 156.529L12 156.529L12 158.882L8.31819 158.882C7.99432 158.879 7.74006 158.96 7.5554 159.125C7.37074 159.287 7.27841 159.518 7.27841 159.819C7.27841 160.106 7.37074 160.336 7.5554 160.51C7.74006 160.683 7.99432 160.771 8.31819 160.774Z" fill="black"/>
</svg>
