<svg width="321" height="295" viewBox="0 0 321 295" fill="none" xmlns="http://www.w3.org/2000/svg">
<rect width="321" height="295" fill="white"/>
<rect x="9.5" y="184.5" width="154" height="101" fill="white" stroke="black" stroke-width="3"/>
<rect x="16.5" y="210.5" width="13" height="13" fill="black" stroke="black" stroke-width="3"/>
<rect x="34.5" y="210.5" width="13" height="13" fill="black" stroke="black" stroke-width="3"/>
<rect x="52.5" y="210.5" width="13" height="13" fill="black" stroke="black" stroke-width="3"/>
<rect x="70.5" y="210.5" width="13" height="13" fill="black" stroke="black" stroke-width="3"/>
<rect x="16.5" y="246.5" width="13" height="13" fill="black" stroke="black" stroke-width="3"/>
<rect x="34.5" y="246.5" width="13" height="13" fill="black" stroke="black" stroke-width="3"/>
<rect x="52.5" y="246.5" width="13" height="13" fill="black" stroke="black" stroke-width="3"/>
<rect x="16.5" y="264.5" width="13" height="13" fill="black" stroke="black" stroke-width="3"/>
<rect x="34.5" y="264.5" width="13" height="13" fill="black" stroke="black" stroke-width="3"/>
<rect x="52.5" y="264.5" width="13" height="13" fill="black" stroke="black" stroke-width="3"/>
<rect x="70.5" y="246.5" width="13" height="13" fill="black" stroke="black" stroke-width="3"/>
<rect x="88.5" y="246.5" width="13" height="13" fill="black" stroke="black" stroke-width="3"/>
<rect x="106.5" y="246.5" width="13" height="13" fill="black" stroke="black" stroke-width="3"/>
<rect x="124.5" y="246.5" width="13" height="13" fill="black" stroke="black" stroke-width="3"/>
<rect x="142.5" y="246.5" width="13" height="13" fill="black" stroke="black" stroke-width="3"/>
<rect x="16.5" y="228.5" width="13" height="13" fill="black" stroke="black" stroke-width="3"/>
<rect x="34.5" y="228.5" width="13" height="13" fill="black" stroke="black" stroke-width="3"/>
<rect x="52.5" y="228.5" width="13" height="13" fill="black" stroke="black" stroke-width="3"/>
<rect x="70.5" y="228.5" width="13" height="13" fill="black" stroke="black" stroke-width="3"/>
<rect x="88.5" y="210.5" width="13" height="13" fill="black" stroke="black" stroke-width="3"/>
<rect x="106.5" y="210.5" width="13" height="13" fill="black" stroke="black" stroke-width="3"/>
<rect x="124.5" y="210.5" width="13" height="13" fill="black" stroke="black" stroke-width="3"/>
<rect x="142.5" y="210.5" width="13" height="13" fill="black" stroke="black" stroke-width="3"/>
<rect x="88.5" y="228.5" width="13" height="13" fill="black" stroke="black" stroke-width="3"/>
<rect x="106.5" y="228.5" width="13" height="13" fill="black" stroke="black" stroke-width="3"/>
<rect x="124.5" y="228.5" width="13" height="13" fill="black" stroke="black" stroke-width="3"/>
<rect x="142.5" y="228.5" width="13" height="13" fill="black" stroke="black" stroke-width="3"/>
<path d="M15.1705 163.852C15.1326 163.436 14.964 163.112 14.6648 162.881C14.3693 162.646 13.947 162.528 13.3977 162.528C12.8523 162.528 12.4432 162.633 12.1705 162.841C11.8977 163.045 11.7595 163.307 11.7557 163.625C11.7443 163.97 11.8939 164.241 12.2045 164.438C12.5152 164.631 12.9337 164.784 13.4602 164.898L14.4602 165.125C15.608 165.379 16.4867 165.794 17.0966 166.369C17.7102 166.945 18.0189 167.697 18.0227 168.625C18.0189 169.731 17.6098 170.595 16.7955 171.216C15.9811 171.837 14.8485 172.148 13.3977 172.148C11.9356 172.148 10.7652 171.818 9.88636 171.159C9.01136 170.496 8.56439 169.485 8.54545 168.125H11.2386C11.2689 168.686 11.4754 169.11 11.858 169.398C12.2405 169.682 12.7424 169.824 13.3636 169.824C13.928 169.824 14.3693 169.712 14.6875 169.489C15.0057 169.265 15.1667 168.975 15.1705 168.619C15.1667 168.294 15.0152 168.034 14.7159 167.841C14.4167 167.644 13.947 167.472 13.3068 167.324L12.0909 167.04C11.0871 166.809 10.2936 166.436 9.71023 165.92C9.13068 165.402 8.8428 164.701 8.84659 163.818C8.8428 163.095 9.03598 162.462 9.42614 161.92C9.81629 161.379 10.3542 160.958 11.0398 160.659C11.7292 160.356 12.517 160.205 13.4034 160.205C14.3049 160.205 15.0871 160.358 15.75 160.665C16.4167 160.968 16.9337 161.394 17.3011 161.943C17.6686 162.489 17.8561 163.125 17.8636 163.852H15.1705ZM23.5227 172.165C22.1515 172.165 21.072 171.765 20.2841 170.966C19.5 170.167 19.108 169.068 19.108 167.67C19.108 166.769 19.286 165.981 19.642 165.307C19.9981 164.629 20.5 164.102 21.1477 163.727C21.7955 163.348 22.5587 163.159 23.4375 163.159C24.2633 163.159 24.9943 163.331 25.6307 163.676C26.267 164.017 26.7652 164.519 27.125 165.182C27.4848 165.845 27.6648 166.655 27.6648 167.614V168.307H21.8466V168.381C21.8466 168.915 22 169.345 22.3068 169.67C22.6174 169.996 23.0398 170.159 23.5739 170.159C23.9375 170.159 24.2538 170.083 24.5227 169.932C24.7917 169.777 24.9792 169.555 25.0852 169.267L27.6364 169.341C27.4773 170.197 27.0379 170.883 26.3182 171.398C25.5985 171.909 24.6667 172.165 23.5227 172.165ZM21.8466 166.693H25.0795C25.0758 166.246 24.9242 165.881 24.625 165.597C24.3295 165.309 23.9527 165.165 23.4943 165.165C23.0322 165.165 22.6458 165.311 22.3352 165.602C22.0284 165.894 21.8655 166.258 21.8466 166.693ZM29.0838 172V163.273H31.7827V164.864H31.8736C32.0327 164.288 32.2921 163.86 32.652 163.58C33.0118 163.295 33.4304 163.153 33.9077 163.153C34.1728 163.153 34.4323 163.188 34.6861 163.256V165.67C34.5535 165.625 34.3793 165.589 34.1634 165.562C33.9512 165.536 33.7618 165.523 33.5952 165.523C33.099 165.523 32.6861 165.684 32.3565 166.006C32.027 166.324 31.8622 166.742 31.8622 167.261V172H29.0838ZM44.5497 163.273L41.5554 172H38.3736L35.3849 163.273H38.3111L39.919 169.284H40.0099L41.6236 163.273H44.5497ZM45.8026 172V163.273H48.581V172H45.8026ZM47.1946 162.256C46.8045 162.256 46.4692 162.127 46.1889 161.869C45.9086 161.608 45.7685 161.294 45.7685 160.926C45.7685 160.559 45.9086 160.246 46.1889 159.989C46.4692 159.731 46.8045 159.602 47.1946 159.602C47.5885 159.602 47.9238 159.731 48.2003 159.989C48.4806 160.246 48.6207 160.559 48.6207 160.926C48.6207 161.294 48.4806 161.608 48.2003 161.869C47.9238 162.127 47.5885 162.256 47.1946 162.256ZM54.4233 172.165C53.5028 172.165 52.7131 171.975 52.054 171.597C51.3987 171.214 50.8949 170.686 50.5426 170.011C50.1903 169.333 50.0142 168.551 50.0142 167.665C50.0142 166.771 50.1903 165.987 50.5426 165.312C50.8949 164.634 51.4006 164.106 52.0597 163.727C52.7188 163.348 53.5047 163.159 54.4176 163.159C55.2282 163.159 55.9328 163.305 56.5312 163.597C57.1297 163.888 57.5975 164.301 57.9347 164.835C58.2756 165.366 58.4555 165.989 58.4744 166.705H55.8778C55.8248 166.258 55.6733 165.907 55.4233 165.653C55.1771 165.4 54.8551 165.273 54.4574 165.273C53.9725 165.273 53.5824 165.475 53.2869 165.881C52.9915 166.282 52.8438 166.867 52.8438 167.636C52.8438 168.413 52.9896 169.004 53.2812 169.409C53.5767 169.811 53.9688 170.011 54.4574 170.011C54.84 170.011 55.16 169.888 55.4176 169.642C55.6752 169.396 55.8286 169.042 55.8778 168.58H58.4744C58.4517 169.299 58.2737 169.928 57.9403 170.466C57.607 171.004 57.1411 171.422 56.5426 171.722C55.9479 172.017 55.2415 172.165 54.4233 172.165ZM63.9759 172.165C62.6046 172.165 61.5251 171.765 60.7372 170.966C59.9531 170.167 59.5611 169.068 59.5611 167.67C59.5611 166.769 59.7391 165.981 60.0952 165.307C60.4512 164.629 60.9531 164.102 61.6009 163.727C62.2486 163.348 63.0118 163.159 63.8906 163.159C64.7164 163.159 65.4474 163.331 66.0838 163.676C66.7202 164.017 67.2183 164.519 67.5781 165.182C67.938 165.845 68.1179 166.655 68.1179 167.614V168.307H62.2997V168.381C62.2997 168.915 62.4531 169.345 62.7599 169.67C63.0705 169.996 63.4929 170.159 64.027 170.159C64.3906 170.159 64.7069 170.083 64.9759 169.932C65.2448 169.777 65.4323 169.555 65.5384 169.267L68.0895 169.341C67.9304 170.197 67.491 170.883 66.7713 171.398C66.0516 171.909 65.1198 172.165 63.9759 172.165ZM62.2997 166.693H65.5327C65.5289 166.246 65.3774 165.881 65.0781 165.597C64.7827 165.309 64.4058 165.165 63.9474 165.165C63.4853 165.165 63.099 165.311 62.7884 165.602C62.4815 165.894 62.3187 166.258 62.2997 166.693Z" fill="black"/>
<rect x="1.5" y="150.5" width="170" height="143" stroke="black" stroke-width="3"/>
<path d="M15.8807 192.364H19.3636L22.3182 199.568H22.4545L25.4091 192.364H28.892V204H26.1534V196.852H26.0568L23.2614 203.926H21.5114L18.7159 196.812H18.6193V204H15.8807V192.364ZM30.7244 204V195.273H33.5028V204H30.7244ZM32.1165 194.256C31.7263 194.256 31.3911 194.127 31.1108 193.869C30.8305 193.608 30.6903 193.294 30.6903 192.926C30.6903 192.559 30.8305 192.246 31.1108 191.989C31.3911 191.731 31.7263 191.602 32.1165 191.602C32.5104 191.602 32.8456 191.731 33.1222 191.989C33.4025 192.246 33.5426 192.559 33.5426 192.926C33.5426 193.294 33.4025 193.608 33.1222 193.869C32.8456 194.127 32.5104 194.256 32.1165 194.256ZM39.3452 204.165C38.4247 204.165 37.6349 203.975 36.9759 203.597C36.3205 203.214 35.8168 202.686 35.4645 202.011C35.1122 201.333 34.9361 200.551 34.9361 199.665C34.9361 198.771 35.1122 197.987 35.4645 197.312C35.8168 196.634 36.3224 196.106 36.9815 195.727C37.6406 195.348 38.4266 195.159 39.3395 195.159C40.1501 195.159 40.8546 195.305 41.4531 195.597C42.0516 195.888 42.5194 196.301 42.8565 196.835C43.1974 197.366 43.3774 197.989 43.3963 198.705H40.7997C40.7467 198.258 40.5952 197.907 40.3452 197.653C40.099 197.4 39.777 197.273 39.3793 197.273C38.8944 197.273 38.5043 197.475 38.2088 197.881C37.9134 198.282 37.7656 198.867 37.7656 199.636C37.7656 200.413 37.9115 201.004 38.2031 201.409C38.4986 201.811 38.8906 202.011 39.3793 202.011C39.7618 202.011 40.0819 201.888 40.3395 201.642C40.5971 201.396 40.7505 201.042 40.7997 200.58H43.3963C43.3736 201.299 43.1955 201.928 42.8622 202.466C42.5289 203.004 42.063 203.422 41.4645 203.722C40.8698 204.017 40.1634 204.165 39.3452 204.165ZM44.8182 204V195.273H47.517V196.864H47.608C47.767 196.288 48.0265 195.86 48.3864 195.58C48.7462 195.295 49.1648 195.153 49.642 195.153C49.8731 195.153 50.0928 195.182 50.3011 195.239C50.5095 195.295 50.697 195.373 50.8636 195.472L50.0455 197.756C49.9242 197.699 49.7936 197.65 49.6534 197.608C49.517 197.562 49.3655 197.54 49.1989 197.54C48.7633 197.54 48.3883 197.697 48.0739 198.011C47.7595 198.326 47.6004 198.742 47.5966 199.261V204H44.8182ZM55.5483 204.165C54.6354 204.165 53.8494 203.977 53.1903 203.602C52.5313 203.223 52.0237 202.697 51.6676 202.023C51.3153 201.345 51.1392 200.559 51.1392 199.665C51.1392 198.767 51.3153 197.981 51.6676 197.307C52.0237 196.629 52.5313 196.102 53.1903 195.727C53.8494 195.348 54.6354 195.159 55.5483 195.159C56.465 195.159 57.2509 195.348 57.9062 195.727C58.5653 196.102 59.071 196.629 59.4233 197.307C59.7794 197.981 59.9574 198.767 59.9574 199.665C59.9574 200.559 59.7794 201.345 59.4233 202.023C59.071 202.697 58.5653 203.223 57.9062 203.602C57.2509 203.977 56.465 204.165 55.5483 204.165ZM55.5653 202.068C56.0616 202.068 56.446 201.845 56.7188 201.398C56.9915 200.951 57.1278 200.367 57.1278 199.648C57.1278 198.924 56.9915 198.339 56.7188 197.892C56.446 197.441 56.0616 197.216 55.5653 197.216C55.0502 197.216 54.6544 197.441 54.3778 197.892C54.1051 198.339 53.9688 198.924 53.9688 199.648C53.9688 200.367 54.1051 200.951 54.3778 201.398C54.6544 201.845 55.0502 202.068 55.5653 202.068Z" fill="black"/>
<rect x="1.5" y="1.5" width="170" height="93" stroke="black" stroke-width="3"/>
<path d="M21.9375 42.3636H24.7273V50.0511C24.7273 50.9337 24.5208 51.6799 24.108 52.2898C23.6951 52.8996 23.1193 53.3617 22.3807 53.6761C21.642 53.9905 20.7841 54.1477 19.8068 54.1477C18.8258 54.1477 17.964 53.9905 17.2216 53.6761C16.483 53.3617 15.9072 52.8996 15.4943 52.2898C15.0852 51.6799 14.8807 50.9337 14.8807 50.0511V42.3636H17.6932V49.9432C17.6932 50.4697 17.8883 50.8902 18.2784 51.2045C18.6686 51.5152 19.178 51.6705 19.8068 51.6705C20.4432 51.6705 20.9564 51.5152 21.3466 51.2045C21.7405 50.8902 21.9375 50.4697 21.9375 49.9432V42.3636ZM34.1094 47.9375L31.5582 48.0057C31.5204 47.7292 31.3821 47.5038 31.1435 47.3295C30.9048 47.1515 30.6018 47.0625 30.2344 47.0625C29.9124 47.0625 29.6378 47.1269 29.4105 47.2557C29.187 47.3807 29.0772 47.5549 29.081 47.7784C29.0772 47.9451 29.1454 48.0928 29.2855 48.2216C29.4295 48.3466 29.6851 48.447 30.0526 48.5227L31.7344 48.8409C33.4503 49.1705 34.3139 49.9583 34.3253 51.2045C34.3215 51.803 34.1435 52.3239 33.7912 52.767C33.4427 53.2102 32.9654 53.5549 32.3594 53.8011C31.7533 54.0436 31.0601 54.1648 30.2798 54.1648C29.0336 54.1648 28.0507 53.9091 27.331 53.3977C26.6113 52.8826 26.2022 52.1932 26.1037 51.3295L28.848 51.2614C28.9086 51.5795 29.0658 51.822 29.3196 51.9886C29.5734 52.1553 29.8973 52.2386 30.2912 52.2386C30.6473 52.2386 30.937 52.1723 31.1605 52.0398C31.384 51.9072 31.4976 51.7311 31.5014 51.5114C31.4901 51.1439 31.1359 50.892 30.4389 50.7557L28.9162 50.4659C27.1776 50.1439 26.3139 49.3011 26.3253 47.9375C26.3215 47.0625 26.6681 46.3807 27.3651 45.892C28.062 45.4034 29.0014 45.1591 30.1832 45.1591C31.3651 45.1591 32.2969 45.4072 32.9787 45.9034C33.6605 46.3958 34.0374 47.0739 34.1094 47.9375ZM39.7727 54.1648C38.4015 54.1648 37.322 53.7652 36.5341 52.9659C35.75 52.1667 35.358 51.0682 35.358 49.6705C35.358 48.7689 35.536 47.9811 35.892 47.3068C36.2481 46.6288 36.75 46.1023 37.3977 45.7273C38.0455 45.3485 38.8087 45.1591 39.6875 45.1591C40.5133 45.1591 41.2443 45.3314 41.8807 45.6761C42.517 46.017 43.0152 46.5189 43.375 47.1818C43.7348 47.8447 43.9148 48.6553 43.9148 49.6136V50.3068H38.0966V50.3807C38.0966 50.9148 38.25 51.3447 38.5568 51.6705C38.8674 51.9962 39.2898 52.1591 39.8239 52.1591C40.1875 52.1591 40.5038 52.0833 40.7727 51.9318C41.0417 51.7765 41.2292 51.5549 41.3352 51.267L43.8864 51.3409C43.7273 52.197 43.2879 52.8826 42.5682 53.3977C41.8485 53.9091 40.9167 54.1648 39.7727 54.1648ZM38.0966 48.6932H41.3295C41.3258 48.2462 41.1742 47.8807 40.875 47.5966C40.5795 47.3087 40.2027 47.1648 39.7443 47.1648C39.2822 47.1648 38.8958 47.3106 38.5852 47.6023C38.2784 47.8939 38.1155 48.2576 38.0966 48.6932ZM45.3338 54V45.2727H48.0327V46.8636H48.1236C48.2827 46.2879 48.5421 45.8598 48.902 45.5795C49.2618 45.2955 49.6804 45.1534 50.1577 45.1534C50.3887 45.1534 50.6084 45.1818 50.8168 45.2386C51.0251 45.2955 51.2126 45.3731 51.3793 45.4716L50.5611 47.7557C50.4399 47.6989 50.3092 47.6496 50.169 47.608C50.0327 47.5625 49.8812 47.5398 49.7145 47.5398C49.2789 47.5398 48.9039 47.697 48.5895 48.0114C48.2751 48.3258 48.116 48.7424 48.1122 49.2614V54H45.3338Z" fill="black"/>
<path d="M196.938 114.364H199.727V122.051C199.727 122.934 199.521 123.68 199.108 124.29C198.695 124.9 198.119 125.362 197.381 125.676C196.642 125.991 195.784 126.148 194.807 126.148C193.826 126.148 192.964 125.991 192.222 125.676C191.483 125.362 190.907 124.9 190.494 124.29C190.085 123.68 189.881 122.934 189.881 122.051V114.364H192.693V121.943C192.693 122.47 192.888 122.89 193.278 123.205C193.669 123.515 194.178 123.67 194.807 123.67C195.443 123.67 195.956 123.515 196.347 123.205C196.741 122.89 196.938 122.47 196.938 121.943V114.364ZM209.109 119.938L206.558 120.006C206.52 119.729 206.382 119.504 206.143 119.33C205.905 119.152 205.602 119.062 205.234 119.062C204.912 119.062 204.638 119.127 204.411 119.256C204.187 119.381 204.077 119.555 204.081 119.778C204.077 119.945 204.145 120.093 204.286 120.222C204.429 120.347 204.685 120.447 205.053 120.523L206.734 120.841C208.45 121.17 209.314 121.958 209.325 123.205C209.321 123.803 209.143 124.324 208.791 124.767C208.443 125.21 207.965 125.555 207.359 125.801C206.753 126.044 206.06 126.165 205.28 126.165C204.034 126.165 203.051 125.909 202.331 125.398C201.611 124.883 201.202 124.193 201.104 123.33L203.848 123.261C203.909 123.58 204.066 123.822 204.32 123.989C204.573 124.155 204.897 124.239 205.291 124.239C205.647 124.239 205.937 124.172 206.161 124.04C206.384 123.907 206.498 123.731 206.501 123.511C206.49 123.144 206.136 122.892 205.439 122.756L203.916 122.466C202.178 122.144 201.314 121.301 201.325 119.938C201.321 119.062 201.668 118.381 202.365 117.892C203.062 117.403 204.001 117.159 205.183 117.159C206.365 117.159 207.297 117.407 207.979 117.903C208.661 118.396 209.037 119.074 209.109 119.938ZM214.773 126.165C213.402 126.165 212.322 125.765 211.534 124.966C210.75 124.167 210.358 123.068 210.358 121.67C210.358 120.769 210.536 119.981 210.892 119.307C211.248 118.629 211.75 118.102 212.398 117.727C213.045 117.348 213.809 117.159 214.688 117.159C215.513 117.159 216.244 117.331 216.881 117.676C217.517 118.017 218.015 118.519 218.375 119.182C218.735 119.845 218.915 120.655 218.915 121.614V122.307H213.097V122.381C213.097 122.915 213.25 123.345 213.557 123.67C213.867 123.996 214.29 124.159 214.824 124.159C215.188 124.159 215.504 124.083 215.773 123.932C216.042 123.777 216.229 123.555 216.335 123.267L218.886 123.341C218.727 124.197 218.288 124.883 217.568 125.398C216.848 125.909 215.917 126.165 214.773 126.165ZM213.097 120.693H216.33C216.326 120.246 216.174 119.881 215.875 119.597C215.58 119.309 215.203 119.165 214.744 119.165C214.282 119.165 213.896 119.311 213.585 119.602C213.278 119.894 213.116 120.258 213.097 120.693ZM220.334 126V117.273H223.033V118.864H223.124C223.283 118.288 223.542 117.86 223.902 117.58C224.262 117.295 224.68 117.153 225.158 117.153C225.389 117.153 225.608 117.182 225.817 117.239C226.025 117.295 226.213 117.373 226.379 117.472L225.561 119.756C225.44 119.699 225.309 119.65 225.169 119.608C225.033 119.562 224.881 119.54 224.714 119.54C224.279 119.54 223.904 119.697 223.589 120.011C223.275 120.326 223.116 120.742 223.112 121.261V126H220.334ZM233.693 114.364V126H230.881V114.364H233.693ZM238.237 121.023V126H235.459V117.273H238.101V118.875H238.197C238.391 118.345 238.72 117.926 239.186 117.619C239.652 117.312 240.207 117.159 240.851 117.159C241.464 117.159 241.997 117.295 242.447 117.568C242.902 117.841 243.254 118.223 243.504 118.716C243.758 119.208 243.883 119.782 243.879 120.438V126H241.101V120.983C241.105 120.498 240.982 120.119 240.732 119.847C240.485 119.574 240.143 119.438 239.703 119.438C239.264 119.438 238.91 119.578 238.641 119.858C238.375 120.138 238.241 120.527 238.237 121.023ZM250.526 117.273V119.318H248.952V123.256C248.952 123.513 249.012 123.695 249.134 123.801C249.259 123.903 249.433 123.955 249.656 123.955C249.762 123.955 249.874 123.945 249.991 123.926C250.113 123.903 250.204 123.884 250.264 123.869L250.685 125.875C250.552 125.913 250.366 125.958 250.128 126.011C249.889 126.068 249.601 126.106 249.264 126.125C248.283 126.17 247.52 125.975 246.974 125.54C246.433 125.104 246.166 124.445 246.173 123.562V119.318H245.02V117.273H246.173V115.182H248.952V117.273H250.526ZM255.929 126.165C254.558 126.165 253.478 125.765 252.69 124.966C251.906 124.167 251.514 123.068 251.514 121.67C251.514 120.769 251.692 119.981 252.048 119.307C252.404 118.629 252.906 118.102 253.554 117.727C254.202 117.348 254.965 117.159 255.844 117.159C256.67 117.159 257.401 117.331 258.037 117.676C258.673 118.017 259.171 118.519 259.531 119.182C259.891 119.845 260.071 120.655 260.071 121.614V122.307H254.253V122.381C254.253 122.915 254.406 123.345 254.713 123.67C255.024 123.996 255.446 124.159 255.98 124.159C256.344 124.159 256.66 124.083 256.929 123.932C257.198 123.777 257.385 123.555 257.491 123.267L260.043 123.341C259.884 124.197 259.444 124.883 258.724 125.398C258.005 125.909 257.073 126.165 255.929 126.165ZM254.253 120.693H257.486C257.482 120.246 257.33 119.881 257.031 119.597C256.736 119.309 256.359 119.165 255.901 119.165C255.438 119.165 255.052 119.311 254.741 119.602C254.435 119.894 254.272 120.258 254.253 120.693ZM261.49 126V117.273H264.189V118.864H264.28C264.439 118.288 264.698 117.86 265.058 117.58C265.418 117.295 265.837 117.153 266.314 117.153C266.579 117.153 266.839 117.188 267.092 117.256V119.67C266.96 119.625 266.786 119.589 266.57 119.562C266.357 119.536 266.168 119.523 266.001 119.523C265.505 119.523 265.092 119.684 264.763 120.006C264.433 120.324 264.268 120.742 264.268 121.261V126H261.49ZM273.48 117.273V119.318H271.815V126H269.043V119.318H267.866V117.273H269.043V116.83C269.043 115.818 269.319 115.064 269.872 114.568C270.429 114.068 271.152 113.818 272.043 113.818C272.425 113.818 272.789 113.848 273.134 113.909C273.478 113.966 273.732 114.017 273.895 114.062L273.452 116.097C273.349 116.066 273.226 116.04 273.082 116.017C272.938 115.991 272.8 115.977 272.668 115.977C272.346 115.977 272.122 116.049 271.997 116.193C271.876 116.337 271.815 116.534 271.815 116.784V117.273H273.48ZM276.919 126.148C276.086 126.148 275.398 125.936 274.857 125.511C274.319 125.087 274.05 124.443 274.05 123.58C274.05 122.936 274.197 122.424 274.493 122.045C274.788 121.663 275.182 121.381 275.675 121.199C276.167 121.013 276.707 120.896 277.294 120.847C278.04 120.782 278.571 120.703 278.885 120.608C279.203 120.513 279.362 120.333 279.362 120.068V120.04C279.362 119.748 279.262 119.523 279.061 119.364C278.86 119.205 278.589 119.125 278.249 119.125C277.881 119.125 277.586 119.205 277.362 119.364C277.139 119.523 276.997 119.742 276.936 120.023L274.374 119.932C274.483 119.136 274.866 118.475 275.521 117.949C276.18 117.422 277.097 117.159 278.271 117.159C279.014 117.159 279.675 117.275 280.254 117.506C280.838 117.733 281.296 118.062 281.629 118.494C281.966 118.926 282.135 119.451 282.135 120.068V126H279.521V124.784H279.453C278.968 125.693 278.124 126.148 276.919 126.148ZM277.777 124.33C278.22 124.33 278.597 124.197 278.908 123.932C279.222 123.667 279.379 123.322 279.379 122.898V122.068C279.224 122.152 279.004 122.222 278.72 122.278C278.44 122.335 278.171 122.383 277.913 122.42C277.091 122.545 276.68 122.886 276.68 123.443C276.68 123.731 276.783 123.951 276.987 124.102C277.192 124.254 277.455 124.33 277.777 124.33ZM287.908 126.165C286.987 126.165 286.197 125.975 285.538 125.597C284.883 125.214 284.379 124.686 284.027 124.011C283.675 123.333 283.499 122.551 283.499 121.665C283.499 120.771 283.675 119.987 284.027 119.312C284.379 118.634 284.885 118.106 285.544 117.727C286.203 117.348 286.989 117.159 287.902 117.159C288.713 117.159 289.417 117.305 290.016 117.597C290.614 117.888 291.082 118.301 291.419 118.835C291.76 119.366 291.94 119.989 291.959 120.705H289.362C289.309 120.258 289.158 119.907 288.908 119.653C288.661 119.4 288.339 119.273 287.942 119.273C287.457 119.273 287.067 119.475 286.771 119.881C286.476 120.282 286.328 120.867 286.328 121.636C286.328 122.413 286.474 123.004 286.766 123.409C287.061 123.811 287.453 124.011 287.942 124.011C288.324 124.011 288.644 123.888 288.902 123.642C289.16 123.396 289.313 123.042 289.362 122.58H291.959C291.936 123.299 291.758 123.928 291.425 124.466C291.091 125.004 290.625 125.422 290.027 125.722C289.432 126.017 288.726 126.165 287.908 126.165ZM297.46 126.165C296.089 126.165 295.009 125.765 294.222 124.966C293.438 124.167 293.045 123.068 293.045 121.67C293.045 120.769 293.223 119.981 293.58 119.307C293.936 118.629 294.438 118.102 295.085 117.727C295.733 117.348 296.496 117.159 297.375 117.159C298.201 117.159 298.932 117.331 299.568 117.676C300.205 118.017 300.703 118.519 301.062 119.182C301.422 119.845 301.602 120.655 301.602 121.614V122.307H295.784V122.381C295.784 122.915 295.938 123.345 296.244 123.67C296.555 123.996 296.977 124.159 297.511 124.159C297.875 124.159 298.191 124.083 298.46 123.932C298.729 123.777 298.917 123.555 299.023 123.267L301.574 123.341C301.415 124.197 300.975 124.883 300.256 125.398C299.536 125.909 298.604 126.165 297.46 126.165ZM295.784 120.693H299.017C299.013 120.246 298.862 119.881 298.562 119.597C298.267 119.309 297.89 119.165 297.432 119.165C296.97 119.165 296.583 119.311 296.273 119.602C295.966 119.894 295.803 120.258 295.784 120.693Z" fill="black"/>
<path d="M196.17 163.852C196.133 163.436 195.964 163.112 195.665 162.881C195.369 162.646 194.947 162.528 194.398 162.528C193.852 162.528 193.443 162.633 193.17 162.841C192.898 163.045 192.759 163.307 192.756 163.625C192.744 163.97 192.894 164.241 193.205 164.438C193.515 164.631 193.934 164.784 194.46 164.898L195.46 165.125C196.608 165.379 197.487 165.794 198.097 166.369C198.71 166.945 199.019 167.697 199.023 168.625C199.019 169.731 198.61 170.595 197.795 171.216C196.981 171.837 195.848 172.148 194.398 172.148C192.936 172.148 191.765 171.818 190.886 171.159C190.011 170.496 189.564 169.485 189.545 168.125H192.239C192.269 168.686 192.475 169.11 192.858 169.398C193.241 169.682 193.742 169.824 194.364 169.824C194.928 169.824 195.369 169.712 195.688 169.489C196.006 169.265 196.167 168.975 196.17 168.619C196.167 168.294 196.015 168.034 195.716 167.841C195.417 167.644 194.947 167.472 194.307 167.324L193.091 167.04C192.087 166.809 191.294 166.436 190.71 165.92C190.131 165.402 189.843 164.701 189.847 163.818C189.843 163.095 190.036 162.462 190.426 161.92C190.816 161.379 191.354 160.958 192.04 160.659C192.729 160.356 193.517 160.205 194.403 160.205C195.305 160.205 196.087 160.358 196.75 160.665C197.417 160.968 197.934 161.394 198.301 161.943C198.669 162.489 198.856 163.125 198.864 163.852H196.17ZM204.523 172.165C203.152 172.165 202.072 171.765 201.284 170.966C200.5 170.167 200.108 169.068 200.108 167.67C200.108 166.769 200.286 165.981 200.642 165.307C200.998 164.629 201.5 164.102 202.148 163.727C202.795 163.348 203.559 163.159 204.438 163.159C205.263 163.159 205.994 163.331 206.631 163.676C207.267 164.017 207.765 164.519 208.125 165.182C208.485 165.845 208.665 166.655 208.665 167.614V168.307H202.847V168.381C202.847 168.915 203 169.345 203.307 169.67C203.617 169.996 204.04 170.159 204.574 170.159C204.938 170.159 205.254 170.083 205.523 169.932C205.792 169.777 205.979 169.555 206.085 169.267L208.636 169.341C208.477 170.197 208.038 170.883 207.318 171.398C206.598 171.909 205.667 172.165 204.523 172.165ZM202.847 166.693H206.08C206.076 166.246 205.924 165.881 205.625 165.597C205.33 165.309 204.953 165.165 204.494 165.165C204.032 165.165 203.646 165.311 203.335 165.602C203.028 165.894 202.866 166.258 202.847 166.693ZM210.084 172V163.273H212.783V164.864H212.874C213.033 164.288 213.292 163.86 213.652 163.58C214.012 163.295 214.43 163.153 214.908 163.153C215.173 163.153 215.432 163.188 215.686 163.256V165.67C215.554 165.625 215.379 165.589 215.163 165.562C214.951 165.536 214.762 165.523 214.595 165.523C214.099 165.523 213.686 165.684 213.357 166.006C213.027 166.324 212.862 166.742 212.862 167.261V172H210.084ZM225.55 163.273L222.555 172H219.374L216.385 163.273H219.311L220.919 169.284H221.01L222.624 163.273H225.55ZM226.803 172V163.273H229.581V172H226.803ZM228.195 162.256C227.804 162.256 227.469 162.127 227.189 161.869C226.909 161.608 226.768 161.294 226.768 160.926C226.768 160.559 226.909 160.246 227.189 159.989C227.469 159.731 227.804 159.602 228.195 159.602C228.589 159.602 228.924 159.731 229.2 159.989C229.481 160.246 229.621 160.559 229.621 160.926C229.621 161.294 229.481 161.608 229.2 161.869C228.924 162.127 228.589 162.256 228.195 162.256ZM235.423 172.165C234.503 172.165 233.713 171.975 233.054 171.597C232.399 171.214 231.895 170.686 231.543 170.011C231.19 169.333 231.014 168.551 231.014 167.665C231.014 166.771 231.19 165.987 231.543 165.312C231.895 164.634 232.401 164.106 233.06 163.727C233.719 163.348 234.505 163.159 235.418 163.159C236.228 163.159 236.933 163.305 237.531 163.597C238.13 163.888 238.598 164.301 238.935 164.835C239.276 165.366 239.455 165.989 239.474 166.705H236.878C236.825 166.258 236.673 165.907 236.423 165.653C236.177 165.4 235.855 165.273 235.457 165.273C234.973 165.273 234.582 165.475 234.287 165.881C233.991 166.282 233.844 166.867 233.844 167.636C233.844 168.413 233.99 169.004 234.281 169.409C234.577 169.811 234.969 170.011 235.457 170.011C235.84 170.011 236.16 169.888 236.418 169.642C236.675 169.396 236.829 169.042 236.878 168.58H239.474C239.452 169.299 239.274 169.928 238.94 170.466C238.607 171.004 238.141 171.422 237.543 171.722C236.948 172.017 236.241 172.165 235.423 172.165ZM244.976 172.165C243.605 172.165 242.525 171.765 241.737 170.966C240.953 170.167 240.561 169.068 240.561 167.67C240.561 166.769 240.739 165.981 241.095 165.307C241.451 164.629 241.953 164.102 242.601 163.727C243.249 163.348 244.012 163.159 244.891 163.159C245.716 163.159 246.447 163.331 247.084 163.676C247.72 164.017 248.218 164.519 248.578 165.182C248.938 165.845 249.118 166.655 249.118 167.614V168.307H243.3V168.381C243.3 168.915 243.453 169.345 243.76 169.67C244.071 169.996 244.493 170.159 245.027 170.159C245.391 170.159 245.707 170.083 245.976 169.932C246.245 169.777 246.432 169.555 246.538 169.267L249.089 169.341C248.93 170.197 248.491 170.883 247.771 171.398C247.052 171.909 246.12 172.165 244.976 172.165ZM243.3 166.693H246.533C246.529 166.246 246.377 165.881 246.078 165.597C245.783 165.309 245.406 165.165 244.947 165.165C244.485 165.165 244.099 165.311 243.788 165.602C243.482 165.894 243.319 166.258 243.3 166.693ZM253.974 172V160.364H258.827C260.134 160.364 261.12 160.634 261.787 161.176C262.457 161.718 262.793 162.428 262.793 163.307C262.793 163.97 262.59 164.523 262.185 164.966C261.779 165.409 261.257 165.697 260.616 165.83V165.943C261.086 165.962 261.52 166.089 261.918 166.324C262.319 166.555 262.641 166.877 262.884 167.29C263.126 167.699 263.247 168.184 263.247 168.744C263.247 169.369 263.088 169.928 262.77 170.42C262.452 170.909 261.991 171.295 261.389 171.58C260.787 171.86 260.056 172 259.196 172H253.974ZM256.787 169.733H258.526C259.135 169.733 259.584 169.617 259.872 169.386C260.164 169.155 260.31 168.833 260.31 168.42C260.31 167.973 260.154 167.619 259.844 167.358C259.537 167.093 259.115 166.96 258.577 166.96H256.787V169.733ZM256.787 165.148H258.344C258.806 165.148 259.185 165.034 259.48 164.807C259.776 164.58 259.923 164.261 259.923 163.852C259.923 163.466 259.785 163.161 259.509 162.938C259.232 162.71 258.859 162.597 258.389 162.597H256.787V165.148ZM267.06 172.148C266.226 172.148 265.539 171.936 264.997 171.511C264.459 171.087 264.19 170.443 264.19 169.58C264.19 168.936 264.338 168.424 264.634 168.045C264.929 167.663 265.323 167.381 265.815 167.199C266.308 167.013 266.848 166.896 267.435 166.847C268.181 166.782 268.711 166.703 269.026 166.608C269.344 166.513 269.503 166.333 269.503 166.068V166.04C269.503 165.748 269.402 165.523 269.202 165.364C269.001 165.205 268.73 165.125 268.389 165.125C268.022 165.125 267.726 165.205 267.503 165.364C267.279 165.523 267.137 165.742 267.077 166.023L264.514 165.932C264.624 165.136 265.007 164.475 265.662 163.949C266.321 163.422 267.238 163.159 268.412 163.159C269.154 163.159 269.815 163.275 270.395 163.506C270.978 163.733 271.437 164.062 271.77 164.494C272.107 164.926 272.276 165.451 272.276 166.068V172H269.662V170.784H269.594C269.109 171.693 268.264 172.148 267.06 172.148ZM267.918 170.33C268.361 170.33 268.738 170.197 269.048 169.932C269.363 169.667 269.52 169.322 269.52 168.898V168.068C269.365 168.152 269.145 168.222 268.861 168.278C268.58 168.335 268.312 168.383 268.054 168.42C267.232 168.545 266.821 168.886 266.821 169.443C266.821 169.731 266.923 169.951 267.128 170.102C267.332 170.254 267.596 170.33 267.918 170.33ZM281.594 165.938L279.043 166.006C279.005 165.729 278.866 165.504 278.628 165.33C278.389 165.152 278.086 165.062 277.719 165.062C277.397 165.062 277.122 165.127 276.895 165.256C276.671 165.381 276.562 165.555 276.565 165.778C276.562 165.945 276.63 166.093 276.77 166.222C276.914 166.347 277.17 166.447 277.537 166.523L279.219 166.841C280.935 167.17 281.798 167.958 281.81 169.205C281.806 169.803 281.628 170.324 281.276 170.767C280.927 171.21 280.45 171.555 279.844 171.801C279.238 172.044 278.545 172.165 277.764 172.165C276.518 172.165 275.535 171.909 274.815 171.398C274.096 170.883 273.687 170.193 273.588 169.33L276.332 169.261C276.393 169.58 276.55 169.822 276.804 169.989C277.058 170.155 277.382 170.239 277.776 170.239C278.132 170.239 278.421 170.172 278.645 170.04C278.868 169.907 278.982 169.731 278.986 169.511C278.974 169.144 278.62 168.892 277.923 168.756L276.401 168.466C274.662 168.144 273.798 167.301 273.81 165.938C273.806 165.062 274.152 164.381 274.849 163.892C275.546 163.403 276.486 163.159 277.668 163.159C278.849 163.159 279.781 163.407 280.463 163.903C281.145 164.396 281.522 165.074 281.594 165.938ZM287.257 172.165C285.886 172.165 284.806 171.765 284.018 170.966C283.234 170.167 282.842 169.068 282.842 167.67C282.842 166.769 283.02 165.981 283.376 165.307C283.732 164.629 284.234 164.102 284.882 163.727C285.53 163.348 286.293 163.159 287.172 163.159C287.998 163.159 288.729 163.331 289.365 163.676C290.001 164.017 290.5 164.519 290.859 165.182C291.219 165.845 291.399 166.655 291.399 167.614V168.307H285.581V168.381C285.581 168.915 285.734 169.345 286.041 169.67C286.352 169.996 286.774 170.159 287.308 170.159C287.672 170.159 287.988 170.083 288.257 169.932C288.526 169.777 288.714 169.555 288.82 169.267L291.371 169.341C291.212 170.197 290.772 170.883 290.053 171.398C289.333 171.909 288.401 172.165 287.257 172.165ZM285.581 166.693H288.814C288.81 166.246 288.659 165.881 288.359 165.597C288.064 165.309 287.687 165.165 287.229 165.165C286.767 165.165 286.38 165.311 286.07 165.602C285.763 165.894 285.6 166.258 285.581 166.693ZM295.597 160.364V172H292.818V160.364H295.597ZM297.365 172V163.273H300.143V172H297.365ZM298.757 162.256C298.367 162.256 298.032 162.127 297.751 161.869C297.471 161.608 297.331 161.294 297.331 160.926C297.331 160.559 297.471 160.246 297.751 159.989C298.032 159.731 298.367 159.602 298.757 159.602C299.151 159.602 299.486 159.731 299.763 159.989C300.043 160.246 300.183 160.559 300.183 160.926C300.183 161.294 300.043 161.608 299.763 161.869C299.486 162.127 299.151 162.256 298.757 162.256ZM304.69 167.023V172H301.912V163.273H304.554V164.875H304.651C304.844 164.345 305.173 163.926 305.639 163.619C306.105 163.312 306.66 163.159 307.304 163.159C307.918 163.159 308.45 163.295 308.901 163.568C309.355 163.841 309.707 164.223 309.957 164.716C310.211 165.208 310.336 165.782 310.332 166.438V172H307.554V166.983C307.558 166.498 307.435 166.119 307.185 165.847C306.938 165.574 306.596 165.438 306.156 165.438C305.717 165.438 305.363 165.578 305.094 165.858C304.829 166.138 304.694 166.527 304.69 167.023ZM316.132 172.165C314.761 172.165 313.681 171.765 312.893 170.966C312.109 170.167 311.717 169.068 311.717 167.67C311.717 166.769 311.895 165.981 312.251 165.307C312.607 164.629 313.109 164.102 313.757 163.727C314.405 163.348 315.168 163.159 316.047 163.159C316.873 163.159 317.604 163.331 318.24 163.676C318.876 164.017 319.375 164.519 319.734 165.182C320.094 165.845 320.274 166.655 320.274 167.614V168.307H314.456V168.381C314.456 168.915 314.609 169.345 314.916 169.67C315.227 169.996 315.649 170.159 316.183 170.159C316.547 170.159 316.863 170.083 317.132 169.932C317.401 169.777 317.589 169.555 317.695 169.267L320.246 169.341C320.087 170.197 319.647 170.883 318.928 171.398C318.208 171.909 317.276 172.165 316.132 172.165ZM314.456 166.693H317.689C317.685 166.246 317.534 165.881 317.234 165.597C316.939 165.309 316.562 165.165 316.104 165.165C315.642 165.165 315.255 165.311 314.945 165.602C314.638 165.894 314.475 166.258 314.456 166.693Z" fill="black"/>
<path d="M0 120L86.5 120L173 120" stroke="black" stroke-width="3"/>
<path d="M86.5 101V138.5M86.5 138.5L77 129M86.5 138.5L96 129" stroke="black" stroke-width="3"/>
</svg>
