<svg width="468" height="146" viewBox="0 0 468 146" fill="none" xmlns="http://www.w3.org/2000/svg">
<rect x="179.5" y="51.5" width="157" height="93" stroke="#00A3FF" stroke-width="3"/>
<path d="M355.548 68H380.94V93H355.548V68Z" fill="#FF0000" fill-opacity="0.2"/>
<path d="M442.608 36H468V93H442.608V36Z" fill="#FF0000" fill-opacity="0.2"/>
<path d="M384.568 83H409.96V93H384.568V83Z" fill="#FF0000" fill-opacity="0.2"/>
<path d="M413.588 25H438.98V93H413.588V25Z" fill="#FF0000" fill-opacity="0.2"/>
<path d="M181 53H468V57H181V53Z" fill="#FF0000"/>
<path d="M181 57H335V93H181V57Z" fill="#FF0000" fill-opacity="0.2"/>
<path d="M256 25H259V93H256V28V25Z" fill="black"/>
<path d="M244.5 25V28H256V25H250.25H244.5Z" fill="black"/>
<path d="M259 25V28H439V25H264.75H259Z" fill="black"/>
<path d="M244.5 80V83H256V80H250.25H244.5Z" fill="black"/>
<path d="M259 80V83H410V80H264.75H259Z" fill="black"/>
<rect x="179.5" y="1.5" width="157" height="93" stroke="#29C825" stroke-width="3"/>
<path d="M162 53L162 91" stroke="#FF0000" stroke-width="3"/>
<path d="M7.17045 69.8523C7.13258 69.4356 6.96402 69.1117 6.66477 68.8807C6.36932 68.6458 5.94697 68.5284 5.39773 68.5284C4.85227 68.5284 4.44318 68.6326 4.17045 68.8409C3.89773 69.0455 3.75947 69.3068 3.75568 69.625C3.74432 69.9697 3.89394 70.2405 4.20455 70.4375C4.51515 70.6307 4.93371 70.7841 5.46023 70.8977L6.46023 71.125C7.60795 71.3788 8.48674 71.7936 9.09659 72.3693C9.71023 72.9451 10.0189 73.697 10.0227 74.625C10.0189 75.7311 9.60985 76.5947 8.79545 77.2159C7.98106 77.8371 6.84849 78.1477 5.39773 78.1477C3.93561 78.1477 2.76515 77.8182 1.88636 77.1591C1.01136 76.4962 0.564394 75.4848 0.545455 74.125H3.23864C3.26894 74.6856 3.47538 75.1098 3.85795 75.3977C4.24053 75.6818 4.74242 75.8239 5.36364 75.8239C5.92803 75.8239 6.36932 75.7121 6.6875 75.4886C7.00568 75.2652 7.16667 74.9754 7.17045 74.6193C7.16667 74.2936 7.01515 74.0341 6.71591 73.8409C6.41667 73.6439 5.94697 73.4716 5.30682 73.3239L4.09091 73.0398C3.08712 72.8087 2.29356 72.4356 1.71023 71.9205C1.13068 71.4015 0.842803 70.7008 0.846591 69.8182C0.842803 69.0947 1.03598 68.4621 1.42614 67.9205C1.81629 67.3788 2.35417 66.9583 3.03977 66.6591C3.72917 66.3561 4.51705 66.2045 5.40341 66.2045C6.30492 66.2045 7.08712 66.358 7.75 66.6648C8.41667 66.9678 8.93371 67.3939 9.30114 67.9432C9.66856 68.4886 9.85606 69.125 9.86364 69.8523H7.17045ZM15.5227 78.1648C14.1515 78.1648 13.072 77.7652 12.2841 76.9659C11.5 76.1667 11.108 75.0682 11.108 73.6705C11.108 72.7689 11.286 71.9811 11.642 71.3068C11.9981 70.6288 12.5 70.1023 13.1477 69.7273C13.7955 69.3485 14.5587 69.1591 15.4375 69.1591C16.2633 69.1591 16.9943 69.3314 17.6307 69.6761C18.267 70.017 18.7652 70.5189 19.125 71.1818C19.4848 71.8447 19.6648 72.6553 19.6648 73.6136V74.3068H13.8466V74.3807C13.8466 74.9148 14 75.3447 14.3068 75.6705C14.6174 75.9962 15.0398 76.1591 15.5739 76.1591C15.9375 76.1591 16.2538 76.0833 16.5227 75.9318C16.7917 75.7765 16.9792 75.5549 17.0852 75.267L19.6364 75.3409C19.4773 76.197 19.0379 76.8826 18.3182 77.3977C17.5985 77.9091 16.6667 78.1648 15.5227 78.1648ZM13.8466 72.6932H17.0795C17.0758 72.2462 16.9242 71.8807 16.625 71.5966C16.3295 71.3087 15.9527 71.1648 15.4943 71.1648C15.0322 71.1648 14.6458 71.3106 14.3352 71.6023C14.0284 71.8939 13.8655 72.2576 13.8466 72.6932ZM21.0838 78V69.2727H23.7827V70.8636H23.8736C24.0327 70.2879 24.2921 69.8598 24.652 69.5795C25.0118 69.2955 25.4304 69.1534 25.9077 69.1534C26.1728 69.1534 26.4323 69.1875 26.6861 69.2557V71.6705C26.5535 71.625 26.3793 71.589 26.1634 71.5625C25.9512 71.536 25.7618 71.5227 25.5952 71.5227C25.099 71.5227 24.6861 71.6837 24.3565 72.0057C24.027 72.3239 23.8622 72.7424 23.8622 73.2614V78H21.0838ZM36.5497 69.2727L33.5554 78H30.3736L27.3849 69.2727H30.3111L31.919 75.2841H32.0099L33.6236 69.2727H36.5497ZM37.8026 78V69.2727H40.581V78H37.8026ZM39.1946 68.2557C38.8045 68.2557 38.4692 68.1269 38.1889 67.8693C37.9086 67.608 37.7685 67.2936 37.7685 66.9261C37.7685 66.5587 37.9086 66.2462 38.1889 65.9886C38.4692 65.7311 38.8045 65.6023 39.1946 65.6023C39.5885 65.6023 39.9238 65.7311 40.2003 65.9886C40.4806 66.2462 40.6207 66.5587 40.6207 66.9261C40.6207 67.2936 40.4806 67.608 40.2003 67.8693C39.9238 68.1269 39.5885 68.2557 39.1946 68.2557ZM46.4233 78.1648C45.5028 78.1648 44.7131 77.9754 44.054 77.5966C43.3987 77.214 42.8949 76.6856 42.5426 76.0114C42.1903 75.3333 42.0142 74.5511 42.0142 73.6648C42.0142 72.7708 42.1903 71.9867 42.5426 71.3125C42.8949 70.6345 43.4006 70.1061 44.0597 69.7273C44.7188 69.3485 45.5047 69.1591 46.4176 69.1591C47.2282 69.1591 47.9328 69.3049 48.5312 69.5966C49.1297 69.8883 49.5975 70.3011 49.9347 70.8352C50.2756 71.3655 50.4555 71.9886 50.4744 72.7045H47.8778C47.8248 72.2576 47.6733 71.9072 47.4233 71.6534C47.1771 71.3996 46.8551 71.2727 46.4574 71.2727C45.9725 71.2727 45.5824 71.4754 45.2869 71.8807C44.9915 72.2822 44.8438 72.8674 44.8438 73.6364C44.8438 74.4129 44.9896 75.0038 45.2812 75.4091C45.5767 75.8106 45.9688 76.0114 46.4574 76.0114C46.84 76.0114 47.16 75.8883 47.4176 75.642C47.6752 75.3958 47.8286 75.0417 47.8778 74.5795H50.4744C50.4517 75.2992 50.2737 75.928 49.9403 76.4659C49.607 77.0038 49.1411 77.4223 48.5426 77.7216C47.9479 78.017 47.2415 78.1648 46.4233 78.1648ZM55.9759 78.1648C54.6046 78.1648 53.5251 77.7652 52.7372 76.9659C51.9531 76.1667 51.5611 75.0682 51.5611 73.6705C51.5611 72.7689 51.7391 71.9811 52.0952 71.3068C52.4512 70.6288 52.9531 70.1023 53.6009 69.7273C54.2486 69.3485 55.0118 69.1591 55.8906 69.1591C56.7164 69.1591 57.4474 69.3314 58.0838 69.6761C58.7202 70.017 59.2183 70.5189 59.5781 71.1818C59.938 71.8447 60.1179 72.6553 60.1179 73.6136V74.3068H54.2997V74.3807C54.2997 74.9148 54.4531 75.3447 54.7599 75.6705C55.0705 75.9962 55.4929 76.1591 56.027 76.1591C56.3906 76.1591 56.7069 76.0833 56.9759 75.9318C57.2448 75.7765 57.4323 75.5549 57.5384 75.267L60.0895 75.3409C59.9304 76.197 59.491 76.8826 58.7713 77.3977C58.0516 77.9091 57.1198 78.1648 55.9759 78.1648ZM54.2997 72.6932H57.5327C57.5289 72.2462 57.3774 71.8807 57.0781 71.5966C56.7827 71.3087 56.4058 71.1648 55.9474 71.1648C55.4853 71.1648 55.099 71.3106 54.7884 71.6023C54.4815 71.8939 54.3187 72.2576 54.2997 72.6932ZM64.9744 78V69.2727H67.6733V70.8636H67.7642C67.9233 70.2879 68.1828 69.8598 68.5426 69.5795C68.9025 69.2955 69.321 69.1534 69.7983 69.1534C70.0294 69.1534 70.2491 69.1818 70.4574 69.2386C70.6657 69.2955 70.8532 69.3731 71.0199 69.4716L70.2017 71.7557C70.0805 71.6989 69.9498 71.6496 69.8097 71.608C69.6733 71.5625 69.5218 71.5398 69.3551 71.5398C68.9195 71.5398 68.5445 71.697 68.2301 72.0114C67.9157 72.3258 67.7566 72.7424 67.7528 73.2614V78H64.9744ZM75.7102 78.1648C74.339 78.1648 73.2595 77.7652 72.4716 76.9659C71.6875 76.1667 71.2955 75.0682 71.2955 73.6705C71.2955 72.7689 71.4735 71.9811 71.8295 71.3068C72.1856 70.6288 72.6875 70.1023 73.3352 69.7273C73.983 69.3485 74.7462 69.1591 75.625 69.1591C76.4508 69.1591 77.1818 69.3314 77.8182 69.6761C78.4545 70.017 78.9527 70.5189 79.3125 71.1818C79.6723 71.8447 79.8523 72.6553 79.8523 73.6136V74.3068H74.0341V74.3807C74.0341 74.9148 74.1875 75.3447 74.4943 75.6705C74.8049 75.9962 75.2273 76.1591 75.7614 76.1591C76.125 76.1591 76.4413 76.0833 76.7102 75.9318C76.9792 75.7765 77.1667 75.5549 77.2727 75.267L79.8239 75.3409C79.6648 76.197 79.2254 76.8826 78.5057 77.3977C77.786 77.9091 76.8542 78.1648 75.7102 78.1648ZM74.0341 72.6932H77.267C77.2633 72.2462 77.1117 71.8807 76.8125 71.5966C76.517 71.3087 76.1402 71.1648 75.6818 71.1648C75.2197 71.1648 74.8333 71.3106 74.5227 71.6023C74.2159 71.8939 74.053 72.2576 74.0341 72.6932ZM88.8906 71.9375L86.3395 72.0057C86.3016 71.7292 86.1634 71.5038 85.9247 71.3295C85.6861 71.1515 85.383 71.0625 85.0156 71.0625C84.6937 71.0625 84.419 71.1269 84.1918 71.2557C83.9683 71.3807 83.8584 71.5549 83.8622 71.7784C83.8584 71.9451 83.9266 72.0928 84.0668 72.2216C84.2107 72.3466 84.4664 72.447 84.8338 72.5227L86.5156 72.8409C88.2315 73.1705 89.0952 73.9583 89.1065 75.2045C89.1027 75.803 88.9247 76.3239 88.5724 76.767C88.224 77.2102 87.7467 77.5549 87.1406 77.8011C86.5346 78.0436 85.8414 78.1648 85.0611 78.1648C83.8149 78.1648 82.8319 77.9091 82.1122 77.3977C81.3925 76.8826 80.9834 76.1932 80.8849 75.3295L83.6293 75.2614C83.6899 75.5795 83.8471 75.822 84.1009 75.9886C84.3546 76.1553 84.6785 76.2386 85.0724 76.2386C85.4285 76.2386 85.7183 76.1723 85.9418 76.0398C86.1652 75.9072 86.2789 75.7311 86.2827 75.5114C86.2713 75.1439 85.9171 74.892 85.2202 74.7557L83.6974 74.4659C81.9588 74.1439 81.0952 73.3011 81.1065 71.9375C81.1027 71.0625 81.4493 70.3807 82.1463 69.892C82.8433 69.4034 83.7827 69.1591 84.9645 69.1591C86.1463 69.1591 87.0781 69.4072 87.7599 69.9034C88.4418 70.3958 88.8187 71.0739 88.8906 71.9375ZM94.5483 78.1648C93.6354 78.1648 92.8494 77.9773 92.1903 77.6023C91.5313 77.2235 91.0237 76.697 90.6676 76.0227C90.3153 75.3447 90.1392 74.5587 90.1392 73.6648C90.1392 72.767 90.3153 71.9811 90.6676 71.3068C91.0237 70.6288 91.5313 70.1023 92.1903 69.7273C92.8494 69.3485 93.6354 69.1591 94.5483 69.1591C95.465 69.1591 96.2509 69.3485 96.9062 69.7273C97.5653 70.1023 98.071 70.6288 98.4233 71.3068C98.7794 71.9811 98.9574 72.767 98.9574 73.6648C98.9574 74.5587 98.7794 75.3447 98.4233 76.0227C98.071 76.697 97.5653 77.2235 96.9062 77.6023C96.2509 77.9773 95.465 78.1648 94.5483 78.1648ZM94.5653 76.0682C95.0616 76.0682 95.446 75.8447 95.7188 75.3977C95.9915 74.9508 96.1278 74.3674 96.1278 73.6477C96.1278 72.9242 95.9915 72.339 95.7188 71.892C95.446 71.4413 95.0616 71.2159 94.5653 71.2159C94.0502 71.2159 93.6544 71.4413 93.3778 71.892C93.1051 72.339 92.9688 72.9242 92.9688 73.6477C92.9688 74.3674 93.1051 74.9508 93.3778 75.3977C93.6544 75.8447 94.0502 76.0682 94.5653 76.0682ZM103.159 66.3636V78H100.381V66.3636H103.159ZM110.558 74.233V69.2727H113.331V78H110.683V76.375H110.592C110.399 76.9091 110.07 77.3333 109.604 77.6477C109.142 77.9583 108.583 78.1136 107.928 78.1136C107.329 78.1136 106.804 77.9773 106.354 77.7045C105.907 77.4318 105.558 77.0492 105.308 76.5568C105.058 76.0644 104.931 75.4905 104.928 74.8352V69.2727H107.706V74.2898C107.71 74.7633 107.835 75.1364 108.081 75.4091C108.327 75.6818 108.662 75.8182 109.087 75.8182C109.5 75.8182 109.848 75.6818 110.132 75.4091C110.416 75.1326 110.558 74.7405 110.558 74.233ZM120.026 69.2727V71.3182H118.452V75.2557C118.452 75.5133 118.512 75.6951 118.634 75.8011C118.759 75.9034 118.933 75.9545 119.156 75.9545C119.262 75.9545 119.374 75.9451 119.491 75.9261C119.613 75.9034 119.704 75.8845 119.764 75.8693L120.185 77.875C120.052 77.9129 119.866 77.9583 119.628 78.0114C119.389 78.0682 119.101 78.1061 118.764 78.125C117.783 78.1705 117.02 77.9754 116.474 77.5398C115.933 77.1042 115.666 76.4451 115.673 75.5625V71.3182H114.52V69.2727H115.673V67.1818H118.452V69.2727H120.026ZM121.443 78V69.2727H124.222V78H121.443ZM122.835 68.2557C122.445 68.2557 122.11 68.1269 121.83 67.8693C121.549 67.608 121.409 67.2936 121.409 66.9261C121.409 66.5587 121.549 66.2462 121.83 65.9886C122.11 65.7311 122.445 65.6023 122.835 65.6023C123.229 65.6023 123.564 65.7311 123.841 65.9886C124.121 66.2462 124.261 66.5587 124.261 66.9261C124.261 67.2936 124.121 67.608 123.841 67.8693C123.564 68.1269 123.229 68.2557 122.835 68.2557ZM130.064 78.1648C129.151 78.1648 128.365 77.9773 127.706 77.6023C127.047 77.2235 126.539 76.697 126.183 76.0227C125.831 75.3447 125.655 74.5587 125.655 73.6648C125.655 72.767 125.831 71.9811 126.183 71.3068C126.539 70.6288 127.047 70.1023 127.706 69.7273C128.365 69.3485 129.151 69.1591 130.064 69.1591C130.981 69.1591 131.767 69.3485 132.422 69.7273C133.081 70.1023 133.587 70.6288 133.939 71.3068C134.295 71.9811 134.473 72.767 134.473 73.6648C134.473 74.5587 134.295 75.3447 133.939 76.0227C133.587 76.697 133.081 77.2235 132.422 77.6023C131.767 77.9773 130.981 78.1648 130.064 78.1648ZM130.081 76.0682C130.577 76.0682 130.962 75.8447 131.234 75.3977C131.507 74.9508 131.643 74.3674 131.643 73.6477C131.643 72.9242 131.507 72.339 131.234 71.892C130.962 71.4413 130.577 71.2159 130.081 71.2159C129.566 71.2159 129.17 71.4413 128.893 71.892C128.621 72.339 128.484 72.9242 128.484 73.6477C128.484 74.3674 128.621 74.9508 128.893 75.3977C129.17 75.8447 129.566 76.0682 130.081 76.0682ZM138.675 73.0227V78H135.896V69.2727H138.538V70.875H138.635C138.828 70.3447 139.158 69.9261 139.624 69.6193C140.089 69.3125 140.644 69.1591 141.288 69.1591C141.902 69.1591 142.434 69.2955 142.885 69.5682C143.339 69.8409 143.692 70.2235 143.942 70.7159C144.196 71.2083 144.321 71.7822 144.317 72.4375V78H141.538V72.983C141.542 72.4981 141.419 72.1193 141.169 71.8466C140.923 71.5739 140.58 71.4375 140.141 71.4375C139.701 71.4375 139.347 71.5777 139.078 71.858C138.813 72.1383 138.679 72.5265 138.675 73.0227Z" fill="black"/>
<path d="M162 0L162 50" stroke="#BDBDBD" stroke-width="3"/>
<path d="M107.881 31V19.3636H110.693V28.7159H115.534V31H107.881ZM121.064 31.1648C120.151 31.1648 119.365 30.9773 118.706 30.6023C118.047 30.2235 117.539 29.697 117.183 29.0227C116.831 28.3447 116.655 27.5587 116.655 26.6648C116.655 25.767 116.831 24.9811 117.183 24.3068C117.539 23.6288 118.047 23.1023 118.706 22.7273C119.365 22.3485 120.151 22.1591 121.064 22.1591C121.981 22.1591 122.767 22.3485 123.422 22.7273C124.081 23.1023 124.587 23.6288 124.939 24.3068C125.295 24.9811 125.473 25.767 125.473 26.6648C125.473 27.5587 125.295 28.3447 124.939 29.0227C124.587 29.697 124.081 30.2235 123.422 30.6023C122.767 30.9773 121.981 31.1648 121.064 31.1648ZM121.081 29.0682C121.577 29.0682 121.962 28.8447 122.234 28.3977C122.507 27.9508 122.643 27.3674 122.643 26.6477C122.643 25.9242 122.507 25.339 122.234 24.892C121.962 24.4413 121.577 24.2159 121.081 24.2159C120.566 24.2159 120.17 24.4413 119.893 24.892C119.621 25.339 119.484 25.9242 119.484 26.6477C119.484 27.3674 119.621 27.9508 119.893 28.3977C120.17 28.8447 120.566 29.0682 121.081 29.0682ZM134.516 24.9375L131.964 25.0057C131.927 24.7292 131.788 24.5038 131.55 24.3295C131.311 24.1515 131.008 24.0625 130.641 24.0625C130.319 24.0625 130.044 24.1269 129.817 24.2557C129.593 24.3807 129.483 24.5549 129.487 24.7784C129.483 24.9451 129.552 25.0928 129.692 25.2216C129.836 25.3466 130.091 25.447 130.459 25.5227L132.141 25.8409C133.857 26.1705 134.72 26.9583 134.732 28.2045C134.728 28.803 134.55 29.3239 134.197 29.767C133.849 30.2102 133.372 30.5549 132.766 30.8011C132.16 31.0436 131.466 31.1648 130.686 31.1648C129.44 31.1648 128.457 30.9091 127.737 30.3977C127.018 29.8826 126.608 29.1932 126.51 28.3295L129.254 28.2614C129.315 28.5795 129.472 28.822 129.726 28.9886C129.98 29.1553 130.304 29.2386 130.697 29.2386C131.054 29.2386 131.343 29.1723 131.567 29.0398C131.79 28.9072 131.904 28.7311 131.908 28.5114C131.896 28.1439 131.542 27.892 130.845 27.7557L129.322 27.4659C127.584 27.1439 126.72 26.3011 126.732 24.9375C126.728 24.0625 127.074 23.3807 127.771 22.892C128.468 22.4034 129.408 22.1591 130.589 22.1591C131.771 22.1591 132.703 22.4072 133.385 22.9034C134.067 23.3958 134.444 24.0739 134.516 24.9375ZM143.719 24.9375L141.168 25.0057C141.13 24.7292 140.991 24.5038 140.753 24.3295C140.514 24.1515 140.211 24.0625 139.844 24.0625C139.522 24.0625 139.247 24.1269 139.02 24.2557C138.796 24.3807 138.687 24.5549 138.69 24.7784C138.687 24.9451 138.755 25.0928 138.895 25.2216C139.039 25.3466 139.295 25.447 139.662 25.5227L141.344 25.8409C143.06 26.1705 143.923 26.9583 143.935 28.2045C143.931 28.803 143.753 29.3239 143.401 29.767C143.052 30.2102 142.575 30.5549 141.969 30.8011C141.363 31.0436 140.67 31.1648 139.889 31.1648C138.643 31.1648 137.66 30.9091 136.94 30.3977C136.221 29.8826 135.812 29.1932 135.713 28.3295L138.457 28.2614C138.518 28.5795 138.675 28.822 138.929 28.9886C139.183 29.1553 139.507 29.2386 139.901 29.2386C140.257 29.2386 140.546 29.1723 140.77 29.0398C140.993 28.9072 141.107 28.7311 141.111 28.5114C141.099 28.1439 140.745 27.892 140.048 27.7557L138.526 27.4659C136.787 27.1439 135.923 26.3011 135.935 24.9375C135.931 24.0625 136.277 23.3807 136.974 22.892C137.671 22.4034 138.611 22.1591 139.793 22.1591C140.974 22.1591 141.906 22.4072 142.588 22.9034C143.27 23.3958 143.647 24.0739 143.719 24.9375Z" fill="#BDBDBD"/>
<path d="M162 94L162 143" stroke="#BDBDBD" stroke-width="3"/>
<path d="M77.8636 119.182C77.8636 120.462 77.6174 121.547 77.125 122.438C76.6326 123.328 75.9659 124.004 75.125 124.466C74.2879 124.928 73.3485 125.159 72.3068 125.159C71.2614 125.159 70.3182 124.928 69.4773 124.466C68.6402 124 67.9773 123.322 67.4886 122.432C67 121.542 66.7557 120.458 66.7557 119.182C66.7557 117.898 67 116.812 67.4886 115.926C67.9773 115.036 68.6402 114.36 69.4773 113.898C70.3182 113.436 71.2614 113.205 72.3068 113.205C73.3485 113.205 74.2879 113.436 75.125 113.898C75.9659 114.36 76.6326 115.036 77.125 115.926C77.6174 116.812 77.8636 117.898 77.8636 119.182ZM74.9886 119.182C74.9886 118.042 74.7519 117.172 74.2784 116.574C73.8049 115.972 73.1477 115.67 72.3068 115.67C71.4697 115.67 70.8125 115.972 70.3352 116.574C69.8617 117.172 69.625 118.042 69.625 119.182C69.625 120.322 69.8617 121.193 70.3352 121.795C70.8125 122.394 71.4697 122.693 72.3068 122.693C73.1477 122.693 73.8049 122.394 74.2784 121.795C74.7519 121.193 74.9886 120.322 74.9886 119.182ZM87.9716 116.273L84.9773 125H81.7955L78.8068 116.273H81.733L83.3409 122.284H83.4318L85.0455 116.273H87.9716ZM92.8352 125.165C91.464 125.165 90.3845 124.765 89.5966 123.966C88.8125 123.167 88.4205 122.068 88.4205 120.67C88.4205 119.769 88.5985 118.981 88.9545 118.307C89.3106 117.629 89.8125 117.102 90.4602 116.727C91.108 116.348 91.8712 116.159 92.75 116.159C93.5758 116.159 94.3068 116.331 94.9432 116.676C95.5795 117.017 96.0777 117.519 96.4375 118.182C96.7973 118.845 96.9773 119.655 96.9773 120.614V121.307H91.1591V121.381C91.1591 121.915 91.3125 122.345 91.6193 122.67C91.9299 122.996 92.3523 123.159 92.8864 123.159C93.25 123.159 93.5663 123.083 93.8352 122.932C94.1042 122.777 94.2917 122.555 94.3977 122.267L96.9489 122.341C96.7898 123.197 96.3504 123.883 95.6307 124.398C94.911 124.909 93.9792 125.165 92.8352 125.165ZM91.1591 119.693H94.392C94.3883 119.246 94.2367 118.881 93.9375 118.597C93.642 118.309 93.2652 118.165 92.8068 118.165C92.3447 118.165 91.9583 118.311 91.6477 118.602C91.3409 118.894 91.178 119.258 91.1591 119.693ZM98.3963 125V116.273H101.095V117.864H101.186C101.345 117.288 101.605 116.86 101.964 116.58C102.324 116.295 102.743 116.153 103.22 116.153C103.451 116.153 103.671 116.182 103.879 116.239C104.088 116.295 104.275 116.373 104.442 116.472L103.624 118.756C103.502 118.699 103.372 118.65 103.232 118.608C103.095 118.562 102.944 118.54 102.777 118.54C102.341 118.54 101.966 118.697 101.652 119.011C101.338 119.326 101.179 119.742 101.175 120.261V125H98.3963ZM108.284 120.023V125H105.506V113.364H108.193V117.875H108.29C108.487 117.337 108.809 116.917 109.256 116.614C109.706 116.311 110.258 116.159 110.909 116.159C111.826 116.159 112.561 116.458 113.114 117.057C113.67 117.655 113.947 118.449 113.943 119.438V125H111.165V119.983C111.169 119.498 111.047 119.119 110.801 118.847C110.555 118.574 110.208 118.438 109.761 118.438C109.322 118.438 108.966 118.578 108.693 118.858C108.424 119.138 108.288 119.527 108.284 120.023ZM119.757 125.165C118.386 125.165 117.306 124.765 116.518 123.966C115.734 123.167 115.342 122.068 115.342 120.67C115.342 119.769 115.52 118.981 115.876 118.307C116.232 117.629 116.734 117.102 117.382 116.727C118.03 116.348 118.793 116.159 119.672 116.159C120.498 116.159 121.229 116.331 121.865 116.676C122.501 117.017 123 117.519 123.359 118.182C123.719 118.845 123.899 119.655 123.899 120.614V121.307H118.081V121.381C118.081 121.915 118.234 122.345 118.541 122.67C118.852 122.996 119.274 123.159 119.808 123.159C120.172 123.159 120.488 123.083 120.757 122.932C121.026 122.777 121.214 122.555 121.32 122.267L123.871 122.341C123.712 123.197 123.272 123.883 122.553 124.398C121.833 124.909 120.901 125.165 119.757 125.165ZM118.081 119.693H121.314C121.31 119.246 121.159 118.881 120.859 118.597C120.564 118.309 120.187 118.165 119.729 118.165C119.267 118.165 118.88 118.311 118.57 118.602C118.263 118.894 118.1 119.258 118.081 119.693ZM127.778 125.148C126.945 125.148 126.258 124.936 125.716 124.511C125.178 124.087 124.909 123.443 124.909 122.58C124.909 121.936 125.057 121.424 125.352 121.045C125.648 120.663 126.042 120.381 126.534 120.199C127.027 120.013 127.566 119.896 128.153 119.847C128.9 119.782 129.43 119.703 129.744 119.608C130.063 119.513 130.222 119.333 130.222 119.068V119.04C130.222 118.748 130.121 118.523 129.92 118.364C129.72 118.205 129.449 118.125 129.108 118.125C128.741 118.125 128.445 118.205 128.222 118.364C127.998 118.523 127.856 118.742 127.795 119.023L125.233 118.932C125.343 118.136 125.725 117.475 126.381 116.949C127.04 116.422 127.956 116.159 129.131 116.159C129.873 116.159 130.534 116.275 131.114 116.506C131.697 116.733 132.155 117.062 132.489 117.494C132.826 117.926 132.994 118.451 132.994 119.068V125H130.381V123.784H130.312C129.828 124.693 128.983 125.148 127.778 125.148ZM128.636 123.33C129.08 123.33 129.456 123.197 129.767 122.932C130.081 122.667 130.239 122.322 130.239 121.898V121.068C130.083 121.152 129.864 121.222 129.58 121.278C129.299 121.335 129.03 121.383 128.773 121.42C127.951 121.545 127.54 121.886 127.54 122.443C127.54 122.731 127.642 122.951 127.847 123.102C128.051 123.254 128.314 123.33 128.636 123.33ZM137.881 125.125C137.241 125.125 136.655 124.958 136.125 124.625C135.598 124.288 135.178 123.788 134.864 123.125C134.549 122.462 134.392 121.634 134.392 120.642C134.392 119.616 134.555 118.773 134.881 118.114C135.206 117.451 135.634 116.96 136.165 116.642C136.695 116.32 137.263 116.159 137.869 116.159C138.559 116.159 139.1 116.328 139.494 116.665C139.892 116.998 140.172 117.366 140.335 117.767H140.392V113.364H143.17V125H140.42V123.585H140.335C140.161 123.987 139.873 124.345 139.472 124.659C139.07 124.97 138.54 125.125 137.881 125.125ZM138.847 122.96C139.354 122.96 139.748 122.75 140.028 122.33C140.313 121.909 140.455 121.345 140.455 120.636C140.455 119.924 140.313 119.362 140.028 118.949C139.748 118.536 139.354 118.33 138.847 118.33C138.331 118.33 137.936 118.54 137.659 118.96C137.383 119.377 137.244 119.936 137.244 120.636C137.244 121.341 137.383 121.905 137.659 122.33C137.936 122.75 138.331 122.96 138.847 122.96Z" fill="#BDBDBD"/>
</svg>
