<svg width="544" height="187" viewBox="0 0 544 187" fill="none" xmlns="http://www.w3.org/2000/svg">
<rect width="544" height="187" fill="white"/>
<rect x="1.5" y="1.5" width="541" height="184" stroke="black" stroke-width="3"/>
<path d="M23.1705 24.8523C23.1326 24.4356 22.964 24.1117 22.6648 23.8807C22.3693 23.6458 21.947 23.5284 21.3977 23.5284C20.8523 23.5284 20.4432 23.6326 20.1705 23.8409C19.8977 24.0455 19.7595 24.3068 19.7557 24.625C19.7443 24.9697 19.8939 25.2405 20.2045 25.4375C20.5152 25.6307 20.9337 25.7841 21.4602 25.8977L22.4602 26.125C23.608 26.3788 24.4867 26.7936 25.0966 27.3693C25.7102 27.9451 26.0189 28.697 26.0227 29.625C26.0189 30.7311 25.6098 31.5947 24.7955 32.2159C23.9811 32.8371 22.8485 33.1477 21.3977 33.1477C19.9356 33.1477 18.7652 32.8182 17.8864 32.1591C17.0114 31.4962 16.5644 30.4848 16.5455 29.125H19.2386C19.2689 29.6856 19.4754 30.1098 19.858 30.3977C20.2405 30.6818 20.7424 30.8239 21.3636 30.8239C21.928 30.8239 22.3693 30.7121 22.6875 30.4886C23.0057 30.2652 23.1667 29.9754 23.1705 29.6193C23.1667 29.2936 23.0152 29.0341 22.7159 28.8409C22.4167 28.6439 21.947 28.4716 21.3068 28.3239L20.0909 28.0398C19.0871 27.8087 18.2936 27.4356 17.7102 26.9205C17.1307 26.4015 16.8428 25.7008 16.8466 24.8182C16.8428 24.0947 17.036 23.4621 17.4261 22.9205C17.8163 22.3788 18.3542 21.9583 19.0398 21.6591C19.7292 21.3561 20.517 21.2045 21.4034 21.2045C22.3049 21.2045 23.0871 21.358 23.75 21.6648C24.4167 21.9678 24.9337 22.3939 25.3011 22.9432C25.6686 23.4886 25.8561 24.125 25.8636 24.8523H23.1705ZM31.5227 33.1648C30.1515 33.1648 29.072 32.7652 28.2841 31.9659C27.5 31.1667 27.108 30.0682 27.108 28.6705C27.108 27.7689 27.286 26.9811 27.642 26.3068C27.9981 25.6288 28.5 25.1023 29.1477 24.7273C29.7955 24.3485 30.5587 24.1591 31.4375 24.1591C32.2633 24.1591 32.9943 24.3314 33.6307 24.6761C34.267 25.017 34.7652 25.5189 35.125 26.1818C35.4848 26.8447 35.6648 27.6553 35.6648 28.6136V29.3068H29.8466V29.3807C29.8466 29.9148 30 30.3447 30.3068 30.6705C30.6174 30.9962 31.0398 31.1591 31.5739 31.1591C31.9375 31.1591 32.2538 31.0833 32.5227 30.9318C32.7917 30.7765 32.9792 30.5549 33.0852 30.267L35.6364 30.3409C35.4773 31.197 35.0379 31.8826 34.3182 32.3977C33.5985 32.9091 32.6667 33.1648 31.5227 33.1648ZM29.8466 27.6932H33.0795C33.0758 27.2462 32.9242 26.8807 32.625 26.5966C32.3295 26.3087 31.9527 26.1648 31.4943 26.1648C31.0322 26.1648 30.6458 26.3106 30.3352 26.6023C30.0284 26.8939 29.8655 27.2576 29.8466 27.6932ZM37.0838 33V24.2727H39.7827V25.8636H39.8736C40.0327 25.2879 40.2921 24.8598 40.652 24.5795C41.0118 24.2955 41.4304 24.1534 41.9077 24.1534C42.1728 24.1534 42.4323 24.1875 42.6861 24.2557V26.6705C42.5535 26.625 42.3793 26.589 42.1634 26.5625C41.9512 26.536 41.7618 26.5227 41.5952 26.5227C41.099 26.5227 40.6861 26.6837 40.3565 27.0057C40.027 27.3239 39.8622 27.7424 39.8622 28.2614V33H37.0838ZM52.5497 24.2727L49.5554 33H46.3736L43.3849 24.2727H46.3111L47.919 30.2841H48.0099L49.6236 24.2727H52.5497ZM53.8026 33V24.2727H56.581V33H53.8026ZM55.1946 23.2557C54.8045 23.2557 54.4692 23.1269 54.1889 22.8693C53.9086 22.608 53.7685 22.2936 53.7685 21.9261C53.7685 21.5587 53.9086 21.2462 54.1889 20.9886C54.4692 20.7311 54.8045 20.6023 55.1946 20.6023C55.5885 20.6023 55.9238 20.7311 56.2003 20.9886C56.4806 21.2462 56.6207 21.5587 56.6207 21.9261C56.6207 22.2936 56.4806 22.608 56.2003 22.8693C55.9238 23.1269 55.5885 23.2557 55.1946 23.2557ZM62.4233 33.1648C61.5028 33.1648 60.7131 32.9754 60.054 32.5966C59.3987 32.214 58.8949 31.6856 58.5426 31.0114C58.1903 30.3333 58.0142 29.5511 58.0142 28.6648C58.0142 27.7708 58.1903 26.9867 58.5426 26.3125C58.8949 25.6345 59.4006 25.1061 60.0597 24.7273C60.7188 24.3485 61.5047 24.1591 62.4176 24.1591C63.2282 24.1591 63.9328 24.3049 64.5312 24.5966C65.1297 24.8883 65.5975 25.3011 65.9347 25.8352C66.2756 26.3655 66.4555 26.9886 66.4744 27.7045H63.8778C63.8248 27.2576 63.6733 26.9072 63.4233 26.6534C63.1771 26.3996 62.8551 26.2727 62.4574 26.2727C61.9725 26.2727 61.5824 26.4754 61.2869 26.8807C60.9915 27.2822 60.8438 27.8674 60.8438 28.6364C60.8438 29.4129 60.9896 30.0038 61.2812 30.4091C61.5767 30.8106 61.9688 31.0114 62.4574 31.0114C62.84 31.0114 63.16 30.8883 63.4176 30.642C63.6752 30.3958 63.8286 30.0417 63.8778 29.5795H66.4744C66.4517 30.2992 66.2737 30.928 65.9403 31.4659C65.607 32.0038 65.1411 32.4223 64.5426 32.7216C63.9479 33.017 63.2415 33.1648 62.4233 33.1648ZM71.9759 33.1648C70.6046 33.1648 69.5251 32.7652 68.7372 31.9659C67.9531 31.1667 67.5611 30.0682 67.5611 28.6705C67.5611 27.7689 67.7391 26.9811 68.0952 26.3068C68.4512 25.6288 68.9531 25.1023 69.6009 24.7273C70.2486 24.3485 71.0118 24.1591 71.8906 24.1591C72.7164 24.1591 73.4474 24.3314 74.0838 24.6761C74.7202 25.017 75.2183 25.5189 75.5781 26.1818C75.938 26.8447 76.1179 27.6553 76.1179 28.6136V29.3068H70.2997V29.3807C70.2997 29.9148 70.4531 30.3447 70.7599 30.6705C71.0705 30.9962 71.4929 31.1591 72.027 31.1591C72.3906 31.1591 72.7069 31.0833 72.9759 30.9318C73.2448 30.7765 73.4323 30.5549 73.5384 30.267L76.0895 30.3409C75.9304 31.197 75.491 31.8826 74.7713 32.3977C74.0516 32.9091 73.1198 33.1648 71.9759 33.1648ZM70.2997 27.6932H73.5327C73.5289 27.2462 73.3774 26.8807 73.0781 26.5966C72.7827 26.3087 72.4058 26.1648 71.9474 26.1648C71.4853 26.1648 71.099 26.3106 70.7884 26.6023C70.4815 26.8939 70.3187 27.2576 70.2997 27.6932ZM80.9744 33V21.3636H83.7869V30.7159H88.6278V33H80.9744ZM92.544 33.1477C91.7107 33.1477 91.0232 32.9356 90.4815 32.5114C89.9437 32.0871 89.6747 31.4432 89.6747 30.5795C89.6747 29.9356 89.8224 29.4242 90.1179 29.0455C90.4134 28.6629 90.8073 28.3807 91.2997 28.1989C91.7921 28.0133 92.3319 27.8958 92.919 27.8466C93.6652 27.7822 94.1955 27.7027 94.5099 27.608C94.8281 27.5133 94.9872 27.3333 94.9872 27.0682V27.0398C94.9872 26.7481 94.8868 26.5227 94.6861 26.3636C94.4853 26.2045 94.2145 26.125 93.8736 26.125C93.5062 26.125 93.2107 26.2045 92.9872 26.3636C92.7637 26.5227 92.6217 26.7424 92.5611 27.0227L89.9986 26.9318C90.1084 26.1364 90.491 25.4754 91.1463 24.9489C91.8054 24.4223 92.7221 24.1591 93.8963 24.1591C94.6387 24.1591 95.2997 24.2746 95.8793 24.5057C96.4626 24.733 96.9209 25.0625 97.2543 25.4943C97.5914 25.9261 97.7599 26.4508 97.7599 27.0682V33H95.1463V31.7841H95.0781C94.5933 32.6932 93.7486 33.1477 92.544 33.1477ZM93.402 31.3295C93.8452 31.3295 94.2221 31.197 94.5327 30.9318C94.8471 30.6667 95.0043 30.322 95.0043 29.8977V29.0682C94.849 29.1515 94.6293 29.2216 94.3452 29.2784C94.0649 29.3352 93.7959 29.3826 93.5384 29.4205C92.7164 29.5455 92.3054 29.8864 92.3054 30.4432C92.3054 30.7311 92.4077 30.9508 92.6122 31.1023C92.8168 31.2538 93.08 31.3295 93.402 31.3295ZM102.237 28.0227V33H99.4588V24.2727H102.101V25.875H102.197C102.391 25.3447 102.72 24.9261 103.186 24.6193C103.652 24.3125 104.207 24.1591 104.851 24.1591C105.464 24.1591 105.997 24.2955 106.447 24.5682C106.902 24.8409 107.254 25.2235 107.504 25.7159C107.758 26.2083 107.883 26.7822 107.879 27.4375V33H105.101V27.983C105.105 27.4981 104.982 27.1193 104.732 26.8466C104.485 26.5739 104.143 26.4375 103.703 26.4375C103.264 26.4375 102.91 26.5777 102.641 26.858C102.375 27.1383 102.241 27.5265 102.237 28.0227ZM112.787 33.125C112.147 33.125 111.562 32.9583 111.031 32.625C110.505 32.2879 110.084 31.7879 109.77 31.125C109.455 30.4621 109.298 29.6345 109.298 28.642C109.298 27.6155 109.461 26.7727 109.787 26.1136C110.113 25.4508 110.541 24.9602 111.071 24.642C111.601 24.3201 112.17 24.1591 112.776 24.1591C113.465 24.1591 114.007 24.3277 114.401 24.6648C114.798 24.9981 115.079 25.3655 115.241 25.767H115.298V21.3636H118.077V33H115.327V31.5852H115.241C115.067 31.9867 114.779 32.3447 114.378 32.6591C113.976 32.9697 113.446 33.125 112.787 33.125ZM113.753 30.9602C114.26 30.9602 114.654 30.75 114.935 30.3295C115.219 29.9091 115.361 29.3447 115.361 28.6364C115.361 27.9242 115.219 27.3617 114.935 26.9489C114.654 26.536 114.26 26.3295 113.753 26.3295C113.238 26.3295 112.842 26.5398 112.565 26.9602C112.289 27.3769 112.151 27.9356 112.151 28.6364C112.151 29.3409 112.289 29.9053 112.565 30.3295C112.842 30.75 113.238 30.9602 113.753 30.9602ZM127.453 26.9375L124.902 27.0057C124.864 26.7292 124.726 26.5038 124.487 26.3295C124.249 26.1515 123.946 26.0625 123.578 26.0625C123.256 26.0625 122.982 26.1269 122.754 26.2557C122.531 26.3807 122.421 26.5549 122.425 26.7784C122.421 26.9451 122.489 27.0928 122.629 27.2216C122.773 27.3466 123.029 27.447 123.396 27.5227L125.078 27.8409C126.794 28.1705 127.658 28.9583 127.669 30.2045C127.665 30.803 127.487 31.3239 127.135 31.767C126.786 32.2102 126.309 32.5549 125.703 32.8011C125.097 33.0436 124.404 33.1648 123.624 33.1648C122.377 33.1648 121.394 32.9091 120.675 32.3977C119.955 31.8826 119.546 31.1932 119.447 30.3295L122.192 30.2614C122.252 30.5795 122.41 30.822 122.663 30.9886C122.917 31.1553 123.241 31.2386 123.635 31.2386C123.991 31.2386 124.281 31.1723 124.504 31.0398C124.728 30.9072 124.841 30.7311 124.845 30.5114C124.834 30.1439 124.48 29.892 123.783 29.7557L122.26 29.4659C120.521 29.1439 119.658 28.3011 119.669 26.9375C119.665 26.0625 120.012 25.3807 120.709 24.892C121.406 24.4034 122.345 24.1591 123.527 24.1591C124.709 24.1591 125.641 24.4072 126.322 24.9034C127.004 25.3958 127.381 26.0739 127.453 26.9375ZM133.111 33.1648C132.19 33.1648 131.401 32.9754 130.741 32.5966C130.086 32.214 129.582 31.6856 129.23 31.0114C128.878 30.3333 128.702 29.5511 128.702 28.6648C128.702 27.7708 128.878 26.9867 129.23 26.3125C129.582 25.6345 130.088 25.1061 130.747 24.7273C131.406 24.3485 132.192 24.1591 133.105 24.1591C133.916 24.1591 134.62 24.3049 135.219 24.5966C135.817 24.8883 136.285 25.3011 136.622 25.8352C136.963 26.3655 137.143 26.9886 137.162 27.7045H134.565C134.512 27.2576 134.361 26.9072 134.111 26.6534C133.865 26.3996 133.543 26.2727 133.145 26.2727C132.66 26.2727 132.27 26.4754 131.974 26.8807C131.679 27.2822 131.531 27.8674 131.531 28.6364C131.531 29.4129 131.677 30.0038 131.969 30.4091C132.264 30.8106 132.656 31.0114 133.145 31.0114C133.527 31.0114 133.848 30.8883 134.105 30.642C134.363 30.3958 134.516 30.0417 134.565 29.5795H137.162C137.139 30.2992 136.961 30.928 136.628 31.4659C136.295 32.0038 135.829 32.4223 135.23 32.7216C134.635 33.017 133.929 33.1648 133.111 33.1648ZM141.044 33.1477C140.211 33.1477 139.523 32.9356 138.982 32.5114C138.444 32.0871 138.175 31.4432 138.175 30.5795C138.175 29.9356 138.322 29.4242 138.618 29.0455C138.913 28.6629 139.307 28.3807 139.8 28.1989C140.292 28.0133 140.832 27.8958 141.419 27.8466C142.165 27.7822 142.696 27.7027 143.01 27.608C143.328 27.5133 143.487 27.3333 143.487 27.0682V27.0398C143.487 26.7481 143.387 26.5227 143.186 26.3636C142.985 26.2045 142.714 26.125 142.374 26.125C142.006 26.125 141.711 26.2045 141.487 26.3636C141.264 26.5227 141.122 26.7424 141.061 27.0227L138.499 26.9318C138.608 26.1364 138.991 25.4754 139.646 24.9489C140.305 24.4223 141.222 24.1591 142.396 24.1591C143.139 24.1591 143.8 24.2746 144.379 24.5057C144.963 24.733 145.421 25.0625 145.754 25.4943C146.091 25.9261 146.26 26.4508 146.26 27.0682V33H143.646V31.7841H143.578C143.093 32.6932 142.249 33.1477 141.044 33.1477ZM141.902 31.3295C142.345 31.3295 142.722 31.197 143.033 30.9318C143.347 30.6667 143.504 30.322 143.504 29.8977V29.0682C143.349 29.1515 143.129 29.2216 142.845 29.2784C142.565 29.3352 142.296 29.3826 142.038 29.4205C141.216 29.5455 140.805 29.8864 140.805 30.4432C140.805 30.7311 140.908 30.9508 141.112 31.1023C141.317 31.2538 141.58 31.3295 141.902 31.3295ZM147.959 36.2727V24.2727H150.709V25.767H150.794C150.961 25.3655 151.241 24.9981 151.635 24.6648C152.033 24.3277 152.576 24.1591 153.266 24.1591C153.875 24.1591 154.444 24.3201 154.97 24.642C155.497 24.9602 155.923 25.4508 156.249 26.1136C156.574 26.7727 156.737 27.6155 156.737 28.642C156.737 29.6345 156.58 30.4621 156.266 31.125C155.955 31.7879 155.535 32.2879 155.004 32.625C154.478 32.9583 153.893 33.125 153.249 33.125C152.589 33.125 152.059 32.9697 151.658 32.6591C151.26 32.3447 150.972 31.9867 150.794 31.5852H150.737V36.2727H147.959ZM150.68 28.6364C150.68 29.3447 150.821 29.9091 151.101 30.3295C151.385 30.75 151.781 30.9602 152.288 30.9602C152.804 30.9602 153.197 30.75 153.47 30.3295C153.747 29.9053 153.885 29.3409 153.885 28.6364C153.885 27.9356 153.747 27.3769 153.47 26.9602C153.197 26.5398 152.804 26.3295 152.288 26.3295C151.781 26.3295 151.385 26.536 151.101 26.9489C150.821 27.3617 150.68 27.9242 150.68 28.6364ZM162.273 33.1648C160.902 33.1648 159.822 32.7652 159.034 31.9659C158.25 31.1667 157.858 30.0682 157.858 28.6705C157.858 27.7689 158.036 26.9811 158.392 26.3068C158.748 25.6288 159.25 25.1023 159.898 24.7273C160.545 24.3485 161.309 24.1591 162.188 24.1591C163.013 24.1591 163.744 24.3314 164.381 24.6761C165.017 25.017 165.515 25.5189 165.875 26.1818C166.235 26.8447 166.415 27.6553 166.415 28.6136V29.3068H160.597V29.3807C160.597 29.9148 160.75 30.3447 161.057 30.6705C161.367 30.9962 161.79 31.1591 162.324 31.1591C162.688 31.1591 163.004 31.0833 163.273 30.9318C163.542 30.7765 163.729 30.5549 163.835 30.267L166.386 30.3409C166.227 31.197 165.788 31.8826 165.068 32.3977C164.348 32.9091 163.417 33.1648 162.273 33.1648ZM160.597 27.6932H163.83C163.826 27.2462 163.674 26.8807 163.375 26.5966C163.08 26.3087 162.703 26.1648 162.244 26.1648C161.782 26.1648 161.396 26.3106 161.085 26.6023C160.778 26.8939 160.616 27.2576 160.597 27.6932Z" fill="black"/>
<path d="M16.5625 53V44.2727H20.3466C21.3438 44.2727 22.1009 44.4702 22.6179 44.8651C23.1378 45.2599 23.3977 45.7898 23.3977 46.4545C23.3977 46.9347 23.2429 47.348 22.9332 47.6946C22.6236 48.0412 22.2159 48.2642 21.7102 48.3636V48.4489C22.0852 48.4631 22.4261 48.5582 22.733 48.7344C23.0398 48.9077 23.2841 49.1477 23.4659 49.4545C23.6477 49.7585 23.7386 50.1165 23.7386 50.5284C23.7386 51.0057 23.6136 51.4304 23.3636 51.8026C23.1165 52.1747 22.7642 52.4673 22.3068 52.6804C21.8494 52.8935 21.304 53 20.6705 53H16.5625ZM18.9318 51.108H20.0398C20.8352 51.108 21.233 50.8125 21.233 50.2216C21.233 49.9148 21.1293 49.679 20.9219 49.5142C20.7173 49.3494 20.4347 49.267 20.0739 49.267H18.9318V51.108ZM18.9318 47.8011H19.9034C20.2159 47.8011 20.4702 47.7287 20.6662 47.5838C20.8622 47.4389 20.9602 47.233 20.9602 46.9659C20.9602 46.696 20.8636 46.4901 20.6705 46.348C20.4773 46.2031 20.233 46.1307 19.9375 46.1307H18.9318V47.8011ZM24.6122 53V46.4545H26.8963V47.6989H26.9645C27.0866 47.2386 27.277 46.902 27.5355 46.6889C27.794 46.4759 28.098 46.3693 28.4474 46.3693C28.6179 46.3693 28.7841 46.3906 28.946 46.4332C29.108 46.4759 29.2543 46.5341 29.3849 46.608L28.7031 48.5341C28.6065 48.4886 28.5057 48.4489 28.4006 48.4148C28.2955 48.3807 28.1804 48.3636 28.0554 48.3636C27.7628 48.3636 27.5085 48.4759 27.2926 48.7003C27.0767 48.9219 26.9673 49.2187 26.9645 49.5909V53H24.6122ZM31.6392 53.1023C31.0142 53.1023 30.5028 52.9474 30.1051 52.6378C29.7074 52.3253 29.5085 51.8437 29.5085 51.1932C29.5085 50.7131 29.6151 50.3267 29.8281 50.0341C30.0412 49.7415 30.3295 49.5227 30.6932 49.3778C31.0568 49.233 31.4631 49.1449 31.9119 49.1136C32.4631 49.0739 32.8537 49.0156 33.0838 48.9389C33.3139 48.8594 33.429 48.7244 33.429 48.5341V48.517C33.429 48.3466 33.3636 48.2159 33.233 48.125C33.1023 48.0341 32.9347 47.9886 32.7301 47.9886C32.5057 47.9886 32.3224 48.0384 32.1804 48.1378C32.0412 48.2344 31.9574 48.3835 31.929 48.5852H29.7642C29.7926 48.1875 29.919 47.821 30.1435 47.4858C30.3707 47.1477 30.7017 46.8778 31.1364 46.6761C31.571 46.4716 32.1136 46.3693 32.7642 46.3693C33.3892 46.3693 33.9261 46.4645 34.375 46.6548C34.8267 46.8452 35.1733 47.1023 35.4148 47.4261C35.6591 47.75 35.7812 48.1136 35.7812 48.517V53H33.5824V52.0795H33.5312C33.3324 52.446 33.0739 52.7088 32.7557 52.8679C32.4375 53.0241 32.0653 53.1023 31.6392 53.1023ZM32.4062 51.6193C32.6733 51.6193 32.9134 51.5384 33.1264 51.3764C33.3395 51.2116 33.446 50.9801 33.446 50.6818V50.1364C33.2131 50.233 32.9006 50.3125 32.5085 50.375C32.2358 50.4176 32.0369 50.5 31.9119 50.6222C31.7869 50.7443 31.7244 50.8892 31.7244 51.0568C31.7244 51.2386 31.7884 51.3778 31.9162 51.4744C32.044 51.571 32.2074 51.6193 32.4062 51.6193ZM39.2575 49.3182V53H36.9052V46.4545H39.1381V47.6989H39.2063C39.3484 47.2841 39.5984 46.9588 39.9563 46.723C40.3171 46.4872 40.7376 46.3693 41.2177 46.3693C41.6808 46.3693 42.0827 46.4759 42.4237 46.6889C42.7674 46.8991 43.033 47.1889 43.2205 47.5582C43.4109 47.9276 43.5046 48.3494 43.5018 48.8239V53H41.1495V49.3182C41.1523 48.9943 41.07 48.7401 40.9023 48.5554C40.7376 48.3707 40.5075 48.2784 40.212 48.2784C39.9194 48.2784 39.6879 48.3707 39.5174 48.5554C39.3469 48.7401 39.2603 48.9943 39.2575 49.3182ZM47.0323 53.0852C46.5664 53.0852 46.1374 52.9631 45.7454 52.7188C45.3562 52.4744 45.0437 52.1037 44.8079 51.6065C44.5749 51.1094 44.4585 50.483 44.4585 49.7273C44.4585 48.9375 44.5806 48.2955 44.8249 47.8011C45.0721 47.3068 45.3903 46.9446 45.7795 46.7145C46.1715 46.4844 46.5835 46.3693 47.0153 46.3693C47.5011 46.3693 47.8974 46.4915 48.2042 46.7358C48.511 46.9773 48.7283 47.2642 48.8562 47.5966H48.8903V44.2727H51.2425V53H48.9073V51.9261H48.8562C48.7198 52.2585 48.4968 52.5355 48.1871 52.7571C47.8775 52.9759 47.4925 53.0852 47.0323 53.0852ZM47.9016 51.2784C48.2255 51.2784 48.4798 51.1392 48.6644 50.8608C48.8491 50.5824 48.9414 50.2045 48.9414 49.7273C48.9414 49.2415 48.8491 48.8622 48.6644 48.5895C48.4798 48.3139 48.2255 48.1761 47.9016 48.1761C47.5778 48.1761 47.3263 48.3139 47.1474 48.5895C46.9684 48.8622 46.8789 49.2415 46.8789 49.7273C46.8789 50.2131 46.9684 50.5937 47.1474 50.8693C47.3263 51.142 47.5778 51.2784 47.9016 51.2784ZM54.6815 51.8068L54.6474 52.2841C54.619 52.6932 54.5508 53.0852 54.4428 53.4602C54.3377 53.8352 54.2255 54.1676 54.1062 54.4574C53.9897 54.7472 53.8974 54.9716 53.8292 55.1307H52.3803C52.4258 54.9716 52.4897 54.7415 52.5721 54.4403C52.6573 54.142 52.734 53.804 52.8022 53.4261C52.8732 53.0511 52.9087 52.6705 52.9087 52.2841V51.8068H54.6815ZM60.1616 53H57.6048L60.4854 44.2727H63.7241L66.6048 53H64.0479L63.5451 51.3295H60.6644L60.1616 53ZM61.2013 49.5568H63.0082L62.1388 46.6761H62.0707L61.2013 49.5568ZM70.1172 53.1193C69.407 53.1193 68.799 52.9787 68.2933 52.6974C67.7876 52.4134 67.3999 52.0185 67.13 51.5128C66.8601 51.0043 66.7251 50.4148 66.7251 49.7443C66.7251 49.0739 66.8601 48.4858 67.13 47.9801C67.3999 47.4716 67.7876 47.0767 68.2933 46.7955C68.799 46.5114 69.407 46.3693 70.1172 46.3693C70.7592 46.3693 71.3146 46.4858 71.7834 46.7188C72.255 46.9489 72.62 47.2756 72.8786 47.6989C73.1371 48.1193 73.2678 48.6136 73.2706 49.1818H71.0888C71.0575 48.8381 70.9581 48.5767 70.7905 48.3977C70.6257 48.2159 70.4126 48.125 70.1513 48.125C69.8416 48.125 69.593 48.2585 69.4055 48.5256C69.2209 48.7898 69.1286 49.1903 69.1286 49.7273C69.1286 50.2642 69.2209 50.6662 69.4055 50.9332C69.593 51.1974 69.8416 51.3295 70.1513 51.3295C70.4098 51.3295 70.6243 51.2401 70.7947 51.0611C70.9652 50.8793 71.0632 50.6165 71.0888 50.2727H73.2706C73.2592 51.1392 72.9723 51.831 72.4098 52.348C71.8501 52.8622 71.0859 53.1193 70.1172 53.1193ZM77.3945 53.1193C76.6843 53.1193 76.0763 52.9787 75.5707 52.6974C75.065 52.4134 74.6772 52.0185 74.4073 51.5128C74.1374 51.0043 74.0025 50.4148 74.0025 49.7443C74.0025 49.0739 74.1374 48.4858 74.4073 47.9801C74.6772 47.4716 75.065 47.0767 75.5707 46.7955C76.0763 46.5114 76.6843 46.3693 77.3945 46.3693C78.0366 46.3693 78.592 46.4858 79.0607 46.7188C79.5323 46.9489 79.8974 47.2756 80.1559 47.6989C80.4144 48.1193 80.5451 48.6136 80.5479 49.1818H78.3661C78.3349 48.8381 78.2354 48.5767 78.0678 48.3977C77.9031 48.2159 77.69 48.125 77.4286 48.125C77.119 48.125 76.8704 48.2585 76.6829 48.5256C76.4982 48.7898 76.4059 49.1903 76.4059 49.7273C76.4059 50.2642 76.4982 50.6662 76.6829 50.9332C76.8704 51.1974 77.119 51.3295 77.4286 51.3295C77.6871 51.3295 77.9016 51.2401 78.0721 51.0611C78.2425 50.8793 78.3406 50.6165 78.3661 50.2727H80.5479C80.5366 51.1392 80.2496 51.831 79.6871 52.348C79.1275 52.8622 78.3633 53.1193 77.3945 53.1193ZM84.6719 53.1193C83.9616 53.1193 83.3537 52.9787 82.848 52.6974C82.3423 52.4134 81.9545 52.0185 81.6847 51.5128C81.4148 51.0043 81.2798 50.4148 81.2798 49.7443C81.2798 49.0739 81.4148 48.4858 81.6847 47.9801C81.9545 47.4716 82.3423 47.0767 82.848 46.7955C83.3537 46.5114 83.9616 46.3693 84.6719 46.3693C85.3821 46.3693 85.9901 46.5114 86.4957 46.7955C87.0014 47.0767 87.3892 47.4716 87.6591 47.9801C87.929 48.4858 88.0639 49.0739 88.0639 49.7443C88.0639 50.4148 87.929 51.0043 87.6591 51.5128C87.3892 52.0185 87.0014 52.4134 86.4957 52.6974C85.9901 52.9787 85.3821 53.1193 84.6719 53.1193ZM84.6889 51.3807C84.9872 51.3807 85.223 51.2344 85.3963 50.9418C85.5724 50.6463 85.6605 50.2415 85.6605 49.7273C85.6605 49.2131 85.5724 48.8097 85.3963 48.517C85.223 48.2216 84.9872 48.0739 84.6889 48.0739C84.3736 48.0739 84.1264 48.2216 83.9474 48.517C83.7713 48.8097 83.6832 49.2131 83.6832 49.7273C83.6832 50.2415 83.7713 50.6463 83.9474 50.9418C84.1264 51.2344 84.3736 51.3807 84.6889 51.3807ZM93.2628 50.1364V46.4545H95.6151V53H93.3821V51.7557H93.3139C93.1719 52.1733 92.9233 52.5 92.5682 52.7358C92.2131 52.9687 91.7912 53.0852 91.3026 53.0852C90.8452 53.0852 90.4446 52.9801 90.1009 52.7699C89.7599 52.5597 89.4943 52.2699 89.304 51.9006C89.1165 51.5312 89.0213 51.108 89.0185 50.6307V46.4545H91.3707V50.1364C91.3736 50.4602 91.456 50.7145 91.6179 50.8991C91.7827 51.0838 92.0128 51.1761 92.3082 51.1761C92.6009 51.1761 92.8338 51.0838 93.0071 50.8991C93.1804 50.7145 93.2656 50.4602 93.2628 50.1364ZM99.1637 49.3182V53H96.8114V46.4545H99.0444V47.6989H99.1126C99.2546 47.2841 99.5046 46.9588 99.8626 46.723C100.223 46.4872 100.644 46.3693 101.124 46.3693C101.587 46.3693 101.989 46.4759 102.33 46.6889C102.674 46.8991 102.939 47.1889 103.127 47.5582C103.317 47.9276 103.411 48.3494 103.408 48.8239V53H101.056V49.3182C101.059 48.9943 100.976 48.7401 100.809 48.5554C100.644 48.3707 100.414 48.2784 100.118 48.2784C99.8256 48.2784 99.5941 48.3707 99.4237 48.5554C99.2532 48.7401 99.1665 48.9943 99.1637 49.3182ZM108.473 46.4545V48.1591H107.348V50.8949C107.348 51.1676 107.495 51.304 107.791 51.304C107.862 51.304 107.944 51.2955 108.038 51.2784C108.135 51.2614 108.206 51.2472 108.251 51.2358L108.592 52.8892C108.487 52.9205 108.336 52.9588 108.14 53.0043C107.947 53.0497 107.717 53.0795 107.45 53.0938C106.637 53.1392 106.022 52.9929 105.605 52.6548C105.19 52.3139 104.987 51.8011 104.995 51.1165V48.1591H104.16V46.4545H104.995V44.8864H107.348V46.4545H108.473ZM115.345 48.5852H113.18C113.163 48.3835 113.07 48.2259 112.899 48.1122C112.729 47.9957 112.527 47.9375 112.294 47.9375C112.092 47.9375 111.919 47.9744 111.774 48.0483C111.629 48.1222 111.558 48.2273 111.561 48.3636C111.558 48.4602 111.599 48.5497 111.685 48.6321C111.773 48.7145 111.942 48.7784 112.192 48.8239L113.521 49.0625C114.842 49.3011 115.507 49.892 115.516 50.8352C115.513 51.3011 115.374 51.706 115.098 52.0497C114.825 52.3906 114.452 52.6548 113.977 52.8423C113.506 53.027 112.967 53.1193 112.362 53.1193C111.362 53.1193 110.58 52.9148 110.014 52.5057C109.452 52.0966 109.138 51.5568 109.072 50.8864H111.408C111.439 51.0937 111.541 51.2543 111.714 51.3679C111.891 51.4787 112.112 51.5341 112.379 51.5341C112.595 51.5341 112.773 51.4972 112.912 51.4233C113.054 51.3494 113.126 51.2443 113.129 51.108C113.121 50.8807 112.871 50.7216 112.379 50.6307L111.22 50.4261C109.882 50.1903 109.217 49.5483 109.226 48.5C109.223 47.8182 109.491 47.2926 110.031 46.9233C110.571 46.554 111.308 46.3693 112.243 46.3693C113.189 46.3693 113.935 46.5653 114.48 46.9574C115.028 47.3494 115.317 47.892 115.345 48.5852ZM118.701 51.8068L118.667 52.2841C118.638 52.6932 118.57 53.0852 118.462 53.4602C118.357 53.8352 118.245 54.1676 118.126 54.4574C118.009 54.7472 117.917 54.9716 117.849 55.1307H116.4C116.445 54.9716 116.509 54.7415 116.592 54.4403C116.677 54.142 116.754 53.804 116.822 53.4261C116.893 53.0511 116.928 52.6705 116.928 52.2841V51.8068H118.701ZM124.3 44.2727L126.09 50.4261H126.158L127.948 44.2727H130.624L127.744 53H124.505L121.624 44.2727H124.3ZM132.526 53.1023C131.901 53.1023 131.39 52.9474 130.992 52.6378C130.594 52.3253 130.395 51.8437 130.395 51.1932C130.395 50.7131 130.502 50.3267 130.715 50.0341C130.928 49.7415 131.216 49.5227 131.58 49.3778C131.944 49.233 132.35 49.1449 132.799 49.1136C133.35 49.0739 133.74 49.0156 133.971 48.9389C134.201 48.8594 134.316 48.7244 134.316 48.5341V48.517C134.316 48.3466 134.25 48.2159 134.12 48.125C133.989 48.0341 133.821 47.9886 133.617 47.9886C133.392 47.9886 133.209 48.0384 133.067 48.1378C132.928 48.2344 132.844 48.3835 132.816 48.5852H130.651C130.679 48.1875 130.806 47.821 131.03 47.4858C131.257 47.1477 131.588 46.8778 132.023 46.6761C132.458 46.4716 133 46.3693 133.651 46.3693C134.276 46.3693 134.813 46.4645 135.262 46.6548C135.713 46.8452 136.06 47.1023 136.301 47.4261C136.546 47.75 136.668 48.1136 136.668 48.517V53H134.469V52.0795H134.418C134.219 52.446 133.961 52.7088 133.642 52.8679C133.324 53.0241 132.952 53.1023 132.526 53.1023ZM133.293 51.6193C133.56 51.6193 133.8 51.5384 134.013 51.3764C134.226 51.2116 134.333 50.9801 134.333 50.6818V50.1364C134.1 50.233 133.787 50.3125 133.395 50.375C133.123 50.4176 132.924 50.5 132.799 50.6222C132.674 50.7443 132.611 50.8892 132.611 51.0568C132.611 51.2386 132.675 51.3778 132.803 51.4744C132.931 51.571 133.094 51.6193 133.293 51.6193ZM140.144 44.2727V53H137.792V44.2727H140.144ZM145.587 50.1364V46.4545H147.939V53H145.706V51.7557H145.638C145.496 52.1733 145.248 52.5 144.892 52.7358C144.537 52.9687 144.115 53.0852 143.627 53.0852C143.169 53.0852 142.769 52.9801 142.425 52.7699C142.084 52.5597 141.819 52.2699 141.628 51.9006C141.441 51.5312 141.346 51.108 141.343 50.6307V46.4545H143.695V50.1364C143.698 50.4602 143.78 50.7145 143.942 50.8991C144.107 51.0838 144.337 51.1761 144.632 51.1761C144.925 51.1761 145.158 51.0838 145.331 50.8991C145.505 50.7145 145.59 50.4602 145.587 50.1364ZM152.272 53.1193C151.224 53.1193 150.398 52.8224 149.796 52.2287C149.197 51.6321 148.897 50.804 148.897 49.7443C148.897 49.0682 149.033 48.4773 149.306 47.9716C149.579 47.4659 149.964 47.0724 150.461 46.7912C150.958 46.5099 151.545 46.3693 152.221 46.3693C152.88 46.3693 153.452 46.5043 153.938 46.7741C154.427 47.044 154.805 47.4304 155.072 47.9332C155.342 48.4332 155.477 49.0312 155.477 49.7273V50.2727H151.215V50.375C151.215 50.6903 151.312 50.9517 151.505 51.1591C151.701 51.3636 151.974 51.4659 152.323 51.4659C152.565 51.4659 152.775 51.4162 152.954 51.3168C153.136 51.2145 153.261 51.071 153.329 50.8864H155.477C155.366 51.5682 155.031 52.1108 154.471 52.5142C153.914 52.9176 153.181 53.1193 152.272 53.1193ZM151.215 48.9773H153.312C153.306 48.696 153.204 48.4673 153.005 48.2912C152.809 48.1122 152.565 48.0227 152.272 48.0227C151.985 48.0227 151.738 48.1108 151.531 48.2869C151.326 48.4631 151.221 48.6932 151.215 48.9773ZM158.827 55.4545V46.4545H161.162V47.5966H161.213C161.341 47.2642 161.559 46.9773 161.865 46.7358C162.172 46.4915 162.569 46.3693 163.054 46.3693C163.486 46.3693 163.897 46.4844 164.286 46.7145C164.678 46.9446 164.996 47.3068 165.24 47.8011C165.488 48.2955 165.611 48.9375 165.611 49.7273C165.611 50.483 165.493 51.1094 165.257 51.6065C165.025 52.1037 164.712 52.4744 164.32 52.7188C163.931 52.9631 163.503 53.0852 163.037 53.0852C162.577 53.0852 162.192 52.9759 161.882 52.7571C161.573 52.5355 161.35 52.2585 161.213 51.9261H161.179V55.4545H158.827ZM161.128 49.7273C161.128 50.2045 161.221 50.5824 161.405 50.8608C161.59 51.1392 161.844 51.2784 162.168 51.2784C162.492 51.2784 162.743 51.142 162.922 50.8693C163.101 50.5937 163.191 50.2131 163.191 49.7273C163.191 49.2415 163.101 48.8622 162.922 48.5895C162.743 48.3139 162.492 48.1761 162.168 48.1761C161.844 48.1761 161.59 48.3139 161.405 48.5895C161.221 48.8622 161.128 49.2415 161.128 49.7273ZM166.597 53V46.4545H168.881V47.6989H168.949C169.071 47.2386 169.261 46.902 169.52 46.6889C169.778 46.4759 170.082 46.3693 170.432 46.3693C170.602 46.3693 170.768 46.3906 170.93 46.4332C171.092 46.4759 171.239 46.5341 171.369 46.608L170.688 48.5341C170.591 48.4886 170.49 48.4489 170.385 48.4148C170.28 48.3807 170.165 48.3636 170.04 48.3636C169.747 48.3636 169.493 48.4759 169.277 48.7003C169.061 48.9219 168.952 49.2187 168.949 49.5909V53H166.597ZM174.883 53.1193C174.173 53.1193 173.565 52.9787 173.059 52.6974C172.553 52.4134 172.165 52.0185 171.896 51.5128C171.626 51.0043 171.491 50.4148 171.491 49.7443C171.491 49.0739 171.626 48.4858 171.896 47.9801C172.165 47.4716 172.553 47.0767 173.059 46.7955C173.565 46.5114 174.173 46.3693 174.883 46.3693C175.593 46.3693 176.201 46.5114 176.707 46.7955C177.212 47.0767 177.6 47.4716 177.87 47.9801C178.14 48.4858 178.275 49.0739 178.275 49.7443C178.275 50.4148 178.14 51.0043 177.87 51.5128C177.6 52.0185 177.212 52.4134 176.707 52.6974C176.201 52.9787 175.593 53.1193 174.883 53.1193ZM174.9 51.3807C175.198 51.3807 175.434 51.2344 175.607 50.9418C175.783 50.6463 175.871 50.2415 175.871 49.7273C175.871 49.2131 175.783 48.8097 175.607 48.517C175.434 48.2216 175.198 48.0739 174.9 48.0739C174.585 48.0739 174.337 48.2216 174.158 48.517C173.982 48.8097 173.894 49.2131 173.894 49.7273C173.894 50.2415 173.982 50.6463 174.158 50.9418C174.337 51.2344 174.585 51.3807 174.9 51.3807ZM179.229 55.4545V46.4545H181.565V47.5966H181.616C181.744 47.2642 181.961 46.9773 182.268 46.7358C182.575 46.4915 182.971 46.3693 183.457 46.3693C183.888 46.3693 184.299 46.4844 184.688 46.7145C185.08 46.9446 185.398 47.3068 185.643 47.8011C185.89 48.2955 186.013 48.9375 186.013 49.7273C186.013 50.483 185.896 51.1094 185.66 51.6065C185.427 52.1037 185.114 52.4744 184.722 52.7188C184.333 52.9631 183.906 53.0852 183.44 53.0852C182.979 53.0852 182.594 52.9759 182.285 52.7571C181.975 52.5355 181.752 52.2585 181.616 51.9261H181.582V55.4545H179.229ZM181.531 49.7273C181.531 50.2045 181.623 50.5824 181.808 50.8608C181.992 51.1392 182.246 51.2784 182.57 51.2784C182.894 51.2784 183.146 51.142 183.325 50.8693C183.504 50.5937 183.593 50.2131 183.593 49.7273C183.593 49.2415 183.504 48.8622 183.325 48.5895C183.146 48.3139 182.894 48.1761 182.57 48.1761C182.246 48.1761 181.992 48.3139 181.808 48.5895C181.623 48.8622 181.531 49.2415 181.531 49.7273ZM190.152 53.1193C189.442 53.1193 188.834 52.9787 188.328 52.6974C187.823 52.4134 187.435 52.0185 187.165 51.5128C186.895 51.0043 186.76 50.4148 186.76 49.7443C186.76 49.0739 186.895 48.4858 187.165 47.9801C187.435 47.4716 187.823 47.0767 188.328 46.7955C188.834 46.5114 189.442 46.3693 190.152 46.3693C190.863 46.3693 191.471 46.5114 191.976 46.7955C192.482 47.0767 192.87 47.4716 193.14 47.9801C193.409 48.4858 193.544 49.0739 193.544 49.7443C193.544 50.4148 193.409 51.0043 193.14 51.5128C192.87 52.0185 192.482 52.4134 191.976 52.6974C191.471 52.9787 190.863 53.1193 190.152 53.1193ZM190.169 51.3807C190.468 51.3807 190.703 51.2344 190.877 50.9418C191.053 50.6463 191.141 50.2415 191.141 49.7273C191.141 49.2131 191.053 48.8097 190.877 48.517C190.703 48.2216 190.468 48.0739 190.169 48.0739C189.854 48.0739 189.607 48.2216 189.428 48.517C189.252 48.8097 189.164 49.2131 189.164 49.7273C189.164 50.2415 189.252 50.6463 189.428 50.9418C189.607 51.2344 189.854 51.3807 190.169 51.3807ZM200.482 48.5852H198.317C198.3 48.3835 198.206 48.2259 198.036 48.1122C197.865 47.9957 197.664 47.9375 197.431 47.9375C197.229 47.9375 197.056 47.9744 196.911 48.0483C196.766 48.1222 196.695 48.2273 196.698 48.3636C196.695 48.4602 196.736 48.5497 196.821 48.6321C196.909 48.7145 197.078 48.7784 197.328 48.8239L198.658 49.0625C199.979 49.3011 200.644 49.892 200.652 50.8352C200.65 51.3011 200.51 51.706 200.235 52.0497C199.962 52.3906 199.588 52.6548 199.114 52.8423C198.642 53.027 198.104 53.1193 197.499 53.1193C196.499 53.1193 195.716 52.9148 195.151 52.5057C194.588 52.0966 194.275 51.5568 194.209 50.8864H196.544C196.576 51.0937 196.678 51.2543 196.851 51.3679C197.027 51.4787 197.249 51.5341 197.516 51.5341C197.732 51.5341 197.909 51.4972 198.049 51.4233C198.191 51.3494 198.263 51.2443 198.266 51.108C198.257 50.8807 198.007 50.7216 197.516 50.6307L196.357 50.4261C195.019 50.1903 194.354 49.5483 194.363 48.5C194.36 47.8182 194.628 47.2926 195.168 46.9233C195.708 46.554 196.445 46.3693 197.38 46.3693C198.326 46.3693 199.071 46.5653 199.617 46.9574C200.165 47.3494 200.453 47.892 200.482 48.5852ZM201.554 53V46.4545H203.906V53H201.554ZM202.73 45.7727C202.412 45.7727 202.139 45.6676 201.912 45.4574C201.684 45.2472 201.571 44.9943 201.571 44.6989C201.571 44.4034 201.684 44.1506 201.912 43.9403C202.139 43.7301 202.412 43.625 202.73 43.625C203.051 43.625 203.324 43.7301 203.548 43.9403C203.775 44.1506 203.889 44.4034 203.889 44.6989C203.889 44.9943 203.775 45.2472 203.548 45.4574C203.324 45.6676 203.051 45.7727 202.73 45.7727ZM209.008 46.4545V48.1591H207.883V50.8949C207.883 51.1676 208.031 51.304 208.326 51.304C208.397 51.304 208.479 51.2955 208.573 51.2784C208.67 51.2614 208.741 51.2472 208.786 51.2358L209.127 52.8892C209.022 52.9205 208.871 52.9588 208.675 53.0043C208.482 53.0497 208.252 53.0795 207.985 53.0938C207.173 53.1392 206.558 52.9929 206.14 52.6548C205.725 52.3139 205.522 51.8011 205.531 51.1165V48.1591H204.695V46.4545H205.531V44.8864H207.883V46.4545H209.008ZM209.968 53V46.4545H212.32V53H209.968ZM211.144 45.7727C210.826 45.7727 210.553 45.6676 210.326 45.4574C210.098 45.2472 209.985 44.9943 209.985 44.6989C209.985 44.4034 210.098 44.1506 210.326 43.9403C210.553 43.7301 210.826 43.625 211.144 43.625C211.465 43.625 211.738 43.7301 211.962 43.9403C212.189 44.1506 212.303 44.4034 212.303 44.6989C212.303 44.9943 212.189 45.2472 211.962 45.4574C211.738 45.6676 211.465 45.7727 211.144 45.7727ZM216.672 53.1193C215.962 53.1193 215.354 52.9787 214.848 52.6974C214.342 52.4134 213.955 52.0185 213.685 51.5128C213.415 51.0043 213.28 50.4148 213.28 49.7443C213.28 49.0739 213.415 48.4858 213.685 47.9801C213.955 47.4716 214.342 47.0767 214.848 46.7955C215.354 46.5114 215.962 46.3693 216.672 46.3693C217.382 46.3693 217.99 46.5114 218.496 46.7955C219.001 47.0767 219.389 47.4716 219.659 47.9801C219.929 48.4858 220.064 49.0739 220.064 49.7443C220.064 50.4148 219.929 51.0043 219.659 51.5128C219.389 52.0185 219.001 52.4134 218.496 52.6974C217.99 52.9787 217.382 53.1193 216.672 53.1193ZM216.689 51.3807C216.987 51.3807 217.223 51.2344 217.396 50.9418C217.572 50.6463 217.661 50.2415 217.661 49.7273C217.661 49.2131 217.572 48.8097 217.396 48.517C217.223 48.2216 216.987 48.0739 216.689 48.0739C216.374 48.0739 216.126 48.2216 215.947 48.517C215.771 48.8097 215.683 49.2131 215.683 49.7273C215.683 50.2415 215.771 50.6463 215.947 50.9418C216.126 51.2344 216.374 51.3807 216.689 51.3807ZM223.371 49.3182V53H221.018V46.4545H223.251V47.6989H223.32C223.462 47.2841 223.712 46.9588 224.07 46.723C224.43 46.4872 224.851 46.3693 225.331 46.3693C225.794 46.3693 226.196 46.4759 226.537 46.6889C226.881 46.8991 227.146 47.1889 227.334 47.5582C227.524 47.9276 227.618 48.3494 227.615 48.8239V53H225.263V49.3182C225.266 48.9943 225.183 48.7401 225.016 48.5554C224.851 48.3707 224.621 48.2784 224.325 48.2784C224.033 48.2784 223.801 48.3707 223.631 48.5554C223.46 48.7401 223.374 48.9943 223.371 49.3182ZM231.06 51.8068L231.026 52.2841C230.998 52.6932 230.93 53.0852 230.822 53.4602C230.717 53.8352 230.604 54.1676 230.485 54.4574C230.369 54.7472 230.276 54.9716 230.208 55.1307H228.759C228.805 54.9716 228.869 54.7415 228.951 54.4403C229.036 54.142 229.113 53.804 229.181 53.4261C229.252 53.0511 229.288 52.6705 229.288 52.2841V51.8068H231.06ZM237.631 53H234.273V44.2727H237.597C238.495 44.2727 239.271 44.4474 239.924 44.7969C240.58 45.1435 241.086 45.6435 241.441 46.2969C241.799 46.9474 241.978 47.7273 241.978 48.6364C241.978 49.5455 241.8 50.3267 241.445 50.9801C241.09 51.6307 240.587 52.1307 239.937 52.4801C239.286 52.8267 238.518 53 237.631 53ZM236.643 50.9886H237.546C237.978 50.9886 238.346 50.919 238.65 50.7798C238.957 50.6406 239.19 50.4006 239.349 50.0597C239.511 49.7187 239.592 49.2443 239.592 48.6364C239.592 48.0284 239.509 47.554 239.344 47.2131C239.183 46.8722 238.944 46.6321 238.629 46.4929C238.316 46.3537 237.933 46.2841 237.478 46.2841H236.643V50.9886ZM246.262 53.1193C245.551 53.1193 244.944 52.9787 244.438 52.6974C243.932 52.4134 243.544 52.0185 243.275 51.5128C243.005 51.0043 242.87 50.4148 242.87 49.7443C242.87 49.0739 243.005 48.4858 243.275 47.9801C243.544 47.4716 243.932 47.0767 244.438 46.7955C244.944 46.5114 245.551 46.3693 246.262 46.3693C246.972 46.3693 247.58 46.5114 248.086 46.7955C248.591 47.0767 248.979 47.4716 249.249 47.9801C249.519 48.4858 249.654 49.0739 249.654 49.7443C249.654 50.4148 249.519 51.0043 249.249 51.5128C248.979 52.0185 248.591 52.4134 248.086 52.6974C247.58 52.9787 246.972 53.1193 246.262 53.1193ZM246.279 51.3807C246.577 51.3807 246.813 51.2344 246.986 50.9418C247.162 50.6463 247.25 50.2415 247.25 49.7273C247.25 49.2131 247.162 48.8097 246.986 48.517C246.813 48.2216 246.577 48.0739 246.279 48.0739C245.963 48.0739 245.716 48.2216 245.537 48.517C245.361 48.8097 245.273 49.2131 245.273 49.7273C245.273 50.2415 245.361 50.6463 245.537 50.9418C245.716 51.2344 245.963 51.3807 246.279 51.3807ZM250.608 53V46.4545H252.841V47.6989H252.909C253.046 47.2898 253.279 46.9659 253.608 46.7273C253.938 46.4886 254.33 46.3693 254.784 46.3693C255.245 46.3693 255.641 46.4915 255.973 46.7358C256.306 46.9773 256.506 47.2983 256.574 47.6989H256.642C256.753 47.2983 256.989 46.9773 257.35 46.7358C257.711 46.4915 258.134 46.3693 258.62 46.3693C259.248 46.3693 259.756 46.571 260.145 46.9744C260.537 47.3778 260.733 47.9148 260.733 48.5852V53H258.381V49.1818C258.381 48.8949 258.309 48.6705 258.164 48.5085C258.019 48.3437 257.824 48.2614 257.58 48.2614C257.338 48.2614 257.147 48.3437 257.005 48.5085C256.865 48.6705 256.796 48.8949 256.796 49.1818V53H254.546V49.1818C254.546 48.8949 254.473 48.6705 254.328 48.5085C254.184 48.3437 253.989 48.2614 253.745 48.2614C253.503 48.2614 253.311 48.3437 253.169 48.5085C253.03 48.6705 252.961 48.8949 252.961 49.1818V53H250.608ZM263.717 53.1023C263.092 53.1023 262.581 52.9474 262.183 52.6378C261.786 52.3253 261.587 51.8437 261.587 51.1932C261.587 50.7131 261.693 50.3267 261.906 50.0341C262.119 49.7415 262.408 49.5227 262.771 49.3778C263.135 49.233 263.541 49.1449 263.99 49.1136C264.541 49.0739 264.932 49.0156 265.162 48.9389C265.392 48.8594 265.507 48.7244 265.507 48.5341V48.517C265.507 48.3466 265.442 48.2159 265.311 48.125C265.18 48.0341 265.013 47.9886 264.808 47.9886C264.584 47.9886 264.401 48.0384 264.259 48.1378C264.119 48.2344 264.036 48.3835 264.007 48.5852H261.842C261.871 48.1875 261.997 47.821 262.222 47.4858C262.449 47.1477 262.78 46.8778 263.214 46.6761C263.649 46.4716 264.192 46.3693 264.842 46.3693C265.467 46.3693 266.004 46.4645 266.453 46.6548C266.905 46.8452 267.251 47.1023 267.493 47.4261C267.737 47.75 267.859 48.1136 267.859 48.517V53H265.661V52.0795H265.609C265.411 52.446 265.152 52.7088 264.834 52.8679C264.516 53.0241 264.143 53.1023 263.717 53.1023ZM264.484 51.6193C264.751 51.6193 264.991 51.5384 265.205 51.3764C265.418 51.2116 265.524 50.9801 265.524 50.6818V50.1364C265.291 50.233 264.979 50.3125 264.587 50.375C264.314 50.4176 264.115 50.5 263.99 50.6222C263.865 50.7443 263.803 50.8892 263.803 51.0568C263.803 51.2386 263.866 51.3778 263.994 51.4744C264.122 51.571 264.286 51.6193 264.484 51.6193ZM268.983 53V46.4545H271.336V53H268.983ZM270.159 45.7727C269.841 45.7727 269.569 45.6676 269.341 45.4574C269.114 45.2472 269 44.9943 269 44.6989C269 44.4034 269.114 44.1506 269.341 43.9403C269.569 43.7301 269.841 43.625 270.159 43.625C270.48 43.625 270.753 43.7301 270.978 43.9403C271.205 44.1506 271.319 44.4034 271.319 44.6989C271.319 44.9943 271.205 45.2472 270.978 45.4574C270.753 45.6676 270.48 45.7727 270.159 45.7727ZM274.886 49.3182V53H272.534V46.4545H274.767V47.6989H274.835C274.977 47.2841 275.227 46.9588 275.585 46.723C275.946 46.4872 276.366 46.3693 276.847 46.3693C277.31 46.3693 277.712 46.4759 278.053 46.6889C278.396 46.8991 278.662 47.1889 278.849 47.5582C279.04 47.9276 279.134 48.3494 279.131 48.8239V53H276.778V49.3182C276.781 48.9943 276.699 48.7401 276.531 48.5554C276.366 48.3707 276.136 48.2784 275.841 48.2784C275.548 48.2784 275.317 48.3707 275.146 48.5554C274.976 48.7401 274.889 48.9943 274.886 49.3182Z" fill="#828282"/>
<rect x="17.5" y="76.5" width="157" height="93" stroke="black" stroke-width="3"/>
<path d="M37.1705 107.852C37.1326 107.436 36.964 107.112 36.6648 106.881C36.3693 106.646 35.947 106.528 35.3977 106.528C34.8523 106.528 34.4432 106.633 34.1705 106.841C33.8977 107.045 33.7595 107.307 33.7557 107.625C33.7443 107.97 33.8939 108.241 34.2045 108.438C34.5152 108.631 34.9337 108.784 35.4602 108.898L36.4602 109.125C37.608 109.379 38.4867 109.794 39.0966 110.369C39.7102 110.945 40.0189 111.697 40.0227 112.625C40.0189 113.731 39.6098 114.595 38.7955 115.216C37.9811 115.837 36.8485 116.148 35.3977 116.148C33.9356 116.148 32.7652 115.818 31.8864 115.159C31.0114 114.496 30.5644 113.485 30.5455 112.125H33.2386C33.2689 112.686 33.4754 113.11 33.858 113.398C34.2405 113.682 34.7424 113.824 35.3636 113.824C35.928 113.824 36.3693 113.712 36.6875 113.489C37.0057 113.265 37.1667 112.975 37.1705 112.619C37.1667 112.294 37.0152 112.034 36.7159 111.841C36.4167 111.644 35.947 111.472 35.3068 111.324L34.0909 111.04C33.0871 110.809 32.2936 110.436 31.7102 109.92C31.1307 109.402 30.8428 108.701 30.8466 107.818C30.8428 107.095 31.036 106.462 31.4261 105.92C31.8163 105.379 32.3542 104.958 33.0398 104.659C33.7292 104.356 34.517 104.205 35.4034 104.205C36.3049 104.205 37.0871 104.358 37.75 104.665C38.4167 104.968 38.9337 105.394 39.3011 105.943C39.6686 106.489 39.8561 107.125 39.8636 107.852H37.1705ZM45.5227 116.165C44.1515 116.165 43.072 115.765 42.2841 114.966C41.5 114.167 41.108 113.068 41.108 111.67C41.108 110.769 41.286 109.981 41.642 109.307C41.9981 108.629 42.5 108.102 43.1477 107.727C43.7955 107.348 44.5587 107.159 45.4375 107.159C46.2633 107.159 46.9943 107.331 47.6307 107.676C48.267 108.017 48.7652 108.519 49.125 109.182C49.4848 109.845 49.6648 110.655 49.6648 111.614V112.307H43.8466V112.381C43.8466 112.915 44 113.345 44.3068 113.67C44.6174 113.996 45.0398 114.159 45.5739 114.159C45.9375 114.159 46.2538 114.083 46.5227 113.932C46.7917 113.777 46.9792 113.555 47.0852 113.267L49.6364 113.341C49.4773 114.197 49.0379 114.883 48.3182 115.398C47.5985 115.909 46.6667 116.165 45.5227 116.165ZM43.8466 110.693H47.0795C47.0758 110.246 46.9242 109.881 46.625 109.597C46.3295 109.309 45.9527 109.165 45.4943 109.165C45.0322 109.165 44.6458 109.311 44.3352 109.602C44.0284 109.894 43.8655 110.258 43.8466 110.693ZM51.0838 116V107.273H53.7827V108.864H53.8736C54.0327 108.288 54.2921 107.86 54.652 107.58C55.0118 107.295 55.4304 107.153 55.9077 107.153C56.1728 107.153 56.4323 107.188 56.6861 107.256V109.67C56.5535 109.625 56.3793 109.589 56.1634 109.562C55.9512 109.536 55.7618 109.523 55.5952 109.523C55.099 109.523 54.6861 109.684 54.3565 110.006C54.027 110.324 53.8622 110.742 53.8622 111.261V116H51.0838ZM66.5497 107.273L63.5554 116H60.3736L57.3849 107.273H60.3111L61.919 113.284H62.0099L63.6236 107.273H66.5497ZM67.8026 116V107.273H70.581V116H67.8026ZM69.1946 106.256C68.8045 106.256 68.4692 106.127 68.1889 105.869C67.9086 105.608 67.7685 105.294 67.7685 104.926C67.7685 104.559 67.9086 104.246 68.1889 103.989C68.4692 103.731 68.8045 103.602 69.1946 103.602C69.5885 103.602 69.9238 103.731 70.2003 103.989C70.4806 104.246 70.6207 104.559 70.6207 104.926C70.6207 105.294 70.4806 105.608 70.2003 105.869C69.9238 106.127 69.5885 106.256 69.1946 106.256ZM76.4233 116.165C75.5028 116.165 74.7131 115.975 74.054 115.597C73.3987 115.214 72.8949 114.686 72.5426 114.011C72.1903 113.333 72.0142 112.551 72.0142 111.665C72.0142 110.771 72.1903 109.987 72.5426 109.312C72.8949 108.634 73.4006 108.106 74.0597 107.727C74.7188 107.348 75.5047 107.159 76.4176 107.159C77.2282 107.159 77.9328 107.305 78.5312 107.597C79.1297 107.888 79.5975 108.301 79.9347 108.835C80.2756 109.366 80.4555 109.989 80.4744 110.705H77.8778C77.8248 110.258 77.6733 109.907 77.4233 109.653C77.1771 109.4 76.8551 109.273 76.4574 109.273C75.9725 109.273 75.5824 109.475 75.2869 109.881C74.9915 110.282 74.8438 110.867 74.8438 111.636C74.8438 112.413 74.9896 113.004 75.2812 113.409C75.5767 113.811 75.9688 114.011 76.4574 114.011C76.84 114.011 77.16 113.888 77.4176 113.642C77.6752 113.396 77.8286 113.042 77.8778 112.58H80.4744C80.4517 113.299 80.2737 113.928 79.9403 114.466C79.607 115.004 79.1411 115.422 78.5426 115.722C77.9479 116.017 77.2415 116.165 76.4233 116.165ZM85.9759 116.165C84.6046 116.165 83.5251 115.765 82.7372 114.966C81.9531 114.167 81.5611 113.068 81.5611 111.67C81.5611 110.769 81.7391 109.981 82.0952 109.307C82.4512 108.629 82.9531 108.102 83.6009 107.727C84.2486 107.348 85.0118 107.159 85.8906 107.159C86.7164 107.159 87.4474 107.331 88.0838 107.676C88.7202 108.017 89.2183 108.519 89.5781 109.182C89.938 109.845 90.1179 110.655 90.1179 111.614V112.307H84.2997V112.381C84.2997 112.915 84.4531 113.345 84.7599 113.67C85.0705 113.996 85.4929 114.159 86.027 114.159C86.3906 114.159 86.7069 114.083 86.9759 113.932C87.2448 113.777 87.4323 113.555 87.5384 113.267L90.0895 113.341C89.9304 114.197 89.491 114.883 88.7713 115.398C88.0516 115.909 87.1198 116.165 85.9759 116.165ZM84.2997 110.693H87.5327C87.5289 110.246 87.3774 109.881 87.0781 109.597C86.7827 109.309 86.4058 109.165 85.9474 109.165C85.4853 109.165 85.099 109.311 84.7884 109.602C84.4815 109.894 84.3187 110.258 84.2997 110.693Z" fill="black"/>
<path d="M32.9489 128.273L34.7386 134.426H34.8068L36.5966 128.273H39.2727L36.392 137H33.1534L30.2727 128.273H32.9489ZM41.1744 137.102C40.5494 137.102 40.038 136.947 39.6403 136.638C39.2425 136.325 39.0437 135.844 39.0437 135.193C39.0437 134.713 39.1502 134.327 39.3633 134.034C39.5763 133.741 39.8647 133.523 40.2283 133.378C40.592 133.233 40.9982 133.145 41.4471 133.114C41.9982 133.074 42.3888 133.016 42.619 132.939C42.8491 132.859 42.9641 132.724 42.9641 132.534V132.517C42.9641 132.347 42.8988 132.216 42.7681 132.125C42.6374 132.034 42.4698 131.989 42.2653 131.989C42.0408 131.989 41.8576 132.038 41.7156 132.138C41.5763 132.234 41.4925 132.384 41.4641 132.585H39.2994C39.3278 132.187 39.4542 131.821 39.6786 131.486C39.9059 131.148 40.2369 130.878 40.6715 130.676C41.1062 130.472 41.6488 130.369 42.2994 130.369C42.9244 130.369 43.4613 130.464 43.9102 130.655C44.3619 130.845 44.7085 131.102 44.9499 131.426C45.1942 131.75 45.3164 132.114 45.3164 132.517V137H43.1175V136.08H43.0664C42.8675 136.446 42.609 136.709 42.2908 136.868C41.9727 137.024 41.6005 137.102 41.1744 137.102ZM41.9414 135.619C42.2085 135.619 42.4485 135.538 42.6616 135.376C42.8746 135.212 42.9812 134.98 42.9812 134.682V134.136C42.7482 134.233 42.4357 134.312 42.0437 134.375C41.771 134.418 41.5721 134.5 41.4471 134.622C41.3221 134.744 41.2596 134.889 41.2596 135.057C41.2596 135.239 41.3235 135.378 41.4513 135.474C41.5792 135.571 41.7425 135.619 41.9414 135.619ZM48.7926 128.273V137H46.4403V128.273H48.7926ZM54.2354 134.136V130.455H56.5877V137H54.3548V135.756H54.2866C54.1445 136.173 53.896 136.5 53.5408 136.736C53.1857 136.969 52.7638 137.085 52.2752 137.085C51.8178 137.085 51.4173 136.98 51.0735 136.77C50.7326 136.56 50.467 136.27 50.2766 135.901C50.0891 135.531 49.994 135.108 49.9911 134.631V130.455H52.3434V134.136C52.3462 134.46 52.4286 134.714 52.5906 134.899C52.7553 135.084 52.9854 135.176 53.2809 135.176C53.5735 135.176 53.8065 135.084 53.9798 134.899C54.1531 134.714 54.2383 134.46 54.2354 134.136ZM60.9205 137.119C59.8722 137.119 59.0469 136.822 58.4446 136.229C57.8452 135.632 57.5455 134.804 57.5455 133.744C57.5455 133.068 57.6818 132.477 57.9545 131.972C58.2273 131.466 58.6122 131.072 59.1094 130.791C59.6065 130.51 60.1932 130.369 60.8693 130.369C61.5284 130.369 62.1009 130.504 62.5866 130.774C63.0753 131.044 63.4531 131.43 63.7202 131.933C63.9901 132.433 64.125 133.031 64.125 133.727V134.273H59.8636V134.375C59.8636 134.69 59.9602 134.952 60.1534 135.159C60.3494 135.364 60.6222 135.466 60.9716 135.466C61.2131 135.466 61.4233 135.416 61.6023 135.317C61.7841 135.214 61.9091 135.071 61.9773 134.886H64.125C64.0142 135.568 63.679 136.111 63.1193 136.514C62.5625 136.918 61.8295 137.119 60.9205 137.119ZM59.8636 132.977H61.9602C61.9545 132.696 61.8523 132.467 61.6534 132.291C61.4574 132.112 61.2131 132.023 60.9205 132.023C60.6335 132.023 60.3864 132.111 60.179 132.287C59.9744 132.463 59.8693 132.693 59.8636 132.977ZM67.4755 139.455V130.455H69.8107V131.597H69.8619C69.9897 131.264 70.207 130.977 70.5138 130.736C70.8207 130.491 71.217 130.369 71.7028 130.369C72.1346 130.369 72.5451 130.484 72.9343 130.714C73.3263 130.945 73.6445 131.307 73.8888 131.801C74.136 132.295 74.2596 132.937 74.2596 133.727C74.2596 134.483 74.1417 135.109 73.9059 135.607C73.6729 136.104 73.3604 136.474 72.9684 136.719C72.5792 136.963 72.1516 137.085 71.6857 137.085C71.2255 137.085 70.8406 136.976 70.5309 136.757C70.2212 136.536 69.9982 136.259 69.8619 135.926H69.8278V139.455H67.4755ZM69.7766 133.727C69.7766 134.205 69.869 134.582 70.0536 134.861C70.2383 135.139 70.4925 135.278 70.8164 135.278C71.1403 135.278 71.3917 135.142 71.5707 134.869C71.7496 134.594 71.8391 134.213 71.8391 133.727C71.8391 133.241 71.7496 132.862 71.5707 132.589C71.3917 132.314 71.1403 132.176 70.8164 132.176C70.4925 132.176 70.2383 132.314 70.0536 132.589C69.869 132.862 69.7766 133.241 69.7766 133.727ZM75.245 137V130.455H77.5291V131.699H77.5973C77.7195 131.239 77.9098 130.902 78.1683 130.689C78.4268 130.476 78.7308 130.369 79.0803 130.369C79.2507 130.369 79.4169 130.391 79.5788 130.433C79.7408 130.476 79.8871 130.534 80.0178 130.608L79.3359 132.534C79.2393 132.489 79.1385 132.449 79.0334 132.415C78.9283 132.381 78.8132 132.364 78.6882 132.364C78.3956 132.364 78.1413 132.476 77.9254 132.7C77.7095 132.922 77.6001 133.219 77.5973 133.591V137H75.245ZM83.5312 137.119C82.821 137.119 82.2131 136.979 81.7074 136.697C81.2017 136.413 80.8139 136.018 80.544 135.513C80.2741 135.004 80.1392 134.415 80.1392 133.744C80.1392 133.074 80.2741 132.486 80.544 131.98C80.8139 131.472 81.2017 131.077 81.7074 130.795C82.2131 130.511 82.821 130.369 83.5312 130.369C84.2415 130.369 84.8494 130.511 85.3551 130.795C85.8608 131.077 86.2486 131.472 86.5185 131.98C86.7884 132.486 86.9233 133.074 86.9233 133.744C86.9233 134.415 86.7884 135.004 86.5185 135.513C86.2486 136.018 85.8608 136.413 85.3551 136.697C84.8494 136.979 84.2415 137.119 83.5312 137.119ZM83.5483 135.381C83.8466 135.381 84.0824 135.234 84.2557 134.942C84.4318 134.646 84.5199 134.241 84.5199 133.727C84.5199 133.213 84.4318 132.81 84.2557 132.517C84.0824 132.222 83.8466 132.074 83.5483 132.074C83.233 132.074 82.9858 132.222 82.8068 132.517C82.6307 132.81 82.5426 133.213 82.5426 133.727C82.5426 134.241 82.6307 134.646 82.8068 134.942C82.9858 135.234 83.233 135.381 83.5483 135.381ZM87.8778 139.455V130.455H90.2131V131.597H90.2642C90.392 131.264 90.6094 130.977 90.9162 130.736C91.223 130.491 91.6193 130.369 92.1051 130.369C92.5369 130.369 92.9474 130.484 93.3366 130.714C93.7287 130.945 94.0469 131.307 94.2912 131.801C94.5384 132.295 94.6619 132.937 94.6619 133.727C94.6619 134.483 94.544 135.109 94.3082 135.607C94.0753 136.104 93.7628 136.474 93.3707 136.719C92.9815 136.963 92.554 137.085 92.0881 137.085C91.6278 137.085 91.2429 136.976 90.9332 136.757C90.6236 136.536 90.4006 136.259 90.2642 135.926H90.2301V139.455H87.8778ZM90.179 133.727C90.179 134.205 90.2713 134.582 90.456 134.861C90.6406 135.139 90.8949 135.278 91.2188 135.278C91.5426 135.278 91.794 135.142 91.973 134.869C92.152 134.594 92.2415 134.213 92.2415 133.727C92.2415 133.241 92.152 132.862 91.973 132.589C91.794 132.314 91.5426 132.176 91.2188 132.176C90.8949 132.176 90.6406 132.314 90.456 132.589C90.2713 132.862 90.179 133.241 90.179 133.727ZM98.8008 137.119C98.0906 137.119 97.4826 136.979 96.9769 136.697C96.4712 136.413 96.0835 136.018 95.8136 135.513C95.5437 135.004 95.4087 134.415 95.4087 133.744C95.4087 133.074 95.5437 132.486 95.8136 131.98C96.0835 131.472 96.4712 131.077 96.9769 130.795C97.4826 130.511 98.0906 130.369 98.8008 130.369C99.511 130.369 100.119 130.511 100.625 130.795C101.13 131.077 101.518 131.472 101.788 131.98C102.058 132.486 102.193 133.074 102.193 133.744C102.193 134.415 102.058 135.004 101.788 135.513C101.518 136.018 101.13 136.413 100.625 136.697C100.119 136.979 99.511 137.119 98.8008 137.119ZM98.8178 135.381C99.1161 135.381 99.3519 135.234 99.5252 134.942C99.7013 134.646 99.7894 134.241 99.7894 133.727C99.7894 133.213 99.7013 132.81 99.5252 132.517C99.3519 132.222 99.1161 132.074 98.8178 132.074C98.5025 132.074 98.2553 132.222 98.0763 132.517C97.9002 132.81 97.8121 133.213 97.8121 133.727C97.8121 134.241 97.9002 134.646 98.0763 134.942C98.2553 135.234 98.5025 135.381 98.8178 135.381ZM109.13 132.585H106.966C106.949 132.384 106.855 132.226 106.684 132.112C106.514 131.996 106.312 131.938 106.079 131.938C105.877 131.938 105.704 131.974 105.559 132.048C105.414 132.122 105.343 132.227 105.346 132.364C105.343 132.46 105.385 132.55 105.47 132.632C105.558 132.714 105.727 132.778 105.977 132.824L107.306 133.062C108.627 133.301 109.292 133.892 109.301 134.835C109.298 135.301 109.159 135.706 108.883 136.05C108.61 136.391 108.237 136.655 107.762 136.842C107.291 137.027 106.752 137.119 106.147 137.119C105.147 137.119 104.365 136.915 103.799 136.506C103.237 136.097 102.923 135.557 102.858 134.886H105.193C105.224 135.094 105.326 135.254 105.5 135.368C105.676 135.479 105.897 135.534 106.164 135.534C106.38 135.534 106.558 135.497 106.697 135.423C106.839 135.349 106.912 135.244 106.914 135.108C106.906 134.881 106.656 134.722 106.164 134.631L105.005 134.426C103.667 134.19 103.002 133.548 103.011 132.5C103.008 131.818 103.277 131.293 103.816 130.923C104.356 130.554 105.093 130.369 106.028 130.369C106.974 130.369 107.72 130.565 108.265 130.957C108.814 131.349 109.102 131.892 109.13 132.585ZM110.202 137V130.455H112.554V137H110.202ZM111.378 129.773C111.06 129.773 110.787 129.668 110.56 129.457C110.333 129.247 110.219 128.994 110.219 128.699C110.219 128.403 110.333 128.151 110.56 127.94C110.787 127.73 111.06 127.625 111.378 127.625C111.699 127.625 111.972 127.73 112.196 127.94C112.424 128.151 112.537 128.403 112.537 128.699C112.537 128.994 112.424 129.247 112.196 129.457C111.972 129.668 111.699 129.773 111.378 129.773ZM117.656 130.455V132.159H116.531V134.895C116.531 135.168 116.679 135.304 116.974 135.304C117.045 135.304 117.128 135.295 117.222 135.278C117.318 135.261 117.389 135.247 117.435 135.236L117.776 136.889C117.67 136.92 117.52 136.959 117.324 137.004C117.131 137.05 116.901 137.08 116.634 137.094C115.821 137.139 115.206 136.993 114.788 136.655C114.374 136.314 114.17 135.801 114.179 135.116V132.159H113.344V130.455H114.179V128.886H116.531V130.455H117.656ZM118.616 137V130.455H120.968V137H118.616ZM119.792 129.773C119.474 129.773 119.201 129.668 118.974 129.457C118.747 129.247 118.633 128.994 118.633 128.699C118.633 128.403 118.747 128.151 118.974 127.94C119.201 127.73 119.474 127.625 119.792 127.625C120.113 127.625 120.386 127.73 120.61 127.94C120.838 128.151 120.951 128.403 120.951 128.699C120.951 128.994 120.838 129.247 120.61 129.457C120.386 129.668 120.113 129.773 119.792 129.773ZM125.32 137.119C124.61 137.119 124.002 136.979 123.496 136.697C122.991 136.413 122.603 136.018 122.333 135.513C122.063 135.004 121.928 134.415 121.928 133.744C121.928 133.074 122.063 132.486 122.333 131.98C122.603 131.472 122.991 131.077 123.496 130.795C124.002 130.511 124.61 130.369 125.32 130.369C126.031 130.369 126.638 130.511 127.144 130.795C127.65 131.077 128.038 131.472 128.308 131.98C128.577 132.486 128.712 133.074 128.712 133.744C128.712 134.415 128.577 135.004 128.308 135.513C128.038 136.018 127.65 136.413 127.144 136.697C126.638 136.979 126.031 137.119 125.32 137.119ZM125.337 135.381C125.636 135.381 125.871 135.234 126.045 134.942C126.221 134.646 126.309 134.241 126.309 133.727C126.309 133.213 126.221 132.81 126.045 132.517C125.871 132.222 125.636 132.074 125.337 132.074C125.022 132.074 124.775 132.222 124.596 132.517C124.42 132.81 124.332 133.213 124.332 133.727C124.332 134.241 124.42 134.646 124.596 134.942C124.775 135.234 125.022 135.381 125.337 135.381ZM132.019 133.318V137H129.667V130.455H131.9V131.699H131.968C132.11 131.284 132.36 130.959 132.718 130.723C133.079 130.487 133.499 130.369 133.979 130.369C134.442 130.369 134.844 130.476 135.185 130.689C135.529 130.899 135.795 131.189 135.982 131.558C136.173 131.928 136.266 132.349 136.263 132.824V137H133.911V133.318C133.914 132.994 133.832 132.74 133.664 132.555C133.499 132.371 133.269 132.278 132.974 132.278C132.681 132.278 132.45 132.371 132.279 132.555C132.109 132.74 132.022 132.994 132.019 133.318Z" fill="#828282"/>
<rect x="193.5" y="76.5" width="157" height="93" stroke="black" stroke-width="3"/>
<path d="M213.17 107.852C213.133 107.436 212.964 107.112 212.665 106.881C212.369 106.646 211.947 106.528 211.398 106.528C210.852 106.528 210.443 106.633 210.17 106.841C209.898 107.045 209.759 107.307 209.756 107.625C209.744 107.97 209.894 108.241 210.205 108.438C210.515 108.631 210.934 108.784 211.46 108.898L212.46 109.125C213.608 109.379 214.487 109.794 215.097 110.369C215.71 110.945 216.019 111.697 216.023 112.625C216.019 113.731 215.61 114.595 214.795 115.216C213.981 115.837 212.848 116.148 211.398 116.148C209.936 116.148 208.765 115.818 207.886 115.159C207.011 114.496 206.564 113.485 206.545 112.125H209.239C209.269 112.686 209.475 113.11 209.858 113.398C210.241 113.682 210.742 113.824 211.364 113.824C211.928 113.824 212.369 113.712 212.688 113.489C213.006 113.265 213.167 112.975 213.17 112.619C213.167 112.294 213.015 112.034 212.716 111.841C212.417 111.644 211.947 111.472 211.307 111.324L210.091 111.04C209.087 110.809 208.294 110.436 207.71 109.92C207.131 109.402 206.843 108.701 206.847 107.818C206.843 107.095 207.036 106.462 207.426 105.92C207.816 105.379 208.354 104.958 209.04 104.659C209.729 104.356 210.517 104.205 211.403 104.205C212.305 104.205 213.087 104.358 213.75 104.665C214.417 104.968 214.934 105.394 215.301 105.943C215.669 106.489 215.856 107.125 215.864 107.852H213.17ZM221.523 116.165C220.152 116.165 219.072 115.765 218.284 114.966C217.5 114.167 217.108 113.068 217.108 111.67C217.108 110.769 217.286 109.981 217.642 109.307C217.998 108.629 218.5 108.102 219.148 107.727C219.795 107.348 220.559 107.159 221.438 107.159C222.263 107.159 222.994 107.331 223.631 107.676C224.267 108.017 224.765 108.519 225.125 109.182C225.485 109.845 225.665 110.655 225.665 111.614V112.307H219.847V112.381C219.847 112.915 220 113.345 220.307 113.67C220.617 113.996 221.04 114.159 221.574 114.159C221.938 114.159 222.254 114.083 222.523 113.932C222.792 113.777 222.979 113.555 223.085 113.267L225.636 113.341C225.477 114.197 225.038 114.883 224.318 115.398C223.598 115.909 222.667 116.165 221.523 116.165ZM219.847 110.693H223.08C223.076 110.246 222.924 109.881 222.625 109.597C222.33 109.309 221.953 109.165 221.494 109.165C221.032 109.165 220.646 109.311 220.335 109.602C220.028 109.894 219.866 110.258 219.847 110.693ZM227.084 116V107.273H229.783V108.864H229.874C230.033 108.288 230.292 107.86 230.652 107.58C231.012 107.295 231.43 107.153 231.908 107.153C232.173 107.153 232.432 107.188 232.686 107.256V109.67C232.554 109.625 232.379 109.589 232.163 109.562C231.951 109.536 231.762 109.523 231.595 109.523C231.099 109.523 230.686 109.684 230.357 110.006C230.027 110.324 229.862 110.742 229.862 111.261V116H227.084ZM242.55 107.273L239.555 116H236.374L233.385 107.273H236.311L237.919 113.284H238.01L239.624 107.273H242.55ZM243.803 116V107.273H246.581V116H243.803ZM245.195 106.256C244.804 106.256 244.469 106.127 244.189 105.869C243.909 105.608 243.768 105.294 243.768 104.926C243.768 104.559 243.909 104.246 244.189 103.989C244.469 103.731 244.804 103.602 245.195 103.602C245.589 103.602 245.924 103.731 246.2 103.989C246.481 104.246 246.621 104.559 246.621 104.926C246.621 105.294 246.481 105.608 246.2 105.869C245.924 106.127 245.589 106.256 245.195 106.256ZM252.423 116.165C251.503 116.165 250.713 115.975 250.054 115.597C249.399 115.214 248.895 114.686 248.543 114.011C248.19 113.333 248.014 112.551 248.014 111.665C248.014 110.771 248.19 109.987 248.543 109.312C248.895 108.634 249.401 108.106 250.06 107.727C250.719 107.348 251.505 107.159 252.418 107.159C253.228 107.159 253.933 107.305 254.531 107.597C255.13 107.888 255.598 108.301 255.935 108.835C256.276 109.366 256.455 109.989 256.474 110.705H253.878C253.825 110.258 253.673 109.907 253.423 109.653C253.177 109.4 252.855 109.273 252.457 109.273C251.973 109.273 251.582 109.475 251.287 109.881C250.991 110.282 250.844 110.867 250.844 111.636C250.844 112.413 250.99 113.004 251.281 113.409C251.577 113.811 251.969 114.011 252.457 114.011C252.84 114.011 253.16 113.888 253.418 113.642C253.675 113.396 253.829 113.042 253.878 112.58H256.474C256.452 113.299 256.274 113.928 255.94 114.466C255.607 115.004 255.141 115.422 254.543 115.722C253.948 116.017 253.241 116.165 252.423 116.165ZM261.976 116.165C260.605 116.165 259.525 115.765 258.737 114.966C257.953 114.167 257.561 113.068 257.561 111.67C257.561 110.769 257.739 109.981 258.095 109.307C258.451 108.629 258.953 108.102 259.601 107.727C260.249 107.348 261.012 107.159 261.891 107.159C262.716 107.159 263.447 107.331 264.084 107.676C264.72 108.017 265.218 108.519 265.578 109.182C265.938 109.845 266.118 110.655 266.118 111.614V112.307H260.3V112.381C260.3 112.915 260.453 113.345 260.76 113.67C261.071 113.996 261.493 114.159 262.027 114.159C262.391 114.159 262.707 114.083 262.976 113.932C263.245 113.777 263.432 113.555 263.538 113.267L266.089 113.341C265.93 114.197 265.491 114.883 264.771 115.398C264.052 115.909 263.12 116.165 261.976 116.165ZM260.3 110.693H263.533C263.529 110.246 263.377 109.881 263.078 109.597C262.783 109.309 262.406 109.165 261.947 109.165C261.485 109.165 261.099 109.311 260.788 109.602C260.482 109.894 260.319 110.258 260.3 110.693Z" fill="black"/>
<path d="M208.949 128.273L210.739 134.426H210.807L212.597 128.273H215.273L212.392 137H209.153L206.273 128.273H208.949ZM217.174 137.102C216.549 137.102 216.038 136.947 215.64 136.638C215.243 136.325 215.044 135.844 215.044 135.193C215.044 134.713 215.15 134.327 215.363 134.034C215.576 133.741 215.865 133.523 216.228 133.378C216.592 133.233 216.998 133.145 217.447 133.114C217.998 133.074 218.389 133.016 218.619 132.939C218.849 132.859 218.964 132.724 218.964 132.534V132.517C218.964 132.347 218.899 132.216 218.768 132.125C218.637 132.034 218.47 131.989 218.265 131.989C218.041 131.989 217.858 132.038 217.716 132.138C217.576 132.234 217.493 132.384 217.464 132.585H215.299C215.328 132.187 215.454 131.821 215.679 131.486C215.906 131.148 216.237 130.878 216.672 130.676C217.106 130.472 217.649 130.369 218.299 130.369C218.924 130.369 219.461 130.464 219.91 130.655C220.362 130.845 220.708 131.102 220.95 131.426C221.194 131.75 221.316 132.114 221.316 132.517V137H219.118V136.08H219.066C218.868 136.446 218.609 136.709 218.291 136.868C217.973 137.024 217.6 137.102 217.174 137.102ZM217.941 135.619C218.208 135.619 218.449 135.538 218.662 135.376C218.875 135.212 218.981 134.98 218.981 134.682V134.136C218.748 134.233 218.436 134.312 218.044 134.375C217.771 134.418 217.572 134.5 217.447 134.622C217.322 134.744 217.26 134.889 217.26 135.057C217.26 135.239 217.324 135.378 217.451 135.474C217.579 135.571 217.743 135.619 217.941 135.619ZM224.793 128.273V137H222.44V128.273H224.793ZM230.235 134.136V130.455H232.588V137H230.355V135.756H230.287C230.145 136.173 229.896 136.5 229.541 136.736C229.186 136.969 228.764 137.085 228.275 137.085C227.818 137.085 227.417 136.98 227.074 136.77C226.733 136.56 226.467 136.27 226.277 135.901C226.089 135.531 225.994 135.108 225.991 134.631V130.455H228.343V134.136C228.346 134.46 228.429 134.714 228.591 134.899C228.755 135.084 228.985 135.176 229.281 135.176C229.574 135.176 229.806 135.084 229.98 134.899C230.153 134.714 230.238 134.46 230.235 134.136ZM236.92 137.119C235.872 137.119 235.047 136.822 234.445 136.229C233.845 135.632 233.545 134.804 233.545 133.744C233.545 133.068 233.682 132.477 233.955 131.972C234.227 131.466 234.612 131.072 235.109 130.791C235.607 130.51 236.193 130.369 236.869 130.369C237.528 130.369 238.101 130.504 238.587 130.774C239.075 131.044 239.453 131.43 239.72 131.933C239.99 132.433 240.125 133.031 240.125 133.727V134.273H235.864V134.375C235.864 134.69 235.96 134.952 236.153 135.159C236.349 135.364 236.622 135.466 236.972 135.466C237.213 135.466 237.423 135.416 237.602 135.317C237.784 135.214 237.909 135.071 237.977 134.886H240.125C240.014 135.568 239.679 136.111 239.119 136.514C238.563 136.918 237.83 137.119 236.92 137.119ZM235.864 132.977H237.96C237.955 132.696 237.852 132.467 237.653 132.291C237.457 132.112 237.213 132.023 236.92 132.023C236.634 132.023 236.386 132.111 236.179 132.287C235.974 132.463 235.869 132.693 235.864 132.977ZM243.475 139.455V130.455H245.811V131.597H245.862C245.99 131.264 246.207 130.977 246.514 130.736C246.821 130.491 247.217 130.369 247.703 130.369C248.135 130.369 248.545 130.484 248.934 130.714C249.326 130.945 249.645 131.307 249.889 131.801C250.136 132.295 250.26 132.937 250.26 133.727C250.26 134.483 250.142 135.109 249.906 135.607C249.673 136.104 249.36 136.474 248.968 136.719C248.579 136.963 248.152 137.085 247.686 137.085C247.225 137.085 246.841 136.976 246.531 136.757C246.221 136.536 245.998 136.259 245.862 135.926H245.828V139.455H243.475ZM245.777 133.727C245.777 134.205 245.869 134.582 246.054 134.861C246.238 135.139 246.493 135.278 246.816 135.278C247.14 135.278 247.392 135.142 247.571 134.869C247.75 134.594 247.839 134.213 247.839 133.727C247.839 133.241 247.75 132.862 247.571 132.589C247.392 132.314 247.14 132.176 246.816 132.176C246.493 132.176 246.238 132.314 246.054 132.589C245.869 132.862 245.777 133.241 245.777 133.727ZM251.245 137V130.455H253.529V131.699H253.597C253.719 131.239 253.91 130.902 254.168 130.689C254.427 130.476 254.731 130.369 255.08 130.369C255.251 130.369 255.417 130.391 255.579 130.433C255.741 130.476 255.887 130.534 256.018 130.608L255.336 132.534C255.239 132.489 255.138 132.449 255.033 132.415C254.928 132.381 254.813 132.364 254.688 132.364C254.396 132.364 254.141 132.476 253.925 132.7C253.71 132.922 253.6 133.219 253.597 133.591V137H251.245ZM259.531 137.119C258.821 137.119 258.213 136.979 257.707 136.697C257.202 136.413 256.814 136.018 256.544 135.513C256.274 135.004 256.139 134.415 256.139 133.744C256.139 133.074 256.274 132.486 256.544 131.98C256.814 131.472 257.202 131.077 257.707 130.795C258.213 130.511 258.821 130.369 259.531 130.369C260.241 130.369 260.849 130.511 261.355 130.795C261.861 131.077 262.249 131.472 262.518 131.98C262.788 132.486 262.923 133.074 262.923 133.744C262.923 134.415 262.788 135.004 262.518 135.513C262.249 136.018 261.861 136.413 261.355 136.697C260.849 136.979 260.241 137.119 259.531 137.119ZM259.548 135.381C259.847 135.381 260.082 135.234 260.256 134.942C260.432 134.646 260.52 134.241 260.52 133.727C260.52 133.213 260.432 132.81 260.256 132.517C260.082 132.222 259.847 132.074 259.548 132.074C259.233 132.074 258.986 132.222 258.807 132.517C258.631 132.81 258.543 133.213 258.543 133.727C258.543 134.241 258.631 134.646 258.807 134.942C258.986 135.234 259.233 135.381 259.548 135.381ZM263.878 139.455V130.455H266.213V131.597H266.264C266.392 131.264 266.609 130.977 266.916 130.736C267.223 130.491 267.619 130.369 268.105 130.369C268.537 130.369 268.947 130.484 269.337 130.714C269.729 130.945 270.047 131.307 270.291 131.801C270.538 132.295 270.662 132.937 270.662 133.727C270.662 134.483 270.544 135.109 270.308 135.607C270.075 136.104 269.763 136.474 269.371 136.719C268.982 136.963 268.554 137.085 268.088 137.085C267.628 137.085 267.243 136.976 266.933 136.757C266.624 136.536 266.401 136.259 266.264 135.926H266.23V139.455H263.878ZM266.179 133.727C266.179 134.205 266.271 134.582 266.456 134.861C266.641 135.139 266.895 135.278 267.219 135.278C267.543 135.278 267.794 135.142 267.973 134.869C268.152 134.594 268.241 134.213 268.241 133.727C268.241 133.241 268.152 132.862 267.973 132.589C267.794 132.314 267.543 132.176 267.219 132.176C266.895 132.176 266.641 132.314 266.456 132.589C266.271 132.862 266.179 133.241 266.179 133.727ZM274.801 137.119C274.091 137.119 273.483 136.979 272.977 136.697C272.471 136.413 272.083 136.018 271.814 135.513C271.544 135.004 271.409 134.415 271.409 133.744C271.409 133.074 271.544 132.486 271.814 131.98C272.083 131.472 272.471 131.077 272.977 130.795C273.483 130.511 274.091 130.369 274.801 130.369C275.511 130.369 276.119 130.511 276.625 130.795C277.13 131.077 277.518 131.472 277.788 131.98C278.058 132.486 278.193 133.074 278.193 133.744C278.193 134.415 278.058 135.004 277.788 135.513C277.518 136.018 277.13 136.413 276.625 136.697C276.119 136.979 275.511 137.119 274.801 137.119ZM274.818 135.381C275.116 135.381 275.352 135.234 275.525 134.942C275.701 134.646 275.789 134.241 275.789 133.727C275.789 133.213 275.701 132.81 275.525 132.517C275.352 132.222 275.116 132.074 274.818 132.074C274.502 132.074 274.255 132.222 274.076 132.517C273.9 132.81 273.812 133.213 273.812 133.727C273.812 134.241 273.9 134.646 274.076 134.942C274.255 135.234 274.502 135.381 274.818 135.381ZM285.13 132.585H282.966C282.949 132.384 282.855 132.226 282.684 132.112C282.514 131.996 282.312 131.938 282.079 131.938C281.877 131.938 281.704 131.974 281.559 132.048C281.414 132.122 281.343 132.227 281.346 132.364C281.343 132.46 281.385 132.55 281.47 132.632C281.558 132.714 281.727 132.778 281.977 132.824L283.306 133.062C284.627 133.301 285.292 133.892 285.301 134.835C285.298 135.301 285.159 135.706 284.883 136.05C284.61 136.391 284.237 136.655 283.762 136.842C283.291 137.027 282.752 137.119 282.147 137.119C281.147 137.119 280.365 136.915 279.799 136.506C279.237 136.097 278.923 135.557 278.858 134.886H281.193C281.224 135.094 281.326 135.254 281.5 135.368C281.676 135.479 281.897 135.534 282.164 135.534C282.38 135.534 282.558 135.497 282.697 135.423C282.839 135.349 282.912 135.244 282.914 135.108C282.906 134.881 282.656 134.722 282.164 134.631L281.005 134.426C279.667 134.19 279.002 133.548 279.011 132.5C279.008 131.818 279.277 131.293 279.816 130.923C280.356 130.554 281.093 130.369 282.028 130.369C282.974 130.369 283.72 130.565 284.265 130.957C284.814 131.349 285.102 131.892 285.13 132.585ZM286.202 137V130.455H288.554V137H286.202ZM287.378 129.773C287.06 129.773 286.787 129.668 286.56 129.457C286.333 129.247 286.219 128.994 286.219 128.699C286.219 128.403 286.333 128.151 286.56 127.94C286.787 127.73 287.06 127.625 287.378 127.625C287.699 127.625 287.972 127.73 288.196 127.94C288.424 128.151 288.537 128.403 288.537 128.699C288.537 128.994 288.424 129.247 288.196 129.457C287.972 129.668 287.699 129.773 287.378 129.773ZM293.656 130.455V132.159H292.531V134.895C292.531 135.168 292.679 135.304 292.974 135.304C293.045 135.304 293.128 135.295 293.222 135.278C293.318 135.261 293.389 135.247 293.435 135.236L293.776 136.889C293.67 136.92 293.52 136.959 293.324 137.004C293.131 137.05 292.901 137.08 292.634 137.094C291.821 137.139 291.206 136.993 290.788 136.655C290.374 136.314 290.17 135.801 290.179 135.116V132.159H289.344V130.455H290.179V128.886H292.531V130.455H293.656ZM294.616 137V130.455H296.968V137H294.616ZM295.792 129.773C295.474 129.773 295.201 129.668 294.974 129.457C294.747 129.247 294.633 128.994 294.633 128.699C294.633 128.403 294.747 128.151 294.974 127.94C295.201 127.73 295.474 127.625 295.792 127.625C296.113 127.625 296.386 127.73 296.61 127.94C296.838 128.151 296.951 128.403 296.951 128.699C296.951 128.994 296.838 129.247 296.61 129.457C296.386 129.668 296.113 129.773 295.792 129.773ZM301.32 137.119C300.61 137.119 300.002 136.979 299.496 136.697C298.991 136.413 298.603 136.018 298.333 135.513C298.063 135.004 297.928 134.415 297.928 133.744C297.928 133.074 298.063 132.486 298.333 131.98C298.603 131.472 298.991 131.077 299.496 130.795C300.002 130.511 300.61 130.369 301.32 130.369C302.031 130.369 302.638 130.511 303.144 130.795C303.65 131.077 304.038 131.472 304.308 131.98C304.577 132.486 304.712 133.074 304.712 133.744C304.712 134.415 304.577 135.004 304.308 135.513C304.038 136.018 303.65 136.413 303.144 136.697C302.638 136.979 302.031 137.119 301.32 137.119ZM301.337 135.381C301.636 135.381 301.871 135.234 302.045 134.942C302.221 134.646 302.309 134.241 302.309 133.727C302.309 133.213 302.221 132.81 302.045 132.517C301.871 132.222 301.636 132.074 301.337 132.074C301.022 132.074 300.775 132.222 300.596 132.517C300.42 132.81 300.332 133.213 300.332 133.727C300.332 134.241 300.42 134.646 300.596 134.942C300.775 135.234 301.022 135.381 301.337 135.381ZM308.019 133.318V137H305.667V130.455H307.9V131.699H307.968C308.11 131.284 308.36 130.959 308.718 130.723C309.079 130.487 309.499 130.369 309.979 130.369C310.442 130.369 310.844 130.476 311.185 130.689C311.529 130.899 311.795 131.189 311.982 131.558C312.173 131.928 312.266 132.349 312.263 132.824V137H309.911V133.318C309.914 132.994 309.832 132.74 309.664 132.555C309.499 132.371 309.269 132.278 308.974 132.278C308.681 132.278 308.45 132.371 308.279 132.555C308.109 132.74 308.022 132.994 308.019 133.318Z" fill="#828282"/>
<rect x="369.5" y="76.5" width="157" height="93" stroke="black" stroke-width="3"/>
<path d="M389.17 107.852C389.133 107.436 388.964 107.112 388.665 106.881C388.369 106.646 387.947 106.528 387.398 106.528C386.852 106.528 386.443 106.633 386.17 106.841C385.898 107.045 385.759 107.307 385.756 107.625C385.744 107.97 385.894 108.241 386.205 108.438C386.515 108.631 386.934 108.784 387.46 108.898L388.46 109.125C389.608 109.379 390.487 109.794 391.097 110.369C391.71 110.945 392.019 111.697 392.023 112.625C392.019 113.731 391.61 114.595 390.795 115.216C389.981 115.837 388.848 116.148 387.398 116.148C385.936 116.148 384.765 115.818 383.886 115.159C383.011 114.496 382.564 113.485 382.545 112.125H385.239C385.269 112.686 385.475 113.11 385.858 113.398C386.241 113.682 386.742 113.824 387.364 113.824C387.928 113.824 388.369 113.712 388.688 113.489C389.006 113.265 389.167 112.975 389.17 112.619C389.167 112.294 389.015 112.034 388.716 111.841C388.417 111.644 387.947 111.472 387.307 111.324L386.091 111.04C385.087 110.809 384.294 110.436 383.71 109.92C383.131 109.402 382.843 108.701 382.847 107.818C382.843 107.095 383.036 106.462 383.426 105.92C383.816 105.379 384.354 104.958 385.04 104.659C385.729 104.356 386.517 104.205 387.403 104.205C388.305 104.205 389.087 104.358 389.75 104.665C390.417 104.968 390.934 105.394 391.301 105.943C391.669 106.489 391.856 107.125 391.864 107.852H389.17ZM397.523 116.165C396.152 116.165 395.072 115.765 394.284 114.966C393.5 114.167 393.108 113.068 393.108 111.67C393.108 110.769 393.286 109.981 393.642 109.307C393.998 108.629 394.5 108.102 395.148 107.727C395.795 107.348 396.559 107.159 397.438 107.159C398.263 107.159 398.994 107.331 399.631 107.676C400.267 108.017 400.765 108.519 401.125 109.182C401.485 109.845 401.665 110.655 401.665 111.614V112.307H395.847V112.381C395.847 112.915 396 113.345 396.307 113.67C396.617 113.996 397.04 114.159 397.574 114.159C397.938 114.159 398.254 114.083 398.523 113.932C398.792 113.777 398.979 113.555 399.085 113.267L401.636 113.341C401.477 114.197 401.038 114.883 400.318 115.398C399.598 115.909 398.667 116.165 397.523 116.165ZM395.847 110.693H399.08C399.076 110.246 398.924 109.881 398.625 109.597C398.33 109.309 397.953 109.165 397.494 109.165C397.032 109.165 396.646 109.311 396.335 109.602C396.028 109.894 395.866 110.258 395.847 110.693ZM403.084 116V107.273H405.783V108.864H405.874C406.033 108.288 406.292 107.86 406.652 107.58C407.012 107.295 407.43 107.153 407.908 107.153C408.173 107.153 408.432 107.188 408.686 107.256V109.67C408.554 109.625 408.379 109.589 408.163 109.562C407.951 109.536 407.762 109.523 407.595 109.523C407.099 109.523 406.686 109.684 406.357 110.006C406.027 110.324 405.862 110.742 405.862 111.261V116H403.084ZM418.55 107.273L415.555 116H412.374L409.385 107.273H412.311L413.919 113.284H414.01L415.624 107.273H418.55ZM419.803 116V107.273H422.581V116H419.803ZM421.195 106.256C420.804 106.256 420.469 106.127 420.189 105.869C419.909 105.608 419.768 105.294 419.768 104.926C419.768 104.559 419.909 104.246 420.189 103.989C420.469 103.731 420.804 103.602 421.195 103.602C421.589 103.602 421.924 103.731 422.2 103.989C422.481 104.246 422.621 104.559 422.621 104.926C422.621 105.294 422.481 105.608 422.2 105.869C421.924 106.127 421.589 106.256 421.195 106.256ZM428.423 116.165C427.503 116.165 426.713 115.975 426.054 115.597C425.399 115.214 424.895 114.686 424.543 114.011C424.19 113.333 424.014 112.551 424.014 111.665C424.014 110.771 424.19 109.987 424.543 109.312C424.895 108.634 425.401 108.106 426.06 107.727C426.719 107.348 427.505 107.159 428.418 107.159C429.228 107.159 429.933 107.305 430.531 107.597C431.13 107.888 431.598 108.301 431.935 108.835C432.276 109.366 432.455 109.989 432.474 110.705H429.878C429.825 110.258 429.673 109.907 429.423 109.653C429.177 109.4 428.855 109.273 428.457 109.273C427.973 109.273 427.582 109.475 427.287 109.881C426.991 110.282 426.844 110.867 426.844 111.636C426.844 112.413 426.99 113.004 427.281 113.409C427.577 113.811 427.969 114.011 428.457 114.011C428.84 114.011 429.16 113.888 429.418 113.642C429.675 113.396 429.829 113.042 429.878 112.58H432.474C432.452 113.299 432.274 113.928 431.94 114.466C431.607 115.004 431.141 115.422 430.543 115.722C429.948 116.017 429.241 116.165 428.423 116.165ZM437.976 116.165C436.605 116.165 435.525 115.765 434.737 114.966C433.953 114.167 433.561 113.068 433.561 111.67C433.561 110.769 433.739 109.981 434.095 109.307C434.451 108.629 434.953 108.102 435.601 107.727C436.249 107.348 437.012 107.159 437.891 107.159C438.716 107.159 439.447 107.331 440.084 107.676C440.72 108.017 441.218 108.519 441.578 109.182C441.938 109.845 442.118 110.655 442.118 111.614V112.307H436.3V112.381C436.3 112.915 436.453 113.345 436.76 113.67C437.071 113.996 437.493 114.159 438.027 114.159C438.391 114.159 438.707 114.083 438.976 113.932C439.245 113.777 439.432 113.555 439.538 113.267L442.089 113.341C441.93 114.197 441.491 114.883 440.771 115.398C440.052 115.909 439.12 116.165 437.976 116.165ZM436.3 110.693H439.533C439.529 110.246 439.377 109.881 439.078 109.597C438.783 109.309 438.406 109.165 437.947 109.165C437.485 109.165 437.099 109.311 436.788 109.602C436.482 109.894 436.319 110.258 436.3 110.693Z" fill="black"/>
<path d="M384.949 128.273L386.739 134.426H386.807L388.597 128.273H391.273L388.392 137H385.153L382.273 128.273H384.949ZM393.174 137.102C392.549 137.102 392.038 136.947 391.64 136.638C391.243 136.325 391.044 135.844 391.044 135.193C391.044 134.713 391.15 134.327 391.363 134.034C391.576 133.741 391.865 133.523 392.228 133.378C392.592 133.233 392.998 133.145 393.447 133.114C393.998 133.074 394.389 133.016 394.619 132.939C394.849 132.859 394.964 132.724 394.964 132.534V132.517C394.964 132.347 394.899 132.216 394.768 132.125C394.637 132.034 394.47 131.989 394.265 131.989C394.041 131.989 393.858 132.038 393.716 132.138C393.576 132.234 393.493 132.384 393.464 132.585H391.299C391.328 132.187 391.454 131.821 391.679 131.486C391.906 131.148 392.237 130.878 392.672 130.676C393.106 130.472 393.649 130.369 394.299 130.369C394.924 130.369 395.461 130.464 395.91 130.655C396.362 130.845 396.708 131.102 396.95 131.426C397.194 131.75 397.316 132.114 397.316 132.517V137H395.118V136.08H395.066C394.868 136.446 394.609 136.709 394.291 136.868C393.973 137.024 393.6 137.102 393.174 137.102ZM393.941 135.619C394.208 135.619 394.449 135.538 394.662 135.376C394.875 135.212 394.981 134.98 394.981 134.682V134.136C394.748 134.233 394.436 134.312 394.044 134.375C393.771 134.418 393.572 134.5 393.447 134.622C393.322 134.744 393.26 134.889 393.26 135.057C393.26 135.239 393.324 135.378 393.451 135.474C393.579 135.571 393.743 135.619 393.941 135.619ZM400.793 128.273V137H398.44V128.273H400.793ZM406.235 134.136V130.455H408.588V137H406.355V135.756H406.287C406.145 136.173 405.896 136.5 405.541 136.736C405.186 136.969 404.764 137.085 404.275 137.085C403.818 137.085 403.417 136.98 403.074 136.77C402.733 136.56 402.467 136.27 402.277 135.901C402.089 135.531 401.994 135.108 401.991 134.631V130.455H404.343V134.136C404.346 134.46 404.429 134.714 404.591 134.899C404.755 135.084 404.985 135.176 405.281 135.176C405.574 135.176 405.806 135.084 405.98 134.899C406.153 134.714 406.238 134.46 406.235 134.136ZM412.92 137.119C411.872 137.119 411.047 136.822 410.445 136.229C409.845 135.632 409.545 134.804 409.545 133.744C409.545 133.068 409.682 132.477 409.955 131.972C410.227 131.466 410.612 131.072 411.109 130.791C411.607 130.51 412.193 130.369 412.869 130.369C413.528 130.369 414.101 130.504 414.587 130.774C415.075 131.044 415.453 131.43 415.72 131.933C415.99 132.433 416.125 133.031 416.125 133.727V134.273H411.864V134.375C411.864 134.69 411.96 134.952 412.153 135.159C412.349 135.364 412.622 135.466 412.972 135.466C413.213 135.466 413.423 135.416 413.602 135.317C413.784 135.214 413.909 135.071 413.977 134.886H416.125C416.014 135.568 415.679 136.111 415.119 136.514C414.563 136.918 413.83 137.119 412.92 137.119ZM411.864 132.977H413.96C413.955 132.696 413.852 132.467 413.653 132.291C413.457 132.112 413.213 132.023 412.92 132.023C412.634 132.023 412.386 132.111 412.179 132.287C411.974 132.463 411.869 132.693 411.864 132.977ZM419.475 139.455V130.455H421.811V131.597H421.862C421.99 131.264 422.207 130.977 422.514 130.736C422.821 130.491 423.217 130.369 423.703 130.369C424.135 130.369 424.545 130.484 424.934 130.714C425.326 130.945 425.645 131.307 425.889 131.801C426.136 132.295 426.26 132.937 426.26 133.727C426.26 134.483 426.142 135.109 425.906 135.607C425.673 136.104 425.36 136.474 424.968 136.719C424.579 136.963 424.152 137.085 423.686 137.085C423.225 137.085 422.841 136.976 422.531 136.757C422.221 136.536 421.998 136.259 421.862 135.926H421.828V139.455H419.475ZM421.777 133.727C421.777 134.205 421.869 134.582 422.054 134.861C422.238 135.139 422.493 135.278 422.816 135.278C423.14 135.278 423.392 135.142 423.571 134.869C423.75 134.594 423.839 134.213 423.839 133.727C423.839 133.241 423.75 132.862 423.571 132.589C423.392 132.314 423.14 132.176 422.816 132.176C422.493 132.176 422.238 132.314 422.054 132.589C421.869 132.862 421.777 133.241 421.777 133.727ZM427.245 137V130.455H429.529V131.699H429.597C429.719 131.239 429.91 130.902 430.168 130.689C430.427 130.476 430.731 130.369 431.08 130.369C431.251 130.369 431.417 130.391 431.579 130.433C431.741 130.476 431.887 130.534 432.018 130.608L431.336 132.534C431.239 132.489 431.138 132.449 431.033 132.415C430.928 132.381 430.813 132.364 430.688 132.364C430.396 132.364 430.141 132.476 429.925 132.7C429.71 132.922 429.6 133.219 429.597 133.591V137H427.245ZM435.531 137.119C434.821 137.119 434.213 136.979 433.707 136.697C433.202 136.413 432.814 136.018 432.544 135.513C432.274 135.004 432.139 134.415 432.139 133.744C432.139 133.074 432.274 132.486 432.544 131.98C432.814 131.472 433.202 131.077 433.707 130.795C434.213 130.511 434.821 130.369 435.531 130.369C436.241 130.369 436.849 130.511 437.355 130.795C437.861 131.077 438.249 131.472 438.518 131.98C438.788 132.486 438.923 133.074 438.923 133.744C438.923 134.415 438.788 135.004 438.518 135.513C438.249 136.018 437.861 136.413 437.355 136.697C436.849 136.979 436.241 137.119 435.531 137.119ZM435.548 135.381C435.847 135.381 436.082 135.234 436.256 134.942C436.432 134.646 436.52 134.241 436.52 133.727C436.52 133.213 436.432 132.81 436.256 132.517C436.082 132.222 435.847 132.074 435.548 132.074C435.233 132.074 434.986 132.222 434.807 132.517C434.631 132.81 434.543 133.213 434.543 133.727C434.543 134.241 434.631 134.646 434.807 134.942C434.986 135.234 435.233 135.381 435.548 135.381ZM439.878 139.455V130.455H442.213V131.597H442.264C442.392 131.264 442.609 130.977 442.916 130.736C443.223 130.491 443.619 130.369 444.105 130.369C444.537 130.369 444.947 130.484 445.337 130.714C445.729 130.945 446.047 131.307 446.291 131.801C446.538 132.295 446.662 132.937 446.662 133.727C446.662 134.483 446.544 135.109 446.308 135.607C446.075 136.104 445.763 136.474 445.371 136.719C444.982 136.963 444.554 137.085 444.088 137.085C443.628 137.085 443.243 136.976 442.933 136.757C442.624 136.536 442.401 136.259 442.264 135.926H442.23V139.455H439.878ZM442.179 133.727C442.179 134.205 442.271 134.582 442.456 134.861C442.641 135.139 442.895 135.278 443.219 135.278C443.543 135.278 443.794 135.142 443.973 134.869C444.152 134.594 444.241 134.213 444.241 133.727C444.241 133.241 444.152 132.862 443.973 132.589C443.794 132.314 443.543 132.176 443.219 132.176C442.895 132.176 442.641 132.314 442.456 132.589C442.271 132.862 442.179 133.241 442.179 133.727ZM450.801 137.119C450.091 137.119 449.483 136.979 448.977 136.697C448.471 136.413 448.083 136.018 447.814 135.513C447.544 135.004 447.409 134.415 447.409 133.744C447.409 133.074 447.544 132.486 447.814 131.98C448.083 131.472 448.471 131.077 448.977 130.795C449.483 130.511 450.091 130.369 450.801 130.369C451.511 130.369 452.119 130.511 452.625 130.795C453.13 131.077 453.518 131.472 453.788 131.98C454.058 132.486 454.193 133.074 454.193 133.744C454.193 134.415 454.058 135.004 453.788 135.513C453.518 136.018 453.13 136.413 452.625 136.697C452.119 136.979 451.511 137.119 450.801 137.119ZM450.818 135.381C451.116 135.381 451.352 135.234 451.525 134.942C451.701 134.646 451.789 134.241 451.789 133.727C451.789 133.213 451.701 132.81 451.525 132.517C451.352 132.222 451.116 132.074 450.818 132.074C450.502 132.074 450.255 132.222 450.076 132.517C449.9 132.81 449.812 133.213 449.812 133.727C449.812 134.241 449.9 134.646 450.076 134.942C450.255 135.234 450.502 135.381 450.818 135.381ZM461.13 132.585H458.966C458.949 132.384 458.855 132.226 458.684 132.112C458.514 131.996 458.312 131.938 458.079 131.938C457.877 131.938 457.704 131.974 457.559 132.048C457.414 132.122 457.343 132.227 457.346 132.364C457.343 132.46 457.385 132.55 457.47 132.632C457.558 132.714 457.727 132.778 457.977 132.824L459.306 133.062C460.627 133.301 461.292 133.892 461.301 134.835C461.298 135.301 461.159 135.706 460.883 136.05C460.61 136.391 460.237 136.655 459.762 136.842C459.291 137.027 458.752 137.119 458.147 137.119C457.147 137.119 456.365 136.915 455.799 136.506C455.237 136.097 454.923 135.557 454.858 134.886H457.193C457.224 135.094 457.326 135.254 457.5 135.368C457.676 135.479 457.897 135.534 458.164 135.534C458.38 135.534 458.558 135.497 458.697 135.423C458.839 135.349 458.912 135.244 458.914 135.108C458.906 134.881 458.656 134.722 458.164 134.631L457.005 134.426C455.667 134.19 455.002 133.548 455.011 132.5C455.008 131.818 455.277 131.293 455.816 130.923C456.356 130.554 457.093 130.369 458.028 130.369C458.974 130.369 459.72 130.565 460.265 130.957C460.814 131.349 461.102 131.892 461.13 132.585ZM462.202 137V130.455H464.554V137H462.202ZM463.378 129.773C463.06 129.773 462.787 129.668 462.56 129.457C462.333 129.247 462.219 128.994 462.219 128.699C462.219 128.403 462.333 128.151 462.56 127.94C462.787 127.73 463.06 127.625 463.378 127.625C463.699 127.625 463.972 127.73 464.196 127.94C464.424 128.151 464.537 128.403 464.537 128.699C464.537 128.994 464.424 129.247 464.196 129.457C463.972 129.668 463.699 129.773 463.378 129.773ZM469.656 130.455V132.159H468.531V134.895C468.531 135.168 468.679 135.304 468.974 135.304C469.045 135.304 469.128 135.295 469.222 135.278C469.318 135.261 469.389 135.247 469.435 135.236L469.776 136.889C469.67 136.92 469.52 136.959 469.324 137.004C469.131 137.05 468.901 137.08 468.634 137.094C467.821 137.139 467.206 136.993 466.788 136.655C466.374 136.314 466.17 135.801 466.179 135.116V132.159H465.344V130.455H466.179V128.886H468.531V130.455H469.656ZM470.616 137V130.455H472.968V137H470.616ZM471.792 129.773C471.474 129.773 471.201 129.668 470.974 129.457C470.747 129.247 470.633 128.994 470.633 128.699C470.633 128.403 470.747 128.151 470.974 127.94C471.201 127.73 471.474 127.625 471.792 127.625C472.113 127.625 472.386 127.73 472.61 127.94C472.838 128.151 472.951 128.403 472.951 128.699C472.951 128.994 472.838 129.247 472.61 129.457C472.386 129.668 472.113 129.773 471.792 129.773ZM477.32 137.119C476.61 137.119 476.002 136.979 475.496 136.697C474.991 136.413 474.603 136.018 474.333 135.513C474.063 135.004 473.928 134.415 473.928 133.744C473.928 133.074 474.063 132.486 474.333 131.98C474.603 131.472 474.991 131.077 475.496 130.795C476.002 130.511 476.61 130.369 477.32 130.369C478.031 130.369 478.638 130.511 479.144 130.795C479.65 131.077 480.038 131.472 480.308 131.98C480.577 132.486 480.712 133.074 480.712 133.744C480.712 134.415 480.577 135.004 480.308 135.513C480.038 136.018 479.65 136.413 479.144 136.697C478.638 136.979 478.031 137.119 477.32 137.119ZM477.337 135.381C477.636 135.381 477.871 135.234 478.045 134.942C478.221 134.646 478.309 134.241 478.309 133.727C478.309 133.213 478.221 132.81 478.045 132.517C477.871 132.222 477.636 132.074 477.337 132.074C477.022 132.074 476.775 132.222 476.596 132.517C476.42 132.81 476.332 133.213 476.332 133.727C476.332 134.241 476.42 134.646 476.596 134.942C476.775 135.234 477.022 135.381 477.337 135.381ZM484.019 133.318V137H481.667V130.455H483.9V131.699H483.968C484.11 131.284 484.36 130.959 484.718 130.723C485.079 130.487 485.499 130.369 485.979 130.369C486.442 130.369 486.844 130.476 487.185 130.689C487.529 130.899 487.795 131.189 487.982 131.558C488.173 131.928 488.266 132.349 488.263 132.824V137H485.911V133.318C485.914 132.994 485.832 132.74 485.664 132.555C485.499 132.371 485.269 132.278 484.974 132.278C484.681 132.278 484.45 132.371 484.279 132.555C484.109 132.74 484.022 132.994 484.019 133.318Z" fill="#828282"/>
</svg>
