<svg width="352" height="96" viewBox="0 0 352 96" fill="none" xmlns="http://www.w3.org/2000/svg">
<rect width="352" height="96" fill="white"/>
<rect x="193.5" y="1.5" width="157" height="93" stroke="black" stroke-width="3"/>
<path d="M213.17 45.8523C213.133 45.4356 212.964 45.1117 212.665 44.8807C212.369 44.6458 211.947 44.5284 211.398 44.5284C210.852 44.5284 210.443 44.6326 210.17 44.8409C209.898 45.0455 209.759 45.3068 209.756 45.625C209.744 45.9697 209.894 46.2405 210.205 46.4375C210.515 46.6307 210.934 46.7841 211.46 46.8977L212.46 47.125C213.608 47.3788 214.487 47.7936 215.097 48.3693C215.71 48.9451 216.019 49.697 216.023 50.625C216.019 51.7311 215.61 52.5947 214.795 53.2159C213.981 53.8371 212.848 54.1477 211.398 54.1477C209.936 54.1477 208.765 53.8182 207.886 53.1591C207.011 52.4962 206.564 51.4848 206.545 50.125H209.239C209.269 50.6856 209.475 51.1098 209.858 51.3977C210.241 51.6818 210.742 51.8239 211.364 51.8239C211.928 51.8239 212.369 51.7121 212.688 51.4886C213.006 51.2652 213.167 50.9754 213.17 50.6193C213.167 50.2936 213.015 50.0341 212.716 49.8409C212.417 49.6439 211.947 49.4716 211.307 49.3239L210.091 49.0398C209.087 48.8087 208.294 48.4356 207.71 47.9205C207.131 47.4015 206.843 46.7008 206.847 45.8182C206.843 45.0947 207.036 44.4621 207.426 43.9205C207.816 43.3788 208.354 42.9583 209.04 42.6591C209.729 42.3561 210.517 42.2045 211.403 42.2045C212.305 42.2045 213.087 42.358 213.75 42.6648C214.417 42.9678 214.934 43.3939 215.301 43.9432C215.669 44.4886 215.856 45.125 215.864 45.8523H213.17ZM221.523 54.1648C220.152 54.1648 219.072 53.7652 218.284 52.9659C217.5 52.1667 217.108 51.0682 217.108 49.6705C217.108 48.7689 217.286 47.9811 217.642 47.3068C217.998 46.6288 218.5 46.1023 219.148 45.7273C219.795 45.3485 220.559 45.1591 221.438 45.1591C222.263 45.1591 222.994 45.3314 223.631 45.6761C224.267 46.017 224.765 46.5189 225.125 47.1818C225.485 47.8447 225.665 48.6553 225.665 49.6136V50.3068H219.847V50.3807C219.847 50.9148 220 51.3447 220.307 51.6705C220.617 51.9962 221.04 52.1591 221.574 52.1591C221.938 52.1591 222.254 52.0833 222.523 51.9318C222.792 51.7765 222.979 51.5549 223.085 51.267L225.636 51.3409C225.477 52.197 225.038 52.8826 224.318 53.3977C223.598 53.9091 222.667 54.1648 221.523 54.1648ZM219.847 48.6932H223.08C223.076 48.2462 222.924 47.8807 222.625 47.5966C222.33 47.3087 221.953 47.1648 221.494 47.1648C221.032 47.1648 220.646 47.3106 220.335 47.6023C220.028 47.8939 219.866 48.2576 219.847 48.6932ZM227.084 54V45.2727H229.783V46.8636H229.874C230.033 46.2879 230.292 45.8598 230.652 45.5795C231.012 45.2955 231.43 45.1534 231.908 45.1534C232.173 45.1534 232.432 45.1875 232.686 45.2557V47.6705C232.554 47.625 232.379 47.589 232.163 47.5625C231.951 47.536 231.762 47.5227 231.595 47.5227C231.099 47.5227 230.686 47.6837 230.357 48.0057C230.027 48.3239 229.862 48.7424 229.862 49.2614V54H227.084ZM242.55 45.2727L239.555 54H236.374L233.385 45.2727H236.311L237.919 51.2841H238.01L239.624 45.2727H242.55ZM243.803 54V45.2727H246.581V54H243.803ZM245.195 44.2557C244.804 44.2557 244.469 44.1269 244.189 43.8693C243.909 43.608 243.768 43.2936 243.768 42.9261C243.768 42.5587 243.909 42.2462 244.189 41.9886C244.469 41.7311 244.804 41.6023 245.195 41.6023C245.589 41.6023 245.924 41.7311 246.2 41.9886C246.481 42.2462 246.621 42.5587 246.621 42.9261C246.621 43.2936 246.481 43.608 246.2 43.8693C245.924 44.1269 245.589 44.2557 245.195 44.2557ZM252.423 54.1648C251.503 54.1648 250.713 53.9754 250.054 53.5966C249.399 53.214 248.895 52.6856 248.543 52.0114C248.19 51.3333 248.014 50.5511 248.014 49.6648C248.014 48.7708 248.19 47.9867 248.543 47.3125C248.895 46.6345 249.401 46.1061 250.06 45.7273C250.719 45.3485 251.505 45.1591 252.418 45.1591C253.228 45.1591 253.933 45.3049 254.531 45.5966C255.13 45.8883 255.598 46.3011 255.935 46.8352C256.276 47.3655 256.455 47.9886 256.474 48.7045H253.878C253.825 48.2576 253.673 47.9072 253.423 47.6534C253.177 47.3996 252.855 47.2727 252.457 47.2727C251.973 47.2727 251.582 47.4754 251.287 47.8807C250.991 48.2822 250.844 48.8674 250.844 49.6364C250.844 50.4129 250.99 51.0038 251.281 51.4091C251.577 51.8106 251.969 52.0114 252.457 52.0114C252.84 52.0114 253.16 51.8883 253.418 51.642C253.675 51.3958 253.829 51.0417 253.878 50.5795H256.474C256.452 51.2992 256.274 51.928 255.94 52.4659C255.607 53.0038 255.141 53.4223 254.543 53.7216C253.948 54.017 253.241 54.1648 252.423 54.1648ZM261.976 54.1648C260.605 54.1648 259.525 53.7652 258.737 52.9659C257.953 52.1667 257.561 51.0682 257.561 49.6705C257.561 48.7689 257.739 47.9811 258.095 47.3068C258.451 46.6288 258.953 46.1023 259.601 45.7273C260.249 45.3485 261.012 45.1591 261.891 45.1591C262.716 45.1591 263.447 45.3314 264.084 45.6761C264.72 46.017 265.218 46.5189 265.578 47.1818C265.938 47.8447 266.118 48.6553 266.118 49.6136V50.3068H260.3V50.3807C260.3 50.9148 260.453 51.3447 260.76 51.6705C261.071 51.9962 261.493 52.1591 262.027 52.1591C262.391 52.1591 262.707 52.0833 262.976 51.9318C263.245 51.7765 263.432 51.5549 263.538 51.267L266.089 51.3409C265.93 52.197 265.491 52.8826 264.771 53.3977C264.052 53.9091 263.12 54.1648 261.976 54.1648ZM260.3 48.6932H263.533C263.529 48.2462 263.377 47.8807 263.078 47.5966C262.783 47.3087 262.406 47.1648 261.947 47.1648C261.485 47.1648 261.099 47.3106 260.788 47.6023C260.482 47.8939 260.319 48.2576 260.3 48.6932Z" fill="black"/>
<rect x="1.5" y="1.5" width="157" height="93" stroke="black" stroke-width="3"/>
<path d="M21.9375 42.3636H24.7273V50.0511C24.7273 50.9337 24.5208 51.6799 24.108 52.2898C23.6951 52.8996 23.1193 53.3617 22.3807 53.6761C21.642 53.9905 20.7841 54.1477 19.8068 54.1477C18.8258 54.1477 17.964 53.9905 17.2216 53.6761C16.483 53.3617 15.9072 52.8996 15.4943 52.2898C15.0852 51.6799 14.8807 50.9337 14.8807 50.0511V42.3636H17.6932V49.9432C17.6932 50.4697 17.8883 50.8902 18.2784 51.2045C18.6686 51.5152 19.178 51.6705 19.8068 51.6705C20.4432 51.6705 20.9564 51.5152 21.3466 51.2045C21.7405 50.8902 21.9375 50.4697 21.9375 49.9432V42.3636ZM34.1094 47.9375L31.5582 48.0057C31.5204 47.7292 31.3821 47.5038 31.1435 47.3295C30.9048 47.1515 30.6018 47.0625 30.2344 47.0625C29.9124 47.0625 29.6378 47.1269 29.4105 47.2557C29.187 47.3807 29.0772 47.5549 29.081 47.7784C29.0772 47.9451 29.1454 48.0928 29.2855 48.2216C29.4295 48.3466 29.6851 48.447 30.0526 48.5227L31.7344 48.8409C33.4503 49.1705 34.3139 49.9583 34.3253 51.2045C34.3215 51.803 34.1435 52.3239 33.7912 52.767C33.4427 53.2102 32.9654 53.5549 32.3594 53.8011C31.7533 54.0436 31.0601 54.1648 30.2798 54.1648C29.0336 54.1648 28.0507 53.9091 27.331 53.3977C26.6113 52.8826 26.2022 52.1932 26.1037 51.3295L28.848 51.2614C28.9086 51.5795 29.0658 51.822 29.3196 51.9886C29.5734 52.1553 29.8973 52.2386 30.2912 52.2386C30.6473 52.2386 30.937 52.1723 31.1605 52.0398C31.384 51.9072 31.4976 51.7311 31.5014 51.5114C31.4901 51.1439 31.1359 50.892 30.4389 50.7557L28.9162 50.4659C27.1776 50.1439 26.3139 49.3011 26.3253 47.9375C26.3215 47.0625 26.6681 46.3807 27.3651 45.892C28.062 45.4034 29.0014 45.1591 30.1832 45.1591C31.3651 45.1591 32.2969 45.4072 32.9787 45.9034C33.6605 46.3958 34.0374 47.0739 34.1094 47.9375ZM39.7727 54.1648C38.4015 54.1648 37.322 53.7652 36.5341 52.9659C35.75 52.1667 35.358 51.0682 35.358 49.6705C35.358 48.7689 35.536 47.9811 35.892 47.3068C36.2481 46.6288 36.75 46.1023 37.3977 45.7273C38.0455 45.3485 38.8087 45.1591 39.6875 45.1591C40.5133 45.1591 41.2443 45.3314 41.8807 45.6761C42.517 46.017 43.0152 46.5189 43.375 47.1818C43.7348 47.8447 43.9148 48.6553 43.9148 49.6136V50.3068H38.0966V50.3807C38.0966 50.9148 38.25 51.3447 38.5568 51.6705C38.8674 51.9962 39.2898 52.1591 39.8239 52.1591C40.1875 52.1591 40.5038 52.0833 40.7727 51.9318C41.0417 51.7765 41.2292 51.5549 41.3352 51.267L43.8864 51.3409C43.7273 52.197 43.2879 52.8826 42.5682 53.3977C41.8485 53.9091 40.9167 54.1648 39.7727 54.1648ZM38.0966 48.6932H41.3295C41.3258 48.2462 41.1742 47.8807 40.875 47.5966C40.5795 47.3087 40.2027 47.1648 39.7443 47.1648C39.2822 47.1648 38.8958 47.3106 38.5852 47.6023C38.2784 47.8939 38.1155 48.2576 38.0966 48.6932ZM45.3338 54V45.2727H48.0327V46.8636H48.1236C48.2827 46.2879 48.5421 45.8598 48.902 45.5795C49.2618 45.2955 49.6804 45.1534 50.1577 45.1534C50.3887 45.1534 50.6084 45.1818 50.8168 45.2386C51.0251 45.2955 51.2126 45.3731 51.3793 45.4716L50.5611 47.7557C50.4399 47.6989 50.3092 47.6496 50.169 47.608C50.0327 47.5625 49.8812 47.5398 49.7145 47.5398C49.2789 47.5398 48.9039 47.697 48.5895 48.0114C48.2751 48.3258 48.116 48.7424 48.1122 49.2614V54H45.3338Z" fill="black"/>
</svg>
