<svg width="576" height="394" viewBox="0 0 576 394" fill="none" xmlns="http://www.w3.org/2000/svg">
<rect width="576" height="394" fill="white"/>
<rect x="3" y="3" width="570" height="125" fill="black"/>
<rect x="1.5" y="1.5" width="573" height="279" stroke="black" stroke-width="3"/>
<rect x="17.5" y="19.5" width="157" height="93" fill="white" stroke="black" stroke-width="3"/>
<path d="M33.3977 63H30.375L34.3011 51.3636H38.0455L41.9716 63H38.9489L38.1818 60.5568H34.1648L33.3977 63ZM34.8352 58.4205H37.5114L36.2159 54.2955H36.125L34.8352 58.4205ZM48.8551 59.233V54.2727H51.6278V63H48.9801V61.375H48.8892C48.696 61.9091 48.3665 62.3333 47.9006 62.6477C47.4384 62.9583 46.8797 63.1136 46.2244 63.1136C45.6259 63.1136 45.1013 62.9773 44.6506 62.7045C44.2036 62.4318 43.8551 62.0492 43.6051 61.5568C43.3551 61.0644 43.2282 60.4905 43.2244 59.8352V54.2727H46.0028V59.2898C46.0066 59.7633 46.1316 60.1364 46.3778 60.4091C46.6241 60.6818 46.9593 60.8182 47.3835 60.8182C47.7964 60.8182 48.1449 60.6818 48.429 60.4091C48.7131 60.1326 48.8551 59.7405 48.8551 59.233ZM58.3224 54.2727V56.3182H56.7486V60.2557C56.7486 60.5133 56.8092 60.6951 56.9304 60.8011C57.0554 60.9034 57.2296 60.9545 57.4531 60.9545C57.5592 60.9545 57.6709 60.9451 57.7884 60.9261C57.9096 60.9034 58.0005 60.8845 58.0611 60.8693L58.4815 62.875C58.349 62.9129 58.1634 62.9583 57.9247 63.0114C57.6861 63.0682 57.3982 63.1061 57.0611 63.125C56.08 63.1705 55.3168 62.9754 54.7713 62.5398C54.2296 62.1042 53.9626 61.4451 53.9702 60.5625V56.3182H52.8168V54.2727H53.9702V52.1818H56.7486V54.2727H58.3224ZM62.706 58.0227V63H59.9276V51.3636H62.6151V55.875H62.7116C62.9086 55.3371 63.2306 54.9167 63.6776 54.6136C64.1283 54.3106 64.6795 54.1591 65.331 54.1591C66.2476 54.1591 66.9825 54.4583 67.5355 55.0568C68.0923 55.6553 68.3688 56.4489 68.3651 57.4375V63H65.5866V57.983C65.5904 57.4981 65.4692 57.1193 65.223 56.8466C64.9768 56.5739 64.6302 56.4375 64.1832 56.4375C63.7438 56.4375 63.3878 56.5777 63.1151 56.858C62.8461 57.1383 62.7098 57.5265 62.706 58.0227ZM74.179 63.1648C72.8078 63.1648 71.7282 62.7652 70.9403 61.9659C70.1563 61.1667 69.7642 60.0682 69.7642 58.6705C69.7642 57.7689 69.9422 56.9811 70.2983 56.3068C70.6544 55.6288 71.1562 55.1023 71.804 54.7273C72.4517 54.3485 73.215 54.1591 74.0938 54.1591C74.9195 54.1591 75.6506 54.3314 76.2869 54.6761C76.9233 55.017 77.4214 55.5189 77.7812 56.1818C78.1411 56.8447 78.321 57.6553 78.321 58.6136V59.3068H72.5028V59.3807C72.5028 59.9148 72.6563 60.3447 72.9631 60.6705C73.2737 60.9962 73.696 61.1591 74.2301 61.1591C74.5938 61.1591 74.91 61.0833 75.179 60.9318C75.4479 60.7765 75.6354 60.5549 75.7415 60.267L78.2926 60.3409C78.1335 61.197 77.6941 61.8826 76.9744 62.3977C76.2547 62.9091 75.3229 63.1648 74.179 63.1648ZM72.5028 57.6932H75.7358C75.732 57.2462 75.5805 56.8807 75.2812 56.5966C74.9858 56.3087 74.6089 56.1648 74.1506 56.1648C73.6884 56.1648 73.3021 56.3106 72.9915 56.6023C72.6847 56.8939 72.5218 57.2576 72.5028 57.6932ZM82.5185 58.0227V63H79.7401V54.2727H82.3821V55.875H82.4787C82.6719 55.3447 83.0014 54.9261 83.4673 54.6193C83.9332 54.3125 84.4882 54.1591 85.1321 54.1591C85.7457 54.1591 86.2779 54.2955 86.7287 54.5682C87.1832 54.8409 87.5355 55.2235 87.7855 55.7159C88.0393 56.2083 88.1643 56.7822 88.1605 57.4375V63H85.3821V57.983C85.3859 57.4981 85.2628 57.1193 85.0128 56.8466C84.7666 56.5739 84.4238 56.4375 83.9844 56.4375C83.545 56.4375 83.1908 56.5777 82.9219 56.858C82.6567 57.1383 82.5223 57.5265 82.5185 58.0227ZM94.8068 54.2727V56.3182H93.233V60.2557C93.233 60.5133 93.2936 60.6951 93.4148 60.8011C93.5398 60.9034 93.714 60.9545 93.9375 60.9545C94.0436 60.9545 94.1553 60.9451 94.2727 60.9261C94.3939 60.9034 94.4848 60.8845 94.5455 60.8693L94.9659 62.875C94.8333 62.9129 94.6477 62.9583 94.4091 63.0114C94.1705 63.0682 93.8826 63.1061 93.5455 63.125C92.5644 63.1705 91.8011 62.9754 91.2557 62.5398C90.714 62.1042 90.447 61.4451 90.4545 60.5625V56.3182H89.3011V54.2727H90.4545V52.1818H93.233V54.2727H94.8068ZM96.2244 63V54.2727H99.0028V63H96.2244ZM97.6165 53.2557C97.2263 53.2557 96.8911 53.1269 96.6108 52.8693C96.3305 52.608 96.1903 52.2936 96.1903 51.9261C96.1903 51.5587 96.3305 51.2462 96.6108 50.9886C96.8911 50.7311 97.2263 50.6023 97.6165 50.6023C98.0104 50.6023 98.3456 50.7311 98.6222 50.9886C98.9025 51.2462 99.0426 51.5587 99.0426 51.9261C99.0426 52.2936 98.9025 52.608 98.6222 52.8693C98.3456 53.1269 98.0104 53.2557 97.6165 53.2557ZM104.845 63.1648C103.925 63.1648 103.135 62.9754 102.476 62.5966C101.821 62.214 101.317 61.6856 100.964 61.0114C100.612 60.3333 100.436 59.5511 100.436 58.6648C100.436 57.7708 100.612 56.9867 100.964 56.3125C101.317 55.6345 101.822 55.1061 102.482 54.7273C103.141 54.3485 103.927 54.1591 104.839 54.1591C105.65 54.1591 106.355 54.3049 106.953 54.5966C107.552 54.8883 108.019 55.3011 108.357 55.8352C108.697 56.3655 108.877 56.9886 108.896 57.7045H106.3C106.247 57.2576 106.095 56.9072 105.845 56.6534C105.599 56.3996 105.277 56.2727 104.879 56.2727C104.394 56.2727 104.004 56.4754 103.709 56.8807C103.413 57.2822 103.266 57.8674 103.266 58.6364C103.266 59.4129 103.411 60.0038 103.703 60.4091C103.999 60.8106 104.391 61.0114 104.879 61.0114C105.262 61.0114 105.582 60.8883 105.839 60.642C106.097 60.3958 106.25 60.0417 106.3 59.5795H108.896C108.874 60.2992 108.696 60.928 108.362 61.4659C108.029 62.0038 107.563 62.4223 106.964 62.7216C106.37 63.017 105.663 63.1648 104.845 63.1648ZM112.778 63.1477C111.945 63.1477 111.258 62.9356 110.716 62.5114C110.178 62.0871 109.909 61.4432 109.909 60.5795C109.909 59.9356 110.057 59.4242 110.352 59.0455C110.648 58.6629 111.042 58.3807 111.534 58.1989C112.027 58.0133 112.566 57.8958 113.153 57.8466C113.9 57.7822 114.43 57.7027 114.744 57.608C115.063 57.5133 115.222 57.3333 115.222 57.0682V57.0398C115.222 56.7481 115.121 56.5227 114.92 56.3636C114.72 56.2045 114.449 56.125 114.108 56.125C113.741 56.125 113.445 56.2045 113.222 56.3636C112.998 56.5227 112.856 56.7424 112.795 57.0227L110.233 56.9318C110.343 56.1364 110.725 55.4754 111.381 54.9489C112.04 54.4223 112.956 54.1591 114.131 54.1591C114.873 54.1591 115.534 54.2746 116.114 54.5057C116.697 54.733 117.155 55.0625 117.489 55.4943C117.826 55.9261 117.994 56.4508 117.994 57.0682V63H115.381V61.7841H115.312C114.828 62.6932 113.983 63.1477 112.778 63.1477ZM113.636 61.3295C114.08 61.3295 114.456 61.197 114.767 60.9318C115.081 60.6667 115.239 60.322 115.239 59.8977V59.0682C115.083 59.1515 114.864 59.2216 114.58 59.2784C114.299 59.3352 114.03 59.3826 113.773 59.4205C112.951 59.5455 112.54 59.8864 112.54 60.4432C112.54 60.7311 112.642 60.9508 112.847 61.1023C113.051 61.2538 113.314 61.3295 113.636 61.3295ZM124.619 54.2727V56.3182H123.045V60.2557C123.045 60.5133 123.106 60.6951 123.227 60.8011C123.352 60.9034 123.527 60.9545 123.75 60.9545C123.856 60.9545 123.968 60.9451 124.085 60.9261C124.206 60.9034 124.297 60.8845 124.358 60.8693L124.778 62.875C124.646 62.9129 124.46 62.9583 124.222 63.0114C123.983 63.0682 123.695 63.1061 123.358 63.125C122.377 63.1705 121.614 62.9754 121.068 62.5398C120.527 62.1042 120.259 61.4451 120.267 60.5625V56.3182H119.114V54.2727H120.267V52.1818H123.045V54.2727H124.619ZM126.037 63V54.2727H128.815V63H126.037ZM127.429 53.2557C127.039 53.2557 126.704 53.1269 126.423 52.8693C126.143 52.608 126.003 52.2936 126.003 51.9261C126.003 51.5587 126.143 51.2462 126.423 50.9886C126.704 50.7311 127.039 50.6023 127.429 50.6023C127.823 50.6023 128.158 50.7311 128.435 50.9886C128.715 51.2462 128.855 51.5587 128.855 51.9261C128.855 52.2936 128.715 52.608 128.435 52.8693C128.158 53.1269 127.823 53.2557 127.429 53.2557ZM134.658 63.1648C133.745 63.1648 132.959 62.9773 132.3 62.6023C131.641 62.2235 131.133 61.697 130.777 61.0227C130.425 60.3447 130.249 59.5587 130.249 58.6648C130.249 57.767 130.425 56.9811 130.777 56.3068C131.133 55.6288 131.641 55.1023 132.3 54.7273C132.959 54.3485 133.745 54.1591 134.658 54.1591C135.574 54.1591 136.36 54.3485 137.016 54.7273C137.675 55.1023 138.18 55.6288 138.533 56.3068C138.889 56.9811 139.067 57.767 139.067 58.6648C139.067 59.5587 138.889 60.3447 138.533 61.0227C138.18 61.697 137.675 62.2235 137.016 62.6023C136.36 62.9773 135.574 63.1648 134.658 63.1648ZM134.675 61.0682C135.171 61.0682 135.555 60.8447 135.828 60.3977C136.101 59.9508 136.237 59.3674 136.237 58.6477C136.237 57.9242 136.101 57.339 135.828 56.892C135.555 56.4413 135.171 56.2159 134.675 56.2159C134.16 56.2159 133.764 56.4413 133.487 56.892C133.214 57.339 133.078 57.9242 133.078 58.6477C133.078 59.3674 133.214 59.9508 133.487 60.3977C133.764 60.8447 134.16 61.0682 134.675 61.0682ZM143.268 58.0227V63H140.49V54.2727H143.132V55.875H143.229C143.422 55.3447 143.751 54.9261 144.217 54.6193C144.683 54.3125 145.238 54.1591 145.882 54.1591C146.496 54.1591 147.028 54.2955 147.479 54.5682C147.933 54.8409 148.286 55.2235 148.536 55.7159C148.789 56.2083 148.914 56.7822 148.911 57.4375V63H146.132V57.983C146.136 57.4981 146.013 57.1193 145.763 56.8466C145.517 56.5739 145.174 56.4375 144.734 56.4375C144.295 56.4375 143.941 56.5777 143.672 56.858C143.407 57.1383 143.272 57.5265 143.268 58.0227ZM37.1705 72.8523C37.1326 72.4356 36.964 72.1117 36.6648 71.8807C36.3693 71.6458 35.947 71.5284 35.3977 71.5284C34.8523 71.5284 34.4432 71.6326 34.1705 71.8409C33.8977 72.0455 33.7595 72.3068 33.7557 72.625C33.7443 72.9697 33.8939 73.2405 34.2045 73.4375C34.5152 73.6307 34.9337 73.7841 35.4602 73.8977L36.4602 74.125C37.608 74.3788 38.4867 74.7936 39.0966 75.3693C39.7102 75.9451 40.0189 76.697 40.0227 77.625C40.0189 78.7311 39.6098 79.5947 38.7955 80.2159C37.9811 80.8371 36.8485 81.1477 35.3977 81.1477C33.9356 81.1477 32.7652 80.8182 31.8864 80.1591C31.0114 79.4962 30.5644 78.4848 30.5455 77.125H33.2386C33.2689 77.6856 33.4754 78.1098 33.858 78.3977C34.2405 78.6818 34.7424 78.8239 35.3636 78.8239C35.928 78.8239 36.3693 78.7121 36.6875 78.4886C37.0057 78.2652 37.1667 77.9754 37.1705 77.6193C37.1667 77.2936 37.0152 77.0341 36.7159 76.8409C36.4167 76.6439 35.947 76.4716 35.3068 76.3239L34.0909 76.0398C33.0871 75.8087 32.2936 75.4356 31.7102 74.9205C31.1307 74.4015 30.8428 73.7008 30.8466 72.8182C30.8428 72.0947 31.036 71.4621 31.4261 70.9205C31.8163 70.3788 32.3542 69.9583 33.0398 69.6591C33.7292 69.3561 34.517 69.2045 35.4034 69.2045C36.3049 69.2045 37.0871 69.358 37.75 69.6648C38.4167 69.9678 38.9337 70.3939 39.3011 70.9432C39.6686 71.4886 39.8561 72.125 39.8636 72.8523H37.1705ZM45.5227 81.1648C44.1515 81.1648 43.072 80.7652 42.2841 79.9659C41.5 79.1667 41.108 78.0682 41.108 76.6705C41.108 75.7689 41.286 74.9811 41.642 74.3068C41.9981 73.6288 42.5 73.1023 43.1477 72.7273C43.7955 72.3485 44.5587 72.1591 45.4375 72.1591C46.2633 72.1591 46.9943 72.3314 47.6307 72.6761C48.267 73.017 48.7652 73.5189 49.125 74.1818C49.4848 74.8447 49.6648 75.6553 49.6648 76.6136V77.3068H43.8466V77.3807C43.8466 77.9148 44 78.3447 44.3068 78.6705C44.6174 78.9962 45.0398 79.1591 45.5739 79.1591C45.9375 79.1591 46.2538 79.0833 46.5227 78.9318C46.7917 78.7765 46.9792 78.5549 47.0852 78.267L49.6364 78.3409C49.4773 79.197 49.0379 79.8826 48.3182 80.3977C47.5985 80.9091 46.6667 81.1648 45.5227 81.1648ZM43.8466 75.6932H47.0795C47.0758 75.2462 46.9242 74.8807 46.625 74.5966C46.3295 74.3087 45.9527 74.1648 45.4943 74.1648C45.0322 74.1648 44.6458 74.3106 44.3352 74.6023C44.0284 74.8939 43.8655 75.2576 43.8466 75.6932ZM51.0838 81V72.2727H53.7827V73.8636H53.8736C54.0327 73.2879 54.2921 72.8598 54.652 72.5795C55.0118 72.2955 55.4304 72.1534 55.9077 72.1534C56.1728 72.1534 56.4323 72.1875 56.6861 72.2557V74.6705C56.5535 74.625 56.3793 74.589 56.1634 74.5625C55.9512 74.536 55.7618 74.5227 55.5952 74.5227C55.099 74.5227 54.6861 74.6837 54.3565 75.0057C54.027 75.3239 53.8622 75.7424 53.8622 76.2614V81H51.0838ZM66.5497 72.2727L63.5554 81H60.3736L57.3849 72.2727H60.3111L61.919 78.2841H62.0099L63.6236 72.2727H66.5497ZM67.8026 81V72.2727H70.581V81H67.8026ZM69.1946 71.2557C68.8045 71.2557 68.4692 71.1269 68.1889 70.8693C67.9086 70.608 67.7685 70.2936 67.7685 69.9261C67.7685 69.5587 67.9086 69.2462 68.1889 68.9886C68.4692 68.7311 68.8045 68.6023 69.1946 68.6023C69.5885 68.6023 69.9238 68.7311 70.2003 68.9886C70.4806 69.2462 70.6207 69.5587 70.6207 69.9261C70.6207 70.2936 70.4806 70.608 70.2003 70.8693C69.9238 71.1269 69.5885 71.2557 69.1946 71.2557ZM76.4233 81.1648C75.5028 81.1648 74.7131 80.9754 74.054 80.5966C73.3987 80.214 72.8949 79.6856 72.5426 79.0114C72.1903 78.3333 72.0142 77.5511 72.0142 76.6648C72.0142 75.7708 72.1903 74.9867 72.5426 74.3125C72.8949 73.6345 73.4006 73.1061 74.0597 72.7273C74.7188 72.3485 75.5047 72.1591 76.4176 72.1591C77.2282 72.1591 77.9328 72.3049 78.5312 72.5966C79.1297 72.8883 79.5975 73.3011 79.9347 73.8352C80.2756 74.3655 80.4555 74.9886 80.4744 75.7045H77.8778C77.8248 75.2576 77.6733 74.9072 77.4233 74.6534C77.1771 74.3996 76.8551 74.2727 76.4574 74.2727C75.9725 74.2727 75.5824 74.4754 75.2869 74.8807C74.9915 75.2822 74.8438 75.8674 74.8438 76.6364C74.8438 77.4129 74.9896 78.0038 75.2812 78.4091C75.5767 78.8106 75.9688 79.0114 76.4574 79.0114C76.84 79.0114 77.16 78.8883 77.4176 78.642C77.6752 78.3958 77.8286 78.0417 77.8778 77.5795H80.4744C80.4517 78.2992 80.2737 78.928 79.9403 79.4659C79.607 80.0038 79.1411 80.4223 78.5426 80.7216C77.9479 81.017 77.2415 81.1648 76.4233 81.1648ZM85.9759 81.1648C84.6046 81.1648 83.5251 80.7652 82.7372 79.9659C81.9531 79.1667 81.5611 78.0682 81.5611 76.6705C81.5611 75.7689 81.7391 74.9811 82.0952 74.3068C82.4512 73.6288 82.9531 73.1023 83.6009 72.7273C84.2486 72.3485 85.0118 72.1591 85.8906 72.1591C86.7164 72.1591 87.4474 72.3314 88.0838 72.6761C88.7202 73.017 89.2183 73.5189 89.5781 74.1818C89.938 74.8447 90.1179 75.6553 90.1179 76.6136V77.3068H84.2997V77.3807C84.2997 77.9148 84.4531 78.3447 84.7599 78.6705C85.0705 78.9962 85.4929 79.1591 86.027 79.1591C86.3906 79.1591 86.7069 79.0833 86.9759 78.9318C87.2448 78.7765 87.4323 78.5549 87.5384 78.267L90.0895 78.3409C89.9304 79.197 89.491 79.8826 88.7713 80.3977C88.0516 80.9091 87.1198 81.1648 85.9759 81.1648ZM84.2997 75.6932H87.5327C87.5289 75.2462 87.3774 74.8807 87.0781 74.5966C86.7827 74.3087 86.4058 74.1648 85.9474 74.1648C85.4853 74.1648 85.099 74.3106 84.7884 74.6023C84.4815 74.8939 84.3187 75.2576 84.2997 75.6932Z" fill="black"/>
<circle cx="158" cy="96" r="8" fill="#EB5757"/>
<rect x="33.5" y="158.5" width="157" height="93" stroke="black" stroke-width="3"/>
<path d="M53.1705 202.852C53.1326 202.436 52.964 202.112 52.6648 201.881C52.3693 201.646 51.947 201.528 51.3977 201.528C50.8523 201.528 50.4432 201.633 50.1705 201.841C49.8977 202.045 49.7595 202.307 49.7557 202.625C49.7443 202.97 49.8939 203.241 50.2045 203.438C50.5152 203.631 50.9337 203.784 51.4602 203.898L52.4602 204.125C53.608 204.379 54.4867 204.794 55.0966 205.369C55.7102 205.945 56.0189 206.697 56.0227 207.625C56.0189 208.731 55.6098 209.595 54.7955 210.216C53.9811 210.837 52.8485 211.148 51.3977 211.148C49.9356 211.148 48.7652 210.818 47.8864 210.159C47.0114 209.496 46.5644 208.485 46.5455 207.125H49.2386C49.2689 207.686 49.4754 208.11 49.858 208.398C50.2405 208.682 50.7424 208.824 51.3636 208.824C51.928 208.824 52.3693 208.712 52.6875 208.489C53.0057 208.265 53.1667 207.975 53.1705 207.619C53.1667 207.294 53.0152 207.034 52.7159 206.841C52.4167 206.644 51.947 206.472 51.3068 206.324L50.0909 206.04C49.0871 205.809 48.2936 205.436 47.7102 204.92C47.1307 204.402 46.8428 203.701 46.8466 202.818C46.8428 202.095 47.036 201.462 47.4261 200.92C47.8163 200.379 48.3542 199.958 49.0398 199.659C49.7292 199.356 50.517 199.205 51.4034 199.205C52.3049 199.205 53.0871 199.358 53.75 199.665C54.4167 199.968 54.9337 200.394 55.3011 200.943C55.6686 201.489 55.8561 202.125 55.8636 202.852H53.1705ZM61.5227 211.165C60.1515 211.165 59.072 210.765 58.2841 209.966C57.5 209.167 57.108 208.068 57.108 206.67C57.108 205.769 57.286 204.981 57.642 204.307C57.9981 203.629 58.5 203.102 59.1477 202.727C59.7955 202.348 60.5587 202.159 61.4375 202.159C62.2633 202.159 62.9943 202.331 63.6307 202.676C64.267 203.017 64.7652 203.519 65.125 204.182C65.4848 204.845 65.6648 205.655 65.6648 206.614V207.307H59.8466V207.381C59.8466 207.915 60 208.345 60.3068 208.67C60.6174 208.996 61.0398 209.159 61.5739 209.159C61.9375 209.159 62.2538 209.083 62.5227 208.932C62.7917 208.777 62.9792 208.555 63.0852 208.267L65.6364 208.341C65.4773 209.197 65.0379 209.883 64.3182 210.398C63.5985 210.909 62.6667 211.165 61.5227 211.165ZM59.8466 205.693H63.0795C63.0758 205.246 62.9242 204.881 62.625 204.597C62.3295 204.309 61.9527 204.165 61.4943 204.165C61.0322 204.165 60.6458 204.311 60.3352 204.602C60.0284 204.894 59.8655 205.258 59.8466 205.693ZM67.0838 211V202.273H69.7827V203.864H69.8736C70.0327 203.288 70.2921 202.86 70.652 202.58C71.0118 202.295 71.4304 202.153 71.9077 202.153C72.1728 202.153 72.4323 202.188 72.6861 202.256V204.67C72.5535 204.625 72.3793 204.589 72.1634 204.562C71.9512 204.536 71.7618 204.523 71.5952 204.523C71.099 204.523 70.6861 204.684 70.3565 205.006C70.027 205.324 69.8622 205.742 69.8622 206.261V211H67.0838ZM82.5497 202.273L79.5554 211H76.3736L73.3849 202.273H76.3111L77.919 208.284H78.0099L79.6236 202.273H82.5497ZM83.8026 211V202.273H86.581V211H83.8026ZM85.1946 201.256C84.8045 201.256 84.4692 201.127 84.1889 200.869C83.9086 200.608 83.7685 200.294 83.7685 199.926C83.7685 199.559 83.9086 199.246 84.1889 198.989C84.4692 198.731 84.8045 198.602 85.1946 198.602C85.5885 198.602 85.9238 198.731 86.2003 198.989C86.4806 199.246 86.6207 199.559 86.6207 199.926C86.6207 200.294 86.4806 200.608 86.2003 200.869C85.9238 201.127 85.5885 201.256 85.1946 201.256ZM92.4233 211.165C91.5028 211.165 90.7131 210.975 90.054 210.597C89.3987 210.214 88.8949 209.686 88.5426 209.011C88.1903 208.333 88.0142 207.551 88.0142 206.665C88.0142 205.771 88.1903 204.987 88.5426 204.312C88.8949 203.634 89.4006 203.106 90.0597 202.727C90.7188 202.348 91.5047 202.159 92.4176 202.159C93.2282 202.159 93.9328 202.305 94.5312 202.597C95.1297 202.888 95.5975 203.301 95.9347 203.835C96.2756 204.366 96.4555 204.989 96.4744 205.705H93.8778C93.8248 205.258 93.6733 204.907 93.4233 204.653C93.1771 204.4 92.8551 204.273 92.4574 204.273C91.9725 204.273 91.5824 204.475 91.2869 204.881C90.9915 205.282 90.8438 205.867 90.8438 206.636C90.8438 207.413 90.9896 208.004 91.2812 208.409C91.5767 208.811 91.9688 209.011 92.4574 209.011C92.84 209.011 93.16 208.888 93.4176 208.642C93.6752 208.396 93.8286 208.042 93.8778 207.58H96.4744C96.4517 208.299 96.2737 208.928 95.9403 209.466C95.607 210.004 95.1411 210.422 94.5426 210.722C93.9479 211.017 93.2415 211.165 92.4233 211.165ZM101.976 211.165C100.605 211.165 99.5251 210.765 98.7372 209.966C97.9531 209.167 97.5611 208.068 97.5611 206.67C97.5611 205.769 97.7391 204.981 98.0952 204.307C98.4512 203.629 98.9531 203.102 99.6009 202.727C100.249 202.348 101.012 202.159 101.891 202.159C102.716 202.159 103.447 202.331 104.084 202.676C104.72 203.017 105.218 203.519 105.578 204.182C105.938 204.845 106.118 205.655 106.118 206.614V207.307H100.3V207.381C100.3 207.915 100.453 208.345 100.76 208.67C101.071 208.996 101.493 209.159 102.027 209.159C102.391 209.159 102.707 209.083 102.976 208.932C103.245 208.777 103.432 208.555 103.538 208.267L106.089 208.341C105.93 209.197 105.491 209.883 104.771 210.398C104.052 210.909 103.12 211.165 101.976 211.165ZM100.3 205.693H103.533C103.529 205.246 103.377 204.881 103.078 204.597C102.783 204.309 102.406 204.165 101.947 204.165C101.485 204.165 101.099 204.311 100.788 204.602C100.482 204.894 100.319 205.258 100.3 205.693ZM113.491 211H110.469L114.395 199.364H118.139L122.065 211H119.043L118.276 208.557H114.259L113.491 211ZM114.929 206.42H117.605L116.31 202.295H116.219L114.929 206.42Z" fill="black"/>
<rect x="209.5" y="158.5" width="157" height="93" stroke="black" stroke-width="3"/>
<path d="M229.17 202.852C229.133 202.436 228.964 202.112 228.665 201.881C228.369 201.646 227.947 201.528 227.398 201.528C226.852 201.528 226.443 201.633 226.17 201.841C225.898 202.045 225.759 202.307 225.756 202.625C225.744 202.97 225.894 203.241 226.205 203.438C226.515 203.631 226.934 203.784 227.46 203.898L228.46 204.125C229.608 204.379 230.487 204.794 231.097 205.369C231.71 205.945 232.019 206.697 232.023 207.625C232.019 208.731 231.61 209.595 230.795 210.216C229.981 210.837 228.848 211.148 227.398 211.148C225.936 211.148 224.765 210.818 223.886 210.159C223.011 209.496 222.564 208.485 222.545 207.125H225.239C225.269 207.686 225.475 208.11 225.858 208.398C226.241 208.682 226.742 208.824 227.364 208.824C227.928 208.824 228.369 208.712 228.688 208.489C229.006 208.265 229.167 207.975 229.17 207.619C229.167 207.294 229.015 207.034 228.716 206.841C228.417 206.644 227.947 206.472 227.307 206.324L226.091 206.04C225.087 205.809 224.294 205.436 223.71 204.92C223.131 204.402 222.843 203.701 222.847 202.818C222.843 202.095 223.036 201.462 223.426 200.92C223.816 200.379 224.354 199.958 225.04 199.659C225.729 199.356 226.517 199.205 227.403 199.205C228.305 199.205 229.087 199.358 229.75 199.665C230.417 199.968 230.934 200.394 231.301 200.943C231.669 201.489 231.856 202.125 231.864 202.852H229.17ZM237.523 211.165C236.152 211.165 235.072 210.765 234.284 209.966C233.5 209.167 233.108 208.068 233.108 206.67C233.108 205.769 233.286 204.981 233.642 204.307C233.998 203.629 234.5 203.102 235.148 202.727C235.795 202.348 236.559 202.159 237.438 202.159C238.263 202.159 238.994 202.331 239.631 202.676C240.267 203.017 240.765 203.519 241.125 204.182C241.485 204.845 241.665 205.655 241.665 206.614V207.307H235.847V207.381C235.847 207.915 236 208.345 236.307 208.67C236.617 208.996 237.04 209.159 237.574 209.159C237.938 209.159 238.254 209.083 238.523 208.932C238.792 208.777 238.979 208.555 239.085 208.267L241.636 208.341C241.477 209.197 241.038 209.883 240.318 210.398C239.598 210.909 238.667 211.165 237.523 211.165ZM235.847 205.693H239.08C239.076 205.246 238.924 204.881 238.625 204.597C238.33 204.309 237.953 204.165 237.494 204.165C237.032 204.165 236.646 204.311 236.335 204.602C236.028 204.894 235.866 205.258 235.847 205.693ZM243.084 211V202.273H245.783V203.864H245.874C246.033 203.288 246.292 202.86 246.652 202.58C247.012 202.295 247.43 202.153 247.908 202.153C248.173 202.153 248.432 202.188 248.686 202.256V204.67C248.554 204.625 248.379 204.589 248.163 204.562C247.951 204.536 247.762 204.523 247.595 204.523C247.099 204.523 246.686 204.684 246.357 205.006C246.027 205.324 245.862 205.742 245.862 206.261V211H243.084ZM258.55 202.273L255.555 211H252.374L249.385 202.273H252.311L253.919 208.284H254.01L255.624 202.273H258.55ZM259.803 211V202.273H262.581V211H259.803ZM261.195 201.256C260.804 201.256 260.469 201.127 260.189 200.869C259.909 200.608 259.768 200.294 259.768 199.926C259.768 199.559 259.909 199.246 260.189 198.989C260.469 198.731 260.804 198.602 261.195 198.602C261.589 198.602 261.924 198.731 262.2 198.989C262.481 199.246 262.621 199.559 262.621 199.926C262.621 200.294 262.481 200.608 262.2 200.869C261.924 201.127 261.589 201.256 261.195 201.256ZM268.423 211.165C267.503 211.165 266.713 210.975 266.054 210.597C265.399 210.214 264.895 209.686 264.543 209.011C264.19 208.333 264.014 207.551 264.014 206.665C264.014 205.771 264.19 204.987 264.543 204.312C264.895 203.634 265.401 203.106 266.06 202.727C266.719 202.348 267.505 202.159 268.418 202.159C269.228 202.159 269.933 202.305 270.531 202.597C271.13 202.888 271.598 203.301 271.935 203.835C272.276 204.366 272.455 204.989 272.474 205.705H269.878C269.825 205.258 269.673 204.907 269.423 204.653C269.177 204.4 268.855 204.273 268.457 204.273C267.973 204.273 267.582 204.475 267.287 204.881C266.991 205.282 266.844 205.867 266.844 206.636C266.844 207.413 266.99 208.004 267.281 208.409C267.577 208.811 267.969 209.011 268.457 209.011C268.84 209.011 269.16 208.888 269.418 208.642C269.675 208.396 269.829 208.042 269.878 207.58H272.474C272.452 208.299 272.274 208.928 271.94 209.466C271.607 210.004 271.141 210.422 270.543 210.722C269.948 211.017 269.241 211.165 268.423 211.165ZM277.976 211.165C276.605 211.165 275.525 210.765 274.737 209.966C273.953 209.167 273.561 208.068 273.561 206.67C273.561 205.769 273.739 204.981 274.095 204.307C274.451 203.629 274.953 203.102 275.601 202.727C276.249 202.348 277.012 202.159 277.891 202.159C278.716 202.159 279.447 202.331 280.084 202.676C280.72 203.017 281.218 203.519 281.578 204.182C281.938 204.845 282.118 205.655 282.118 206.614V207.307H276.3V207.381C276.3 207.915 276.453 208.345 276.76 208.67C277.071 208.996 277.493 209.159 278.027 209.159C278.391 209.159 278.707 209.083 278.976 208.932C279.245 208.777 279.432 208.555 279.538 208.267L282.089 208.341C281.93 209.197 281.491 209.883 280.771 210.398C280.052 210.909 279.12 211.165 277.976 211.165ZM276.3 205.693H279.533C279.529 205.246 279.377 204.881 279.078 204.597C278.783 204.309 278.406 204.165 277.947 204.165C277.485 204.165 277.099 204.311 276.788 204.602C276.482 204.894 276.319 205.258 276.3 205.693ZM286.974 211V199.364H291.827C293.134 199.364 294.12 199.634 294.787 200.176C295.457 200.718 295.793 201.428 295.793 202.307C295.793 202.97 295.59 203.523 295.185 203.966C294.779 204.409 294.257 204.697 293.616 204.83V204.943C294.086 204.962 294.52 205.089 294.918 205.324C295.319 205.555 295.641 205.877 295.884 206.29C296.126 206.699 296.247 207.184 296.247 207.744C296.247 208.369 296.088 208.928 295.77 209.42C295.452 209.909 294.991 210.295 294.389 210.58C293.787 210.86 293.056 211 292.196 211H286.974ZM289.787 208.733H291.526C292.135 208.733 292.584 208.617 292.872 208.386C293.164 208.155 293.31 207.833 293.31 207.42C293.31 206.973 293.154 206.619 292.844 206.358C292.537 206.093 292.115 205.96 291.577 205.96H289.787V208.733ZM289.787 204.148H291.344C291.806 204.148 292.185 204.034 292.48 203.807C292.776 203.58 292.923 203.261 292.923 202.852C292.923 202.466 292.785 202.161 292.509 201.938C292.232 201.71 291.859 201.597 291.389 201.597H289.787V204.148Z" fill="black"/>
<rect x="17.5" y="142.5" width="365" height="125" stroke="black" stroke-width="3"/>
<rect x="401.5" y="142.5" width="157" height="93" stroke="black" stroke-width="3"/>
<path d="M421.17 186.852C421.133 186.436 420.964 186.112 420.665 185.881C420.369 185.646 419.947 185.528 419.398 185.528C418.852 185.528 418.443 185.633 418.17 185.841C417.898 186.045 417.759 186.307 417.756 186.625C417.744 186.97 417.894 187.241 418.205 187.438C418.515 187.631 418.934 187.784 419.46 187.898L420.46 188.125C421.608 188.379 422.487 188.794 423.097 189.369C423.71 189.945 424.019 190.697 424.023 191.625C424.019 192.731 423.61 193.595 422.795 194.216C421.981 194.837 420.848 195.148 419.398 195.148C417.936 195.148 416.765 194.818 415.886 194.159C415.011 193.496 414.564 192.485 414.545 191.125H417.239C417.269 191.686 417.475 192.11 417.858 192.398C418.241 192.682 418.742 192.824 419.364 192.824C419.928 192.824 420.369 192.712 420.688 192.489C421.006 192.265 421.167 191.975 421.17 191.619C421.167 191.294 421.015 191.034 420.716 190.841C420.417 190.644 419.947 190.472 419.307 190.324L418.091 190.04C417.087 189.809 416.294 189.436 415.71 188.92C415.131 188.402 414.843 187.701 414.847 186.818C414.843 186.095 415.036 185.462 415.426 184.92C415.816 184.379 416.354 183.958 417.04 183.659C417.729 183.356 418.517 183.205 419.403 183.205C420.305 183.205 421.087 183.358 421.75 183.665C422.417 183.968 422.934 184.394 423.301 184.943C423.669 185.489 423.856 186.125 423.864 186.852H421.17ZM429.523 195.165C428.152 195.165 427.072 194.765 426.284 193.966C425.5 193.167 425.108 192.068 425.108 190.67C425.108 189.769 425.286 188.981 425.642 188.307C425.998 187.629 426.5 187.102 427.148 186.727C427.795 186.348 428.559 186.159 429.438 186.159C430.263 186.159 430.994 186.331 431.631 186.676C432.267 187.017 432.765 187.519 433.125 188.182C433.485 188.845 433.665 189.655 433.665 190.614V191.307H427.847V191.381C427.847 191.915 428 192.345 428.307 192.67C428.617 192.996 429.04 193.159 429.574 193.159C429.938 193.159 430.254 193.083 430.523 192.932C430.792 192.777 430.979 192.555 431.085 192.267L433.636 192.341C433.477 193.197 433.038 193.883 432.318 194.398C431.598 194.909 430.667 195.165 429.523 195.165ZM427.847 189.693H431.08C431.076 189.246 430.924 188.881 430.625 188.597C430.33 188.309 429.953 188.165 429.494 188.165C429.032 188.165 428.646 188.311 428.335 188.602C428.028 188.894 427.866 189.258 427.847 189.693ZM435.084 195V186.273H437.783V187.864H437.874C438.033 187.288 438.292 186.86 438.652 186.58C439.012 186.295 439.43 186.153 439.908 186.153C440.173 186.153 440.432 186.188 440.686 186.256V188.67C440.554 188.625 440.379 188.589 440.163 188.562C439.951 188.536 439.762 188.523 439.595 188.523C439.099 188.523 438.686 188.684 438.357 189.006C438.027 189.324 437.862 189.742 437.862 190.261V195H435.084ZM450.55 186.273L447.555 195H444.374L441.385 186.273H444.311L445.919 192.284H446.01L447.624 186.273H450.55ZM451.803 195V186.273H454.581V195H451.803ZM453.195 185.256C452.804 185.256 452.469 185.127 452.189 184.869C451.909 184.608 451.768 184.294 451.768 183.926C451.768 183.559 451.909 183.246 452.189 182.989C452.469 182.731 452.804 182.602 453.195 182.602C453.589 182.602 453.924 182.731 454.2 182.989C454.481 183.246 454.621 183.559 454.621 183.926C454.621 184.294 454.481 184.608 454.2 184.869C453.924 185.127 453.589 185.256 453.195 185.256ZM460.423 195.165C459.503 195.165 458.713 194.975 458.054 194.597C457.399 194.214 456.895 193.686 456.543 193.011C456.19 192.333 456.014 191.551 456.014 190.665C456.014 189.771 456.19 188.987 456.543 188.312C456.895 187.634 457.401 187.106 458.06 186.727C458.719 186.348 459.505 186.159 460.418 186.159C461.228 186.159 461.933 186.305 462.531 186.597C463.13 186.888 463.598 187.301 463.935 187.835C464.276 188.366 464.455 188.989 464.474 189.705H461.878C461.825 189.258 461.673 188.907 461.423 188.653C461.177 188.4 460.855 188.273 460.457 188.273C459.973 188.273 459.582 188.475 459.287 188.881C458.991 189.282 458.844 189.867 458.844 190.636C458.844 191.413 458.99 192.004 459.281 192.409C459.577 192.811 459.969 193.011 460.457 193.011C460.84 193.011 461.16 192.888 461.418 192.642C461.675 192.396 461.829 192.042 461.878 191.58H464.474C464.452 192.299 464.274 192.928 463.94 193.466C463.607 194.004 463.141 194.422 462.543 194.722C461.948 195.017 461.241 195.165 460.423 195.165ZM469.976 195.165C468.605 195.165 467.525 194.765 466.737 193.966C465.953 193.167 465.561 192.068 465.561 190.67C465.561 189.769 465.739 188.981 466.095 188.307C466.451 187.629 466.953 187.102 467.601 186.727C468.249 186.348 469.012 186.159 469.891 186.159C470.716 186.159 471.447 186.331 472.084 186.676C472.72 187.017 473.218 187.519 473.578 188.182C473.938 188.845 474.118 189.655 474.118 190.614V191.307H468.3V191.381C468.3 191.915 468.453 192.345 468.76 192.67C469.071 192.996 469.493 193.159 470.027 193.159C470.391 193.159 470.707 193.083 470.976 192.932C471.245 192.777 471.432 192.555 471.538 192.267L474.089 192.341C473.93 193.197 473.491 193.883 472.771 194.398C472.052 194.909 471.12 195.165 469.976 195.165ZM468.3 189.693H471.533C471.529 189.246 471.377 188.881 471.078 188.597C470.783 188.309 470.406 188.165 469.947 188.165C469.485 188.165 469.099 188.311 468.788 188.602C468.482 188.894 468.319 189.258 468.3 189.693ZM489.537 187.58H486.696C486.624 186.996 486.389 186.532 485.991 186.188C485.598 185.843 485.08 185.67 484.44 185.67C483.592 185.67 482.925 185.979 482.44 186.597C481.959 187.21 481.719 188.072 481.719 189.182C481.719 190.337 481.961 191.212 482.446 191.807C482.935 192.398 483.594 192.693 484.423 192.693C485.041 192.693 485.548 192.536 485.946 192.222C486.348 191.907 486.598 191.47 486.696 190.909L489.537 190.926C489.484 191.441 489.334 191.951 489.088 192.455C488.842 192.955 488.501 193.409 488.065 193.818C487.634 194.223 487.109 194.549 486.491 194.795C485.874 195.038 485.166 195.159 484.366 195.159C483.313 195.159 482.37 194.928 481.537 194.466C480.707 194 480.052 193.322 479.571 192.432C479.09 191.542 478.849 190.458 478.849 189.182C478.849 187.898 479.094 186.812 479.582 185.926C480.071 185.036 480.732 184.36 481.565 183.898C482.399 183.436 483.332 183.205 484.366 183.205C485.306 183.205 486.147 183.377 486.889 183.722C487.632 184.062 488.234 184.559 488.696 185.21C489.162 185.862 489.442 186.652 489.537 187.58Z" fill="black"/>
<rect x="1.5" y="299.5" width="157" height="93" stroke="black" stroke-width="3"/>
<path d="M21.1705 343.852C21.1326 343.436 20.964 343.112 20.6648 342.881C20.3693 342.646 19.947 342.528 19.3977 342.528C18.8523 342.528 18.4432 342.633 18.1705 342.841C17.8977 343.045 17.7595 343.307 17.7557 343.625C17.7443 343.97 17.8939 344.241 18.2045 344.438C18.5152 344.631 18.9337 344.784 19.4602 344.898L20.4602 345.125C21.608 345.379 22.4867 345.794 23.0966 346.369C23.7102 346.945 24.0189 347.697 24.0227 348.625C24.0189 349.731 23.6098 350.595 22.7955 351.216C21.9811 351.837 20.8485 352.148 19.3977 352.148C17.9356 352.148 16.7652 351.818 15.8864 351.159C15.0114 350.496 14.5644 349.485 14.5455 348.125H17.2386C17.2689 348.686 17.4754 349.11 17.858 349.398C18.2405 349.682 18.7424 349.824 19.3636 349.824C19.928 349.824 20.3693 349.712 20.6875 349.489C21.0057 349.265 21.1667 348.975 21.1705 348.619C21.1667 348.294 21.0152 348.034 20.7159 347.841C20.4167 347.644 19.947 347.472 19.3068 347.324L18.0909 347.04C17.0871 346.809 16.2936 346.436 15.7102 345.92C15.1307 345.402 14.8428 344.701 14.8466 343.818C14.8428 343.095 15.036 342.462 15.4261 341.92C15.8163 341.379 16.3542 340.958 17.0398 340.659C17.7292 340.356 18.517 340.205 19.4034 340.205C20.3049 340.205 21.0871 340.358 21.75 340.665C22.4167 340.968 22.9337 341.394 23.3011 341.943C23.6686 342.489 23.8561 343.125 23.8636 343.852H21.1705ZM29.5227 352.165C28.1515 352.165 27.072 351.765 26.2841 350.966C25.5 350.167 25.108 349.068 25.108 347.67C25.108 346.769 25.286 345.981 25.642 345.307C25.9981 344.629 26.5 344.102 27.1477 343.727C27.7955 343.348 28.5587 343.159 29.4375 343.159C30.2633 343.159 30.9943 343.331 31.6307 343.676C32.267 344.017 32.7652 344.519 33.125 345.182C33.4848 345.845 33.6648 346.655 33.6648 347.614V348.307H27.8466V348.381C27.8466 348.915 28 349.345 28.3068 349.67C28.6174 349.996 29.0398 350.159 29.5739 350.159C29.9375 350.159 30.2538 350.083 30.5227 349.932C30.7917 349.777 30.9792 349.555 31.0852 349.267L33.6364 349.341C33.4773 350.197 33.0379 350.883 32.3182 351.398C31.5985 351.909 30.6667 352.165 29.5227 352.165ZM27.8466 346.693H31.0795C31.0758 346.246 30.9242 345.881 30.625 345.597C30.3295 345.309 29.9527 345.165 29.4943 345.165C29.0322 345.165 28.6458 345.311 28.3352 345.602C28.0284 345.894 27.8655 346.258 27.8466 346.693ZM35.0838 352V343.273H37.7827V344.864H37.8736C38.0327 344.288 38.2921 343.86 38.652 343.58C39.0118 343.295 39.4304 343.153 39.9077 343.153C40.1728 343.153 40.4323 343.188 40.6861 343.256V345.67C40.5535 345.625 40.3793 345.589 40.1634 345.562C39.9512 345.536 39.7618 345.523 39.5952 345.523C39.099 345.523 38.6861 345.684 38.3565 346.006C38.027 346.324 37.8622 346.742 37.8622 347.261V352H35.0838ZM50.5497 343.273L47.5554 352H44.3736L41.3849 343.273H44.3111L45.919 349.284H46.0099L47.6236 343.273H50.5497ZM51.8026 352V343.273H54.581V352H51.8026ZM53.1946 342.256C52.8045 342.256 52.4692 342.127 52.1889 341.869C51.9086 341.608 51.7685 341.294 51.7685 340.926C51.7685 340.559 51.9086 340.246 52.1889 339.989C52.4692 339.731 52.8045 339.602 53.1946 339.602C53.5885 339.602 53.9238 339.731 54.2003 339.989C54.4806 340.246 54.6207 340.559 54.6207 340.926C54.6207 341.294 54.4806 341.608 54.2003 341.869C53.9238 342.127 53.5885 342.256 53.1946 342.256ZM60.4233 352.165C59.5028 352.165 58.7131 351.975 58.054 351.597C57.3987 351.214 56.8949 350.686 56.5426 350.011C56.1903 349.333 56.0142 348.551 56.0142 347.665C56.0142 346.771 56.1903 345.987 56.5426 345.312C56.8949 344.634 57.4006 344.106 58.0597 343.727C58.7188 343.348 59.5047 343.159 60.4176 343.159C61.2282 343.159 61.9328 343.305 62.5312 343.597C63.1297 343.888 63.5975 344.301 63.9347 344.835C64.2756 345.366 64.4555 345.989 64.4744 346.705H61.8778C61.8248 346.258 61.6733 345.907 61.4233 345.653C61.1771 345.4 60.8551 345.273 60.4574 345.273C59.9725 345.273 59.5824 345.475 59.2869 345.881C58.9915 346.282 58.8438 346.867 58.8438 347.636C58.8438 348.413 58.9896 349.004 59.2812 349.409C59.5767 349.811 59.9688 350.011 60.4574 350.011C60.84 350.011 61.16 349.888 61.4176 349.642C61.6752 349.396 61.8286 349.042 61.8778 348.58H64.4744C64.4517 349.299 64.2737 349.928 63.9403 350.466C63.607 351.004 63.1411 351.422 62.5426 351.722C61.9479 352.017 61.2415 352.165 60.4233 352.165ZM69.9759 352.165C68.6046 352.165 67.5251 351.765 66.7372 350.966C65.9531 350.167 65.5611 349.068 65.5611 347.67C65.5611 346.769 65.7391 345.981 66.0952 345.307C66.4512 344.629 66.9531 344.102 67.6009 343.727C68.2486 343.348 69.0118 343.159 69.8906 343.159C70.7164 343.159 71.4474 343.331 72.0838 343.676C72.7202 344.017 73.2183 344.519 73.5781 345.182C73.938 345.845 74.1179 346.655 74.1179 347.614V348.307H68.2997V348.381C68.2997 348.915 68.4531 349.345 68.7599 349.67C69.0705 349.996 69.4929 350.159 70.027 350.159C70.3906 350.159 70.7069 350.083 70.9759 349.932C71.2448 349.777 71.4323 349.555 71.5384 349.267L74.0895 349.341C73.9304 350.197 73.491 350.883 72.7713 351.398C72.0516 351.909 71.1198 352.165 69.9759 352.165ZM68.2997 346.693H71.5327C71.5289 346.246 71.3774 345.881 71.0781 345.597C70.7827 345.309 70.4058 345.165 69.9474 345.165C69.4853 345.165 69.099 345.311 68.7884 345.602C68.4815 345.894 68.3187 346.258 68.2997 346.693ZM83.2756 352H78.9744V340.364H83.2699C84.4555 340.364 85.4763 340.597 86.3324 341.062C87.1922 341.525 87.8551 342.189 88.321 343.057C88.7869 343.924 89.0199 344.964 89.0199 346.176C89.0199 347.388 88.7869 348.43 88.321 349.301C87.8589 350.169 87.1979 350.835 86.3381 351.301C85.4782 351.767 84.4574 352 83.2756 352ZM81.7869 349.602H83.1676C84.1487 349.602 84.8987 349.347 85.4176 348.835C85.9403 348.32 86.2017 347.434 86.2017 346.176C86.2017 344.922 85.9384 344.04 85.4119 343.528C84.8892 343.017 84.1278 342.761 83.1278 342.761H81.7869V349.602Z" fill="black"/>
</svg>
